<?xml version='1.0' encoding='ASCII' standalone='yes'?>
<svg xmlns="http://www.w3.org/2000/svg" xmlns:xlink="http://www.w3.org/1999/xlink" version="1.1" width="2048.0px" viewBox="0 0 2048.0 1024.0" height="1024.0px">
  <g>
    <g transform="translate(0.0, 0.0) scale(1 1) "><!-- END OF HEADER -->
<rect style="opacity:1.0;fill:#FF00FF00;stroke:none" width="512.0" height="512.0" x="0.0" y="0.0"> </rect>
<path class="atom-0" d="M 244.5 228.8 Q 244.0 233.3, 241.2 235.8 Q 238.4 238.2, 233.7 238.2 Q 228.7 238.2, 225.6 234.6 Q 222.6 231.0, 222.6 224.9 L 222.6 222.2 Q 222.6 218.2, 224.0 215.2 Q 225.5 212.2, 228.1 210.6 Q 230.6 209.0, 234.1 209.0 Q 238.6 209.0, 241.3 211.5 Q 244.1 214.0, 244.5 218.5 L 240.7 218.5 Q 240.3 215.1, 238.6 213.6 Q 237.0 212.1, 234.1 212.1 Q 230.5 212.1, 228.4 214.7 Q 226.4 217.4, 226.4 222.3 L 226.4 225.0 Q 226.4 229.7, 228.3 232.4 Q 230.3 235.1, 233.7 235.1 Q 236.9 235.1, 238.5 233.7 Q 240.2 232.3, 240.7 228.8 L 244.5 228.8 " fill="#7E56C2"/>
<path class="atom-0" d="M 270.3 237.8 L 266.6 237.8 L 266.6 224.7 L 252.2 224.7 L 252.2 237.8 L 248.5 237.8 L 248.5 209.4 L 252.2 209.4 L 252.2 221.6 L 266.6 221.6 L 266.6 209.4 L 270.3 209.4 L 270.3 237.8 " fill="#7E56C2"/>
<path class="atom-0" d="M 286.8 245.7 L 289.4 245.7 L 289.4 247.7 L 286.8 247.7 L 286.8 252.0 L 284.4 252.0 L 284.4 247.7 L 275.8 247.7 L 275.8 246.3 L 284.2 233.3 L 286.8 233.3 L 286.8 245.7 M 278.5 245.7 L 284.4 245.7 L 284.4 236.5 L 284.1 237.0 L 278.5 245.7 " fill="#7E56C2"/>
<path class="legend" d="M 211.5 477.6 L 218.4 495.0 L 225.4 477.6 L 229.0 477.6 L 229.0 498.9 L 226.2 498.9 L 226.2 490.6 L 226.5 481.6 L 219.5 498.9 L 217.3 498.9 L 210.4 481.7 L 210.6 490.6 L 210.6 498.9 L 207.8 498.9 L 207.8 477.6 L 211.5 477.6 " fill="#7E56C2"/>
<path class="legend" d="M 240.2 499.2 Q 236.9 499.2, 234.9 497.1 Q 232.9 495.0, 232.9 491.4 L 232.9 490.9 Q 232.9 488.6, 233.8 486.7 Q 234.7 484.9, 236.3 483.8 Q 237.9 482.8, 239.8 482.8 Q 242.9 482.8, 244.6 484.8 Q 246.3 486.8, 246.3 490.6 L 246.3 491.8 L 235.6 491.8 Q 235.7 494.1, 237.0 495.6 Q 238.3 497.0, 240.3 497.0 Q 241.7 497.0, 242.7 496.4 Q 243.7 495.8, 244.5 494.8 L 246.1 496.1 Q 244.1 499.2, 240.2 499.2 M 239.8 485.0 Q 238.2 485.0, 237.1 486.2 Q 236.0 487.4, 235.7 489.5 L 243.6 489.5 L 243.6 489.3 Q 243.5 487.3, 242.5 486.1 Q 241.5 485.0, 239.8 485.0 " fill="#7E56C2"/>
<path class="legend" d="M 254.4 479.2 L 254.4 483.1 L 257.3 483.1 L 257.3 485.2 L 254.4 485.2 L 254.4 495.0 Q 254.4 495.9, 254.8 496.4 Q 255.2 496.9, 256.1 496.9 Q 256.6 496.9, 257.4 496.7 L 257.4 498.9 Q 256.3 499.2, 255.3 499.2 Q 253.5 499.2, 252.6 498.1 Q 251.7 497.0, 251.7 495.0 L 251.7 485.2 L 248.8 485.2 L 248.8 483.1 L 251.7 483.1 L 251.7 479.2 L 254.4 479.2 " fill="#7E56C2"/>
<path class="legend" d="M 262.5 485.0 Q 264.3 482.8, 267.2 482.8 Q 272.2 482.8, 272.3 488.4 L 272.3 498.9 L 269.6 498.9 L 269.6 488.4 Q 269.5 486.7, 268.8 485.9 Q 268.0 485.1, 266.4 485.1 Q 265.1 485.1, 264.1 485.8 Q 263.1 486.5, 262.5 487.6 L 262.5 498.9 L 259.8 498.9 L 259.8 476.4 L 262.5 476.4 L 262.5 485.0 " fill="#7E56C2"/>
<path class="legend" d="M 285.9 498.9 Q 285.6 498.4, 285.5 497.2 Q 283.6 499.2, 281.0 499.2 Q 278.6 499.2, 277.1 497.9 Q 275.6 496.5, 275.6 494.5 Q 275.6 492.0, 277.5 490.7 Q 279.4 489.3, 282.8 489.3 L 285.4 489.3 L 285.4 488.1 Q 285.4 486.6, 284.6 485.8 Q 283.7 484.9, 282.1 484.9 Q 280.6 484.9, 279.7 485.7 Q 278.7 486.4, 278.7 487.5 L 276.0 487.5 Q 276.0 486.3, 276.8 485.2 Q 277.6 484.1, 279.1 483.4 Q 280.5 482.8, 282.3 482.8 Q 285.0 482.8, 286.5 484.1 Q 288.1 485.5, 288.2 487.9 L 288.2 495.2 Q 288.2 497.4, 288.7 498.7 L 288.7 498.9 L 285.9 498.9 M 281.4 496.8 Q 282.6 496.8, 283.8 496.2 Q 284.9 495.5, 285.4 494.5 L 285.4 491.2 L 283.3 491.2 Q 278.3 491.2, 278.3 494.1 Q 278.3 495.4, 279.2 496.1 Q 280.0 496.8, 281.4 496.8 " fill="#7E56C2"/>
<path class="legend" d="M 294.3 483.1 L 294.4 485.0 Q 296.2 482.8, 299.1 482.8 Q 304.1 482.8, 304.2 488.4 L 304.2 498.9 L 301.5 498.9 L 301.5 488.4 Q 301.5 486.7, 300.7 485.9 Q 299.9 485.1, 298.3 485.1 Q 297.0 485.1, 296.0 485.8 Q 295.0 486.5, 294.4 487.6 L 294.4 498.9 L 291.7 498.9 L 291.7 483.1 L 294.3 483.1 " fill="#7E56C2"/>
</g>
    <g transform="translate(512.0, 0.0) scale(1 1) "><!-- END OF HEADER -->
<rect style="opacity:1.0;fill:#FF00FF00;stroke:none" width="512.0" height="512.0" x="0.0" y="0.0"> </rect>
<path class="bond-0 atom-0 atom-1" d="M 83.1,230.5 L 428.9,230.5" style="fill:none;fill-rule:evenodd;stroke:#7E56C2;stroke-width:4.0px;stroke-linecap:butt;stroke-linejoin:miter;stroke-opacity:1"/>
<path class="legend" d="M 232.7 489.0 L 223.5 489.0 L 223.5 496.6 L 234.2 496.6 L 234.2 498.9 L 220.6 498.9 L 220.6 477.6 L 234.0 477.6 L 234.0 479.9 L 223.5 479.9 L 223.5 486.7 L 232.7 486.7 L 232.7 489.0 " fill="#7E56C2"/>
<path class="legend" d="M 242.0 479.2 L 242.0 483.1 L 245.0 483.1 L 245.0 485.2 L 242.0 485.2 L 242.0 495.0 Q 242.0 495.9, 242.4 496.4 Q 242.8 496.9, 243.8 496.9 Q 244.2 496.9, 245.0 496.7 L 245.0 498.9 Q 244.0 499.2, 243.0 499.2 Q 241.2 499.2, 240.2 498.1 Q 239.3 497.0, 239.3 495.0 L 239.3 485.2 L 236.4 485.2 L 236.4 483.1 L 239.3 483.1 L 239.3 479.2 L 242.0 479.2 " fill="#7E56C2"/>
<path class="legend" d="M 250.0 485.0 Q 251.8 482.8, 254.7 482.8 Q 259.7 482.8, 259.8 488.4 L 259.8 498.9 L 257.0 498.9 L 257.0 488.4 Q 257.0 486.7, 256.3 485.9 Q 255.5 485.1, 253.9 485.1 Q 252.6 485.1, 251.6 485.8 Q 250.6 486.5, 250.0 487.6 L 250.0 498.9 L 247.3 498.9 L 247.3 476.4 L 250.0 476.4 L 250.0 485.0 " fill="#7E56C2"/>
<path class="legend" d="M 273.2 498.9 Q 273.0 498.4, 272.8 497.2 Q 270.9 499.2, 268.3 499.2 Q 266.0 499.2, 264.5 497.9 Q 263.0 496.5, 263.0 494.5 Q 263.0 492.0, 264.8 490.7 Q 266.7 489.3, 270.1 489.3 L 272.8 489.3 L 272.8 488.1 Q 272.8 486.6, 271.9 485.8 Q 271.1 484.9, 269.4 484.9 Q 268.0 484.9, 267.0 485.7 Q 266.0 486.4, 266.0 487.5 L 263.3 487.5 Q 263.3 486.3, 264.1 485.2 Q 265.0 484.1, 266.4 483.4 Q 267.9 482.8, 269.6 482.8 Q 272.3 482.8, 273.9 484.1 Q 275.4 485.5, 275.5 487.9 L 275.5 495.2 Q 275.5 497.4, 276.0 498.7 L 276.0 498.9 L 273.2 498.9 M 268.7 496.8 Q 270.0 496.8, 271.1 496.2 Q 272.3 495.5, 272.8 494.5 L 272.8 491.2 L 270.7 491.2 Q 265.7 491.2, 265.7 494.1 Q 265.7 495.4, 266.5 496.1 Q 267.4 496.8, 268.7 496.8 " fill="#7E56C2"/>
<path class="legend" d="M 281.5 483.1 L 281.5 485.0 Q 283.4 482.8, 286.3 482.8 Q 291.3 482.8, 291.4 488.4 L 291.4 498.9 L 288.6 498.9 L 288.6 488.4 Q 288.6 486.7, 287.9 485.9 Q 287.1 485.1, 285.5 485.1 Q 284.2 485.1, 283.2 485.8 Q 282.2 486.5, 281.6 487.6 L 281.6 498.9 L 278.9 498.9 L 278.9 483.1 L 281.5 483.1 " fill="#7E56C2"/>
</g>
    <g transform="translate(1024.0, 0.0) scale(1 1) "><!-- END OF HEADER -->
<rect style="opacity:1.0;fill:#FF00FF00;stroke:none" width="512.0" height="512.0" x="0.0" y="0.0"> </rect>
<path class="bond-0 atom-0 atom-1" d="M 23.3,297.7 L 256.0,163.3" style="fill:none;fill-rule:evenodd;stroke:#7E56C2;stroke-width:4.0px;stroke-linecap:butt;stroke-linejoin:miter;stroke-opacity:1"/>
<path class="bond-1 atom-1 atom-2" d="M 256.0,163.3 L 488.7,297.7" style="fill:none;fill-rule:evenodd;stroke:#7E56C2;stroke-width:4.0px;stroke-linecap:butt;stroke-linejoin:miter;stroke-opacity:1"/>
<path d="M 244.4,170.0 L 256.0,163.3 L 267.6,170.0" style="fill:none;stroke:#7E56C2;stroke-width:4.0px;stroke-linecap:butt;stroke-linejoin:miter;stroke-opacity:1;"/>
<path class="legend" d="M 214.5 484.8 L 214.5 493.1 L 211.7 493.1 L 211.7 471.8 L 219.5 471.8 Q 223.0 471.8, 225.0 473.6 Q 227.0 475.4, 227.0 478.3 Q 227.0 481.4, 225.1 483.1 Q 223.1 484.8, 219.5 484.8 L 214.5 484.8 M 214.5 482.5 L 219.5 482.5 Q 221.8 482.5, 223.0 481.4 Q 224.2 480.3, 224.2 478.3 Q 224.2 476.4, 223.0 475.3 Q 221.8 474.1, 219.7 474.1 L 214.5 474.1 L 214.5 482.5 " fill="#7E56C2"/>
<path class="legend" d="M 237.1 479.7 Q 236.4 479.6, 235.7 479.6 Q 233.1 479.6, 232.1 481.9 L 232.1 493.1 L 229.4 493.1 L 229.4 477.3 L 232.0 477.3 L 232.1 479.1 Q 233.4 477.0, 235.9 477.0 Q 236.6 477.0, 237.1 477.2 L 237.1 479.7 " fill="#7E56C2"/>
<path class="legend" d="M 238.8 485.0 Q 238.8 482.7, 239.7 480.8 Q 240.6 479.0, 242.2 478.0 Q 243.9 477.0, 246.0 477.0 Q 249.2 477.0, 251.2 479.2 Q 253.2 481.4, 253.2 485.2 L 253.2 485.4 Q 253.2 487.7, 252.3 489.5 Q 251.4 491.3, 249.8 492.4 Q 248.1 493.4, 246.0 493.4 Q 242.8 493.4, 240.8 491.2 Q 238.8 488.9, 238.8 485.2 L 238.8 485.0 M 241.5 485.4 Q 241.5 488.0, 242.7 489.6 Q 243.9 491.2, 246.0 491.2 Q 248.1 491.2, 249.3 489.6 Q 250.5 487.9, 250.5 485.0 Q 250.5 482.4, 249.2 480.8 Q 248.0 479.2, 246.0 479.2 Q 244.0 479.2, 242.7 480.8 Q 241.5 482.4, 241.5 485.4 " fill="#7E56C2"/>
<path class="legend" d="M 269.2 485.4 Q 269.2 489.0, 267.5 491.2 Q 265.9 493.4, 263.1 493.4 Q 260.2 493.4, 258.5 491.6 L 258.5 499.2 L 255.8 499.2 L 255.8 477.3 L 258.3 477.3 L 258.4 479.0 Q 260.1 477.0, 263.0 477.0 Q 265.9 477.0, 267.5 479.1 Q 269.2 481.3, 269.2 485.1 L 269.2 485.4 M 266.5 485.0 Q 266.5 482.4, 265.4 480.8 Q 264.2 479.3, 262.2 479.3 Q 259.8 479.3, 258.5 481.4 L 258.5 489.0 Q 259.7 491.2, 262.2 491.2 Q 264.2 491.2, 265.3 489.6 Q 266.5 488.1, 266.5 485.0 " fill="#7E56C2"/>
<path class="legend" d="M 282.1 493.1 Q 281.9 492.6, 281.7 491.4 Q 279.8 493.4, 277.2 493.4 Q 274.9 493.4, 273.4 492.1 Q 271.9 490.7, 271.9 488.7 Q 271.9 486.2, 273.7 484.9 Q 275.6 483.5, 279.0 483.5 L 281.7 483.5 L 281.7 482.3 Q 281.7 480.8, 280.8 480.0 Q 280.0 479.1, 278.3 479.1 Q 276.9 479.1, 275.9 479.9 Q 274.9 480.6, 274.9 481.7 L 272.2 481.7 Q 272.2 480.5, 273.0 479.4 Q 273.9 478.3, 275.3 477.6 Q 276.8 477.0, 278.5 477.0 Q 281.2 477.0, 282.8 478.3 Q 284.3 479.7, 284.4 482.1 L 284.4 489.4 Q 284.4 491.6, 285.0 492.9 L 285.0 493.1 L 282.1 493.1 M 277.6 491.0 Q 278.9 491.0, 280.0 490.4 Q 281.2 489.7, 281.7 488.7 L 281.7 485.4 L 279.6 485.4 Q 274.6 485.4, 274.6 488.3 Q 274.6 489.6, 275.4 490.3 Q 276.3 491.0, 277.6 491.0 " fill="#7E56C2"/>
<path class="legend" d="M 290.4 477.3 L 290.5 479.2 Q 292.3 477.0, 295.3 477.0 Q 300.3 477.0, 300.3 482.6 L 300.3 493.1 L 297.6 493.1 L 297.6 482.6 Q 297.6 480.9, 296.8 480.1 Q 296.1 479.3, 294.4 479.3 Q 293.1 479.3, 292.1 480.0 Q 291.1 480.7, 290.6 481.8 L 290.6 493.1 L 287.9 493.1 L 287.9 477.3 L 290.4 477.3 " fill="#7E56C2"/>
</g>
    <g transform="translate(1536.0, 0.0) scale(1 1) "><!-- END OF HEADER -->
<rect style="opacity:1.0;fill:#FF00FF00;stroke:none" width="512.0" height="512.0" x="0.0" y="0.0"> </rect>
<path class="bond-0 atom-0 atom-1" d="M 23.3,246.5 L 185.5,177.5" style="fill:none;fill-rule:evenodd;stroke:#7E56C2;stroke-width:4.0px;stroke-linecap:butt;stroke-linejoin:miter;stroke-opacity:1"/>
<path class="bond-1 atom-1 atom-2" d="M 185.5,177.5 L 326.5,283.5" style="fill:none;fill-rule:evenodd;stroke:#7E56C2;stroke-width:4.0px;stroke-linecap:butt;stroke-linejoin:miter;stroke-opacity:1"/>
<path class="bond-2 atom-2 atom-3" d="M 326.5,283.5 L 488.7,214.5" style="fill:none;fill-rule:evenodd;stroke:#7E56C2;stroke-width:4.0px;stroke-linecap:butt;stroke-linejoin:miter;stroke-opacity:1"/>
<path d="M 177.4,181.0 L 185.5,177.5 L 192.6,182.8" style="fill:none;stroke:#7E56C2;stroke-width:4.0px;stroke-linecap:butt;stroke-linejoin:miter;stroke-opacity:1;"/>
<path d="M 319.4,278.2 L 326.5,283.5 L 334.6,280.0" style="fill:none;stroke:#7E56C2;stroke-width:4.0px;stroke-linecap:butt;stroke-linejoin:miter;stroke-opacity:1;"/>
<path class="legend" d="M 219.8 498.9 L 219.8 477.6 L 226.7 477.6 Q 230.2 477.6, 231.9 479.0 Q 233.7 480.4, 233.7 483.3 Q 233.7 484.8, 232.8 485.9 Q 232.0 487.1, 230.5 487.7 Q 232.3 488.2, 233.3 489.5 Q 234.3 490.9, 234.3 492.8 Q 234.3 495.6, 232.4 497.3 Q 230.5 498.9, 227.1 498.9 L 219.8 498.9 M 222.6 488.9 L 222.6 496.6 L 227.2 496.6 Q 229.2 496.6, 230.3 495.6 Q 231.4 494.6, 231.4 492.8 Q 231.4 488.9, 227.3 488.9 L 222.6 488.9 M 222.6 486.7 L 226.8 486.7 Q 228.7 486.7, 229.8 485.8 Q 230.9 484.8, 230.9 483.2 Q 230.9 481.5, 229.8 480.7 Q 228.8 479.9, 226.7 479.9 L 222.6 479.9 L 222.6 486.7 " fill="#7E56C2"/>
<path class="legend" d="M 247.0 497.3 Q 245.4 499.2, 242.4 499.2 Q 239.8 499.2, 238.5 497.7 Q 237.2 496.3, 237.2 493.4 L 237.2 483.1 L 239.9 483.1 L 239.9 493.3 Q 239.9 496.9, 242.8 496.9 Q 245.9 496.9, 246.9 494.6 L 246.9 483.1 L 249.7 483.1 L 249.7 498.9 L 247.1 498.9 L 247.0 497.3 " fill="#7E56C2"/>
<path class="legend" d="M 258.5 479.2 L 258.5 483.1 L 261.5 483.1 L 261.5 485.2 L 258.5 485.2 L 258.5 495.0 Q 258.5 495.9, 258.9 496.4 Q 259.3 496.9, 260.3 496.9 Q 260.8 496.9, 261.6 496.7 L 261.6 498.9 Q 260.5 499.2, 259.5 499.2 Q 257.7 499.2, 256.8 498.1 Q 255.8 497.0, 255.8 495.0 L 255.8 485.2 L 252.9 485.2 L 252.9 483.1 L 255.8 483.1 L 255.8 479.2 L 258.5 479.2 " fill="#7E56C2"/>
<path class="legend" d="M 274.1 498.9 Q 273.8 498.4, 273.7 497.2 Q 271.8 499.2, 269.2 499.2 Q 266.8 499.2, 265.3 497.9 Q 263.8 496.5, 263.8 494.5 Q 263.8 492.0, 265.7 490.7 Q 267.6 489.3, 271.0 489.3 L 273.7 489.3 L 273.7 488.1 Q 273.7 486.6, 272.8 485.8 Q 272.0 484.9, 270.3 484.9 Q 268.8 484.9, 267.9 485.7 Q 266.9 486.4, 266.9 487.5 L 264.2 487.5 Q 264.2 486.3, 265.0 485.2 Q 265.8 484.1, 267.3 483.4 Q 268.7 482.8, 270.5 482.8 Q 273.2 482.8, 274.8 484.1 Q 276.3 485.5, 276.4 487.9 L 276.4 495.2 Q 276.4 497.4, 276.9 498.7 L 276.9 498.9 L 274.1 498.9 M 269.6 496.8 Q 270.9 496.8, 272.0 496.2 Q 273.1 495.5, 273.7 494.5 L 273.7 491.2 L 271.5 491.2 Q 266.5 491.2, 266.5 494.1 Q 266.5 495.4, 267.4 496.1 Q 268.2 496.8, 269.6 496.8 " fill="#7E56C2"/>
<path class="legend" d="M 282.3 483.1 L 282.4 485.0 Q 284.3 482.8, 287.2 482.8 Q 292.2 482.8, 292.2 488.4 L 292.2 498.9 L 289.5 498.9 L 289.5 488.4 Q 289.5 486.7, 288.7 485.9 Q 288.0 485.1, 286.4 485.1 Q 285.0 485.1, 284.0 485.8 Q 283.0 486.5, 282.5 487.6 L 282.5 498.9 L 279.8 498.9 L 279.8 483.1 L 282.3 483.1 " fill="#7E56C2"/>
</g>
    <g transform="translate(0.0, 512.0) scale(1 1) "><!-- END OF HEADER -->
<rect style="opacity:1.0;fill:#FF00FF00;stroke:none" width="512.0" height="512.0" x="0.0" y="0.0"> </rect>
<path class="bond-0 atom-0 atom-1" d="M 23.3,264.1 L 139.6,196.9" style="fill:none;fill-rule:evenodd;stroke:#7E56C2;stroke-width:4.0px;stroke-linecap:butt;stroke-linejoin:miter;stroke-opacity:1"/>
<path class="bond-1 atom-1 atom-2" d="M 139.6,196.9 L 256.0,264.1" style="fill:none;fill-rule:evenodd;stroke:#7E56C2;stroke-width:4.0px;stroke-linecap:butt;stroke-linejoin:miter;stroke-opacity:1"/>
<path class="bond-2 atom-2 atom-3" d="M 256.0,264.1 L 372.4,196.9" style="fill:none;fill-rule:evenodd;stroke:#7E56C2;stroke-width:4.0px;stroke-linecap:butt;stroke-linejoin:miter;stroke-opacity:1"/>
<path class="bond-3 atom-3 atom-4" d="M 372.4,196.9 L 488.7,264.1" style="fill:none;fill-rule:evenodd;stroke:#7E56C2;stroke-width:4.0px;stroke-linecap:butt;stroke-linejoin:miter;stroke-opacity:1"/>
<path d="M 133.8,200.3 L 139.6,196.9 L 145.5,200.3" style="fill:none;stroke:#7E56C2;stroke-width:4.0px;stroke-linecap:butt;stroke-linejoin:miter;stroke-opacity:1;"/>
<path d="M 250.2,260.7 L 256.0,264.1 L 261.8,260.7" style="fill:none;stroke:#7E56C2;stroke-width:4.0px;stroke-linecap:butt;stroke-linejoin:miter;stroke-opacity:1;"/>
<path d="M 366.5,200.3 L 372.4,196.9 L 378.2,200.3" style="fill:none;stroke:#7E56C2;stroke-width:4.0px;stroke-linecap:butt;stroke-linejoin:miter;stroke-opacity:1;"/>
<path class="legend" d="M 214.5 490.6 L 214.5 498.9 L 211.7 498.9 L 211.7 477.6 L 219.6 477.6 Q 223.1 477.6, 225.0 479.4 Q 227.0 481.2, 227.0 484.1 Q 227.0 487.2, 225.1 488.9 Q 223.1 490.6, 219.5 490.6 L 214.5 490.6 M 214.5 488.3 L 219.6 488.3 Q 221.8 488.3, 223.0 487.2 Q 224.2 486.1, 224.2 484.1 Q 224.2 482.2, 223.0 481.1 Q 221.8 479.9, 219.7 479.9 L 214.5 479.9 L 214.5 488.3 " fill="#7E56C2"/>
<path class="legend" d="M 236.7 499.2 Q 233.4 499.2, 231.4 497.1 Q 229.4 495.0, 229.4 491.4 L 229.4 490.9 Q 229.4 488.6, 230.3 486.7 Q 231.2 484.9, 232.8 483.8 Q 234.4 482.8, 236.3 482.8 Q 239.4 482.8, 241.1 484.8 Q 242.8 486.8, 242.8 490.6 L 242.8 491.8 L 232.1 491.8 Q 232.2 494.1, 233.5 495.6 Q 234.8 497.0, 236.8 497.0 Q 238.2 497.0, 239.2 496.4 Q 240.2 495.8, 241.0 494.8 L 242.6 496.1 Q 240.6 499.2, 236.7 499.2 M 236.3 485.0 Q 234.7 485.0, 233.6 486.2 Q 232.5 487.4, 232.2 489.5 L 240.1 489.5 L 240.1 489.3 Q 240.0 487.3, 239.0 486.1 Q 238.0 485.0, 236.3 485.0 " fill="#7E56C2"/>
<path class="legend" d="M 247.7 483.1 L 247.8 485.0 Q 249.7 482.8, 252.6 482.8 Q 257.6 482.8, 257.6 488.4 L 257.6 498.9 L 254.9 498.9 L 254.9 488.4 Q 254.9 486.7, 254.1 485.9 Q 253.4 485.1, 251.8 485.1 Q 250.4 485.1, 249.4 485.8 Q 248.5 486.5, 247.9 487.6 L 247.9 498.9 L 245.2 498.9 L 245.2 483.1 L 247.7 483.1 " fill="#7E56C2"/>
<path class="legend" d="M 266.5 479.2 L 266.5 483.1 L 269.5 483.1 L 269.5 485.2 L 266.5 485.2 L 266.5 495.0 Q 266.5 495.9, 266.9 496.4 Q 267.3 496.9, 268.3 496.9 Q 268.8 496.9, 269.6 496.7 L 269.6 498.9 Q 268.5 499.2, 267.5 499.2 Q 265.7 499.2, 264.8 498.1 Q 263.8 497.0, 263.8 495.0 L 263.8 485.2 L 260.9 485.2 L 260.9 483.1 L 263.8 483.1 L 263.8 479.2 L 266.5 479.2 " fill="#7E56C2"/>
<path class="legend" d="M 282.1 498.9 Q 281.9 498.4, 281.7 497.2 Q 279.8 499.2, 277.2 499.2 Q 274.9 499.2, 273.4 497.9 Q 271.9 496.5, 271.9 494.5 Q 271.9 492.0, 273.7 490.7 Q 275.6 489.3, 279.0 489.3 L 281.7 489.3 L 281.7 488.1 Q 281.7 486.6, 280.8 485.8 Q 280.0 484.9, 278.3 484.9 Q 276.9 484.9, 275.9 485.7 Q 274.9 486.4, 274.9 487.5 L 272.2 487.5 Q 272.2 486.3, 273.0 485.2 Q 273.9 484.1, 275.3 483.4 Q 276.8 482.8, 278.5 482.8 Q 281.2 482.8, 282.8 484.1 Q 284.3 485.5, 284.4 487.9 L 284.4 495.2 Q 284.4 497.4, 284.9 498.7 L 284.9 498.9 L 282.1 498.9 M 277.6 496.8 Q 278.9 496.8, 280.0 496.2 Q 281.2 495.5, 281.7 494.5 L 281.7 491.2 L 279.6 491.2 Q 274.6 491.2, 274.6 494.1 Q 274.6 495.4, 275.4 496.1 Q 276.3 496.8, 277.6 496.8 " fill="#7E56C2"/>
<path class="legend" d="M 290.4 483.1 L 290.5 485.0 Q 292.3 482.8, 295.2 482.8 Q 300.3 482.8, 300.3 488.4 L 300.3 498.9 L 297.6 498.9 L 297.6 488.4 Q 297.6 486.7, 296.8 485.9 Q 296.0 485.1, 294.4 485.1 Q 293.1 485.1, 292.1 485.8 Q 291.1 486.5, 290.6 487.6 L 290.6 498.9 L 287.8 498.9 L 287.8 483.1 L 290.4 483.1 " fill="#7E56C2"/>
</g>
    <g transform="translate(512.0, 512.0) scale(1 1) "><!-- END OF HEADER -->
<rect style="opacity:1.0;fill:#FF00FF00;stroke:none" width="512.0" height="512.0" x="0.0" y="0.0"> </rect>
<path class="bond-0 atom-0 atom-1" d="M 23.3,245.5 L 118.5,196.7" style="fill:none;fill-rule:evenodd;stroke:#7E56C2;stroke-width:4.0px;stroke-linecap:butt;stroke-linejoin:miter;stroke-opacity:1"/>
<path class="bond-1 atom-1 atom-2" d="M 118.5,196.7 L 208.4,254.9" style="fill:none;fill-rule:evenodd;stroke:#7E56C2;stroke-width:4.0px;stroke-linecap:butt;stroke-linejoin:miter;stroke-opacity:1"/>
<path class="bond-2 atom-2 atom-3" d="M 208.4,254.9 L 303.6,206.1" style="fill:none;fill-rule:evenodd;stroke:#7E56C2;stroke-width:4.0px;stroke-linecap:butt;stroke-linejoin:miter;stroke-opacity:1"/>
<path class="bond-3 atom-3 atom-4" d="M 303.6,206.1 L 393.5,264.3" style="fill:none;fill-rule:evenodd;stroke:#7E56C2;stroke-width:4.0px;stroke-linecap:butt;stroke-linejoin:miter;stroke-opacity:1"/>
<path class="bond-4 atom-4 atom-5" d="M 393.5,264.3 L 488.7,215.5" style="fill:none;fill-rule:evenodd;stroke:#7E56C2;stroke-width:4.0px;stroke-linecap:butt;stroke-linejoin:miter;stroke-opacity:1"/>
<path d="M 113.8,199.2 L 118.5,196.7 L 123.0,199.6" style="fill:none;stroke:#7E56C2;stroke-width:4.0px;stroke-linecap:butt;stroke-linejoin:miter;stroke-opacity:1;"/>
<path d="M 203.9,252.0 L 208.4,254.9 L 213.1,252.4" style="fill:none;stroke:#7E56C2;stroke-width:4.0px;stroke-linecap:butt;stroke-linejoin:miter;stroke-opacity:1;"/>
<path d="M 298.9,208.6 L 303.6,206.1 L 308.1,209.0" style="fill:none;stroke:#7E56C2;stroke-width:4.0px;stroke-linecap:butt;stroke-linejoin:miter;stroke-opacity:1;"/>
<path d="M 389.0,261.4 L 393.5,264.3 L 398.2,261.8" style="fill:none;stroke:#7E56C2;stroke-width:4.0px;stroke-linecap:butt;stroke-linejoin:miter;stroke-opacity:1;"/>
<path class="legend" d="M 232.2 498.9 L 229.4 498.9 L 229.4 489.0 L 218.6 489.0 L 218.6 498.9 L 215.8 498.9 L 215.8 477.6 L 218.6 477.6 L 218.6 486.7 L 229.4 486.7 L 229.4 477.6 L 232.2 477.6 L 232.2 498.9 " fill="#7E56C2"/>
<path class="legend" d="M 243.3 499.2 Q 240.1 499.2, 238.1 497.1 Q 236.1 495.0, 236.1 491.4 L 236.1 490.9 Q 236.1 488.6, 237.0 486.7 Q 237.9 484.9, 239.5 483.8 Q 241.1 482.8, 243.0 482.8 Q 246.1 482.8, 247.8 484.8 Q 249.5 486.8, 249.5 490.6 L 249.5 491.8 L 238.8 491.8 Q 238.9 494.1, 240.2 495.6 Q 241.5 497.0, 243.5 497.0 Q 244.9 497.0, 245.9 496.4 Q 246.9 495.8, 247.7 494.8 L 249.3 496.1 Q 247.3 499.2, 243.3 499.2 M 243.0 485.0 Q 241.4 485.0, 240.3 486.2 Q 239.1 487.4, 238.9 489.5 L 246.8 489.5 L 246.8 489.3 Q 246.7 487.3, 245.7 486.1 Q 244.7 485.0, 243.0 485.0 " fill="#7E56C2"/>
<path class="legend" d="M 258.8 488.8 L 262.3 483.1 L 265.4 483.1 L 260.3 490.9 L 265.6 498.9 L 262.5 498.9 L 258.8 493.0 L 255.1 498.9 L 252.0 498.9 L 257.3 490.9 L 252.2 483.1 L 255.3 483.1 L 258.8 488.8 " fill="#7E56C2"/>
<path class="legend" d="M 277.9 498.9 Q 277.6 498.4, 277.5 497.2 Q 275.6 499.2, 273.0 499.2 Q 270.6 499.2, 269.1 497.9 Q 267.6 496.5, 267.6 494.5 Q 267.6 492.0, 269.5 490.7 Q 271.4 489.3, 274.8 489.3 L 277.5 489.3 L 277.5 488.1 Q 277.5 486.6, 276.6 485.8 Q 275.8 484.9, 274.1 484.9 Q 272.7 484.9, 271.7 485.7 Q 270.7 486.4, 270.7 487.5 L 268.0 487.5 Q 268.0 486.3, 268.8 485.2 Q 269.6 484.1, 271.1 483.4 Q 272.5 482.8, 274.3 482.8 Q 277.0 482.8, 278.6 484.1 Q 280.1 485.5, 280.2 487.9 L 280.2 495.2 Q 280.2 497.4, 280.7 498.7 L 280.7 498.9 L 277.9 498.9 M 273.4 496.8 Q 274.7 496.8, 275.8 496.2 Q 276.9 495.5, 277.5 494.5 L 277.5 491.2 L 275.3 491.2 Q 270.4 491.2, 270.4 494.1 Q 270.4 495.4, 271.2 496.1 Q 272.1 496.8, 273.4 496.8 " fill="#7E56C2"/>
<path class="legend" d="M 286.3 483.1 L 286.4 485.0 Q 288.2 482.8, 291.1 482.8 Q 296.2 482.8, 296.2 488.4 L 296.2 498.9 L 293.5 498.9 L 293.5 488.4 Q 293.5 486.7, 292.7 485.9 Q 291.9 485.1, 290.3 485.1 Q 289.0 485.1, 288.0 485.8 Q 287.0 486.5, 286.5 487.6 L 286.5 498.9 L 283.7 498.9 L 283.7 483.1 L 286.3 483.1 " fill="#7E56C2"/>
</g>
  </g>
</svg>
