<?xml version='1.0' encoding='ASCII' standalone='yes'?>
<svg xmlns="http://www.w3.org/2000/svg" xmlns:xlink="http://www.w3.org/1999/xlink" version="1.1" width="1536.0px" viewBox="0 0 1536.0 512.0" height="512.0px">
  <g>
    <g transform="translate(0.0, 0.0) scale(1 1) "><!-- END OF HEADER -->
<rect style="opacity:1.0;fill:#FF00FF00;stroke:none" width="512.0" height="512.0" x="0.0" y="0.0"> </rect>
<path class="bond-0 atom-0 atom-1" d="M 23.3,195.6 L 488.7,195.6" style="fill:none;fill-rule:evenodd;stroke:#7E56C2;stroke-width:4.0px;stroke-linecap:butt;stroke-linejoin:miter;stroke-opacity:1"/>
<path class="bond-0 atom-0 atom-1" d="M 23.3,265.4 L 488.7,265.4" style="fill:none;fill-rule:evenodd;stroke:#7E56C2;stroke-width:4.0px;stroke-linecap:butt;stroke-linejoin:miter;stroke-opacity:1"/>
<path class="legend" d="M 232.8 489.0 L 223.5 489.0 L 223.5 496.6 L 234.3 496.6 L 234.3 498.9 L 220.7 498.9 L 220.7 477.6 L 234.1 477.6 L 234.1 479.9 L 223.5 479.9 L 223.5 486.7 L 232.8 486.7 L 232.8 489.0 " fill="#7E56C2"/>
<path class="legend" d="M 242.1 479.2 L 242.1 483.1 L 245.1 483.1 L 245.1 485.2 L 242.1 485.2 L 242.1 495.0 Q 242.1 495.9, 242.5 496.4 Q 242.9 496.9, 243.8 496.9 Q 244.3 496.9, 245.1 496.7 L 245.1 498.9 Q 244.1 499.2, 243.1 499.2 Q 241.2 499.2, 240.3 498.1 Q 239.4 497.0, 239.4 495.0 L 239.4 485.2 L 236.5 485.2 L 236.5 483.1 L 239.4 483.1 L 239.4 479.2 L 242.1 479.2 " fill="#7E56C2"/>
<path class="legend" d="M 250.1 485.0 Q 251.9 482.8, 254.8 482.8 Q 259.8 482.8, 259.9 488.4 L 259.9 498.9 L 257.1 498.9 L 257.1 488.4 Q 257.1 486.7, 256.4 485.9 Q 255.6 485.1, 254.0 485.1 Q 252.6 485.1, 251.6 485.8 Q 250.7 486.5, 250.1 487.6 L 250.1 498.9 L 247.4 498.9 L 247.4 476.4 L 250.1 476.4 L 250.1 485.0 " fill="#7E56C2"/>
<path class="legend" d="M 270.3 499.2 Q 267.1 499.2, 265.1 497.1 Q 263.1 495.0, 263.1 491.4 L 263.1 490.9 Q 263.1 488.6, 264.0 486.7 Q 264.9 484.9, 266.5 483.8 Q 268.1 482.8, 270.0 482.8 Q 273.1 482.8, 274.8 484.8 Q 276.5 486.8, 276.5 490.6 L 276.5 491.8 L 265.8 491.8 Q 265.8 494.1, 267.1 495.6 Q 268.5 497.0, 270.5 497.0 Q 271.9 497.0, 272.9 496.4 Q 273.9 495.8, 274.7 494.8 L 276.3 496.1 Q 274.3 499.2, 270.3 499.2 M 270.0 485.0 Q 268.4 485.0, 267.2 486.2 Q 266.1 487.4, 265.9 489.5 L 273.8 489.5 L 273.8 489.3 Q 273.7 487.3, 272.7 486.1 Q 271.7 485.0, 270.0 485.0 " fill="#7E56C2"/>
<path class="legend" d="M 281.4 483.1 L 281.5 485.0 Q 283.3 482.8, 286.2 482.8 Q 291.2 482.8, 291.3 488.4 L 291.3 498.9 L 288.6 498.9 L 288.6 488.4 Q 288.6 486.7, 287.8 485.9 Q 287.0 485.1, 285.4 485.1 Q 284.1 485.1, 283.1 485.8 Q 282.1 486.5, 281.5 487.6 L 281.5 498.9 L 278.8 498.9 L 278.8 483.1 L 281.4 483.1 " fill="#7E56C2"/>
</g>
    <g transform="translate(512.0, 0.0) scale(1 1) "><!-- END OF HEADER -->
<rect style="opacity:1.0;fill:#FF00FF00;stroke:none" width="512.0" height="512.0" x="0.0" y="0.0"> </rect>
<path class="bond-0 atom-0 atom-1" d="M 23.3,280.2 L 256.0,145.9" style="fill:none;fill-rule:evenodd;stroke:#7E56C2;stroke-width:4.0px;stroke-linecap:butt;stroke-linejoin:miter;stroke-opacity:1"/>
<path class="bond-0 atom-0 atom-1" d="M 43.4,315.1 L 256.0,192.4" style="fill:none;fill-rule:evenodd;stroke:#7E56C2;stroke-width:4.0px;stroke-linecap:butt;stroke-linejoin:miter;stroke-opacity:1"/>
<path class="bond-1 atom-1 atom-2" d="M 256.0,145.9 L 488.7,280.2" style="fill:none;fill-rule:evenodd;stroke:#7E56C2;stroke-width:4.0px;stroke-linecap:butt;stroke-linejoin:miter;stroke-opacity:1"/>
<path d="M 244.4,152.6 L 256.0,145.9 L 267.6,152.6" style="fill:none;stroke:#7E56C2;stroke-width:4.0px;stroke-linecap:butt;stroke-linejoin:miter;stroke-opacity:1;"/>
<path class="legend" d="M 198.4 484.8 L 198.4 493.1 L 195.6 493.1 L 195.6 471.8 L 203.5 471.8 Q 207.0 471.8, 209.0 473.6 Q 211.0 475.4, 211.0 478.3 Q 211.0 481.4, 209.0 483.1 Q 207.1 484.8, 203.5 484.8 L 198.4 484.8 M 198.4 482.5 L 203.5 482.5 Q 205.7 482.5, 206.9 481.4 Q 208.2 480.3, 208.2 478.3 Q 208.2 476.4, 206.9 475.3 Q 205.7 474.1, 203.7 474.1 L 198.4 474.1 L 198.4 482.5 " fill="#7E56C2"/>
<path class="legend" d="M 220.8 479.7 Q 220.2 479.6, 219.5 479.6 Q 216.8 479.6, 215.9 481.9 L 215.9 493.1 L 213.2 493.1 L 213.2 477.3 L 215.8 477.3 L 215.9 479.1 Q 217.2 477.0, 219.6 477.0 Q 220.4 477.0, 220.8 477.2 L 220.8 479.7 " fill="#7E56C2"/>
<path class="legend" d="M 222.4 485.0 Q 222.4 482.7, 223.3 480.8 Q 224.2 479.0, 225.8 478.0 Q 227.5 477.0, 229.6 477.0 Q 232.8 477.0, 234.8 479.2 Q 236.8 481.4, 236.8 485.2 L 236.8 485.4 Q 236.8 487.7, 235.9 489.5 Q 235.0 491.3, 233.4 492.4 Q 231.7 493.4, 229.6 493.4 Q 226.4 493.4, 224.4 491.2 Q 222.4 488.9, 222.4 485.2 L 222.4 485.0 M 225.1 485.4 Q 225.1 488.0, 226.3 489.6 Q 227.6 491.2, 229.6 491.2 Q 231.7 491.2, 232.9 489.6 Q 234.1 487.9, 234.1 485.0 Q 234.1 482.4, 232.9 480.8 Q 231.6 479.2, 229.6 479.2 Q 227.6 479.2, 226.3 480.8 Q 225.1 482.4, 225.1 485.4 " fill="#7E56C2"/>
<path class="legend" d="M 252.6 485.4 Q 252.6 489.0, 251.0 491.2 Q 249.3 493.4, 246.5 493.4 Q 243.6 493.4, 242.0 491.6 L 242.0 499.2 L 239.3 499.2 L 239.3 477.3 L 241.7 477.3 L 241.9 479.0 Q 243.5 477.0, 246.5 477.0 Q 249.3 477.0, 251.0 479.1 Q 252.6 481.3, 252.6 485.1 L 252.6 485.4 M 249.9 485.0 Q 249.9 482.4, 248.8 480.8 Q 247.7 479.3, 245.7 479.3 Q 243.2 479.3, 242.0 481.4 L 242.0 489.0 Q 243.2 491.2, 245.7 491.2 Q 247.6 491.2, 248.8 489.6 Q 249.9 488.1, 249.9 485.0 " fill="#7E56C2"/>
<path class="legend" d="M 262.3 485.2 L 255.1 485.2 L 255.1 482.9 L 262.3 482.9 L 262.3 485.2 " fill="#7E56C2"/>
<path class="legend" d="M 272.2 493.1 L 269.4 493.1 L 269.4 475.0 L 264.0 477.1 L 264.0 474.6 L 271.7 471.7 L 272.2 471.7 L 272.2 493.1 " fill="#7E56C2"/>
<path class="legend" d="M 286.6 485.2 L 279.4 485.2 L 279.4 482.9 L 286.6 482.9 L 286.6 485.2 " fill="#7E56C2"/>
<path class="legend" d="M 295.5 493.4 Q 292.3 493.4, 290.3 491.3 Q 288.3 489.2, 288.3 485.6 L 288.3 485.1 Q 288.3 482.8, 289.2 480.9 Q 290.1 479.1, 291.7 478.0 Q 293.3 477.0, 295.2 477.0 Q 298.3 477.0, 300.0 479.0 Q 301.7 481.0, 301.7 484.8 L 301.7 486.0 L 291.0 486.0 Q 291.0 488.3, 292.3 489.8 Q 293.7 491.2, 295.7 491.2 Q 297.1 491.2, 298.1 490.6 Q 299.1 490.0, 299.9 489.0 L 301.5 490.3 Q 299.5 493.4, 295.5 493.4 M 295.2 479.2 Q 293.6 479.2, 292.4 480.4 Q 291.3 481.6, 291.1 483.7 L 299.0 483.7 L 299.0 483.5 Q 298.9 481.5, 297.9 480.3 Q 296.9 479.2, 295.2 479.2 " fill="#7E56C2"/>
<path class="legend" d="M 306.5 477.3 L 306.6 479.2 Q 308.4 477.0, 311.3 477.0 Q 316.3 477.0, 316.4 482.6 L 316.4 493.1 L 313.7 493.1 L 313.7 482.6 Q 313.6 480.9, 312.9 480.1 Q 312.1 479.3, 310.5 479.3 Q 309.2 479.3, 308.2 480.0 Q 307.2 480.7, 306.6 481.8 L 306.6 493.1 L 303.9 493.1 L 303.9 477.3 L 306.5 477.3 " fill="#7E56C2"/>
</g>
    <g transform="translate(1024.0, 0.0) scale(1 1) "><!-- END OF HEADER -->
<rect style="opacity:1.0;fill:#FF00FF00;stroke:none" width="512.0" height="512.0" x="0.0" y="0.0"> </rect>
<path class="bond-0 atom-0 atom-1" d="M 23.3,236.0 L 185.5,166.9" style="fill:none;fill-rule:evenodd;stroke:#7E56C2;stroke-width:4.0px;stroke-linecap:butt;stroke-linejoin:miter;stroke-opacity:1"/>
<path class="bond-1 atom-1 atom-2" d="M 185.5,166.9 L 326.5,272.9" style="fill:none;fill-rule:evenodd;stroke:#7E56C2;stroke-width:4.0px;stroke-linecap:butt;stroke-linejoin:miter;stroke-opacity:1"/>
<path class="bond-1 atom-1 atom-2" d="M 181.8,197.2 L 310.6,294.1" style="fill:none;fill-rule:evenodd;stroke:#7E56C2;stroke-width:4.0px;stroke-linecap:butt;stroke-linejoin:miter;stroke-opacity:1"/>
<path class="bond-2 atom-2 atom-3" d="M 326.5,272.9 L 488.7,203.9" style="fill:none;fill-rule:evenodd;stroke:#7E56C2;stroke-width:4.0px;stroke-linecap:butt;stroke-linejoin:miter;stroke-opacity:1"/>
<path d="M 177.4,170.4 L 185.5,166.9 L 192.6,172.2" style="fill:none;stroke:#7E56C2;stroke-width:4.0px;stroke-linecap:butt;stroke-linejoin:miter;stroke-opacity:1;"/>
<path d="M 319.4,267.6 L 326.5,272.9 L 334.6,269.5" style="fill:none;stroke:#7E56C2;stroke-width:4.0px;stroke-linecap:butt;stroke-linejoin:miter;stroke-opacity:1;"/>
<path class="legend" d="M 202.9 498.9 L 202.9 477.6 L 209.8 477.6 Q 213.3 477.6, 215.1 479.0 Q 216.8 480.4, 216.8 483.3 Q 216.8 484.8, 216.0 485.9 Q 215.1 487.1, 213.7 487.7 Q 215.4 488.2, 216.4 489.5 Q 217.4 490.9, 217.4 492.8 Q 217.4 495.6, 215.5 497.3 Q 213.7 498.9, 210.3 498.9 L 202.9 498.9 M 205.7 488.9 L 205.7 496.6 L 210.3 496.6 Q 212.3 496.6, 213.4 495.6 Q 214.6 494.6, 214.6 492.8 Q 214.6 488.9, 210.4 488.9 L 205.7 488.9 M 205.7 486.7 L 209.9 486.7 Q 211.8 486.7, 212.9 485.8 Q 214.0 484.8, 214.0 483.2 Q 214.0 481.5, 213.0 480.7 Q 211.9 479.9, 209.8 479.9 L 205.7 479.9 L 205.7 486.7 " fill="#7E56C2"/>
<path class="legend" d="M 230.0 497.3 Q 228.5 499.2, 225.4 499.2 Q 222.9 499.2, 221.5 497.7 Q 220.2 496.3, 220.2 493.4 L 220.2 483.1 L 222.9 483.1 L 222.9 493.3 Q 222.9 496.9, 225.8 496.9 Q 228.9 496.9, 230.0 494.6 L 230.0 483.1 L 232.7 483.1 L 232.7 498.9 L 230.1 498.9 L 230.0 497.3 " fill="#7E56C2"/>
<path class="legend" d="M 241.5 479.2 L 241.5 483.1 L 244.4 483.1 L 244.4 485.2 L 241.5 485.2 L 241.5 495.0 Q 241.5 495.9, 241.9 496.4 Q 242.3 496.9, 243.2 496.9 Q 243.7 496.9, 244.5 496.7 L 244.5 498.9 Q 243.4 499.2, 242.4 499.2 Q 240.6 499.2, 239.7 498.1 Q 238.8 497.0, 238.8 495.0 L 238.8 485.2 L 235.9 485.2 L 235.9 483.1 L 238.8 483.1 L 238.8 479.2 L 241.5 479.2 " fill="#7E56C2"/>
<path class="legend" d="M 253.8 491.0 L 246.7 491.0 L 246.7 488.7 L 253.8 488.7 L 253.8 491.0 " fill="#7E56C2"/>
<path class="legend" d="M 269.9 498.9 L 255.9 498.9 L 255.9 497.0 L 263.3 488.8 Q 265.0 486.9, 265.6 485.7 Q 266.2 484.6, 266.2 483.3 Q 266.2 481.7, 265.2 480.6 Q 264.2 479.5, 262.5 479.5 Q 260.5 479.5, 259.4 480.7 Q 258.2 481.8, 258.2 483.9 L 255.5 483.9 Q 255.5 480.9, 257.4 479.1 Q 259.3 477.3, 262.5 477.3 Q 265.5 477.3, 267.2 478.9 Q 268.9 480.4, 268.9 483.0 Q 268.9 486.1, 264.9 490.5 L 259.2 496.7 L 269.9 496.7 L 269.9 498.9 " fill="#7E56C2"/>
<path class="legend" d="M 279.3 491.0 L 272.1 491.0 L 272.1 488.7 L 279.3 488.7 L 279.3 491.0 " fill="#7E56C2"/>
<path class="legend" d="M 288.3 499.2 Q 285.0 499.2, 283.0 497.1 Q 281.0 495.0, 281.0 491.4 L 281.0 490.9 Q 281.0 488.6, 281.9 486.7 Q 282.8 484.9, 284.4 483.8 Q 286.0 482.8, 287.9 482.8 Q 291.0 482.8, 292.7 484.8 Q 294.5 486.8, 294.5 490.6 L 294.5 491.8 L 283.7 491.8 Q 283.8 494.1, 285.1 495.6 Q 286.4 497.0, 288.4 497.0 Q 289.9 497.0, 290.8 496.4 Q 291.8 495.8, 292.6 494.8 L 294.2 496.1 Q 292.3 499.2, 288.3 499.2 M 287.9 485.0 Q 286.3 485.0, 285.2 486.2 Q 284.1 487.4, 283.8 489.5 L 291.7 489.5 L 291.7 489.3 Q 291.6 487.3, 290.6 486.1 Q 289.6 485.0, 287.9 485.0 " fill="#7E56C2"/>
<path class="legend" d="M 299.2 483.1 L 299.3 485.0 Q 301.1 482.8, 304.1 482.8 Q 309.1 482.8, 309.1 488.4 L 309.1 498.9 L 306.4 498.9 L 306.4 488.4 Q 306.4 486.7, 305.6 485.9 Q 304.9 485.1, 303.2 485.1 Q 301.9 485.1, 300.9 485.8 Q 299.9 486.5, 299.4 487.6 L 299.4 498.9 L 296.7 498.9 L 296.7 483.1 L 299.2 483.1 " fill="#7E56C2"/>
</g>
  </g>
</svg>
