<?xml version='1.0' encoding='ASCII' standalone='yes'?>
<svg xmlns="http://www.w3.org/2000/svg" xmlns:xlink="http://www.w3.org/1999/xlink" version="1.1" width="1536.0px" viewBox="0 0 1536.0 1024.0" height="1024.0px">
  <g>
    <g transform="translate(0.0, 0.0) scale(1 1) "><!-- END OF HEADER -->
<rect style="opacity:1.0;fill:#FF00FF00;stroke:none" width="512.0" height="512.0" x="0.0" y="0.0"> </rect>
<path class="bond-0 atom-0 atom-1" d="M 23.3,275.3 L 23.3,185.7" style="fill:none;fill-rule:evenodd;stroke:#7E56C2;stroke-width:4.0px;stroke-linecap:butt;stroke-linejoin:miter;stroke-opacity:1"/>
<path class="bond-0 atom-0 atom-1" d="M 36.7,267.5 L 36.7,193.5" style="fill:none;fill-rule:evenodd;stroke:#7E56C2;stroke-width:4.0px;stroke-linecap:butt;stroke-linejoin:miter;stroke-opacity:1"/>
<path class="bond-1 atom-1 atom-2" d="M 23.3,185.7 L 100.8,140.9" style="fill:none;fill-rule:evenodd;stroke:#7E56C2;stroke-width:4.0px;stroke-linecap:butt;stroke-linejoin:miter;stroke-opacity:1"/>
<path class="bond-2 atom-2 atom-3" d="M 100.8,140.9 L 178.4,185.7" style="fill:none;fill-rule:evenodd;stroke:#7E56C2;stroke-width:4.0px;stroke-linecap:butt;stroke-linejoin:miter;stroke-opacity:1"/>
<path class="bond-2 atom-2 atom-3" d="M 100.8,156.4 L 165.0,193.5" style="fill:none;fill-rule:evenodd;stroke:#7E56C2;stroke-width:4.0px;stroke-linecap:butt;stroke-linejoin:miter;stroke-opacity:1"/>
<path class="bond-3 atom-3 atom-4" d="M 178.4,185.7 L 256.0,140.9" style="fill:none;fill-rule:evenodd;stroke:#7E56C2;stroke-width:4.0px;stroke-linecap:butt;stroke-linejoin:miter;stroke-opacity:1"/>
<path class="bond-4 atom-4 atom-5" d="M 256.0,140.9 L 333.6,185.7" style="fill:none;fill-rule:evenodd;stroke:#7E56C2;stroke-width:4.0px;stroke-linecap:butt;stroke-linejoin:miter;stroke-opacity:1"/>
<path class="bond-4 atom-4 atom-5" d="M 256.0,156.4 L 320.1,193.5" style="fill:none;fill-rule:evenodd;stroke:#7E56C2;stroke-width:4.0px;stroke-linecap:butt;stroke-linejoin:miter;stroke-opacity:1"/>
<path class="bond-5 atom-5 atom-6" d="M 333.6,185.7 L 411.2,140.9" style="fill:none;fill-rule:evenodd;stroke:#7E56C2;stroke-width:4.0px;stroke-linecap:butt;stroke-linejoin:miter;stroke-opacity:1"/>
<path class="bond-6 atom-6 atom-7" d="M 411.2,140.9 L 488.7,185.7" style="fill:none;fill-rule:evenodd;stroke:#7E56C2;stroke-width:4.0px;stroke-linecap:butt;stroke-linejoin:miter;stroke-opacity:1"/>
<path class="bond-6 atom-6 atom-7" d="M 411.2,156.4 L 475.3,193.5" style="fill:none;fill-rule:evenodd;stroke:#7E56C2;stroke-width:4.0px;stroke-linecap:butt;stroke-linejoin:miter;stroke-opacity:1"/>
<path class="bond-7 atom-7 atom-8" d="M 488.7,185.7 L 488.7,275.3" style="fill:none;fill-rule:evenodd;stroke:#7E56C2;stroke-width:4.0px;stroke-linecap:butt;stroke-linejoin:miter;stroke-opacity:1"/>
<path class="bond-8 atom-8 atom-9" d="M 488.7,275.3 L 411.2,320.1" style="fill:none;fill-rule:evenodd;stroke:#7E56C2;stroke-width:4.0px;stroke-linecap:butt;stroke-linejoin:miter;stroke-opacity:1"/>
<path class="bond-8 atom-8 atom-9" d="M 475.3,267.5 L 411.2,304.6" style="fill:none;fill-rule:evenodd;stroke:#7E56C2;stroke-width:4.0px;stroke-linecap:butt;stroke-linejoin:miter;stroke-opacity:1"/>
<path class="bond-9 atom-9 atom-10" d="M 411.2,320.1 L 333.6,275.3" style="fill:none;fill-rule:evenodd;stroke:#7E56C2;stroke-width:4.0px;stroke-linecap:butt;stroke-linejoin:miter;stroke-opacity:1"/>
<path class="bond-10 atom-10 atom-11" d="M 333.6,275.3 L 256.0,320.1" style="fill:none;fill-rule:evenodd;stroke:#7E56C2;stroke-width:4.0px;stroke-linecap:butt;stroke-linejoin:miter;stroke-opacity:1"/>
<path class="bond-10 atom-10 atom-11" d="M 320.1,267.5 L 256.0,304.6" style="fill:none;fill-rule:evenodd;stroke:#7E56C2;stroke-width:4.0px;stroke-linecap:butt;stroke-linejoin:miter;stroke-opacity:1"/>
<path class="bond-11 atom-11 atom-12" d="M 256.0,320.1 L 178.4,275.3" style="fill:none;fill-rule:evenodd;stroke:#7E56C2;stroke-width:4.0px;stroke-linecap:butt;stroke-linejoin:miter;stroke-opacity:1"/>
<path class="bond-12 atom-12 atom-13" d="M 178.4,275.3 L 100.8,320.1" style="fill:none;fill-rule:evenodd;stroke:#7E56C2;stroke-width:4.0px;stroke-linecap:butt;stroke-linejoin:miter;stroke-opacity:1"/>
<path class="bond-12 atom-12 atom-13" d="M 165.0,267.5 L 100.8,304.6" style="fill:none;fill-rule:evenodd;stroke:#7E56C2;stroke-width:4.0px;stroke-linecap:butt;stroke-linejoin:miter;stroke-opacity:1"/>
<path class="bond-13 atom-13 atom-0" d="M 100.8,320.1 L 23.3,275.3" style="fill:none;fill-rule:evenodd;stroke:#7E56C2;stroke-width:4.0px;stroke-linecap:butt;stroke-linejoin:miter;stroke-opacity:1"/>
<path class="bond-14 atom-12 atom-3" d="M 178.4,275.3 L 178.4,185.7" style="fill:none;fill-rule:evenodd;stroke:#7E56C2;stroke-width:4.0px;stroke-linecap:butt;stroke-linejoin:miter;stroke-opacity:1"/>
<path class="bond-15 atom-10 atom-5" d="M 333.6,275.3 L 333.6,185.7" style="fill:none;fill-rule:evenodd;stroke:#7E56C2;stroke-width:4.0px;stroke-linecap:butt;stroke-linejoin:miter;stroke-opacity:1"/>
<path d="M 23.3,270.8 L 23.3,275.3 L 27.2,277.5" style="fill:none;stroke:#7E56C2;stroke-width:4.0px;stroke-linecap:butt;stroke-linejoin:miter;stroke-opacity:1;"/>
<path d="M 23.3,190.2 L 23.3,185.7 L 27.2,183.5" style="fill:none;stroke:#7E56C2;stroke-width:4.0px;stroke-linecap:butt;stroke-linejoin:miter;stroke-opacity:1;"/>
<path d="M 97.0,143.2 L 100.8,140.9 L 104.7,143.2" style="fill:none;stroke:#7E56C2;stroke-width:4.0px;stroke-linecap:butt;stroke-linejoin:miter;stroke-opacity:1;"/>
<path d="M 252.1,143.2 L 256.0,140.9 L 259.9,143.2" style="fill:none;stroke:#7E56C2;stroke-width:4.0px;stroke-linecap:butt;stroke-linejoin:miter;stroke-opacity:1;"/>
<path d="M 407.3,143.2 L 411.2,140.9 L 415.0,143.2" style="fill:none;stroke:#7E56C2;stroke-width:4.0px;stroke-linecap:butt;stroke-linejoin:miter;stroke-opacity:1;"/>
<path d="M 484.8,183.5 L 488.7,185.7 L 488.7,190.2" style="fill:none;stroke:#7E56C2;stroke-width:4.0px;stroke-linecap:butt;stroke-linejoin:miter;stroke-opacity:1;"/>
<path d="M 488.7,270.8 L 488.7,275.3 L 484.8,277.5" style="fill:none;stroke:#7E56C2;stroke-width:4.0px;stroke-linecap:butt;stroke-linejoin:miter;stroke-opacity:1;"/>
<path d="M 415.0,317.8 L 411.2,320.1 L 407.3,317.8" style="fill:none;stroke:#7E56C2;stroke-width:4.0px;stroke-linecap:butt;stroke-linejoin:miter;stroke-opacity:1;"/>
<path d="M 259.9,317.8 L 256.0,320.1 L 252.1,317.8" style="fill:none;stroke:#7E56C2;stroke-width:4.0px;stroke-linecap:butt;stroke-linejoin:miter;stroke-opacity:1;"/>
<path d="M 104.7,317.8 L 100.8,320.1 L 97.0,317.8" style="fill:none;stroke:#7E56C2;stroke-width:4.0px;stroke-linecap:butt;stroke-linejoin:miter;stroke-opacity:1;"/>
<path class="legend" d="M 193.3 493.3 L 184.4 493.3 L 182.4 498.9 L 179.5 498.9 L 187.6 477.6 L 190.1 477.6 L 198.2 498.9 L 195.3 498.9 L 193.3 493.3 M 185.2 491.0 L 192.5 491.0 L 188.8 481.1 L 185.2 491.0 " fill="#7E56C2"/>
<path class="legend" d="M 202.3 483.1 L 202.4 485.0 Q 204.2 482.8, 207.1 482.8 Q 212.1 482.8, 212.2 488.4 L 212.2 498.9 L 209.5 498.9 L 209.5 488.4 Q 209.5 486.7, 208.7 485.9 Q 207.9 485.1, 206.3 485.1 Q 205.0 485.1, 204.0 485.8 Q 203.0 486.5, 202.4 487.6 L 202.4 498.9 L 199.7 498.9 L 199.7 483.1 L 202.3 483.1 " fill="#7E56C2"/>
<path class="legend" d="M 220.9 479.2 L 220.9 483.1 L 223.9 483.1 L 223.9 485.2 L 220.9 485.2 L 220.9 495.0 Q 220.9 495.9, 221.3 496.4 Q 221.7 496.9, 222.7 496.9 Q 223.1 496.9, 224.0 496.7 L 224.0 498.9 Q 222.9 499.2, 221.9 499.2 Q 220.1 499.2, 219.1 498.1 Q 218.2 497.0, 218.2 495.0 L 218.2 485.2 L 215.3 485.2 L 215.3 483.1 L 218.2 483.1 L 218.2 479.2 L 220.9 479.2 " fill="#7E56C2"/>
<path class="legend" d="M 228.8 485.0 Q 230.6 482.8, 233.5 482.8 Q 238.5 482.8, 238.6 488.4 L 238.6 498.9 L 235.8 498.9 L 235.8 488.4 Q 235.8 486.7, 235.1 485.9 Q 234.3 485.1, 232.7 485.1 Q 231.3 485.1, 230.3 485.8 Q 229.4 486.5, 228.8 487.6 L 228.8 498.9 L 226.1 498.9 L 226.1 476.4 L 228.8 476.4 L 228.8 485.0 " fill="#7E56C2"/>
<path class="legend" d="M 249.3 485.5 Q 248.7 485.4, 248.0 485.4 Q 245.3 485.4, 244.4 487.7 L 244.4 498.9 L 241.7 498.9 L 241.7 483.1 L 244.3 483.1 L 244.3 484.9 Q 245.7 482.8, 248.1 482.8 Q 248.9 482.8, 249.3 483.0 L 249.3 485.5 " fill="#7E56C2"/>
<path class="legend" d="M 261.1 498.9 Q 260.9 498.4, 260.7 497.2 Q 258.8 499.2, 256.2 499.2 Q 253.9 499.2, 252.3 497.9 Q 250.9 496.5, 250.9 494.5 Q 250.9 492.0, 252.7 490.7 Q 254.6 489.3, 258.0 489.3 L 260.7 489.3 L 260.7 488.1 Q 260.7 486.6, 259.8 485.8 Q 259.0 484.9, 257.3 484.9 Q 255.9 484.9, 254.9 485.7 Q 253.9 486.4, 253.9 487.5 L 251.2 487.5 Q 251.2 486.3, 252.0 485.2 Q 252.9 484.1, 254.3 483.4 Q 255.7 482.8, 257.5 482.8 Q 260.2 482.8, 261.8 484.1 Q 263.3 485.5, 263.4 487.9 L 263.4 495.2 Q 263.4 497.4, 263.9 498.7 L 263.9 498.9 L 261.1 498.9 M 256.6 496.8 Q 257.9 496.8, 259.0 496.2 Q 260.2 495.5, 260.7 494.5 L 260.7 491.2 L 258.5 491.2 Q 253.6 491.2, 253.6 494.1 Q 253.6 495.4, 254.4 496.1 Q 255.3 496.8, 256.6 496.8 " fill="#7E56C2"/>
<path class="legend" d="M 273.7 497.0 Q 275.2 497.0, 276.3 496.1 Q 277.3 495.2, 277.5 493.9 L 280.0 493.9 Q 280.0 495.3, 279.1 496.5 Q 278.2 497.7, 276.8 498.5 Q 275.3 499.2, 273.7 499.2 Q 270.5 499.2, 268.6 497.0 Q 266.7 494.9, 266.7 491.1 L 266.7 490.7 Q 266.7 488.4, 267.5 486.6 Q 268.4 484.8, 269.9 483.8 Q 271.5 482.8, 273.7 482.8 Q 276.4 482.8, 278.1 484.4 Q 279.9 486.0, 280.0 488.5 L 277.5 488.5 Q 277.3 487.0, 276.3 486.0 Q 275.3 485.0, 273.7 485.0 Q 271.6 485.0, 270.5 486.5 Q 269.4 488.0, 269.4 490.8 L 269.4 491.3 Q 269.4 494.0, 270.5 495.5 Q 271.6 497.0, 273.7 497.0 " fill="#7E56C2"/>
<path class="legend" d="M 289.4 499.2 Q 286.2 499.2, 284.1 497.1 Q 282.1 495.0, 282.1 491.4 L 282.1 490.9 Q 282.1 488.6, 283.0 486.7 Q 283.9 484.9, 285.5 483.8 Q 287.2 482.8, 289.0 482.8 Q 292.1 482.8, 293.9 484.8 Q 295.6 486.8, 295.6 490.6 L 295.6 491.8 L 284.8 491.8 Q 284.9 494.1, 286.2 495.6 Q 287.5 497.0, 289.5 497.0 Q 291.0 497.0, 292.0 496.4 Q 293.0 495.8, 293.7 494.8 L 295.4 496.1 Q 293.4 499.2, 289.4 499.2 M 289.0 485.0 Q 287.4 485.0, 286.3 486.2 Q 285.2 487.4, 284.9 489.5 L 292.9 489.5 L 292.9 489.3 Q 292.7 487.3, 291.7 486.1 Q 290.7 485.0, 289.0 485.0 " fill="#7E56C2"/>
<path class="legend" d="M 300.3 483.1 L 300.4 485.0 Q 302.2 482.8, 305.1 482.8 Q 310.2 482.8, 310.2 488.4 L 310.2 498.9 L 307.5 498.9 L 307.5 488.4 Q 307.5 486.7, 306.7 485.9 Q 305.9 485.1, 304.3 485.1 Q 303.0 485.1, 302.0 485.8 Q 301.0 486.5, 300.5 487.6 L 300.5 498.9 L 297.7 498.9 L 297.7 483.1 L 300.3 483.1 " fill="#7E56C2"/>
<path class="legend" d="" fill="#7E56C2"/>
<path class="legend" d="M 332.5 498.9 L 329.8 498.9 L 329.8 480.8 L 324.3 482.9 L 324.3 480.4 L 332.1 477.5 L 332.5 477.5 L 332.5 498.9 " fill="#7E56C2"/>
</g>
    <g transform="translate(512.0, 0.0) scale(1 1) "><!-- END OF HEADER -->
<rect style="opacity:1.0;fill:#FF00FF00;stroke:none" width="512.0" height="512.0" x="0.0" y="0.0"> </rect>
<path class="bond-0 atom-0 atom-1" d="M 23.3,275.3 L 23.3,185.7" style="fill:none;fill-rule:evenodd;stroke:#7E56C2;stroke-width:4.0px;stroke-linecap:butt;stroke-linejoin:miter;stroke-opacity:1"/>
<path class="bond-1 atom-1 atom-2" d="M 23.3,185.7 L 100.8,140.9" style="fill:none;fill-rule:evenodd;stroke:#7E56C2;stroke-width:4.0px;stroke-linecap:butt;stroke-linejoin:miter;stroke-opacity:1"/>
<path class="bond-1 atom-1 atom-2" d="M 36.7,193.5 L 100.8,156.4" style="fill:none;fill-rule:evenodd;stroke:#7E56C2;stroke-width:4.0px;stroke-linecap:butt;stroke-linejoin:miter;stroke-opacity:1"/>
<path class="bond-2 atom-2 atom-3" d="M 100.8,140.9 L 178.4,185.7" style="fill:none;fill-rule:evenodd;stroke:#7E56C2;stroke-width:4.0px;stroke-linecap:butt;stroke-linejoin:miter;stroke-opacity:1"/>
<path class="bond-3 atom-3 atom-4" d="M 178.4,185.7 L 256.0,140.9" style="fill:none;fill-rule:evenodd;stroke:#7E56C2;stroke-width:4.0px;stroke-linecap:butt;stroke-linejoin:miter;stroke-opacity:1"/>
<path class="bond-3 atom-3 atom-4" d="M 191.9,193.5 L 256.0,156.4" style="fill:none;fill-rule:evenodd;stroke:#7E56C2;stroke-width:4.0px;stroke-linecap:butt;stroke-linejoin:miter;stroke-opacity:1"/>
<path class="bond-4 atom-4 atom-5" d="M 256.0,140.9 L 333.6,185.7" style="fill:none;fill-rule:evenodd;stroke:#7E56C2;stroke-width:4.0px;stroke-linecap:butt;stroke-linejoin:miter;stroke-opacity:1"/>
<path class="bond-5 atom-5 atom-6" d="M 333.6,185.7 L 411.2,140.9" style="fill:none;fill-rule:evenodd;stroke:#7E56C2;stroke-width:4.0px;stroke-linecap:butt;stroke-linejoin:miter;stroke-opacity:1"/>
<path class="bond-5 atom-5 atom-6" d="M 347.0,193.5 L 411.2,156.4" style="fill:none;fill-rule:evenodd;stroke:#7E56C2;stroke-width:4.0px;stroke-linecap:butt;stroke-linejoin:miter;stroke-opacity:1"/>
<path class="bond-6 atom-6 atom-7" d="M 411.2,140.9 L 488.7,185.7" style="fill:none;fill-rule:evenodd;stroke:#7E56C2;stroke-width:4.0px;stroke-linecap:butt;stroke-linejoin:miter;stroke-opacity:1"/>
<path class="bond-7 atom-7 atom-8" d="M 488.7,185.7 L 488.7,275.3" style="fill:none;fill-rule:evenodd;stroke:#7E56C2;stroke-width:4.0px;stroke-linecap:butt;stroke-linejoin:miter;stroke-opacity:1"/>
<path class="bond-7 atom-7 atom-8" d="M 475.3,193.5 L 475.3,267.5" style="fill:none;fill-rule:evenodd;stroke:#7E56C2;stroke-width:4.0px;stroke-linecap:butt;stroke-linejoin:miter;stroke-opacity:1"/>
<path class="bond-8 atom-8 atom-9" d="M 488.7,275.3 L 411.2,320.1" style="fill:none;fill-rule:evenodd;stroke:#7E56C2;stroke-width:4.0px;stroke-linecap:butt;stroke-linejoin:miter;stroke-opacity:1"/>
<path class="bond-9 atom-9 atom-10" d="M 411.2,320.1 L 333.6,275.3" style="fill:none;fill-rule:evenodd;stroke:#7E56C2;stroke-width:4.0px;stroke-linecap:butt;stroke-linejoin:miter;stroke-opacity:1"/>
<path class="bond-9 atom-9 atom-10" d="M 411.2,304.6 L 347.0,267.5" style="fill:none;fill-rule:evenodd;stroke:#7E56C2;stroke-width:4.0px;stroke-linecap:butt;stroke-linejoin:miter;stroke-opacity:1"/>
<path class="bond-10 atom-10 atom-11" d="M 333.6,275.3 L 256.0,320.1" style="fill:none;fill-rule:evenodd;stroke:#7E56C2;stroke-width:4.0px;stroke-linecap:butt;stroke-linejoin:miter;stroke-opacity:1"/>
<path class="bond-11 atom-11 atom-12" d="M 256.0,320.1 L 178.4,275.3" style="fill:none;fill-rule:evenodd;stroke:#7E56C2;stroke-width:4.0px;stroke-linecap:butt;stroke-linejoin:miter;stroke-opacity:1"/>
<path class="bond-11 atom-11 atom-12" d="M 256.0,304.6 L 191.9,267.5" style="fill:none;fill-rule:evenodd;stroke:#7E56C2;stroke-width:4.0px;stroke-linecap:butt;stroke-linejoin:miter;stroke-opacity:1"/>
<path class="bond-12 atom-12 atom-13" d="M 178.4,275.3 L 100.8,320.1" style="fill:none;fill-rule:evenodd;stroke:#7E56C2;stroke-width:4.0px;stroke-linecap:butt;stroke-linejoin:miter;stroke-opacity:1"/>
<path class="bond-13 atom-13 atom-0" d="M 100.8,320.1 L 23.3,275.3" style="fill:none;fill-rule:evenodd;stroke:#7E56C2;stroke-width:4.0px;stroke-linecap:butt;stroke-linejoin:miter;stroke-opacity:1"/>
<path class="bond-13 atom-13 atom-0" d="M 100.8,304.6 L 36.7,267.5" style="fill:none;fill-rule:evenodd;stroke:#7E56C2;stroke-width:4.0px;stroke-linecap:butt;stroke-linejoin:miter;stroke-opacity:1"/>
<path class="bond-14 atom-12 atom-3" d="M 178.4,275.3 L 178.4,185.7" style="fill:none;fill-rule:evenodd;stroke:#7E56C2;stroke-width:4.0px;stroke-linecap:butt;stroke-linejoin:miter;stroke-opacity:1"/>
<path class="bond-15 atom-10 atom-5" d="M 333.6,275.3 L 333.6,185.7" style="fill:none;fill-rule:evenodd;stroke:#7E56C2;stroke-width:4.0px;stroke-linecap:butt;stroke-linejoin:miter;stroke-opacity:1"/>
<path d="M 23.3,270.8 L 23.3,275.3 L 27.2,277.5" style="fill:none;stroke:#7E56C2;stroke-width:4.0px;stroke-linecap:butt;stroke-linejoin:miter;stroke-opacity:1;"/>
<path d="M 23.3,190.2 L 23.3,185.7 L 27.2,183.5" style="fill:none;stroke:#7E56C2;stroke-width:4.0px;stroke-linecap:butt;stroke-linejoin:miter;stroke-opacity:1;"/>
<path d="M 97.0,143.2 L 100.8,140.9 L 104.7,143.2" style="fill:none;stroke:#7E56C2;stroke-width:4.0px;stroke-linecap:butt;stroke-linejoin:miter;stroke-opacity:1;"/>
<path d="M 252.1,143.2 L 256.0,140.9 L 259.9,143.2" style="fill:none;stroke:#7E56C2;stroke-width:4.0px;stroke-linecap:butt;stroke-linejoin:miter;stroke-opacity:1;"/>
<path d="M 407.3,143.2 L 411.2,140.9 L 415.0,143.2" style="fill:none;stroke:#7E56C2;stroke-width:4.0px;stroke-linecap:butt;stroke-linejoin:miter;stroke-opacity:1;"/>
<path d="M 484.8,183.5 L 488.7,185.7 L 488.7,190.2" style="fill:none;stroke:#7E56C2;stroke-width:4.0px;stroke-linecap:butt;stroke-linejoin:miter;stroke-opacity:1;"/>
<path d="M 488.7,270.8 L 488.7,275.3 L 484.8,277.5" style="fill:none;stroke:#7E56C2;stroke-width:4.0px;stroke-linecap:butt;stroke-linejoin:miter;stroke-opacity:1;"/>
<path d="M 415.0,317.8 L 411.2,320.1 L 407.3,317.8" style="fill:none;stroke:#7E56C2;stroke-width:4.0px;stroke-linecap:butt;stroke-linejoin:miter;stroke-opacity:1;"/>
<path d="M 259.9,317.8 L 256.0,320.1 L 252.1,317.8" style="fill:none;stroke:#7E56C2;stroke-width:4.0px;stroke-linecap:butt;stroke-linejoin:miter;stroke-opacity:1;"/>
<path d="M 104.7,317.8 L 100.8,320.1 L 97.0,317.8" style="fill:none;stroke:#7E56C2;stroke-width:4.0px;stroke-linecap:butt;stroke-linejoin:miter;stroke-opacity:1;"/>
<path class="legend" d="M 263.2 499.2 L 249.2 499.2 L 249.2 497.3 L 256.6 489.0 Q 258.2 487.2, 258.9 486.0 Q 259.5 484.9, 259.5 483.6 Q 259.5 481.9, 258.5 480.9 Q 257.5 479.8, 255.8 479.8 Q 253.8 479.8, 252.6 481.0 Q 251.5 482.1, 251.5 484.2 L 248.8 484.2 Q 248.8 481.2, 250.7 479.4 Q 252.6 477.6, 255.8 477.6 Q 258.8 477.6, 260.5 479.1 Q 262.2 480.7, 262.2 483.3 Q 262.2 486.4, 258.2 490.8 L 252.5 497.0 L 263.2 497.0 L 263.2 499.2 " fill="#7E56C2"/>
</g>
    <g transform="translate(1024.0, 0.0) scale(1 1) "><!-- END OF HEADER -->
<rect style="opacity:1.0;fill:#FF00FF00;stroke:none" width="512.0" height="512.0" x="0.0" y="0.0"> </rect>
<path class="bond-0 atom-0 atom-1" d="M 23.3,275.3 L 23.3,185.7" style="fill:none;fill-rule:evenodd;stroke:#7E56C2;stroke-width:4.0px;stroke-linecap:butt;stroke-linejoin:miter;stroke-opacity:1"/>
<path class="bond-1 atom-1 atom-2" d="M 23.3,185.7 L 100.8,140.9" style="fill:none;fill-rule:evenodd;stroke:#7E56C2;stroke-width:4.0px;stroke-linecap:butt;stroke-linejoin:miter;stroke-opacity:1"/>
<path class="bond-1 atom-1 atom-2" d="M 36.7,193.5 L 100.8,156.4" style="fill:none;fill-rule:evenodd;stroke:#7E56C2;stroke-width:4.0px;stroke-linecap:butt;stroke-linejoin:miter;stroke-opacity:1"/>
<path class="bond-2 atom-2 atom-3" d="M 100.8,140.9 L 178.4,185.7" style="fill:none;fill-rule:evenodd;stroke:#7E56C2;stroke-width:4.0px;stroke-linecap:butt;stroke-linejoin:miter;stroke-opacity:1"/>
<path class="bond-3 atom-3 atom-4" d="M 178.4,185.7 L 256.0,140.9" style="fill:none;fill-rule:evenodd;stroke:#7E56C2;stroke-width:4.0px;stroke-linecap:butt;stroke-linejoin:miter;stroke-opacity:1"/>
<path class="bond-4 atom-4 atom-5" d="M 256.0,140.9 L 333.6,185.7" style="fill:none;fill-rule:evenodd;stroke:#7E56C2;stroke-width:4.0px;stroke-linecap:butt;stroke-linejoin:miter;stroke-opacity:1"/>
<path class="bond-4 atom-4 atom-5" d="M 256.0,156.4 L 320.1,193.5" style="fill:none;fill-rule:evenodd;stroke:#7E56C2;stroke-width:4.0px;stroke-linecap:butt;stroke-linejoin:miter;stroke-opacity:1"/>
<path class="bond-5 atom-5 atom-6" d="M 333.6,185.7 L 411.2,140.9" style="fill:none;fill-rule:evenodd;stroke:#7E56C2;stroke-width:4.0px;stroke-linecap:butt;stroke-linejoin:miter;stroke-opacity:1"/>
<path class="bond-6 atom-6 atom-7" d="M 411.2,140.9 L 488.7,185.7" style="fill:none;fill-rule:evenodd;stroke:#7E56C2;stroke-width:4.0px;stroke-linecap:butt;stroke-linejoin:miter;stroke-opacity:1"/>
<path class="bond-6 atom-6 atom-7" d="M 411.2,156.4 L 475.3,193.5" style="fill:none;fill-rule:evenodd;stroke:#7E56C2;stroke-width:4.0px;stroke-linecap:butt;stroke-linejoin:miter;stroke-opacity:1"/>
<path class="bond-7 atom-7 atom-8" d="M 488.7,185.7 L 488.7,275.3" style="fill:none;fill-rule:evenodd;stroke:#7E56C2;stroke-width:4.0px;stroke-linecap:butt;stroke-linejoin:miter;stroke-opacity:1"/>
<path class="bond-8 atom-8 atom-9" d="M 488.7,275.3 L 411.2,320.1" style="fill:none;fill-rule:evenodd;stroke:#7E56C2;stroke-width:4.0px;stroke-linecap:butt;stroke-linejoin:miter;stroke-opacity:1"/>
<path class="bond-8 atom-8 atom-9" d="M 475.3,267.5 L 411.2,304.6" style="fill:none;fill-rule:evenodd;stroke:#7E56C2;stroke-width:4.0px;stroke-linecap:butt;stroke-linejoin:miter;stroke-opacity:1"/>
<path class="bond-9 atom-9 atom-10" d="M 411.2,320.1 L 333.6,275.3" style="fill:none;fill-rule:evenodd;stroke:#7E56C2;stroke-width:4.0px;stroke-linecap:butt;stroke-linejoin:miter;stroke-opacity:1"/>
<path class="bond-10 atom-10 atom-11" d="M 333.6,275.3 L 256.0,320.1" style="fill:none;fill-rule:evenodd;stroke:#7E56C2;stroke-width:4.0px;stroke-linecap:butt;stroke-linejoin:miter;stroke-opacity:1"/>
<path class="bond-10 atom-10 atom-11" d="M 320.1,267.5 L 256.0,304.6" style="fill:none;fill-rule:evenodd;stroke:#7E56C2;stroke-width:4.0px;stroke-linecap:butt;stroke-linejoin:miter;stroke-opacity:1"/>
<path class="bond-11 atom-11 atom-12" d="M 256.0,320.1 L 178.4,275.3" style="fill:none;fill-rule:evenodd;stroke:#7E56C2;stroke-width:4.0px;stroke-linecap:butt;stroke-linejoin:miter;stroke-opacity:1"/>
<path class="bond-12 atom-12 atom-13" d="M 178.4,275.3 L 100.8,320.1" style="fill:none;fill-rule:evenodd;stroke:#7E56C2;stroke-width:4.0px;stroke-linecap:butt;stroke-linejoin:miter;stroke-opacity:1"/>
<path class="bond-13 atom-13 atom-0" d="M 100.8,320.1 L 23.3,275.3" style="fill:none;fill-rule:evenodd;stroke:#7E56C2;stroke-width:4.0px;stroke-linecap:butt;stroke-linejoin:miter;stroke-opacity:1"/>
<path class="bond-13 atom-13 atom-0" d="M 100.8,304.6 L 36.7,267.5" style="fill:none;fill-rule:evenodd;stroke:#7E56C2;stroke-width:4.0px;stroke-linecap:butt;stroke-linejoin:miter;stroke-opacity:1"/>
<path class="bond-14 atom-12 atom-3" d="M 178.4,275.3 L 178.4,185.7" style="fill:none;fill-rule:evenodd;stroke:#7E56C2;stroke-width:4.0px;stroke-linecap:butt;stroke-linejoin:miter;stroke-opacity:1"/>
<path class="bond-14 atom-12 atom-3" d="M 165.0,267.5 L 165.0,193.5" style="fill:none;fill-rule:evenodd;stroke:#7E56C2;stroke-width:4.0px;stroke-linecap:butt;stroke-linejoin:miter;stroke-opacity:1"/>
<path class="bond-15 atom-10 atom-5" d="M 333.6,275.3 L 333.6,185.7" style="fill:none;fill-rule:evenodd;stroke:#7E56C2;stroke-width:4.0px;stroke-linecap:butt;stroke-linejoin:miter;stroke-opacity:1"/>
<path d="M 23.3,270.8 L 23.3,275.3 L 27.2,277.5" style="fill:none;stroke:#7E56C2;stroke-width:4.0px;stroke-linecap:butt;stroke-linejoin:miter;stroke-opacity:1;"/>
<path d="M 23.3,190.2 L 23.3,185.7 L 27.2,183.5" style="fill:none;stroke:#7E56C2;stroke-width:4.0px;stroke-linecap:butt;stroke-linejoin:miter;stroke-opacity:1;"/>
<path d="M 97.0,143.2 L 100.8,140.9 L 104.7,143.2" style="fill:none;stroke:#7E56C2;stroke-width:4.0px;stroke-linecap:butt;stroke-linejoin:miter;stroke-opacity:1;"/>
<path d="M 252.1,143.2 L 256.0,140.9 L 259.9,143.2" style="fill:none;stroke:#7E56C2;stroke-width:4.0px;stroke-linecap:butt;stroke-linejoin:miter;stroke-opacity:1;"/>
<path d="M 407.3,143.2 L 411.2,140.9 L 415.0,143.2" style="fill:none;stroke:#7E56C2;stroke-width:4.0px;stroke-linecap:butt;stroke-linejoin:miter;stroke-opacity:1;"/>
<path d="M 484.8,183.5 L 488.7,185.7 L 488.7,190.2" style="fill:none;stroke:#7E56C2;stroke-width:4.0px;stroke-linecap:butt;stroke-linejoin:miter;stroke-opacity:1;"/>
<path d="M 488.7,270.8 L 488.7,275.3 L 484.8,277.5" style="fill:none;stroke:#7E56C2;stroke-width:4.0px;stroke-linecap:butt;stroke-linejoin:miter;stroke-opacity:1;"/>
<path d="M 415.0,317.8 L 411.2,320.1 L 407.3,317.8" style="fill:none;stroke:#7E56C2;stroke-width:4.0px;stroke-linecap:butt;stroke-linejoin:miter;stroke-opacity:1;"/>
<path d="M 259.9,317.8 L 256.0,320.1 L 252.1,317.8" style="fill:none;stroke:#7E56C2;stroke-width:4.0px;stroke-linecap:butt;stroke-linejoin:miter;stroke-opacity:1;"/>
<path d="M 104.7,317.8 L 100.8,320.1 L 97.0,317.8" style="fill:none;stroke:#7E56C2;stroke-width:4.0px;stroke-linecap:butt;stroke-linejoin:miter;stroke-opacity:1;"/>
<path class="legend" d="M 253.6 486.9 L 255.6 486.9 Q 257.5 486.9, 258.6 485.9 Q 259.7 484.9, 259.7 483.3 Q 259.7 479.5, 256.0 479.5 Q 254.2 479.5, 253.2 480.5 Q 252.1 481.5, 252.1 483.2 L 249.4 483.2 Q 249.4 480.6, 251.3 479.0 Q 253.1 477.3, 256.0 477.3 Q 259.0 477.3, 260.7 478.9 Q 262.4 480.5, 262.4 483.3 Q 262.4 484.7, 261.5 486.0 Q 260.6 487.3, 259.1 488.0 Q 260.8 488.5, 261.8 489.8 Q 262.8 491.1, 262.8 493.0 Q 262.8 495.8, 260.9 497.5 Q 259.0 499.2, 256.0 499.2 Q 253.0 499.2, 251.1 497.6 Q 249.2 495.9, 249.2 493.3 L 252.0 493.3 Q 252.0 495.0, 253.1 496.0 Q 254.2 497.0, 256.0 497.0 Q 258.0 497.0, 259.0 496.0 Q 260.1 494.9, 260.1 493.0 Q 260.1 491.2, 258.9 490.2 Q 257.8 489.2, 255.6 489.1 L 253.6 489.1 L 253.6 486.9 " fill="#7E56C2"/>
</g>
    <g transform="translate(0.0, 512.0) scale(1 1) "><!-- END OF HEADER -->
<rect style="opacity:1.0;fill:#FF00FF00;stroke:none" width="512.0" height="512.0" x="0.0" y="0.0"> </rect>
<path class="bond-0 atom-0 atom-1" d="M 23.3,275.3 L 23.3,185.7" style="fill:none;fill-rule:evenodd;stroke:#7E56C2;stroke-width:4.0px;stroke-linecap:butt;stroke-linejoin:miter;stroke-opacity:1"/>
<path class="bond-1 atom-1 atom-2" d="M 23.3,185.7 L 100.8,140.9" style="fill:none;fill-rule:evenodd;stroke:#7E56C2;stroke-width:4.0px;stroke-linecap:butt;stroke-linejoin:miter;stroke-opacity:1"/>
<path class="bond-1 atom-1 atom-2" d="M 36.7,193.5 L 100.8,156.4" style="fill:none;fill-rule:evenodd;stroke:#7E56C2;stroke-width:4.0px;stroke-linecap:butt;stroke-linejoin:miter;stroke-opacity:1"/>
<path class="bond-2 atom-2 atom-3" d="M 100.8,140.9 L 178.4,185.7" style="fill:none;fill-rule:evenodd;stroke:#7E56C2;stroke-width:4.0px;stroke-linecap:butt;stroke-linejoin:miter;stroke-opacity:1"/>
<path class="bond-3 atom-3 atom-4" d="M 178.4,185.7 L 256.0,140.9" style="fill:none;fill-rule:evenodd;stroke:#7E56C2;stroke-width:4.0px;stroke-linecap:butt;stroke-linejoin:miter;stroke-opacity:1"/>
<path class="bond-3 atom-3 atom-4" d="M 191.9,193.5 L 256.0,156.4" style="fill:none;fill-rule:evenodd;stroke:#7E56C2;stroke-width:4.0px;stroke-linecap:butt;stroke-linejoin:miter;stroke-opacity:1"/>
<path class="bond-4 atom-4 atom-5" d="M 256.0,140.9 L 333.6,185.7" style="fill:none;fill-rule:evenodd;stroke:#7E56C2;stroke-width:4.0px;stroke-linecap:butt;stroke-linejoin:miter;stroke-opacity:1"/>
<path class="bond-5 atom-5 atom-6" d="M 333.6,185.7 L 411.2,140.9" style="fill:none;fill-rule:evenodd;stroke:#7E56C2;stroke-width:4.0px;stroke-linecap:butt;stroke-linejoin:miter;stroke-opacity:1"/>
<path class="bond-6 atom-6 atom-7" d="M 411.2,140.9 L 488.7,185.7" style="fill:none;fill-rule:evenodd;stroke:#7E56C2;stroke-width:4.0px;stroke-linecap:butt;stroke-linejoin:miter;stroke-opacity:1"/>
<path class="bond-6 atom-6 atom-7" d="M 411.2,156.4 L 475.3,193.5" style="fill:none;fill-rule:evenodd;stroke:#7E56C2;stroke-width:4.0px;stroke-linecap:butt;stroke-linejoin:miter;stroke-opacity:1"/>
<path class="bond-7 atom-7 atom-8" d="M 488.7,185.7 L 488.7,275.3" style="fill:none;fill-rule:evenodd;stroke:#7E56C2;stroke-width:4.0px;stroke-linecap:butt;stroke-linejoin:miter;stroke-opacity:1"/>
<path class="bond-8 atom-8 atom-9" d="M 488.7,275.3 L 411.2,320.1" style="fill:none;fill-rule:evenodd;stroke:#7E56C2;stroke-width:4.0px;stroke-linecap:butt;stroke-linejoin:miter;stroke-opacity:1"/>
<path class="bond-8 atom-8 atom-9" d="M 475.3,267.5 L 411.2,304.6" style="fill:none;fill-rule:evenodd;stroke:#7E56C2;stroke-width:4.0px;stroke-linecap:butt;stroke-linejoin:miter;stroke-opacity:1"/>
<path class="bond-9 atom-9 atom-10" d="M 411.2,320.1 L 333.6,275.3" style="fill:none;fill-rule:evenodd;stroke:#7E56C2;stroke-width:4.0px;stroke-linecap:butt;stroke-linejoin:miter;stroke-opacity:1"/>
<path class="bond-10 atom-10 atom-11" d="M 333.6,275.3 L 256.0,320.1" style="fill:none;fill-rule:evenodd;stroke:#7E56C2;stroke-width:4.0px;stroke-linecap:butt;stroke-linejoin:miter;stroke-opacity:1"/>
<path class="bond-11 atom-11 atom-12" d="M 256.0,320.1 L 178.4,275.3" style="fill:none;fill-rule:evenodd;stroke:#7E56C2;stroke-width:4.0px;stroke-linecap:butt;stroke-linejoin:miter;stroke-opacity:1"/>
<path class="bond-11 atom-11 atom-12" d="M 256.0,304.6 L 191.9,267.5" style="fill:none;fill-rule:evenodd;stroke:#7E56C2;stroke-width:4.0px;stroke-linecap:butt;stroke-linejoin:miter;stroke-opacity:1"/>
<path class="bond-12 atom-12 atom-13" d="M 178.4,275.3 L 100.8,320.1" style="fill:none;fill-rule:evenodd;stroke:#7E56C2;stroke-width:4.0px;stroke-linecap:butt;stroke-linejoin:miter;stroke-opacity:1"/>
<path class="bond-13 atom-13 atom-0" d="M 100.8,320.1 L 23.3,275.3" style="fill:none;fill-rule:evenodd;stroke:#7E56C2;stroke-width:4.0px;stroke-linecap:butt;stroke-linejoin:miter;stroke-opacity:1"/>
<path class="bond-13 atom-13 atom-0" d="M 100.8,304.6 L 36.7,267.5" style="fill:none;fill-rule:evenodd;stroke:#7E56C2;stroke-width:4.0px;stroke-linecap:butt;stroke-linejoin:miter;stroke-opacity:1"/>
<path class="bond-14 atom-12 atom-3" d="M 178.4,275.3 L 178.4,185.7" style="fill:none;fill-rule:evenodd;stroke:#7E56C2;stroke-width:4.0px;stroke-linecap:butt;stroke-linejoin:miter;stroke-opacity:1"/>
<path class="bond-15 atom-10 atom-5" d="M 333.6,275.3 L 333.6,185.7" style="fill:none;fill-rule:evenodd;stroke:#7E56C2;stroke-width:4.0px;stroke-linecap:butt;stroke-linejoin:miter;stroke-opacity:1"/>
<path class="bond-15 atom-10 atom-5" d="M 320.1,267.5 L 320.1,193.5" style="fill:none;fill-rule:evenodd;stroke:#7E56C2;stroke-width:4.0px;stroke-linecap:butt;stroke-linejoin:miter;stroke-opacity:1"/>
<path d="M 23.3,270.8 L 23.3,275.3 L 27.2,277.5" style="fill:none;stroke:#7E56C2;stroke-width:4.0px;stroke-linecap:butt;stroke-linejoin:miter;stroke-opacity:1;"/>
<path d="M 23.3,190.2 L 23.3,185.7 L 27.2,183.5" style="fill:none;stroke:#7E56C2;stroke-width:4.0px;stroke-linecap:butt;stroke-linejoin:miter;stroke-opacity:1;"/>
<path d="M 97.0,143.2 L 100.8,140.9 L 104.7,143.2" style="fill:none;stroke:#7E56C2;stroke-width:4.0px;stroke-linecap:butt;stroke-linejoin:miter;stroke-opacity:1;"/>
<path d="M 252.1,143.2 L 256.0,140.9 L 259.9,143.2" style="fill:none;stroke:#7E56C2;stroke-width:4.0px;stroke-linecap:butt;stroke-linejoin:miter;stroke-opacity:1;"/>
<path d="M 407.3,143.2 L 411.2,140.9 L 415.0,143.2" style="fill:none;stroke:#7E56C2;stroke-width:4.0px;stroke-linecap:butt;stroke-linejoin:miter;stroke-opacity:1;"/>
<path d="M 484.8,183.5 L 488.7,185.7 L 488.7,190.2" style="fill:none;stroke:#7E56C2;stroke-width:4.0px;stroke-linecap:butt;stroke-linejoin:miter;stroke-opacity:1;"/>
<path d="M 488.7,270.8 L 488.7,275.3 L 484.8,277.5" style="fill:none;stroke:#7E56C2;stroke-width:4.0px;stroke-linecap:butt;stroke-linejoin:miter;stroke-opacity:1;"/>
<path d="M 415.0,317.8 L 411.2,320.1 L 407.3,317.8" style="fill:none;stroke:#7E56C2;stroke-width:4.0px;stroke-linecap:butt;stroke-linejoin:miter;stroke-opacity:1;"/>
<path d="M 259.9,317.8 L 256.0,320.1 L 252.1,317.8" style="fill:none;stroke:#7E56C2;stroke-width:4.0px;stroke-linecap:butt;stroke-linejoin:miter;stroke-opacity:1;"/>
<path d="M 104.7,317.8 L 100.8,320.1 L 97.0,317.8" style="fill:none;stroke:#7E56C2;stroke-width:4.0px;stroke-linecap:butt;stroke-linejoin:miter;stroke-opacity:1;"/>
<path class="legend" d="M 260.7 492.0 L 263.7 492.0 L 263.7 494.2 L 260.7 494.2 L 260.7 499.2 L 258.0 499.2 L 258.0 494.2 L 248.3 494.2 L 248.3 492.7 L 257.9 477.9 L 260.7 477.9 L 260.7 492.0 M 251.4 492.0 L 258.0 492.0 L 258.0 481.6 L 257.7 482.2 L 251.4 492.0 " fill="#7E56C2"/>
</g>
  </g>
</svg>
