<?xml version='1.0' encoding='ASCII' standalone='yes'?>
<svg xmlns="http://www.w3.org/2000/svg" xmlns:xlink="http://www.w3.org/1999/xlink" version="1.1" width="1536.0px" viewBox="0 0 1536.0 1024.0" height="1024.0px">
  <g>
    <g transform="translate(0.0, 0.0) scale(1 1) "><!-- END OF HEADER -->
<rect style="opacity:1.0;fill:#FF00FF00;stroke:none" width="512.0" height="512.0" x="0.0" y="0.0"> </rect>
<path class="atom-0" d="M 244.5 228.8 Q 244.0 233.3, 241.2 235.8 Q 238.4 238.2, 233.7 238.2 Q 228.7 238.2, 225.6 234.6 Q 222.6 231.0, 222.6 224.9 L 222.6 222.2 Q 222.6 218.2, 224.0 215.2 Q 225.5 212.2, 228.1 210.6 Q 230.6 209.0, 234.1 209.0 Q 238.6 209.0, 241.3 211.5 Q 244.1 214.0, 244.5 218.5 L 240.7 218.5 Q 240.3 215.1, 238.6 213.6 Q 237.0 212.1, 234.1 212.1 Q 230.5 212.1, 228.4 214.7 Q 226.4 217.4, 226.4 222.3 L 226.4 225.0 Q 226.4 229.7, 228.3 232.4 Q 230.3 235.1, 233.7 235.1 Q 236.9 235.1, 238.5 233.7 Q 240.2 232.3, 240.7 228.8 L 244.5 228.8 " fill="#7E56C2"/>
<path class="atom-0" d="M 270.3 237.8 L 266.6 237.8 L 266.6 224.7 L 252.2 224.7 L 252.2 237.8 L 248.5 237.8 L 248.5 209.4 L 252.2 209.4 L 252.2 221.6 L 266.6 221.6 L 266.6 209.4 L 270.3 209.4 L 270.3 237.8 " fill="#7E56C2"/>
<path class="atom-0" d="M 286.8 245.7 L 289.4 245.7 L 289.4 247.7 L 286.8 247.7 L 286.8 252.0 L 284.4 252.0 L 284.4 247.7 L 275.8 247.7 L 275.8 246.3 L 284.2 233.3 L 286.8 233.3 L 286.8 245.7 M 278.5 245.7 L 284.4 245.7 L 284.4 236.5 L 284.1 237.0 L 278.5 245.7 " fill="#7E56C2"/>
<path class="legend" d="M 238.5 475.1 L 230.9 475.1 L 229.3 479.8 L 226.8 479.8 L 233.7 461.8 L 235.7 461.8 L 242.6 479.8 L 240.2 479.8 L 238.5 475.1 M 231.7 473.1 L 237.8 473.1 L 234.7 464.7 L 231.7 473.1 " fill="#7E56C2"/>
<path class="legend" d="M 246.3 479.8 L 244.0 479.8 L 244.0 460.8 L 246.3 460.8 L 246.3 479.8 " fill="#7E56C2"/>
<path class="legend" d="M 252.9 473.6 L 251.5 475.1 L 251.5 479.8 L 249.2 479.8 L 249.2 460.8 L 251.5 460.8 L 251.5 472.3 L 252.7 470.8 L 256.9 466.4 L 259.6 466.4 L 254.4 472.0 L 260.2 479.8 L 257.6 479.8 L 252.9 473.6 " fill="#7E56C2"/>
<path class="legend" d="M 269.9 479.8 Q 269.7 479.4, 269.6 478.3 Q 268.0 480.0, 265.8 480.0 Q 263.8 480.0, 262.5 478.9 Q 261.3 477.8, 261.3 476.1 Q 261.3 474.0, 262.8 472.8 Q 264.4 471.7, 267.3 471.7 L 269.5 471.7 L 269.5 470.6 Q 269.5 469.4, 268.8 468.7 Q 268.1 468.0, 266.7 468.0 Q 265.5 468.0, 264.7 468.6 Q 263.8 469.2, 263.8 470.1 L 261.5 470.1 Q 261.5 469.1, 262.2 468.2 Q 263.0 467.2, 264.2 466.7 Q 265.4 466.2, 266.8 466.2 Q 269.2 466.2, 270.5 467.3 Q 271.8 468.5, 271.8 470.5 L 271.8 476.6 Q 271.8 478.5, 272.3 479.6 L 272.3 479.8 L 269.9 479.8 M 266.1 478.0 Q 267.2 478.0, 268.1 477.5 Q 269.1 476.9, 269.5 476.0 L 269.5 473.3 L 267.7 473.3 Q 263.6 473.3, 263.6 475.7 Q 263.6 476.8, 264.3 477.4 Q 265.0 478.0, 266.1 478.0 " fill="#7E56C2"/>
<path class="legend" d="M 276.8 466.4 L 276.9 468.1 Q 278.4 466.2, 280.9 466.2 Q 285.1 466.2, 285.2 470.9 L 285.2 479.8 L 282.9 479.8 L 282.9 470.9 Q 282.9 469.5, 282.2 468.8 Q 281.6 468.1, 280.2 468.1 Q 279.1 468.1, 278.3 468.7 Q 277.4 469.3, 277.0 470.2 L 277.0 479.8 L 274.7 479.8 L 274.7 466.4 L 276.8 466.4 " fill="#7E56C2"/>
<path class="legend" d="" fill="#7E56C2"/>
<path class="legend" d="M 223.5 481.0 L 229.4 495.6 L 235.3 481.0 L 238.4 481.0 L 238.4 499.0 L 236.0 499.0 L 236.0 492.0 L 236.2 484.4 L 230.3 499.0 L 228.5 499.0 L 222.6 484.4 L 222.9 492.0 L 222.9 499.0 L 220.5 499.0 L 220.5 481.0 L 223.5 481.0 " fill="#7E56C2"/>
<path class="legend" d="M 247.6 499.2 Q 244.8 499.2, 243.1 497.4 Q 241.4 495.6, 241.4 492.6 L 241.4 492.2 Q 241.4 490.2, 242.2 488.7 Q 243.0 487.1, 244.3 486.2 Q 245.7 485.4, 247.3 485.4 Q 249.9 485.4, 251.3 487.1 Q 252.8 488.8, 252.8 492.0 L 252.8 492.9 L 243.7 492.9 Q 243.8 494.9, 244.9 496.1 Q 246.0 497.3, 247.7 497.3 Q 248.9 497.3, 249.7 496.8 Q 250.6 496.3, 251.2 495.5 L 252.6 496.6 Q 250.9 499.2, 247.6 499.2 M 247.3 487.2 Q 245.9 487.2, 245.0 488.2 Q 244.0 489.2, 243.8 491.1 L 250.5 491.1 L 250.5 490.9 Q 250.4 489.1, 249.5 488.2 Q 248.7 487.2, 247.3 487.2 " fill="#7E56C2"/>
<path class="legend" d="M 259.4 482.4 L 259.4 485.6 L 261.9 485.6 L 261.9 487.4 L 259.4 487.4 L 259.4 495.6 Q 259.4 496.4, 259.7 496.9 Q 260.0 497.3, 260.8 497.3 Q 261.2 497.3, 261.9 497.1 L 261.9 499.0 Q 261.0 499.2, 260.2 499.2 Q 258.6 499.2, 257.9 498.3 Q 257.1 497.3, 257.1 495.6 L 257.1 487.4 L 254.7 487.4 L 254.7 485.6 L 257.1 485.6 L 257.1 482.4 L 259.4 482.4 " fill="#7E56C2"/>
<path class="legend" d="M 266.1 487.2 Q 267.6 485.4, 270.0 485.4 Q 274.2 485.4, 274.3 490.1 L 274.3 499.0 L 272.0 499.0 L 272.0 490.1 Q 272.0 488.7, 271.3 488.0 Q 270.7 487.3, 269.3 487.3 Q 268.2 487.3, 267.4 487.9 Q 266.5 488.5, 266.1 489.4 L 266.1 499.0 L 263.8 499.0 L 263.8 480.0 L 266.1 480.0 L 266.1 487.2 " fill="#7E56C2"/>
<path class="legend" d="M 285.6 499.0 Q 285.4 498.6, 285.3 497.5 Q 283.7 499.2, 281.5 499.2 Q 279.5 499.2, 278.2 498.1 Q 277.0 497.0, 277.0 495.3 Q 277.0 493.2, 278.5 492.0 Q 280.1 490.9, 283.0 490.9 L 285.2 490.9 L 285.2 489.8 Q 285.2 488.6, 284.5 487.9 Q 283.8 487.2, 282.4 487.2 Q 281.2 487.2, 280.3 487.8 Q 279.5 488.4, 279.5 489.3 L 277.2 489.3 Q 277.2 488.3, 277.9 487.4 Q 278.6 486.4, 279.9 485.9 Q 281.1 485.4, 282.5 485.4 Q 284.8 485.4, 286.1 486.5 Q 287.5 487.7, 287.5 489.7 L 287.5 495.8 Q 287.5 497.7, 288.0 498.8 L 288.0 499.0 L 285.6 499.0 M 281.8 497.2 Q 282.9 497.2, 283.8 496.7 Q 284.8 496.1, 285.2 495.2 L 285.2 492.5 L 283.4 492.5 Q 279.2 492.5, 279.2 494.9 Q 279.2 496.0, 280.0 496.6 Q 280.7 497.2, 281.8 497.2 " fill="#7E56C2"/>
<path class="legend" d="M 292.5 485.6 L 292.6 487.3 Q 294.1 485.4, 296.6 485.4 Q 300.8 485.4, 300.8 490.1 L 300.8 499.0 L 298.6 499.0 L 298.6 490.1 Q 298.5 488.7, 297.9 488.0 Q 297.2 487.3, 295.9 487.3 Q 294.8 487.3, 293.9 487.9 Q 293.1 488.5, 292.6 489.4 L 292.6 499.0 L 290.3 499.0 L 290.3 485.6 L 292.5 485.6 " fill="#7E56C2"/>
</g>
    <g transform="translate(512.0, 0.0) scale(1 1) "><!-- END OF HEADER -->
<rect style="opacity:1.0;fill:#FF00FF00;stroke:none" width="512.0" height="512.0" x="0.0" y="0.0"> </rect>
<path class="bond-0 atom-0 atom-1" d="M 23.3,280.2 L 256.0,145.9" style="fill:none;fill-rule:evenodd;stroke:#7E56C2;stroke-width:4.0px;stroke-linecap:butt;stroke-linejoin:miter;stroke-opacity:1"/>
<path class="bond-0 atom-0 atom-1" d="M 43.4,315.1 L 256.0,192.4" style="fill:none;fill-rule:evenodd;stroke:#7E56C2;stroke-width:4.0px;stroke-linecap:butt;stroke-linejoin:miter;stroke-opacity:1"/>
<path class="bond-1 atom-1 atom-2" d="M 256.0,145.9 L 488.7,280.2" style="fill:none;fill-rule:evenodd;stroke:#7E56C2;stroke-width:4.0px;stroke-linecap:butt;stroke-linejoin:miter;stroke-opacity:1"/>
<path d="M 244.4,152.6 L 256.0,145.9 L 267.6,152.6" style="fill:none;stroke:#7E56C2;stroke-width:4.0px;stroke-linecap:butt;stroke-linejoin:miter;stroke-opacity:1;"/>
<path class="legend" d="M 240.2 473.7 L 233.4 473.7 L 231.8 478.0 L 229.6 478.0 L 235.8 461.7 L 237.7 461.7 L 243.9 478.0 L 241.7 478.0 L 240.2 473.7 M 234.0 472.0 L 239.5 472.0 L 236.8 464.3 L 234.0 472.0 " fill="#7E56C2"/>
<path class="legend" d="M 247.2 478.0 L 245.2 478.0 L 245.2 460.8 L 247.2 460.8 L 247.2 478.0 " fill="#7E56C2"/>
<path class="legend" d="M 253.3 472.4 L 252.0 473.7 L 252.0 478.0 L 249.9 478.0 L 249.9 460.8 L 252.0 460.8 L 252.0 471.2 L 253.1 469.9 L 256.8 465.9 L 259.4 465.9 L 254.7 470.9 L 259.9 478.0 L 257.5 478.0 L 253.3 472.4 " fill="#7E56C2"/>
<path class="legend" d="M 266.4 478.2 Q 263.9 478.2, 262.4 476.6 Q 260.9 475.0, 260.9 472.3 L 260.9 471.9 Q 260.9 470.1, 261.5 468.7 Q 262.2 467.3, 263.5 466.5 Q 264.7 465.7, 266.1 465.7 Q 268.5 465.7, 269.8 467.2 Q 271.1 468.8, 271.1 471.7 L 271.1 472.5 L 262.9 472.5 Q 263.0 474.3, 264.0 475.4 Q 265.0 476.5, 266.5 476.5 Q 267.6 476.5, 268.4 476.1 Q 269.1 475.6, 269.7 474.9 L 271.0 475.9 Q 269.4 478.2, 266.4 478.2 M 266.1 467.4 Q 264.9 467.4, 264.0 468.3 Q 263.2 469.2, 263.0 470.8 L 269.0 470.8 L 269.0 470.7 Q 269.0 469.1, 268.2 468.2 Q 267.4 467.4, 266.1 467.4 " fill="#7E56C2"/>
<path class="legend" d="M 274.8 465.9 L 274.9 467.4 Q 276.3 465.7, 278.5 465.7 Q 282.3 465.7, 282.4 470.0 L 282.4 478.0 L 280.3 478.0 L 280.3 470.0 Q 280.3 468.7, 279.7 468.0 Q 279.1 467.4, 277.9 467.4 Q 276.9 467.4, 276.1 467.9 Q 275.4 468.5, 274.9 469.4 L 274.9 478.0 L 272.9 478.0 L 272.9 465.9 L 274.8 465.9 " fill="#7E56C2"/>
<path class="legend" d="" fill="#7E56C2"/>
<path class="legend" d="M 216.6 488.2 L 216.6 494.5 L 214.4 494.5 L 214.4 478.3 L 220.4 478.3 Q 223.1 478.3, 224.6 479.6 Q 226.1 481.0, 226.1 483.2 Q 226.1 485.6, 224.6 486.9 Q 223.2 488.2, 220.4 488.2 L 216.6 488.2 M 216.6 486.4 L 220.4 486.4 Q 222.1 486.4, 223.1 485.6 Q 224.0 484.8, 224.0 483.3 Q 224.0 481.8, 223.1 480.9 Q 222.1 480.1, 220.5 480.0 L 216.6 480.0 L 216.6 486.4 " fill="#7E56C2"/>
<path class="legend" d="M 233.6 484.3 Q 233.1 484.2, 232.6 484.2 Q 230.5 484.2, 229.8 486.0 L 229.8 494.5 L 227.7 494.5 L 227.7 482.5 L 229.7 482.5 L 229.8 483.9 Q 230.8 482.2, 232.7 482.2 Q 233.3 482.2, 233.6 482.4 L 233.6 484.3 " fill="#7E56C2"/>
<path class="legend" d="M 234.7 488.4 Q 234.7 486.6, 235.4 485.2 Q 236.1 483.8, 237.3 483.0 Q 238.6 482.2, 240.2 482.2 Q 242.6 482.2, 244.1 483.9 Q 245.7 485.7, 245.7 488.5 L 245.7 488.6 Q 245.7 490.4, 245.0 491.8 Q 244.3 493.2, 243.1 494.0 Q 241.8 494.8, 240.2 494.8 Q 237.7 494.8, 236.2 493.1 Q 234.7 491.4, 234.7 488.5 L 234.7 488.4 M 236.7 488.6 Q 236.7 490.6, 237.7 491.9 Q 238.6 493.1, 240.2 493.1 Q 241.8 493.1, 242.7 491.9 Q 243.6 490.6, 243.6 488.4 Q 243.6 486.4, 242.7 485.2 Q 241.7 483.9, 240.2 483.9 Q 238.6 483.9, 237.7 485.1 Q 236.7 486.4, 236.7 488.6 " fill="#7E56C2"/>
<path class="legend" d="M 257.7 488.6 Q 257.7 491.4, 256.4 493.1 Q 255.2 494.8, 253.0 494.8 Q 250.8 494.8, 249.5 493.4 L 249.5 499.2 L 247.5 499.2 L 247.5 482.5 L 249.4 482.5 L 249.5 483.8 Q 250.7 482.2, 253.0 482.2 Q 255.1 482.2, 256.4 483.9 Q 257.7 485.5, 257.7 488.4 L 257.7 488.6 M 255.6 488.4 Q 255.6 486.4, 254.7 485.2 Q 253.9 484.0, 252.4 484.0 Q 250.5 484.0, 249.5 485.7 L 249.5 491.4 Q 250.5 493.1, 252.4 493.1 Q 253.9 493.1, 254.7 491.9 Q 255.6 490.7, 255.6 488.4 " fill="#7E56C2"/>
<path class="legend" d="M 265.0 488.5 L 259.5 488.5 L 259.5 486.8 L 265.0 486.8 L 265.0 488.5 " fill="#7E56C2"/>
<path class="legend" d="M 272.4 494.5 L 270.3 494.5 L 270.3 480.8 L 266.2 482.3 L 266.2 480.4 L 272.1 478.2 L 272.4 478.2 L 272.4 494.5 " fill="#7E56C2"/>
<path class="legend" d="M 283.3 488.5 L 277.9 488.5 L 277.9 486.8 L 283.3 486.8 L 283.3 488.5 " fill="#7E56C2"/>
<path class="legend" d="M 290.1 494.8 Q 287.6 494.8, 286.1 493.2 Q 284.5 491.5, 284.5 488.8 L 284.5 488.5 Q 284.5 486.7, 285.2 485.2 Q 285.9 483.8, 287.1 483.0 Q 288.4 482.2, 289.8 482.2 Q 292.2 482.2, 293.5 483.8 Q 294.8 485.3, 294.8 488.2 L 294.8 489.1 L 286.6 489.1 Q 286.6 490.9, 287.6 492.0 Q 288.6 493.1, 290.2 493.1 Q 291.3 493.1, 292.0 492.6 Q 292.8 492.2, 293.4 491.5 L 294.6 492.4 Q 293.1 494.8, 290.1 494.8 M 289.8 483.9 Q 288.6 483.9, 287.7 484.8 Q 286.9 485.8, 286.7 487.4 L 292.7 487.4 L 292.7 487.2 Q 292.6 485.7, 291.9 484.8 Q 291.1 483.9, 289.8 483.9 " fill="#7E56C2"/>
<path class="legend" d="M 298.3 482.5 L 298.4 484.0 Q 299.8 482.2, 302.0 482.2 Q 305.9 482.2, 305.9 486.6 L 305.9 494.5 L 303.8 494.5 L 303.8 486.5 Q 303.8 485.2, 303.2 484.6 Q 302.6 484.0, 301.4 484.0 Q 300.4 484.0, 299.6 484.5 Q 298.9 485.1, 298.4 485.9 L 298.4 494.5 L 296.4 494.5 L 296.4 482.5 L 298.3 482.5 " fill="#7E56C2"/>
</g>
    <g transform="translate(1024.0, 0.0) scale(1 1) "><!-- END OF HEADER -->
<rect style="opacity:1.0;fill:#FF00FF00;stroke:none" width="512.0" height="512.0" x="0.0" y="0.0"> </rect>
<path class="bond-0 atom-0 atom-1" d="M 82.4,230.3 L 226.3,230.3" style="fill:none;fill-rule:evenodd;stroke:#7E56C2;stroke-width:4.0px;stroke-linecap:butt;stroke-linejoin:miter;stroke-opacity:1"/>
<path class="bond-0 atom-0 atom-1" d="M 226.3,230.3 L 370.1,230.3" style="fill:none;fill-rule:evenodd;stroke:#FF0000;stroke-width:4.0px;stroke-linecap:butt;stroke-linejoin:miter;stroke-opacity:1"/>
<path class="atom-1" d="M 403.2 231.4 Q 403.2 235.6, 401.8 238.7 Q 400.4 241.8, 397.8 243.5 Q 395.2 245.1, 391.8 245.1 Q 388.4 245.1, 385.8 243.5 Q 383.2 241.8, 381.8 238.8 Q 380.3 235.7, 380.3 231.7 L 380.3 229.6 Q 380.3 225.5, 381.7 222.4 Q 383.2 219.2, 385.8 217.6 Q 388.4 215.9, 391.7 215.9 Q 395.2 215.9, 397.7 217.6 Q 400.4 219.2, 401.8 222.3 Q 403.2 225.5, 403.2 229.6 L 403.2 231.4 M 399.4 229.6 Q 399.4 224.5, 397.4 221.8 Q 395.4 219.1, 391.7 219.1 Q 388.2 219.1, 386.1 221.8 Q 384.1 224.5, 384.0 229.3 L 384.0 231.4 Q 384.0 236.3, 386.1 239.1 Q 388.2 241.9, 391.8 241.9 Q 395.4 241.9, 397.4 239.3 Q 399.4 236.6, 399.4 231.7 L 399.4 229.6 " fill="#FF0000"/>
<path class="atom-1" d="M 429.6 244.7 L 425.8 244.7 L 425.8 231.6 L 411.5 231.6 L 411.5 244.7 L 407.7 244.7 L 407.7 216.3 L 411.5 216.3 L 411.5 228.5 L 425.8 228.5 L 425.8 216.3 L 429.6 216.3 L 429.6 244.7 " fill="#FF0000"/>
<path class="legend" d="M 228.6 475.1 L 221.1 475.1 L 219.4 479.8 L 216.9 479.8 L 223.8 461.8 L 225.9 461.8 L 232.7 479.8 L 230.3 479.8 L 228.6 475.1 M 221.8 473.1 L 227.9 473.1 L 224.8 464.7 L 221.8 473.1 " fill="#7E56C2"/>
<path class="legend" d="M 236.3 479.8 L 234.0 479.8 L 234.0 460.8 L 236.3 460.8 L 236.3 479.8 " fill="#7E56C2"/>
<path class="legend" d="M 242.9 473.6 L 241.4 475.1 L 241.4 479.8 L 239.2 479.8 L 239.2 460.8 L 241.4 460.8 L 241.4 472.3 L 242.7 470.8 L 246.8 466.4 L 249.6 466.4 L 244.4 472.0 L 250.2 479.8 L 247.5 479.8 L 242.9 473.6 " fill="#7E56C2"/>
<path class="legend" d="M 251.2 473.0 Q 251.2 471.0, 251.9 469.4 Q 252.7 467.9, 254.1 467.0 Q 255.5 466.2, 257.2 466.2 Q 260.0 466.2, 261.6 468.0 Q 263.3 469.9, 263.3 473.1 L 263.3 473.2 Q 263.3 475.2, 262.6 476.7 Q 261.8 478.3, 260.4 479.1 Q 259.1 480.0, 257.3 480.0 Q 254.6 480.0, 252.9 478.1 Q 251.2 476.2, 251.2 473.1 L 251.2 473.0 M 253.5 473.2 Q 253.5 475.4, 254.5 476.8 Q 255.5 478.1, 257.3 478.1 Q 259.0 478.1, 260.0 476.8 Q 261.1 475.4, 261.1 473.0 Q 261.1 470.8, 260.0 469.4 Q 259.0 468.0, 257.2 468.0 Q 255.5 468.0, 254.5 469.4 Q 253.5 470.7, 253.5 473.2 " fill="#7E56C2"/>
<path class="legend" d="M 267.7 468.0 Q 269.2 466.2, 271.6 466.2 Q 275.9 466.2, 275.9 470.9 L 275.9 479.8 L 273.6 479.8 L 273.6 470.9 Q 273.6 469.5, 273.0 468.8 Q 272.3 468.1, 271.0 468.1 Q 269.8 468.1, 269.0 468.7 Q 268.2 469.3, 267.7 470.2 L 267.7 479.8 L 265.4 479.8 L 265.4 460.8 L 267.7 460.8 L 267.7 468.0 " fill="#7E56C2"/>
<path class="legend" d="M 278.6 473.0 Q 278.6 471.0, 279.3 469.4 Q 280.1 467.9, 281.5 467.0 Q 282.8 466.2, 284.6 466.2 Q 287.3 466.2, 289.0 468.0 Q 290.7 469.9, 290.7 473.1 L 290.7 473.2 Q 290.7 475.2, 290.0 476.7 Q 289.2 478.3, 287.8 479.1 Q 286.4 480.0, 284.6 480.0 Q 281.9 480.0, 280.2 478.1 Q 278.6 476.2, 278.6 473.1 L 278.6 473.0 M 280.8 473.2 Q 280.8 475.4, 281.9 476.8 Q 282.9 478.1, 284.6 478.1 Q 286.4 478.1, 287.4 476.8 Q 288.4 475.4, 288.4 473.0 Q 288.4 470.8, 287.4 469.4 Q 286.3 468.0, 284.6 468.0 Q 282.9 468.0, 281.9 469.4 Q 280.8 470.7, 280.8 473.2 " fill="#7E56C2"/>
<path class="legend" d="M 295.1 479.8 L 292.8 479.8 L 292.8 460.8 L 295.1 460.8 L 295.1 479.8 " fill="#7E56C2"/>
<path class="legend" d="" fill="#7E56C2"/>
<path class="legend" d="M 214.1 481.0 L 220.0 495.6 L 225.8 481.0 L 228.9 481.0 L 228.9 499.0 L 226.5 499.0 L 226.5 492.0 L 226.8 484.4 L 220.9 499.0 L 219.1 499.0 L 213.2 484.4 L 213.4 492.0 L 213.4 499.0 L 211.0 499.0 L 211.0 481.0 L 214.1 481.0 " fill="#7E56C2"/>
<path class="legend" d="M 238.1 499.2 Q 235.3 499.2, 233.6 497.4 Q 231.9 495.6, 231.9 492.6 L 231.9 492.2 Q 231.9 490.2, 232.7 488.7 Q 233.5 487.1, 234.8 486.2 Q 236.2 485.4, 237.8 485.4 Q 240.4 485.4, 241.8 487.1 Q 243.3 488.8, 243.3 492.0 L 243.3 492.9 L 234.2 492.9 Q 234.3 494.9, 235.4 496.1 Q 236.5 497.3, 238.2 497.3 Q 239.4 497.3, 240.2 496.8 Q 241.1 496.3, 241.7 495.5 L 243.1 496.6 Q 241.4 499.2, 238.1 499.2 M 237.8 487.2 Q 236.4 487.2, 235.5 488.2 Q 234.5 489.2, 234.3 491.1 L 241.0 491.1 L 241.0 490.9 Q 240.9 489.1, 240.0 488.2 Q 239.2 487.2, 237.8 487.2 " fill="#7E56C2"/>
<path class="legend" d="M 249.8 482.4 L 249.8 485.6 L 252.3 485.6 L 252.3 487.4 L 249.8 487.4 L 249.8 495.6 Q 249.8 496.4, 250.1 496.9 Q 250.5 497.3, 251.3 497.3 Q 251.7 497.3, 252.4 497.1 L 252.4 499.0 Q 251.5 499.2, 250.6 499.2 Q 249.1 499.2, 248.3 498.3 Q 247.5 497.3, 247.5 495.6 L 247.5 487.4 L 245.1 487.4 L 245.1 485.6 L 247.5 485.6 L 247.5 482.4 L 249.8 482.4 " fill="#7E56C2"/>
<path class="legend" d="M 256.4 487.2 Q 258.0 485.4, 260.4 485.4 Q 264.6 485.4, 264.7 490.1 L 264.7 499.0 L 262.4 499.0 L 262.4 490.1 Q 262.4 488.7, 261.7 488.0 Q 261.1 487.3, 259.7 487.3 Q 258.6 487.3, 257.8 487.9 Q 256.9 488.5, 256.4 489.4 L 256.4 499.0 L 254.2 499.0 L 254.2 480.0 L 256.4 480.0 L 256.4 487.2 " fill="#7E56C2"/>
<path class="legend" d="M 275.9 499.0 Q 275.7 498.6, 275.6 497.5 Q 274.0 499.2, 271.8 499.2 Q 269.8 499.2, 268.5 498.1 Q 267.3 497.0, 267.3 495.3 Q 267.3 493.2, 268.9 492.0 Q 270.4 490.9, 273.3 490.9 L 275.5 490.9 L 275.5 489.8 Q 275.5 488.6, 274.8 487.9 Q 274.1 487.2, 272.7 487.2 Q 271.5 487.2, 270.7 487.8 Q 269.8 488.4, 269.8 489.3 L 267.5 489.3 Q 267.5 488.3, 268.2 487.4 Q 269.0 486.4, 270.2 485.9 Q 271.4 485.4, 272.9 485.4 Q 275.2 485.4, 276.5 486.5 Q 277.8 487.7, 277.8 489.7 L 277.8 495.8 Q 277.8 497.7, 278.3 498.8 L 278.3 499.0 L 275.9 499.0 M 272.1 497.2 Q 273.2 497.2, 274.1 496.7 Q 275.1 496.1, 275.5 495.2 L 275.5 492.5 L 273.8 492.5 Q 269.6 492.5, 269.6 494.9 Q 269.6 496.0, 270.3 496.6 Q 271.0 497.2, 272.1 497.2 " fill="#7E56C2"/>
<path class="legend" d="M 282.8 485.6 L 282.8 487.3 Q 284.4 485.4, 286.8 485.4 Q 291.1 485.4, 291.1 490.1 L 291.1 499.0 L 288.8 499.0 L 288.8 490.1 Q 288.8 488.7, 288.1 488.0 Q 287.5 487.3, 286.1 487.3 Q 285.0 487.3, 284.2 487.9 Q 283.3 488.5, 282.9 489.4 L 282.9 499.0 L 280.6 499.0 L 280.6 485.6 L 282.8 485.6 " fill="#7E56C2"/>
<path class="legend" d="M 293.7 492.2 Q 293.7 490.2, 294.5 488.6 Q 295.3 487.1, 296.6 486.2 Q 298.0 485.4, 299.8 485.4 Q 302.5 485.4, 304.2 487.2 Q 305.9 489.1, 305.9 492.3 L 305.9 492.4 Q 305.9 494.4, 305.1 495.9 Q 304.4 497.5, 303.0 498.3 Q 301.6 499.2, 299.8 499.2 Q 297.1 499.2, 295.4 497.3 Q 293.7 495.4, 293.7 492.3 L 293.7 492.2 M 296.0 492.4 Q 296.0 494.6, 297.1 496.0 Q 298.1 497.3, 299.8 497.3 Q 301.6 497.3, 302.6 496.0 Q 303.6 494.6, 303.6 492.2 Q 303.6 490.0, 302.6 488.6 Q 301.5 487.2, 299.8 487.2 Q 298.1 487.2, 297.1 488.6 Q 296.0 489.9, 296.0 492.4 " fill="#7E56C2"/>
<path class="legend" d="M 310.2 499.0 L 307.9 499.0 L 307.9 480.0 L 310.2 480.0 L 310.2 499.0 " fill="#7E56C2"/>
</g>
    <g transform="translate(0.0, 512.0) scale(1 1) "><!-- END OF HEADER -->
<rect style="opacity:1.0;fill:#FF00FF00;stroke:none" width="512.0" height="512.0" x="0.0" y="0.0"> </rect>
<path class="bond-0 atom-0 atom-1" d="M 48.3,200.2 L 237.9,200.2" style="fill:none;fill-rule:evenodd;stroke:#7E56C2;stroke-width:4.0px;stroke-linecap:butt;stroke-linejoin:miter;stroke-opacity:1"/>
<path class="bond-0 atom-0 atom-1" d="M 237.9,200.2 L 427.5,200.2" style="fill:none;fill-rule:evenodd;stroke:#FF0000;stroke-width:4.0px;stroke-linecap:butt;stroke-linejoin:miter;stroke-opacity:1"/>
<path class="bond-0 atom-0 atom-1" d="M 48.3,260.8 L 237.9,260.8" style="fill:none;fill-rule:evenodd;stroke:#7E56C2;stroke-width:4.0px;stroke-linecap:butt;stroke-linejoin:miter;stroke-opacity:1"/>
<path class="bond-0 atom-0 atom-1" d="M 237.9,260.8 L 427.5,260.8" style="fill:none;fill-rule:evenodd;stroke:#FF0000;stroke-width:4.0px;stroke-linecap:butt;stroke-linejoin:miter;stroke-opacity:1"/>
<path class="atom-1" d="M 463.7 231.6 Q 463.7 235.8, 462.2 238.9 Q 460.8 242.0, 458.3 243.7 Q 455.7 245.3, 452.2 245.3 Q 448.9 245.3, 446.3 243.7 Q 443.7 242.0, 442.2 239.0 Q 440.8 235.9, 440.8 231.9 L 440.8 229.8 Q 440.8 225.7, 442.2 222.6 Q 443.6 219.4, 446.2 217.8 Q 448.9 216.1, 452.2 216.1 Q 455.6 216.1, 458.2 217.7 Q 460.8 219.4, 462.2 222.5 Q 463.7 225.7, 463.7 229.8 L 463.7 231.6 M 459.9 229.8 Q 459.9 224.7, 457.9 222.0 Q 455.9 219.3, 452.2 219.3 Q 448.7 219.3, 446.6 222.0 Q 444.6 224.7, 444.5 229.5 L 444.5 231.6 Q 444.5 236.5, 446.6 239.3 Q 448.6 242.1, 452.2 242.1 Q 455.9 242.1, 457.9 239.5 Q 459.9 236.8, 459.9 231.9 L 459.9 229.8 " fill="#FF0000"/>
<path class="legend" d="M 227.9 473.4 L 221.2 473.4 L 219.7 477.5 L 217.6 477.5 L 223.6 461.7 L 225.5 461.7 L 231.5 477.5 L 229.4 477.5 L 227.9 473.4 M 221.9 471.7 L 227.2 471.7 L 224.5 464.2 L 221.9 471.7 " fill="#7E56C2"/>
<path class="legend" d="M 234.8 477.5 L 232.7 477.5 L 232.7 460.8 L 234.8 460.8 L 234.8 477.5 " fill="#7E56C2"/>
<path class="legend" d="M 237.4 471.5 Q 237.4 468.8, 238.7 467.2 Q 240.0 465.5, 242.0 465.5 Q 244.1 465.5, 245.3 466.9 L 245.3 460.8 L 247.3 460.8 L 247.3 477.5 L 245.5 477.5 L 245.4 476.3 Q 244.2 477.7, 242.0 477.7 Q 240.0 477.7, 238.7 476.1 Q 237.4 474.4, 237.4 471.7 L 237.4 471.5 M 239.4 471.8 Q 239.4 473.8, 240.2 474.9 Q 241.0 476.0, 242.5 476.0 Q 244.4 476.0, 245.3 474.3 L 245.3 468.9 Q 244.4 467.2, 242.5 467.2 Q 241.0 467.2, 240.2 468.4 Q 239.4 469.5, 239.4 471.8 " fill="#7E56C2"/>
<path class="legend" d="M 255.2 477.7 Q 252.8 477.7, 251.3 476.2 Q 249.8 474.6, 249.8 472.0 L 249.8 471.6 Q 249.8 469.8, 250.5 468.5 Q 251.2 467.1, 252.4 466.3 Q 253.6 465.5, 255.0 465.5 Q 257.3 465.5, 258.6 467.0 Q 259.8 468.5, 259.8 471.4 L 259.8 472.2 L 251.9 472.2 Q 251.9 473.9, 252.9 475.0 Q 253.9 476.1, 255.4 476.1 Q 256.4 476.1, 257.2 475.7 Q 257.9 475.2, 258.5 474.5 L 259.7 475.5 Q 258.2 477.7, 255.2 477.7 M 255.0 467.2 Q 253.8 467.2, 252.9 468.1 Q 252.1 469.0, 251.9 470.5 L 257.8 470.5 L 257.8 470.4 Q 257.7 468.9, 257.0 468.0 Q 256.3 467.2, 255.0 467.2 " fill="#7E56C2"/>
<path class="legend" d="M 263.6 467.2 Q 264.9 465.5, 267.1 465.5 Q 270.8 465.5, 270.8 469.7 L 270.8 477.5 L 268.8 477.5 L 268.8 469.7 Q 268.8 468.4, 268.2 467.8 Q 267.7 467.2, 266.5 467.2 Q 265.5 467.2, 264.7 467.8 Q 264.0 468.3, 263.6 469.1 L 263.6 477.5 L 261.6 477.5 L 261.6 460.8 L 263.6 460.8 L 263.6 467.2 " fill="#7E56C2"/>
<path class="legend" d="M 278.4 474.6 L 281.1 465.7 L 283.3 465.7 L 278.6 479.3 Q 277.5 482.3, 275.1 482.3 L 274.7 482.2 L 273.9 482.1 L 273.9 480.5 L 274.5 480.5 Q 275.5 480.5, 276.1 480.1 Q 276.6 479.7, 277.0 478.6 L 277.5 477.4 L 273.3 465.7 L 275.4 465.7 L 278.4 474.6 " fill="#7E56C2"/>
<path class="legend" d="M 284.5 471.5 Q 284.5 468.8, 285.8 467.2 Q 287.1 465.5, 289.1 465.5 Q 291.2 465.5, 292.4 466.9 L 292.4 460.8 L 294.4 460.8 L 294.4 477.5 L 292.6 477.5 L 292.5 476.3 Q 291.3 477.7, 289.1 477.7 Q 287.1 477.7, 285.8 476.1 Q 284.5 474.4, 284.5 471.7 L 284.5 471.5 M 286.5 471.8 Q 286.5 473.8, 287.3 474.9 Q 288.2 476.0, 289.6 476.0 Q 291.5 476.0, 292.4 474.3 L 292.4 468.9 Q 291.5 467.2, 289.6 467.2 Q 288.2 467.2, 287.3 468.4 Q 286.5 469.5, 286.5 471.8 " fill="#7E56C2"/>
<path class="legend" d="" fill="#7E56C2"/>
<path class="legend" d="M 217.6 483.1 L 222.8 496.1 L 227.9 483.1 L 230.7 483.1 L 230.7 499.0 L 228.6 499.0 L 228.6 492.8 L 228.8 486.2 L 223.6 499.0 L 222.0 499.0 L 216.8 486.2 L 217.0 492.8 L 217.0 499.0 L 214.9 499.0 L 214.9 483.1 L 217.6 483.1 " fill="#7E56C2"/>
<path class="legend" d="M 238.6 499.2 Q 236.2 499.2, 234.7 497.6 Q 233.2 496.1, 233.2 493.4 L 233.2 493.1 Q 233.2 491.3, 233.9 489.9 Q 234.6 488.5, 235.8 487.8 Q 237.0 487.0, 238.4 487.0 Q 240.7 487.0, 241.9 488.5 Q 243.2 490.0, 243.2 492.8 L 243.2 493.7 L 235.2 493.7 Q 235.3 495.4, 236.2 496.5 Q 237.2 497.6, 238.7 497.6 Q 239.8 497.6, 240.5 497.1 Q 241.3 496.7, 241.8 496.0 L 243.1 496.9 Q 241.6 499.2, 238.6 499.2 M 238.4 488.6 Q 237.2 488.6, 236.3 489.5 Q 235.5 490.4, 235.3 492.0 L 241.2 492.0 L 241.2 491.9 Q 241.1 490.3, 240.4 489.5 Q 239.6 488.6, 238.4 488.6 " fill="#7E56C2"/>
<path class="legend" d="M 248.9 484.4 L 248.9 487.2 L 251.1 487.2 L 251.1 488.8 L 248.9 488.8 L 248.9 496.1 Q 248.9 496.8, 249.2 497.1 Q 249.5 497.5, 250.2 497.5 Q 250.5 497.5, 251.1 497.4 L 251.1 499.0 Q 250.4 499.2, 249.6 499.2 Q 248.3 499.2, 247.6 498.4 Q 246.9 497.6, 246.9 496.1 L 246.9 488.8 L 244.7 488.8 L 244.7 487.2 L 246.9 487.2 L 246.9 484.4 L 248.9 484.4 " fill="#7E56C2"/>
<path class="legend" d="M 254.7 488.6 Q 256.0 487.0, 258.1 487.0 Q 261.9 487.0, 261.9 491.2 L 261.9 499.0 L 259.9 499.0 L 259.9 491.2 Q 259.9 489.9, 259.3 489.3 Q 258.7 488.7, 257.5 488.7 Q 256.5 488.7, 255.8 489.2 Q 255.1 489.7, 254.7 490.6 L 254.7 499.0 L 252.6 499.0 L 252.6 482.3 L 254.7 482.3 L 254.7 488.6 " fill="#7E56C2"/>
<path class="legend" d="M 271.7 499.0 Q 271.5 498.6, 271.4 497.7 Q 270.0 499.2, 268.1 499.2 Q 266.3 499.2, 265.2 498.2 Q 264.1 497.2, 264.1 495.7 Q 264.1 493.9, 265.5 492.9 Q 266.9 491.8, 269.4 491.8 L 271.4 491.8 L 271.4 490.9 Q 271.4 489.9, 270.8 489.2 Q 270.1 488.6, 268.9 488.6 Q 267.8 488.6, 267.1 489.2 Q 266.4 489.7, 266.4 490.5 L 264.4 490.5 Q 264.4 489.6, 265.0 488.8 Q 265.6 487.9, 266.7 487.5 Q 267.7 487.0, 269.0 487.0 Q 271.1 487.0, 272.2 488.0 Q 273.4 489.0, 273.4 490.8 L 273.4 496.2 Q 273.4 497.9, 273.8 498.8 L 273.8 499.0 L 271.7 499.0 M 268.4 497.4 Q 269.3 497.4, 270.2 497.0 Q 271.0 496.5, 271.4 495.7 L 271.4 493.3 L 269.8 493.3 Q 266.1 493.3, 266.1 495.4 Q 266.1 496.4, 266.8 496.9 Q 267.4 497.4, 268.4 497.4 " fill="#7E56C2"/>
<path class="legend" d="M 277.7 487.2 L 277.7 488.7 Q 279.1 487.0, 281.3 487.0 Q 285.0 487.0, 285.0 491.2 L 285.0 499.0 L 283.0 499.0 L 283.0 491.2 Q 283.0 489.9, 282.4 489.3 Q 281.9 488.7, 280.7 488.7 Q 279.7 488.7, 278.9 489.2 Q 278.2 489.7, 277.8 490.6 L 277.8 499.0 L 275.8 499.0 L 275.8 487.2 L 277.7 487.2 " fill="#7E56C2"/>
<path class="legend" d="M 294.9 499.0 Q 294.7 498.6, 294.6 497.7 Q 293.2 499.2, 291.2 499.2 Q 289.5 499.2, 288.4 498.2 Q 287.3 497.2, 287.3 495.7 Q 287.3 493.9, 288.7 492.9 Q 290.1 491.8, 292.6 491.8 L 294.6 491.8 L 294.6 490.9 Q 294.6 489.9, 293.9 489.2 Q 293.3 488.6, 292.1 488.6 Q 291.0 488.6, 290.3 489.2 Q 289.5 489.7, 289.5 490.5 L 287.5 490.5 Q 287.5 489.6, 288.1 488.8 Q 288.8 487.9, 289.8 487.5 Q 290.9 487.0, 292.2 487.0 Q 294.2 487.0, 295.4 488.0 Q 296.5 489.0, 296.6 490.8 L 296.6 496.2 Q 296.6 497.9, 297.0 498.8 L 297.0 499.0 L 294.9 499.0 M 291.5 497.4 Q 292.5 497.4, 293.3 497.0 Q 294.2 496.5, 294.6 495.7 L 294.6 493.3 L 293.0 493.3 Q 289.3 493.3, 289.3 495.4 Q 289.3 496.4, 289.9 496.9 Q 290.5 497.4, 291.5 497.4 " fill="#7E56C2"/>
<path class="legend" d="M 300.9 499.0 L 298.9 499.0 L 298.9 482.3 L 300.9 482.3 L 300.9 499.0 " fill="#7E56C2"/>
<path class="legend" d="" fill="#7E56C2"/>
</g>
    <g transform="translate(512.0, 512.0) scale(1 1) "><!-- END OF HEADER -->
<rect style="opacity:1.0;fill:#FF00FF00;stroke:none" width="512.0" height="512.0" x="0.0" y="0.0"> </rect>
<path class="bond-0 atom-0 atom-1" d="M 255.0,151.9 L 354.3,209.2" style="fill:none;fill-rule:evenodd;stroke:#7E56C2;stroke-width:4.0px;stroke-linecap:butt;stroke-linejoin:miter;stroke-opacity:1"/>
<path class="bond-0 atom-0 atom-1" d="M 354.3,209.2 L 453.5,266.5" style="fill:none;fill-rule:evenodd;stroke:#FF0000;stroke-width:4.0px;stroke-linecap:butt;stroke-linejoin:miter;stroke-opacity:1"/>
<path class="bond-0 atom-0 atom-1" d="M 255.0,195.6 L 335.4,241.9" style="fill:none;fill-rule:evenodd;stroke:#7E56C2;stroke-width:4.0px;stroke-linecap:butt;stroke-linejoin:miter;stroke-opacity:1"/>
<path class="bond-0 atom-0 atom-1" d="M 335.4,241.9 L 434.6,299.2" style="fill:none;fill-rule:evenodd;stroke:#FF0000;stroke-width:4.0px;stroke-linecap:butt;stroke-linejoin:miter;stroke-opacity:1"/>
<path class="bond-1 atom-0 atom-2" d="M 255.0,151.9 L 36.8,277.9" style="fill:none;fill-rule:evenodd;stroke:#7E56C2;stroke-width:4.0px;stroke-linecap:butt;stroke-linejoin:miter;stroke-opacity:1"/>
<path d="M 260.0,154.8 L 255.0,151.9 L 244.1,158.2" style="fill:none;stroke:#7E56C2;stroke-width:4.0px;stroke-linecap:butt;stroke-linejoin:miter;stroke-opacity:1;"/>
<path class="atom-1" d="M 475.2 295.4 Q 475.2 299.6, 473.8 302.7 Q 472.4 305.8, 469.8 307.4 Q 467.3 309.1, 463.8 309.1 Q 460.5 309.1, 457.9 307.4 Q 455.3 305.8, 453.8 302.7 Q 452.4 299.7, 452.4 295.6 L 452.4 293.6 Q 452.4 289.5, 453.8 286.4 Q 455.2 283.2, 457.8 281.5 Q 460.4 279.9, 463.8 279.9 Q 467.2 279.9, 469.8 281.5 Q 472.4 283.2, 473.8 286.3 Q 475.2 289.4, 475.2 293.6 L 475.2 295.4 M 471.5 293.6 Q 471.5 288.5, 469.5 285.8 Q 467.4 283.1, 463.8 283.1 Q 460.2 283.1, 458.2 285.8 Q 456.2 288.5, 456.1 293.3 L 456.1 295.4 Q 456.1 300.3, 458.1 303.1 Q 460.2 305.9, 463.8 305.9 Q 467.5 305.9, 469.5 303.3 Q 471.4 300.6, 471.5 295.7 L 471.5 293.6 " fill="#FF0000"/>
<path class="legend" d="M 231.3 469.7 L 229.2 471.9 L 229.2 477.5 L 227.0 477.5 L 227.0 460.8 L 229.2 460.8 L 229.2 469.1 L 236.7 460.8 L 239.3 460.8 L 232.7 468.2 L 239.8 477.5 L 237.2 477.5 L 231.3 469.7 " fill="#7E56C2"/>
<path class="legend" d="M 246.5 477.7 Q 244.0 477.7, 242.4 476.1 Q 240.8 474.4, 240.8 471.6 L 240.8 471.2 Q 240.8 469.4, 241.5 468.0 Q 242.3 466.5, 243.5 465.7 Q 244.8 464.9, 246.3 464.9 Q 248.7 464.9, 250.0 466.5 Q 251.4 468.0, 251.4 471.0 L 251.4 471.9 L 243.0 471.9 Q 243.0 473.7, 244.0 474.9 Q 245.1 476.0, 246.6 476.0 Q 247.8 476.0, 248.5 475.5 Q 249.3 475.1, 249.9 474.3 L 251.2 475.3 Q 249.6 477.7, 246.5 477.7 M 246.3 466.6 Q 245.0 466.6, 244.1 467.5 Q 243.2 468.5, 243.0 470.2 L 249.2 470.2 L 249.2 470.0 Q 249.2 468.4, 248.4 467.5 Q 247.6 466.6, 246.3 466.6 " fill="#7E56C2"/>
<path class="legend" d="M 257.6 462.1 L 257.6 465.1 L 259.9 465.1 L 259.9 466.7 L 257.6 466.7 L 257.6 474.4 Q 257.6 475.2, 257.9 475.5 Q 258.2 475.9, 259.0 475.9 Q 259.4 475.9, 260.0 475.8 L 260.0 477.5 Q 259.2 477.7, 258.4 477.7 Q 256.9 477.7, 256.2 476.9 Q 255.5 476.0, 255.5 474.4 L 255.5 466.7 L 253.2 466.7 L 253.2 465.1 L 255.5 465.1 L 255.5 462.1 L 257.6 462.1 " fill="#7E56C2"/>
<path class="legend" d="M 261.8 471.2 Q 261.8 469.4, 262.5 467.9 Q 263.3 466.4, 264.5 465.7 Q 265.8 464.9, 267.5 464.9 Q 270.0 464.9, 271.6 466.6 Q 273.1 468.4, 273.1 471.3 L 273.1 471.4 Q 273.1 473.2, 272.4 474.7 Q 271.7 476.1, 270.4 476.9 Q 269.2 477.7, 267.5 477.7 Q 265.0 477.7, 263.4 476.0 Q 261.8 474.2, 261.8 471.3 L 261.8 471.2 M 264.0 471.4 Q 264.0 473.5, 264.9 474.7 Q 265.9 476.0, 267.5 476.0 Q 269.1 476.0, 270.1 474.7 Q 271.0 473.5, 271.0 471.2 Q 271.0 469.1, 270.0 467.9 Q 269.1 466.6, 267.5 466.6 Q 265.9 466.6, 264.9 467.9 Q 264.0 469.1, 264.0 471.4 " fill="#7E56C2"/>
<path class="legend" d="M 277.2 465.1 L 277.3 466.6 Q 278.7 464.9, 281.0 464.9 Q 284.9 464.9, 285.0 469.3 L 285.0 477.5 L 282.8 477.5 L 282.8 469.3 Q 282.8 467.9, 282.2 467.3 Q 281.6 466.7, 280.4 466.7 Q 279.3 466.7, 278.5 467.2 Q 277.8 467.8, 277.3 468.7 L 277.3 477.5 L 275.2 477.5 L 275.2 465.1 L 277.2 465.1 " fill="#7E56C2"/>
<path class="legend" d="" fill="#7E56C2"/>
<path class="legend" d="M 215.3 487.9 L 215.3 494.4 L 213.1 494.4 L 213.1 477.7 L 219.3 477.7 Q 222.0 477.7, 223.6 479.1 Q 225.1 480.5, 225.1 482.8 Q 225.1 485.3, 223.6 486.6 Q 222.1 487.9, 219.2 487.9 L 215.3 487.9 M 215.3 486.1 L 219.3 486.1 Q 221.0 486.1, 222.0 485.3 Q 222.9 484.4, 222.9 482.9 Q 222.9 481.4, 222.0 480.5 Q 221.0 479.6, 219.4 479.5 L 215.3 479.5 L 215.3 486.1 " fill="#7E56C2"/>
<path class="legend" d="M 232.9 483.9 Q 232.4 483.8, 231.8 483.8 Q 229.8 483.8, 229.0 485.6 L 229.0 494.4 L 226.9 494.4 L 226.9 482.0 L 229.0 482.0 L 229.0 483.5 Q 230.0 481.8, 231.9 481.8 Q 232.6 481.8, 232.9 481.9 L 232.9 483.9 " fill="#7E56C2"/>
<path class="legend" d="M 234.1 488.1 Q 234.1 486.3, 234.8 484.8 Q 235.6 483.4, 236.8 482.6 Q 238.1 481.8, 239.8 481.8 Q 242.3 481.8, 243.9 483.5 Q 245.4 485.3, 245.4 488.2 L 245.4 488.4 Q 245.4 490.2, 244.7 491.6 Q 244.0 493.1, 242.7 493.9 Q 241.5 494.7, 239.8 494.7 Q 237.3 494.7, 235.7 492.9 Q 234.1 491.1, 234.1 488.3 L 234.1 488.1 M 236.3 488.4 Q 236.3 490.4, 237.2 491.7 Q 238.2 492.9, 239.8 492.9 Q 241.4 492.9, 242.4 491.7 Q 243.3 490.4, 243.3 488.1 Q 243.3 486.1, 242.3 484.8 Q 241.4 483.5, 239.8 483.5 Q 238.2 483.5, 237.2 484.8 Q 236.3 486.0, 236.3 488.4 " fill="#7E56C2"/>
<path class="legend" d="M 257.9 488.4 Q 257.9 491.2, 256.6 492.9 Q 255.3 494.7, 253.1 494.7 Q 250.8 494.7, 249.5 493.2 L 249.5 499.2 L 247.4 499.2 L 247.4 482.0 L 249.3 482.0 L 249.4 483.4 Q 250.7 481.8, 253.0 481.8 Q 255.3 481.8, 256.6 483.5 Q 257.9 485.2, 257.9 488.2 L 257.9 488.4 M 255.7 488.1 Q 255.7 486.0, 254.8 484.8 Q 254.0 483.6, 252.4 483.6 Q 250.5 483.6, 249.5 485.3 L 249.5 491.2 Q 250.5 492.9, 252.4 492.9 Q 253.9 492.9, 254.8 491.7 Q 255.7 490.5, 255.7 488.1 " fill="#7E56C2"/>
<path class="legend" d="M 267.9 494.4 Q 267.7 494.1, 267.6 493.1 Q 266.1 494.7, 264.0 494.7 Q 262.2 494.7, 261.0 493.6 Q 259.9 492.6, 259.9 491.0 Q 259.9 489.0, 261.3 488.0 Q 262.8 486.9, 265.5 486.9 L 267.5 486.9 L 267.5 485.9 Q 267.5 484.8, 266.9 484.2 Q 266.2 483.5, 264.9 483.5 Q 263.8 483.5, 263.0 484.1 Q 262.2 484.6, 262.2 485.5 L 260.1 485.5 Q 260.1 484.5, 260.8 483.7 Q 261.4 482.8, 262.5 482.3 Q 263.7 481.8, 265.0 481.8 Q 267.2 481.8, 268.4 482.9 Q 269.6 483.9, 269.7 485.8 L 269.7 491.5 Q 269.7 493.2, 270.1 494.2 L 270.1 494.4 L 267.9 494.4 M 264.3 492.8 Q 265.3 492.8, 266.2 492.3 Q 267.1 491.8, 267.5 491.0 L 267.5 488.4 L 265.9 488.4 Q 262.0 488.4, 262.0 490.7 Q 262.0 491.7, 262.6 492.2 Q 263.3 492.8, 264.3 492.8 " fill="#7E56C2"/>
<path class="legend" d="M 274.3 482.0 L 274.4 483.6 Q 275.8 481.8, 278.1 481.8 Q 282.0 481.8, 282.0 486.2 L 282.0 494.4 L 279.9 494.4 L 279.9 486.2 Q 279.9 484.9, 279.3 484.2 Q 278.7 483.6, 277.4 483.6 Q 276.4 483.6, 275.6 484.1 Q 274.8 484.7, 274.4 485.6 L 274.4 494.4 L 272.3 494.4 L 272.3 482.0 L 274.3 482.0 " fill="#7E56C2"/>
<path class="legend" d="M 284.5 488.1 Q 284.5 486.3, 285.2 484.8 Q 286.0 483.4, 287.2 482.6 Q 288.5 481.8, 290.2 481.8 Q 292.7 481.8, 294.3 483.5 Q 295.8 485.3, 295.8 488.2 L 295.8 488.4 Q 295.8 490.2, 295.1 491.6 Q 294.4 493.1, 293.1 493.9 Q 291.9 494.7, 290.2 494.7 Q 287.7 494.7, 286.1 492.9 Q 284.5 491.1, 284.5 488.3 L 284.5 488.1 M 286.7 488.4 Q 286.7 490.4, 287.6 491.7 Q 288.6 492.9, 290.2 492.9 Q 291.8 492.9, 292.8 491.7 Q 293.7 490.4, 293.7 488.1 Q 293.7 486.1, 292.7 484.8 Q 291.8 483.5, 290.2 483.5 Q 288.6 483.5, 287.6 484.8 Q 286.7 486.0, 286.7 488.4 " fill="#7E56C2"/>
<path class="legend" d="M 299.8 482.0 L 299.9 483.6 Q 301.3 481.8, 303.6 481.8 Q 307.5 481.8, 307.5 486.2 L 307.5 494.4 L 305.4 494.4 L 305.4 486.2 Q 305.4 484.9, 304.8 484.2 Q 304.2 483.6, 302.9 483.6 Q 301.9 483.6, 301.1 484.1 Q 300.3 484.7, 299.9 485.6 L 299.9 494.4 L 297.8 494.4 L 297.8 482.0 L 299.8 482.0 " fill="#7E56C2"/>
</g>
    <g transform="translate(1024.0, 512.0) scale(1 1) "><!-- END OF HEADER -->
<rect style="opacity:1.0;fill:#FF00FF00;stroke:none" width="512.0" height="512.0" x="0.0" y="0.0"> </rect>
<path class="bond-0 atom-0 atom-1" d="M 56.9,386.4 L 237.1,282.3" style="fill:none;fill-rule:evenodd;stroke:#7E56C2;stroke-width:4.0px;stroke-linecap:butt;stroke-linejoin:miter;stroke-opacity:1"/>
<path class="bond-1 atom-1 atom-2" d="M 252.7,291.3 L 252.7,193.6" style="fill:none;fill-rule:evenodd;stroke:#7E56C2;stroke-width:4.0px;stroke-linecap:butt;stroke-linejoin:miter;stroke-opacity:1"/>
<path class="bond-1 atom-1 atom-2" d="M 252.7,193.6 L 252.7,95.9" style="fill:none;fill-rule:evenodd;stroke:#FF0000;stroke-width:4.0px;stroke-linecap:butt;stroke-linejoin:miter;stroke-opacity:1"/>
<path class="bond-1 atom-1 atom-2" d="M 221.5,291.3 L 221.5,193.6" style="fill:none;fill-rule:evenodd;stroke:#7E56C2;stroke-width:4.0px;stroke-linecap:butt;stroke-linejoin:miter;stroke-opacity:1"/>
<path class="bond-1 atom-1 atom-2" d="M 221.5,193.6 L 221.5,95.9" style="fill:none;fill-rule:evenodd;stroke:#FF0000;stroke-width:4.0px;stroke-linecap:butt;stroke-linejoin:miter;stroke-opacity:1"/>
<path class="bond-2 atom-1 atom-3" d="M 237.1,282.3 L 318.0,329.1" style="fill:none;fill-rule:evenodd;stroke:#7E56C2;stroke-width:4.0px;stroke-linecap:butt;stroke-linejoin:miter;stroke-opacity:1"/>
<path class="bond-2 atom-1 atom-3" d="M 318.0,329.1 L 399.0,375.8" style="fill:none;fill-rule:evenodd;stroke:#FF0000;stroke-width:4.0px;stroke-linecap:butt;stroke-linejoin:miter;stroke-opacity:1"/>
<path d="M 228.1,287.5 L 237.1,282.3 L 241.1,284.7" style="fill:none;stroke:#7E56C2;stroke-width:4.0px;stroke-linecap:butt;stroke-linejoin:miter;stroke-opacity:1;"/>
<path class="atom-2" d="M 248.5 75.3 Q 248.5 79.5, 247.1 82.7 Q 245.7 85.8, 243.1 87.4 Q 240.5 89.0, 237.1 89.0 Q 233.7 89.0, 231.1 87.4 Q 228.5 85.7, 227.1 82.7 Q 225.7 79.6, 225.6 75.6 L 225.6 73.5 Q 225.6 69.4, 227.1 66.3 Q 228.5 63.2, 231.1 61.5 Q 233.7 59.8, 237.1 59.8 Q 240.5 59.8, 243.1 61.5 Q 245.7 63.1, 247.1 66.3 Q 248.5 69.4, 248.5 73.5 L 248.5 75.3 M 244.8 73.5 Q 244.8 68.5, 242.7 65.8 Q 240.7 63.0, 237.1 63.0 Q 233.5 63.0, 231.5 65.8 Q 229.4 68.5, 229.4 73.3 L 229.4 75.3 Q 229.4 80.2, 231.4 83.1 Q 233.5 85.9, 237.1 85.9 Q 240.7 85.9, 242.7 83.2 Q 244.7 80.6, 244.8 75.6 L 244.8 73.5 " fill="#FF0000"/>
<path class="atom-3" d="M 428.7 387.5 Q 428.7 391.7, 427.3 394.8 Q 425.9 397.9, 423.3 399.5 Q 420.8 401.2, 417.3 401.2 Q 414.0 401.2, 411.4 399.5 Q 408.8 397.9, 407.3 394.8 Q 405.9 391.8, 405.9 387.7 L 405.9 385.7 Q 405.9 381.6, 407.3 378.4 Q 408.7 375.3, 411.3 373.6 Q 413.9 372.0, 417.3 372.0 Q 420.7 372.0, 423.3 373.6 Q 425.9 375.3, 427.3 378.4 Q 428.7 381.5, 428.7 385.7 L 428.7 387.5 M 425.0 385.7 Q 425.0 380.6, 423.0 377.9 Q 420.9 375.2, 417.3 375.2 Q 413.7 375.2, 411.7 377.9 Q 409.6 380.6, 409.6 385.4 L 409.6 387.5 Q 409.6 392.4, 411.6 395.2 Q 413.7 398.0, 417.3 398.0 Q 421.0 398.0, 422.9 395.4 Q 424.9 392.7, 425.0 387.8 L 425.0 385.7 " fill="#FF0000"/>
<path class="atom-3" d="M 455.1 400.8 L 451.4 400.8 L 451.4 387.6 L 437.0 387.6 L 437.0 400.8 L 433.3 400.8 L 433.3 372.4 L 437.0 372.4 L 437.0 384.6 L 451.4 384.6 L 451.4 372.4 L 455.1 372.4 L 455.1 400.8 " fill="#FF0000"/>
<path class="legend" d="M 184.9 474.3 Q 184.5 477.2, 182.7 478.8 Q 180.9 480.4, 177.9 480.4 Q 174.7 480.4, 172.7 478.0 Q 170.7 475.7, 170.7 471.8 L 170.7 470.1 Q 170.7 467.5, 171.7 465.6 Q 172.6 463.6, 174.2 462.6 Q 175.9 461.6, 178.1 461.6 Q 181.0 461.6, 182.8 463.2 Q 184.6 464.8, 184.9 467.7 L 182.4 467.7 Q 182.1 465.5, 181.1 464.5 Q 180.0 463.5, 178.1 463.5 Q 175.8 463.5, 174.5 465.3 Q 173.2 467.0, 173.2 470.1 L 173.2 471.9 Q 173.2 474.9, 174.4 476.6 Q 175.7 478.4, 177.9 478.4 Q 179.9 478.4, 181.0 477.5 Q 182.1 476.6, 182.4 474.3 L 184.9 474.3 " fill="#7E56C2"/>
<path class="legend" d="M 195.8 480.1 Q 195.6 479.7, 195.5 478.7 Q 193.9 480.4, 191.6 480.4 Q 189.6 480.4, 188.3 479.2 Q 187.0 478.1, 187.0 476.4 Q 187.0 474.2, 188.6 473.1 Q 190.3 471.9, 193.2 471.9 L 195.5 471.9 L 195.5 470.8 Q 195.5 469.6, 194.7 468.9 Q 194.0 468.1, 192.6 468.1 Q 191.3 468.1, 190.5 468.8 Q 189.7 469.4, 189.7 470.3 L 187.3 470.3 Q 187.3 469.3, 188.0 468.3 Q 188.8 467.4, 190.0 466.8 Q 191.2 466.3, 192.7 466.3 Q 195.1 466.3, 196.4 467.4 Q 197.7 468.6, 197.8 470.7 L 197.8 476.9 Q 197.8 478.8, 198.3 479.9 L 198.3 480.1 L 195.8 480.1 M 192.0 478.4 Q 193.1 478.4, 194.0 477.8 Q 195.0 477.2, 195.5 476.3 L 195.5 473.5 L 193.6 473.5 Q 189.4 473.5, 189.4 476.0 Q 189.4 477.1, 190.1 477.7 Q 190.8 478.4, 192.0 478.4 " fill="#7E56C2"/>
<path class="legend" d="M 207.3 468.6 Q 206.7 468.5, 206.1 468.5 Q 203.8 468.5, 203.0 470.5 L 203.0 480.1 L 200.7 480.1 L 200.7 466.5 L 203.0 466.5 L 203.0 468.1 Q 204.1 466.3, 206.2 466.3 Q 206.9 466.3, 207.3 466.4 L 207.3 468.6 " fill="#7E56C2"/>
<path class="legend" d="M 220.2 473.5 Q 220.2 476.6, 218.8 478.5 Q 217.3 480.4, 214.9 480.4 Q 212.3 480.4, 210.9 478.6 L 210.8 480.1 L 208.7 480.1 L 208.7 460.8 L 211.0 460.8 L 211.0 468.0 Q 212.4 466.3, 214.9 466.3 Q 217.4 466.3, 218.8 468.1 Q 220.2 470.0, 220.2 473.3 L 220.2 473.5 M 217.9 473.2 Q 217.9 470.8, 216.9 469.5 Q 216.0 468.2, 214.3 468.2 Q 212.0 468.2, 211.0 470.4 L 211.0 476.3 Q 212.1 478.4, 214.3 478.4 Q 216.0 478.4, 216.9 477.1 Q 217.9 475.8, 217.9 473.2 " fill="#7E56C2"/>
<path class="legend" d="M 222.4 473.2 Q 222.4 471.2, 223.2 469.6 Q 223.9 468.0, 225.3 467.1 Q 226.7 466.3, 228.5 466.3 Q 231.3 466.3, 233.0 468.2 Q 234.8 470.1, 234.8 473.3 L 234.8 473.5 Q 234.8 475.5, 234.0 477.0 Q 233.2 478.6, 231.8 479.5 Q 230.4 480.4, 228.6 480.4 Q 225.8 480.4, 224.1 478.5 Q 222.4 476.5, 222.4 473.4 L 222.4 473.2 M 224.7 473.5 Q 224.7 475.7, 225.8 477.1 Q 226.8 478.5, 228.6 478.5 Q 230.3 478.5, 231.4 477.1 Q 232.4 475.7, 232.4 473.2 Q 232.4 471.0, 231.4 469.6 Q 230.3 468.2, 228.5 468.2 Q 226.8 468.2, 225.8 469.5 Q 224.7 470.9, 224.7 473.5 " fill="#7E56C2"/>
<path class="legend" d="M 239.1 466.5 L 239.2 468.2 Q 240.8 466.3, 243.3 466.3 Q 247.6 466.3, 247.6 471.1 L 247.6 480.1 L 245.3 480.1 L 245.3 471.1 Q 245.3 469.6, 244.6 468.9 Q 244.0 468.2, 242.6 468.2 Q 241.5 468.2, 240.6 468.8 Q 239.7 469.4, 239.3 470.4 L 239.3 480.1 L 236.9 480.1 L 236.9 466.5 L 239.1 466.5 " fill="#7E56C2"/>
<path class="legend" d="M 258.9 476.5 Q 258.9 475.6, 258.2 475.1 Q 257.5 474.5, 255.7 474.1 Q 253.9 473.8, 252.9 473.2 Q 251.9 472.7, 251.4 472.0 Q 250.9 471.3, 250.9 470.2 Q 250.9 468.6, 252.3 467.4 Q 253.7 466.3, 255.9 466.3 Q 258.2 466.3, 259.7 467.5 Q 261.1 468.7, 261.1 470.5 L 258.8 470.5 Q 258.8 469.6, 257.9 468.9 Q 257.1 468.2, 255.9 468.2 Q 254.6 468.2, 253.9 468.7 Q 253.2 469.3, 253.2 470.2 Q 253.2 471.0, 253.9 471.4 Q 254.5 471.9, 256.3 472.3 Q 258.0 472.7, 259.1 473.2 Q 260.2 473.7, 260.7 474.5 Q 261.2 475.3, 261.2 476.4 Q 261.2 478.2, 259.8 479.3 Q 258.3 480.4, 256.0 480.4 Q 254.3 480.4, 253.1 479.8 Q 251.8 479.2, 251.1 478.2 Q 250.4 477.1, 250.4 475.9 L 252.7 475.9 Q 252.8 477.1, 253.7 477.8 Q 254.5 478.5, 256.0 478.5 Q 257.3 478.5, 258.1 477.9 Q 258.9 477.4, 258.9 476.5 " fill="#7E56C2"/>
<path class="legend" d="M 272.4 480.1 L 263.5 480.1 L 263.5 461.8 L 272.4 461.8 L 272.4 480.1 M 271.7 479.1 L 271.7 462.9 L 268.3 471.0 L 271.7 479.1 M 264.2 463.0 L 264.2 478.9 L 267.6 471.0 L 264.2 463.0 M 264.7 479.4 L 271.2 479.4 L 267.9 471.8 L 264.7 479.4 M 267.9 470.1 L 271.2 462.5 L 264.7 462.5 L 267.9 470.1 " fill="#7E56C2"/>
<path class="legend" d="M 283.6 480.1 L 274.7 480.1 L 274.7 461.8 L 283.6 461.8 L 283.6 480.1 M 282.9 479.1 L 282.9 462.9 L 279.5 471.0 L 282.9 479.1 M 275.4 463.0 L 275.4 478.9 L 278.7 471.0 L 275.4 463.0 M 275.9 479.4 L 282.4 479.4 L 279.1 471.8 L 275.9 479.4 M 279.1 470.1 L 282.4 462.5 L 275.9 462.5 L 279.1 470.1 " fill="#7E56C2"/>
<path class="legend" d="M 294.8 480.1 L 285.9 480.1 L 285.9 461.8 L 294.8 461.8 L 294.8 480.1 M 294.1 479.1 L 294.1 462.9 L 290.6 471.0 L 294.1 479.1 M 286.5 463.0 L 286.5 478.9 L 289.9 471.0 L 286.5 463.0 M 287.0 479.4 L 293.5 479.4 L 290.3 471.8 L 287.0 479.4 M 290.3 470.1 L 293.5 462.5 L 287.0 462.5 L 290.3 470.1 " fill="#7E56C2"/>
<path class="legend" d="M 306.0 480.1 L 297.0 480.1 L 297.0 461.8 L 306.0 461.8 L 306.0 480.1 M 305.3 479.1 L 305.3 462.9 L 301.8 471.0 L 305.3 479.1 M 297.7 463.0 L 297.7 478.9 L 301.1 471.0 L 297.7 463.0 M 298.2 479.4 L 304.7 479.4 L 301.5 471.8 L 298.2 479.4 M 301.5 470.1 L 304.7 462.5 L 298.2 462.5 L 301.5 470.1 " fill="#7E56C2"/>
<path class="legend" d="M 316.7 478.8 Q 315.3 480.4, 312.7 480.4 Q 310.5 480.4, 309.4 479.1 Q 308.2 477.8, 308.2 475.4 L 308.2 466.5 L 310.6 466.5 L 310.6 475.3 Q 310.6 478.4, 313.1 478.4 Q 315.7 478.4, 316.6 476.4 L 316.6 466.5 L 318.9 466.5 L 318.9 480.1 L 316.7 480.1 L 316.7 478.8 " fill="#7E56C2"/>
<path class="legend" d="M 328.3 468.6 Q 327.8 468.5, 327.2 468.5 Q 324.9 468.5, 324.1 470.5 L 324.1 480.1 L 321.7 480.1 L 321.7 466.5 L 324.0 466.5 L 324.0 468.1 Q 325.2 466.3, 327.3 466.3 Q 328.0 466.3, 328.3 466.4 L 328.3 468.6 " fill="#7E56C2"/>
<path class="legend" d="M 335.9 480.4 Q 333.2 480.4, 331.4 478.6 Q 329.7 476.7, 329.7 473.7 L 329.7 473.3 Q 329.7 471.2, 330.5 469.7 Q 331.3 468.1, 332.6 467.2 Q 334.0 466.3, 335.7 466.3 Q 338.3 466.3, 339.8 468.0 Q 341.3 469.8, 341.3 473.0 L 341.3 474.0 L 332.0 474.0 Q 332.1 476.0, 333.2 477.2 Q 334.3 478.5, 336.1 478.5 Q 337.3 478.5, 338.2 478.0 Q 339.0 477.5, 339.7 476.6 L 341.1 477.7 Q 339.4 480.4, 335.9 480.4 M 335.7 468.2 Q 334.2 468.2, 333.3 469.2 Q 332.3 470.2, 332.1 472.1 L 338.9 472.1 L 338.9 471.9 Q 338.8 470.1, 338.0 469.2 Q 337.1 468.2, 335.7 468.2 " fill="#7E56C2"/>
<path class="legend" d="" fill="#7E56C2"/>
<path class="legend" d="M 186.7 494.2 L 179.0 494.2 L 177.3 498.9 L 174.8 498.9 L 181.8 480.6 L 183.9 480.6 L 190.9 498.9 L 188.4 498.9 L 186.7 494.2 M 179.7 492.2 L 186.0 492.2 L 182.9 483.6 L 179.7 492.2 " fill="#7E56C2"/>
<path class="legend" d="M 194.5 485.3 L 194.6 486.8 Q 196.1 485.1, 198.6 485.1 Q 201.5 485.1, 202.5 487.3 Q 203.2 486.3, 204.3 485.7 Q 205.3 485.1, 206.8 485.1 Q 211.3 485.1, 211.4 489.8 L 211.4 498.9 L 209.1 498.9 L 209.1 490.0 Q 209.1 488.5, 208.4 487.8 Q 207.7 487.1, 206.1 487.1 Q 204.9 487.1, 204.0 487.8 Q 203.1 488.6, 203.0 489.9 L 203.0 498.9 L 200.7 498.9 L 200.7 490.0 Q 200.7 487.1, 197.8 487.1 Q 195.5 487.1, 194.6 489.0 L 194.6 498.9 L 192.3 498.9 L 192.3 485.3 L 194.5 485.3 " fill="#7E56C2"/>
<path class="legend" d="M 220.4 499.2 Q 217.6 499.2, 215.9 497.4 Q 214.2 495.6, 214.2 492.5 L 214.2 492.1 Q 214.2 490.1, 214.9 488.5 Q 215.7 486.9, 217.1 486.0 Q 218.5 485.1, 220.1 485.1 Q 222.8 485.1, 224.2 486.8 Q 225.7 488.6, 225.7 491.8 L 225.7 492.8 L 216.5 492.8 Q 216.5 494.8, 217.7 496.1 Q 218.8 497.3, 220.5 497.3 Q 221.8 497.3, 222.6 496.8 Q 223.5 496.3, 224.1 495.5 L 225.5 496.6 Q 223.8 499.2, 220.4 499.2 M 220.1 487.0 Q 218.7 487.0, 217.8 488.0 Q 216.8 489.0, 216.6 490.9 L 223.4 490.9 L 223.4 490.7 Q 223.3 488.9, 222.4 488.0 Q 221.6 487.0, 220.1 487.0 " fill="#7E56C2"/>
<path class="legend" d="M 230.2 498.9 L 227.9 498.9 L 227.9 485.3 L 230.2 485.3 L 230.2 498.9 M 227.7 481.7 Q 227.7 481.2, 228.0 480.8 Q 228.4 480.4, 229.1 480.4 Q 229.7 480.4, 230.1 480.8 Q 230.4 481.2, 230.4 481.7 Q 230.4 482.3, 230.1 482.7 Q 229.7 483.0, 229.1 483.0 Q 228.4 483.0, 228.0 482.7 Q 227.7 482.3, 227.7 481.7 " fill="#7E56C2"/>
<path class="legend" d="M 241.7 495.3 Q 241.7 494.4, 241.0 493.9 Q 240.3 493.3, 238.5 493.0 Q 236.7 492.6, 235.7 492.1 Q 234.7 491.5, 234.2 490.8 Q 233.7 490.1, 233.7 489.1 Q 233.7 487.4, 235.1 486.2 Q 236.5 485.1, 238.7 485.1 Q 241.0 485.1, 242.4 486.3 Q 243.9 487.5, 243.9 489.3 L 241.6 489.3 Q 241.6 488.4, 240.7 487.7 Q 239.9 487.0, 238.7 487.0 Q 237.4 487.0, 236.7 487.5 Q 236.0 488.1, 236.0 489.0 Q 236.0 489.8, 236.7 490.3 Q 237.3 490.7, 239.1 491.1 Q 240.8 491.5, 241.9 492.0 Q 243.0 492.6, 243.5 493.3 Q 244.0 494.1, 244.0 495.2 Q 244.0 497.0, 242.6 498.1 Q 241.1 499.2, 238.8 499.2 Q 237.1 499.2, 235.9 498.6 Q 234.6 498.0, 233.9 497.0 Q 233.2 496.0, 233.2 494.8 L 235.5 494.8 Q 235.6 495.9, 236.5 496.6 Q 237.3 497.3, 238.8 497.3 Q 240.1 497.3, 240.9 496.8 Q 241.7 496.2, 241.7 495.3 " fill="#7E56C2"/>
<path class="legend" d="M 252.6 499.2 Q 249.8 499.2, 248.1 497.4 Q 246.3 495.6, 246.3 492.5 L 246.3 492.1 Q 246.3 490.1, 247.1 488.5 Q 247.9 486.9, 249.3 486.0 Q 250.7 485.1, 252.3 485.1 Q 254.9 485.1, 256.4 486.8 Q 257.9 488.6, 257.9 491.8 L 257.9 492.8 L 248.7 492.8 Q 248.7 494.8, 249.8 496.1 Q 251.0 497.3, 252.7 497.3 Q 253.9 497.3, 254.8 496.8 Q 255.6 496.3, 256.3 495.5 L 257.7 496.6 Q 256.0 499.2, 252.6 499.2 M 252.3 487.0 Q 250.9 487.0, 249.9 488.0 Q 249.0 489.0, 248.7 490.9 L 255.6 490.9 L 255.6 490.7 Q 255.5 488.9, 254.6 488.0 Q 253.7 487.0, 252.3 487.0 " fill="#7E56C2"/>
<path class="legend" d="M 262.0 485.3 L 262.1 487.0 Q 263.7 485.1, 266.2 485.1 Q 270.5 485.1, 270.6 490.0 L 270.6 498.9 L 268.2 498.9 L 268.2 489.9 Q 268.2 488.5, 267.5 487.8 Q 266.9 487.1, 265.5 487.1 Q 264.4 487.1, 263.5 487.7 Q 262.7 488.3, 262.2 489.2 L 262.2 498.9 L 259.8 498.9 L 259.8 485.3 L 262.0 485.3 " fill="#7E56C2"/>
<path class="legend" d="M 281.8 495.3 Q 281.8 494.4, 281.1 493.9 Q 280.4 493.3, 278.6 493.0 Q 276.9 492.6, 275.8 492.1 Q 274.8 491.5, 274.3 490.8 Q 273.8 490.1, 273.8 489.1 Q 273.8 487.4, 275.2 486.2 Q 276.6 485.1, 278.8 485.1 Q 281.2 485.1, 282.6 486.3 Q 284.0 487.5, 284.0 489.3 L 281.7 489.3 Q 281.7 488.4, 280.9 487.7 Q 280.1 487.0, 278.8 487.0 Q 277.6 487.0, 276.8 487.5 Q 276.1 488.1, 276.1 489.0 Q 276.1 489.8, 276.8 490.3 Q 277.5 490.7, 279.2 491.1 Q 281.0 491.5, 282.0 492.0 Q 283.1 492.6, 283.6 493.3 Q 284.2 494.1, 284.2 495.2 Q 284.2 497.0, 282.7 498.1 Q 281.2 499.2, 278.9 499.2 Q 277.3 499.2, 276.0 498.6 Q 274.8 498.0, 274.0 497.0 Q 273.3 496.0, 273.3 494.8 L 275.7 494.8 Q 275.7 495.9, 276.6 496.6 Q 277.5 497.3, 278.9 497.3 Q 280.2 497.3, 281.0 496.8 Q 281.8 496.2, 281.8 495.3 " fill="#7E56C2"/>
<path class="legend" d="M 295.3 498.9 Q 295.1 498.5, 294.9 497.5 Q 293.3 499.2, 291.1 499.2 Q 289.0 499.2, 287.7 498.1 Q 286.5 496.9, 286.5 495.2 Q 286.5 493.0, 288.1 491.9 Q 289.7 490.7, 292.6 490.7 L 294.9 490.7 L 294.9 489.6 Q 294.9 488.4, 294.2 487.7 Q 293.4 487.0, 292.0 487.0 Q 290.8 487.0, 289.9 487.6 Q 289.1 488.2, 289.1 489.1 L 286.7 489.1 Q 286.7 488.1, 287.5 487.1 Q 288.2 486.2, 289.4 485.6 Q 290.7 485.1, 292.2 485.1 Q 294.5 485.1, 295.8 486.3 Q 297.2 487.4, 297.2 489.5 L 297.2 495.8 Q 297.2 497.6, 297.7 498.7 L 297.7 498.9 L 295.3 498.9 M 291.4 497.2 Q 292.5 497.2, 293.5 496.6 Q 294.5 496.0, 294.9 495.1 L 294.9 492.3 L 293.1 492.3 Q 288.8 492.3, 288.8 494.8 Q 288.8 495.9, 289.5 496.6 Q 290.3 497.2, 291.4 497.2 " fill="#7E56C2"/>
<path class="legend" d="M 306.4 499.2 Q 303.6 499.2, 301.9 497.4 Q 300.1 495.6, 300.1 492.5 L 300.1 492.1 Q 300.1 490.1, 300.9 488.5 Q 301.7 486.9, 303.1 486.0 Q 304.5 485.1, 306.1 485.1 Q 308.8 485.1, 310.2 486.8 Q 311.7 488.6, 311.7 491.8 L 311.7 492.8 L 302.5 492.8 Q 302.5 494.8, 303.6 496.1 Q 304.8 497.3, 306.5 497.3 Q 307.7 497.3, 308.6 496.8 Q 309.5 496.3, 310.1 495.5 L 311.5 496.6 Q 309.8 499.2, 306.4 499.2 M 306.1 487.0 Q 304.7 487.0, 303.7 488.0 Q 302.8 489.0, 302.5 490.9 L 309.4 490.9 L 309.4 490.7 Q 309.3 488.9, 308.4 488.0 Q 307.6 487.0, 306.1 487.0 " fill="#7E56C2"/>
<path class="legend" d="M 322.1 497.6 Q 320.8 499.2, 318.1 499.2 Q 316.0 499.2, 314.8 497.9 Q 313.7 496.7, 313.7 494.2 L 313.7 485.3 L 316.0 485.3 L 316.0 494.1 Q 316.0 497.2, 318.5 497.2 Q 321.2 497.2, 322.1 495.2 L 322.1 485.3 L 324.4 485.3 L 324.4 498.9 L 322.2 498.9 L 322.1 497.6 " fill="#7E56C2"/>
<path class="legend" d="M 333.8 487.4 Q 333.2 487.3, 332.6 487.3 Q 330.3 487.3, 329.5 489.3 L 329.5 498.9 L 327.2 498.9 L 327.2 485.3 L 329.5 485.3 L 329.5 486.9 Q 330.6 485.1, 332.7 485.1 Q 333.4 485.1, 333.8 485.3 L 333.8 487.4 " fill="#7E56C2"/>
<path class="legend" d="M 341.4 499.2 Q 338.7 499.2, 336.9 497.4 Q 335.2 495.6, 335.2 492.5 L 335.2 492.1 Q 335.2 490.1, 336.0 488.5 Q 336.7 486.9, 338.1 486.0 Q 339.5 485.1, 341.1 485.1 Q 343.8 485.1, 345.3 486.8 Q 346.7 488.6, 346.7 491.8 L 346.7 492.8 L 337.5 492.8 Q 337.6 494.8, 338.7 496.1 Q 339.8 497.3, 341.6 497.3 Q 342.8 497.3, 343.6 496.8 Q 344.5 496.3, 345.1 495.5 L 346.6 496.6 Q 344.9 499.2, 341.4 499.2 M 341.1 487.0 Q 339.7 487.0, 338.8 488.0 Q 337.8 489.0, 337.6 490.9 L 344.4 490.9 L 344.4 490.7 Q 344.3 488.9, 343.5 488.0 Q 342.6 487.0, 341.1 487.0 " fill="#7E56C2"/>
</g>
  </g>
</svg>
