<?xml version='1.0' encoding='ASCII' standalone='yes'?>
<svg xmlns="http://www.w3.org/2000/svg" xmlns:xlink="http://www.w3.org/1999/xlink" version="1.1" width="1024.0px" viewBox="0 0 1024.0 512.0" height="512.0px">
  <g>
    <g transform="translate(0.0, 0.0) scale(1 1) "><!-- END OF HEADER -->
<rect style="opacity:1.0;fill:#FF00FF00;stroke:none" width="512.0" height="512.0" x="0.0" y="0.0"> </rect>
<path class="bond-0 atom-0 atom-1" d="M 488.7,230.5 L 372.4,432.0" style="fill:none;fill-rule:evenodd;stroke:#7E56C2;stroke-width:4.0px;stroke-linecap:butt;stroke-linejoin:miter;stroke-opacity:1"/>
<path class="bond-0 atom-0 atom-1" d="M 448.4,230.5 L 352.2,397.1" style="fill:none;fill-rule:evenodd;stroke:#7E56C2;stroke-width:4.0px;stroke-linecap:butt;stroke-linejoin:miter;stroke-opacity:1"/>
<path class="bond-1 atom-1 atom-2" d="M 372.4,432.0 L 139.6,432.0" style="fill:none;fill-rule:evenodd;stroke:#7E56C2;stroke-width:4.0px;stroke-linecap:butt;stroke-linejoin:miter;stroke-opacity:1"/>
<path class="bond-2 atom-2 atom-3" d="M 139.6,432.0 L 23.3,230.5" style="fill:none;fill-rule:evenodd;stroke:#7E56C2;stroke-width:4.0px;stroke-linecap:butt;stroke-linejoin:miter;stroke-opacity:1"/>
<path class="bond-2 atom-2 atom-3" d="M 159.8,397.1 L 63.6,230.5" style="fill:none;fill-rule:evenodd;stroke:#7E56C2;stroke-width:4.0px;stroke-linecap:butt;stroke-linejoin:miter;stroke-opacity:1"/>
<path class="bond-3 atom-3 atom-4" d="M 23.3,230.5 L 139.6,29.0" style="fill:none;fill-rule:evenodd;stroke:#7E56C2;stroke-width:4.0px;stroke-linecap:butt;stroke-linejoin:miter;stroke-opacity:1"/>
<path class="bond-4 atom-4 atom-5" d="M 139.6,29.0 L 372.4,29.0" style="fill:none;fill-rule:evenodd;stroke:#7E56C2;stroke-width:4.0px;stroke-linecap:butt;stroke-linejoin:miter;stroke-opacity:1"/>
<path class="bond-4 atom-4 atom-5" d="M 159.8,63.9 L 352.2,63.9" style="fill:none;fill-rule:evenodd;stroke:#7E56C2;stroke-width:4.0px;stroke-linecap:butt;stroke-linejoin:miter;stroke-opacity:1"/>
<path class="bond-5 atom-5 atom-0" d="M 372.4,29.0 L 488.7,230.5" style="fill:none;fill-rule:evenodd;stroke:#7E56C2;stroke-width:4.0px;stroke-linecap:butt;stroke-linejoin:miter;stroke-opacity:1"/>
<path d="M 482.9,240.6 L 488.7,230.5 L 482.9,220.4" style="fill:none;stroke:#7E56C2;stroke-width:4.0px;stroke-linecap:butt;stroke-linejoin:miter;stroke-opacity:1;"/>
<path d="M 378.2,422.0 L 372.4,432.0 L 360.7,432.0" style="fill:none;stroke:#7E56C2;stroke-width:4.0px;stroke-linecap:butt;stroke-linejoin:miter;stroke-opacity:1;"/>
<path d="M 151.3,432.0 L 139.6,432.0 L 133.8,422.0" style="fill:none;stroke:#7E56C2;stroke-width:4.0px;stroke-linecap:butt;stroke-linejoin:miter;stroke-opacity:1;"/>
<path d="M 29.1,240.6 L 23.3,230.5 L 29.1,220.4" style="fill:none;stroke:#7E56C2;stroke-width:4.0px;stroke-linecap:butt;stroke-linejoin:miter;stroke-opacity:1;"/>
<path d="M 133.8,39.0 L 139.6,29.0 L 151.3,29.0" style="fill:none;stroke:#7E56C2;stroke-width:4.0px;stroke-linecap:butt;stroke-linejoin:miter;stroke-opacity:1;"/>
<path d="M 360.7,29.0 L 372.4,29.0 L 378.2,39.0" style="fill:none;stroke:#7E56C2;stroke-width:4.0px;stroke-linecap:butt;stroke-linejoin:miter;stroke-opacity:1;"/>
<path class="legend" d="M 203.7 498.9 L 203.7 477.6 L 210.7 477.6 Q 214.2 477.6, 215.9 479.0 Q 217.7 480.4, 217.7 483.3 Q 217.7 484.8, 216.8 485.9 Q 216.0 487.1, 214.5 487.7 Q 216.2 488.2, 217.2 489.5 Q 218.3 490.9, 218.3 492.8 Q 218.3 495.6, 216.4 497.3 Q 214.5 498.9, 211.1 498.9 L 203.7 498.9 M 206.5 488.9 L 206.5 496.6 L 211.2 496.6 Q 213.2 496.6, 214.3 495.6 Q 215.4 494.6, 215.4 492.8 Q 215.4 488.9, 211.2 488.9 L 206.5 488.9 M 206.5 486.7 L 210.8 486.7 Q 212.6 486.7, 213.7 485.8 Q 214.9 484.8, 214.9 483.2 Q 214.9 481.5, 213.8 480.7 Q 212.8 479.9, 210.7 479.9 L 206.5 479.9 L 206.5 486.7 " fill="#7E56C2"/>
<path class="legend" d="M 228.2 499.2 Q 225.0 499.2, 222.9 497.1 Q 220.9 495.0, 220.9 491.4 L 220.9 490.9 Q 220.9 488.6, 221.8 486.7 Q 222.7 484.9, 224.3 483.8 Q 226.0 482.8, 227.8 482.8 Q 230.9 482.8, 232.6 484.8 Q 234.4 486.8, 234.4 490.6 L 234.4 491.8 L 223.6 491.8 Q 223.7 494.1, 225.0 495.6 Q 226.3 497.0, 228.3 497.0 Q 229.8 497.0, 230.8 496.4 Q 231.8 495.8, 232.5 494.8 L 234.2 496.1 Q 232.2 499.2, 228.2 499.2 M 227.8 485.0 Q 226.2 485.0, 225.1 486.2 Q 224.0 487.4, 223.7 489.5 L 231.7 489.5 L 231.7 489.3 Q 231.5 487.3, 230.5 486.1 Q 229.5 485.0, 227.8 485.0 " fill="#7E56C2"/>
<path class="legend" d="M 239.0 483.1 L 239.1 485.0 Q 240.9 482.8, 243.8 482.8 Q 248.8 482.8, 248.9 488.4 L 248.9 498.9 L 246.2 498.9 L 246.2 488.4 Q 246.2 486.7, 245.4 485.9 Q 244.6 485.1, 243.0 485.1 Q 241.7 485.1, 240.7 485.8 Q 239.7 486.5, 239.1 487.6 L 239.1 498.9 L 236.4 498.9 L 236.4 483.1 L 239.0 483.1 " fill="#7E56C2"/>
<path class="legend" d="M 255.2 496.7 L 264.5 496.7 L 264.5 498.9 L 251.9 498.9 L 251.9 496.9 L 260.7 485.3 L 252.0 485.3 L 252.0 483.1 L 264.1 483.1 L 264.1 485.0 L 255.2 496.7 " fill="#7E56C2"/>
<path class="legend" d="M 266.5 490.8 Q 266.5 488.5, 267.4 486.6 Q 268.3 484.8, 269.9 483.8 Q 271.6 482.8, 273.7 482.8 Q 276.9 482.8, 278.9 485.0 Q 280.9 487.2, 280.9 491.0 L 280.9 491.2 Q 280.9 493.5, 280.0 495.3 Q 279.1 497.1, 277.5 498.2 Q 275.8 499.2, 273.7 499.2 Q 270.5 499.2, 268.5 497.0 Q 266.5 494.7, 266.5 491.0 L 266.5 490.8 M 269.2 491.2 Q 269.2 493.8, 270.4 495.4 Q 271.6 497.0, 273.7 497.0 Q 275.8 497.0, 277.0 495.4 Q 278.2 493.8, 278.2 490.8 Q 278.2 488.2, 276.9 486.6 Q 275.7 485.0, 273.7 485.0 Q 271.7 485.0, 270.4 486.6 Q 269.2 488.2, 269.2 491.2 " fill="#7E56C2"/>
<path class="legend" d="M 285.9 498.9 L 283.2 498.9 L 283.2 476.4 L 285.9 476.4 L 285.9 498.9 " fill="#7E56C2"/>
<path class="legend" d="" fill="#7E56C2"/>
<path class="legend" d="M 308.3 498.9 L 305.5 498.9 L 305.5 480.8 L 300.1 482.9 L 300.1 480.4 L 307.8 477.5 L 308.3 477.5 L 308.3 498.9 " fill="#7E56C2"/>
</g>
    <g transform="translate(512.0, 0.0) scale(1 1) "><!-- END OF HEADER -->
<rect style="opacity:1.0;fill:#FF00FF00;stroke:none" width="512.0" height="512.0" x="0.0" y="0.0"> </rect>
<path class="bond-0 atom-0 atom-1" d="M 488.7,230.5 L 372.4,432.0" style="fill:none;fill-rule:evenodd;stroke:#7E56C2;stroke-width:4.0px;stroke-linecap:butt;stroke-linejoin:miter;stroke-opacity:1"/>
<path class="bond-1 atom-1 atom-2" d="M 372.4,432.0 L 139.6,432.0" style="fill:none;fill-rule:evenodd;stroke:#7E56C2;stroke-width:4.0px;stroke-linecap:butt;stroke-linejoin:miter;stroke-opacity:1"/>
<path class="bond-1 atom-1 atom-2" d="M 352.2,397.1 L 159.8,397.1" style="fill:none;fill-rule:evenodd;stroke:#7E56C2;stroke-width:4.0px;stroke-linecap:butt;stroke-linejoin:miter;stroke-opacity:1"/>
<path class="bond-2 atom-2 atom-3" d="M 139.6,432.0 L 23.3,230.5" style="fill:none;fill-rule:evenodd;stroke:#7E56C2;stroke-width:4.0px;stroke-linecap:butt;stroke-linejoin:miter;stroke-opacity:1"/>
<path class="bond-3 atom-3 atom-4" d="M 23.3,230.5 L 139.6,29.0" style="fill:none;fill-rule:evenodd;stroke:#7E56C2;stroke-width:4.0px;stroke-linecap:butt;stroke-linejoin:miter;stroke-opacity:1"/>
<path class="bond-3 atom-3 atom-4" d="M 63.6,230.5 L 159.8,63.9" style="fill:none;fill-rule:evenodd;stroke:#7E56C2;stroke-width:4.0px;stroke-linecap:butt;stroke-linejoin:miter;stroke-opacity:1"/>
<path class="bond-4 atom-4 atom-5" d="M 139.6,29.0 L 372.4,29.0" style="fill:none;fill-rule:evenodd;stroke:#7E56C2;stroke-width:4.0px;stroke-linecap:butt;stroke-linejoin:miter;stroke-opacity:1"/>
<path class="bond-5 atom-5 atom-0" d="M 372.4,29.0 L 488.7,230.5" style="fill:none;fill-rule:evenodd;stroke:#7E56C2;stroke-width:4.0px;stroke-linecap:butt;stroke-linejoin:miter;stroke-opacity:1"/>
<path class="bond-5 atom-5 atom-0" d="M 352.2,63.9 L 448.4,230.5" style="fill:none;fill-rule:evenodd;stroke:#7E56C2;stroke-width:4.0px;stroke-linecap:butt;stroke-linejoin:miter;stroke-opacity:1"/>
<path d="M 482.9,240.6 L 488.7,230.5 L 482.9,220.4" style="fill:none;stroke:#7E56C2;stroke-width:4.0px;stroke-linecap:butt;stroke-linejoin:miter;stroke-opacity:1;"/>
<path d="M 378.2,422.0 L 372.4,432.0 L 360.7,432.0" style="fill:none;stroke:#7E56C2;stroke-width:4.0px;stroke-linecap:butt;stroke-linejoin:miter;stroke-opacity:1;"/>
<path d="M 151.3,432.0 L 139.6,432.0 L 133.8,422.0" style="fill:none;stroke:#7E56C2;stroke-width:4.0px;stroke-linecap:butt;stroke-linejoin:miter;stroke-opacity:1;"/>
<path d="M 29.1,240.6 L 23.3,230.5 L 29.1,220.4" style="fill:none;stroke:#7E56C2;stroke-width:4.0px;stroke-linecap:butt;stroke-linejoin:miter;stroke-opacity:1;"/>
<path d="M 133.8,39.0 L 139.6,29.0 L 151.3,29.0" style="fill:none;stroke:#7E56C2;stroke-width:4.0px;stroke-linecap:butt;stroke-linejoin:miter;stroke-opacity:1;"/>
<path d="M 360.7,29.0 L 372.4,29.0 L 378.2,39.0" style="fill:none;stroke:#7E56C2;stroke-width:4.0px;stroke-linecap:butt;stroke-linejoin:miter;stroke-opacity:1;"/>
<path class="legend" d="M 263.2 499.2 L 249.2 499.2 L 249.2 497.3 L 256.6 489.0 Q 258.2 487.2, 258.9 486.0 Q 259.5 484.9, 259.5 483.6 Q 259.5 481.9, 258.5 480.9 Q 257.5 479.8, 255.8 479.8 Q 253.8 479.8, 252.6 481.0 Q 251.5 482.1, 251.5 484.2 L 248.8 484.2 Q 248.8 481.2, 250.7 479.4 Q 252.6 477.6, 255.8 477.6 Q 258.8 477.6, 260.5 479.1 Q 262.2 480.7, 262.2 483.3 Q 262.2 486.4, 258.2 490.8 L 252.5 497.0 L 263.2 497.0 L 263.2 499.2 " fill="#7E56C2"/>
</g>
  </g>
</svg>
