<?xml version='1.0' encoding='ASCII' standalone='yes'?>
<svg xmlns="http://www.w3.org/2000/svg" xmlns:xlink="http://www.w3.org/1999/xlink" version="1.1" width="512.0px" viewBox="0 0 512.0 512.0" height="512.0px">
  <g>
    <g transform="translate(0.0, 0.0) scale(1 1) "><!-- END OF HEADER -->
<rect style="opacity:1.0;fill:#FF00FF00;stroke:none" width="512.0" height="512.0" x="0.0" y="0.0"> </rect>
<path class="bond-0 atom-0 atom-1" d="M 488.7,230.5 L 372.4,432.0" style="fill:none;fill-rule:evenodd;stroke:#7E56C2;stroke-width:4.0px;stroke-linecap:butt;stroke-linejoin:miter;stroke-opacity:1"/>
<path class="bond-0 atom-0 atom-1" d="M 448.4,230.5 L 352.2,397.1" style="fill:none;fill-rule:evenodd;stroke:#7E56C2;stroke-width:4.0px;stroke-linecap:butt;stroke-linejoin:miter;stroke-opacity:1"/>
<path class="bond-1 atom-1 atom-2" d="M 372.4,432.0 L 139.6,432.0" style="fill:none;fill-rule:evenodd;stroke:#7E56C2;stroke-width:4.0px;stroke-linecap:butt;stroke-linejoin:miter;stroke-opacity:1"/>
<path class="bond-2 atom-2 atom-3" d="M 139.6,432.0 L 23.3,230.5" style="fill:none;fill-rule:evenodd;stroke:#7E56C2;stroke-width:4.0px;stroke-linecap:butt;stroke-linejoin:miter;stroke-opacity:1"/>
<path class="bond-2 atom-2 atom-3" d="M 159.8,397.1 L 63.6,230.5" style="fill:none;fill-rule:evenodd;stroke:#7E56C2;stroke-width:4.0px;stroke-linecap:butt;stroke-linejoin:miter;stroke-opacity:1"/>
<path class="bond-3 atom-3 atom-4" d="M 23.3,230.5 L 139.6,29.0" style="fill:none;fill-rule:evenodd;stroke:#7E56C2;stroke-width:4.0px;stroke-linecap:butt;stroke-linejoin:miter;stroke-opacity:1"/>
<path class="bond-4 atom-4 atom-5" d="M 139.6,29.0 L 372.4,29.0" style="fill:none;fill-rule:evenodd;stroke:#7E56C2;stroke-width:4.0px;stroke-linecap:butt;stroke-linejoin:miter;stroke-opacity:1"/>
<path class="bond-4 atom-4 atom-5" d="M 159.8,63.9 L 352.2,63.9" style="fill:none;fill-rule:evenodd;stroke:#7E56C2;stroke-width:4.0px;stroke-linecap:butt;stroke-linejoin:miter;stroke-opacity:1"/>
<path class="bond-5 atom-5 atom-0" d="M 372.4,29.0 L 488.7,230.5" style="fill:none;fill-rule:evenodd;stroke:#7E56C2;stroke-width:4.0px;stroke-linecap:butt;stroke-linejoin:miter;stroke-opacity:1"/>
<path d="M 482.9,240.6 L 488.7,230.5 L 482.9,220.4" style="fill:none;stroke:#7E56C2;stroke-width:4.0px;stroke-linecap:butt;stroke-linejoin:miter;stroke-opacity:1;"/>
<path d="M 378.2,422.0 L 372.4,432.0 L 360.7,432.0" style="fill:none;stroke:#7E56C2;stroke-width:4.0px;stroke-linecap:butt;stroke-linejoin:miter;stroke-opacity:1;"/>
<path d="M 151.3,432.0 L 139.6,432.0 L 133.8,422.0" style="fill:none;stroke:#7E56C2;stroke-width:4.0px;stroke-linecap:butt;stroke-linejoin:miter;stroke-opacity:1;"/>
<path d="M 29.1,240.6 L 23.3,230.5 L 29.1,220.4" style="fill:none;stroke:#7E56C2;stroke-width:4.0px;stroke-linecap:butt;stroke-linejoin:miter;stroke-opacity:1;"/>
<path d="M 133.8,39.0 L 139.6,29.0 L 151.3,29.0" style="fill:none;stroke:#7E56C2;stroke-width:4.0px;stroke-linecap:butt;stroke-linejoin:miter;stroke-opacity:1;"/>
<path d="M 360.7,29.0 L 372.4,29.0 L 378.2,39.0" style="fill:none;stroke:#7E56C2;stroke-width:4.0px;stroke-linecap:butt;stroke-linejoin:miter;stroke-opacity:1;"/>
<path class="legend" d="M 225.0 477.6 L 225.0 461.7 L 230.2 461.7 Q 232.8 461.7, 234.1 462.7 Q 235.4 463.8, 235.4 465.9 Q 235.4 467.0, 234.8 467.9 Q 234.1 468.7, 233.1 469.2 Q 234.3 469.6, 235.1 470.6 Q 235.8 471.6, 235.8 473.0 Q 235.8 475.1, 234.5 476.3 Q 233.1 477.6, 230.5 477.6 L 225.0 477.6 M 227.1 470.1 L 227.1 475.9 L 230.6 475.9 Q 232.0 475.9, 232.9 475.1 Q 233.7 474.3, 233.7 473.0 Q 233.7 470.1, 230.6 470.1 L 227.1 470.1 M 227.1 468.5 L 230.3 468.5 Q 231.7 468.5, 232.5 467.8 Q 233.3 467.1, 233.3 465.9 Q 233.3 464.6, 232.5 464.0 Q 231.8 463.4, 230.2 463.4 L 227.1 463.4 L 227.1 468.5 " fill="#7E56C2"/>
<path class="legend" d="M 243.4 477.8 Q 241.0 477.8, 239.5 476.2 Q 238.0 474.6, 238.0 472.0 L 238.0 471.6 Q 238.0 469.9, 238.6 468.5 Q 239.3 467.1, 240.5 466.3 Q 241.7 465.5, 243.1 465.5 Q 245.4 465.5, 246.7 467.1 Q 248.0 468.6, 248.0 471.4 L 248.0 472.2 L 240.0 472.2 Q 240.0 474.0, 241.0 475.1 Q 242.0 476.1, 243.5 476.1 Q 244.6 476.1, 245.3 475.7 Q 246.0 475.3, 246.6 474.5 L 247.8 475.5 Q 246.3 477.8, 243.4 477.8 M 243.1 467.2 Q 241.9 467.2, 241.1 468.1 Q 240.2 469.0, 240.1 470.6 L 246.0 470.6 L 246.0 470.4 Q 245.9 468.9, 245.1 468.0 Q 244.4 467.2, 243.1 467.2 " fill="#7E56C2"/>
<path class="legend" d="M 251.6 465.8 L 251.6 467.2 Q 253.0 465.5, 255.2 465.5 Q 258.9 465.5, 259.0 469.8 L 259.0 477.6 L 256.9 477.6 L 256.9 469.8 Q 256.9 468.5, 256.3 467.9 Q 255.8 467.3, 254.6 467.3 Q 253.6 467.3, 252.8 467.8 Q 252.1 468.3, 251.7 469.2 L 251.7 477.6 L 249.7 477.6 L 249.7 465.8 L 251.6 465.8 " fill="#7E56C2"/>
<path class="legend" d="M 263.8 475.9 L 270.7 475.9 L 270.7 477.6 L 261.3 477.6 L 261.3 476.1 L 267.9 467.4 L 261.4 467.4 L 261.4 465.8 L 270.4 465.8 L 270.4 467.2 L 263.8 475.9 " fill="#7E56C2"/>
<path class="legend" d="M 272.3 471.6 Q 272.3 469.8, 273.0 468.4 Q 273.7 467.0, 274.9 466.3 Q 276.1 465.5, 277.7 465.5 Q 280.1 465.5, 281.6 467.2 Q 283.1 468.9, 283.1 471.6 L 283.1 471.8 Q 283.1 473.5, 282.4 474.9 Q 281.8 476.3, 280.5 477.0 Q 279.3 477.8, 277.7 477.8 Q 275.3 477.8, 273.8 476.1 Q 272.3 474.4, 272.3 471.7 L 272.3 471.6 M 274.4 471.8 Q 274.4 473.8, 275.3 474.9 Q 276.2 476.1, 277.7 476.1 Q 279.3 476.1, 280.2 474.9 Q 281.1 473.7, 281.1 471.6 Q 281.1 469.6, 280.1 468.4 Q 279.2 467.2, 277.7 467.2 Q 276.2 467.2, 275.3 468.4 Q 274.4 469.6, 274.4 471.8 " fill="#7E56C2"/>
<path class="legend" d="M 287.0 477.6 L 285.0 477.6 L 285.0 460.8 L 287.0 460.8 L 287.0 477.6 " fill="#7E56C2"/>
<path class="legend" d="M 112.2 490.4 L 105.5 490.4 L 104.0 494.6 L 101.9 494.6 L 107.9 478.7 L 109.8 478.7 L 115.8 494.6 L 113.7 494.6 L 112.2 490.4 M 106.1 488.7 L 111.5 488.7 L 108.8 481.2 L 106.1 488.7 " fill="#7E56C2"/>
<path class="legend" d="M 122.1 493.1 Q 123.2 493.1, 124.0 492.5 Q 124.8 491.8, 124.9 490.8 L 126.8 490.8 Q 126.7 491.8, 126.1 492.8 Q 125.5 493.7, 124.4 494.2 Q 123.3 494.8, 122.1 494.8 Q 119.7 494.8, 118.3 493.2 Q 116.8 491.5, 116.8 488.8 L 116.8 488.4 Q 116.8 486.7, 117.5 485.3 Q 118.1 484.0, 119.3 483.3 Q 120.5 482.5, 122.1 482.5 Q 124.1 482.5, 125.4 483.7 Q 126.7 484.9, 126.8 486.8 L 124.9 486.8 Q 124.8 485.7, 124.0 484.9 Q 123.2 484.2, 122.1 484.2 Q 120.6 484.2, 119.7 485.3 Q 118.9 486.4, 118.9 488.5 L 118.9 488.9 Q 118.9 490.9, 119.7 492.0 Q 120.5 493.1, 122.1 493.1 " fill="#7E56C2"/>
<path class="legend" d="M 130.3 484.2 Q 131.6 482.5, 133.8 482.5 Q 137.5 482.5, 137.5 486.7 L 137.5 494.6 L 135.5 494.6 L 135.5 486.7 Q 135.5 485.5, 134.9 484.8 Q 134.4 484.2, 133.2 484.2 Q 132.2 484.2, 131.4 484.8 Q 130.7 485.3, 130.3 486.1 L 130.3 494.6 L 128.3 494.6 L 128.3 477.8 L 130.3 477.8 L 130.3 484.2 " fill="#7E56C2"/>
<path class="legend" d="M 143.9 479.9 L 143.9 482.7 L 146.1 482.7 L 146.1 484.3 L 143.9 484.3 L 143.9 491.6 Q 143.9 492.3, 144.2 492.7 Q 144.5 493.0, 145.2 493.0 Q 145.6 493.0, 146.2 492.9 L 146.2 494.6 Q 145.4 494.8, 144.6 494.8 Q 143.3 494.8, 142.6 493.9 Q 141.9 493.1, 141.9 491.6 L 141.9 484.3 L 139.8 484.3 L 139.8 482.7 L 141.9 482.7 L 141.9 479.9 L 143.9 479.9 " fill="#7E56C2"/>
<path class="legend" d="M 155.0 493.4 Q 153.8 494.8, 151.6 494.8 Q 149.7 494.8, 148.7 493.7 Q 147.7 492.6, 147.7 490.4 L 147.7 482.7 L 149.7 482.7 L 149.7 490.4 Q 149.7 493.1, 151.9 493.1 Q 154.2 493.1, 155.0 491.3 L 155.0 482.7 L 157.0 482.7 L 157.0 494.6 L 155.1 494.6 L 155.0 493.4 " fill="#7E56C2"/>
<path class="legend" d="M 161.2 482.7 L 161.2 484.2 Q 162.6 482.5, 164.8 482.5 Q 168.5 482.5, 168.5 486.7 L 168.5 494.6 L 166.5 494.6 L 166.5 486.7 Q 166.5 485.5, 165.9 484.8 Q 165.4 484.2, 164.1 484.2 Q 163.2 484.2, 162.4 484.8 Q 161.7 485.3, 161.3 486.1 L 161.3 494.6 L 159.2 494.6 L 159.2 482.7 L 161.2 482.7 " fill="#7E56C2"/>
<path class="legend" d="M 170.8 488.5 Q 170.8 485.8, 172.0 484.2 Q 173.3 482.5, 175.4 482.5 Q 177.6 482.5, 178.8 484.0 L 178.9 482.7 L 180.7 482.7 L 180.7 494.3 Q 180.7 496.6, 179.4 497.9 Q 178.0 499.2, 175.7 499.2 Q 174.5 499.2, 173.2 498.7 Q 172.0 498.1, 171.4 497.2 L 172.4 495.9 Q 173.7 497.6, 175.6 497.6 Q 177.1 497.6, 177.9 496.7 Q 178.7 495.9, 178.7 494.4 L 178.7 493.4 Q 177.5 494.8, 175.4 494.8 Q 173.3 494.8, 172.0 493.1 Q 170.8 491.4, 170.8 488.5 M 172.8 488.8 Q 172.8 490.8, 173.6 491.9 Q 174.4 493.1, 175.9 493.1 Q 177.8 493.1, 178.7 491.3 L 178.7 485.9 Q 177.8 484.2, 175.9 484.2 Q 174.5 484.2, 173.6 485.4 Q 172.8 486.5, 172.8 488.8 " fill="#7E56C2"/>
<path class="legend" d="M 183.0 493.5 Q 183.0 493.0, 183.3 492.6 Q 183.6 492.3, 184.2 492.3 Q 184.8 492.3, 185.2 492.6 Q 185.5 493.0, 185.5 493.5 Q 185.5 494.0, 185.2 494.3 Q 184.8 494.7, 184.2 494.7 Q 183.6 494.7, 183.3 494.3 Q 183.0 494.0, 183.0 493.5 M 183.0 483.9 Q 183.0 483.3, 183.3 483.0 Q 183.6 482.6, 184.2 482.6 Q 184.9 482.6, 185.2 483.0 Q 185.5 483.3, 185.5 483.9 Q 185.5 484.4, 185.2 484.7 Q 184.9 485.0, 184.2 485.0 Q 183.6 485.0, 183.3 484.7 Q 183.0 484.4, 183.0 483.9 " fill="#7E56C2"/>
<path class="legend" d="" fill="#7E56C2"/>
<path class="legend" d="M 197.8 494.6 L 195.7 494.6 L 195.7 477.8 L 197.8 477.8 L 197.8 494.6 " fill="#7E56C2"/>
<path class="legend" d="M 200.2 488.5 Q 200.2 486.8, 200.9 485.4 Q 201.5 484.0, 202.8 483.3 Q 204.0 482.5, 205.5 482.5 Q 208.0 482.5, 209.4 484.2 Q 210.9 485.9, 210.9 488.6 L 210.9 488.8 Q 210.9 490.5, 210.3 491.9 Q 209.6 493.2, 208.4 494.0 Q 207.2 494.8, 205.6 494.8 Q 203.2 494.8, 201.7 493.1 Q 200.2 491.4, 200.2 488.7 L 200.2 488.5 M 202.2 488.8 Q 202.2 490.7, 203.1 491.9 Q 204.0 493.1, 205.6 493.1 Q 207.1 493.1, 208.0 491.9 Q 208.9 490.7, 208.9 488.5 Q 208.9 486.6, 208.0 485.4 Q 207.1 484.2, 205.5 484.2 Q 204.0 484.2, 203.1 485.4 Q 202.2 486.6, 202.2 488.8 " fill="#7E56C2"/>
<path class="legend" d="M 215.9 489.1 L 214.7 490.4 L 214.7 494.6 L 212.7 494.6 L 212.7 477.8 L 214.7 477.8 L 214.7 487.9 L 215.8 486.6 L 219.4 482.7 L 221.9 482.7 L 217.3 487.7 L 222.4 494.6 L 220.1 494.6 L 215.9 489.1 " fill="#7E56C2"/>
<path class="legend" d="M 230.8 494.6 Q 230.6 494.2, 230.5 493.3 Q 229.1 494.8, 227.1 494.8 Q 225.4 494.8, 224.3 493.8 Q 223.2 492.8, 223.2 491.3 Q 223.2 489.4, 224.6 488.4 Q 226.0 487.4, 228.5 487.4 L 230.5 487.4 L 230.5 486.5 Q 230.5 485.4, 229.8 484.8 Q 229.2 484.1, 228.0 484.1 Q 226.9 484.1, 226.2 484.7 Q 225.4 485.2, 225.4 486.0 L 223.4 486.0 Q 223.4 485.1, 224.0 484.3 Q 224.7 483.5, 225.7 483.0 Q 226.8 482.5, 228.1 482.5 Q 230.1 482.5, 231.3 483.5 Q 232.5 484.6, 232.5 486.4 L 232.5 491.8 Q 232.5 493.4, 232.9 494.4 L 232.9 494.6 L 230.8 494.6 M 227.4 493.0 Q 228.4 493.0, 229.2 492.5 Q 230.1 492.0, 230.5 491.2 L 230.5 488.8 L 228.9 488.8 Q 225.2 488.8, 225.2 491.0 Q 225.2 491.9, 225.8 492.5 Q 226.4 493.0, 227.4 493.0 " fill="#7E56C2"/>
<path class="legend" d="M 236.9 494.6 L 234.8 494.6 L 234.8 477.8 L 236.9 477.8 L 236.9 494.6 " fill="#7E56C2"/>
<path class="legend" d="M 241.5 494.6 L 239.5 494.6 L 239.5 482.7 L 241.5 482.7 L 241.5 494.6 M 239.3 479.6 Q 239.3 479.1, 239.6 478.8 Q 239.9 478.4, 240.5 478.4 Q 241.1 478.4, 241.4 478.8 Q 241.7 479.1, 241.7 479.6 Q 241.7 480.1, 241.4 480.4 Q 241.1 480.8, 240.5 480.8 Q 239.9 480.8, 239.6 480.4 Q 239.3 480.1, 239.3 479.6 " fill="#7E56C2"/>
<path class="legend" d="M 251.3 491.4 Q 251.3 490.6, 250.6 490.2 Q 250.0 489.7, 248.5 489.4 Q 247.0 489.0, 246.1 488.6 Q 245.2 488.1, 244.7 487.5 Q 244.3 486.9, 244.3 486.0 Q 244.3 484.5, 245.5 483.5 Q 246.8 482.5, 248.7 482.5 Q 250.7 482.5, 251.9 483.6 Q 253.2 484.6, 253.2 486.2 L 251.1 486.2 Q 251.1 485.4, 250.4 484.8 Q 249.7 484.2, 248.7 484.2 Q 247.6 484.2, 246.9 484.7 Q 246.3 485.1, 246.3 485.9 Q 246.3 486.6, 246.9 487.0 Q 247.5 487.4, 249.0 487.7 Q 250.5 488.1, 251.4 488.5 Q 252.4 489.0, 252.8 489.7 Q 253.3 490.3, 253.3 491.3 Q 253.3 492.9, 252.0 493.8 Q 250.7 494.8, 248.7 494.8 Q 247.3 494.8, 246.2 494.3 Q 245.1 493.8, 244.5 492.9 Q 243.9 492.0, 243.9 490.9 L 245.9 490.9 Q 246.0 491.9, 246.7 492.5 Q 247.5 493.1, 248.7 493.1 Q 249.9 493.1, 250.6 492.7 Q 251.3 492.2, 251.3 491.4 " fill="#7E56C2"/>
<path class="legend" d="M 257.3 494.6 L 255.3 494.6 L 255.3 482.7 L 257.3 482.7 L 257.3 494.6 M 255.1 479.6 Q 255.1 479.1, 255.4 478.8 Q 255.7 478.4, 256.3 478.4 Q 256.9 478.4, 257.2 478.8 Q 257.5 479.1, 257.5 479.6 Q 257.5 480.1, 257.2 480.4 Q 256.9 480.8, 256.3 480.8 Q 255.7 480.8, 255.4 480.4 Q 255.1 480.1, 255.1 479.6 " fill="#7E56C2"/>
<path class="legend" d="M 265.1 494.8 Q 262.7 494.8, 261.2 493.2 Q 259.7 491.6, 259.7 489.0 L 259.7 488.6 Q 259.7 486.8, 260.4 485.5 Q 261.0 484.1, 262.2 483.3 Q 263.5 482.5, 264.9 482.5 Q 267.2 482.5, 268.4 484.0 Q 269.7 485.6, 269.7 488.4 L 269.7 489.2 L 261.7 489.2 Q 261.8 491.0, 262.7 492.1 Q 263.7 493.1, 265.2 493.1 Q 266.3 493.1, 267.0 492.7 Q 267.8 492.2, 268.3 491.5 L 269.6 492.5 Q 268.1 494.8, 265.1 494.8 M 264.9 484.2 Q 263.6 484.2, 262.8 485.1 Q 262.0 486.0, 261.8 487.6 L 267.7 487.6 L 267.7 487.4 Q 267.6 485.9, 266.9 485.0 Q 266.1 484.2, 264.9 484.2 " fill="#7E56C2"/>
<path class="legend" d="M 277.0 484.6 Q 276.5 484.5, 276.0 484.5 Q 274.0 484.5, 273.3 486.2 L 273.3 494.6 L 271.2 494.6 L 271.2 482.7 L 273.2 482.7 L 273.2 484.1 Q 274.2 482.5, 276.1 482.5 Q 276.7 482.5, 277.0 482.7 L 277.0 484.6 " fill="#7E56C2"/>
<path class="legend" d="M 282.2 479.9 L 282.2 482.7 L 284.4 482.7 L 284.4 484.3 L 282.2 484.3 L 282.2 491.6 Q 282.2 492.3, 282.5 492.7 Q 282.8 493.0, 283.5 493.0 Q 283.8 493.0, 284.4 492.9 L 284.4 494.6 Q 283.6 494.8, 282.9 494.8 Q 281.5 494.8, 280.8 493.9 Q 280.2 493.1, 280.2 491.6 L 280.2 484.3 L 278.0 484.3 L 278.0 482.7 L 280.2 482.7 L 280.2 479.9 L 282.2 479.9 " fill="#7E56C2"/>
<path class="legend" d="M 291.3 494.8 Q 288.9 494.8, 287.4 493.2 Q 285.9 491.6, 285.9 489.0 L 285.9 488.6 Q 285.9 486.8, 286.6 485.5 Q 287.3 484.1, 288.5 483.3 Q 289.7 482.5, 291.1 482.5 Q 293.4 482.5, 294.7 484.0 Q 295.9 485.6, 295.9 488.4 L 295.9 489.2 L 287.9 489.2 Q 288.0 491.0, 289.0 492.1 Q 289.9 493.1, 291.4 493.1 Q 292.5 493.1, 293.3 492.7 Q 294.0 492.2, 294.6 491.5 L 295.8 492.5 Q 294.3 494.8, 291.3 494.8 M 291.1 484.2 Q 289.9 484.2, 289.0 485.1 Q 288.2 486.0, 288.0 487.6 L 293.9 487.6 L 293.9 487.4 Q 293.8 485.9, 293.1 485.0 Q 292.4 484.2, 291.1 484.2 " fill="#7E56C2"/>
<path class="legend" d="" fill="#7E56C2"/>
<path class="legend" d="M 305.6 494.6 L 305.6 478.7 L 310.1 478.7 Q 312.1 478.7, 313.7 479.6 Q 315.3 480.5, 316.2 482.2 Q 317.0 483.9, 317.1 486.1 L 317.1 487.1 Q 317.1 489.3, 316.2 491.0 Q 315.3 492.7, 313.7 493.6 Q 312.1 494.5, 310.0 494.6 L 305.6 494.6 M 307.7 480.4 L 307.7 492.8 L 309.9 492.8 Q 312.3 492.8, 313.6 491.3 Q 315.0 489.8, 315.0 487.0 L 315.0 486.1 Q 315.0 483.4, 313.7 481.9 Q 312.4 480.4, 310.1 480.4 L 307.7 480.4 " fill="#7E56C2"/>
<path class="legend" d="M 326.7 494.6 Q 326.6 494.2, 326.4 493.3 Q 325.0 494.8, 323.1 494.8 Q 321.3 494.8, 320.2 493.8 Q 319.1 492.8, 319.1 491.3 Q 319.1 489.4, 320.5 488.4 Q 321.9 487.4, 324.4 487.4 L 326.4 487.4 L 326.4 486.5 Q 326.4 485.4, 325.8 484.8 Q 325.1 484.1, 323.9 484.1 Q 322.8 484.1, 322.1 484.7 Q 321.4 485.2, 321.4 486.0 L 319.3 486.0 Q 319.3 485.1, 320.0 484.3 Q 320.6 483.5, 321.7 483.0 Q 322.7 482.5, 324.0 482.5 Q 326.1 482.5, 327.2 483.5 Q 328.4 484.6, 328.4 486.4 L 328.4 491.8 Q 328.4 493.4, 328.8 494.4 L 328.8 494.6 L 326.7 494.6 M 323.4 493.0 Q 324.3 493.0, 325.2 492.5 Q 326.0 492.0, 326.4 491.2 L 326.4 488.8 L 324.8 488.8 Q 321.1 488.8, 321.1 491.0 Q 321.1 491.9, 321.7 492.5 Q 322.4 493.0, 323.4 493.0 " fill="#7E56C2"/>
<path class="legend" d="M 336.5 484.6 Q 336.0 484.5, 335.5 484.5 Q 333.5 484.5, 332.8 486.2 L 332.8 494.6 L 330.8 494.6 L 330.8 482.7 L 332.7 482.7 L 332.8 484.1 Q 333.8 482.5, 335.6 482.5 Q 336.2 482.5, 336.5 482.7 L 336.5 484.6 " fill="#7E56C2"/>
<path class="legend" d="M 344.9 491.4 Q 344.9 490.6, 344.3 490.2 Q 343.7 489.7, 342.1 489.4 Q 340.6 489.0, 339.7 488.6 Q 338.8 488.1, 338.4 487.5 Q 337.9 486.9, 337.9 486.0 Q 337.9 484.5, 339.2 483.5 Q 340.4 482.5, 342.3 482.5 Q 344.3 482.5, 345.6 483.6 Q 346.8 484.6, 346.8 486.2 L 344.8 486.2 Q 344.8 485.4, 344.1 484.8 Q 343.4 484.2, 342.3 484.2 Q 341.2 484.2, 340.6 484.7 Q 340.0 485.1, 340.0 485.9 Q 340.0 486.6, 340.5 487.0 Q 341.1 487.4, 342.6 487.7 Q 344.1 488.1, 345.1 488.5 Q 346.0 489.0, 346.5 489.7 Q 346.9 490.3, 346.9 491.3 Q 346.9 492.9, 345.7 493.8 Q 344.4 494.8, 342.4 494.8 Q 341.0 494.8, 339.9 494.3 Q 338.8 493.8, 338.1 492.9 Q 337.5 492.0, 337.5 490.9 L 339.6 490.9 Q 339.6 491.9, 340.4 492.5 Q 341.1 493.1, 342.4 493.1 Q 343.5 493.1, 344.2 492.7 Q 344.9 492.2, 344.9 491.4 " fill="#7E56C2"/>
<path class="legend" d="M 352.9 479.9 L 352.9 482.7 L 355.1 482.7 L 355.1 484.3 L 352.9 484.3 L 352.9 491.6 Q 352.9 492.3, 353.2 492.7 Q 353.5 493.0, 354.2 493.0 Q 354.6 493.0, 355.2 492.9 L 355.2 494.6 Q 354.4 494.8, 353.6 494.8 Q 352.3 494.8, 351.6 493.9 Q 350.9 493.1, 350.9 491.6 L 350.9 484.3 L 348.7 484.3 L 348.7 482.7 L 350.9 482.7 L 350.9 479.9 L 352.9 479.9 " fill="#7E56C2"/>
<path class="legend" d="M 362.1 494.8 Q 359.7 494.8, 358.2 493.2 Q 356.7 491.6, 356.7 489.0 L 356.7 488.6 Q 356.7 486.8, 357.3 485.5 Q 358.0 484.1, 359.2 483.3 Q 360.4 482.5, 361.8 482.5 Q 364.1 482.5, 365.4 484.0 Q 366.7 485.6, 366.7 488.4 L 366.7 489.2 L 358.7 489.2 Q 358.7 491.0, 359.7 492.1 Q 360.7 493.1, 362.2 493.1 Q 363.3 493.1, 364.0 492.7 Q 364.7 492.2, 365.3 491.5 L 366.5 492.5 Q 365.1 494.8, 362.1 494.8 M 361.8 484.2 Q 360.6 484.2, 359.8 485.1 Q 358.9 486.0, 358.8 487.6 L 364.7 487.6 L 364.7 487.4 Q 364.6 485.9, 363.8 485.0 Q 363.1 484.2, 361.8 484.2 " fill="#7E56C2"/>
<path class="legend" d="M 370.2 494.6 L 368.2 494.6 L 368.2 477.8 L 370.2 477.8 L 370.2 494.6 " fill="#7E56C2"/>
<path class="legend" d="M 374.7 494.6 L 372.7 494.6 L 372.7 477.8 L 374.7 477.8 L 374.7 494.6 " fill="#7E56C2"/>
<path class="legend" d="M 384.4 493.4 Q 383.2 494.8, 381.0 494.8 Q 379.1 494.8, 378.1 493.7 Q 377.1 492.6, 377.1 490.4 L 377.1 482.7 L 379.1 482.7 L 379.1 490.4 Q 379.1 493.1, 381.3 493.1 Q 383.6 493.1, 384.4 491.3 L 384.4 482.7 L 386.4 482.7 L 386.4 494.6 L 384.5 494.6 L 384.4 493.4 " fill="#7E56C2"/>
<path class="legend" d="M 390.6 482.7 L 390.6 484.2 Q 392.0 482.5, 394.2 482.5 Q 397.9 482.5, 397.9 486.7 L 397.9 494.6 L 395.9 494.6 L 395.9 486.7 Q 395.9 485.5, 395.3 484.8 Q 394.8 484.2, 393.5 484.2 Q 392.6 484.2, 391.8 484.8 Q 391.1 485.3, 390.7 486.1 L 390.7 494.6 L 388.6 494.6 L 388.6 482.7 L 390.6 482.7 " fill="#7E56C2"/>
<path class="legend" d="M 400.2 488.5 Q 400.2 485.8, 401.4 484.2 Q 402.7 482.5, 404.8 482.5 Q 407.0 482.5, 408.2 484.0 L 408.3 482.7 L 410.1 482.7 L 410.1 494.3 Q 410.1 496.6, 408.8 497.9 Q 407.4 499.2, 405.1 499.2 Q 403.9 499.2, 402.6 498.7 Q 401.4 498.1, 400.8 497.2 L 401.8 495.9 Q 403.1 497.6, 405.0 497.6 Q 406.5 497.6, 407.3 496.7 Q 408.1 495.9, 408.1 494.4 L 408.1 493.4 Q 406.9 494.8, 404.8 494.8 Q 402.7 494.8, 401.4 493.1 Q 400.2 491.4, 400.2 488.5 M 402.2 488.8 Q 402.2 490.8, 403.0 491.9 Q 403.8 493.1, 405.3 493.1 Q 407.2 493.1, 408.1 491.3 L 408.1 485.9 Q 407.2 484.2, 405.3 484.2 Q 403.9 484.2, 403.0 485.4 Q 402.2 486.5, 402.2 488.8 " fill="#7E56C2"/>
</g>
  </g>
</svg>
