<?xml version='1.0' encoding='ASCII' standalone='yes'?>
<svg xmlns="http://www.w3.org/2000/svg" xmlns:xlink="http://www.w3.org/1999/xlink" version="1.1" width="512.0px" viewBox="0 0 512.0 512.0" height="512.0px">
  <g>
    <g transform="translate(0.0, 0.0) scale(1 1) "><!-- END OF HEADER -->
<rect style="opacity:1.0;fill:#FF00FF00;stroke:none" width="512.0" height="512.0" x="0.0" y="0.0"> </rect>
<path class="bond-0 atom-0 atom-1" d="M 488.7,230.5 L 372.4,432.0" style="fill:none;fill-rule:evenodd;stroke:#7E56C2;stroke-width:4.0px;stroke-linecap:butt;stroke-linejoin:miter;stroke-opacity:1"/>
<path class="bond-0 atom-0 atom-1" d="M 448.4,230.5 L 352.2,397.1" style="fill:none;fill-rule:evenodd;stroke:#7E56C2;stroke-width:4.0px;stroke-linecap:butt;stroke-linejoin:miter;stroke-opacity:1"/>
<path class="bond-1 atom-1 atom-2" d="M 372.4,432.0 L 139.6,432.0" style="fill:none;fill-rule:evenodd;stroke:#7E56C2;stroke-width:4.0px;stroke-linecap:butt;stroke-linejoin:miter;stroke-opacity:1"/>
<path class="bond-2 atom-2 atom-3" d="M 139.6,432.0 L 23.3,230.5" style="fill:none;fill-rule:evenodd;stroke:#7E56C2;stroke-width:4.0px;stroke-linecap:butt;stroke-linejoin:miter;stroke-opacity:1"/>
<path class="bond-2 atom-2 atom-3" d="M 159.8,397.1 L 63.6,230.5" style="fill:none;fill-rule:evenodd;stroke:#7E56C2;stroke-width:4.0px;stroke-linecap:butt;stroke-linejoin:miter;stroke-opacity:1"/>
<path class="bond-3 atom-3 atom-4" d="M 23.3,230.5 L 139.6,29.0" style="fill:none;fill-rule:evenodd;stroke:#7E56C2;stroke-width:4.0px;stroke-linecap:butt;stroke-linejoin:miter;stroke-opacity:1"/>
<path class="bond-4 atom-4 atom-5" d="M 139.6,29.0 L 372.4,29.0" style="fill:none;fill-rule:evenodd;stroke:#7E56C2;stroke-width:4.0px;stroke-linecap:butt;stroke-linejoin:miter;stroke-opacity:1"/>
<path class="bond-4 atom-4 atom-5" d="M 159.8,63.9 L 352.2,63.9" style="fill:none;fill-rule:evenodd;stroke:#7E56C2;stroke-width:4.0px;stroke-linecap:butt;stroke-linejoin:miter;stroke-opacity:1"/>
<path class="bond-5 atom-5 atom-0" d="M 372.4,29.0 L 488.7,230.5" style="fill:none;fill-rule:evenodd;stroke:#7E56C2;stroke-width:4.0px;stroke-linecap:butt;stroke-linejoin:miter;stroke-opacity:1"/>
<path d="M 482.9,240.6 L 488.7,230.5 L 482.9,220.4" style="fill:none;stroke:#7E56C2;stroke-width:4.0px;stroke-linecap:butt;stroke-linejoin:miter;stroke-opacity:1;"/>
<path d="M 378.2,422.0 L 372.4,432.0 L 360.7,432.0" style="fill:none;stroke:#7E56C2;stroke-width:4.0px;stroke-linecap:butt;stroke-linejoin:miter;stroke-opacity:1;"/>
<path d="M 151.3,432.0 L 139.6,432.0 L 133.8,422.0" style="fill:none;stroke:#7E56C2;stroke-width:4.0px;stroke-linecap:butt;stroke-linejoin:miter;stroke-opacity:1;"/>
<path d="M 29.1,240.6 L 23.3,230.5 L 29.1,220.4" style="fill:none;stroke:#7E56C2;stroke-width:4.0px;stroke-linecap:butt;stroke-linejoin:miter;stroke-opacity:1;"/>
<path d="M 133.8,39.0 L 139.6,29.0 L 151.3,29.0" style="fill:none;stroke:#7E56C2;stroke-width:4.0px;stroke-linecap:butt;stroke-linejoin:miter;stroke-opacity:1;"/>
<path d="M 360.7,29.0 L 372.4,29.0 L 378.2,39.0" style="fill:none;stroke:#7E56C2;stroke-width:4.0px;stroke-linecap:butt;stroke-linejoin:miter;stroke-opacity:1;"/>
<path class="legend" d="M 226.3 476.9 L 226.3 461.6 L 231.3 461.6 Q 233.8 461.6, 235.0 462.7 Q 236.3 463.7, 236.3 465.7 Q 236.3 466.8, 235.7 467.6 Q 235.0 468.4, 234.0 468.9 Q 235.2 469.2, 235.9 470.2 Q 236.7 471.1, 236.7 472.5 Q 236.7 474.5, 235.3 475.7 Q 234.0 476.9, 231.6 476.9 L 226.3 476.9 M 228.3 469.7 L 228.3 475.2 L 231.6 475.2 Q 233.0 475.2, 233.8 474.5 Q 234.6 473.8, 234.6 472.5 Q 234.6 469.7, 231.7 469.7 L 228.3 469.7 M 228.3 468.1 L 231.3 468.1 Q 232.7 468.1, 233.4 467.5 Q 234.2 466.8, 234.2 465.7 Q 234.2 464.4, 233.5 463.9 Q 232.8 463.3, 231.3 463.3 L 228.3 463.3 L 228.3 468.1 " fill="#7E56C2"/>
<path class="legend" d="M 243.9 477.1 Q 241.6 477.1, 240.2 475.6 Q 238.7 474.1, 238.7 471.5 L 238.7 471.2 Q 238.7 469.5, 239.3 468.2 Q 240.0 466.8, 241.1 466.1 Q 242.3 465.3, 243.7 465.3 Q 245.9 465.3, 247.1 466.8 Q 248.3 468.3, 248.3 471.0 L 248.3 471.8 L 240.6 471.8 Q 240.7 473.4, 241.6 474.5 Q 242.6 475.5, 244.0 475.5 Q 245.0 475.5, 245.7 475.1 Q 246.5 474.7, 247.0 474.0 L 248.2 474.9 Q 246.7 477.1, 243.9 477.1 M 243.7 466.9 Q 242.5 466.9, 241.7 467.8 Q 240.9 468.6, 240.7 470.2 L 246.4 470.2 L 246.4 470.0 Q 246.3 468.6, 245.6 467.7 Q 244.9 466.9, 243.7 466.9 " fill="#7E56C2"/>
<path class="legend" d="M 251.8 465.6 L 251.8 467.0 Q 253.1 465.3, 255.2 465.3 Q 258.8 465.3, 258.8 469.4 L 258.8 476.9 L 256.9 476.9 L 256.9 469.4 Q 256.9 468.2, 256.3 467.6 Q 255.8 467.0, 254.6 467.0 Q 253.7 467.0, 253.0 467.5 Q 252.3 468.0, 251.9 468.8 L 251.9 476.9 L 249.9 476.9 L 249.9 465.6 L 251.8 465.6 " fill="#7E56C2"/>
<path class="legend" d="M 263.5 475.3 L 270.1 475.3 L 270.1 476.9 L 261.1 476.9 L 261.1 475.5 L 267.4 467.2 L 261.2 467.2 L 261.2 465.6 L 269.8 465.6 L 269.8 466.9 L 263.5 475.3 " fill="#7E56C2"/>
<path class="legend" d="M 271.7 471.1 Q 271.7 469.4, 272.3 468.1 Q 273.0 466.8, 274.1 466.1 Q 275.3 465.3, 276.8 465.3 Q 279.1 465.3, 280.5 466.9 Q 282.0 468.5, 282.0 471.2 L 282.0 471.3 Q 282.0 473.0, 281.3 474.3 Q 280.7 475.6, 279.5 476.4 Q 278.3 477.1, 276.8 477.1 Q 274.5 477.1, 273.1 475.5 Q 271.7 473.9, 271.7 471.2 L 271.7 471.1 M 273.6 471.3 Q 273.6 473.2, 274.5 474.4 Q 275.4 475.5, 276.8 475.5 Q 278.3 475.5, 279.2 474.4 Q 280.0 473.2, 280.0 471.1 Q 280.0 469.2, 279.1 468.1 Q 278.3 466.9, 276.8 466.9 Q 275.4 466.9, 274.5 468.1 Q 273.6 469.2, 273.6 471.3 " fill="#7E56C2"/>
<path class="legend" d="M 285.7 476.9 L 283.8 476.9 L 283.8 460.8 L 285.7 460.8 L 285.7 476.9 " fill="#7E56C2"/>
<path class="legend" d="M 169.1 488.1 Q 169.1 485.7, 169.7 483.6 Q 170.3 481.4, 171.6 479.6 Q 172.8 477.8, 174.2 477.1 L 174.6 478.4 Q 173.1 479.5, 172.1 481.9 Q 171.1 484.3, 171.0 487.3 L 171.0 488.2 Q 171.0 492.3, 172.5 495.2 Q 173.4 497.0, 174.6 498.0 L 174.2 499.2 Q 172.8 498.4, 171.5 496.6 Q 169.1 493.0, 169.1 488.1 " fill="#7E56C2"/>
<path class="legend" d="M 177.9 494.3 L 176.0 494.3 L 176.0 483.0 L 177.9 483.0 L 177.9 494.3 M 175.8 480.0 Q 175.8 479.5, 176.1 479.2 Q 176.4 478.8, 176.9 478.8 Q 177.5 478.8, 177.8 479.2 Q 178.1 479.5, 178.1 480.0 Q 178.1 480.4, 177.8 480.7 Q 177.5 481.1, 176.9 481.1 Q 176.4 481.1, 176.1 480.7 Q 175.8 480.4, 175.8 480.0 " fill="#7E56C2"/>
<path class="legend" d="M 180.3 488.5 Q 180.3 486.9, 181.0 485.5 Q 181.6 484.2, 182.8 483.5 Q 184.0 482.7, 185.5 482.7 Q 187.8 482.7, 189.2 484.3 Q 190.7 485.9, 190.7 488.6 L 190.7 488.7 Q 190.7 490.4, 190.0 491.7 Q 189.4 493.0, 188.2 493.8 Q 187.0 494.5, 185.5 494.5 Q 183.2 494.5, 181.8 492.9 Q 180.3 491.3, 180.3 488.7 L 180.3 488.5 M 182.3 488.7 Q 182.3 490.6, 183.2 491.8 Q 184.0 492.9, 185.5 492.9 Q 187.0 492.9, 187.8 491.8 Q 188.7 490.6, 188.7 488.5 Q 188.7 486.7, 187.8 485.5 Q 186.9 484.3, 185.5 484.3 Q 184.0 484.3, 183.2 485.5 Q 182.3 486.6, 182.3 488.7 " fill="#7E56C2"/>
<path class="legend" d="M 194.4 484.3 Q 195.6 482.7, 197.7 482.7 Q 201.3 482.7, 201.3 486.8 L 201.3 494.3 L 199.4 494.3 L 199.4 486.8 Q 199.4 485.6, 198.8 485.0 Q 198.3 484.4, 197.1 484.4 Q 196.2 484.4, 195.5 484.9 Q 194.8 485.4, 194.4 486.2 L 194.4 494.3 L 192.4 494.3 L 192.4 478.2 L 194.4 478.2 L 194.4 484.3 " fill="#7E56C2"/>
<path class="legend" d="M 205.4 483.0 L 205.5 484.4 Q 206.8 482.7, 208.9 482.7 Q 212.5 482.7, 212.5 486.8 L 212.5 494.3 L 210.5 494.3 L 210.5 486.8 Q 210.5 485.6, 210.0 485.0 Q 209.4 484.4, 208.3 484.4 Q 207.3 484.4, 206.6 484.9 Q 205.9 485.4, 205.5 486.2 L 205.5 494.3 L 203.6 494.3 L 203.6 483.0 L 205.4 483.0 " fill="#7E56C2"/>
<path class="legend" d="M 219.9 494.5 Q 217.6 494.5, 216.2 493.0 Q 214.8 491.5, 214.8 488.9 L 214.8 488.6 Q 214.8 486.9, 215.4 485.6 Q 216.0 484.2, 217.2 483.5 Q 218.4 482.7, 219.7 482.7 Q 221.9 482.7, 223.1 484.2 Q 224.4 485.7, 224.4 488.4 L 224.4 489.2 L 216.7 489.2 Q 216.7 490.8, 217.7 491.9 Q 218.6 492.9, 220.0 492.9 Q 221.1 492.9, 221.8 492.5 Q 222.5 492.1, 223.0 491.4 L 224.2 492.3 Q 222.8 494.5, 219.9 494.5 M 219.7 484.3 Q 218.5 484.3, 217.7 485.2 Q 216.9 486.0, 216.7 487.6 L 222.4 487.6 L 222.4 487.4 Q 222.3 486.0, 221.6 485.2 Q 220.9 484.3, 219.7 484.3 " fill="#7E56C2"/>
<path class="legend" d="" fill="#7E56C2"/>
<path class="legend" d="M 236.4 479.0 L 241.4 491.5 L 246.4 479.0 L 249.0 479.0 L 249.0 494.3 L 247.0 494.3 L 247.0 488.3 L 247.2 481.9 L 242.2 494.3 L 240.6 494.3 L 235.6 482.0 L 235.8 488.3 L 235.8 494.3 L 233.8 494.3 L 233.8 479.0 L 236.4 479.0 " fill="#7E56C2"/>
<path class="legend" d="M 256.8 494.5 Q 254.5 494.5, 253.0 493.0 Q 251.6 491.5, 251.6 488.9 L 251.6 488.6 Q 251.6 486.9, 252.2 485.6 Q 252.9 484.2, 254.0 483.5 Q 255.2 482.7, 256.5 482.7 Q 258.7 482.7, 260.0 484.2 Q 261.2 485.7, 261.2 488.4 L 261.2 489.2 L 253.5 489.2 Q 253.6 490.8, 254.5 491.9 Q 255.4 492.9, 256.9 492.9 Q 257.9 492.9, 258.6 492.5 Q 259.3 492.1, 259.9 491.4 L 261.0 492.3 Q 259.6 494.5, 256.8 494.5 M 256.5 484.3 Q 255.4 484.3, 254.6 485.2 Q 253.8 486.0, 253.6 487.6 L 259.3 487.6 L 259.3 487.4 Q 259.2 486.0, 258.5 485.2 Q 257.8 484.3, 256.5 484.3 " fill="#7E56C2"/>
<path class="legend" d="M 269.8 491.3 Q 269.8 490.5, 269.3 490.1 Q 268.7 489.6, 267.2 489.3 Q 265.7 489.0, 264.9 488.6 Q 264.0 488.1, 263.6 487.5 Q 263.2 486.9, 263.2 486.1 Q 263.2 484.7, 264.3 483.7 Q 265.5 482.7, 267.4 482.7 Q 269.3 482.7, 270.5 483.7 Q 271.7 484.7, 271.7 486.3 L 269.7 486.3 Q 269.7 485.5, 269.1 484.9 Q 268.4 484.3, 267.4 484.3 Q 266.3 484.3, 265.7 484.8 Q 265.1 485.3, 265.1 486.0 Q 265.1 486.7, 265.7 487.1 Q 266.2 487.4, 267.7 487.7 Q 269.1 488.1, 270.0 488.5 Q 270.9 489.0, 271.3 489.6 Q 271.8 490.2, 271.8 491.1 Q 271.8 492.7, 270.6 493.6 Q 269.4 494.5, 267.4 494.5 Q 266.1 494.5, 265.0 494.0 Q 264.0 493.5, 263.4 492.7 Q 262.8 491.8, 262.8 490.8 L 264.7 490.8 Q 264.8 491.8, 265.5 492.3 Q 266.2 492.9, 267.4 492.9 Q 268.5 492.9, 269.2 492.5 Q 269.8 492.0, 269.8 491.3 " fill="#7E56C2"/>
<path class="legend" d="M 273.7 488.5 Q 273.7 486.9, 274.3 485.5 Q 275.0 484.2, 276.1 483.5 Q 277.3 482.7, 278.8 482.7 Q 281.1 482.7, 282.5 484.3 Q 284.0 485.9, 284.0 488.6 L 284.0 488.7 Q 284.0 490.4, 283.3 491.7 Q 282.7 493.0, 281.5 493.8 Q 280.3 494.5, 278.8 494.5 Q 276.5 494.5, 275.1 492.9 Q 273.7 491.3, 273.7 488.7 L 273.7 488.5 M 275.6 488.7 Q 275.6 490.6, 276.5 491.8 Q 277.3 492.9, 278.8 492.9 Q 280.3 492.9, 281.2 491.8 Q 282.0 490.6, 282.0 488.5 Q 282.0 486.7, 281.1 485.5 Q 280.3 484.3, 278.8 484.3 Q 277.4 484.3, 276.5 485.5 Q 275.6 486.6, 275.6 488.7 " fill="#7E56C2"/>
<path class="legend" d="M 287.6 483.0 L 287.6 484.2 Q 288.9 482.7, 291.0 482.7 Q 293.4 482.7, 294.2 484.6 Q 294.8 483.8, 295.7 483.2 Q 296.6 482.7, 297.8 482.7 Q 301.6 482.7, 301.6 486.7 L 301.6 494.3 L 299.7 494.3 L 299.7 486.8 Q 299.7 485.6, 299.1 485.0 Q 298.6 484.4, 297.3 484.4 Q 296.2 484.4, 295.5 485.0 Q 294.8 485.7, 294.6 486.8 L 294.6 494.3 L 292.7 494.3 L 292.7 486.9 Q 292.7 484.4, 290.3 484.4 Q 288.4 484.4, 287.7 486.0 L 287.7 494.3 L 285.7 494.3 L 285.7 483.0 L 287.6 483.0 " fill="#7E56C2"/>
<path class="legend" d="M 309.1 494.5 Q 306.8 494.5, 305.3 493.0 Q 303.9 491.5, 303.9 488.9 L 303.9 488.6 Q 303.9 486.9, 304.5 485.6 Q 305.2 484.2, 306.3 483.5 Q 307.5 482.7, 308.8 482.7 Q 311.0 482.7, 312.3 484.2 Q 313.5 485.7, 313.5 488.4 L 313.5 489.2 L 305.8 489.2 Q 305.9 490.8, 306.8 491.9 Q 307.7 492.9, 309.2 492.9 Q 310.2 492.9, 310.9 492.5 Q 311.6 492.1, 312.2 491.4 L 313.3 492.3 Q 311.9 494.5, 309.1 494.5 M 308.8 484.3 Q 307.7 484.3, 306.9 485.2 Q 306.1 486.0, 305.9 487.6 L 311.6 487.6 L 311.6 487.4 Q 311.5 486.0, 310.8 485.2 Q 310.0 484.3, 308.8 484.3 " fill="#7E56C2"/>
<path class="legend" d="M 320.5 484.7 Q 320.1 484.6, 319.6 484.6 Q 317.7 484.6, 317.0 486.2 L 317.0 494.3 L 315.1 494.3 L 315.1 483.0 L 317.0 483.0 L 317.0 484.3 Q 317.9 482.7, 319.7 482.7 Q 320.3 482.7, 320.5 482.9 L 320.5 484.7 " fill="#7E56C2"/>
<path class="legend" d="M 323.8 494.3 L 321.8 494.3 L 321.8 483.0 L 323.8 483.0 L 323.8 494.3 M 321.7 480.0 Q 321.7 479.5, 322.0 479.2 Q 322.2 478.8, 322.8 478.8 Q 323.4 478.8, 323.7 479.2 Q 324.0 479.5, 324.0 480.0 Q 324.0 480.4, 323.7 480.7 Q 323.4 481.1, 322.8 481.1 Q 322.2 481.1, 322.0 480.7 Q 321.7 480.4, 321.7 480.0 " fill="#7E56C2"/>
<path class="legend" d="M 331.4 494.5 Q 329.1 494.5, 327.7 493.0 Q 326.2 491.5, 326.2 488.9 L 326.2 488.6 Q 326.2 486.9, 326.9 485.6 Q 327.5 484.2, 328.7 483.5 Q 329.8 482.7, 331.2 482.7 Q 333.4 482.7, 334.6 484.2 Q 335.8 485.7, 335.8 488.4 L 335.8 489.2 L 328.1 489.2 Q 328.2 490.8, 329.1 491.9 Q 330.1 492.9, 331.5 492.9 Q 332.5 492.9, 333.2 492.5 Q 334.0 492.1, 334.5 491.4 L 335.7 492.3 Q 334.2 494.5, 331.4 494.5 M 331.2 484.3 Q 330.0 484.3, 329.2 485.2 Q 328.4 486.0, 328.2 487.6 L 333.9 487.6 L 333.9 487.4 Q 333.8 486.0, 333.1 485.2 Q 332.4 484.3, 331.2 484.3 " fill="#7E56C2"/>
<path class="legend" d="M 342.9 488.2 Q 342.9 490.5, 342.3 492.7 Q 341.7 494.8, 340.5 496.6 Q 339.2 498.4, 337.8 499.2 L 337.4 498.0 Q 339.0 496.8, 340.0 494.2 Q 341.0 491.6, 341.0 488.4 L 341.0 488.1 Q 341.0 485.9, 340.5 484.0 Q 340.1 482.1, 339.2 480.6 Q 338.4 479.1, 337.4 478.3 L 337.8 477.1 Q 339.2 477.8, 340.4 479.6 Q 341.7 481.4, 342.3 483.6 Q 342.9 485.7, 342.9 488.2 " fill="#7E56C2"/>
</g>
  </g>
</svg>
