<?xml version="1.0" encoding="UTF-8" standalone="no"?>
<svg
   version="1.1"
   width="1024.0px"
   viewBox="0 0 1024.0 512.0"
   height="512.0px"
   id="svg39"
   sodipodi:docname="Buten_Edit.svg"
   inkscape:version="1.3.2 (091e20e, 2023-11-25, custom)"
   xmlns:inkscape="http://www.inkscape.org/namespaces/inkscape"
   xmlns:sodipodi="http://sodipodi.sourceforge.net/DTD/sodipodi-0.dtd"
   xmlns="http://www.w3.org/2000/svg"
   xmlns:svg="http://www.w3.org/2000/svg">
  <defs
     id="defs39" />
  <sodipodi:namedview
     id="namedview39"
     pagecolor="#505050"
     bordercolor="#eeeeee"
     borderopacity="1"
     inkscape:showpageshadow="0"
     inkscape:pageopacity="0"
     inkscape:pagecheckerboard="0"
     inkscape:deskcolor="#505050"
     inkscape:zoom="0.97949219"
     inkscape:cx="933.13659"
     inkscape:cy="136.29511"
     inkscape:window-width="2560"
     inkscape:window-height="1377"
     inkscape:window-x="1912"
     inkscape:window-y="-8"
     inkscape:window-maximized="1"
     inkscape:current-layer="g38" />
  <g
     id="g39">
    <g
       transform="translate(0.0, 0.0) scale(1 1) "
       id="g20">
      <!-- END OF HEADER -->
      <rect
         style="opacity:1.0;fill:#FF00FF00;stroke:none"
         width="512.0"
         height="512.0"
         x="0.0"
         y="0.0"
         id="rect1" />
      <path
         class="bond-0 atom-0 atom-1"
         d="M 23.3,236.0 L 185.5,166.9"
         style="fill:none;fill-rule:evenodd;stroke:#7E56C2;stroke-width:4.0px;stroke-linecap:butt;stroke-linejoin:miter;stroke-opacity:1"
         id="path1" />
      <path
         class="bond-1 atom-1 atom-2"
         d="M 185.5,166.9 L 326.5,272.9"
         style="fill:none;fill-rule:evenodd;stroke:#7E56C2;stroke-width:4.0px;stroke-linecap:butt;stroke-linejoin:miter;stroke-opacity:1"
         id="path2" />
      <path
         class="bond-1 atom-1 atom-2"
         d="M 181.8,197.2 L 310.6,294.1"
         style="fill:none;fill-rule:evenodd;stroke:#7E56C2;stroke-width:4.0px;stroke-linecap:butt;stroke-linejoin:miter;stroke-opacity:1"
         id="path3" />
      <path
         class="bond-2 atom-2 atom-3"
         d="M 326.5,272.9 L 488.7,203.9"
         style="fill:none;fill-rule:evenodd;stroke:#7E56C2;stroke-width:4.0px;stroke-linecap:butt;stroke-linejoin:miter;stroke-opacity:1"
         id="path4" />
      <path
         d="M 177.4,170.4 L 185.5,166.9 L 192.6,172.2"
         style="fill:none;stroke:#7E56C2;stroke-width:4.0px;stroke-linecap:butt;stroke-linejoin:miter;stroke-opacity:1;"
         id="path5" />
      <path
         d="M 319.4,267.6 L 326.5,272.9 L 334.6,269.5"
         style="fill:none;stroke:#7E56C2;stroke-width:4.0px;stroke-linecap:butt;stroke-linejoin:miter;stroke-opacity:1;"
         id="path6" />
      <path
         class="legend"
         d="M 171.0 479.2 L 171.0 483.1 L 173.9 483.1 L 173.9 485.2 L 171.0 485.2 L 171.0 495.0 Q 171.0 495.9, 171.4 496.4 Q 171.8 496.9, 172.7 496.9 Q 173.2 496.9, 174.0 496.7 L 174.0 498.9 Q 172.9 499.2, 171.9 499.2 Q 170.1 499.2, 169.2 498.1 Q 168.3 497.0, 168.3 495.0 L 168.3 485.2 L 165.4 485.2 L 165.4 483.1 L 168.3 483.1 L 168.3 479.2 L 171.0 479.2 "
         fill="#7E56C2"
         id="path7" />
      <path
         class="legend"
         d="M 183.8 485.5 Q 183.2 485.4, 182.4 485.4 Q 179.8 485.4, 178.8 487.7 L 178.8 498.9 L 176.1 498.9 L 176.1 483.1 L 178.8 483.1 L 178.8 484.9 Q 180.1 482.8, 182.6 482.8 Q 183.4 482.8, 183.8 483.0 L 183.8 485.5 "
         fill="#7E56C2"
         id="path8" />
      <path
         class="legend"
         d="M 195.5 498.9 Q 195.3 498.4, 195.2 497.2 Q 193.3 499.2, 190.7 499.2 Q 188.3 499.2, 186.8 497.9 Q 185.3 496.5, 185.3 494.5 Q 185.3 492.0, 187.2 490.7 Q 189.1 489.3, 192.5 489.3 L 195.1 489.3 L 195.1 488.1 Q 195.1 486.6, 194.3 485.8 Q 193.4 484.9, 191.8 484.9 Q 190.3 484.9, 189.3 485.7 Q 188.4 486.4, 188.4 487.5 L 185.6 487.5 Q 185.6 486.3, 186.5 485.2 Q 187.3 484.1, 188.7 483.4 Q 190.2 482.8, 191.9 482.8 Q 194.7 482.8, 196.2 484.1 Q 197.8 485.5, 197.8 487.9 L 197.8 495.2 Q 197.8 497.4, 198.4 498.7 L 198.4 498.9 L 195.5 498.9 M 191.0 496.8 Q 192.3 496.8, 193.5 496.2 Q 194.6 495.5, 195.1 494.5 L 195.1 491.2 L 193.0 491.2 Q 188.0 491.2, 188.0 494.1 Q 188.0 495.4, 188.9 496.1 Q 189.7 496.8, 191.0 496.8 "
         fill="#7E56C2"
         id="path9" />
      <path
         class="legend"
         d="M 203.7 483.1 L 203.8 485.0 Q 205.6 482.8, 208.5 482.8 Q 213.5 482.8, 213.6 488.4 L 213.6 498.9 L 210.9 498.9 L 210.9 488.4 Q 210.9 486.7, 210.1 485.9 Q 209.3 485.1, 207.7 485.1 Q 206.4 485.1, 205.4 485.8 Q 204.4 486.5, 203.8 487.6 L 203.8 498.9 L 201.1 498.9 L 201.1 483.1 L 203.7 483.1 "
         fill="#7E56C2"
         id="path10" />
      <path
         class="legend"
         d="M 226.6 494.7 Q 226.6 493.6, 225.8 493.0 Q 224.9 492.4, 222.9 491.9 Q 220.8 491.5, 219.6 490.9 Q 218.4 490.3, 217.8 489.4 Q 217.2 488.6, 217.2 487.4 Q 217.2 485.5, 218.9 484.1 Q 220.5 482.8, 223.1 482.8 Q 225.8 482.8, 227.5 484.2 Q 229.1 485.5, 229.1 487.7 L 226.4 487.7 Q 226.4 486.6, 225.5 485.8 Q 224.5 485.0, 223.1 485.0 Q 221.6 485.0, 220.8 485.6 Q 219.9 486.3, 219.9 487.3 Q 219.9 488.3, 220.7 488.8 Q 221.5 489.3, 223.5 489.8 Q 225.6 490.2, 226.8 490.8 Q 228.1 491.5, 228.7 492.4 Q 229.3 493.2, 229.3 494.5 Q 229.3 496.6, 227.6 497.9 Q 225.9 499.2, 223.2 499.2 Q 221.3 499.2, 219.8 498.5 Q 218.4 497.9, 217.5 496.7 Q 216.7 495.4, 216.7 494.0 L 219.4 494.0 Q 219.5 495.4, 220.5 496.2 Q 221.5 497.0, 223.2 497.0 Q 224.7 497.0, 225.6 496.4 Q 226.6 495.7, 226.6 494.7 "
         fill="#7E56C2"
         id="path11" />
      <path
         class="legend"
         d="M 239.0 491.0 L 231.9 491.0 L 231.9 488.7 L 239.0 488.7 L 239.0 491.0 "
         fill="#7E56C2"
         id="path12" />
      <path
         class="legend"
         d="M 240.7 498.9 L 240.7 477.6 L 247.7 477.6 Q 251.1 477.6, 252.9 479.0 Q 254.6 480.4, 254.6 483.3 Q 254.6 484.8, 253.8 485.9 Q 252.9 487.1, 251.5 487.7 Q 253.2 488.2, 254.2 489.5 Q 255.2 490.9, 255.2 492.8 Q 255.2 495.6, 253.3 497.3 Q 251.5 498.9, 248.1 498.9 L 240.7 498.9 M 243.5 488.9 L 243.5 496.6 L 248.1 496.6 Q 250.1 496.6, 251.2 495.6 Q 252.4 494.6, 252.4 492.8 Q 252.4 488.9, 248.2 488.9 L 243.5 488.9 M 243.5 486.7 L 247.7 486.7 Q 249.6 486.7, 250.7 485.8 Q 251.8 484.8, 251.8 483.2 Q 251.8 481.5, 250.8 480.7 Q 249.7 479.9, 247.7 479.9 L 243.5 479.9 L 243.5 486.7 "
         fill="#7E56C2"
         id="path13" />
      <path
         class="legend"
         d="M 267.8 497.3 Q 266.2 499.2, 263.2 499.2 Q 260.6 499.2, 259.3 497.7 Q 258.0 496.3, 258.0 493.4 L 258.0 483.1 L 260.7 483.1 L 260.7 493.3 Q 260.7 496.9, 263.6 496.9 Q 266.7 496.9, 267.7 494.6 L 267.7 483.1 L 270.4 483.1 L 270.4 498.9 L 267.9 498.9 L 267.8 497.3 "
         fill="#7E56C2"
         id="path14" />
      <path
         class="legend"
         d="M 279.2 479.2 L 279.2 483.1 L 282.1 483.1 L 282.1 485.2 L 279.2 485.2 L 279.2 495.0 Q 279.2 495.9, 279.6 496.4 Q 280.0 496.9, 280.9 496.9 Q 281.4 496.9, 282.2 496.7 L 282.2 498.9 Q 281.2 499.2, 280.1 499.2 Q 278.3 499.2, 277.4 498.1 Q 276.5 497.0, 276.5 495.0 L 276.5 485.2 L 273.6 485.2 L 273.6 483.1 L 276.5 483.1 L 276.5 479.2 L 279.2 479.2 "
         fill="#7E56C2"
         id="path15" />
      <path
         class="legend"
         d="M 291.5 491.0 L 284.3 491.0 L 284.3 488.7 L 291.5 488.7 L 291.5 491.0 "
         fill="#7E56C2"
         id="path16" />
      <path
         class="legend"
         d="M 307.5 498.9 L 293.6 498.9 L 293.6 497.0 L 301.0 488.8 Q 302.6 486.9, 303.2 485.7 Q 303.8 484.6, 303.8 483.3 Q 303.8 481.7, 302.8 480.6 Q 301.8 479.5, 300.1 479.5 Q 298.1 479.5, 297.0 480.7 Q 295.9 481.8, 295.9 483.9 L 293.2 483.9 Q 293.2 480.9, 295.1 479.1 Q 297.0 477.3, 300.1 477.3 Q 303.1 477.3, 304.8 478.9 Q 306.6 480.4, 306.6 483.0 Q 306.6 486.1, 302.6 490.5 L 296.8 496.7 L 307.5 496.7 L 307.5 498.9 "
         fill="#7E56C2"
         id="path17" />
      <path
         class="legend"
         d="M 316.9 491.0 L 309.7 491.0 L 309.7 488.7 L 316.9 488.7 L 316.9 491.0 "
         fill="#7E56C2"
         id="path18" />
      <path
         class="legend"
         d="M 325.8 499.2 Q 322.6 499.2, 320.6 497.1 Q 318.6 495.0, 318.6 491.4 L 318.6 490.9 Q 318.6 488.6, 319.4 486.7 Q 320.4 484.9, 322.0 483.8 Q 323.6 482.8, 325.5 482.8 Q 328.6 482.8, 330.3 484.8 Q 332.0 486.8, 332.0 490.6 L 332.0 491.8 L 321.3 491.8 Q 321.3 494.1, 322.6 495.6 Q 323.9 497.0, 326.0 497.0 Q 327.4 497.0, 328.4 496.4 Q 329.4 495.8, 330.1 494.8 L 331.8 496.1 Q 329.8 499.2, 325.8 499.2 M 325.5 485.0 Q 323.8 485.0, 322.7 486.2 Q 321.6 487.4, 321.3 489.5 L 329.3 489.5 L 329.3 489.3 Q 329.2 487.3, 328.2 486.1 Q 327.2 485.0, 325.5 485.0 "
         fill="#7E56C2"
         id="path19" />
      <path
         class="legend"
         d="M 336.7 483.1 L 336.8 485.0 Q 338.6 482.8, 341.6 482.8 Q 346.6 482.8, 346.6 488.4 L 346.6 498.9 L 343.9 498.9 L 343.9 488.4 Q 343.9 486.7, 343.1 485.9 Q 342.4 485.1, 340.7 485.1 Q 339.4 485.1, 338.4 485.8 Q 337.4 486.5, 336.9 487.6 L 336.9 498.9 L 334.2 498.9 L 334.2 483.1 L 336.7 483.1 "
         fill="#7E56C2"
         id="path20" />
    </g>
    <g
       transform="translate(512.0, 0.0) scale(1 1) "
       id="g38">
      <!-- END OF HEADER -->
      <rect
         style="opacity:1.0;fill:#FF00FF00;stroke:none"
         width="512.0"
         height="512.0"
         x="0.0"
         y="0.0"
         id="rect20" />
      <path
         class="bond-0 atom-0 atom-1"
         d="M 372.92657,415.19705 372.69622,245.75522"
         style="fill:none;fill-rule:evenodd;stroke:#7e56c2;stroke-width:3.88382px;stroke-linecap:butt;stroke-linejoin:miter;stroke-opacity:1"
         id="path39-6"
         sodipodi:nodetypes="cc" />
      <path
         class="bond-0 atom-0 atom-1"
         d="m 70.263111,210.47657 162.199999,-69.1"
         style="fill:none;fill-rule:evenodd;stroke:#7e56c2;stroke-width:4px;stroke-linecap:butt;stroke-linejoin:miter;stroke-opacity:1"
         id="path21" />
      <path
         class="bond-1 atom-1 atom-2"
         d="m 232.46311,141.37657 141,106"
         style="fill:none;fill-rule:evenodd;stroke:#7e56c2;stroke-width:4px;stroke-linecap:butt;stroke-linejoin:miter;stroke-opacity:1"
         id="path22" />
      <path
         class="bond-1 atom-1 atom-2"
         d="m 228.76311,171.67657 128.8,96.9"
         style="fill:none;fill-rule:evenodd;stroke:#7e56c2;stroke-width:4px;stroke-linecap:butt;stroke-linejoin:miter;stroke-opacity:1"
         id="path23" />
      <path
         d="m 224.36311,144.87657 8.1,-3.5 7.1,5.3"
         style="fill:none;stroke:#7e56c2;stroke-width:4px;stroke-linecap:butt;stroke-linejoin:miter;stroke-opacity:1"
         id="path25" />
      <path
         class="legend"
         d="M 187.4 497.0 Q 188.8 497.0, 189.9 496.1 Q 191.0 495.2, 191.1 493.9 L 193.7 493.9 Q 193.6 495.3, 192.7 496.5 Q 191.9 497.7, 190.4 498.5 Q 189.0 499.2, 187.4 499.2 Q 184.2 499.2, 182.2 497.0 Q 180.3 494.9, 180.3 491.1 L 180.3 490.7 Q 180.3 488.4, 181.2 486.6 Q 182.0 484.8, 183.6 483.8 Q 185.2 482.8, 187.4 482.8 Q 190.0 482.8, 191.8 484.4 Q 193.6 486.0, 193.7 488.5 L 191.1 488.5 Q 191.0 487.0, 190.0 486.0 Q 188.9 485.0, 187.4 485.0 Q 185.3 485.0, 184.2 486.5 Q 183.0 488.0, 183.0 490.8 L 183.0 491.3 Q 183.0 494.0, 184.2 495.5 Q 185.3 497.0, 187.4 497.0 "
         fill="#7E56C2"
         id="path27" />
      <path
         class="legend"
         d="M 198.7 498.9 L 196.0 498.9 L 196.0 483.1 L 198.7 483.1 L 198.7 498.9 M 195.7 478.9 Q 195.7 478.2, 196.1 477.7 Q 196.5 477.3, 197.3 477.3 Q 198.1 477.3, 198.5 477.7 Q 198.9 478.2, 198.9 478.9 Q 198.9 479.5, 198.5 480.0 Q 198.1 480.4, 197.3 480.4 Q 196.5 480.4, 196.1 480.0 Q 195.7 479.5, 195.7 478.9 "
         fill="#7E56C2"
         id="path28" />
      <path
         class="legend"
         d="M 211.9 494.7 Q 211.9 493.6, 211.1 493.0 Q 210.2 492.4, 208.2 491.9 Q 206.1 491.5, 204.9 490.9 Q 203.7 490.3, 203.1 489.4 Q 202.5 488.6, 202.5 487.4 Q 202.5 485.5, 204.2 484.1 Q 205.8 482.8, 208.4 482.8 Q 211.1 482.8, 212.8 484.2 Q 214.5 485.5, 214.5 487.7 L 211.7 487.7 Q 211.7 486.6, 210.8 485.8 Q 209.8 485.0, 208.4 485.0 Q 206.9 485.0, 206.1 485.6 Q 205.3 486.3, 205.3 487.3 Q 205.3 488.3, 206.0 488.8 Q 206.8 489.3, 208.8 489.8 Q 210.9 490.2, 212.1 490.8 Q 213.4 491.5, 214.0 492.4 Q 214.6 493.2, 214.6 494.5 Q 214.6 496.6, 212.9 497.9 Q 211.2 499.2, 208.5 499.2 Q 206.6 499.2, 205.1 498.5 Q 203.7 497.9, 202.8 496.7 Q 202.0 495.4, 202.0 494.0 L 204.7 494.0 Q 204.8 495.4, 205.8 496.2 Q 206.8 497.0, 208.5 497.0 Q 210.0 497.0, 211.0 496.4 Q 211.9 495.7, 211.9 494.7 "
         fill="#7E56C2"
         id="path29" />
      <path
         class="legend"
         d="M 224.3 491.0 L 217.1 491.0 L 217.1 488.7 L 224.3 488.7 L 224.3 491.0 "
         fill="#7E56C2"
         id="path30" />
      <path
         class="legend"
         d="M 225.9 498.9 L 225.9 477.6 L 232.9 477.6 Q 236.4 477.6, 238.1 479.0 Q 239.9 480.4, 239.9 483.3 Q 239.9 484.8, 239.0 485.9 Q 238.2 487.1, 236.7 487.7 Q 238.4 488.2, 239.4 489.5 Q 240.4 490.9, 240.4 492.8 Q 240.4 495.6, 238.6 497.3 Q 236.7 498.9, 233.3 498.9 L 225.9 498.9 M 228.7 488.9 L 228.7 496.6 L 233.4 496.6 Q 235.3 496.6, 236.5 495.6 Q 237.6 494.6, 237.6 492.8 Q 237.6 488.9, 233.4 488.9 L 228.7 488.9 M 228.7 486.7 L 233.0 486.7 Q 234.8 486.7, 235.9 485.8 Q 237.0 484.8, 237.0 483.2 Q 237.0 481.5, 236.0 480.7 Q 235.0 479.9, 232.9 479.9 L 228.7 479.9 L 228.7 486.7 "
         fill="#7E56C2"
         id="path31" />
      <path
         class="legend"
         d="M 253.0 497.3 Q 251.4 499.2, 248.4 499.2 Q 245.8 499.2, 244.5 497.7 Q 243.2 496.3, 243.2 493.4 L 243.2 483.1 L 245.9 483.1 L 245.9 493.3 Q 245.9 496.9, 248.8 496.9 Q 251.9 496.9, 253.0 494.6 L 253.0 483.1 L 255.7 483.1 L 255.7 498.9 L 253.1 498.9 L 253.0 497.3 "
         fill="#7E56C2"
         id="path32" />
      <path
         class="legend"
         d="M 264.4 479.2 L 264.4 483.1 L 267.3 483.1 L 267.3 485.2 L 264.4 485.2 L 264.4 495.0 Q 264.4 495.9, 264.8 496.4 Q 265.2 496.9, 266.1 496.9 Q 266.6 496.9, 267.4 496.7 L 267.4 498.9 Q 266.3 499.2, 265.3 499.2 Q 263.5 499.2, 262.6 498.1 Q 261.7 497.0, 261.7 495.0 L 261.7 485.2 L 258.8 485.2 L 258.8 483.1 L 261.7 483.1 L 261.7 479.2 L 264.4 479.2 "
         fill="#7E56C2"
         id="path33" />
      <path
         class="legend"
         d="M 276.7 491.0 L 269.5 491.0 L 269.5 488.7 L 276.7 488.7 L 276.7 491.0 "
         fill="#7E56C2"
         id="path34" />
      <path
         class="legend"
         d="M 292.7 498.9 L 278.7 498.9 L 278.7 497.0 L 286.1 488.8 Q 287.7 486.9, 288.3 485.7 Q 289.0 484.6, 289.0 483.3 Q 289.0 481.7, 288.0 480.6 Q 287.0 479.5, 285.3 479.5 Q 283.2 479.5, 282.1 480.7 Q 281.0 481.8, 281.0 483.9 L 278.3 483.9 Q 278.3 480.9, 280.2 479.1 Q 282.1 477.3, 285.3 477.3 Q 288.2 477.3, 290.0 478.9 Q 291.7 480.4, 291.7 483.0 Q 291.7 486.1, 287.7 490.5 L 282.0 496.7 L 292.7 496.7 L 292.7 498.9 "
         fill="#7E56C2"
         id="path35" />
      <path
         class="legend"
         d="M 302.0 491.0 L 294.8 491.0 L 294.8 488.7 L 302.0 488.7 L 302.0 491.0 "
         fill="#7E56C2"
         id="path36" />
      <path
         class="legend"
         d="M 310.9 499.2 Q 307.7 499.2, 305.6 497.1 Q 303.6 495.0, 303.6 491.4 L 303.6 490.9 Q 303.6 488.6, 304.5 486.7 Q 305.4 484.9, 307.0 483.8 Q 308.7 482.8, 310.5 482.8 Q 313.6 482.8, 315.4 484.8 Q 317.1 486.8, 317.1 490.6 L 317.1 491.8 L 306.3 491.8 Q 306.4 494.1, 307.7 495.6 Q 309.0 497.0, 311.0 497.0 Q 312.5 497.0, 313.5 496.4 Q 314.5 495.8, 315.2 494.8 L 316.9 496.1 Q 314.9 499.2, 310.9 499.2 M 310.5 485.0 Q 308.9 485.0, 307.8 486.2 Q 306.7 487.4, 306.4 489.5 L 314.4 489.5 L 314.4 489.3 Q 314.2 487.3, 313.2 486.1 Q 312.2 485.0, 310.5 485.0 "
         fill="#7E56C2"
         id="path37" />
      <path
         class="legend"
         d="M 321.8 483.1 L 321.9 485.0 Q 323.7 482.8, 326.6 482.8 Q 331.6 482.8, 331.7 488.4 L 331.7 498.9 L 329.0 498.9 L 329.0 488.4 Q 328.9 486.7, 328.2 485.9 Q 327.4 485.1, 325.8 485.1 Q 324.5 485.1, 323.5 485.8 Q 322.5 486.5, 321.9 487.6 L 321.9 498.9 L 319.2 498.9 L 319.2 483.1 L 321.8 483.1 "
         fill="#7E56C2"
         id="path38" />
      <path
         class="bond-0 atom-0 atom-1"
         d="m 70.263111,210.47657 162.199999,-69.1"
         style="fill:none;fill-rule:evenodd;stroke:#7e56c2;stroke-width:4px;stroke-linecap:butt;stroke-linejoin:miter;stroke-opacity:1"
         id="path39" />
    </g>
  </g>
</svg>
