<?xml version='1.0' encoding='ASCII' standalone='yes'?>
<svg xmlns="http://www.w3.org/2000/svg" xmlns:xlink="http://www.w3.org/1999/xlink" version="1.1" width="1024.0px" viewBox="0 0 1024.0 512.0" height="512.0px">
  <g>
    <g transform="translate(0.0, 0.0) scale(1 1) "><!-- END OF HEADER -->
<rect style="opacity:1.0;fill:#FF00FF00;stroke:none" width="512.0" height="512.0" x="0.0" y="0.0"> </rect>
<path class="bond-0 atom-1 atom-0" d="M 316.3,236.4 L 403.9,236.2 L 395.7,248.2 Z" style="fill:#7E56C2;fill-rule:evenodd;fill-opacity:1;stroke:#7E56C2;stroke-width:1.0px;stroke-linecap:butt;stroke-linejoin:miter;stroke-opacity:1;"/>
<path class="bond-1 atom-1 atom-2" d="M 316.3,236.4 L 269.4,305.5" style="fill:none;fill-rule:evenodd;stroke:#7E56C2;stroke-width:4.0px;stroke-linecap:butt;stroke-linejoin:miter;stroke-opacity:1"/>
<path class="bond-2 atom-2 atom-3" d="M 269.4,305.5 L 186.2,299.4" style="fill:none;fill-rule:evenodd;stroke:#7E56C2;stroke-width:4.0px;stroke-linecap:butt;stroke-linejoin:miter;stroke-opacity:1"/>
<path class="bond-3 atom-3 atom-4" d="M 186.2,299.4 L 149.8,224.2" style="fill:none;fill-rule:evenodd;stroke:#7E56C2;stroke-width:4.0px;stroke-linecap:butt;stroke-linejoin:miter;stroke-opacity:1"/>
<path class="bond-4 atom-4 atom-5" d="M 149.8,224.2 L 196.7,155.1" style="fill:none;fill-rule:evenodd;stroke:#7E56C2;stroke-width:4.0px;stroke-linecap:butt;stroke-linejoin:miter;stroke-opacity:1"/>
<path class="bond-5 atom-5 atom-6" d="M 196.7,155.1 L 231.2,157.7" style="fill:none;fill-rule:evenodd;stroke:#7E56C2;stroke-width:4.0px;stroke-linecap:butt;stroke-linejoin:miter;stroke-opacity:1"/>
<path class="bond-5 atom-5 atom-6" d="M 231.2,157.7 L 265.8,160.2" style="fill:none;fill-rule:evenodd;stroke:#FF0000;stroke-width:4.0px;stroke-linecap:butt;stroke-linejoin:miter;stroke-opacity:1"/>
<path class="bond-6 atom-5 atom-7" d="M 196.7,155.1 L 182.8,126.3" style="fill:none;fill-rule:evenodd;stroke:#7E56C2;stroke-width:4.0px;stroke-linecap:butt;stroke-linejoin:miter;stroke-opacity:1"/>
<path class="bond-6 atom-5 atom-7" d="M 182.8,126.3 L 168.8,97.5" style="fill:none;fill-rule:evenodd;stroke:#FF0000;stroke-width:4.0px;stroke-linecap:butt;stroke-linejoin:miter;stroke-opacity:1"/>
<path class="bond-7 atom-4 atom-8" d="M 145.3,224.3 L 145.4,223.5" style="fill:none;fill-rule:evenodd;stroke:#7E56C2;stroke-width:2.0px;stroke-linecap:butt;stroke-linejoin:miter;stroke-opacity:1"/>
<path class="bond-7 atom-4 atom-8" d="M 140.9,224.4 L 141.0,222.7" style="fill:none;fill-rule:evenodd;stroke:#7E56C2;stroke-width:2.0px;stroke-linecap:butt;stroke-linejoin:miter;stroke-opacity:1"/>
<path class="bond-7 atom-4 atom-8" d="M 136.4,224.5 L 136.6,222.0" style="fill:none;fill-rule:evenodd;stroke:#7E56C2;stroke-width:2.0px;stroke-linecap:butt;stroke-linejoin:miter;stroke-opacity:1"/>
<path class="bond-7 atom-4 atom-8" d="M 132.0,224.6 L 132.2,221.3" style="fill:none;fill-rule:evenodd;stroke:#7E56C2;stroke-width:2.0px;stroke-linecap:butt;stroke-linejoin:miter;stroke-opacity:1"/>
<path class="bond-7 atom-4 atom-8" d="M 127.5,224.7 L 127.8,220.5" style="fill:none;fill-rule:evenodd;stroke:#7E56C2;stroke-width:2.0px;stroke-linecap:butt;stroke-linejoin:miter;stroke-opacity:1"/>
<path class="bond-7 atom-4 atom-8" d="M 123.1,224.8 L 123.4,219.8" style="fill:none;fill-rule:evenodd;stroke:#7E56C2;stroke-width:2.0px;stroke-linecap:butt;stroke-linejoin:miter;stroke-opacity:1"/>
<path class="bond-7 atom-4 atom-8" d="M 118.6,224.9 L 119.0,219.1" style="fill:none;fill-rule:evenodd;stroke:#7E56C2;stroke-width:2.0px;stroke-linecap:butt;stroke-linejoin:miter;stroke-opacity:1"/>
<path class="bond-7 atom-4 atom-8" d="M 114.2,225.0 L 114.7,218.3" style="fill:none;fill-rule:evenodd;stroke:#FF0000;stroke-width:2.0px;stroke-linecap:butt;stroke-linejoin:miter;stroke-opacity:1"/>
<path class="bond-7 atom-4 atom-8" d="M 109.7,225.1 L 110.3,217.6" style="fill:none;fill-rule:evenodd;stroke:#FF0000;stroke-width:2.0px;stroke-linecap:butt;stroke-linejoin:miter;stroke-opacity:1"/>
<path class="bond-7 atom-4 atom-8" d="M 105.3,225.2 L 105.9,216.8" style="fill:none;fill-rule:evenodd;stroke:#FF0000;stroke-width:2.0px;stroke-linecap:butt;stroke-linejoin:miter;stroke-opacity:1"/>
<path class="bond-7 atom-4 atom-8" d="M 100.8,225.3 L 101.5,216.1" style="fill:none;fill-rule:evenodd;stroke:#FF0000;stroke-width:2.0px;stroke-linecap:butt;stroke-linejoin:miter;stroke-opacity:1"/>
<path class="bond-7 atom-4 atom-8" d="M 96.4,225.3 L 97.1,215.4" style="fill:none;fill-rule:evenodd;stroke:#FF0000;stroke-width:2.0px;stroke-linecap:butt;stroke-linejoin:miter;stroke-opacity:1"/>
<path class="bond-7 atom-4 atom-8" d="M 91.9,225.4 L 92.7,214.6" style="fill:none;fill-rule:evenodd;stroke:#FF0000;stroke-width:2.0px;stroke-linecap:butt;stroke-linejoin:miter;stroke-opacity:1"/>
<path class="bond-7 atom-4 atom-8" d="M 87.5,225.5 L 88.3,213.9" style="fill:none;fill-rule:evenodd;stroke:#FF0000;stroke-width:2.0px;stroke-linecap:butt;stroke-linejoin:miter;stroke-opacity:1"/>
<path class="bond-7 atom-4 atom-8" d="M 83.0,225.6 L 83.9,213.1" style="fill:none;fill-rule:evenodd;stroke:#FF0000;stroke-width:2.0px;stroke-linecap:butt;stroke-linejoin:miter;stroke-opacity:1"/>
<path class="bond-8 atom-3 atom-9" d="M 186.2,299.4 L 172.1,325.7 L 166.9,322.2 Z" style="fill:#7E56C2;fill-rule:evenodd;fill-opacity:1;stroke:#7E56C2;stroke-width:1.0px;stroke-linecap:butt;stroke-linejoin:miter;stroke-opacity:1;"/>
<path class="bond-8 atom-3 atom-9" d="M 172.1,325.7 L 147.6,345.0 L 158.0,352.1 Z" style="fill:#FF0000;fill-rule:evenodd;fill-opacity:1;stroke:#FF0000;stroke-width:1.0px;stroke-linecap:butt;stroke-linejoin:miter;stroke-opacity:1;"/>
<path class="bond-8 atom-3 atom-9" d="M 172.1,325.7 L 166.9,322.2 L 147.6,345.0 Z" style="fill:#FF0000;fill-rule:evenodd;fill-opacity:1;stroke:#FF0000;stroke-width:1.0px;stroke-linecap:butt;stroke-linejoin:miter;stroke-opacity:1;"/>
<path class="bond-9 atom-2 atom-10" d="M 271.8,309.2 L 270.9,309.6" style="fill:none;fill-rule:evenodd;stroke:#7E56C2;stroke-width:2.0px;stroke-linecap:butt;stroke-linejoin:miter;stroke-opacity:1"/>
<path class="bond-9 atom-2 atom-10" d="M 274.1,313.0 L 272.5,313.7" style="fill:none;fill-rule:evenodd;stroke:#7E56C2;stroke-width:2.0px;stroke-linecap:butt;stroke-linejoin:miter;stroke-opacity:1"/>
<path class="bond-9 atom-2 atom-10" d="M 276.4,316.7 L 274.0,317.9" style="fill:none;fill-rule:evenodd;stroke:#7E56C2;stroke-width:2.0px;stroke-linecap:butt;stroke-linejoin:miter;stroke-opacity:1"/>
<path class="bond-9 atom-2 atom-10" d="M 278.7,320.5 L 275.5,322.0" style="fill:none;fill-rule:evenodd;stroke:#7E56C2;stroke-width:2.0px;stroke-linecap:butt;stroke-linejoin:miter;stroke-opacity:1"/>
<path class="bond-9 atom-2 atom-10" d="M 281.0,324.2 L 277.0,326.2" style="fill:none;fill-rule:evenodd;stroke:#7E56C2;stroke-width:2.0px;stroke-linecap:butt;stroke-linejoin:miter;stroke-opacity:1"/>
<path class="bond-9 atom-2 atom-10" d="M 283.3,328.0 L 278.5,330.3" style="fill:none;fill-rule:evenodd;stroke:#7E56C2;stroke-width:2.0px;stroke-linecap:butt;stroke-linejoin:miter;stroke-opacity:1"/>
<path class="bond-9 atom-2 atom-10" d="M 285.6,331.7 L 280.0,334.4" style="fill:none;fill-rule:evenodd;stroke:#7E56C2;stroke-width:2.0px;stroke-linecap:butt;stroke-linejoin:miter;stroke-opacity:1"/>
<path class="bond-9 atom-2 atom-10" d="M 287.9,335.5 L 281.5,338.6" style="fill:none;fill-rule:evenodd;stroke:#FF0000;stroke-width:2.0px;stroke-linecap:butt;stroke-linejoin:miter;stroke-opacity:1"/>
<path class="bond-9 atom-2 atom-10" d="M 290.2,339.2 L 283.0,342.7" style="fill:none;fill-rule:evenodd;stroke:#FF0000;stroke-width:2.0px;stroke-linecap:butt;stroke-linejoin:miter;stroke-opacity:1"/>
<path class="bond-9 atom-2 atom-10" d="M 292.6,343.0 L 284.5,346.9" style="fill:none;fill-rule:evenodd;stroke:#FF0000;stroke-width:2.0px;stroke-linecap:butt;stroke-linejoin:miter;stroke-opacity:1"/>
<path class="bond-9 atom-2 atom-10" d="M 294.9,346.7 L 286.0,351.0" style="fill:none;fill-rule:evenodd;stroke:#FF0000;stroke-width:2.0px;stroke-linecap:butt;stroke-linejoin:miter;stroke-opacity:1"/>
<path class="bond-9 atom-2 atom-10" d="M 297.2,350.5 L 287.5,355.1" style="fill:none;fill-rule:evenodd;stroke:#FF0000;stroke-width:2.0px;stroke-linecap:butt;stroke-linejoin:miter;stroke-opacity:1"/>
<path class="bond-9 atom-2 atom-10" d="M 299.5,354.2 L 289.0,359.3" style="fill:none;fill-rule:evenodd;stroke:#FF0000;stroke-width:2.0px;stroke-linecap:butt;stroke-linejoin:miter;stroke-opacity:1"/>
<path class="bond-9 atom-2 atom-10" d="M 301.8,358.0 L 290.5,363.4" style="fill:none;fill-rule:evenodd;stroke:#FF0000;stroke-width:2.0px;stroke-linecap:butt;stroke-linejoin:miter;stroke-opacity:1"/>
<path class="bond-10 atom-0 atom-11" d="M 395.7,248.2 L 417.1,216.7" style="fill:none;fill-rule:evenodd;stroke:#7E56C2;stroke-width:4.0px;stroke-linecap:butt;stroke-linejoin:miter;stroke-opacity:1"/>
<path class="bond-10 atom-0 atom-11" d="M 417.1,216.7 L 434.6,190.9" style="fill:none;fill-rule:evenodd;stroke:#FF0000;stroke-width:4.0px;stroke-linecap:butt;stroke-linejoin:miter;stroke-opacity:1"/>
<path class="bond-11 atom-6 atom-1" d="M 288.5,178.8 L 302.4,207.6" style="fill:none;fill-rule:evenodd;stroke:#FF0000;stroke-width:4.0px;stroke-linecap:butt;stroke-linejoin:miter;stroke-opacity:1"/>
<path class="bond-11 atom-6 atom-1" d="M 302.4,207.6 L 316.3,236.4" style="fill:none;fill-rule:evenodd;stroke:#7E56C2;stroke-width:4.0px;stroke-linecap:butt;stroke-linejoin:miter;stroke-opacity:1"/>
<path d="M 314.0,239.8 L 316.3,236.4 L 315.6,234.9" style="fill:none;stroke:#7E56C2;stroke-width:4.0px;stroke-linecap:butt;stroke-linejoin:miter;stroke-opacity:1;"/>
<path d="M 271.8,302.0 L 269.4,305.5 L 265.3,305.2" style="fill:none;stroke:#7E56C2;stroke-width:4.0px;stroke-linecap:butt;stroke-linejoin:miter;stroke-opacity:1;"/>
<path d="M 190.3,299.7 L 186.2,299.4 L 184.3,295.6" style="fill:none;stroke:#7E56C2;stroke-width:4.0px;stroke-linecap:butt;stroke-linejoin:miter;stroke-opacity:1;"/>
<path d="M 151.6,228.0 L 149.8,224.2 L 152.1,220.8" style="fill:none;stroke:#7E56C2;stroke-width:4.0px;stroke-linecap:butt;stroke-linejoin:miter;stroke-opacity:1;"/>
<path class="atom-6" d="M 291.4 162.3 Q 291.4 166.5, 290.0 169.6 Q 288.6 172.7, 286.0 174.4 Q 283.4 176.0, 280.0 176.0 Q 276.6 176.0, 274.0 174.4 Q 271.4 172.7, 270.0 169.7 Q 268.6 166.6, 268.5 162.6 L 268.5 160.5 Q 268.5 156.4, 270.0 153.3 Q 271.4 150.1, 274.0 148.5 Q 276.6 146.8, 280.0 146.8 Q 283.4 146.8, 286.0 148.5 Q 288.6 150.1, 290.0 153.3 Q 291.4 156.4, 291.4 160.5 L 291.4 162.3 M 287.7 160.5 Q 287.7 155.4, 285.6 152.7 Q 283.6 150.0, 280.0 150.0 Q 276.4 150.0, 274.4 152.7 Q 272.3 155.4, 272.3 160.2 L 272.3 162.3 Q 272.3 167.2, 274.3 170.1 Q 276.4 172.8, 280.0 172.8 Q 283.6 172.8, 285.6 170.2 Q 287.6 167.6, 287.7 162.6 L 287.7 160.5 " fill="#FF0000"/>
<path class="atom-7" d="M 143.3 94.4 L 139.5 94.4 L 139.5 81.3 L 125.2 81.3 L 125.2 94.4 L 121.4 94.4 L 121.4 66.0 L 125.2 66.0 L 125.2 78.2 L 139.5 78.2 L 139.5 66.0 L 143.3 66.0 L 143.3 94.4 " fill="#FF0000"/>
<path class="atom-7" d="M 171.8 81.1 Q 171.8 85.3, 170.3 88.4 Q 168.9 91.5, 166.4 93.1 Q 163.8 94.8, 160.3 94.8 Q 157.0 94.8, 154.4 93.1 Q 151.8 91.5, 150.3 88.4 Q 148.9 85.4, 148.9 81.3 L 148.9 79.3 Q 148.9 75.2, 150.3 72.1 Q 151.7 68.9, 154.3 67.2 Q 156.9 65.6, 160.3 65.6 Q 163.7 65.6, 166.3 67.2 Q 168.9 68.9, 170.3 72.0 Q 171.8 75.1, 171.8 79.3 L 171.8 81.1 M 168.0 79.3 Q 168.0 74.2, 166.0 71.5 Q 164.0 68.8, 160.3 68.8 Q 156.8 68.8, 154.7 71.5 Q 152.7 74.2, 152.6 79.0 L 152.6 81.1 Q 152.6 86.0, 154.7 88.8 Q 156.7 91.6, 160.3 91.6 Q 164.0 91.6, 166.0 89.0 Q 168.0 86.3, 168.0 81.4 L 168.0 79.3 " fill="#FF0000"/>
<path class="atom-8" d="M 49.5 232.6 L 45.7 232.6 L 45.7 219.4 L 31.4 219.4 L 31.4 232.6 L 27.6 232.6 L 27.6 204.1 L 31.4 204.1 L 31.4 216.3 L 45.7 216.3 L 45.7 204.1 L 49.5 204.1 L 49.5 232.6 " fill="#FF0000"/>
<path class="atom-8" d="M 77.9 219.3 Q 77.9 223.4, 76.5 226.6 Q 75.1 229.7, 72.6 231.3 Q 70.0 233.0, 66.5 233.0 Q 63.2 233.0, 60.6 231.3 Q 58.0 229.6, 56.5 226.6 Q 55.1 223.5, 55.1 219.5 L 55.1 217.5 Q 55.1 213.4, 56.5 210.2 Q 57.9 207.1, 60.5 205.4 Q 63.1 203.7, 66.5 203.7 Q 69.9 203.7, 72.5 205.4 Q 75.1 207.0, 76.5 210.2 Q 77.9 213.3, 77.9 217.5 L 77.9 219.3 M 74.2 217.4 Q 74.2 212.4, 72.2 209.7 Q 70.2 207.0, 66.5 207.0 Q 62.9 207.0, 60.9 209.7 Q 58.9 212.4, 58.8 217.2 L 58.8 219.3 Q 58.8 224.2, 60.9 227.0 Q 62.9 229.8, 66.5 229.8 Q 70.2 229.8, 72.2 227.1 Q 74.2 224.5, 74.2 219.5 L 74.2 217.4 " fill="#FF0000"/>
<path class="atom-9" d="M 122.2 382.9 L 118.5 382.9 L 118.5 369.7 L 104.1 369.7 L 104.1 382.9 L 100.4 382.9 L 100.4 354.4 L 104.1 354.4 L 104.1 366.7 L 118.5 366.7 L 118.5 354.4 L 122.2 354.4 L 122.2 382.9 " fill="#FF0000"/>
<path class="atom-9" d="M 150.7 369.6 Q 150.7 373.8, 149.3 376.9 Q 147.9 380.0, 145.3 381.6 Q 142.7 383.3, 139.3 383.3 Q 135.9 383.3, 133.3 381.6 Q 130.7 380.0, 129.3 376.9 Q 127.9 373.9, 127.8 369.8 L 127.8 367.8 Q 127.8 363.7, 129.2 360.5 Q 130.7 357.4, 133.3 355.7 Q 135.9 354.1, 139.2 354.1 Q 142.7 354.1, 145.3 355.7 Q 147.9 357.4, 149.3 360.5 Q 150.7 363.6, 150.7 367.8 L 150.7 369.6 M 147.0 367.7 Q 147.0 362.7, 144.9 360.0 Q 142.9 357.3, 139.2 357.3 Q 135.7 357.3, 133.6 360.0 Q 131.6 362.7, 131.6 367.5 L 131.6 369.6 Q 131.6 374.5, 133.6 377.3 Q 135.7 380.1, 139.3 380.1 Q 142.9 380.1, 144.9 377.5 Q 146.9 374.8, 147.0 369.9 L 147.0 367.7 " fill="#FF0000"/>
<path class="atom-10" d="M 317.2 381.7 Q 317.2 385.9, 315.8 389.0 Q 314.4 392.2, 311.9 393.8 Q 309.3 395.4, 305.8 395.4 Q 302.5 395.4, 299.9 393.8 Q 297.3 392.1, 295.8 389.1 Q 294.4 386.0, 294.4 382.0 L 294.4 379.9 Q 294.4 375.8, 295.8 372.7 Q 297.2 369.6, 299.8 367.9 Q 302.4 366.2, 305.8 366.2 Q 309.2 366.2, 311.8 367.9 Q 314.4 369.5, 315.8 372.7 Q 317.2 375.8, 317.2 379.9 L 317.2 381.7 M 313.5 379.9 Q 313.5 374.8, 311.5 372.2 Q 309.5 369.4, 305.8 369.4 Q 302.2 369.4, 300.2 372.2 Q 298.2 374.8, 298.1 379.7 L 298.1 381.7 Q 298.1 386.6, 300.2 389.5 Q 302.2 392.2, 305.8 392.2 Q 309.5 392.2, 311.5 389.6 Q 313.5 387.0, 313.5 382.0 L 313.5 379.9 " fill="#FF0000"/>
<path class="atom-10" d="M 343.7 395.0 L 339.9 395.0 L 339.9 381.9 L 325.6 381.9 L 325.6 395.0 L 321.8 395.0 L 321.8 366.6 L 325.6 366.6 L 325.6 378.8 L 339.9 378.8 L 339.9 366.6 L 343.7 366.6 L 343.7 395.0 " fill="#FF0000"/>
<path class="atom-11" d="M 458.0 174.5 Q 458.0 178.7, 456.6 181.8 Q 455.2 184.9, 452.6 186.5 Q 450.0 188.2, 446.6 188.2 Q 443.2 188.2, 440.6 186.5 Q 438.0 184.9, 436.6 181.8 Q 435.1 178.8, 435.1 174.7 L 435.1 172.7 Q 435.1 168.6, 436.5 165.5 Q 437.9 162.3, 440.5 160.6 Q 443.2 159.0, 446.5 159.0 Q 449.9 159.0, 452.5 160.6 Q 455.2 162.3, 456.6 165.4 Q 458.0 168.5, 458.0 172.7 L 458.0 174.5 M 454.2 172.7 Q 454.2 167.6, 452.2 164.9 Q 450.2 162.2, 446.5 162.2 Q 443.0 162.2, 440.9 164.9 Q 438.9 167.6, 438.8 172.4 L 438.8 174.5 Q 438.8 179.4, 440.9 182.2 Q 442.9 185.0, 446.6 185.0 Q 450.2 185.0, 452.2 182.4 Q 454.2 179.7, 454.2 174.8 L 454.2 172.7 " fill="#FF0000"/>
<path class="atom-11" d="M 484.4 187.8 L 480.6 187.8 L 480.6 174.7 L 466.3 174.7 L 466.3 187.8 L 462.5 187.8 L 462.5 159.4 L 466.3 159.4 L 466.3 171.6 L 480.6 171.6 L 480.6 159.4 L 484.4 159.4 L 484.4 187.8 " fill="#FF0000"/>
<path class="legend" d="M 195.5 496.6 L 205.6 496.6 L 205.6 498.9 L 192.7 498.9 L 192.7 477.6 L 195.5 477.6 L 195.5 496.6 " fill="#7E56C2"/>
<path class="legend" d="M 214.7 491.0 L 207.5 491.0 L 207.5 488.7 L 214.7 488.7 L 214.7 491.0 " fill="#7E56C2"/>
<path class="legend" d="M 232.9 496.1 Q 231.8 497.7, 229.8 498.4 Q 227.9 499.2, 225.3 499.2 Q 222.7 499.2, 220.7 498.0 Q 218.7 496.8, 217.6 494.5 Q 216.5 492.2, 216.4 489.3 L 216.4 487.4 Q 216.4 482.6, 218.7 479.9 Q 220.9 477.3, 225.0 477.3 Q 228.3 477.3, 230.4 479.0 Q 232.4 480.7, 232.9 483.8 L 230.1 483.8 Q 229.3 479.6, 225.0 479.6 Q 222.2 479.6, 220.7 481.6 Q 219.3 483.6, 219.3 487.3 L 219.3 489.1 Q 219.3 492.7, 220.9 494.8 Q 222.5 496.9, 225.3 496.9 Q 226.9 496.9, 228.1 496.5 Q 229.3 496.2, 230.1 495.4 L 230.1 490.6 L 225.1 490.6 L 225.1 488.3 L 232.9 488.3 L 232.9 496.1 " fill="#7E56C2"/>
<path class="legend" d="M 239.0 498.9 L 236.3 498.9 L 236.3 476.4 L 239.0 476.4 L 239.0 498.9 " fill="#7E56C2"/>
<path class="legend" d="M 252.3 497.3 Q 250.7 499.2, 247.6 499.2 Q 245.1 499.2, 243.8 497.7 Q 242.4 496.3, 242.4 493.4 L 242.4 483.1 L 245.1 483.1 L 245.1 493.3 Q 245.1 496.9, 248.1 496.9 Q 251.2 496.9, 252.2 494.6 L 252.2 483.1 L 254.9 483.1 L 254.9 498.9 L 252.3 498.9 L 252.3 497.3 " fill="#7E56C2"/>
<path class="legend" d="M 265.2 497.0 Q 266.7 497.0, 267.7 496.1 Q 268.8 495.2, 268.9 493.9 L 271.5 493.9 Q 271.4 495.3, 270.6 496.5 Q 269.7 497.7, 268.2 498.5 Q 266.8 499.2, 265.2 499.2 Q 262.0 499.2, 260.0 497.0 Q 258.1 494.9, 258.1 491.1 L 258.1 490.7 Q 258.1 488.4, 259.0 486.6 Q 259.8 484.8, 261.4 483.8 Q 263.0 482.8, 265.2 482.8 Q 267.9 482.8, 269.6 484.4 Q 271.4 486.0, 271.5 488.5 L 268.9 488.5 Q 268.8 487.0, 267.8 486.0 Q 266.7 485.0, 265.2 485.0 Q 263.1 485.0, 262.0 486.5 Q 260.8 488.0, 260.8 490.8 L 260.8 491.3 Q 260.8 494.0, 262.0 495.5 Q 263.1 497.0, 265.2 497.0 " fill="#7E56C2"/>
<path class="legend" d="M 273.7 490.8 Q 273.7 488.5, 274.6 486.6 Q 275.5 484.8, 277.1 483.8 Q 278.8 482.8, 280.9 482.8 Q 284.1 482.8, 286.1 485.0 Q 288.1 487.2, 288.1 491.0 L 288.1 491.2 Q 288.1 493.5, 287.2 495.3 Q 286.3 497.1, 284.7 498.2 Q 283.0 499.2, 280.9 499.2 Q 277.7 499.2, 275.7 497.0 Q 273.7 494.7, 273.7 491.0 L 273.7 490.8 M 276.4 491.2 Q 276.4 493.8, 277.6 495.4 Q 278.8 497.0, 280.9 497.0 Q 283.0 497.0, 284.2 495.4 Q 285.4 493.8, 285.4 490.8 Q 285.4 488.2, 284.1 486.6 Q 282.9 485.0, 280.9 485.0 Q 278.9 485.0, 277.6 486.6 Q 276.4 488.2, 276.4 491.2 " fill="#7E56C2"/>
<path class="legend" d="M 300.5 494.7 Q 300.5 493.6, 299.7 493.0 Q 298.8 492.4, 296.8 491.9 Q 294.7 491.5, 293.5 490.9 Q 292.3 490.3, 291.7 489.4 Q 291.2 488.6, 291.2 487.4 Q 291.2 485.5, 292.8 484.1 Q 294.5 482.8, 297.0 482.8 Q 299.7 482.8, 301.4 484.2 Q 303.1 485.5, 303.1 487.7 L 300.3 487.7 Q 300.3 486.6, 299.4 485.8 Q 298.5 485.0, 297.0 485.0 Q 295.5 485.0, 294.7 485.6 Q 293.9 486.3, 293.9 487.3 Q 293.9 488.3, 294.6 488.8 Q 295.4 489.3, 297.4 489.8 Q 299.5 490.2, 300.7 490.8 Q 302.0 491.5, 302.6 492.4 Q 303.2 493.2, 303.2 494.5 Q 303.2 496.6, 301.5 497.9 Q 299.8 499.2, 297.1 499.2 Q 295.2 499.2, 293.7 498.5 Q 292.3 497.9, 291.4 496.7 Q 290.6 495.4, 290.6 494.0 L 293.3 494.0 Q 293.4 495.4, 294.4 496.2 Q 295.4 497.0, 297.1 497.0 Q 298.6 497.0, 299.6 496.4 Q 300.5 495.7, 300.5 494.7 " fill="#7E56C2"/>
<path class="legend" d="M 313.1 499.2 Q 309.9 499.2, 307.9 497.1 Q 305.9 495.0, 305.9 491.4 L 305.9 490.9 Q 305.9 488.6, 306.8 486.7 Q 307.7 484.9, 309.3 483.8 Q 310.9 482.8, 312.8 482.8 Q 315.9 482.8, 317.6 484.8 Q 319.3 486.8, 319.3 490.6 L 319.3 491.8 L 308.6 491.8 Q 308.6 494.1, 309.9 495.6 Q 311.3 497.0, 313.3 497.0 Q 314.7 497.0, 315.7 496.4 Q 316.7 495.8, 317.5 494.8 L 319.1 496.1 Q 317.1 499.2, 313.1 499.2 M 312.8 485.0 Q 311.2 485.0, 310.0 486.2 Q 308.9 487.4, 308.7 489.5 L 316.6 489.5 L 316.6 489.3 Q 316.5 487.3, 315.5 486.1 Q 314.5 485.0, 312.8 485.0 " fill="#7E56C2"/>
</g>
    <g transform="translate(512.0, 0.0) scale(1 1) "><!-- END OF HEADER -->
<rect style="opacity:1.0;fill:#FF00FF00;stroke:none" width="512.0" height="512.0" x="0.0" y="0.0"> </rect>
<path class="bond-0 atom-1 atom-0" d="M 320.7,237.1 L 320.8,236.4" style="fill:none;fill-rule:evenodd;stroke:#7E56C2;stroke-width:2.0px;stroke-linecap:butt;stroke-linejoin:miter;stroke-opacity:1"/>
<path class="bond-0 atom-1 atom-0" d="M 325.1,237.7 L 325.2,236.3" style="fill:none;fill-rule:evenodd;stroke:#7E56C2;stroke-width:2.0px;stroke-linecap:butt;stroke-linejoin:miter;stroke-opacity:1"/>
<path class="bond-0 atom-1 atom-0" d="M 329.4,238.4 L 329.6,236.3" style="fill:none;fill-rule:evenodd;stroke:#7E56C2;stroke-width:2.0px;stroke-linecap:butt;stroke-linejoin:miter;stroke-opacity:1"/>
<path class="bond-0 atom-1 atom-0" d="M 333.8,239.1 L 334.0,236.3" style="fill:none;fill-rule:evenodd;stroke:#7E56C2;stroke-width:2.0px;stroke-linecap:butt;stroke-linejoin:miter;stroke-opacity:1"/>
<path class="bond-0 atom-1 atom-0" d="M 338.1,239.7 L 338.4,236.2" style="fill:none;fill-rule:evenodd;stroke:#7E56C2;stroke-width:2.0px;stroke-linecap:butt;stroke-linejoin:miter;stroke-opacity:1"/>
<path class="bond-0 atom-1 atom-0" d="M 342.5,240.4 L 342.8,236.2" style="fill:none;fill-rule:evenodd;stroke:#7E56C2;stroke-width:2.0px;stroke-linecap:butt;stroke-linejoin:miter;stroke-opacity:1"/>
<path class="bond-0 atom-1 atom-0" d="M 346.8,241.1 L 347.2,236.2" style="fill:none;fill-rule:evenodd;stroke:#7E56C2;stroke-width:2.0px;stroke-linecap:butt;stroke-linejoin:miter;stroke-opacity:1"/>
<path class="bond-0 atom-1 atom-0" d="M 351.2,241.7 L 351.6,236.2" style="fill:none;fill-rule:evenodd;stroke:#7E56C2;stroke-width:2.0px;stroke-linecap:butt;stroke-linejoin:miter;stroke-opacity:1"/>
<path class="bond-0 atom-1 atom-0" d="M 355.6,242.4 L 356.0,236.1" style="fill:none;fill-rule:evenodd;stroke:#7E56C2;stroke-width:2.0px;stroke-linecap:butt;stroke-linejoin:miter;stroke-opacity:1"/>
<path class="bond-0 atom-1 atom-0" d="M 359.9,243.1 L 360.4,236.1" style="fill:none;fill-rule:evenodd;stroke:#7E56C2;stroke-width:2.0px;stroke-linecap:butt;stroke-linejoin:miter;stroke-opacity:1"/>
<path class="bond-0 atom-1 atom-0" d="M 364.3,243.7 L 364.8,236.1" style="fill:none;fill-rule:evenodd;stroke:#7E56C2;stroke-width:2.0px;stroke-linecap:butt;stroke-linejoin:miter;stroke-opacity:1"/>
<path class="bond-0 atom-1 atom-0" d="M 368.6,244.4 L 369.2,236.1" style="fill:none;fill-rule:evenodd;stroke:#7E56C2;stroke-width:2.0px;stroke-linecap:butt;stroke-linejoin:miter;stroke-opacity:1"/>
<path class="bond-0 atom-1 atom-0" d="M 373.0,245.1 L 373.6,236.0" style="fill:none;fill-rule:evenodd;stroke:#7E56C2;stroke-width:2.0px;stroke-linecap:butt;stroke-linejoin:miter;stroke-opacity:1"/>
<path class="bond-0 atom-1 atom-0" d="M 377.3,245.7 L 378.0,236.0" style="fill:none;fill-rule:evenodd;stroke:#7E56C2;stroke-width:2.0px;stroke-linecap:butt;stroke-linejoin:miter;stroke-opacity:1"/>
<path class="bond-0 atom-1 atom-0" d="M 381.7,246.4 L 382.4,236.0" style="fill:none;fill-rule:evenodd;stroke:#7E56C2;stroke-width:2.0px;stroke-linecap:butt;stroke-linejoin:miter;stroke-opacity:1"/>
<path class="bond-0 atom-1 atom-0" d="M 386.0,247.1 L 386.9,236.0" style="fill:none;fill-rule:evenodd;stroke:#7E56C2;stroke-width:2.0px;stroke-linecap:butt;stroke-linejoin:miter;stroke-opacity:1"/>
<path class="bond-0 atom-1 atom-0" d="M 390.4,247.7 L 391.3,235.9" style="fill:none;fill-rule:evenodd;stroke:#7E56C2;stroke-width:2.0px;stroke-linecap:butt;stroke-linejoin:miter;stroke-opacity:1"/>
<path class="bond-0 atom-1 atom-0" d="M 394.8,248.4 L 395.7,235.9" style="fill:none;fill-rule:evenodd;stroke:#7E56C2;stroke-width:2.0px;stroke-linecap:butt;stroke-linejoin:miter;stroke-opacity:1"/>
<path class="bond-1 atom-1 atom-2" d="M 316.3,236.4 L 269.4,305.5" style="fill:none;fill-rule:evenodd;stroke:#7E56C2;stroke-width:4.0px;stroke-linecap:butt;stroke-linejoin:miter;stroke-opacity:1"/>
<path class="bond-2 atom-2 atom-3" d="M 269.4,305.5 L 186.2,299.4" style="fill:none;fill-rule:evenodd;stroke:#7E56C2;stroke-width:4.0px;stroke-linecap:butt;stroke-linejoin:miter;stroke-opacity:1"/>
<path class="bond-3 atom-3 atom-4" d="M 186.2,299.4 L 149.8,224.2" style="fill:none;fill-rule:evenodd;stroke:#7E56C2;stroke-width:4.0px;stroke-linecap:butt;stroke-linejoin:miter;stroke-opacity:1"/>
<path class="bond-4 atom-4 atom-5" d="M 149.8,224.2 L 196.7,155.1" style="fill:none;fill-rule:evenodd;stroke:#7E56C2;stroke-width:4.0px;stroke-linecap:butt;stroke-linejoin:miter;stroke-opacity:1"/>
<path class="bond-5 atom-5 atom-6" d="M 196.7,155.1 L 231.2,157.7" style="fill:none;fill-rule:evenodd;stroke:#7E56C2;stroke-width:4.0px;stroke-linecap:butt;stroke-linejoin:miter;stroke-opacity:1"/>
<path class="bond-5 atom-5 atom-6" d="M 231.2,157.7 L 265.8,160.2" style="fill:none;fill-rule:evenodd;stroke:#FF0000;stroke-width:4.0px;stroke-linecap:butt;stroke-linejoin:miter;stroke-opacity:1"/>
<path class="bond-6 atom-5 atom-7" d="M 196.7,155.1 L 182.8,126.3" style="fill:none;fill-rule:evenodd;stroke:#7E56C2;stroke-width:4.0px;stroke-linecap:butt;stroke-linejoin:miter;stroke-opacity:1"/>
<path class="bond-6 atom-5 atom-7" d="M 182.8,126.3 L 168.8,97.5" style="fill:none;fill-rule:evenodd;stroke:#FF0000;stroke-width:4.0px;stroke-linecap:butt;stroke-linejoin:miter;stroke-opacity:1"/>
<path class="bond-7 atom-4 atom-8" d="M 149.8,224.2 L 116.4,224.9 L 116.8,218.7 Z" style="fill:#7E56C2;fill-rule:evenodd;fill-opacity:1;stroke:#7E56C2;stroke-width:1.0px;stroke-linecap:butt;stroke-linejoin:miter;stroke-opacity:1;"/>
<path class="bond-7 atom-4 atom-8" d="M 116.4,224.9 L 83.9,213.1 L 83.0,225.6 Z" style="fill:#FF0000;fill-rule:evenodd;fill-opacity:1;stroke:#FF0000;stroke-width:1.0px;stroke-linecap:butt;stroke-linejoin:miter;stroke-opacity:1;"/>
<path class="bond-7 atom-4 atom-8" d="M 116.4,224.9 L 116.8,218.7 L 83.9,213.1 Z" style="fill:#FF0000;fill-rule:evenodd;fill-opacity:1;stroke:#FF0000;stroke-width:1.0px;stroke-linecap:butt;stroke-linejoin:miter;stroke-opacity:1;"/>
<path class="bond-8 atom-3 atom-9" d="M 184.0,303.4 L 183.2,302.9" style="fill:none;fill-rule:evenodd;stroke:#7E56C2;stroke-width:2.0px;stroke-linecap:butt;stroke-linejoin:miter;stroke-opacity:1"/>
<path class="bond-8 atom-3 atom-9" d="M 181.8,307.5 L 180.2,306.4" style="fill:none;fill-rule:evenodd;stroke:#7E56C2;stroke-width:2.0px;stroke-linecap:butt;stroke-linejoin:miter;stroke-opacity:1"/>
<path class="bond-8 atom-3 atom-9" d="M 179.7,311.5 L 177.3,309.9" style="fill:none;fill-rule:evenodd;stroke:#7E56C2;stroke-width:2.0px;stroke-linecap:butt;stroke-linejoin:miter;stroke-opacity:1"/>
<path class="bond-8 atom-3 atom-9" d="M 177.5,315.6 L 174.3,313.4" style="fill:none;fill-rule:evenodd;stroke:#7E56C2;stroke-width:2.0px;stroke-linecap:butt;stroke-linejoin:miter;stroke-opacity:1"/>
<path class="bond-8 atom-3 atom-9" d="M 175.3,319.6 L 171.3,316.9" style="fill:none;fill-rule:evenodd;stroke:#7E56C2;stroke-width:2.0px;stroke-linecap:butt;stroke-linejoin:miter;stroke-opacity:1"/>
<path class="bond-8 atom-3 atom-9" d="M 173.1,323.7 L 168.4,320.5" style="fill:none;fill-rule:evenodd;stroke:#7E56C2;stroke-width:2.0px;stroke-linecap:butt;stroke-linejoin:miter;stroke-opacity:1"/>
<path class="bond-8 atom-3 atom-9" d="M 171.0,327.7 L 165.4,324.0" style="fill:none;fill-rule:evenodd;stroke:#FF0000;stroke-width:2.0px;stroke-linecap:butt;stroke-linejoin:miter;stroke-opacity:1"/>
<path class="bond-8 atom-3 atom-9" d="M 168.8,331.8 L 162.4,327.5" style="fill:none;fill-rule:evenodd;stroke:#FF0000;stroke-width:2.0px;stroke-linecap:butt;stroke-linejoin:miter;stroke-opacity:1"/>
<path class="bond-8 atom-3 atom-9" d="M 166.6,335.9 L 159.5,331.0" style="fill:none;fill-rule:evenodd;stroke:#FF0000;stroke-width:2.0px;stroke-linecap:butt;stroke-linejoin:miter;stroke-opacity:1"/>
<path class="bond-8 atom-3 atom-9" d="M 164.5,339.9 L 156.5,334.5" style="fill:none;fill-rule:evenodd;stroke:#FF0000;stroke-width:2.0px;stroke-linecap:butt;stroke-linejoin:miter;stroke-opacity:1"/>
<path class="bond-8 atom-3 atom-9" d="M 162.3,344.0 L 153.5,338.0" style="fill:none;fill-rule:evenodd;stroke:#FF0000;stroke-width:2.0px;stroke-linecap:butt;stroke-linejoin:miter;stroke-opacity:1"/>
<path class="bond-8 atom-3 atom-9" d="M 160.1,348.0 L 150.6,341.5" style="fill:none;fill-rule:evenodd;stroke:#FF0000;stroke-width:2.0px;stroke-linecap:butt;stroke-linejoin:miter;stroke-opacity:1"/>
<path class="bond-8 atom-3 atom-9" d="M 158.0,352.1 L 147.6,345.0" style="fill:none;fill-rule:evenodd;stroke:#FF0000;stroke-width:2.0px;stroke-linecap:butt;stroke-linejoin:miter;stroke-opacity:1"/>
<path class="bond-9 atom-2 atom-10" d="M 269.4,305.5 L 285.6,331.7 L 280.0,334.4 Z" style="fill:#7E56C2;fill-rule:evenodd;fill-opacity:1;stroke:#7E56C2;stroke-width:1.0px;stroke-linecap:butt;stroke-linejoin:miter;stroke-opacity:1;"/>
<path class="bond-9 atom-2 atom-10" d="M 285.6,331.7 L 290.5,363.4 L 301.8,358.0 Z" style="fill:#FF0000;fill-rule:evenodd;fill-opacity:1;stroke:#FF0000;stroke-width:1.0px;stroke-linecap:butt;stroke-linejoin:miter;stroke-opacity:1;"/>
<path class="bond-9 atom-2 atom-10" d="M 285.6,331.7 L 280.0,334.4 L 290.5,363.4 Z" style="fill:#FF0000;fill-rule:evenodd;fill-opacity:1;stroke:#FF0000;stroke-width:1.0px;stroke-linecap:butt;stroke-linejoin:miter;stroke-opacity:1;"/>
<path class="bond-10 atom-0 atom-11" d="M 399.6,242.5 L 417.1,216.7" style="fill:none;fill-rule:evenodd;stroke:#7E56C2;stroke-width:4.0px;stroke-linecap:butt;stroke-linejoin:miter;stroke-opacity:1"/>
<path class="bond-10 atom-0 atom-11" d="M 417.1,216.7 L 434.6,190.9" style="fill:none;fill-rule:evenodd;stroke:#FF0000;stroke-width:4.0px;stroke-linecap:butt;stroke-linejoin:miter;stroke-opacity:1"/>
<path class="bond-11 atom-6 atom-1" d="M 288.5,178.8 L 302.4,207.6" style="fill:none;fill-rule:evenodd;stroke:#FF0000;stroke-width:4.0px;stroke-linecap:butt;stroke-linejoin:miter;stroke-opacity:1"/>
<path class="bond-11 atom-6 atom-1" d="M 302.4,207.6 L 316.3,236.4" style="fill:none;fill-rule:evenodd;stroke:#7E56C2;stroke-width:4.0px;stroke-linecap:butt;stroke-linejoin:miter;stroke-opacity:1"/>
<path d="M 314.0,239.8 L 316.3,236.4 L 315.6,234.9" style="fill:none;stroke:#7E56C2;stroke-width:4.0px;stroke-linecap:butt;stroke-linejoin:miter;stroke-opacity:1;"/>
<path d="M 271.8,302.0 L 269.4,305.5 L 265.3,305.2" style="fill:none;stroke:#7E56C2;stroke-width:4.0px;stroke-linecap:butt;stroke-linejoin:miter;stroke-opacity:1;"/>
<path d="M 190.3,299.7 L 186.2,299.4 L 184.3,295.6" style="fill:none;stroke:#7E56C2;stroke-width:4.0px;stroke-linecap:butt;stroke-linejoin:miter;stroke-opacity:1;"/>
<path d="M 151.6,228.0 L 149.8,224.2 L 152.1,220.8" style="fill:none;stroke:#7E56C2;stroke-width:4.0px;stroke-linecap:butt;stroke-linejoin:miter;stroke-opacity:1;"/>
<path class="atom-6" d="M 291.4 162.3 Q 291.4 166.5, 290.0 169.6 Q 288.6 172.7, 286.0 174.4 Q 283.4 176.0, 280.0 176.0 Q 276.6 176.0, 274.0 174.4 Q 271.4 172.7, 270.0 169.7 Q 268.6 166.6, 268.5 162.6 L 268.5 160.5 Q 268.5 156.4, 270.0 153.3 Q 271.4 150.1, 274.0 148.5 Q 276.6 146.8, 280.0 146.8 Q 283.4 146.8, 286.0 148.5 Q 288.6 150.1, 290.0 153.3 Q 291.4 156.4, 291.4 160.5 L 291.4 162.3 M 287.7 160.5 Q 287.7 155.4, 285.6 152.7 Q 283.6 150.0, 280.0 150.0 Q 276.4 150.0, 274.4 152.7 Q 272.3 155.4, 272.3 160.2 L 272.3 162.3 Q 272.3 167.2, 274.3 170.1 Q 276.4 172.8, 280.0 172.8 Q 283.6 172.8, 285.6 170.2 Q 287.6 167.6, 287.7 162.6 L 287.7 160.5 " fill="#FF0000"/>
<path class="atom-7" d="M 143.3 94.4 L 139.5 94.4 L 139.5 81.3 L 125.2 81.3 L 125.2 94.4 L 121.4 94.4 L 121.4 66.0 L 125.2 66.0 L 125.2 78.2 L 139.5 78.2 L 139.5 66.0 L 143.3 66.0 L 143.3 94.4 " fill="#FF0000"/>
<path class="atom-7" d="M 171.8 81.1 Q 171.8 85.3, 170.3 88.4 Q 168.9 91.5, 166.4 93.1 Q 163.8 94.8, 160.3 94.8 Q 157.0 94.8, 154.4 93.1 Q 151.8 91.5, 150.3 88.4 Q 148.9 85.4, 148.9 81.3 L 148.9 79.3 Q 148.9 75.2, 150.3 72.1 Q 151.7 68.9, 154.3 67.2 Q 156.9 65.6, 160.3 65.6 Q 163.7 65.6, 166.3 67.2 Q 168.9 68.9, 170.3 72.0 Q 171.8 75.1, 171.8 79.3 L 171.8 81.1 M 168.0 79.3 Q 168.0 74.2, 166.0 71.5 Q 164.0 68.8, 160.3 68.8 Q 156.8 68.8, 154.7 71.5 Q 152.7 74.2, 152.6 79.0 L 152.6 81.1 Q 152.6 86.0, 154.7 88.8 Q 156.7 91.6, 160.3 91.6 Q 164.0 91.6, 166.0 89.0 Q 168.0 86.3, 168.0 81.4 L 168.0 79.3 " fill="#FF0000"/>
<path class="atom-8" d="M 49.5 232.6 L 45.7 232.6 L 45.7 219.4 L 31.4 219.4 L 31.4 232.6 L 27.6 232.6 L 27.6 204.1 L 31.4 204.1 L 31.4 216.3 L 45.7 216.3 L 45.7 204.1 L 49.5 204.1 L 49.5 232.6 " fill="#FF0000"/>
<path class="atom-8" d="M 77.9 219.3 Q 77.9 223.4, 76.5 226.6 Q 75.1 229.7, 72.6 231.3 Q 70.0 233.0, 66.5 233.0 Q 63.2 233.0, 60.6 231.3 Q 58.0 229.6, 56.5 226.6 Q 55.1 223.5, 55.1 219.5 L 55.1 217.5 Q 55.1 213.4, 56.5 210.2 Q 57.9 207.1, 60.5 205.4 Q 63.1 203.7, 66.5 203.7 Q 69.9 203.7, 72.5 205.4 Q 75.1 207.0, 76.5 210.2 Q 77.9 213.3, 77.9 217.5 L 77.9 219.3 M 74.2 217.4 Q 74.2 212.4, 72.2 209.7 Q 70.2 207.0, 66.5 207.0 Q 62.9 207.0, 60.9 209.7 Q 58.9 212.4, 58.8 217.2 L 58.8 219.3 Q 58.8 224.2, 60.9 227.0 Q 62.9 229.8, 66.5 229.8 Q 70.2 229.8, 72.2 227.1 Q 74.2 224.5, 74.2 219.5 L 74.2 217.4 " fill="#FF0000"/>
<path class="atom-9" d="M 122.2 382.9 L 118.5 382.9 L 118.5 369.7 L 104.1 369.7 L 104.1 382.9 L 100.4 382.9 L 100.4 354.4 L 104.1 354.4 L 104.1 366.7 L 118.5 366.7 L 118.5 354.4 L 122.2 354.4 L 122.2 382.9 " fill="#FF0000"/>
<path class="atom-9" d="M 150.7 369.6 Q 150.7 373.8, 149.3 376.9 Q 147.9 380.0, 145.3 381.6 Q 142.7 383.3, 139.3 383.3 Q 135.9 383.3, 133.3 381.6 Q 130.7 380.0, 129.3 376.9 Q 127.9 373.9, 127.8 369.8 L 127.8 367.8 Q 127.8 363.7, 129.2 360.5 Q 130.7 357.4, 133.3 355.7 Q 135.9 354.1, 139.2 354.1 Q 142.7 354.1, 145.3 355.7 Q 147.9 357.4, 149.3 360.5 Q 150.7 363.6, 150.7 367.8 L 150.7 369.6 M 147.0 367.7 Q 147.0 362.7, 144.9 360.0 Q 142.9 357.3, 139.2 357.3 Q 135.7 357.3, 133.6 360.0 Q 131.6 362.7, 131.6 367.5 L 131.6 369.6 Q 131.6 374.5, 133.6 377.3 Q 135.7 380.1, 139.3 380.1 Q 142.9 380.1, 144.9 377.5 Q 146.9 374.8, 147.0 369.9 L 147.0 367.7 " fill="#FF0000"/>
<path class="atom-10" d="M 317.2 381.7 Q 317.2 385.9, 315.8 389.0 Q 314.4 392.2, 311.9 393.8 Q 309.3 395.4, 305.8 395.4 Q 302.5 395.4, 299.9 393.8 Q 297.3 392.1, 295.8 389.1 Q 294.4 386.0, 294.4 382.0 L 294.4 379.9 Q 294.4 375.8, 295.8 372.7 Q 297.2 369.6, 299.8 367.9 Q 302.4 366.2, 305.8 366.2 Q 309.2 366.2, 311.8 367.9 Q 314.4 369.5, 315.8 372.7 Q 317.2 375.8, 317.2 379.9 L 317.2 381.7 M 313.5 379.9 Q 313.5 374.8, 311.5 372.2 Q 309.5 369.4, 305.8 369.4 Q 302.2 369.4, 300.2 372.2 Q 298.2 374.8, 298.1 379.7 L 298.1 381.7 Q 298.1 386.6, 300.2 389.5 Q 302.2 392.2, 305.8 392.2 Q 309.5 392.2, 311.5 389.6 Q 313.5 387.0, 313.5 382.0 L 313.5 379.9 " fill="#FF0000"/>
<path class="atom-10" d="M 343.7 395.0 L 339.9 395.0 L 339.9 381.9 L 325.6 381.9 L 325.6 395.0 L 321.8 395.0 L 321.8 366.6 L 325.6 366.6 L 325.6 378.8 L 339.9 378.8 L 339.9 366.6 L 343.7 366.6 L 343.7 395.0 " fill="#FF0000"/>
<path class="atom-11" d="M 458.0 174.5 Q 458.0 178.7, 456.6 181.8 Q 455.2 184.9, 452.6 186.5 Q 450.0 188.2, 446.6 188.2 Q 443.2 188.2, 440.6 186.5 Q 438.0 184.9, 436.6 181.8 Q 435.1 178.8, 435.1 174.7 L 435.1 172.7 Q 435.1 168.6, 436.5 165.5 Q 437.9 162.3, 440.5 160.6 Q 443.2 159.0, 446.5 159.0 Q 449.9 159.0, 452.5 160.6 Q 455.2 162.3, 456.6 165.4 Q 458.0 168.5, 458.0 172.7 L 458.0 174.5 M 454.2 172.7 Q 454.2 167.6, 452.2 164.9 Q 450.2 162.2, 446.5 162.2 Q 443.0 162.2, 440.9 164.9 Q 438.9 167.6, 438.8 172.4 L 438.8 174.5 Q 438.8 179.4, 440.9 182.2 Q 442.9 185.0, 446.6 185.0 Q 450.2 185.0, 452.2 182.4 Q 454.2 179.7, 454.2 174.8 L 454.2 172.7 " fill="#FF0000"/>
<path class="atom-11" d="M 484.4 187.8 L 480.6 187.8 L 480.6 174.7 L 466.3 174.7 L 466.3 187.8 L 462.5 187.8 L 462.5 159.4 L 466.3 159.4 L 466.3 171.6 L 480.6 171.6 L 480.6 159.4 L 484.4 159.4 L 484.4 187.8 " fill="#FF0000"/>
<path class="legend" d="M 190.8 498.9 L 190.8 477.6 L 196.8 477.6 Q 199.6 477.6, 201.8 478.8 Q 203.9 480.0, 205.0 482.3 Q 206.2 484.6, 206.2 487.5 L 206.2 488.9 Q 206.2 491.9, 205.1 494.2 Q 203.9 496.4, 201.7 497.7 Q 199.6 498.9, 196.7 498.9 L 190.8 498.9 M 193.6 479.9 L 193.6 496.6 L 196.6 496.6 Q 199.8 496.6, 201.6 494.6 Q 203.5 492.6, 203.5 488.8 L 203.5 487.6 Q 203.5 484.0, 201.7 481.9 Q 200.0 479.9, 196.9 479.9 L 193.6 479.9 " fill="#7E56C2"/>
<path class="legend" d="M 216.4 491.0 L 209.2 491.0 L 209.2 488.7 L 216.4 488.7 L 216.4 491.0 " fill="#7E56C2"/>
<path class="legend" d="M 234.6 496.1 Q 233.5 497.7, 231.5 498.4 Q 229.6 499.2, 227.0 499.2 Q 224.4 499.2, 222.4 498.0 Q 220.4 496.8, 219.3 494.5 Q 218.2 492.2, 218.1 489.3 L 218.1 487.4 Q 218.1 482.6, 220.4 479.9 Q 222.6 477.3, 226.7 477.3 Q 230.1 477.3, 232.1 479.0 Q 234.1 480.7, 234.6 483.8 L 231.8 483.8 Q 231.0 479.6, 226.7 479.6 Q 223.9 479.6, 222.4 481.6 Q 221.0 483.6, 221.0 487.3 L 221.0 489.1 Q 221.0 492.7, 222.6 494.8 Q 224.3 496.9, 227.0 496.9 Q 228.6 496.9, 229.8 496.5 Q 231.0 496.2, 231.8 495.4 L 231.8 490.6 L 226.8 490.6 L 226.8 488.3 L 234.6 488.3 L 234.6 496.1 " fill="#7E56C2"/>
<path class="legend" d="M 240.7 498.9 L 238.0 498.9 L 238.0 476.4 L 240.7 476.4 L 240.7 498.9 " fill="#7E56C2"/>
<path class="legend" d="M 254.0 497.3 Q 252.4 499.2, 249.4 499.2 Q 246.9 499.2, 245.5 497.7 Q 244.2 496.3, 244.2 493.4 L 244.2 483.1 L 246.9 483.1 L 246.9 493.3 Q 246.9 496.9, 249.8 496.9 Q 252.9 496.9, 254.0 494.6 L 254.0 483.1 L 256.7 483.1 L 256.7 498.9 L 254.1 498.9 L 254.0 497.3 " fill="#7E56C2"/>
<path class="legend" d="M 267.0 497.0 Q 268.4 497.0, 269.5 496.1 Q 270.6 495.2, 270.7 493.9 L 273.3 493.9 Q 273.2 495.3, 272.4 496.5 Q 271.5 497.7, 270.0 498.5 Q 268.6 499.2, 267.0 499.2 Q 263.8 499.2, 261.8 497.0 Q 259.9 494.9, 259.9 491.1 L 259.9 490.7 Q 259.9 488.4, 260.8 486.6 Q 261.6 484.8, 263.2 483.8 Q 264.8 482.8, 267.0 482.8 Q 269.6 482.8, 271.4 484.4 Q 273.2 486.0, 273.3 488.5 L 270.7 488.5 Q 270.6 487.0, 269.6 486.0 Q 268.5 485.0, 267.0 485.0 Q 264.9 485.0, 263.8 486.5 Q 262.6 488.0, 262.6 490.8 L 262.6 491.3 Q 262.6 494.0, 263.8 495.5 Q 264.9 497.0, 267.0 497.0 " fill="#7E56C2"/>
<path class="legend" d="M 275.5 490.8 Q 275.5 488.5, 276.4 486.6 Q 277.3 484.8, 278.9 483.8 Q 280.6 482.8, 282.7 482.8 Q 285.9 482.8, 287.9 485.0 Q 289.9 487.2, 289.9 491.0 L 289.9 491.2 Q 289.9 493.5, 289.0 495.3 Q 288.1 497.1, 286.5 498.2 Q 284.8 499.2, 282.7 499.2 Q 279.5 499.2, 277.5 497.0 Q 275.5 494.7, 275.5 491.0 L 275.5 490.8 M 278.2 491.2 Q 278.2 493.8, 279.4 495.4 Q 280.7 497.0, 282.7 497.0 Q 284.8 497.0, 286.0 495.4 Q 287.2 493.8, 287.2 490.8 Q 287.2 488.2, 286.0 486.6 Q 284.7 485.0, 282.7 485.0 Q 280.7 485.0, 279.4 486.6 Q 278.2 488.2, 278.2 491.2 " fill="#7E56C2"/>
<path class="legend" d="M 302.4 494.7 Q 302.4 493.6, 301.5 493.0 Q 300.7 492.4, 298.6 491.9 Q 296.6 491.5, 295.4 490.9 Q 294.2 490.3, 293.6 489.4 Q 293.0 488.6, 293.0 487.4 Q 293.0 485.5, 294.6 484.1 Q 296.3 482.8, 298.9 482.8 Q 301.6 482.8, 303.2 484.2 Q 304.9 485.5, 304.9 487.7 L 302.2 487.7 Q 302.2 486.6, 301.2 485.8 Q 300.3 485.0, 298.9 485.0 Q 297.4 485.0, 296.6 485.6 Q 295.7 486.3, 295.7 487.3 Q 295.7 488.3, 296.5 488.8 Q 297.3 489.3, 299.3 489.8 Q 301.3 490.2, 302.6 490.8 Q 303.8 491.5, 304.4 492.4 Q 305.1 493.2, 305.1 494.5 Q 305.1 496.6, 303.4 497.9 Q 301.7 499.2, 299.0 499.2 Q 297.0 499.2, 295.6 498.5 Q 294.1 497.9, 293.3 496.7 Q 292.5 495.4, 292.5 494.0 L 295.2 494.0 Q 295.2 495.4, 296.3 496.2 Q 297.3 497.0, 299.0 497.0 Q 300.5 497.0, 301.4 496.4 Q 302.4 495.7, 302.4 494.7 " fill="#7E56C2"/>
<path class="legend" d="M 315.0 499.2 Q 311.8 499.2, 309.8 497.1 Q 307.7 495.0, 307.7 491.4 L 307.7 490.9 Q 307.7 488.6, 308.6 486.7 Q 309.5 484.9, 311.2 483.8 Q 312.8 482.8, 314.7 482.8 Q 317.8 482.8, 319.5 484.8 Q 321.2 486.8, 321.2 490.6 L 321.2 491.8 L 310.5 491.8 Q 310.5 494.1, 311.8 495.6 Q 313.1 497.0, 315.2 497.0 Q 316.6 497.0, 317.6 496.4 Q 318.6 495.8, 319.3 494.8 L 321.0 496.1 Q 319.0 499.2, 315.0 499.2 M 314.7 485.0 Q 313.0 485.0, 311.9 486.2 Q 310.8 487.4, 310.5 489.5 L 318.5 489.5 L 318.5 489.3 Q 318.4 487.3, 317.4 486.1 Q 316.4 485.0, 314.7 485.0 " fill="#7E56C2"/>
</g>
  </g>
</svg>
