<?xml version='1.0' encoding='ASCII' standalone='yes'?>
<svg xmlns="http://www.w3.org/2000/svg" xmlns:xlink="http://www.w3.org/1999/xlink" version="1.1" width="1024.0px" viewBox="0 0 1024.0 512.0" height="512.0px">
  <g>
    <g transform="translate(0.0, 0.0) scale(1 1) "><!-- END OF HEADER -->
<rect style="opacity:1.0;fill:#FF00FF00;stroke:none" width="512.0" height="512.0" x="0.0" y="0.0"> </rect>
<path class="bond-0 atom-0 atom-1" d="M 23.3,195.6 L 488.7,195.6" style="fill:none;fill-rule:evenodd;stroke:#7E56C2;stroke-width:4.0px;stroke-linecap:butt;stroke-linejoin:miter;stroke-opacity:1"/>
<path class="bond-0 atom-0 atom-1" d="M 23.3,265.4 L 488.7,265.4" style="fill:none;fill-rule:evenodd;stroke:#7E56C2;stroke-width:4.0px;stroke-linecap:butt;stroke-linejoin:miter;stroke-opacity:1"/>
<path class="legend" d="M 232.8 489.0 L 223.5 489.0 L 223.5 496.6 L 234.3 496.6 L 234.3 498.9 L 220.7 498.9 L 220.7 477.6 L 234.1 477.6 L 234.1 479.9 L 223.5 479.9 L 223.5 486.7 L 232.8 486.7 L 232.8 489.0 " fill="#7E56C2"/>
<path class="legend" d="M 242.1 479.2 L 242.1 483.1 L 245.1 483.1 L 245.1 485.2 L 242.1 485.2 L 242.1 495.0 Q 242.1 495.9, 242.5 496.4 Q 242.9 496.9, 243.8 496.9 Q 244.3 496.9, 245.1 496.7 L 245.1 498.9 Q 244.1 499.2, 243.1 499.2 Q 241.2 499.2, 240.3 498.1 Q 239.4 497.0, 239.4 495.0 L 239.4 485.2 L 236.5 485.2 L 236.5 483.1 L 239.4 483.1 L 239.4 479.2 L 242.1 479.2 " fill="#7E56C2"/>
<path class="legend" d="M 250.1 485.0 Q 251.9 482.8, 254.8 482.8 Q 259.8 482.8, 259.9 488.4 L 259.9 498.9 L 257.1 498.9 L 257.1 488.4 Q 257.1 486.7, 256.4 485.9 Q 255.6 485.1, 254.0 485.1 Q 252.6 485.1, 251.6 485.8 Q 250.7 486.5, 250.1 487.6 L 250.1 498.9 L 247.4 498.9 L 247.4 476.4 L 250.1 476.4 L 250.1 485.0 " fill="#7E56C2"/>
<path class="legend" d="M 270.3 499.2 Q 267.1 499.2, 265.1 497.1 Q 263.1 495.0, 263.1 491.4 L 263.1 490.9 Q 263.1 488.6, 264.0 486.7 Q 264.9 484.9, 266.5 483.8 Q 268.1 482.8, 270.0 482.8 Q 273.1 482.8, 274.8 484.8 Q 276.5 486.8, 276.5 490.6 L 276.5 491.8 L 265.8 491.8 Q 265.8 494.1, 267.1 495.6 Q 268.5 497.0, 270.5 497.0 Q 271.9 497.0, 272.9 496.4 Q 273.9 495.8, 274.7 494.8 L 276.3 496.1 Q 274.3 499.2, 270.3 499.2 M 270.0 485.0 Q 268.4 485.0, 267.2 486.2 Q 266.1 487.4, 265.9 489.5 L 273.8 489.5 L 273.8 489.3 Q 273.7 487.3, 272.7 486.1 Q 271.7 485.0, 270.0 485.0 " fill="#7E56C2"/>
<path class="legend" d="M 281.4 483.1 L 281.5 485.0 Q 283.3 482.8, 286.2 482.8 Q 291.2 482.8, 291.3 488.4 L 291.3 498.9 L 288.6 498.9 L 288.6 488.4 Q 288.6 486.7, 287.8 485.9 Q 287.0 485.1, 285.4 485.1 Q 284.1 485.1, 283.1 485.8 Q 282.1 486.5, 281.5 487.6 L 281.5 498.9 L 278.8 498.9 L 278.8 483.1 L 281.4 483.1 " fill="#7E56C2"/>
</g>
    <g transform="translate(512.0, 0.0) scale(1 1) "><!-- END OF HEADER -->
<rect style="opacity:1.0;fill:#FF00FF00;stroke:none" width="512.0" height="512.0" x="0.0" y="0.0"> </rect>
<path class="bond-0 atom-0 atom-1" d="M 134.8,230.5 L 377.2,230.5" style="fill:none;fill-rule:evenodd;stroke:#7F4C19;stroke-width:4.0px;stroke-linecap:butt;stroke-linejoin:miter;stroke-opacity:1"/>
<path class="atom-0" d="M 92.4 244.7 L 92.4 216.3 L 101.7 216.3 Q 106.4 216.3, 108.7 218.2 Q 111.0 220.1, 111.0 223.9 Q 111.0 225.9, 109.9 227.4 Q 108.8 228.9, 106.8 229.8 Q 109.1 230.4, 110.5 232.2 Q 111.8 234.0, 111.8 236.5 Q 111.8 240.3, 109.3 242.5 Q 106.8 244.7, 102.3 244.7 L 92.4 244.7 M 96.2 231.4 L 96.2 241.7 L 102.4 241.7 Q 105.0 241.7, 106.5 240.3 Q 108.0 238.9, 108.0 236.6 Q 108.0 231.4, 102.4 231.4 L 96.2 231.4 M 96.2 228.4 L 101.9 228.4 Q 104.3 228.4, 105.8 227.2 Q 107.3 225.9, 107.3 223.8 Q 107.3 221.5, 105.9 220.4 Q 104.5 219.4, 101.7 219.4 L 96.2 219.4 L 96.2 228.4 " fill="#7F4C19"/>
<path class="atom-0" d="M 125.7 226.8 Q 124.9 226.7, 124.0 226.7 Q 120.4 226.7, 119.1 229.7 L 119.1 244.7 L 115.5 244.7 L 115.5 223.6 L 119.0 223.6 L 119.1 226.0 Q 120.9 223.2, 124.1 223.2 Q 125.2 223.2, 125.7 223.5 L 125.7 226.8 " fill="#7F4C19"/>
<path class="atom-1" d="M 386.3 244.7 L 386.3 216.3 L 395.6 216.3 Q 400.2 216.3, 402.5 218.2 Q 404.9 220.1, 404.9 223.9 Q 404.9 225.9, 403.7 227.4 Q 402.6 228.9, 400.6 229.8 Q 402.9 230.4, 404.3 232.2 Q 405.6 234.0, 405.6 236.5 Q 405.6 240.3, 403.1 242.5 Q 400.7 244.7, 396.1 244.7 L 386.3 244.7 M 390.0 231.4 L 390.0 241.7 L 396.2 241.7 Q 398.8 241.7, 400.3 240.3 Q 401.8 238.9, 401.8 236.6 Q 401.8 231.4, 396.3 231.4 L 390.0 231.4 M 390.0 228.4 L 395.7 228.4 Q 398.1 228.4, 399.6 227.2 Q 401.1 225.9, 401.1 223.8 Q 401.1 221.5, 399.7 220.4 Q 398.3 219.4, 395.6 219.4 L 390.0 219.4 L 390.0 228.4 " fill="#7F4C19"/>
<path class="atom-1" d="M 419.6 226.8 Q 418.7 226.7, 417.8 226.7 Q 414.2 226.7, 412.9 229.7 L 412.9 244.7 L 409.3 244.7 L 409.3 223.6 L 412.9 223.6 L 412.9 226.0 Q 414.7 223.2, 417.9 223.2 Q 419.0 223.2, 419.6 223.5 L 419.6 226.8 " fill="#7F4C19"/>
<path class="legend" d="M 222.6 498.9 L 222.6 477.6 L 229.6 477.6 Q 233.1 477.6, 234.8 479.0 Q 236.6 480.4, 236.6 483.3 Q 236.6 484.8, 235.7 485.9 Q 234.9 487.1, 233.4 487.7 Q 235.2 488.2, 236.1 489.5 Q 237.2 490.9, 237.2 492.8 Q 237.2 495.6, 235.3 497.3 Q 233.4 498.9, 230.0 498.9 L 222.6 498.9 M 225.5 488.9 L 225.5 496.6 L 230.1 496.6 Q 232.1 496.6, 233.2 495.6 Q 234.3 494.6, 234.3 492.8 Q 234.3 488.9, 230.1 488.9 L 225.5 488.9 M 225.5 486.7 L 229.7 486.7 Q 231.6 486.7, 232.6 485.8 Q 233.8 484.8, 233.8 483.2 Q 233.8 481.5, 232.7 480.7 Q 231.7 479.9, 229.6 479.9 L 225.5 479.9 L 225.5 486.7 " fill="#7E56C2"/>
<path class="legend" d="M 248.0 485.5 Q 247.4 485.4, 246.6 485.4 Q 244.0 485.4, 243.0 487.7 L 243.0 498.9 L 240.3 498.9 L 240.3 483.1 L 243.0 483.1 L 243.0 484.9 Q 244.3 482.8, 246.8 482.8 Q 247.6 482.8, 248.0 483.0 L 248.0 485.5 " fill="#7E56C2"/>
<path class="legend" d="M 249.9 490.8 Q 249.9 488.5, 250.8 486.6 Q 251.7 484.8, 253.3 483.8 Q 255.0 482.8, 257.1 482.8 Q 260.3 482.8, 262.3 485.0 Q 264.3 487.2, 264.3 491.0 L 264.3 491.2 Q 264.3 493.5, 263.4 495.3 Q 262.5 497.1, 260.9 498.2 Q 259.2 499.2, 257.1 499.2 Q 253.9 499.2, 251.9 497.0 Q 249.9 494.7, 249.9 491.0 L 249.9 490.8 M 252.6 491.2 Q 252.6 493.8, 253.8 495.4 Q 255.1 497.0, 257.1 497.0 Q 259.2 497.0, 260.4 495.4 Q 261.6 493.8, 261.6 490.8 Q 261.6 488.2, 260.4 486.6 Q 259.1 485.0, 257.1 485.0 Q 255.1 485.0, 253.8 486.6 Q 252.6 488.2, 252.6 491.2 " fill="#7E56C2"/>
<path class="legend" d="M 269.7 483.1 L 269.8 484.8 Q 271.5 482.8, 274.5 482.8 Q 277.8 482.8, 279.0 485.3 Q 279.8 484.2, 281.1 483.5 Q 282.3 482.8, 284.1 482.8 Q 289.3 482.8, 289.4 488.3 L 289.4 498.9 L 286.6 498.9 L 286.6 488.4 Q 286.6 486.7, 285.9 485.9 Q 285.1 485.1, 283.3 485.1 Q 281.8 485.1, 280.8 486.0 Q 279.8 486.9, 279.6 488.4 L 279.6 498.9 L 276.9 498.9 L 276.9 488.5 Q 276.9 485.1, 273.5 485.1 Q 270.8 485.1, 269.8 487.3 L 269.8 498.9 L 267.1 498.9 L 267.1 483.1 L 269.7 483.1 " fill="#7E56C2"/>
</g>
  </g>
</svg>
