<?xml version='1.0' encoding='ASCII' standalone='yes'?>
<svg xmlns="http://www.w3.org/2000/svg" xmlns:xlink="http://www.w3.org/1999/xlink" version="1.1" width="512.0px" viewBox="0 0 512.0 512.0" height="512.0px">
  <g>
    <g transform="translate(0.0, 0.0) scale(1 1) "><!-- END OF HEADER -->
<rect style="opacity:1.0;fill:#FF00FF00;stroke:none" width="512.0" height="512.0" x="0.0" y="0.0"> </rect>
<path class="bond-0 atom-0 atom-1" d="M 428.5,237.1 L 371.3,212.8" style="fill:none;fill-rule:evenodd;stroke:#7F4C19;stroke-width:4.0px;stroke-linecap:butt;stroke-linejoin:miter;stroke-opacity:1"/>
<path class="bond-0 atom-0 atom-1" d="M 371.3,212.8 L 314.1,188.5" style="fill:none;fill-rule:evenodd;stroke:#7E56C2;stroke-width:4.0px;stroke-linecap:butt;stroke-linejoin:miter;stroke-opacity:1"/>
<path class="bond-1 atom-1 atom-2" d="M 314.1,188.5 L 202.4,272.5" style="fill:none;fill-rule:evenodd;stroke:#7E56C2;stroke-width:4.0px;stroke-linecap:butt;stroke-linejoin:miter;stroke-opacity:1"/>
<path class="bond-2 atom-2 atom-3" d="M 202.4,272.5 L 143.0,247.2" style="fill:none;fill-rule:evenodd;stroke:#7E56C2;stroke-width:4.0px;stroke-linecap:butt;stroke-linejoin:miter;stroke-opacity:1"/>
<path class="bond-2 atom-2 atom-3" d="M 143.0,247.2 L 83.5,221.9" style="fill:none;fill-rule:evenodd;stroke:#7F4C19;stroke-width:4.0px;stroke-linecap:butt;stroke-linejoin:miter;stroke-opacity:1"/>
<path d="M 317.0,189.7 L 314.1,188.5 L 308.5,192.7" style="fill:none;stroke:#7E56C2;stroke-width:4.0px;stroke-linecap:butt;stroke-linejoin:miter;stroke-opacity:1;"/>
<path d="M 208.0,268.3 L 202.4,272.5 L 199.5,271.2" style="fill:none;stroke:#7E56C2;stroke-width:4.0px;stroke-linecap:butt;stroke-linejoin:miter;stroke-opacity:1;"/>
<path class="atom-0" d="M 433.1 257.4 L 433.1 229.0 L 442.4 229.0 Q 447.0 229.0, 449.3 230.9 Q 451.7 232.8, 451.7 236.6 Q 451.7 238.6, 450.5 240.1 Q 449.4 241.6, 447.4 242.5 Q 449.7 243.1, 451.1 244.9 Q 452.4 246.7, 452.4 249.2 Q 452.4 253.1, 449.9 255.3 Q 447.5 257.4, 442.9 257.4 L 433.1 257.4 M 436.8 244.1 L 436.8 254.4 L 443.0 254.4 Q 445.6 254.4, 447.1 253.0 Q 448.6 251.7, 448.6 249.3 Q 448.6 244.1, 443.1 244.1 L 436.8 244.1 M 436.8 241.1 L 442.5 241.1 Q 444.9 241.1, 446.4 239.9 Q 447.9 238.7, 447.9 236.6 Q 447.9 234.2, 446.5 233.2 Q 445.2 232.1, 442.4 232.1 L 436.8 232.1 L 436.8 241.1 " fill="#7F4C19"/>
<path class="atom-0" d="M 466.4 239.5 Q 465.5 239.4, 464.6 239.4 Q 461.0 239.4, 459.8 242.4 L 459.8 257.4 L 456.1 257.4 L 456.1 236.3 L 459.7 236.3 L 459.7 238.7 Q 461.5 235.9, 464.8 235.9 Q 465.8 235.9, 466.4 236.2 L 466.4 239.5 " fill="#7F4C19"/>
<path class="atom-3" d="M 45.6 232.0 L 45.6 203.6 L 54.9 203.6 Q 59.6 203.6, 61.9 205.5 Q 64.2 207.4, 64.2 211.1 Q 64.2 213.1, 63.1 214.7 Q 62.0 216.2, 60.0 217.0 Q 62.3 217.7, 63.6 219.5 Q 65.0 221.3, 65.0 223.8 Q 65.0 227.6, 62.5 229.8 Q 60.0 232.0, 55.5 232.0 L 45.6 232.0 M 49.4 218.7 L 49.4 228.9 L 55.6 228.9 Q 58.2 228.9, 59.7 227.6 Q 61.2 226.2, 61.2 223.8 Q 61.2 218.7, 55.6 218.7 L 49.4 218.7 M 49.4 215.7 L 55.1 215.7 Q 57.5 215.7, 59.0 214.5 Q 60.5 213.2, 60.5 211.1 Q 60.5 208.8, 59.1 207.7 Q 57.7 206.6, 54.9 206.6 L 49.4 206.6 L 49.4 215.7 " fill="#7F4C19"/>
<path class="atom-3" d="M 78.9 214.1 Q 78.1 214.0, 77.2 214.0 Q 73.6 214.0, 72.3 217.0 L 72.3 232.0 L 68.7 232.0 L 68.7 210.9 L 72.2 210.9 L 72.3 213.3 Q 74.1 210.5, 77.3 210.5 Q 78.4 210.5, 78.9 210.7 L 78.9 214.1 " fill="#7F4C19"/>
<path class="legend" d="M 159.1 495.0 L 156.4 495.0 L 156.4 476.9 L 150.9 478.9 L 150.9 476.4 L 158.7 473.5 L 159.1 473.5 L 159.1 495.0 " fill="#7E56C2"/>
<path class="legend" d="M 168.0 499.2 L 166.4 498.1 Q 167.8 496.2, 167.9 494.2 L 167.9 491.7 L 170.5 491.7 L 170.5 493.9 Q 170.5 495.3, 169.8 496.8 Q 169.1 498.3, 168.0 499.2 " fill="#7E56C2"/>
<path class="legend" d="M 187.4 495.0 L 173.4 495.0 L 173.4 493.0 L 180.8 484.8 Q 182.5 482.9, 183.1 481.8 Q 183.7 480.6, 183.7 479.4 Q 183.7 477.7, 182.7 476.6 Q 181.7 475.6, 180.0 475.6 Q 178.0 475.6, 176.9 476.7 Q 175.7 477.9, 175.7 479.9 L 173.0 479.9 Q 173.0 477.0, 174.9 475.1 Q 176.8 473.3, 180.0 473.3 Q 183.0 473.3, 184.7 474.9 Q 186.4 476.5, 186.4 479.0 Q 186.4 482.2, 182.4 486.5 L 176.7 492.7 L 187.4 492.7 L 187.4 495.0 " fill="#7E56C2"/>
<path class="legend" d="M 196.8 487.0 L 189.7 487.0 L 189.7 484.8 L 196.8 484.8 L 196.8 487.0 " fill="#7E56C2"/>
<path class="legend" d="M 198.5 495.0 L 198.5 473.6 L 204.5 473.6 Q 207.3 473.6, 209.5 474.9 Q 211.6 476.1, 212.8 478.4 Q 213.9 480.6, 213.9 483.6 L 213.9 484.9 Q 213.9 487.9, 212.8 490.2 Q 211.6 492.5, 209.4 493.7 Q 207.3 494.9, 204.4 495.0 L 198.5 495.0 M 201.3 475.9 L 201.3 492.7 L 204.3 492.7 Q 207.5 492.7, 209.3 490.6 Q 211.2 488.6, 211.2 484.9 L 211.2 483.6 Q 211.2 480.0, 209.4 478.0 Q 207.7 476.0, 204.6 475.9 L 201.3 475.9 " fill="#7E56C2"/>
<path class="legend" d="M 219.8 495.0 L 217.1 495.0 L 217.1 479.1 L 219.8 479.1 L 219.8 495.0 M 216.9 474.9 Q 216.9 474.2, 217.2 473.8 Q 217.7 473.3, 218.4 473.3 Q 219.2 473.3, 219.7 473.8 Q 220.1 474.2, 220.1 474.9 Q 220.1 475.6, 219.7 476.0 Q 219.2 476.4, 218.4 476.4 Q 217.7 476.4, 217.2 476.0 Q 216.9 475.6, 216.9 474.9 " fill="#7E56C2"/>
<path class="legend" d="M 236.6 487.2 Q 236.6 490.8, 235.0 493.0 Q 233.3 495.2, 230.5 495.2 Q 227.5 495.2, 225.8 493.1 L 225.7 495.0 L 223.2 495.0 L 223.2 472.5 L 225.9 472.5 L 225.9 480.8 Q 227.6 478.8, 230.4 478.8 Q 233.3 478.8, 235.0 481.0 Q 236.6 483.2, 236.6 487.0 L 236.6 487.2 M 233.9 486.9 Q 233.9 484.1, 232.8 482.6 Q 231.8 481.1, 229.8 481.1 Q 227.1 481.1, 225.9 483.6 L 225.9 490.5 Q 227.2 492.9, 229.8 492.9 Q 231.7 492.9, 232.8 491.4 Q 233.9 489.9, 233.9 486.9 " fill="#7E56C2"/>
<path class="legend" d="M 246.8 481.5 Q 246.2 481.4, 245.4 481.4 Q 242.8 481.4, 241.8 483.7 L 241.8 495.0 L 239.1 495.0 L 239.1 479.1 L 241.8 479.1 L 241.8 480.9 Q 243.1 478.8, 245.6 478.8 Q 246.4 478.8, 246.8 479.0 L 246.8 481.5 " fill="#7E56C2"/>
<path class="legend" d="M 248.4 486.9 Q 248.4 484.6, 249.3 482.7 Q 250.2 480.8, 251.8 479.8 Q 253.5 478.8, 255.5 478.8 Q 258.8 478.8, 260.8 481.1 Q 262.8 483.3, 262.8 487.0 L 262.8 487.2 Q 262.8 489.5, 261.9 491.4 Q 261.0 493.2, 259.4 494.2 Q 257.7 495.2, 255.6 495.2 Q 252.4 495.2, 250.3 493.0 Q 248.4 490.8, 248.4 487.1 L 248.4 486.9 M 251.1 487.2 Q 251.1 489.8, 252.3 491.4 Q 253.5 493.0, 255.6 493.0 Q 257.6 493.0, 258.9 491.4 Q 260.1 489.8, 260.1 486.9 Q 260.1 484.3, 258.8 482.7 Q 257.6 481.0, 255.5 481.0 Q 253.5 481.0, 252.3 482.6 Q 251.1 484.2, 251.1 487.2 " fill="#7E56C2"/>
<path class="legend" d="M 267.8 479.1 L 267.9 480.9 Q 269.6 478.8, 272.6 478.8 Q 275.9 478.8, 277.1 481.4 Q 277.9 480.2, 279.2 479.5 Q 280.5 478.8, 282.2 478.8 Q 287.4 478.8, 287.5 484.3 L 287.5 495.0 L 284.8 495.0 L 284.8 484.5 Q 284.8 482.8, 284.0 482.0 Q 283.2 481.1, 281.4 481.1 Q 279.9 481.1, 278.9 482.0 Q 277.9 482.9, 277.7 484.4 L 277.7 495.0 L 275.0 495.0 L 275.0 484.6 Q 275.0 481.1, 271.6 481.1 Q 269.0 481.1, 268.0 483.4 L 268.0 495.0 L 265.3 495.0 L 265.3 479.1 L 267.8 479.1 " fill="#7E56C2"/>
<path class="legend" d="M 297.9 495.2 Q 294.7 495.2, 292.7 493.1 Q 290.7 491.0, 290.7 487.5 L 290.7 487.0 Q 290.7 484.6, 291.6 482.8 Q 292.5 480.9, 294.1 479.9 Q 295.7 478.8, 297.6 478.8 Q 300.7 478.8, 302.4 480.8 Q 304.1 482.9, 304.1 486.7 L 304.1 487.8 L 293.4 487.8 Q 293.4 490.1, 294.7 491.6 Q 296.0 493.0, 298.1 493.0 Q 299.5 493.0, 300.5 492.4 Q 301.5 491.9, 302.2 490.9 L 303.9 492.2 Q 301.9 495.2, 297.9 495.2 M 297.6 481.0 Q 295.9 481.0, 294.8 482.2 Q 293.7 483.4, 293.5 485.6 L 301.4 485.6 L 301.4 485.4 Q 301.3 483.3, 300.3 482.2 Q 299.3 481.0, 297.6 481.0 " fill="#7E56C2"/>
<path class="legend" d="M 311.9 475.3 L 311.9 479.1 L 314.9 479.1 L 314.9 481.2 L 311.9 481.2 L 311.9 491.0 Q 311.9 492.0, 312.3 492.5 Q 312.7 492.9, 313.7 492.9 Q 314.1 492.9, 315.0 492.8 L 315.0 495.0 Q 313.9 495.2, 312.9 495.2 Q 311.1 495.2, 310.1 494.1 Q 309.2 493.0, 309.2 491.0 L 309.2 481.2 L 306.3 481.2 L 306.3 479.1 L 309.2 479.1 L 309.2 475.3 L 311.9 475.3 " fill="#7E56C2"/>
<path class="legend" d="M 319.8 481.0 Q 321.6 478.8, 324.5 478.8 Q 329.5 478.8, 329.6 484.5 L 329.6 495.0 L 326.9 495.0 L 326.9 484.5 Q 326.9 482.7, 326.1 481.9 Q 325.3 481.1, 323.7 481.1 Q 322.4 481.1, 321.4 481.8 Q 320.4 482.5, 319.8 483.7 L 319.8 495.0 L 317.1 495.0 L 317.1 472.5 L 319.8 472.5 L 319.8 481.0 " fill="#7E56C2"/>
<path class="legend" d="M 343.0 495.0 Q 342.7 494.5, 342.6 493.3 Q 340.7 495.2, 338.1 495.2 Q 335.7 495.2, 334.2 493.9 Q 332.7 492.6, 332.7 490.6 Q 332.7 488.1, 334.6 486.7 Q 336.5 485.3, 339.9 485.3 L 342.5 485.3 L 342.5 484.1 Q 342.5 482.7, 341.7 481.8 Q 340.8 481.0, 339.2 481.0 Q 337.7 481.0, 336.8 481.7 Q 335.8 482.5, 335.8 483.5 L 333.1 483.5 Q 333.1 482.3, 333.9 481.2 Q 334.7 480.1, 336.2 479.5 Q 337.6 478.8, 339.4 478.8 Q 342.1 478.8, 343.6 480.2 Q 345.2 481.5, 345.3 484.0 L 345.3 491.2 Q 345.3 493.4, 345.8 494.7 L 345.8 495.0 L 343.0 495.0 M 338.5 492.9 Q 339.8 492.9, 340.9 492.2 Q 342.0 491.6, 342.5 490.5 L 342.5 487.3 L 340.4 487.3 Q 335.4 487.3, 335.4 490.2 Q 335.4 491.5, 336.3 492.2 Q 337.1 492.9, 338.5 492.9 " fill="#7E56C2"/>
<path class="legend" d="M 351.2 479.1 L 351.2 481.1 Q 353.1 478.8, 356.0 478.8 Q 361.0 478.8, 361.1 484.5 L 361.1 495.0 L 358.3 495.0 L 358.3 484.5 Q 358.3 482.7, 357.6 481.9 Q 356.8 481.1, 355.2 481.1 Q 353.9 481.1, 352.9 481.8 Q 351.9 482.5, 351.3 483.7 L 351.3 495.0 L 348.6 495.0 L 348.6 479.1 L 351.2 479.1 " fill="#7E56C2"/>
</g>
  </g>
</svg>
