<?xml version='1.0' encoding='ASCII' standalone='yes'?>
<svg xmlns="http://www.w3.org/2000/svg" xmlns:xlink="http://www.w3.org/1999/xlink" version="1.1" width="1024.0px" viewBox="0 0 1024.0 512.0" height="512.0px">
  <g>
    <g transform="translate(0.0, 0.0) scale(1 1) "><!-- END OF HEADER -->
<rect style="opacity:1.0;fill:#FF00FF00;stroke:none" width="512.0" height="512.0" x="0.0" y="0.0"> </rect>
<path class="bond-0 atom-0 atom-1" d="M 23.3,246.5 L 185.5,177.5" style="fill:none;fill-rule:evenodd;stroke:#7E56C2;stroke-width:4.0px;stroke-linecap:butt;stroke-linejoin:miter;stroke-opacity:1"/>
<path class="bond-1 atom-1 atom-2" d="M 185.5,177.5 L 326.5,283.5" style="fill:none;fill-rule:evenodd;stroke:#7E56C2;stroke-width:4.0px;stroke-linecap:butt;stroke-linejoin:miter;stroke-opacity:1"/>
<path class="bond-2 atom-2 atom-3" d="M 326.5,283.5 L 488.7,214.5" style="fill:none;fill-rule:evenodd;stroke:#7E56C2;stroke-width:4.0px;stroke-linecap:butt;stroke-linejoin:miter;stroke-opacity:1"/>
<path d="M 177.4,181.0 L 185.5,177.5 L 192.6,182.8" style="fill:none;stroke:#7E56C2;stroke-width:4.0px;stroke-linecap:butt;stroke-linejoin:miter;stroke-opacity:1;"/>
<path d="M 319.4,278.2 L 326.5,283.5 L 334.6,280.0" style="fill:none;stroke:#7E56C2;stroke-width:4.0px;stroke-linecap:butt;stroke-linejoin:miter;stroke-opacity:1;"/>
<path class="legend" d="M 210.2 483.1 L 210.3 485.0 Q 212.1 482.8, 215.0 482.8 Q 220.0 482.8, 220.1 488.4 L 220.1 498.9 L 217.4 498.9 L 217.4 488.4 Q 217.4 486.7, 216.6 485.9 Q 215.8 485.1, 214.2 485.1 Q 212.9 485.1, 211.9 485.8 Q 210.9 486.5, 210.3 487.6 L 210.3 498.9 L 207.6 498.9 L 207.6 483.1 L 210.2 483.1 " fill="#7E56C2"/>
<path class="legend" d="M 230.4 491.0 L 223.3 491.0 L 223.3 488.7 L 230.4 488.7 L 230.4 491.0 " fill="#7E56C2"/>
<path class="legend" d="M 232.2 498.9 L 232.2 477.6 L 239.1 477.6 Q 242.6 477.6, 244.4 479.0 Q 246.1 480.4, 246.1 483.3 Q 246.1 484.8, 245.3 485.9 Q 244.4 487.1, 242.9 487.7 Q 244.7 488.2, 245.7 489.5 Q 246.7 490.9, 246.7 492.8 Q 246.7 495.6, 244.8 497.3 Q 243.0 498.9, 239.6 498.9 L 232.2 498.9 M 235.0 488.9 L 235.0 496.6 L 239.6 496.6 Q 241.6 496.6, 242.7 495.6 Q 243.9 494.6, 243.9 492.8 Q 243.9 488.9, 239.7 488.9 L 235.0 488.9 M 235.0 486.7 L 239.2 486.7 Q 241.1 486.7, 242.2 485.8 Q 243.3 484.8, 243.3 483.2 Q 243.3 481.5, 242.3 480.7 Q 241.2 479.9, 239.1 479.9 L 235.0 479.9 L 235.0 486.7 " fill="#7E56C2"/>
<path class="legend" d="M 259.4 497.3 Q 257.8 499.2, 254.7 499.2 Q 252.2 499.2, 250.9 497.7 Q 249.5 496.3, 249.5 493.4 L 249.5 483.1 L 252.2 483.1 L 252.2 493.3 Q 252.2 496.9, 255.2 496.9 Q 258.3 496.9, 259.3 494.6 L 259.3 483.1 L 262.0 483.1 L 262.0 498.9 L 259.4 498.9 L 259.4 497.3 " fill="#7E56C2"/>
<path class="legend" d="M 270.8 479.2 L 270.8 483.1 L 273.8 483.1 L 273.8 485.2 L 270.8 485.2 L 270.8 495.0 Q 270.8 495.9, 271.2 496.4 Q 271.6 496.9, 272.6 496.9 Q 273.0 496.9, 273.8 496.7 L 273.8 498.9 Q 272.8 499.2, 271.8 499.2 Q 269.9 499.2, 269.0 498.1 Q 268.1 497.0, 268.1 495.0 L 268.1 485.2 L 265.2 485.2 L 265.2 483.1 L 268.1 483.1 L 268.1 479.2 L 270.8 479.2 " fill="#7E56C2"/>
<path class="legend" d="M 286.3 498.9 Q 286.0 498.4, 285.9 497.2 Q 284.0 499.2, 281.4 499.2 Q 279.0 499.2, 277.5 497.9 Q 276.0 496.5, 276.0 494.5 Q 276.0 492.0, 277.9 490.7 Q 279.8 489.3, 283.2 489.3 L 285.9 489.3 L 285.9 488.1 Q 285.9 486.6, 285.0 485.8 Q 284.2 484.9, 282.5 484.9 Q 281.0 484.9, 280.1 485.7 Q 279.1 486.4, 279.1 487.5 L 276.4 487.5 Q 276.4 486.3, 277.2 485.2 Q 278.0 484.1, 279.5 483.4 Q 280.9 482.8, 282.7 482.8 Q 285.4 482.8, 287.0 484.1 Q 288.5 485.5, 288.6 487.9 L 288.6 495.2 Q 288.6 497.4, 289.1 498.7 L 289.1 498.9 L 286.3 498.9 M 281.8 496.8 Q 283.1 496.8, 284.2 496.2 Q 285.3 495.5, 285.9 494.5 L 285.9 491.2 L 283.7 491.2 Q 278.8 491.2, 278.8 494.1 Q 278.8 495.4, 279.6 496.1 Q 280.4 496.8, 281.8 496.8 " fill="#7E56C2"/>
<path class="legend" d="M 294.5 483.1 L 294.6 485.0 Q 296.4 482.8, 299.3 482.8 Q 304.3 482.8, 304.4 488.4 L 304.4 498.9 L 301.7 498.9 L 301.7 488.4 Q 301.7 486.7, 300.9 485.9 Q 300.1 485.1, 298.5 485.1 Q 297.2 485.1, 296.2 485.8 Q 295.2 486.5, 294.6 487.6 L 294.6 498.9 L 291.9 498.9 L 291.9 483.1 L 294.5 483.1 " fill="#7E56C2"/>
</g>
    <g transform="translate(512.0, 0.0) scale(1 1) "><!-- END OF HEADER -->
<rect style="opacity:1.0;fill:#FF00FF00;stroke:none" width="512.0" height="512.0" x="0.0" y="0.0"> </rect>
<path class="bond-0 atom-0 atom-1" d="M 23.3,432.0 L 256.0,297.7" style="fill:none;fill-rule:evenodd;stroke:#7E56C2;stroke-width:4.0px;stroke-linecap:butt;stroke-linejoin:miter;stroke-opacity:1"/>
<path class="bond-1 atom-1 atom-2" d="M 256.0,297.7 L 488.7,432.0" style="fill:none;fill-rule:evenodd;stroke:#7E56C2;stroke-width:4.0px;stroke-linecap:butt;stroke-linejoin:miter;stroke-opacity:1"/>
<path class="bond-2 atom-1 atom-3" d="M 256.0,297.7 L 256.0,29.0" style="fill:none;fill-rule:evenodd;stroke:#7E56C2;stroke-width:4.0px;stroke-linecap:butt;stroke-linejoin:miter;stroke-opacity:1"/>
<path class="legend" d="M 82.4 492.3 L 79.6 492.3 L 79.6 471.0 L 82.4 471.0 L 82.4 492.3 " fill="#7E56C2"/>
<path class="legend" d="M 96.0 488.1 Q 96.0 487.0, 95.2 486.4 Q 94.4 485.8, 92.3 485.4 Q 90.2 484.9, 89.0 484.3 Q 87.8 483.7, 87.2 482.8 Q 86.7 482.0, 86.7 480.8 Q 86.7 478.9, 88.3 477.5 Q 90.0 476.2, 92.5 476.2 Q 95.2 476.2, 96.9 477.6 Q 98.6 479.0, 98.6 481.1 L 95.9 481.1 Q 95.9 480.0, 94.9 479.2 Q 94.0 478.4, 92.5 478.4 Q 91.0 478.4, 90.2 479.0 Q 89.4 479.7, 89.4 480.7 Q 89.4 481.7, 90.2 482.2 Q 90.9 482.7, 93.0 483.2 Q 95.0 483.6, 96.2 484.2 Q 97.5 484.9, 98.1 485.8 Q 98.7 486.6, 98.7 487.9 Q 98.7 490.0, 97.0 491.3 Q 95.3 492.6, 92.6 492.6 Q 90.7 492.6, 89.2 491.9 Q 87.8 491.3, 86.9 490.1 Q 86.1 488.8, 86.1 487.4 L 88.8 487.4 Q 88.9 488.8, 89.9 489.6 Q 90.9 490.4, 92.6 490.4 Q 94.2 490.4, 95.1 489.8 Q 96.0 489.2, 96.0 488.1 " fill="#7E56C2"/>
<path class="legend" d="M 101.3 484.2 Q 101.3 481.9, 102.2 480.1 Q 103.1 478.2, 104.7 477.2 Q 106.4 476.2, 108.5 476.2 Q 111.7 476.2, 113.7 478.4 Q 115.7 480.7, 115.7 484.4 L 115.7 484.6 Q 115.7 486.9, 114.8 488.7 Q 113.9 490.6, 112.3 491.6 Q 110.6 492.6, 108.5 492.6 Q 105.3 492.6, 103.3 490.4 Q 101.3 488.1, 101.3 484.4 L 101.3 484.2 M 104.0 484.6 Q 104.0 487.2, 105.2 488.8 Q 106.5 490.4, 108.5 490.4 Q 110.6 490.4, 111.8 488.8 Q 113.0 487.2, 113.0 484.2 Q 113.0 481.6, 111.8 480.0 Q 110.5 478.4, 108.5 478.4 Q 106.5 478.4, 105.2 480.0 Q 104.0 481.6, 104.0 484.6 " fill="#7E56C2"/>
<path class="legend" d="M 125.3 484.4 L 118.1 484.4 L 118.1 482.1 L 125.3 482.1 L 125.3 484.4 " fill="#7E56C2"/>
<path class="legend" d="M 127.0 492.3 L 127.0 471.0 L 133.9 471.0 Q 137.4 471.0, 139.2 472.4 Q 140.9 473.9, 140.9 476.7 Q 140.9 478.2, 140.1 479.3 Q 139.2 480.5, 137.7 481.1 Q 139.5 481.6, 140.5 482.9 Q 141.5 484.3, 141.5 486.2 Q 141.5 489.0, 139.6 490.7 Q 137.8 492.3, 134.4 492.3 L 127.0 492.3 M 129.8 482.3 L 129.8 490.0 L 134.4 490.0 Q 136.4 490.0, 137.5 489.0 Q 138.7 488.0, 138.7 486.2 Q 138.7 482.3, 134.5 482.3 L 129.8 482.3 M 129.8 480.1 L 134.0 480.1 Q 135.9 480.1, 137.0 479.2 Q 138.1 478.2, 138.1 476.7 Q 138.1 474.9, 137.1 474.1 Q 136.0 473.3, 133.9 473.3 L 129.8 473.3 L 129.8 480.1 " fill="#7E56C2"/>
<path class="legend" d="M 154.1 490.7 Q 152.5 492.6, 149.4 492.6 Q 146.9 492.6, 145.6 491.1 Q 144.3 489.7, 144.2 486.8 L 144.2 476.5 L 147.0 476.5 L 147.0 486.7 Q 147.0 490.3, 149.9 490.3 Q 153.0 490.3, 154.0 488.0 L 154.0 476.5 L 156.7 476.5 L 156.7 492.3 L 154.1 492.3 L 154.1 490.7 " fill="#7E56C2"/>
<path class="legend" d="M 165.5 472.6 L 165.5 476.5 L 168.4 476.5 L 168.4 478.6 L 165.5 478.6 L 165.5 488.4 Q 165.5 489.3, 165.9 489.8 Q 166.3 490.3, 167.2 490.3 Q 167.7 490.3, 168.5 490.1 L 168.5 492.3 Q 167.4 492.6, 166.4 492.6 Q 164.6 492.6, 163.7 491.5 Q 162.8 490.4, 162.8 488.4 L 162.8 478.6 L 159.9 478.6 L 159.9 476.5 L 162.8 476.5 L 162.8 472.6 L 165.5 472.6 " fill="#7E56C2"/>
<path class="legend" d="M 180.9 492.3 Q 180.6 491.8, 180.5 490.6 Q 178.6 492.6, 176.0 492.6 Q 173.6 492.6, 172.1 491.3 Q 170.6 490.0, 170.6 487.9 Q 170.6 485.4, 172.5 484.1 Q 174.4 482.7, 177.8 482.7 L 180.4 482.7 L 180.4 481.5 Q 180.4 480.0, 179.6 479.2 Q 178.7 478.4, 177.1 478.4 Q 175.6 478.4, 174.7 479.1 Q 173.7 479.8, 173.7 480.9 L 170.9 480.9 Q 170.9 479.7, 171.8 478.6 Q 172.6 477.5, 174.1 476.8 Q 175.5 476.2, 177.2 476.2 Q 180.0 476.2, 181.5 477.5 Q 183.1 478.9, 183.2 481.3 L 183.2 488.6 Q 183.2 490.8, 183.7 492.1 L 183.7 492.3 L 180.9 492.3 M 176.4 490.2 Q 177.6 490.2, 178.8 489.6 Q 179.9 488.9, 180.4 487.9 L 180.4 484.6 L 178.3 484.6 Q 173.3 484.6, 173.3 487.5 Q 173.3 488.8, 174.2 489.5 Q 175.0 490.2, 176.4 490.2 " fill="#7E56C2"/>
<path class="legend" d="M 189.0 476.5 L 189.1 478.5 Q 190.9 476.2, 193.8 476.2 Q 198.9 476.2, 198.9 481.8 L 198.9 492.3 L 196.2 492.3 L 196.2 481.8 Q 196.2 480.1, 195.4 479.3 Q 194.6 478.5, 193.0 478.5 Q 191.7 478.5, 190.7 479.2 Q 189.7 479.9, 189.1 481.0 L 189.1 492.3 L 186.4 492.3 L 186.4 476.5 L 189.0 476.5 " fill="#7E56C2"/>
<path class="legend" d="" fill="#7E56C2"/>
<path class="legend" d="M 213.0 483.7 Q 213.0 480.3, 213.9 477.3 Q 214.8 474.3, 216.5 471.8 Q 218.3 469.3, 220.2 468.2 L 220.7 470.0 Q 218.6 471.7, 217.2 475.0 Q 215.9 478.4, 215.7 482.6 L 215.7 483.8 Q 215.7 489.5, 217.8 493.6 Q 219.0 496.1, 220.7 497.5 L 220.2 499.2 Q 218.2 498.1, 216.5 495.6 Q 213.0 490.6, 213.0 483.7 " fill="#7E56C2"/>
<path class="legend" d="M 236.8 492.3 L 222.8 492.3 L 222.8 490.4 L 230.2 482.2 Q 231.8 480.3, 232.4 479.1 Q 233.1 478.0, 233.1 476.7 Q 233.1 475.1, 232.1 474.0 Q 231.0 472.9, 229.4 472.9 Q 227.3 472.9, 226.2 474.1 Q 225.1 475.2, 225.1 477.3 L 222.4 477.3 Q 222.4 474.3, 224.3 472.5 Q 226.2 470.7, 229.4 470.7 Q 232.3 470.7, 234.1 472.3 Q 235.8 473.8, 235.8 476.4 Q 235.8 479.6, 231.8 483.9 L 226.1 490.1 L 236.8 490.1 L 236.8 492.3 " fill="#7E56C2"/>
<path class="legend" d="M 246.1 484.4 L 239.0 484.4 L 239.0 482.1 L 246.1 482.1 L 246.1 484.4 " fill="#7E56C2"/>
<path class="legend" d="M 251.4 471.0 L 258.4 488.4 L 265.4 471.0 L 269.0 471.0 L 269.0 492.3 L 266.2 492.3 L 266.2 484.0 L 266.5 475.0 L 259.4 492.3 L 257.3 492.3 L 250.3 475.1 L 250.6 484.0 L 250.6 492.3 L 247.8 492.3 L 247.8 471.0 L 251.4 471.0 " fill="#7E56C2"/>
<path class="legend" d="M 279.8 492.6 Q 276.6 492.6, 274.6 490.5 Q 272.6 488.4, 272.6 484.8 L 272.6 484.3 Q 272.6 482.0, 273.5 480.1 Q 274.4 478.3, 276.0 477.2 Q 277.6 476.2, 279.5 476.2 Q 282.6 476.2, 284.3 478.2 Q 286.0 480.2, 286.0 484.0 L 286.0 485.2 L 275.3 485.2 Q 275.3 487.5, 276.6 489.0 Q 278.0 490.4, 280.0 490.4 Q 281.4 490.4, 282.4 489.8 Q 283.4 489.2, 284.2 488.3 L 285.8 489.5 Q 283.8 492.6, 279.8 492.6 M 279.5 478.4 Q 277.9 478.4, 276.7 479.6 Q 275.6 480.8, 275.4 482.9 L 283.3 482.9 L 283.3 482.7 Q 283.2 480.7, 282.2 479.5 Q 281.2 478.4, 279.5 478.4 " fill="#7E56C2"/>
<path class="legend" d="M 293.8 472.6 L 293.8 476.5 L 296.7 476.5 L 296.7 478.6 L 293.8 478.6 L 293.8 488.4 Q 293.8 489.3, 294.2 489.8 Q 294.6 490.3, 295.5 490.3 Q 296.0 490.3, 296.8 490.1 L 296.8 492.3 Q 295.7 492.6, 294.7 492.6 Q 292.9 492.6, 292.0 491.5 Q 291.1 490.4, 291.1 488.4 L 291.1 478.6 L 288.2 478.6 L 288.2 476.5 L 291.1 476.5 L 291.1 472.6 L 293.8 472.6 " fill="#7E56C2"/>
<path class="legend" d="M 301.6 478.4 Q 303.5 476.2, 306.3 476.2 Q 311.4 476.2, 311.4 481.8 L 311.4 492.3 L 308.7 492.3 L 308.7 481.8 Q 308.7 480.1, 307.9 479.3 Q 307.1 478.5, 305.5 478.5 Q 304.2 478.5, 303.2 479.2 Q 302.2 479.9, 301.6 481.0 L 301.6 492.3 L 298.9 492.3 L 298.9 469.8 L 301.6 469.8 L 301.6 478.4 " fill="#7E56C2"/>
<path class="legend" d="M 321.4 488.3 L 325.1 476.5 L 328.0 476.5 L 321.6 494.8 Q 320.1 498.7, 316.9 498.7 L 316.4 498.7 L 315.4 498.5 L 315.4 496.3 L 316.1 496.3 Q 317.5 496.3, 318.3 495.8 Q 319.0 495.2, 319.5 493.8 L 320.1 492.1 L 314.5 476.5 L 317.5 476.5 L 321.4 488.3 " fill="#7E56C2"/>
<path class="legend" d="M 332.2 492.3 L 329.4 492.3 L 329.4 469.8 L 332.2 469.8 L 332.2 492.3 " fill="#7E56C2"/>
<path class="legend" d="M 348.9 484.6 Q 348.9 488.2, 347.3 490.4 Q 345.6 492.6, 342.8 492.6 Q 339.9 492.6, 338.2 490.8 L 338.2 498.4 L 335.5 498.4 L 335.5 476.5 L 338.0 476.5 L 338.1 478.2 Q 339.8 476.2, 342.7 476.2 Q 345.6 476.2, 347.2 478.3 Q 348.9 480.5, 348.9 484.3 L 348.9 484.6 M 346.2 484.3 Q 346.2 481.6, 345.1 480.0 Q 343.9 478.5, 341.9 478.5 Q 339.5 478.5, 338.2 480.7 L 338.2 488.2 Q 339.5 490.4, 342.0 490.4 Q 343.9 490.4, 345.0 488.9 Q 346.2 487.3, 346.2 484.3 " fill="#7E56C2"/>
<path class="legend" d="M 359.1 478.9 Q 358.4 478.8, 357.7 478.8 Q 355.1 478.8, 354.1 481.1 L 354.1 492.3 L 351.4 492.3 L 351.4 476.5 L 354.0 476.5 L 354.1 478.3 Q 355.4 476.2, 357.9 476.2 Q 358.6 476.2, 359.1 476.4 L 359.1 478.9 " fill="#7E56C2"/>
<path class="legend" d="M 360.6 484.2 Q 360.6 481.9, 361.5 480.1 Q 362.4 478.2, 364.0 477.2 Q 365.7 476.2, 367.8 476.2 Q 371.0 476.2, 373.0 478.4 Q 375.0 480.7, 375.0 484.4 L 375.0 484.6 Q 375.0 486.9, 374.1 488.7 Q 373.2 490.6, 371.6 491.6 Q 369.9 492.6, 367.8 492.6 Q 364.6 492.6, 362.6 490.4 Q 360.6 488.1, 360.6 484.4 L 360.6 484.2 M 363.3 484.6 Q 363.3 487.2, 364.5 488.8 Q 365.7 490.4, 367.8 490.4 Q 369.9 490.4, 371.1 488.8 Q 372.3 487.2, 372.3 484.2 Q 372.3 481.6, 371.0 480.0 Q 369.8 478.4, 367.8 478.4 Q 365.8 478.4, 364.5 480.0 Q 363.3 481.6, 363.3 484.6 " fill="#7E56C2"/>
<path class="legend" d="M 390.8 484.6 Q 390.8 488.2, 389.2 490.4 Q 387.5 492.6, 384.7 492.6 Q 381.8 492.6, 380.1 490.8 L 380.1 498.4 L 377.4 498.4 L 377.4 476.5 L 379.9 476.5 L 380.0 478.2 Q 381.7 476.2, 384.6 476.2 Q 387.5 476.2, 389.2 478.3 Q 390.8 480.5, 390.8 484.3 L 390.8 484.6 M 388.1 484.3 Q 388.1 481.6, 387.0 480.0 Q 385.8 478.5, 383.8 478.5 Q 381.4 478.5, 380.1 480.7 L 380.1 488.2 Q 381.4 490.4, 383.9 490.4 Q 385.8 490.4, 387.0 488.9 Q 388.1 487.3, 388.1 484.3 " fill="#7E56C2"/>
<path class="legend" d="M 403.5 492.3 Q 403.3 491.8, 403.2 490.6 Q 401.3 492.6, 398.6 492.6 Q 396.3 492.6, 394.8 491.3 Q 393.3 490.0, 393.3 487.9 Q 393.3 485.4, 395.2 484.1 Q 397.1 482.7, 400.5 482.7 L 403.1 482.7 L 403.1 481.5 Q 403.1 480.0, 402.3 479.2 Q 401.4 478.4, 399.8 478.4 Q 398.3 478.4, 397.3 479.1 Q 396.3 479.8, 396.3 480.9 L 393.6 480.9 Q 393.6 479.7, 394.5 478.6 Q 395.3 477.5, 396.7 476.8 Q 398.2 476.2, 399.9 476.2 Q 402.7 476.2, 404.2 477.5 Q 405.8 478.9, 405.8 481.3 L 405.8 488.6 Q 405.8 490.8, 406.4 492.1 L 406.4 492.3 L 403.5 492.3 M 399.0 490.2 Q 400.3 490.2, 401.5 489.6 Q 402.6 488.9, 403.1 487.9 L 403.1 484.6 L 401.0 484.6 Q 396.0 484.6, 396.0 487.5 Q 396.0 488.8, 396.9 489.5 Q 397.7 490.2, 399.0 490.2 " fill="#7E56C2"/>
<path class="legend" d="M 411.7 476.5 L 411.8 478.5 Q 413.6 476.2, 416.5 476.2 Q 421.5 476.2, 421.6 481.8 L 421.6 492.3 L 418.9 492.3 L 418.9 481.8 Q 418.8 480.1, 418.1 479.3 Q 417.3 478.5, 415.7 478.5 Q 414.4 478.5, 413.4 479.2 Q 412.4 479.9, 411.8 481.0 L 411.8 492.3 L 409.1 492.3 L 409.1 476.5 L 411.7 476.5 " fill="#7E56C2"/>
<path class="legend" d="M 432.4 483.8 Q 432.4 487.1, 431.6 490.1 Q 430.7 493.1, 428.9 495.6 Q 427.2 498.1, 425.3 499.2 L 424.7 497.5 Q 426.9 495.8, 428.3 492.2 Q 429.7 488.5, 429.7 484.1 L 429.7 483.6 Q 429.7 480.6, 429.1 477.9 Q 428.4 475.3, 427.3 473.2 Q 426.1 471.1, 424.7 469.9 L 425.3 468.2 Q 427.2 469.3, 428.9 471.8 Q 430.7 474.3, 431.6 477.3 Q 432.4 480.4, 432.4 483.8 " fill="#7E56C2"/>
</g>
  </g>
</svg>
