<?xml version='1.0' encoding='ASCII' standalone='yes'?>
<svg xmlns="http://www.w3.org/2000/svg" xmlns:xlink="http://www.w3.org/1999/xlink" version="1.1" width="1024.0px" viewBox="0 0 1024.0 512.0" height="512.0px">
  <g>
    <g transform="translate(0.0, 0.0) scale(1 1) "><!-- END OF HEADER -->
<rect style="opacity:1.0;fill:#FF00FF00;stroke:none" width="512.0" height="512.0" x="0.0" y="0.0"> </rect>
<path class="bond-0 atom-0 atom-1" d="M 23.3,246.5 L 185.5,177.5" style="fill:none;fill-rule:evenodd;stroke:#7E56C2;stroke-width:4.0px;stroke-linecap:butt;stroke-linejoin:miter;stroke-opacity:1"/>
<path class="bond-1 atom-1 atom-2" d="M 185.5,177.5 L 326.5,283.5" style="fill:none;fill-rule:evenodd;stroke:#7E56C2;stroke-width:4.0px;stroke-linecap:butt;stroke-linejoin:miter;stroke-opacity:1"/>
<path class="bond-2 atom-2 atom-3" d="M 326.5,283.5 L 488.7,214.5" style="fill:none;fill-rule:evenodd;stroke:#7E56C2;stroke-width:4.0px;stroke-linecap:butt;stroke-linejoin:miter;stroke-opacity:1"/>
<path d="M 177.4,181.0 L 185.5,177.5 L 192.6,182.8" style="fill:none;stroke:#7E56C2;stroke-width:4.0px;stroke-linecap:butt;stroke-linejoin:miter;stroke-opacity:1;"/>
<path d="M 319.4,278.2 L 326.5,283.5 L 334.6,280.0" style="fill:none;stroke:#7E56C2;stroke-width:4.0px;stroke-linecap:butt;stroke-linejoin:miter;stroke-opacity:1;"/>
<path class="legend" d="M 210.2 483.1 L 210.3 485.0 Q 212.1 482.8, 215.0 482.8 Q 220.0 482.8, 220.1 488.4 L 220.1 498.9 L 217.4 498.9 L 217.4 488.4 Q 217.4 486.7, 216.6 485.9 Q 215.8 485.1, 214.2 485.1 Q 212.9 485.1, 211.9 485.8 Q 210.9 486.5, 210.3 487.6 L 210.3 498.9 L 207.6 498.9 L 207.6 483.1 L 210.2 483.1 " fill="#7E56C2"/>
<path class="legend" d="M 230.4 491.0 L 223.3 491.0 L 223.3 488.7 L 230.4 488.7 L 230.4 491.0 " fill="#7E56C2"/>
<path class="legend" d="M 232.2 498.9 L 232.2 477.6 L 239.1 477.6 Q 242.6 477.6, 244.4 479.0 Q 246.1 480.4, 246.1 483.3 Q 246.1 484.8, 245.3 485.9 Q 244.4 487.1, 242.9 487.7 Q 244.7 488.2, 245.7 489.5 Q 246.7 490.9, 246.7 492.8 Q 246.7 495.6, 244.8 497.3 Q 243.0 498.9, 239.6 498.9 L 232.2 498.9 M 235.0 488.9 L 235.0 496.6 L 239.6 496.6 Q 241.6 496.6, 242.7 495.6 Q 243.9 494.6, 243.9 492.8 Q 243.9 488.9, 239.7 488.9 L 235.0 488.9 M 235.0 486.7 L 239.2 486.7 Q 241.1 486.7, 242.2 485.8 Q 243.3 484.8, 243.3 483.2 Q 243.3 481.5, 242.3 480.7 Q 241.2 479.9, 239.1 479.9 L 235.0 479.9 L 235.0 486.7 " fill="#7E56C2"/>
<path class="legend" d="M 259.4 497.3 Q 257.8 499.2, 254.7 499.2 Q 252.2 499.2, 250.9 497.7 Q 249.5 496.3, 249.5 493.4 L 249.5 483.1 L 252.2 483.1 L 252.2 493.3 Q 252.2 496.9, 255.2 496.9 Q 258.3 496.9, 259.3 494.6 L 259.3 483.1 L 262.0 483.1 L 262.0 498.9 L 259.4 498.9 L 259.4 497.3 " fill="#7E56C2"/>
<path class="legend" d="M 270.8 479.2 L 270.8 483.1 L 273.8 483.1 L 273.8 485.2 L 270.8 485.2 L 270.8 495.0 Q 270.8 495.9, 271.2 496.4 Q 271.6 496.9, 272.6 496.9 Q 273.0 496.9, 273.8 496.7 L 273.8 498.9 Q 272.8 499.2, 271.8 499.2 Q 269.9 499.2, 269.0 498.1 Q 268.1 497.0, 268.1 495.0 L 268.1 485.2 L 265.2 485.2 L 265.2 483.1 L 268.1 483.1 L 268.1 479.2 L 270.8 479.2 " fill="#7E56C2"/>
<path class="legend" d="M 286.3 498.9 Q 286.0 498.4, 285.9 497.2 Q 284.0 499.2, 281.4 499.2 Q 279.0 499.2, 277.5 497.9 Q 276.0 496.5, 276.0 494.5 Q 276.0 492.0, 277.9 490.7 Q 279.8 489.3, 283.2 489.3 L 285.9 489.3 L 285.9 488.1 Q 285.9 486.6, 285.0 485.8 Q 284.2 484.9, 282.5 484.9 Q 281.0 484.9, 280.1 485.7 Q 279.1 486.4, 279.1 487.5 L 276.4 487.5 Q 276.4 486.3, 277.2 485.2 Q 278.0 484.1, 279.5 483.4 Q 280.9 482.8, 282.7 482.8 Q 285.4 482.8, 287.0 484.1 Q 288.5 485.5, 288.6 487.9 L 288.6 495.2 Q 288.6 497.4, 289.1 498.7 L 289.1 498.9 L 286.3 498.9 M 281.8 496.8 Q 283.1 496.8, 284.2 496.2 Q 285.3 495.5, 285.9 494.5 L 285.9 491.2 L 283.7 491.2 Q 278.8 491.2, 278.8 494.1 Q 278.8 495.4, 279.6 496.1 Q 280.4 496.8, 281.8 496.8 " fill="#7E56C2"/>
<path class="legend" d="M 294.5 483.1 L 294.6 485.0 Q 296.4 482.8, 299.3 482.8 Q 304.3 482.8, 304.4 488.4 L 304.4 498.9 L 301.7 498.9 L 301.7 488.4 Q 301.7 486.7, 300.9 485.9 Q 300.1 485.1, 298.5 485.1 Q 297.2 485.1, 296.2 485.8 Q 295.2 486.5, 294.6 487.6 L 294.6 498.9 L 291.9 498.9 L 291.9 483.1 L 294.5 483.1 " fill="#7E56C2"/>
</g>
    <g transform="translate(512.0, 0.0) scale(1 1) "><!-- END OF HEADER -->
<rect style="opacity:1.0;fill:#FF00FF00;stroke:none" width="512.0" height="512.0" x="0.0" y="0.0"> </rect>
<path class="bond-0 atom-0 atom-1" d="M 23.3,432.0 L 256.0,297.7" style="fill:none;fill-rule:evenodd;stroke:#7E56C2;stroke-width:4.0px;stroke-linecap:butt;stroke-linejoin:miter;stroke-opacity:1"/>
<path class="bond-1 atom-1 atom-2" d="M 256.0,297.7 L 488.7,432.0" style="fill:none;fill-rule:evenodd;stroke:#7E56C2;stroke-width:4.0px;stroke-linecap:butt;stroke-linejoin:miter;stroke-opacity:1"/>
<path class="bond-2 atom-1 atom-3" d="M 256.0,297.7 L 256.0,29.0" style="fill:none;fill-rule:evenodd;stroke:#7E56C2;stroke-width:4.0px;stroke-linecap:butt;stroke-linejoin:miter;stroke-opacity:1"/>
<path class="legend" d="M 199.1 498.9 L 196.3 498.9 L 196.3 477.6 L 199.1 477.6 L 199.1 498.9 " fill="#7E56C2"/>
<path class="legend" d="M 212.8 494.7 Q 212.8 493.6, 211.9 493.0 Q 211.1 492.4, 209.0 491.9 Q 207.0 491.5, 205.8 490.9 Q 204.6 490.3, 204.0 489.4 Q 203.4 488.6, 203.4 487.4 Q 203.4 485.5, 205.1 484.1 Q 206.7 482.8, 209.3 482.8 Q 212.0 482.8, 213.6 484.2 Q 215.3 485.5, 215.3 487.7 L 212.6 487.7 Q 212.6 486.6, 211.6 485.8 Q 210.7 485.0, 209.3 485.0 Q 207.8 485.0, 207.0 485.6 Q 206.1 486.3, 206.1 487.3 Q 206.1 488.3, 206.9 488.8 Q 207.7 489.3, 209.7 489.8 Q 211.7 490.2, 213.0 490.8 Q 214.3 491.5, 214.9 492.4 Q 215.5 493.2, 215.5 494.5 Q 215.5 496.6, 213.8 497.9 Q 212.1 499.2, 209.4 499.2 Q 207.5 499.2, 206.0 498.5 Q 204.5 497.9, 203.7 496.7 Q 202.9 495.4, 202.9 494.0 L 205.6 494.0 Q 205.7 495.4, 206.7 496.2 Q 207.7 497.0, 209.4 497.0 Q 210.9 497.0, 211.8 496.4 Q 212.8 495.7, 212.8 494.7 " fill="#7E56C2"/>
<path class="legend" d="M 218.0 490.8 Q 218.0 488.5, 218.9 486.6 Q 219.9 484.8, 221.5 483.8 Q 223.1 482.8, 225.2 482.8 Q 228.5 482.8, 230.5 485.0 Q 232.5 487.2, 232.5 491.0 L 232.5 491.2 Q 232.5 493.5, 231.6 495.3 Q 230.7 497.1, 229.0 498.2 Q 227.4 499.2, 225.3 499.2 Q 222.0 499.2, 220.0 497.0 Q 218.0 494.7, 218.0 491.0 L 218.0 490.8 M 220.8 491.2 Q 220.8 493.8, 222.0 495.4 Q 223.2 497.0, 225.3 497.0 Q 227.3 497.0, 228.5 495.4 Q 229.8 493.8, 229.8 490.8 Q 229.8 488.2, 228.5 486.6 Q 227.3 485.0, 225.2 485.0 Q 223.2 485.0, 222.0 486.6 Q 220.8 488.2, 220.8 491.2 " fill="#7E56C2"/>
<path class="legend" d="M 242.1 491.0 L 234.9 491.0 L 234.9 488.7 L 242.1 488.7 L 242.1 491.0 " fill="#7E56C2"/>
<path class="legend" d="M 243.7 498.9 L 243.7 477.6 L 250.7 477.6 Q 254.2 477.6, 255.9 479.0 Q 257.7 480.4, 257.7 483.3 Q 257.7 484.8, 256.8 485.9 Q 256.0 487.1, 254.5 487.7 Q 256.2 488.2, 257.2 489.5 Q 258.2 490.9, 258.2 492.8 Q 258.2 495.6, 256.4 497.3 Q 254.5 498.9, 251.1 498.9 L 243.7 498.9 M 246.5 488.9 L 246.5 496.6 L 251.2 496.6 Q 253.2 496.6, 254.3 495.6 Q 255.4 494.6, 255.4 492.8 Q 255.4 488.9, 251.2 488.9 L 246.5 488.9 M 246.5 486.7 L 250.8 486.7 Q 252.6 486.7, 253.7 485.8 Q 254.9 484.8, 254.9 483.2 Q 254.9 481.5, 253.8 480.7 Q 252.8 479.9, 250.7 479.9 L 246.5 479.9 L 246.5 486.7 " fill="#7E56C2"/>
<path class="legend" d="M 270.9 497.3 Q 269.3 499.2, 266.2 499.2 Q 263.7 499.2, 262.4 497.7 Q 261.0 496.3, 261.0 493.4 L 261.0 483.1 L 263.7 483.1 L 263.7 493.3 Q 263.7 496.9, 266.7 496.9 Q 269.8 496.9, 270.8 494.6 L 270.8 483.1 L 273.5 483.1 L 273.5 498.9 L 270.9 498.9 L 270.9 497.3 " fill="#7E56C2"/>
<path class="legend" d="M 282.3 479.2 L 282.3 483.1 L 285.2 483.1 L 285.2 485.2 L 282.3 485.2 L 282.3 495.0 Q 282.3 495.9, 282.7 496.4 Q 283.0 496.9, 284.0 496.9 Q 284.5 496.9, 285.3 496.7 L 285.3 498.9 Q 284.2 499.2, 283.2 499.2 Q 281.4 499.2, 280.5 498.1 Q 279.5 497.0, 279.5 495.0 L 279.5 485.2 L 276.7 485.2 L 276.7 483.1 L 279.5 483.1 L 279.5 479.2 L 282.3 479.2 " fill="#7E56C2"/>
<path class="legend" d="M 297.7 498.9 Q 297.4 498.4, 297.3 497.2 Q 295.4 499.2, 292.8 499.2 Q 290.4 499.2, 288.9 497.9 Q 287.4 496.5, 287.4 494.5 Q 287.4 492.0, 289.3 490.7 Q 291.2 489.3, 294.6 489.3 L 297.2 489.3 L 297.2 488.1 Q 297.2 486.6, 296.4 485.8 Q 295.5 484.9, 293.9 484.9 Q 292.4 484.9, 291.4 485.7 Q 290.5 486.4, 290.5 487.5 L 287.7 487.5 Q 287.7 486.3, 288.6 485.2 Q 289.4 484.1, 290.9 483.4 Q 292.3 482.8, 294.0 482.8 Q 296.8 482.8, 298.3 484.1 Q 299.9 485.5, 299.9 487.9 L 299.9 495.2 Q 299.9 497.4, 300.5 498.7 L 300.5 498.9 L 297.7 498.9 M 293.2 496.8 Q 294.4 496.8, 295.6 496.2 Q 296.7 495.5, 297.2 494.5 L 297.2 491.2 L 295.1 491.2 Q 290.1 491.2, 290.1 494.1 Q 290.1 495.4, 291.0 496.1 Q 291.8 496.8, 293.2 496.8 " fill="#7E56C2"/>
<path class="legend" d="M 305.8 483.1 L 305.9 485.0 Q 307.7 482.8, 310.6 482.8 Q 315.7 482.8, 315.7 488.4 L 315.7 498.9 L 313.0 498.9 L 313.0 488.4 Q 313.0 486.7, 312.2 485.9 Q 311.4 485.1, 309.8 485.1 Q 308.5 485.1, 307.5 485.8 Q 306.5 486.5, 305.9 487.6 L 305.9 498.9 L 303.2 498.9 L 303.2 483.1 L 305.8 483.1 " fill="#7E56C2"/>
</g>
  </g>
</svg>
