<?xml version='1.0' encoding='ASCII' standalone='yes'?>
<svg xmlns="http://www.w3.org/2000/svg" xmlns:xlink="http://www.w3.org/1999/xlink" version="1.1" width="512.0px" viewBox="0 0 512.0 512.0" height="512.0px">
  <g>
    <g transform="translate(0.0, 0.0) scale(1 1) "><!-- END OF HEADER -->
<rect style="opacity:1.0;fill:#FF00FF00;stroke:none" width="512.0" height="512.0" x="0.0" y="0.0"> </rect>
<path class="bond-0 atom-0 atom-1" d="M 23.3,209.0 L 72.3,202.1" style="fill:none;fill-rule:evenodd;stroke:#7E56C2;stroke-width:2.0px;stroke-linecap:butt;stroke-linejoin:miter;stroke-opacity:1"/>
<path class="bond-1 atom-1 atom-2" d="M 72.3,202.1 L 102.8,241.2" style="fill:none;fill-rule:evenodd;stroke:#7E56C2;stroke-width:2.0px;stroke-linecap:butt;stroke-linejoin:miter;stroke-opacity:1"/>
<path class="bond-2 atom-2 atom-3" d="M 102.8,241.2 L 151.9,234.3" style="fill:none;fill-rule:evenodd;stroke:#7E56C2;stroke-width:2.0px;stroke-linecap:butt;stroke-linejoin:miter;stroke-opacity:1"/>
<path class="bond-3 atom-3 atom-4" d="M 151.9,234.3 L 182.4,273.3" style="fill:none;fill-rule:evenodd;stroke:#7E56C2;stroke-width:2.0px;stroke-linecap:butt;stroke-linejoin:miter;stroke-opacity:1"/>
<path class="bond-4 atom-4 atom-5" d="M 182.4,273.3 L 231.5,266.4" style="fill:none;fill-rule:evenodd;stroke:#7E56C2;stroke-width:2.0px;stroke-linecap:butt;stroke-linejoin:miter;stroke-opacity:1"/>
<path class="bond-5 atom-5 atom-6" d="M 231.5,266.4 L 262.0,305.4" style="fill:none;fill-rule:evenodd;stroke:#7E56C2;stroke-width:2.0px;stroke-linecap:butt;stroke-linejoin:miter;stroke-opacity:1"/>
<path class="bond-5 atom-5 atom-6" d="M 240.0,265.2 L 265.2,297.5" style="fill:none;fill-rule:evenodd;stroke:#7E56C2;stroke-width:2.0px;stroke-linecap:butt;stroke-linejoin:miter;stroke-opacity:1"/>
<path class="bond-6 atom-6 atom-7" d="M 262.0,305.4 L 311.0,298.6" style="fill:none;fill-rule:evenodd;stroke:#7E56C2;stroke-width:2.0px;stroke-linecap:butt;stroke-linejoin:miter;stroke-opacity:1"/>
<path class="bond-7 atom-7 atom-8" d="M 311.0,298.6 L 329.6,252.6" style="fill:none;fill-rule:evenodd;stroke:#7E56C2;stroke-width:2.0px;stroke-linecap:butt;stroke-linejoin:miter;stroke-opacity:1"/>
<path class="bond-7 atom-7 atom-8" d="M 305.8,291.8 L 321.1,253.8" style="fill:none;fill-rule:evenodd;stroke:#7E56C2;stroke-width:2.0px;stroke-linecap:butt;stroke-linejoin:miter;stroke-opacity:1"/>
<path class="bond-8 atom-8 atom-9" d="M 329.6,252.6 L 378.7,245.7" style="fill:none;fill-rule:evenodd;stroke:#7E56C2;stroke-width:2.0px;stroke-linecap:butt;stroke-linejoin:miter;stroke-opacity:1"/>
<path class="bond-9 atom-9 atom-10" d="M 378.7,245.7 L 409.2,284.8" style="fill:none;fill-rule:evenodd;stroke:#7E56C2;stroke-width:2.0px;stroke-linecap:butt;stroke-linejoin:miter;stroke-opacity:1"/>
<path class="bond-10 atom-10 atom-11" d="M 409.2,284.8 L 458.2,277.9" style="fill:none;fill-rule:evenodd;stroke:#7E56C2;stroke-width:2.0px;stroke-linecap:butt;stroke-linejoin:miter;stroke-opacity:1"/>
<path class="bond-10 atom-10 atom-11" d="M 412.4,276.8 L 452.9,271.1" style="fill:none;fill-rule:evenodd;stroke:#7E56C2;stroke-width:2.0px;stroke-linecap:butt;stroke-linejoin:miter;stroke-opacity:1"/>
<path class="bond-11 atom-11 atom-12" d="M 458.2,277.9 L 476.8,231.9" style="fill:none;fill-rule:evenodd;stroke:#7E56C2;stroke-width:2.0px;stroke-linecap:butt;stroke-linejoin:miter;stroke-opacity:1"/>
<path class="bond-12 atom-12 atom-13" d="M 476.8,231.9 L 446.3,192.9" style="fill:none;fill-rule:evenodd;stroke:#7E56C2;stroke-width:2.0px;stroke-linecap:butt;stroke-linejoin:miter;stroke-opacity:1"/>
<path class="bond-13 atom-13 atom-14" d="M 446.3,192.9 L 397.2,199.8" style="fill:none;fill-rule:evenodd;stroke:#7E56C2;stroke-width:2.0px;stroke-linecap:butt;stroke-linejoin:miter;stroke-opacity:1"/>
<path class="bond-14 atom-14 atom-15" d="M 397.2,199.8 L 366.7,160.7" style="fill:none;fill-rule:evenodd;stroke:#7E56C2;stroke-width:2.0px;stroke-linecap:butt;stroke-linejoin:miter;stroke-opacity:1"/>
<path class="bond-15 atom-15 atom-16" d="M 366.7,160.7 L 346.8,163.5" style="fill:none;fill-rule:evenodd;stroke:#7E56C2;stroke-width:2.0px;stroke-linecap:butt;stroke-linejoin:miter;stroke-opacity:1"/>
<path class="bond-15 atom-15 atom-16" d="M 346.8,163.5 L 326.8,166.3" style="fill:none;fill-rule:evenodd;stroke:#FF0000;stroke-width:2.0px;stroke-linecap:butt;stroke-linejoin:miter;stroke-opacity:1"/>
<path class="bond-16 atom-16 atom-17" d="M 313.0,179.1 L 306.1,196.3" style="fill:none;fill-rule:evenodd;stroke:#FF0000;stroke-width:2.0px;stroke-linecap:butt;stroke-linejoin:miter;stroke-opacity:1"/>
<path class="bond-16 atom-16 atom-17" d="M 306.1,196.3 L 299.1,213.6" style="fill:none;fill-rule:evenodd;stroke:#7E56C2;stroke-width:2.0px;stroke-linecap:butt;stroke-linejoin:miter;stroke-opacity:1"/>
<path class="bond-17 atom-17 atom-18" d="M 299.1,213.6 L 250.0,220.5" style="fill:none;fill-rule:evenodd;stroke:#7E56C2;stroke-width:2.0px;stroke-linecap:butt;stroke-linejoin:miter;stroke-opacity:1"/>
<path class="bond-17 atom-17 atom-18" d="M 295.9,221.5 L 255.3,227.2" style="fill:none;fill-rule:evenodd;stroke:#7E56C2;stroke-width:2.0px;stroke-linecap:butt;stroke-linejoin:miter;stroke-opacity:1"/>
<path class="bond-18 atom-15 atom-19" d="M 366.7,160.7 L 351.4,113.6" style="fill:none;fill-rule:evenodd;stroke:#7E56C2;stroke-width:2.0px;stroke-linecap:butt;stroke-linejoin:miter;stroke-opacity:1"/>
<path class="bond-19 atom-15 atom-20" d="M 366.7,160.7 L 407.3,132.3" style="fill:none;fill-rule:evenodd;stroke:#7E56C2;stroke-width:2.0px;stroke-linecap:butt;stroke-linejoin:miter;stroke-opacity:1"/>
<path class="bond-20 atom-11 atom-21" d="M 458.2,277.9 L 488.7,316.9" style="fill:none;fill-rule:evenodd;stroke:#7E56C2;stroke-width:2.0px;stroke-linecap:butt;stroke-linejoin:miter;stroke-opacity:1"/>
<path class="bond-21 atom-7 atom-22" d="M 311.0,298.6 L 321.9,312.5" style="fill:none;fill-rule:evenodd;stroke:#7E56C2;stroke-width:2.0px;stroke-linecap:butt;stroke-linejoin:miter;stroke-opacity:1"/>
<path class="bond-21 atom-7 atom-22" d="M 321.9,312.5 L 332.8,326.4" style="fill:none;fill-rule:evenodd;stroke:#FF0000;stroke-width:2.0px;stroke-linecap:butt;stroke-linejoin:miter;stroke-opacity:1"/>
<path class="bond-22 atom-18 atom-5" d="M 250.0,220.5 L 231.5,266.4" style="fill:none;fill-rule:evenodd;stroke:#7E56C2;stroke-width:2.0px;stroke-linecap:butt;stroke-linejoin:miter;stroke-opacity:1"/>
<path class="bond-23 atom-17 atom-8" d="M 299.1,213.6 L 329.6,252.6" style="fill:none;fill-rule:evenodd;stroke:#7E56C2;stroke-width:2.0px;stroke-linecap:butt;stroke-linejoin:miter;stroke-opacity:1"/>
<path class="bond-24 atom-14 atom-9" d="M 397.2,199.8 L 378.7,245.7" style="fill:none;fill-rule:evenodd;stroke:#7E56C2;stroke-width:2.0px;stroke-linecap:butt;stroke-linejoin:miter;stroke-opacity:1"/>
<path class="bond-25 atom-9 atom-23" d="M 377.7,249.2 L 377.0,248.9" style="fill:none;fill-rule:evenodd;stroke:#7E56C2;stroke-width:1.0px;stroke-linecap:butt;stroke-linejoin:miter;stroke-opacity:1"/>
<path class="bond-25 atom-9 atom-23" d="M 376.7,252.7 L 375.3,252.1" style="fill:none;fill-rule:evenodd;stroke:#7E56C2;stroke-width:1.0px;stroke-linecap:butt;stroke-linejoin:miter;stroke-opacity:1"/>
<path class="bond-25 atom-9 atom-23" d="M 375.7,256.1 L 373.6,255.3" style="fill:none;fill-rule:evenodd;stroke:#7E56C2;stroke-width:1.0px;stroke-linecap:butt;stroke-linejoin:miter;stroke-opacity:1"/>
<path class="bond-25 atom-9 atom-23" d="M 374.7,259.6 L 371.9,258.5" style="fill:none;fill-rule:evenodd;stroke:#7E56C2;stroke-width:1.0px;stroke-linecap:butt;stroke-linejoin:miter;stroke-opacity:1"/>
<path class="bond-25 atom-9 atom-23" d="M 373.7,263.1 L 370.2,261.7" style="fill:none;fill-rule:evenodd;stroke:#7E56C2;stroke-width:1.0px;stroke-linecap:butt;stroke-linejoin:miter;stroke-opacity:1"/>
<path class="bond-25 atom-9 atom-23" d="M 372.7,266.5 L 368.5,264.9" style="fill:none;fill-rule:evenodd;stroke:#000000;stroke-width:1.0px;stroke-linecap:butt;stroke-linejoin:miter;stroke-opacity:1"/>
<path class="bond-25 atom-9 atom-23" d="M 371.7,270.0 L 366.8,268.0" style="fill:none;fill-rule:evenodd;stroke:#000000;stroke-width:1.0px;stroke-linecap:butt;stroke-linejoin:miter;stroke-opacity:1"/>
<path class="bond-25 atom-9 atom-23" d="M 370.7,273.5 L 365.1,271.2" style="fill:none;fill-rule:evenodd;stroke:#000000;stroke-width:1.0px;stroke-linecap:butt;stroke-linejoin:miter;stroke-opacity:1"/>
<path class="bond-25 atom-9 atom-23" d="M 369.7,276.9 L 363.5,274.4" style="fill:none;fill-rule:evenodd;stroke:#000000;stroke-width:1.0px;stroke-linecap:butt;stroke-linejoin:miter;stroke-opacity:1"/>
<path class="bond-25 atom-9 atom-23" d="M 368.7,280.4 L 361.8,277.6" style="fill:none;fill-rule:evenodd;stroke:#000000;stroke-width:1.0px;stroke-linecap:butt;stroke-linejoin:miter;stroke-opacity:1"/>
<path class="bond-26 atom-14 atom-24" d="M 397.2,199.8 L 404.1,183.6 L 407.3,185.4 Z" style="fill:#7E56C2;fill-rule:evenodd;fill-opacity:1;stroke:#7E56C2;stroke-width:0.5px;stroke-linecap:butt;stroke-linejoin:miter;stroke-opacity:1;"/>
<path class="bond-26 atom-14 atom-24" d="M 404.1,183.6 L 417.5,170.9 L 411.0,167.3 Z" style="fill:#000000;fill-rule:evenodd;fill-opacity:1;stroke:#000000;stroke-width:0.5px;stroke-linecap:butt;stroke-linejoin:miter;stroke-opacity:1;"/>
<path class="bond-26 atom-14 atom-24" d="M 404.1,183.6 L 407.3,185.4 L 417.5,170.9 Z" style="fill:#000000;fill-rule:evenodd;fill-opacity:1;stroke:#000000;stroke-width:0.5px;stroke-linecap:butt;stroke-linejoin:miter;stroke-opacity:1;"/>
<path d="M 69.9,202.5 L 72.3,202.1 L 73.9,204.1" style="fill:none;stroke:#7E56C2;stroke-width:2.0px;stroke-linecap:butt;stroke-linejoin:miter;stroke-opacity:1;"/>
<path d="M 101.3,239.2 L 102.8,241.2 L 105.3,240.8" style="fill:none;stroke:#7E56C2;stroke-width:2.0px;stroke-linecap:butt;stroke-linejoin:miter;stroke-opacity:1;"/>
<path d="M 149.4,234.6 L 151.9,234.3 L 153.4,236.2" style="fill:none;stroke:#7E56C2;stroke-width:2.0px;stroke-linecap:butt;stroke-linejoin:miter;stroke-opacity:1;"/>
<path d="M 180.9,271.3 L 182.4,273.3 L 184.9,273.0" style="fill:none;stroke:#7E56C2;stroke-width:2.0px;stroke-linecap:butt;stroke-linejoin:miter;stroke-opacity:1;"/>
<path d="M 260.4,303.5 L 262.0,305.4 L 264.4,305.1" style="fill:none;stroke:#7E56C2;stroke-width:2.0px;stroke-linecap:butt;stroke-linejoin:miter;stroke-opacity:1;"/>
<path d="M 407.6,282.8 L 409.2,284.8 L 411.6,284.4" style="fill:none;stroke:#7E56C2;stroke-width:2.0px;stroke-linecap:butt;stroke-linejoin:miter;stroke-opacity:1;"/>
<path d="M 475.9,234.2 L 476.8,231.9 L 475.3,230.0" style="fill:none;stroke:#7E56C2;stroke-width:2.0px;stroke-linecap:butt;stroke-linejoin:miter;stroke-opacity:1;"/>
<path d="M 447.8,194.8 L 446.3,192.9 L 443.8,193.2" style="fill:none;stroke:#7E56C2;stroke-width:2.0px;stroke-linecap:butt;stroke-linejoin:miter;stroke-opacity:1;"/>
<path d="M 252.5,220.1 L 250.0,220.5 L 249.1,222.8" style="fill:none;stroke:#7E56C2;stroke-width:2.0px;stroke-linecap:butt;stroke-linejoin:miter;stroke-opacity:1;"/>
<path class="atom-16" d="M 325.2 168.4 Q 325.2 171.1, 324.3 173.2 Q 323.4 175.2, 321.6 176.3 Q 319.9 177.4, 317.7 177.4 Q 315.5 177.4, 313.7 176.3 Q 312.0 175.2, 311.1 173.2 Q 310.1 171.2, 310.1 168.5 L 310.1 167.2 Q 310.1 164.5, 311.0 162.4 Q 312.0 160.3, 313.7 159.2 Q 315.4 158.1, 317.6 158.1 Q 319.9 158.1, 321.6 159.2 Q 323.4 160.3, 324.3 162.4 Q 325.2 164.4, 325.2 167.2 L 325.2 168.4 M 322.7 167.2 Q 322.7 163.8, 321.4 162.0 Q 320.1 160.2, 317.6 160.2 Q 315.3 160.2, 313.9 162.0 Q 312.6 163.8, 312.6 167.0 L 312.6 168.4 Q 312.6 171.6, 313.9 173.5 Q 315.3 175.3, 317.7 175.3 Q 320.1 175.3, 321.4 173.6 Q 322.7 171.8, 322.7 168.6 L 322.7 167.2 " fill="#FF0000"/>
<path class="atom-22" d="M 349.1 338.3 Q 349.1 341.1, 348.2 343.2 Q 347.2 345.2, 345.5 346.3 Q 343.8 347.4, 341.6 347.4 Q 339.3 347.4, 337.6 346.3 Q 335.9 345.2, 334.9 343.2 Q 334.0 341.2, 334.0 338.5 L 334.0 337.1 Q 334.0 334.4, 334.9 332.4 Q 335.9 330.3, 337.6 329.2 Q 339.3 328.1, 341.5 328.1 Q 343.8 328.1, 345.5 329.2 Q 347.2 330.3, 348.2 332.3 Q 349.1 334.4, 349.1 337.1 L 349.1 338.3 M 346.6 337.1 Q 346.6 333.8, 345.3 332.0 Q 343.9 330.2, 341.5 330.2 Q 339.2 330.2, 337.8 332.0 Q 336.5 333.8, 336.4 337.0 L 336.4 338.3 Q 336.4 341.6, 337.8 343.4 Q 339.2 345.3, 341.6 345.3 Q 344.0 345.3, 345.3 343.5 Q 346.6 341.8, 346.6 338.5 L 346.6 337.1 " fill="#FF0000"/>
<path class="atom-22" d="M 366.5 347.1 L 364.1 347.1 L 364.1 338.4 L 354.6 338.4 L 354.6 347.1 L 352.1 347.1 L 352.1 328.3 L 354.6 328.3 L 354.6 336.4 L 364.1 336.4 L 364.1 328.3 L 366.5 328.3 L 366.5 347.1 " fill="#FF0000"/>
<path class="atom-23" d="M 367.3 301.1 L 364.8 301.1 L 364.8 292.4 L 355.4 292.4 L 355.4 301.1 L 352.9 301.1 L 352.9 282.3 L 355.4 282.3 L 355.4 290.3 L 364.8 290.3 L 364.8 282.3 L 367.3 282.3 L 367.3 301.1 " fill="#000000"/>
<path class="atom-24" d="M 428.5 165.8 L 426.0 165.8 L 426.0 157.2 L 416.5 157.2 L 416.5 165.8 L 414.0 165.8 L 414.0 147.1 L 416.5 147.1 L 416.5 155.1 L 426.0 155.1 L 426.0 147.1 L 428.5 147.1 L 428.5 165.8 " fill="#000000"/>
<path class="legend" d="M 202.3 477.6 L 209.3 495.0 L 216.3 477.6 L 219.9 477.6 L 219.9 498.9 L 217.1 498.9 L 217.1 490.6 L 217.4 481.6 L 210.4 498.9 L 208.2 498.9 L 201.2 481.7 L 201.5 490.6 L 201.5 498.9 L 198.7 498.9 L 198.7 477.6 L 202.3 477.6 " fill="#7E56C2"/>
<path class="legend" d="M 223.6 490.8 Q 223.6 488.5, 224.5 486.6 Q 225.4 484.8, 227.1 483.8 Q 228.7 482.8, 230.8 482.8 Q 234.0 482.8, 236.0 485.0 Q 238.0 487.2, 238.0 491.0 L 238.0 491.2 Q 238.0 493.5, 237.1 495.3 Q 236.3 497.1, 234.6 498.2 Q 233.0 499.2, 230.8 499.2 Q 227.6 499.2, 225.6 497.0 Q 223.6 494.7, 223.6 491.0 L 223.6 490.8 M 226.3 491.2 Q 226.3 493.8, 227.5 495.4 Q 228.8 497.0, 230.8 497.0 Q 232.9 497.0, 234.1 495.4 Q 235.3 493.8, 235.3 490.8 Q 235.3 488.2, 234.1 486.6 Q 232.8 485.0, 230.8 485.0 Q 228.8 485.0, 227.6 486.6 Q 226.3 488.2, 226.3 491.2 " fill="#7E56C2"/>
<path class="legend" d="M 243.3 498.9 L 240.6 498.9 L 240.6 476.4 L 243.3 476.4 L 243.3 498.9 " fill="#7E56C2"/>
<path class="legend" d="M 254.0 499.2 Q 250.8 499.2, 248.7 497.1 Q 246.7 495.0, 246.7 491.4 L 246.7 490.9 Q 246.7 488.6, 247.6 486.7 Q 248.5 484.9, 250.1 483.8 Q 251.8 482.8, 253.6 482.8 Q 256.7 482.8, 258.5 484.8 Q 260.2 486.8, 260.2 490.6 L 260.2 491.8 L 249.4 491.8 Q 249.5 494.1, 250.8 495.6 Q 252.1 497.0, 254.1 497.0 Q 255.6 497.0, 256.6 496.4 Q 257.6 495.8, 258.3 494.8 L 260.0 496.1 Q 258.0 499.2, 254.0 499.2 M 253.6 485.0 Q 252.0 485.0, 250.9 486.2 Q 249.8 487.4, 249.5 489.5 L 257.5 489.5 L 257.5 489.3 Q 257.3 487.3, 256.3 486.1 Q 255.3 485.0, 253.6 485.0 " fill="#7E56C2"/>
<path class="legend" d="M 269.5 497.0 Q 270.9 497.0, 272.0 496.1 Q 273.1 495.2, 273.2 493.9 L 275.8 493.9 Q 275.7 495.3, 274.8 496.5 Q 274.0 497.7, 272.5 498.5 Q 271.1 499.2, 269.5 499.2 Q 266.2 499.2, 264.3 497.0 Q 262.4 494.9, 262.4 491.1 L 262.4 490.7 Q 262.4 488.4, 263.3 486.6 Q 264.1 484.8, 265.7 483.8 Q 267.3 482.8, 269.5 482.8 Q 272.1 482.8, 273.9 484.4 Q 275.7 486.0, 275.8 488.5 L 273.2 488.5 Q 273.1 487.0, 272.0 486.0 Q 271.0 485.0, 269.5 485.0 Q 267.4 485.0, 266.3 486.5 Q 265.1 488.0, 265.1 490.8 L 265.1 491.3 Q 265.1 494.0, 266.3 495.5 Q 267.4 497.0, 269.5 497.0 " fill="#7E56C2"/>
<path class="legend" d="M 287.8 497.3 Q 286.2 499.2, 283.2 499.2 Q 280.6 499.2, 279.3 497.7 Q 278.0 496.3, 278.0 493.4 L 278.0 483.1 L 280.7 483.1 L 280.7 493.3 Q 280.7 496.9, 283.6 496.9 Q 286.7 496.9, 287.7 494.6 L 287.7 483.1 L 290.4 483.1 L 290.4 498.9 L 287.9 498.9 L 287.8 497.3 " fill="#7E56C2"/>
<path class="legend" d="M 296.4 498.9 L 293.7 498.9 L 293.7 476.4 L 296.4 476.4 L 296.4 498.9 " fill="#7E56C2"/>
<path class="legend" d="M 307.1 499.2 Q 303.9 499.2, 301.9 497.1 Q 299.8 495.0, 299.8 491.4 L 299.8 490.9 Q 299.8 488.6, 300.7 486.7 Q 301.6 484.9, 303.3 483.8 Q 304.9 482.8, 306.8 482.8 Q 309.9 482.8, 311.6 484.8 Q 313.3 486.8, 313.3 490.6 L 313.3 491.8 L 302.5 491.8 Q 302.6 494.1, 303.9 495.6 Q 305.2 497.0, 307.3 497.0 Q 308.7 497.0, 309.7 496.4 Q 310.7 495.8, 311.4 494.8 L 313.1 496.1 Q 311.1 499.2, 307.1 499.2 M 306.8 485.0 Q 305.1 485.0, 304.0 486.2 Q 302.9 487.4, 302.6 489.5 L 310.6 489.5 L 310.6 489.3 Q 310.5 487.3, 309.5 486.1 Q 308.5 485.0, 306.8 485.0 " fill="#7E56C2"/>
</g>
  </g>
</svg>
