<?xml version='1.0' encoding='ASCII' standalone='yes'?>
<svg xmlns="http://www.w3.org/2000/svg" xmlns:xlink="http://www.w3.org/1999/xlink" version="1.1" width="1536.0px" viewBox="0 0 1536.0 512.0" height="512.0px">
  <g>
    <g transform="translate(0.0, 0.0) scale(1 1) "><!-- END OF HEADER -->
<rect style="opacity:1.0;fill:#FF00FF00;stroke:none" width="512.0" height="512.0" x="0.0" y="0.0"> </rect>
<path class="bond-0 atom-0 atom-1" d="M 23.3,297.7 L 23.3,163.3" style="fill:none;fill-rule:evenodd;stroke:#7E56C2;stroke-width:4.0px;stroke-linecap:butt;stroke-linejoin:miter;stroke-opacity:1"/>
<path class="bond-0 atom-0 atom-1" d="M 43.4,286.0 L 43.4,175.0" style="fill:none;fill-rule:evenodd;stroke:#7E56C2;stroke-width:4.0px;stroke-linecap:butt;stroke-linejoin:miter;stroke-opacity:1"/>
<path class="bond-1 atom-1 atom-2" d="M 23.3,163.3 L 139.6,96.1" style="fill:none;fill-rule:evenodd;stroke:#7E56C2;stroke-width:4.0px;stroke-linecap:butt;stroke-linejoin:miter;stroke-opacity:1"/>
<path class="bond-2 atom-2 atom-3" d="M 139.6,96.1 L 256.0,163.3" style="fill:none;fill-rule:evenodd;stroke:#7E56C2;stroke-width:4.0px;stroke-linecap:butt;stroke-linejoin:miter;stroke-opacity:1"/>
<path class="bond-2 atom-2 atom-3" d="M 139.6,119.4 L 235.8,175.0" style="fill:none;fill-rule:evenodd;stroke:#7E56C2;stroke-width:4.0px;stroke-linecap:butt;stroke-linejoin:miter;stroke-opacity:1"/>
<path class="bond-3 atom-3 atom-4" d="M 256.0,163.3 L 372.4,96.1" style="fill:none;fill-rule:evenodd;stroke:#7E56C2;stroke-width:4.0px;stroke-linecap:butt;stroke-linejoin:miter;stroke-opacity:1"/>
<path class="bond-4 atom-4 atom-5" d="M 372.4,96.1 L 488.7,163.3" style="fill:none;fill-rule:evenodd;stroke:#7E56C2;stroke-width:4.0px;stroke-linecap:butt;stroke-linejoin:miter;stroke-opacity:1"/>
<path class="bond-4 atom-4 atom-5" d="M 372.4,119.4 L 468.6,175.0" style="fill:none;fill-rule:evenodd;stroke:#7E56C2;stroke-width:4.0px;stroke-linecap:butt;stroke-linejoin:miter;stroke-opacity:1"/>
<path class="bond-5 atom-5 atom-6" d="M 488.7,163.3 L 488.7,297.7" style="fill:none;fill-rule:evenodd;stroke:#7E56C2;stroke-width:4.0px;stroke-linecap:butt;stroke-linejoin:miter;stroke-opacity:1"/>
<path class="bond-6 atom-6 atom-7" d="M 488.7,297.7 L 372.4,364.9" style="fill:none;fill-rule:evenodd;stroke:#7E56C2;stroke-width:4.0px;stroke-linecap:butt;stroke-linejoin:miter;stroke-opacity:1"/>
<path class="bond-6 atom-6 atom-7" d="M 468.6,286.0 L 372.4,341.6" style="fill:none;fill-rule:evenodd;stroke:#7E56C2;stroke-width:4.0px;stroke-linecap:butt;stroke-linejoin:miter;stroke-opacity:1"/>
<path class="bond-7 atom-7 atom-8" d="M 372.4,364.9 L 256.0,297.7" style="fill:none;fill-rule:evenodd;stroke:#7E56C2;stroke-width:4.0px;stroke-linecap:butt;stroke-linejoin:miter;stroke-opacity:1"/>
<path class="bond-8 atom-8 atom-9" d="M 256.0,297.7 L 139.6,364.9" style="fill:none;fill-rule:evenodd;stroke:#7E56C2;stroke-width:4.0px;stroke-linecap:butt;stroke-linejoin:miter;stroke-opacity:1"/>
<path class="bond-8 atom-8 atom-9" d="M 235.8,286.0 L 139.6,341.6" style="fill:none;fill-rule:evenodd;stroke:#7E56C2;stroke-width:4.0px;stroke-linecap:butt;stroke-linejoin:miter;stroke-opacity:1"/>
<path class="bond-9 atom-9 atom-0" d="M 139.6,364.9 L 23.3,297.7" style="fill:none;fill-rule:evenodd;stroke:#7E56C2;stroke-width:4.0px;stroke-linecap:butt;stroke-linejoin:miter;stroke-opacity:1"/>
<path class="bond-10 atom-8 atom-3" d="M 256.0,297.7 L 256.0,163.3" style="fill:none;fill-rule:evenodd;stroke:#7E56C2;stroke-width:4.0px;stroke-linecap:butt;stroke-linejoin:miter;stroke-opacity:1"/>
<path d="M 23.3,291.0 L 23.3,297.7 L 29.1,301.0" style="fill:none;stroke:#7E56C2;stroke-width:4.0px;stroke-linecap:butt;stroke-linejoin:miter;stroke-opacity:1;"/>
<path d="M 23.3,170.0 L 23.3,163.3 L 29.1,160.0" style="fill:none;stroke:#7E56C2;stroke-width:4.0px;stroke-linecap:butt;stroke-linejoin:miter;stroke-opacity:1;"/>
<path d="M 133.8,99.5 L 139.6,96.1 L 145.5,99.5" style="fill:none;stroke:#7E56C2;stroke-width:4.0px;stroke-linecap:butt;stroke-linejoin:miter;stroke-opacity:1;"/>
<path d="M 366.5,99.5 L 372.4,96.1 L 378.2,99.5" style="fill:none;stroke:#7E56C2;stroke-width:4.0px;stroke-linecap:butt;stroke-linejoin:miter;stroke-opacity:1;"/>
<path d="M 482.9,160.0 L 488.7,163.3 L 488.7,170.0" style="fill:none;stroke:#7E56C2;stroke-width:4.0px;stroke-linecap:butt;stroke-linejoin:miter;stroke-opacity:1;"/>
<path d="M 488.7,291.0 L 488.7,297.7 L 482.9,301.0" style="fill:none;stroke:#7E56C2;stroke-width:4.0px;stroke-linecap:butt;stroke-linejoin:miter;stroke-opacity:1;"/>
<path d="M 378.2,361.5 L 372.4,364.9 L 366.5,361.5" style="fill:none;stroke:#7E56C2;stroke-width:4.0px;stroke-linecap:butt;stroke-linejoin:miter;stroke-opacity:1;"/>
<path d="M 145.5,361.5 L 139.6,364.9 L 133.8,361.5" style="fill:none;stroke:#7E56C2;stroke-width:4.0px;stroke-linecap:butt;stroke-linejoin:miter;stroke-opacity:1;"/>
<path class="legend" d="M 194.8 493.1 L 192.0 493.1 L 181.2 476.7 L 181.2 493.1 L 178.4 493.1 L 178.4 471.8 L 181.2 471.8 L 192.0 488.3 L 192.0 471.8 L 194.8 471.8 L 194.8 493.1 " fill="#7E56C2"/>
<path class="legend" d="M 208.5 493.1 Q 208.3 492.6, 208.1 491.4 Q 206.3 493.4, 203.6 493.4 Q 201.3 493.4, 199.8 492.1 Q 198.3 490.7, 198.3 488.7 Q 198.3 486.2, 200.2 484.9 Q 202.0 483.5, 205.5 483.5 L 208.1 483.5 L 208.1 482.3 Q 208.1 480.8, 207.2 480.0 Q 206.4 479.1, 204.7 479.1 Q 203.3 479.1, 202.3 479.9 Q 201.3 480.6, 201.3 481.7 L 198.6 481.7 Q 198.6 480.5, 199.4 479.4 Q 200.3 478.3, 201.7 477.6 Q 203.2 477.0, 204.9 477.0 Q 207.6 477.0, 209.2 478.3 Q 210.7 479.7, 210.8 482.1 L 210.8 489.4 Q 210.8 491.6, 211.4 492.9 L 211.4 493.1 L 208.5 493.1 M 204.0 491.0 Q 205.3 491.0, 206.4 490.4 Q 207.6 489.7, 208.1 488.7 L 208.1 485.4 L 206.0 485.4 Q 201.0 485.4, 201.0 488.3 Q 201.0 489.6, 201.8 490.3 Q 202.7 491.0, 204.0 491.0 " fill="#7E56C2"/>
<path class="legend" d="M 227.4 485.4 Q 227.4 489.0, 225.7 491.2 Q 224.1 493.4, 221.2 493.4 Q 218.3 493.4, 216.7 491.6 L 216.7 499.2 L 214.0 499.2 L 214.0 477.3 L 216.4 477.3 L 216.6 479.0 Q 218.2 477.0, 221.2 477.0 Q 224.0 477.0, 225.7 479.1 Q 227.4 481.3, 227.4 485.1 L 227.4 485.4 M 224.7 485.0 Q 224.7 482.4, 223.5 480.8 Q 222.4 479.3, 220.4 479.3 Q 217.9 479.3, 216.7 481.4 L 216.7 489.0 Q 217.9 491.2, 220.4 491.2 Q 222.4 491.2, 223.5 489.6 Q 224.7 488.1, 224.7 485.0 " fill="#7E56C2"/>
<path class="legend" d="M 232.4 479.2 Q 234.2 477.0, 237.1 477.0 Q 242.1 477.0, 242.2 482.6 L 242.2 493.1 L 239.5 493.1 L 239.5 482.6 Q 239.5 480.9, 238.7 480.1 Q 237.9 479.3, 236.3 479.3 Q 235.0 479.3, 234.0 480.0 Q 233.0 480.7, 232.4 481.8 L 232.4 493.1 L 229.7 493.1 L 229.7 470.6 L 232.4 470.6 L 232.4 479.2 " fill="#7E56C2"/>
<path class="legend" d="M 250.8 473.4 L 250.8 477.3 L 253.7 477.3 L 253.7 479.4 L 250.8 479.4 L 250.8 489.2 Q 250.8 490.1, 251.2 490.6 Q 251.5 491.1, 252.5 491.1 Q 253.0 491.1, 253.8 490.9 L 253.8 493.1 Q 252.7 493.4, 251.7 493.4 Q 249.9 493.4, 249.0 492.3 Q 248.0 491.2, 248.0 489.2 L 248.0 479.4 L 245.2 479.4 L 245.2 477.3 L 248.0 477.3 L 248.0 473.4 L 250.8 473.4 " fill="#7E56C2"/>
<path class="legend" d="M 258.5 479.2 Q 260.3 477.0, 263.2 477.0 Q 268.2 477.0, 268.3 482.6 L 268.3 493.1 L 265.6 493.1 L 265.6 482.6 Q 265.5 480.9, 264.8 480.1 Q 264.0 479.3, 262.4 479.3 Q 261.1 479.3, 260.1 480.0 Q 259.1 480.7, 258.5 481.8 L 258.5 493.1 L 255.8 493.1 L 255.8 470.6 L 258.5 470.6 L 258.5 479.2 " fill="#7E56C2"/>
<path class="legend" d="M 281.5 493.1 Q 281.2 492.6, 281.1 491.4 Q 279.2 493.4, 276.6 493.4 Q 274.2 493.4, 272.7 492.1 Q 271.2 490.7, 271.2 488.7 Q 271.2 486.2, 273.1 484.9 Q 275.0 483.5, 278.4 483.5 L 281.0 483.5 L 281.0 482.3 Q 281.0 480.8, 280.2 480.0 Q 279.3 479.1, 277.7 479.1 Q 276.2 479.1, 275.3 479.9 Q 274.3 480.6, 274.3 481.7 L 271.6 481.7 Q 271.6 480.5, 272.4 479.4 Q 273.2 478.3, 274.7 477.6 Q 276.1 477.0, 277.9 477.0 Q 280.6 477.0, 282.1 478.3 Q 283.7 479.7, 283.8 482.1 L 283.8 489.4 Q 283.8 491.6, 284.3 492.9 L 284.3 493.1 L 281.5 493.1 M 277.0 491.0 Q 278.3 491.0, 279.4 490.4 Q 280.5 489.7, 281.0 488.7 L 281.0 485.4 L 278.9 485.4 Q 273.9 485.4, 273.9 488.3 Q 273.9 489.6, 274.8 490.3 Q 275.6 491.0, 277.0 491.0 " fill="#7E56C2"/>
<path class="legend" d="M 289.6 493.1 L 286.9 493.1 L 286.9 470.6 L 289.6 470.6 L 289.6 493.1 " fill="#7E56C2"/>
<path class="legend" d="M 295.8 493.1 L 293.1 493.1 L 293.1 477.3 L 295.8 477.3 L 295.8 493.1 M 292.9 473.1 Q 292.9 472.4, 293.3 471.9 Q 293.7 471.5, 294.5 471.5 Q 295.3 471.5, 295.7 471.9 Q 296.1 472.4, 296.1 473.1 Q 296.1 473.7, 295.7 474.2 Q 295.3 474.6, 294.5 474.6 Q 293.7 474.6, 293.3 474.2 Q 292.9 473.7, 292.9 473.1 " fill="#7E56C2"/>
<path class="legend" d="M 301.6 477.3 L 301.7 479.2 Q 303.5 477.0, 306.5 477.0 Q 311.5 477.0, 311.5 482.6 L 311.5 493.1 L 308.8 493.1 L 308.8 482.6 Q 308.8 480.9, 308.0 480.1 Q 307.3 479.3, 305.6 479.3 Q 304.3 479.3, 303.3 480.0 Q 302.3 480.7, 301.8 481.8 L 301.8 493.1 L 299.1 493.1 L 299.1 477.3 L 301.6 477.3 " fill="#7E56C2"/>
<path class="legend" d="" fill="#7E56C2"/>
<path class="legend" d="M 333.6 493.1 L 330.9 493.1 L 330.9 475.0 L 325.4 477.1 L 325.4 474.6 L 333.2 471.7 L 333.6 471.7 L 333.6 493.1 " fill="#7E56C2"/>
</g>
    <g transform="translate(512.0, 0.0) scale(1 1) "><!-- END OF HEADER -->
<rect style="opacity:1.0;fill:#FF00FF00;stroke:none" width="512.0" height="512.0" x="0.0" y="0.0"> </rect>
<path class="bond-0 atom-0 atom-1" d="M 23.3,297.7 L 23.3,163.3" style="fill:none;fill-rule:evenodd;stroke:#7E56C2;stroke-width:4.0px;stroke-linecap:butt;stroke-linejoin:miter;stroke-opacity:1"/>
<path class="bond-1 atom-1 atom-2" d="M 23.3,163.3 L 139.6,96.1" style="fill:none;fill-rule:evenodd;stroke:#7E56C2;stroke-width:4.0px;stroke-linecap:butt;stroke-linejoin:miter;stroke-opacity:1"/>
<path class="bond-1 atom-1 atom-2" d="M 43.4,175.0 L 139.6,119.4" style="fill:none;fill-rule:evenodd;stroke:#7E56C2;stroke-width:4.0px;stroke-linecap:butt;stroke-linejoin:miter;stroke-opacity:1"/>
<path class="bond-2 atom-2 atom-3" d="M 139.6,96.1 L 256.0,163.3" style="fill:none;fill-rule:evenodd;stroke:#7E56C2;stroke-width:4.0px;stroke-linecap:butt;stroke-linejoin:miter;stroke-opacity:1"/>
<path class="bond-3 atom-3 atom-4" d="M 256.0,163.3 L 372.4,96.1" style="fill:none;fill-rule:evenodd;stroke:#7E56C2;stroke-width:4.0px;stroke-linecap:butt;stroke-linejoin:miter;stroke-opacity:1"/>
<path class="bond-3 atom-3 atom-4" d="M 276.2,175.0 L 372.4,119.4" style="fill:none;fill-rule:evenodd;stroke:#7E56C2;stroke-width:4.0px;stroke-linecap:butt;stroke-linejoin:miter;stroke-opacity:1"/>
<path class="bond-4 atom-4 atom-5" d="M 372.4,96.1 L 488.7,163.3" style="fill:none;fill-rule:evenodd;stroke:#7E56C2;stroke-width:4.0px;stroke-linecap:butt;stroke-linejoin:miter;stroke-opacity:1"/>
<path class="bond-5 atom-5 atom-6" d="M 488.7,163.3 L 488.7,297.7" style="fill:none;fill-rule:evenodd;stroke:#7E56C2;stroke-width:4.0px;stroke-linecap:butt;stroke-linejoin:miter;stroke-opacity:1"/>
<path class="bond-5 atom-5 atom-6" d="M 468.6,175.0 L 468.6,286.0" style="fill:none;fill-rule:evenodd;stroke:#7E56C2;stroke-width:4.0px;stroke-linecap:butt;stroke-linejoin:miter;stroke-opacity:1"/>
<path class="bond-6 atom-6 atom-7" d="M 488.7,297.7 L 372.4,364.9" style="fill:none;fill-rule:evenodd;stroke:#7E56C2;stroke-width:4.0px;stroke-linecap:butt;stroke-linejoin:miter;stroke-opacity:1"/>
<path class="bond-7 atom-7 atom-8" d="M 372.4,364.9 L 256.0,297.7" style="fill:none;fill-rule:evenodd;stroke:#7E56C2;stroke-width:4.0px;stroke-linecap:butt;stroke-linejoin:miter;stroke-opacity:1"/>
<path class="bond-7 atom-7 atom-8" d="M 372.4,341.6 L 276.2,286.0" style="fill:none;fill-rule:evenodd;stroke:#7E56C2;stroke-width:4.0px;stroke-linecap:butt;stroke-linejoin:miter;stroke-opacity:1"/>
<path class="bond-8 atom-8 atom-9" d="M 256.0,297.7 L 139.6,364.9" style="fill:none;fill-rule:evenodd;stroke:#7E56C2;stroke-width:4.0px;stroke-linecap:butt;stroke-linejoin:miter;stroke-opacity:1"/>
<path class="bond-9 atom-9 atom-0" d="M 139.6,364.9 L 23.3,297.7" style="fill:none;fill-rule:evenodd;stroke:#7E56C2;stroke-width:4.0px;stroke-linecap:butt;stroke-linejoin:miter;stroke-opacity:1"/>
<path class="bond-9 atom-9 atom-0" d="M 139.6,341.6 L 43.4,286.0" style="fill:none;fill-rule:evenodd;stroke:#7E56C2;stroke-width:4.0px;stroke-linecap:butt;stroke-linejoin:miter;stroke-opacity:1"/>
<path class="bond-10 atom-8 atom-3" d="M 256.0,297.7 L 256.0,163.3" style="fill:none;fill-rule:evenodd;stroke:#7E56C2;stroke-width:4.0px;stroke-linecap:butt;stroke-linejoin:miter;stroke-opacity:1"/>
<path d="M 23.3,291.0 L 23.3,297.7 L 29.1,301.0" style="fill:none;stroke:#7E56C2;stroke-width:4.0px;stroke-linecap:butt;stroke-linejoin:miter;stroke-opacity:1;"/>
<path d="M 23.3,170.0 L 23.3,163.3 L 29.1,160.0" style="fill:none;stroke:#7E56C2;stroke-width:4.0px;stroke-linecap:butt;stroke-linejoin:miter;stroke-opacity:1;"/>
<path d="M 133.8,99.5 L 139.6,96.1 L 145.5,99.5" style="fill:none;stroke:#7E56C2;stroke-width:4.0px;stroke-linecap:butt;stroke-linejoin:miter;stroke-opacity:1;"/>
<path d="M 366.5,99.5 L 372.4,96.1 L 378.2,99.5" style="fill:none;stroke:#7E56C2;stroke-width:4.0px;stroke-linecap:butt;stroke-linejoin:miter;stroke-opacity:1;"/>
<path d="M 482.9,160.0 L 488.7,163.3 L 488.7,170.0" style="fill:none;stroke:#7E56C2;stroke-width:4.0px;stroke-linecap:butt;stroke-linejoin:miter;stroke-opacity:1;"/>
<path d="M 488.7,291.0 L 488.7,297.7 L 482.9,301.0" style="fill:none;stroke:#7E56C2;stroke-width:4.0px;stroke-linecap:butt;stroke-linejoin:miter;stroke-opacity:1;"/>
<path d="M 378.2,361.5 L 372.4,364.9 L 366.5,361.5" style="fill:none;stroke:#7E56C2;stroke-width:4.0px;stroke-linecap:butt;stroke-linejoin:miter;stroke-opacity:1;"/>
<path d="M 145.5,361.5 L 139.6,364.9 L 133.8,361.5" style="fill:none;stroke:#7E56C2;stroke-width:4.0px;stroke-linecap:butt;stroke-linejoin:miter;stroke-opacity:1;"/>
<path class="legend" d="M 263.2 499.2 L 249.2 499.2 L 249.2 497.3 L 256.6 489.0 Q 258.2 487.2, 258.9 486.0 Q 259.5 484.9, 259.5 483.6 Q 259.5 481.9, 258.5 480.9 Q 257.5 479.8, 255.8 479.8 Q 253.8 479.8, 252.6 481.0 Q 251.5 482.1, 251.5 484.2 L 248.8 484.2 Q 248.8 481.2, 250.7 479.4 Q 252.6 477.6, 255.8 477.6 Q 258.8 477.6, 260.5 479.1 Q 262.2 480.7, 262.2 483.3 Q 262.2 486.4, 258.2 490.8 L 252.5 497.0 L 263.2 497.0 L 263.2 499.2 " fill="#7E56C2"/>
</g>
    <g transform="translate(1024.0, 0.0) scale(1 1) "><!-- END OF HEADER -->
<rect style="opacity:1.0;fill:#FF00FF00;stroke:none" width="512.0" height="512.0" x="0.0" y="0.0"> </rect>
<path class="bond-0 atom-0 atom-1" d="M 23.3,297.7 L 23.3,163.3" style="fill:none;fill-rule:evenodd;stroke:#7E56C2;stroke-width:4.0px;stroke-linecap:butt;stroke-linejoin:miter;stroke-opacity:1"/>
<path class="bond-1 atom-1 atom-2" d="M 23.3,163.3 L 139.6,96.1" style="fill:none;fill-rule:evenodd;stroke:#7E56C2;stroke-width:4.0px;stroke-linecap:butt;stroke-linejoin:miter;stroke-opacity:1"/>
<path class="bond-1 atom-1 atom-2" d="M 43.4,175.0 L 139.6,119.4" style="fill:none;fill-rule:evenodd;stroke:#7E56C2;stroke-width:4.0px;stroke-linecap:butt;stroke-linejoin:miter;stroke-opacity:1"/>
<path class="bond-2 atom-2 atom-3" d="M 139.6,96.1 L 256.0,163.3" style="fill:none;fill-rule:evenodd;stroke:#7E56C2;stroke-width:4.0px;stroke-linecap:butt;stroke-linejoin:miter;stroke-opacity:1"/>
<path class="bond-3 atom-3 atom-4" d="M 256.0,163.3 L 372.4,96.1" style="fill:none;fill-rule:evenodd;stroke:#7E56C2;stroke-width:4.0px;stroke-linecap:butt;stroke-linejoin:miter;stroke-opacity:1"/>
<path class="bond-4 atom-4 atom-5" d="M 372.4,96.1 L 488.7,163.3" style="fill:none;fill-rule:evenodd;stroke:#7E56C2;stroke-width:4.0px;stroke-linecap:butt;stroke-linejoin:miter;stroke-opacity:1"/>
<path class="bond-4 atom-4 atom-5" d="M 372.4,119.4 L 468.6,175.0" style="fill:none;fill-rule:evenodd;stroke:#7E56C2;stroke-width:4.0px;stroke-linecap:butt;stroke-linejoin:miter;stroke-opacity:1"/>
<path class="bond-5 atom-5 atom-6" d="M 488.7,163.3 L 488.7,297.7" style="fill:none;fill-rule:evenodd;stroke:#7E56C2;stroke-width:4.0px;stroke-linecap:butt;stroke-linejoin:miter;stroke-opacity:1"/>
<path class="bond-6 atom-6 atom-7" d="M 488.7,297.7 L 372.4,364.9" style="fill:none;fill-rule:evenodd;stroke:#7E56C2;stroke-width:4.0px;stroke-linecap:butt;stroke-linejoin:miter;stroke-opacity:1"/>
<path class="bond-6 atom-6 atom-7" d="M 468.6,286.0 L 372.4,341.6" style="fill:none;fill-rule:evenodd;stroke:#7E56C2;stroke-width:4.0px;stroke-linecap:butt;stroke-linejoin:miter;stroke-opacity:1"/>
<path class="bond-7 atom-7 atom-8" d="M 372.4,364.9 L 256.0,297.7" style="fill:none;fill-rule:evenodd;stroke:#7E56C2;stroke-width:4.0px;stroke-linecap:butt;stroke-linejoin:miter;stroke-opacity:1"/>
<path class="bond-8 atom-8 atom-9" d="M 256.0,297.7 L 139.6,364.9" style="fill:none;fill-rule:evenodd;stroke:#7E56C2;stroke-width:4.0px;stroke-linecap:butt;stroke-linejoin:miter;stroke-opacity:1"/>
<path class="bond-9 atom-9 atom-0" d="M 139.6,364.9 L 23.3,297.7" style="fill:none;fill-rule:evenodd;stroke:#7E56C2;stroke-width:4.0px;stroke-linecap:butt;stroke-linejoin:miter;stroke-opacity:1"/>
<path class="bond-9 atom-9 atom-0" d="M 139.6,341.6 L 43.4,286.0" style="fill:none;fill-rule:evenodd;stroke:#7E56C2;stroke-width:4.0px;stroke-linecap:butt;stroke-linejoin:miter;stroke-opacity:1"/>
<path class="bond-10 atom-8 atom-3" d="M 256.0,297.7 L 256.0,163.3" style="fill:none;fill-rule:evenodd;stroke:#7E56C2;stroke-width:4.0px;stroke-linecap:butt;stroke-linejoin:miter;stroke-opacity:1"/>
<path class="bond-10 atom-8 atom-3" d="M 235.8,286.0 L 235.8,175.0" style="fill:none;fill-rule:evenodd;stroke:#7E56C2;stroke-width:4.0px;stroke-linecap:butt;stroke-linejoin:miter;stroke-opacity:1"/>
<path d="M 23.3,291.0 L 23.3,297.7 L 29.1,301.0" style="fill:none;stroke:#7E56C2;stroke-width:4.0px;stroke-linecap:butt;stroke-linejoin:miter;stroke-opacity:1;"/>
<path d="M 23.3,170.0 L 23.3,163.3 L 29.1,160.0" style="fill:none;stroke:#7E56C2;stroke-width:4.0px;stroke-linecap:butt;stroke-linejoin:miter;stroke-opacity:1;"/>
<path d="M 133.8,99.5 L 139.6,96.1 L 145.5,99.5" style="fill:none;stroke:#7E56C2;stroke-width:4.0px;stroke-linecap:butt;stroke-linejoin:miter;stroke-opacity:1;"/>
<path d="M 366.5,99.5 L 372.4,96.1 L 378.2,99.5" style="fill:none;stroke:#7E56C2;stroke-width:4.0px;stroke-linecap:butt;stroke-linejoin:miter;stroke-opacity:1;"/>
<path d="M 482.9,160.0 L 488.7,163.3 L 488.7,170.0" style="fill:none;stroke:#7E56C2;stroke-width:4.0px;stroke-linecap:butt;stroke-linejoin:miter;stroke-opacity:1;"/>
<path d="M 488.7,291.0 L 488.7,297.7 L 482.9,301.0" style="fill:none;stroke:#7E56C2;stroke-width:4.0px;stroke-linecap:butt;stroke-linejoin:miter;stroke-opacity:1;"/>
<path d="M 378.2,361.5 L 372.4,364.9 L 366.5,361.5" style="fill:none;stroke:#7E56C2;stroke-width:4.0px;stroke-linecap:butt;stroke-linejoin:miter;stroke-opacity:1;"/>
<path d="M 145.5,361.5 L 139.6,364.9 L 133.8,361.5" style="fill:none;stroke:#7E56C2;stroke-width:4.0px;stroke-linecap:butt;stroke-linejoin:miter;stroke-opacity:1;"/>
<path class="legend" d="M 253.6 486.9 L 255.6 486.9 Q 257.5 486.9, 258.6 485.9 Q 259.7 484.9, 259.7 483.3 Q 259.7 479.5, 256.0 479.5 Q 254.2 479.5, 253.2 480.5 Q 252.1 481.5, 252.1 483.2 L 249.4 483.2 Q 249.4 480.6, 251.3 479.0 Q 253.1 477.3, 256.0 477.3 Q 259.0 477.3, 260.7 478.9 Q 262.4 480.5, 262.4 483.3 Q 262.4 484.7, 261.5 486.0 Q 260.6 487.3, 259.1 488.0 Q 260.8 488.5, 261.8 489.8 Q 262.8 491.1, 262.8 493.0 Q 262.8 495.8, 260.9 497.5 Q 259.0 499.2, 256.0 499.2 Q 253.0 499.2, 251.1 497.6 Q 249.2 495.9, 249.2 493.3 L 252.0 493.3 Q 252.0 495.0, 253.1 496.0 Q 254.2 497.0, 256.0 497.0 Q 258.0 497.0, 259.0 496.0 Q 260.1 494.9, 260.1 493.0 Q 260.1 491.2, 258.9 490.2 Q 257.8 489.2, 255.6 489.1 L 253.6 489.1 L 253.6 486.9 " fill="#7E56C2"/>
</g>
  </g>
</svg>
