<?xml version='1.0' encoding='ASCII' standalone='yes'?>
<svg xmlns="http://www.w3.org/2000/svg" xmlns:xlink="http://www.w3.org/1999/xlink" version="1.1" width="1536.0px" viewBox="0 0 1536.0 1024.0" height="1024.0px">
  <g>
    <g transform="translate(0.0, 0.0) scale(1 1) "><!-- END OF HEADER -->
<rect style="opacity:1.0;fill:#FF00FF00;stroke:none" width="512.0" height="512.0" x="0.0" y="0.0"> </rect>
<path class="bond-0 atom-0 atom-1" d="M 488.7,270.8 L 442.2,351.4" style="fill:none;fill-rule:evenodd;stroke:#7E56C2;stroke-width:4.0px;stroke-linecap:butt;stroke-linejoin:miter;stroke-opacity:1"/>
<path class="bond-0 atom-0 atom-1" d="M 472.6,270.8 L 434.1,337.5" style="fill:none;fill-rule:evenodd;stroke:#7E56C2;stroke-width:4.0px;stroke-linecap:butt;stroke-linejoin:miter;stroke-opacity:1"/>
<path class="bond-1 atom-1 atom-2" d="M 442.2,351.4 L 349.1,351.4" style="fill:none;fill-rule:evenodd;stroke:#7E56C2;stroke-width:4.0px;stroke-linecap:butt;stroke-linejoin:miter;stroke-opacity:1"/>
<path class="bond-2 atom-2 atom-3" d="M 349.1,351.4 L 302.5,270.8" style="fill:none;fill-rule:evenodd;stroke:#7E56C2;stroke-width:4.0px;stroke-linecap:butt;stroke-linejoin:miter;stroke-opacity:1"/>
<path class="bond-2 atom-2 atom-3" d="M 357.2,337.5 L 318.7,270.8" style="fill:none;fill-rule:evenodd;stroke:#7E56C2;stroke-width:4.0px;stroke-linecap:butt;stroke-linejoin:miter;stroke-opacity:1"/>
<path class="bond-3 atom-3 atom-4" d="M 302.5,270.8 L 349.1,190.2" style="fill:none;fill-rule:evenodd;stroke:#7E56C2;stroke-width:4.0px;stroke-linecap:butt;stroke-linejoin:miter;stroke-opacity:1"/>
<path class="bond-4 atom-4 atom-5" d="M 349.1,190.2 L 442.2,190.2" style="fill:none;fill-rule:evenodd;stroke:#7E56C2;stroke-width:4.0px;stroke-linecap:butt;stroke-linejoin:miter;stroke-opacity:1"/>
<path class="bond-4 atom-4 atom-5" d="M 357.2,204.2 L 434.1,204.2" style="fill:none;fill-rule:evenodd;stroke:#7E56C2;stroke-width:4.0px;stroke-linecap:butt;stroke-linejoin:miter;stroke-opacity:1"/>
<path class="bond-5 atom-4 atom-6" d="M 349.1,190.2 L 302.5,109.6" style="fill:none;fill-rule:evenodd;stroke:#7E56C2;stroke-width:4.0px;stroke-linecap:butt;stroke-linejoin:miter;stroke-opacity:1"/>
<path class="bond-6 atom-6 atom-7" d="M 302.5,109.6 L 209.5,109.6" style="fill:none;fill-rule:evenodd;stroke:#7E56C2;stroke-width:4.0px;stroke-linecap:butt;stroke-linejoin:miter;stroke-opacity:1"/>
<path class="bond-6 atom-6 atom-7" d="M 294.5,123.5 L 217.5,123.5" style="fill:none;fill-rule:evenodd;stroke:#7E56C2;stroke-width:4.0px;stroke-linecap:butt;stroke-linejoin:miter;stroke-opacity:1"/>
<path class="bond-7 atom-7 atom-8" d="M 209.5,109.6 L 162.9,190.2" style="fill:none;fill-rule:evenodd;stroke:#7E56C2;stroke-width:4.0px;stroke-linecap:butt;stroke-linejoin:miter;stroke-opacity:1"/>
<path class="bond-8 atom-8 atom-9" d="M 162.9,190.2 L 69.8,190.2" style="fill:none;fill-rule:evenodd;stroke:#7E56C2;stroke-width:4.0px;stroke-linecap:butt;stroke-linejoin:miter;stroke-opacity:1"/>
<path class="bond-8 atom-8 atom-9" d="M 154.8,204.2 L 77.9,204.2" style="fill:none;fill-rule:evenodd;stroke:#7E56C2;stroke-width:4.0px;stroke-linecap:butt;stroke-linejoin:miter;stroke-opacity:1"/>
<path class="bond-9 atom-9 atom-10" d="M 69.8,190.2 L 23.3,270.8" style="fill:none;fill-rule:evenodd;stroke:#7E56C2;stroke-width:4.0px;stroke-linecap:butt;stroke-linejoin:miter;stroke-opacity:1"/>
<path class="bond-10 atom-10 atom-11" d="M 23.3,270.8 L 69.8,351.4" style="fill:none;fill-rule:evenodd;stroke:#7E56C2;stroke-width:4.0px;stroke-linecap:butt;stroke-linejoin:miter;stroke-opacity:1"/>
<path class="bond-10 atom-10 atom-11" d="M 39.4,270.8 L 77.9,337.5" style="fill:none;fill-rule:evenodd;stroke:#7E56C2;stroke-width:4.0px;stroke-linecap:butt;stroke-linejoin:miter;stroke-opacity:1"/>
<path class="bond-11 atom-11 atom-12" d="M 69.8,351.4 L 162.9,351.4" style="fill:none;fill-rule:evenodd;stroke:#7E56C2;stroke-width:4.0px;stroke-linecap:butt;stroke-linejoin:miter;stroke-opacity:1"/>
<path class="bond-12 atom-12 atom-13" d="M 162.9,351.4 L 209.5,270.8" style="fill:none;fill-rule:evenodd;stroke:#7E56C2;stroke-width:4.0px;stroke-linecap:butt;stroke-linejoin:miter;stroke-opacity:1"/>
<path class="bond-12 atom-12 atom-13" d="M 154.8,337.5 L 193.3,270.8" style="fill:none;fill-rule:evenodd;stroke:#7E56C2;stroke-width:4.0px;stroke-linecap:butt;stroke-linejoin:miter;stroke-opacity:1"/>
<path class="bond-13 atom-5 atom-0" d="M 442.2,190.2 L 488.7,270.8" style="fill:none;fill-rule:evenodd;stroke:#7E56C2;stroke-width:4.0px;stroke-linecap:butt;stroke-linejoin:miter;stroke-opacity:1"/>
<path class="bond-14 atom-13 atom-3" d="M 209.5,270.8 L 302.5,270.8" style="fill:none;fill-rule:evenodd;stroke:#7E56C2;stroke-width:4.0px;stroke-linecap:butt;stroke-linejoin:miter;stroke-opacity:1"/>
<path class="bond-15 atom-13 atom-8" d="M 209.5,270.8 L 162.9,190.2" style="fill:none;fill-rule:evenodd;stroke:#7E56C2;stroke-width:4.0px;stroke-linecap:butt;stroke-linejoin:miter;stroke-opacity:1"/>
<path d="M 486.4,274.8 L 488.7,270.8 L 486.4,266.8" style="fill:none;stroke:#7E56C2;stroke-width:4.0px;stroke-linecap:butt;stroke-linejoin:miter;stroke-opacity:1;"/>
<path d="M 444.5,347.4 L 442.2,351.4 L 437.5,351.4" style="fill:none;stroke:#7E56C2;stroke-width:4.0px;stroke-linecap:butt;stroke-linejoin:miter;stroke-opacity:1;"/>
<path d="M 353.7,351.4 L 349.1,351.4 L 346.8,347.4" style="fill:none;stroke:#7E56C2;stroke-width:4.0px;stroke-linecap:butt;stroke-linejoin:miter;stroke-opacity:1;"/>
<path d="M 437.5,190.2 L 442.2,190.2 L 444.5,194.2" style="fill:none;stroke:#7E56C2;stroke-width:4.0px;stroke-linecap:butt;stroke-linejoin:miter;stroke-opacity:1;"/>
<path d="M 304.9,113.6 L 302.5,109.6 L 297.9,109.6" style="fill:none;stroke:#7E56C2;stroke-width:4.0px;stroke-linecap:butt;stroke-linejoin:miter;stroke-opacity:1;"/>
<path d="M 214.1,109.6 L 209.5,109.6 L 207.1,113.6" style="fill:none;stroke:#7E56C2;stroke-width:4.0px;stroke-linecap:butt;stroke-linejoin:miter;stroke-opacity:1;"/>
<path d="M 74.5,190.2 L 69.8,190.2 L 67.5,194.2" style="fill:none;stroke:#7E56C2;stroke-width:4.0px;stroke-linecap:butt;stroke-linejoin:miter;stroke-opacity:1;"/>
<path d="M 25.6,266.8 L 23.3,270.8 L 25.6,274.8" style="fill:none;stroke:#7E56C2;stroke-width:4.0px;stroke-linecap:butt;stroke-linejoin:miter;stroke-opacity:1;"/>
<path d="M 67.5,347.4 L 69.8,351.4 L 74.5,351.4" style="fill:none;stroke:#7E56C2;stroke-width:4.0px;stroke-linecap:butt;stroke-linejoin:miter;stroke-opacity:1;"/>
<path d="M 158.3,351.4 L 162.9,351.4 L 165.2,347.4" style="fill:none;stroke:#7E56C2;stroke-width:4.0px;stroke-linecap:butt;stroke-linejoin:miter;stroke-opacity:1;"/>
<path class="legend" d="M 168.0 490.6 L 168.0 498.9 L 165.2 498.9 L 165.2 477.6 L 173.0 477.6 Q 176.5 477.6, 178.5 479.4 Q 180.5 481.2, 180.5 484.1 Q 180.5 487.2, 178.6 488.9 Q 176.6 490.6, 173.0 490.6 L 168.0 490.6 M 168.0 488.3 L 173.0 488.3 Q 175.3 488.3, 176.5 487.2 Q 177.7 486.1, 177.7 484.1 Q 177.7 482.2, 176.5 481.1 Q 175.3 479.9, 173.2 479.9 L 168.0 479.9 L 168.0 488.3 " fill="#7E56C2"/>
<path class="legend" d="M 185.4 485.0 Q 187.2 482.8, 190.1 482.8 Q 195.1 482.8, 195.2 488.4 L 195.2 498.9 L 192.5 498.9 L 192.5 488.4 Q 192.5 486.7, 191.7 485.9 Q 190.9 485.1, 189.3 485.1 Q 188.0 485.1, 187.0 485.8 Q 186.0 486.5, 185.4 487.6 L 185.4 498.9 L 182.7 498.9 L 182.7 476.4 L 185.4 476.4 L 185.4 485.0 " fill="#7E56C2"/>
<path class="legend" d="M 205.5 499.2 Q 202.3 499.2, 200.3 497.1 Q 198.3 495.0, 198.3 491.4 L 198.3 490.9 Q 198.3 488.6, 199.2 486.7 Q 200.1 484.9, 201.7 483.8 Q 203.3 482.8, 205.2 482.8 Q 208.3 482.8, 210.0 484.8 Q 211.7 486.8, 211.7 490.6 L 211.7 491.8 L 201.0 491.8 Q 201.0 494.1, 202.3 495.6 Q 203.7 497.0, 205.7 497.0 Q 207.1 497.0, 208.1 496.4 Q 209.1 495.8, 209.9 494.8 L 211.5 496.1 Q 209.5 499.2, 205.5 499.2 M 205.2 485.0 Q 203.6 485.0, 202.5 486.2 Q 201.3 487.4, 201.1 489.5 L 209.0 489.5 L 209.0 489.3 Q 208.9 487.3, 207.9 486.1 Q 206.9 485.0, 205.2 485.0 " fill="#7E56C2"/>
<path class="legend" d="M 216.5 483.1 L 216.6 485.0 Q 218.4 482.8, 221.3 482.8 Q 226.3 482.8, 226.4 488.4 L 226.4 498.9 L 223.7 498.9 L 223.7 488.4 Q 223.6 486.7, 222.9 485.9 Q 222.1 485.1, 220.5 485.1 Q 219.2 485.1, 218.2 485.8 Q 217.2 486.5, 216.6 487.6 L 216.6 498.9 L 213.9 498.9 L 213.9 483.1 L 216.5 483.1 " fill="#7E56C2"/>
<path class="legend" d="M 239.7 498.9 Q 239.5 498.4, 239.4 497.2 Q 237.5 499.2, 234.8 499.2 Q 232.5 499.2, 231.0 497.9 Q 229.5 496.5, 229.5 494.5 Q 229.5 492.0, 231.4 490.7 Q 233.3 489.3, 236.7 489.3 L 239.3 489.3 L 239.3 488.1 Q 239.3 486.6, 238.5 485.8 Q 237.6 484.9, 236.0 484.9 Q 234.5 484.9, 233.5 485.7 Q 232.5 486.4, 232.5 487.5 L 229.8 487.5 Q 229.8 486.3, 230.7 485.2 Q 231.5 484.1, 232.9 483.4 Q 234.4 482.8, 236.1 482.8 Q 238.9 482.8, 240.4 484.1 Q 242.0 485.5, 242.0 487.9 L 242.0 495.2 Q 242.0 497.4, 242.6 498.7 L 242.6 498.9 L 239.7 498.9 M 235.2 496.8 Q 236.5 496.8, 237.7 496.2 Q 238.8 495.5, 239.3 494.5 L 239.3 491.2 L 237.2 491.2 Q 232.2 491.2, 232.2 494.1 Q 232.2 495.4, 233.1 496.1 Q 233.9 496.8, 235.2 496.8 " fill="#7E56C2"/>
<path class="legend" d="M 247.9 483.1 L 248.0 485.0 Q 249.8 482.8, 252.7 482.8 Q 257.7 482.8, 257.8 488.4 L 257.8 498.9 L 255.1 498.9 L 255.1 488.4 Q 255.1 486.7, 254.3 485.9 Q 253.5 485.1, 251.9 485.1 Q 250.6 485.1, 249.6 485.8 Q 248.6 486.5, 248.0 487.6 L 248.0 498.9 L 245.3 498.9 L 245.3 483.1 L 247.9 483.1 " fill="#7E56C2"/>
<path class="legend" d="M 266.5 479.2 L 266.5 483.1 L 269.5 483.1 L 269.5 485.2 L 266.5 485.2 L 266.5 495.0 Q 266.5 495.9, 266.9 496.4 Q 267.3 496.9, 268.2 496.9 Q 268.7 496.9, 269.5 496.7 L 269.5 498.9 Q 268.5 499.2, 267.5 499.2 Q 265.6 499.2, 264.7 498.1 Q 263.8 497.0, 263.8 495.0 L 263.8 485.2 L 260.9 485.2 L 260.9 483.1 L 263.8 483.1 L 263.8 479.2 L 266.5 479.2 " fill="#7E56C2"/>
<path class="legend" d="M 274.4 485.0 Q 276.2 482.8, 279.1 482.8 Q 284.1 482.8, 284.1 488.4 L 284.1 498.9 L 281.4 498.9 L 281.4 488.4 Q 281.4 486.7, 280.6 485.9 Q 279.9 485.1, 278.2 485.1 Q 276.9 485.1, 275.9 485.8 Q 274.9 486.5, 274.4 487.6 L 274.4 498.9 L 271.7 498.9 L 271.7 476.4 L 274.4 476.4 L 274.4 485.0 " fill="#7E56C2"/>
<path class="legend" d="M 294.9 485.5 Q 294.3 485.4, 293.6 485.4 Q 290.9 485.4, 289.9 487.7 L 289.9 498.9 L 287.2 498.9 L 287.2 483.1 L 289.9 483.1 L 289.9 484.9 Q 291.2 482.8, 293.7 482.8 Q 294.5 482.8, 294.9 483.0 L 294.9 485.5 " fill="#7E56C2"/>
<path class="legend" d="M 303.7 499.2 Q 300.5 499.2, 298.4 497.1 Q 296.4 495.0, 296.4 491.4 L 296.4 490.9 Q 296.4 488.6, 297.3 486.7 Q 298.2 484.9, 299.8 483.8 Q 301.5 482.8, 303.4 482.8 Q 306.4 482.8, 308.2 484.8 Q 309.9 486.8, 309.9 490.6 L 309.9 491.8 L 299.1 491.8 Q 299.2 494.1, 300.5 495.6 Q 301.8 497.0, 303.8 497.0 Q 305.3 497.0, 306.3 496.4 Q 307.3 495.8, 308.0 494.8 L 309.7 496.1 Q 307.7 499.2, 303.7 499.2 M 303.4 485.0 Q 301.7 485.0, 300.6 486.2 Q 299.5 487.4, 299.2 489.5 L 307.2 489.5 L 307.2 489.3 Q 307.0 487.3, 306.1 486.1 Q 305.1 485.0, 303.4 485.0 " fill="#7E56C2"/>
<path class="legend" d="M 314.6 483.1 L 314.7 485.0 Q 316.5 482.8, 319.5 482.8 Q 324.5 482.8, 324.5 488.4 L 324.5 498.9 L 321.8 498.9 L 321.8 488.4 Q 321.8 486.7, 321.0 485.9 Q 320.3 485.1, 318.6 485.1 Q 317.3 485.1, 316.3 485.8 Q 315.3 486.5, 314.8 487.6 L 314.8 498.9 L 312.1 498.9 L 312.1 483.1 L 314.6 483.1 " fill="#7E56C2"/>
<path class="legend" d="" fill="#7E56C2"/>
<path class="legend" d="M 346.8 498.9 L 344.1 498.9 L 344.1 480.8 L 338.6 482.9 L 338.6 480.4 L 346.4 477.5 L 346.8 477.5 L 346.8 498.9 " fill="#7E56C2"/>
</g>
    <g transform="translate(512.0, 0.0) scale(1 1) "><!-- END OF HEADER -->
<rect style="opacity:1.0;fill:#FF00FF00;stroke:none" width="512.0" height="512.0" x="0.0" y="0.0"> </rect>
<path class="bond-0 atom-0 atom-1" d="M 488.7,270.8 L 442.2,351.4" style="fill:none;fill-rule:evenodd;stroke:#7E56C2;stroke-width:4.0px;stroke-linecap:butt;stroke-linejoin:miter;stroke-opacity:1"/>
<path class="bond-0 atom-0 atom-1" d="M 472.6,270.8 L 434.1,337.5" style="fill:none;fill-rule:evenodd;stroke:#7E56C2;stroke-width:4.0px;stroke-linecap:butt;stroke-linejoin:miter;stroke-opacity:1"/>
<path class="bond-1 atom-1 atom-2" d="M 442.2,351.4 L 349.1,351.4" style="fill:none;fill-rule:evenodd;stroke:#7E56C2;stroke-width:4.0px;stroke-linecap:butt;stroke-linejoin:miter;stroke-opacity:1"/>
<path class="bond-2 atom-2 atom-3" d="M 349.1,351.4 L 302.5,270.8" style="fill:none;fill-rule:evenodd;stroke:#7E56C2;stroke-width:4.0px;stroke-linecap:butt;stroke-linejoin:miter;stroke-opacity:1"/>
<path class="bond-2 atom-2 atom-3" d="M 357.2,337.5 L 318.7,270.8" style="fill:none;fill-rule:evenodd;stroke:#7E56C2;stroke-width:4.0px;stroke-linecap:butt;stroke-linejoin:miter;stroke-opacity:1"/>
<path class="bond-3 atom-3 atom-4" d="M 302.5,270.8 L 349.1,190.2" style="fill:none;fill-rule:evenodd;stroke:#7E56C2;stroke-width:4.0px;stroke-linecap:butt;stroke-linejoin:miter;stroke-opacity:1"/>
<path class="bond-4 atom-4 atom-5" d="M 349.1,190.2 L 442.2,190.2" style="fill:none;fill-rule:evenodd;stroke:#7E56C2;stroke-width:4.0px;stroke-linecap:butt;stroke-linejoin:miter;stroke-opacity:1"/>
<path class="bond-4 atom-4 atom-5" d="M 357.2,204.2 L 434.1,204.2" style="fill:none;fill-rule:evenodd;stroke:#7E56C2;stroke-width:4.0px;stroke-linecap:butt;stroke-linejoin:miter;stroke-opacity:1"/>
<path class="bond-5 atom-4 atom-6" d="M 349.1,190.2 L 302.5,109.6" style="fill:none;fill-rule:evenodd;stroke:#7E56C2;stroke-width:4.0px;stroke-linecap:butt;stroke-linejoin:miter;stroke-opacity:1"/>
<path class="bond-6 atom-6 atom-7" d="M 302.5,109.6 L 209.5,109.6" style="fill:none;fill-rule:evenodd;stroke:#7E56C2;stroke-width:4.0px;stroke-linecap:butt;stroke-linejoin:miter;stroke-opacity:1"/>
<path class="bond-6 atom-6 atom-7" d="M 294.5,123.5 L 217.5,123.5" style="fill:none;fill-rule:evenodd;stroke:#7E56C2;stroke-width:4.0px;stroke-linecap:butt;stroke-linejoin:miter;stroke-opacity:1"/>
<path class="bond-7 atom-7 atom-8" d="M 209.5,109.6 L 162.9,190.2" style="fill:none;fill-rule:evenodd;stroke:#7E56C2;stroke-width:4.0px;stroke-linecap:butt;stroke-linejoin:miter;stroke-opacity:1"/>
<path class="bond-8 atom-8 atom-9" d="M 162.9,190.2 L 69.8,190.2" style="fill:none;fill-rule:evenodd;stroke:#7E56C2;stroke-width:4.0px;stroke-linecap:butt;stroke-linejoin:miter;stroke-opacity:1"/>
<path class="bond-9 atom-9 atom-10" d="M 69.8,190.2 L 23.3,270.8" style="fill:none;fill-rule:evenodd;stroke:#7E56C2;stroke-width:4.0px;stroke-linecap:butt;stroke-linejoin:miter;stroke-opacity:1"/>
<path class="bond-9 atom-9 atom-10" d="M 77.9,204.2 L 39.4,270.8" style="fill:none;fill-rule:evenodd;stroke:#7E56C2;stroke-width:4.0px;stroke-linecap:butt;stroke-linejoin:miter;stroke-opacity:1"/>
<path class="bond-10 atom-10 atom-11" d="M 23.3,270.8 L 69.8,351.4" style="fill:none;fill-rule:evenodd;stroke:#7E56C2;stroke-width:4.0px;stroke-linecap:butt;stroke-linejoin:miter;stroke-opacity:1"/>
<path class="bond-11 atom-11 atom-12" d="M 69.8,351.4 L 162.9,351.4" style="fill:none;fill-rule:evenodd;stroke:#7E56C2;stroke-width:4.0px;stroke-linecap:butt;stroke-linejoin:miter;stroke-opacity:1"/>
<path class="bond-11 atom-11 atom-12" d="M 77.9,337.5 L 154.8,337.5" style="fill:none;fill-rule:evenodd;stroke:#7E56C2;stroke-width:4.0px;stroke-linecap:butt;stroke-linejoin:miter;stroke-opacity:1"/>
<path class="bond-12 atom-12 atom-13" d="M 162.9,351.4 L 209.5,270.8" style="fill:none;fill-rule:evenodd;stroke:#7E56C2;stroke-width:4.0px;stroke-linecap:butt;stroke-linejoin:miter;stroke-opacity:1"/>
<path class="bond-13 atom-5 atom-0" d="M 442.2,190.2 L 488.7,270.8" style="fill:none;fill-rule:evenodd;stroke:#7E56C2;stroke-width:4.0px;stroke-linecap:butt;stroke-linejoin:miter;stroke-opacity:1"/>
<path class="bond-14 atom-13 atom-3" d="M 209.5,270.8 L 302.5,270.8" style="fill:none;fill-rule:evenodd;stroke:#7E56C2;stroke-width:4.0px;stroke-linecap:butt;stroke-linejoin:miter;stroke-opacity:1"/>
<path class="bond-15 atom-13 atom-8" d="M 209.5,270.8 L 162.9,190.2" style="fill:none;fill-rule:evenodd;stroke:#7E56C2;stroke-width:4.0px;stroke-linecap:butt;stroke-linejoin:miter;stroke-opacity:1"/>
<path class="bond-15 atom-13 atom-8" d="M 217.5,256.8 L 179.0,190.2" style="fill:none;fill-rule:evenodd;stroke:#7E56C2;stroke-width:4.0px;stroke-linecap:butt;stroke-linejoin:miter;stroke-opacity:1"/>
<path d="M 486.4,274.8 L 488.7,270.8 L 486.4,266.8" style="fill:none;stroke:#7E56C2;stroke-width:4.0px;stroke-linecap:butt;stroke-linejoin:miter;stroke-opacity:1;"/>
<path d="M 444.5,347.4 L 442.2,351.4 L 437.5,351.4" style="fill:none;stroke:#7E56C2;stroke-width:4.0px;stroke-linecap:butt;stroke-linejoin:miter;stroke-opacity:1;"/>
<path d="M 353.7,351.4 L 349.1,351.4 L 346.8,347.4" style="fill:none;stroke:#7E56C2;stroke-width:4.0px;stroke-linecap:butt;stroke-linejoin:miter;stroke-opacity:1;"/>
<path d="M 437.5,190.2 L 442.2,190.2 L 444.5,194.2" style="fill:none;stroke:#7E56C2;stroke-width:4.0px;stroke-linecap:butt;stroke-linejoin:miter;stroke-opacity:1;"/>
<path d="M 304.9,113.6 L 302.5,109.6 L 297.9,109.6" style="fill:none;stroke:#7E56C2;stroke-width:4.0px;stroke-linecap:butt;stroke-linejoin:miter;stroke-opacity:1;"/>
<path d="M 214.1,109.6 L 209.5,109.6 L 207.1,113.6" style="fill:none;stroke:#7E56C2;stroke-width:4.0px;stroke-linecap:butt;stroke-linejoin:miter;stroke-opacity:1;"/>
<path d="M 74.5,190.2 L 69.8,190.2 L 67.5,194.2" style="fill:none;stroke:#7E56C2;stroke-width:4.0px;stroke-linecap:butt;stroke-linejoin:miter;stroke-opacity:1;"/>
<path d="M 25.6,266.8 L 23.3,270.8 L 25.6,274.8" style="fill:none;stroke:#7E56C2;stroke-width:4.0px;stroke-linecap:butt;stroke-linejoin:miter;stroke-opacity:1;"/>
<path d="M 67.5,347.4 L 69.8,351.4 L 74.5,351.4" style="fill:none;stroke:#7E56C2;stroke-width:4.0px;stroke-linecap:butt;stroke-linejoin:miter;stroke-opacity:1;"/>
<path d="M 158.3,351.4 L 162.9,351.4 L 165.2,347.4" style="fill:none;stroke:#7E56C2;stroke-width:4.0px;stroke-linecap:butt;stroke-linejoin:miter;stroke-opacity:1;"/>
<path class="legend" d="M 263.2 499.2 L 249.2 499.2 L 249.2 497.3 L 256.6 489.0 Q 258.2 487.2, 258.9 486.0 Q 259.5 484.9, 259.5 483.6 Q 259.5 481.9, 258.5 480.9 Q 257.5 479.8, 255.8 479.8 Q 253.8 479.8, 252.6 481.0 Q 251.5 482.1, 251.5 484.2 L 248.8 484.2 Q 248.8 481.2, 250.7 479.4 Q 252.6 477.6, 255.8 477.6 Q 258.8 477.6, 260.5 479.1 Q 262.2 480.7, 262.2 483.3 Q 262.2 486.4, 258.2 490.8 L 252.5 497.0 L 263.2 497.0 L 263.2 499.2 " fill="#7E56C2"/>
</g>
    <g transform="translate(1024.0, 0.0) scale(1 1) "><!-- END OF HEADER -->
<rect style="opacity:1.0;fill:#FF00FF00;stroke:none" width="512.0" height="512.0" x="0.0" y="0.0"> </rect>
<path class="bond-0 atom-0 atom-1" d="M 488.7,270.8 L 442.2,351.4" style="fill:none;fill-rule:evenodd;stroke:#7E56C2;stroke-width:4.0px;stroke-linecap:butt;stroke-linejoin:miter;stroke-opacity:1"/>
<path class="bond-1 atom-1 atom-2" d="M 442.2,351.4 L 349.1,351.4" style="fill:none;fill-rule:evenodd;stroke:#7E56C2;stroke-width:4.0px;stroke-linecap:butt;stroke-linejoin:miter;stroke-opacity:1"/>
<path class="bond-1 atom-1 atom-2" d="M 434.1,337.5 L 357.2,337.5" style="fill:none;fill-rule:evenodd;stroke:#7E56C2;stroke-width:4.0px;stroke-linecap:butt;stroke-linejoin:miter;stroke-opacity:1"/>
<path class="bond-2 atom-2 atom-3" d="M 349.1,351.4 L 302.5,270.8" style="fill:none;fill-rule:evenodd;stroke:#7E56C2;stroke-width:4.0px;stroke-linecap:butt;stroke-linejoin:miter;stroke-opacity:1"/>
<path class="bond-3 atom-3 atom-4" d="M 302.5,270.8 L 349.1,190.2" style="fill:none;fill-rule:evenodd;stroke:#7E56C2;stroke-width:4.0px;stroke-linecap:butt;stroke-linejoin:miter;stroke-opacity:1"/>
<path class="bond-3 atom-3 atom-4" d="M 318.7,270.8 L 357.2,204.2" style="fill:none;fill-rule:evenodd;stroke:#7E56C2;stroke-width:4.0px;stroke-linecap:butt;stroke-linejoin:miter;stroke-opacity:1"/>
<path class="bond-4 atom-4 atom-5" d="M 349.1,190.2 L 442.2,190.2" style="fill:none;fill-rule:evenodd;stroke:#7E56C2;stroke-width:4.0px;stroke-linecap:butt;stroke-linejoin:miter;stroke-opacity:1"/>
<path class="bond-5 atom-4 atom-6" d="M 349.1,190.2 L 302.5,109.6" style="fill:none;fill-rule:evenodd;stroke:#7E56C2;stroke-width:4.0px;stroke-linecap:butt;stroke-linejoin:miter;stroke-opacity:1"/>
<path class="bond-6 atom-6 atom-7" d="M 302.5,109.6 L 209.5,109.6" style="fill:none;fill-rule:evenodd;stroke:#7E56C2;stroke-width:4.0px;stroke-linecap:butt;stroke-linejoin:miter;stroke-opacity:1"/>
<path class="bond-6 atom-6 atom-7" d="M 294.5,123.5 L 217.5,123.5" style="fill:none;fill-rule:evenodd;stroke:#7E56C2;stroke-width:4.0px;stroke-linecap:butt;stroke-linejoin:miter;stroke-opacity:1"/>
<path class="bond-7 atom-7 atom-8" d="M 209.5,109.6 L 162.9,190.2" style="fill:none;fill-rule:evenodd;stroke:#7E56C2;stroke-width:4.0px;stroke-linecap:butt;stroke-linejoin:miter;stroke-opacity:1"/>
<path class="bond-8 atom-8 atom-9" d="M 162.9,190.2 L 69.8,190.2" style="fill:none;fill-rule:evenodd;stroke:#7E56C2;stroke-width:4.0px;stroke-linecap:butt;stroke-linejoin:miter;stroke-opacity:1"/>
<path class="bond-8 atom-8 atom-9" d="M 154.8,204.2 L 77.9,204.2" style="fill:none;fill-rule:evenodd;stroke:#7E56C2;stroke-width:4.0px;stroke-linecap:butt;stroke-linejoin:miter;stroke-opacity:1"/>
<path class="bond-9 atom-9 atom-10" d="M 69.8,190.2 L 23.3,270.8" style="fill:none;fill-rule:evenodd;stroke:#7E56C2;stroke-width:4.0px;stroke-linecap:butt;stroke-linejoin:miter;stroke-opacity:1"/>
<path class="bond-10 atom-10 atom-11" d="M 23.3,270.8 L 69.8,351.4" style="fill:none;fill-rule:evenodd;stroke:#7E56C2;stroke-width:4.0px;stroke-linecap:butt;stroke-linejoin:miter;stroke-opacity:1"/>
<path class="bond-10 atom-10 atom-11" d="M 39.4,270.8 L 77.9,337.5" style="fill:none;fill-rule:evenodd;stroke:#7E56C2;stroke-width:4.0px;stroke-linecap:butt;stroke-linejoin:miter;stroke-opacity:1"/>
<path class="bond-11 atom-11 atom-12" d="M 69.8,351.4 L 162.9,351.4" style="fill:none;fill-rule:evenodd;stroke:#7E56C2;stroke-width:4.0px;stroke-linecap:butt;stroke-linejoin:miter;stroke-opacity:1"/>
<path class="bond-12 atom-12 atom-13" d="M 162.9,351.4 L 209.5,270.8" style="fill:none;fill-rule:evenodd;stroke:#7E56C2;stroke-width:4.0px;stroke-linecap:butt;stroke-linejoin:miter;stroke-opacity:1"/>
<path class="bond-12 atom-12 atom-13" d="M 154.8,337.5 L 193.3,270.8" style="fill:none;fill-rule:evenodd;stroke:#7E56C2;stroke-width:4.0px;stroke-linecap:butt;stroke-linejoin:miter;stroke-opacity:1"/>
<path class="bond-13 atom-5 atom-0" d="M 442.2,190.2 L 488.7,270.8" style="fill:none;fill-rule:evenodd;stroke:#7E56C2;stroke-width:4.0px;stroke-linecap:butt;stroke-linejoin:miter;stroke-opacity:1"/>
<path class="bond-13 atom-5 atom-0" d="M 434.1,204.2 L 472.6,270.8" style="fill:none;fill-rule:evenodd;stroke:#7E56C2;stroke-width:4.0px;stroke-linecap:butt;stroke-linejoin:miter;stroke-opacity:1"/>
<path class="bond-14 atom-13 atom-3" d="M 209.5,270.8 L 302.5,270.8" style="fill:none;fill-rule:evenodd;stroke:#7E56C2;stroke-width:4.0px;stroke-linecap:butt;stroke-linejoin:miter;stroke-opacity:1"/>
<path class="bond-15 atom-13 atom-8" d="M 209.5,270.8 L 162.9,190.2" style="fill:none;fill-rule:evenodd;stroke:#7E56C2;stroke-width:4.0px;stroke-linecap:butt;stroke-linejoin:miter;stroke-opacity:1"/>
<path d="M 486.4,274.8 L 488.7,270.8 L 486.4,266.8" style="fill:none;stroke:#7E56C2;stroke-width:4.0px;stroke-linecap:butt;stroke-linejoin:miter;stroke-opacity:1;"/>
<path d="M 444.5,347.4 L 442.2,351.4 L 437.5,351.4" style="fill:none;stroke:#7E56C2;stroke-width:4.0px;stroke-linecap:butt;stroke-linejoin:miter;stroke-opacity:1;"/>
<path d="M 353.7,351.4 L 349.1,351.4 L 346.8,347.4" style="fill:none;stroke:#7E56C2;stroke-width:4.0px;stroke-linecap:butt;stroke-linejoin:miter;stroke-opacity:1;"/>
<path d="M 437.5,190.2 L 442.2,190.2 L 444.5,194.2" style="fill:none;stroke:#7E56C2;stroke-width:4.0px;stroke-linecap:butt;stroke-linejoin:miter;stroke-opacity:1;"/>
<path d="M 304.9,113.6 L 302.5,109.6 L 297.9,109.6" style="fill:none;stroke:#7E56C2;stroke-width:4.0px;stroke-linecap:butt;stroke-linejoin:miter;stroke-opacity:1;"/>
<path d="M 214.1,109.6 L 209.5,109.6 L 207.1,113.6" style="fill:none;stroke:#7E56C2;stroke-width:4.0px;stroke-linecap:butt;stroke-linejoin:miter;stroke-opacity:1;"/>
<path d="M 74.5,190.2 L 69.8,190.2 L 67.5,194.2" style="fill:none;stroke:#7E56C2;stroke-width:4.0px;stroke-linecap:butt;stroke-linejoin:miter;stroke-opacity:1;"/>
<path d="M 25.6,266.8 L 23.3,270.8 L 25.6,274.8" style="fill:none;stroke:#7E56C2;stroke-width:4.0px;stroke-linecap:butt;stroke-linejoin:miter;stroke-opacity:1;"/>
<path d="M 67.5,347.4 L 69.8,351.4 L 74.5,351.4" style="fill:none;stroke:#7E56C2;stroke-width:4.0px;stroke-linecap:butt;stroke-linejoin:miter;stroke-opacity:1;"/>
<path d="M 158.3,351.4 L 162.9,351.4 L 165.2,347.4" style="fill:none;stroke:#7E56C2;stroke-width:4.0px;stroke-linecap:butt;stroke-linejoin:miter;stroke-opacity:1;"/>
<path class="legend" d="M 253.6 486.9 L 255.6 486.9 Q 257.5 486.9, 258.6 485.9 Q 259.7 484.9, 259.7 483.3 Q 259.7 479.5, 256.0 479.5 Q 254.2 479.5, 253.2 480.5 Q 252.1 481.5, 252.1 483.2 L 249.4 483.2 Q 249.4 480.6, 251.3 479.0 Q 253.1 477.3, 256.0 477.3 Q 259.0 477.3, 260.7 478.9 Q 262.4 480.5, 262.4 483.3 Q 262.4 484.7, 261.5 486.0 Q 260.6 487.3, 259.1 488.0 Q 260.8 488.5, 261.8 489.8 Q 262.8 491.1, 262.8 493.0 Q 262.8 495.8, 260.9 497.5 Q 259.0 499.2, 256.0 499.2 Q 253.0 499.2, 251.1 497.6 Q 249.2 495.9, 249.2 493.3 L 252.0 493.3 Q 252.0 495.0, 253.1 496.0 Q 254.2 497.0, 256.0 497.0 Q 258.0 497.0, 259.0 496.0 Q 260.1 494.9, 260.1 493.0 Q 260.1 491.2, 258.9 490.2 Q 257.8 489.2, 255.6 489.1 L 253.6 489.1 L 253.6 486.9 " fill="#7E56C2"/>
</g>
    <g transform="translate(0.0, 512.0) scale(1 1) "><!-- END OF HEADER -->
<rect style="opacity:1.0;fill:#FF00FF00;stroke:none" width="512.0" height="512.0" x="0.0" y="0.0"> </rect>
<path class="bond-0 atom-0 atom-1" d="M 488.7,270.8 L 442.2,351.4" style="fill:none;fill-rule:evenodd;stroke:#7E56C2;stroke-width:4.0px;stroke-linecap:butt;stroke-linejoin:miter;stroke-opacity:1"/>
<path class="bond-1 atom-1 atom-2" d="M 442.2,351.4 L 349.1,351.4" style="fill:none;fill-rule:evenodd;stroke:#7E56C2;stroke-width:4.0px;stroke-linecap:butt;stroke-linejoin:miter;stroke-opacity:1"/>
<path class="bond-1 atom-1 atom-2" d="M 434.1,337.5 L 357.2,337.5" style="fill:none;fill-rule:evenodd;stroke:#7E56C2;stroke-width:4.0px;stroke-linecap:butt;stroke-linejoin:miter;stroke-opacity:1"/>
<path class="bond-2 atom-2 atom-3" d="M 349.1,351.4 L 302.5,270.8" style="fill:none;fill-rule:evenodd;stroke:#7E56C2;stroke-width:4.0px;stroke-linecap:butt;stroke-linejoin:miter;stroke-opacity:1"/>
<path class="bond-3 atom-3 atom-4" d="M 302.5,270.8 L 349.1,190.2" style="fill:none;fill-rule:evenodd;stroke:#7E56C2;stroke-width:4.0px;stroke-linecap:butt;stroke-linejoin:miter;stroke-opacity:1"/>
<path class="bond-3 atom-3 atom-4" d="M 318.7,270.8 L 357.2,204.2" style="fill:none;fill-rule:evenodd;stroke:#7E56C2;stroke-width:4.0px;stroke-linecap:butt;stroke-linejoin:miter;stroke-opacity:1"/>
<path class="bond-4 atom-4 atom-5" d="M 349.1,190.2 L 442.2,190.2" style="fill:none;fill-rule:evenodd;stroke:#7E56C2;stroke-width:4.0px;stroke-linecap:butt;stroke-linejoin:miter;stroke-opacity:1"/>
<path class="bond-5 atom-4 atom-6" d="M 349.1,190.2 L 302.5,109.6" style="fill:none;fill-rule:evenodd;stroke:#7E56C2;stroke-width:4.0px;stroke-linecap:butt;stroke-linejoin:miter;stroke-opacity:1"/>
<path class="bond-6 atom-6 atom-7" d="M 302.5,109.6 L 209.5,109.6" style="fill:none;fill-rule:evenodd;stroke:#7E56C2;stroke-width:4.0px;stroke-linecap:butt;stroke-linejoin:miter;stroke-opacity:1"/>
<path class="bond-6 atom-6 atom-7" d="M 294.5,123.5 L 217.5,123.5" style="fill:none;fill-rule:evenodd;stroke:#7E56C2;stroke-width:4.0px;stroke-linecap:butt;stroke-linejoin:miter;stroke-opacity:1"/>
<path class="bond-7 atom-7 atom-8" d="M 209.5,109.6 L 162.9,190.2" style="fill:none;fill-rule:evenodd;stroke:#7E56C2;stroke-width:4.0px;stroke-linecap:butt;stroke-linejoin:miter;stroke-opacity:1"/>
<path class="bond-8 atom-8 atom-9" d="M 162.9,190.2 L 69.8,190.2" style="fill:none;fill-rule:evenodd;stroke:#7E56C2;stroke-width:4.0px;stroke-linecap:butt;stroke-linejoin:miter;stroke-opacity:1"/>
<path class="bond-9 atom-9 atom-10" d="M 69.8,190.2 L 23.3,270.8" style="fill:none;fill-rule:evenodd;stroke:#7E56C2;stroke-width:4.0px;stroke-linecap:butt;stroke-linejoin:miter;stroke-opacity:1"/>
<path class="bond-9 atom-9 atom-10" d="M 77.9,204.2 L 39.4,270.8" style="fill:none;fill-rule:evenodd;stroke:#7E56C2;stroke-width:4.0px;stroke-linecap:butt;stroke-linejoin:miter;stroke-opacity:1"/>
<path class="bond-10 atom-10 atom-11" d="M 23.3,270.8 L 69.8,351.4" style="fill:none;fill-rule:evenodd;stroke:#7E56C2;stroke-width:4.0px;stroke-linecap:butt;stroke-linejoin:miter;stroke-opacity:1"/>
<path class="bond-11 atom-11 atom-12" d="M 69.8,351.4 L 162.9,351.4" style="fill:none;fill-rule:evenodd;stroke:#7E56C2;stroke-width:4.0px;stroke-linecap:butt;stroke-linejoin:miter;stroke-opacity:1"/>
<path class="bond-11 atom-11 atom-12" d="M 77.9,337.5 L 154.8,337.5" style="fill:none;fill-rule:evenodd;stroke:#7E56C2;stroke-width:4.0px;stroke-linecap:butt;stroke-linejoin:miter;stroke-opacity:1"/>
<path class="bond-12 atom-12 atom-13" d="M 162.9,351.4 L 209.5,270.8" style="fill:none;fill-rule:evenodd;stroke:#7E56C2;stroke-width:4.0px;stroke-linecap:butt;stroke-linejoin:miter;stroke-opacity:1"/>
<path class="bond-13 atom-5 atom-0" d="M 442.2,190.2 L 488.7,270.8" style="fill:none;fill-rule:evenodd;stroke:#7E56C2;stroke-width:4.0px;stroke-linecap:butt;stroke-linejoin:miter;stroke-opacity:1"/>
<path class="bond-13 atom-5 atom-0" d="M 434.1,204.2 L 472.6,270.8" style="fill:none;fill-rule:evenodd;stroke:#7E56C2;stroke-width:4.0px;stroke-linecap:butt;stroke-linejoin:miter;stroke-opacity:1"/>
<path class="bond-14 atom-13 atom-3" d="M 209.5,270.8 L 302.5,270.8" style="fill:none;fill-rule:evenodd;stroke:#7E56C2;stroke-width:4.0px;stroke-linecap:butt;stroke-linejoin:miter;stroke-opacity:1"/>
<path class="bond-15 atom-13 atom-8" d="M 209.5,270.8 L 162.9,190.2" style="fill:none;fill-rule:evenodd;stroke:#7E56C2;stroke-width:4.0px;stroke-linecap:butt;stroke-linejoin:miter;stroke-opacity:1"/>
<path class="bond-15 atom-13 atom-8" d="M 217.5,256.8 L 179.0,190.2" style="fill:none;fill-rule:evenodd;stroke:#7E56C2;stroke-width:4.0px;stroke-linecap:butt;stroke-linejoin:miter;stroke-opacity:1"/>
<path d="M 486.4,274.8 L 488.7,270.8 L 486.4,266.8" style="fill:none;stroke:#7E56C2;stroke-width:4.0px;stroke-linecap:butt;stroke-linejoin:miter;stroke-opacity:1;"/>
<path d="M 444.5,347.4 L 442.2,351.4 L 437.5,351.4" style="fill:none;stroke:#7E56C2;stroke-width:4.0px;stroke-linecap:butt;stroke-linejoin:miter;stroke-opacity:1;"/>
<path d="M 353.7,351.4 L 349.1,351.4 L 346.8,347.4" style="fill:none;stroke:#7E56C2;stroke-width:4.0px;stroke-linecap:butt;stroke-linejoin:miter;stroke-opacity:1;"/>
<path d="M 437.5,190.2 L 442.2,190.2 L 444.5,194.2" style="fill:none;stroke:#7E56C2;stroke-width:4.0px;stroke-linecap:butt;stroke-linejoin:miter;stroke-opacity:1;"/>
<path d="M 304.9,113.6 L 302.5,109.6 L 297.9,109.6" style="fill:none;stroke:#7E56C2;stroke-width:4.0px;stroke-linecap:butt;stroke-linejoin:miter;stroke-opacity:1;"/>
<path d="M 214.1,109.6 L 209.5,109.6 L 207.1,113.6" style="fill:none;stroke:#7E56C2;stroke-width:4.0px;stroke-linecap:butt;stroke-linejoin:miter;stroke-opacity:1;"/>
<path d="M 74.5,190.2 L 69.8,190.2 L 67.5,194.2" style="fill:none;stroke:#7E56C2;stroke-width:4.0px;stroke-linecap:butt;stroke-linejoin:miter;stroke-opacity:1;"/>
<path d="M 25.6,266.8 L 23.3,270.8 L 25.6,274.8" style="fill:none;stroke:#7E56C2;stroke-width:4.0px;stroke-linecap:butt;stroke-linejoin:miter;stroke-opacity:1;"/>
<path d="M 67.5,347.4 L 69.8,351.4 L 74.5,351.4" style="fill:none;stroke:#7E56C2;stroke-width:4.0px;stroke-linecap:butt;stroke-linejoin:miter;stroke-opacity:1;"/>
<path d="M 158.3,351.4 L 162.9,351.4 L 165.2,347.4" style="fill:none;stroke:#7E56C2;stroke-width:4.0px;stroke-linecap:butt;stroke-linejoin:miter;stroke-opacity:1;"/>
<path class="legend" d="M 260.7 492.0 L 263.7 492.0 L 263.7 494.2 L 260.7 494.2 L 260.7 499.2 L 258.0 499.2 L 258.0 494.2 L 248.3 494.2 L 248.3 492.7 L 257.9 477.9 L 260.7 477.9 L 260.7 492.0 M 251.4 492.0 L 258.0 492.0 L 258.0 481.6 L 257.7 482.2 L 251.4 492.0 " fill="#7E56C2"/>
</g>
    <g transform="translate(512.0, 512.0) scale(1 1) "><!-- END OF HEADER -->
<rect style="opacity:1.0;fill:#FF00FF00;stroke:none" width="512.0" height="512.0" x="0.0" y="0.0"> </rect>
<path class="bond-0 atom-0 atom-1" d="M 488.7,270.8 L 442.2,351.4" style="fill:none;fill-rule:evenodd;stroke:#7E56C2;stroke-width:4.0px;stroke-linecap:butt;stroke-linejoin:miter;stroke-opacity:1"/>
<path class="bond-1 atom-1 atom-2" d="M 442.2,351.4 L 349.1,351.4" style="fill:none;fill-rule:evenodd;stroke:#7E56C2;stroke-width:4.0px;stroke-linecap:butt;stroke-linejoin:miter;stroke-opacity:1"/>
<path class="bond-1 atom-1 atom-2" d="M 434.1,337.5 L 357.2,337.5" style="fill:none;fill-rule:evenodd;stroke:#7E56C2;stroke-width:4.0px;stroke-linecap:butt;stroke-linejoin:miter;stroke-opacity:1"/>
<path class="bond-2 atom-2 atom-3" d="M 349.1,351.4 L 302.5,270.8" style="fill:none;fill-rule:evenodd;stroke:#7E56C2;stroke-width:4.0px;stroke-linecap:butt;stroke-linejoin:miter;stroke-opacity:1"/>
<path class="bond-3 atom-3 atom-4" d="M 302.5,270.8 L 349.1,190.2" style="fill:none;fill-rule:evenodd;stroke:#7E56C2;stroke-width:4.0px;stroke-linecap:butt;stroke-linejoin:miter;stroke-opacity:1"/>
<path class="bond-4 atom-4 atom-5" d="M 349.1,190.2 L 442.2,190.2" style="fill:none;fill-rule:evenodd;stroke:#7E56C2;stroke-width:4.0px;stroke-linecap:butt;stroke-linejoin:miter;stroke-opacity:1"/>
<path class="bond-5 atom-4 atom-6" d="M 349.1,190.2 L 302.5,109.6" style="fill:none;fill-rule:evenodd;stroke:#7E56C2;stroke-width:4.0px;stroke-linecap:butt;stroke-linejoin:miter;stroke-opacity:1"/>
<path class="bond-5 atom-4 atom-6" d="M 333.0,190.2 L 294.5,123.5" style="fill:none;fill-rule:evenodd;stroke:#7E56C2;stroke-width:4.0px;stroke-linecap:butt;stroke-linejoin:miter;stroke-opacity:1"/>
<path class="bond-6 atom-6 atom-7" d="M 302.5,109.6 L 209.5,109.6" style="fill:none;fill-rule:evenodd;stroke:#7E56C2;stroke-width:4.0px;stroke-linecap:butt;stroke-linejoin:miter;stroke-opacity:1"/>
<path class="bond-7 atom-7 atom-8" d="M 209.5,109.6 L 162.9,190.2" style="fill:none;fill-rule:evenodd;stroke:#7E56C2;stroke-width:4.0px;stroke-linecap:butt;stroke-linejoin:miter;stroke-opacity:1"/>
<path class="bond-7 atom-7 atom-8" d="M 217.5,123.5 L 179.0,190.2" style="fill:none;fill-rule:evenodd;stroke:#7E56C2;stroke-width:4.0px;stroke-linecap:butt;stroke-linejoin:miter;stroke-opacity:1"/>
<path class="bond-8 atom-8 atom-9" d="M 162.9,190.2 L 69.8,190.2" style="fill:none;fill-rule:evenodd;stroke:#7E56C2;stroke-width:4.0px;stroke-linecap:butt;stroke-linejoin:miter;stroke-opacity:1"/>
<path class="bond-9 atom-9 atom-10" d="M 69.8,190.2 L 23.3,270.8" style="fill:none;fill-rule:evenodd;stroke:#7E56C2;stroke-width:4.0px;stroke-linecap:butt;stroke-linejoin:miter;stroke-opacity:1"/>
<path class="bond-9 atom-9 atom-10" d="M 77.9,204.2 L 39.4,270.8" style="fill:none;fill-rule:evenodd;stroke:#7E56C2;stroke-width:4.0px;stroke-linecap:butt;stroke-linejoin:miter;stroke-opacity:1"/>
<path class="bond-10 atom-10 atom-11" d="M 23.3,270.8 L 69.8,351.4" style="fill:none;fill-rule:evenodd;stroke:#7E56C2;stroke-width:4.0px;stroke-linecap:butt;stroke-linejoin:miter;stroke-opacity:1"/>
<path class="bond-11 atom-11 atom-12" d="M 69.8,351.4 L 162.9,351.4" style="fill:none;fill-rule:evenodd;stroke:#7E56C2;stroke-width:4.0px;stroke-linecap:butt;stroke-linejoin:miter;stroke-opacity:1"/>
<path class="bond-11 atom-11 atom-12" d="M 77.9,337.5 L 154.8,337.5" style="fill:none;fill-rule:evenodd;stroke:#7E56C2;stroke-width:4.0px;stroke-linecap:butt;stroke-linejoin:miter;stroke-opacity:1"/>
<path class="bond-12 atom-12 atom-13" d="M 162.9,351.4 L 209.5,270.8" style="fill:none;fill-rule:evenodd;stroke:#7E56C2;stroke-width:4.0px;stroke-linecap:butt;stroke-linejoin:miter;stroke-opacity:1"/>
<path class="bond-13 atom-5 atom-0" d="M 442.2,190.2 L 488.7,270.8" style="fill:none;fill-rule:evenodd;stroke:#7E56C2;stroke-width:4.0px;stroke-linecap:butt;stroke-linejoin:miter;stroke-opacity:1"/>
<path class="bond-13 atom-5 atom-0" d="M 434.1,204.2 L 472.6,270.8" style="fill:none;fill-rule:evenodd;stroke:#7E56C2;stroke-width:4.0px;stroke-linecap:butt;stroke-linejoin:miter;stroke-opacity:1"/>
<path class="bond-14 atom-13 atom-3" d="M 209.5,270.8 L 302.5,270.8" style="fill:none;fill-rule:evenodd;stroke:#7E56C2;stroke-width:4.0px;stroke-linecap:butt;stroke-linejoin:miter;stroke-opacity:1"/>
<path class="bond-14 atom-13 atom-3" d="M 217.5,256.8 L 294.5,256.8" style="fill:none;fill-rule:evenodd;stroke:#7E56C2;stroke-width:4.0px;stroke-linecap:butt;stroke-linejoin:miter;stroke-opacity:1"/>
<path class="bond-15 atom-13 atom-8" d="M 209.5,270.8 L 162.9,190.2" style="fill:none;fill-rule:evenodd;stroke:#7E56C2;stroke-width:4.0px;stroke-linecap:butt;stroke-linejoin:miter;stroke-opacity:1"/>
<path d="M 486.4,274.8 L 488.7,270.8 L 486.4,266.8" style="fill:none;stroke:#7E56C2;stroke-width:4.0px;stroke-linecap:butt;stroke-linejoin:miter;stroke-opacity:1;"/>
<path d="M 444.5,347.4 L 442.2,351.4 L 437.5,351.4" style="fill:none;stroke:#7E56C2;stroke-width:4.0px;stroke-linecap:butt;stroke-linejoin:miter;stroke-opacity:1;"/>
<path d="M 353.7,351.4 L 349.1,351.4 L 346.8,347.4" style="fill:none;stroke:#7E56C2;stroke-width:4.0px;stroke-linecap:butt;stroke-linejoin:miter;stroke-opacity:1;"/>
<path d="M 437.5,190.2 L 442.2,190.2 L 444.5,194.2" style="fill:none;stroke:#7E56C2;stroke-width:4.0px;stroke-linecap:butt;stroke-linejoin:miter;stroke-opacity:1;"/>
<path d="M 304.9,113.6 L 302.5,109.6 L 297.9,109.6" style="fill:none;stroke:#7E56C2;stroke-width:4.0px;stroke-linecap:butt;stroke-linejoin:miter;stroke-opacity:1;"/>
<path d="M 214.1,109.6 L 209.5,109.6 L 207.1,113.6" style="fill:none;stroke:#7E56C2;stroke-width:4.0px;stroke-linecap:butt;stroke-linejoin:miter;stroke-opacity:1;"/>
<path d="M 74.5,190.2 L 69.8,190.2 L 67.5,194.2" style="fill:none;stroke:#7E56C2;stroke-width:4.0px;stroke-linecap:butt;stroke-linejoin:miter;stroke-opacity:1;"/>
<path d="M 25.6,266.8 L 23.3,270.8 L 25.6,274.8" style="fill:none;stroke:#7E56C2;stroke-width:4.0px;stroke-linecap:butt;stroke-linejoin:miter;stroke-opacity:1;"/>
<path d="M 67.5,347.4 L 69.8,351.4 L 74.5,351.4" style="fill:none;stroke:#7E56C2;stroke-width:4.0px;stroke-linecap:butt;stroke-linejoin:miter;stroke-opacity:1;"/>
<path d="M 158.3,351.4 L 162.9,351.4 L 165.2,347.4" style="fill:none;stroke:#7E56C2;stroke-width:4.0px;stroke-linecap:butt;stroke-linejoin:miter;stroke-opacity:1;"/>
<path class="legend" d="M 250.1 488.2 L 251.1 477.6 L 262.1 477.6 L 262.1 480.1 L 253.4 480.1 L 252.8 485.9 Q 254.4 485.0, 256.4 485.0 Q 259.3 485.0, 261.0 486.9 Q 262.7 488.8, 262.7 492.1 Q 262.7 495.4, 260.9 497.3 Q 259.1 499.2, 255.9 499.2 Q 253.1 499.2, 251.3 497.6 Q 249.5 496.1, 249.3 493.3 L 251.9 493.3 Q 252.1 495.1, 253.2 496.1 Q 254.2 497.0, 255.9 497.0 Q 257.8 497.0, 258.9 495.7 Q 260.0 494.4, 260.0 492.1 Q 260.0 490.0, 258.8 488.7 Q 257.7 487.4, 255.7 487.4 Q 254.0 487.4, 252.9 488.2 L 252.2 488.8 L 250.1 488.2 " fill="#7E56C2"/>
</g>
  </g>
</svg>
