<?xml version='1.0' encoding='ASCII' standalone='yes'?>
<svg xmlns="http://www.w3.org/2000/svg" xmlns:xlink="http://www.w3.org/1999/xlink" version="1.1" width="1024.0px" viewBox="0 0 1024.0 512.0" height="512.0px">
  <g>
    <g transform="translate(0.0, 0.0) scale(1 1) "><!-- END OF HEADER -->
<rect style="opacity:1.0;fill:#FF00FF00;stroke:none" width="512.0" height="512.0" x="0.0" y="0.0"> </rect>
<path class="bond-0 atom-0 atom-1" d="M 473.9,230.5 L 407.7,345.1" style="fill:none;fill-rule:evenodd;stroke:#7E56C2;stroke-width:4.0px;stroke-linecap:butt;stroke-linejoin:miter;stroke-opacity:1"/>
<path class="bond-0 atom-0 atom-1" d="M 451.0,230.5 L 396.3,325.2" style="fill:none;fill-rule:evenodd;stroke:#7E56C2;stroke-width:4.0px;stroke-linecap:butt;stroke-linejoin:miter;stroke-opacity:1"/>
<path class="bond-1 atom-1 atom-2" d="M 407.7,345.1 L 275.4,345.1" style="fill:none;fill-rule:evenodd;stroke:#7E56C2;stroke-width:4.0px;stroke-linecap:butt;stroke-linejoin:miter;stroke-opacity:1"/>
<path class="bond-2 atom-2 atom-3" d="M 275.4,345.1 L 209.3,230.5" style="fill:none;fill-rule:evenodd;stroke:#7E56C2;stroke-width:4.0px;stroke-linecap:butt;stroke-linejoin:miter;stroke-opacity:1"/>
<path class="bond-2 atom-2 atom-3" d="M 286.9,325.2 L 232.2,230.5" style="fill:none;fill-rule:evenodd;stroke:#7E56C2;stroke-width:4.0px;stroke-linecap:butt;stroke-linejoin:miter;stroke-opacity:1"/>
<path class="bond-3 atom-3 atom-4" d="M 209.3,230.5 L 275.4,115.9" style="fill:none;fill-rule:evenodd;stroke:#7E56C2;stroke-width:4.0px;stroke-linecap:butt;stroke-linejoin:miter;stroke-opacity:1"/>
<path class="bond-4 atom-4 atom-5" d="M 275.4,115.9 L 407.7,115.9" style="fill:none;fill-rule:evenodd;stroke:#7E56C2;stroke-width:4.0px;stroke-linecap:butt;stroke-linejoin:miter;stroke-opacity:1"/>
<path class="bond-4 atom-4 atom-5" d="M 286.9,135.8 L 396.3,135.8" style="fill:none;fill-rule:evenodd;stroke:#7E56C2;stroke-width:4.0px;stroke-linecap:butt;stroke-linejoin:miter;stroke-opacity:1"/>
<path class="bond-5 atom-3 atom-6" d="M 209.3,230.5 L 151.1,230.5" style="fill:none;fill-rule:evenodd;stroke:#7E56C2;stroke-width:4.0px;stroke-linecap:butt;stroke-linejoin:miter;stroke-opacity:1"/>
<path class="bond-5 atom-3 atom-6" d="M 151.1,230.5 L 92.8,230.5" style="fill:none;fill-rule:evenodd;stroke:#FF0000;stroke-width:4.0px;stroke-linecap:butt;stroke-linejoin:miter;stroke-opacity:1"/>
<path class="bond-6 atom-5 atom-0" d="M 407.7,115.9 L 473.9,230.5" style="fill:none;fill-rule:evenodd;stroke:#7E56C2;stroke-width:4.0px;stroke-linecap:butt;stroke-linejoin:miter;stroke-opacity:1"/>
<path d="M 470.6,236.2 L 473.9,230.5 L 470.6,224.8" style="fill:none;stroke:#7E56C2;stroke-width:4.0px;stroke-linecap:butt;stroke-linejoin:miter;stroke-opacity:1;"/>
<path d="M 411.0,339.3 L 407.7,345.1 L 401.1,345.1" style="fill:none;stroke:#7E56C2;stroke-width:4.0px;stroke-linecap:butt;stroke-linejoin:miter;stroke-opacity:1;"/>
<path d="M 282.1,345.1 L 275.4,345.1 L 272.1,339.3" style="fill:none;stroke:#7E56C2;stroke-width:4.0px;stroke-linecap:butt;stroke-linejoin:miter;stroke-opacity:1;"/>
<path d="M 272.1,121.7 L 275.4,115.9 L 282.1,115.9" style="fill:none;stroke:#7E56C2;stroke-width:4.0px;stroke-linecap:butt;stroke-linejoin:miter;stroke-opacity:1;"/>
<path d="M 401.1,115.9 L 407.7,115.9 L 411.0,121.7" style="fill:none;stroke:#7E56C2;stroke-width:4.0px;stroke-linecap:butt;stroke-linejoin:miter;stroke-opacity:1;"/>
<path class="atom-6" d="M 60.0 244.9 L 56.2 244.9 L 56.2 231.8 L 41.9 231.8 L 41.9 244.9 L 38.1 244.9 L 38.1 216.5 L 41.9 216.5 L 41.9 228.7 L 56.2 228.7 L 56.2 216.5 L 60.0 216.5 L 60.0 244.9 " fill="#FF0000"/>
<path class="atom-6" d="M 88.4 231.6 Q 88.4 235.8, 87.0 238.9 Q 85.6 242.0, 83.1 243.7 Q 80.5 245.3, 77.0 245.3 Q 73.7 245.3, 71.1 243.7 Q 68.5 242.0, 67.0 239.0 Q 65.6 235.9, 65.6 231.9 L 65.6 229.8 Q 65.6 225.7, 67.0 222.6 Q 68.4 219.4, 71.0 217.8 Q 73.6 216.1, 77.0 216.1 Q 80.4 216.1, 83.0 217.7 Q 85.6 219.4, 87.0 222.5 Q 88.4 225.7, 88.4 229.8 L 88.4 231.6 M 84.7 229.8 Q 84.7 224.7, 82.7 222.0 Q 80.7 219.3, 77.0 219.3 Q 73.4 219.3, 71.4 222.0 Q 69.4 224.7, 69.3 229.5 L 69.3 231.6 Q 69.3 236.5, 71.4 239.3 Q 73.4 242.1, 77.0 242.1 Q 80.7 242.1, 82.7 239.5 Q 84.7 236.8, 84.7 231.9 L 84.7 229.8 " fill="#FF0000"/>
<path class="legend" d="M 205.9 490.6 L 205.9 498.9 L 203.1 498.9 L 203.1 477.6 L 211.0 477.6 Q 214.5 477.6, 216.5 479.4 Q 218.5 481.2, 218.5 484.1 Q 218.5 487.2, 216.5 488.9 Q 214.6 490.6, 211.0 490.6 L 205.9 490.6 M 205.9 488.3 L 211.0 488.3 Q 213.3 488.3, 214.5 487.2 Q 215.7 486.1, 215.7 484.1 Q 215.7 482.2, 214.5 481.1 Q 213.3 479.9, 211.2 479.9 L 205.9 479.9 L 205.9 488.3 " fill="#7E56C2"/>
<path class="legend" d="M 223.3 485.0 Q 225.1 482.8, 228.0 482.8 Q 233.0 482.8, 233.0 488.4 L 233.0 498.9 L 230.3 498.9 L 230.3 488.4 Q 230.3 486.7, 229.5 485.9 Q 228.8 485.1, 227.1 485.1 Q 225.8 485.1, 224.8 485.8 Q 223.8 486.5, 223.3 487.6 L 223.3 498.9 L 220.6 498.9 L 220.6 476.4 L 223.3 476.4 L 223.3 485.0 " fill="#7E56C2"/>
<path class="legend" d="M 243.3 499.2 Q 240.1 499.2, 238.1 497.1 Q 236.0 495.0, 236.0 491.4 L 236.0 490.9 Q 236.0 488.6, 236.9 486.7 Q 237.8 484.9, 239.4 483.8 Q 241.1 482.8, 243.0 482.8 Q 246.1 482.8, 247.8 484.8 Q 249.5 486.8, 249.5 490.6 L 249.5 491.8 L 238.7 491.8 Q 238.8 494.1, 240.1 495.6 Q 241.4 497.0, 243.4 497.0 Q 244.9 497.0, 245.9 496.4 Q 246.9 495.8, 247.6 494.8 L 249.3 496.1 Q 247.3 499.2, 243.3 499.2 M 243.0 485.0 Q 241.3 485.0, 240.2 486.2 Q 239.1 487.4, 238.8 489.5 L 246.8 489.5 L 246.8 489.3 Q 246.7 487.3, 245.7 486.1 Q 244.7 485.0, 243.0 485.0 " fill="#7E56C2"/>
<path class="legend" d="M 254.1 483.1 L 254.2 485.0 Q 256.0 482.8, 258.9 482.8 Q 264.0 482.8, 264.0 488.4 L 264.0 498.9 L 261.3 498.9 L 261.3 488.4 Q 261.3 486.7, 260.5 485.9 Q 259.8 485.1, 258.1 485.1 Q 256.8 485.1, 255.8 485.8 Q 254.8 486.5, 254.3 487.6 L 254.3 498.9 L 251.6 498.9 L 251.6 483.1 L 254.1 483.1 " fill="#7E56C2"/>
<path class="legend" d="M 267.0 490.8 Q 267.0 488.5, 267.9 486.6 Q 268.9 484.8, 270.5 483.8 Q 272.1 482.8, 274.2 482.8 Q 277.5 482.8, 279.5 485.0 Q 281.5 487.2, 281.5 491.0 L 281.5 491.2 Q 281.5 493.5, 280.6 495.3 Q 279.7 497.1, 278.0 498.2 Q 276.4 499.2, 274.3 499.2 Q 271.0 499.2, 269.0 497.0 Q 267.0 494.7, 267.0 491.0 L 267.0 490.8 M 269.8 491.2 Q 269.8 493.8, 271.0 495.4 Q 272.2 497.0, 274.3 497.0 Q 276.3 497.0, 277.5 495.4 Q 278.8 493.8, 278.8 490.8 Q 278.8 488.2, 277.5 486.6 Q 276.3 485.0, 274.2 485.0 Q 272.2 485.0, 271.0 486.6 Q 269.8 488.2, 269.8 491.2 " fill="#7E56C2"/>
<path class="legend" d="M 286.5 498.9 L 283.8 498.9 L 283.8 476.4 L 286.5 476.4 L 286.5 498.9 " fill="#7E56C2"/>
<path class="legend" d="" fill="#7E56C2"/>
<path class="legend" d="M 308.9 498.9 L 306.1 498.9 L 306.1 480.8 L 300.7 482.9 L 300.7 480.4 L 308.4 477.5 L 308.9 477.5 L 308.9 498.9 " fill="#7E56C2"/>
</g>
    <g transform="translate(512.0, 0.0) scale(1 1) "><!-- END OF HEADER -->
<rect style="opacity:1.0;fill:#FF00FF00;stroke:none" width="512.0" height="512.0" x="0.0" y="0.0"> </rect>
<path class="bond-0 atom-0 atom-1" d="M 473.9,230.5 L 407.7,345.1" style="fill:none;fill-rule:evenodd;stroke:#7E56C2;stroke-width:4.0px;stroke-linecap:butt;stroke-linejoin:miter;stroke-opacity:1"/>
<path class="bond-1 atom-1 atom-2" d="M 407.7,345.1 L 275.4,345.1" style="fill:none;fill-rule:evenodd;stroke:#7E56C2;stroke-width:4.0px;stroke-linecap:butt;stroke-linejoin:miter;stroke-opacity:1"/>
<path class="bond-1 atom-1 atom-2" d="M 396.3,325.2 L 286.9,325.2" style="fill:none;fill-rule:evenodd;stroke:#7E56C2;stroke-width:4.0px;stroke-linecap:butt;stroke-linejoin:miter;stroke-opacity:1"/>
<path class="bond-2 atom-2 atom-3" d="M 275.4,345.1 L 209.3,230.5" style="fill:none;fill-rule:evenodd;stroke:#7E56C2;stroke-width:4.0px;stroke-linecap:butt;stroke-linejoin:miter;stroke-opacity:1"/>
<path class="bond-3 atom-3 atom-4" d="M 209.3,230.5 L 275.4,115.9" style="fill:none;fill-rule:evenodd;stroke:#7E56C2;stroke-width:4.0px;stroke-linecap:butt;stroke-linejoin:miter;stroke-opacity:1"/>
<path class="bond-3 atom-3 atom-4" d="M 232.2,230.5 L 286.9,135.8" style="fill:none;fill-rule:evenodd;stroke:#7E56C2;stroke-width:4.0px;stroke-linecap:butt;stroke-linejoin:miter;stroke-opacity:1"/>
<path class="bond-4 atom-4 atom-5" d="M 275.4,115.9 L 407.7,115.9" style="fill:none;fill-rule:evenodd;stroke:#7E56C2;stroke-width:4.0px;stroke-linecap:butt;stroke-linejoin:miter;stroke-opacity:1"/>
<path class="bond-5 atom-3 atom-6" d="M 209.3,230.5 L 151.1,230.5" style="fill:none;fill-rule:evenodd;stroke:#7E56C2;stroke-width:4.0px;stroke-linecap:butt;stroke-linejoin:miter;stroke-opacity:1"/>
<path class="bond-5 atom-3 atom-6" d="M 151.1,230.5 L 92.8,230.5" style="fill:none;fill-rule:evenodd;stroke:#FF0000;stroke-width:4.0px;stroke-linecap:butt;stroke-linejoin:miter;stroke-opacity:1"/>
<path class="bond-6 atom-5 atom-0" d="M 407.7,115.9 L 473.9,230.5" style="fill:none;fill-rule:evenodd;stroke:#7E56C2;stroke-width:4.0px;stroke-linecap:butt;stroke-linejoin:miter;stroke-opacity:1"/>
<path class="bond-6 atom-5 atom-0" d="M 396.3,135.8 L 451.0,230.5" style="fill:none;fill-rule:evenodd;stroke:#7E56C2;stroke-width:4.0px;stroke-linecap:butt;stroke-linejoin:miter;stroke-opacity:1"/>
<path d="M 470.6,236.2 L 473.9,230.5 L 470.6,224.8" style="fill:none;stroke:#7E56C2;stroke-width:4.0px;stroke-linecap:butt;stroke-linejoin:miter;stroke-opacity:1;"/>
<path d="M 411.0,339.3 L 407.7,345.1 L 401.1,345.1" style="fill:none;stroke:#7E56C2;stroke-width:4.0px;stroke-linecap:butt;stroke-linejoin:miter;stroke-opacity:1;"/>
<path d="M 282.1,345.1 L 275.4,345.1 L 272.1,339.3" style="fill:none;stroke:#7E56C2;stroke-width:4.0px;stroke-linecap:butt;stroke-linejoin:miter;stroke-opacity:1;"/>
<path d="M 272.1,121.7 L 275.4,115.9 L 282.1,115.9" style="fill:none;stroke:#7E56C2;stroke-width:4.0px;stroke-linecap:butt;stroke-linejoin:miter;stroke-opacity:1;"/>
<path d="M 401.1,115.9 L 407.7,115.9 L 411.0,121.7" style="fill:none;stroke:#7E56C2;stroke-width:4.0px;stroke-linecap:butt;stroke-linejoin:miter;stroke-opacity:1;"/>
<path class="atom-6" d="M 60.0 244.9 L 56.2 244.9 L 56.2 231.8 L 41.9 231.8 L 41.9 244.9 L 38.1 244.9 L 38.1 216.5 L 41.9 216.5 L 41.9 228.7 L 56.2 228.7 L 56.2 216.5 L 60.0 216.5 L 60.0 244.9 " fill="#FF0000"/>
<path class="atom-6" d="M 88.4 231.6 Q 88.4 235.8, 87.0 238.9 Q 85.6 242.0, 83.1 243.7 Q 80.5 245.3, 77.0 245.3 Q 73.7 245.3, 71.1 243.7 Q 68.5 242.0, 67.0 239.0 Q 65.6 235.9, 65.6 231.9 L 65.6 229.8 Q 65.6 225.7, 67.0 222.6 Q 68.4 219.4, 71.0 217.8 Q 73.6 216.1, 77.0 216.1 Q 80.4 216.1, 83.0 217.7 Q 85.6 219.4, 87.0 222.5 Q 88.4 225.7, 88.4 229.8 L 88.4 231.6 M 84.7 229.8 Q 84.7 224.7, 82.7 222.0 Q 80.7 219.3, 77.0 219.3 Q 73.4 219.3, 71.4 222.0 Q 69.4 224.7, 69.3 229.5 L 69.3 231.6 Q 69.3 236.5, 71.4 239.3 Q 73.4 242.1, 77.0 242.1 Q 80.7 242.1, 82.7 239.5 Q 84.7 236.8, 84.7 231.9 L 84.7 229.8 " fill="#FF0000"/>
<path class="legend" d="M 263.2 499.2 L 249.2 499.2 L 249.2 497.3 L 256.6 489.0 Q 258.2 487.2, 258.9 486.0 Q 259.5 484.9, 259.5 483.6 Q 259.5 481.9, 258.5 480.9 Q 257.5 479.8, 255.8 479.8 Q 253.8 479.8, 252.6 481.0 Q 251.5 482.1, 251.5 484.2 L 248.8 484.2 Q 248.8 481.2, 250.7 479.4 Q 252.6 477.6, 255.8 477.6 Q 258.8 477.6, 260.5 479.1 Q 262.2 480.7, 262.2 483.3 Q 262.2 486.4, 258.2 490.8 L 252.5 497.0 L 263.2 497.0 L 263.2 499.2 " fill="#7E56C2"/>
</g>
  </g>
</svg>
