<?xml version="1.0" encoding="UTF-8" standalone="no"?>
<!-- Created with Inkscape (http://www.inkscape.org/) -->

<svg
   version="1.1"
   id="svg1"
   width="351.22592"
   height="180.60228"
   viewBox="0 0 351.22592 180.60228"
   sodipodi:docname="page3.pdf"
   xmlns:inkscape="http://www.inkscape.org/namespaces/inkscape"
   xmlns:sodipodi="http://sodipodi.sourceforge.net/DTD/sodipodi-0.dtd"
   xmlns="http://www.w3.org/2000/svg"
   xmlns:svg="http://www.w3.org/2000/svg">
  <defs
     id="defs1">
    <clipPath
       clipPathUnits="userSpaceOnUse"
       id="clipPath9">
      <path
         d="M 1.4305e-5,0 H 960.00001 V 540 H 1.4305e-5 Z"
         transform="matrix(1,0,0,-1,-196.87,350.47001)"
         clip-rule="evenodd"
         id="path9" />
    </clipPath>
    <clipPath
       clipPathUnits="userSpaceOnUse"
       id="clipPath11">
      <path
         d="M 1.4305e-5,0 H 960.00001 V 540 H 1.4305e-5 Z"
         transform="matrix(1,0,0,-1,-455.35001,285.29001)"
         clip-rule="evenodd"
         id="path11" />
    </clipPath>
  </defs>
  <sodipodi:namedview
     id="namedview1"
     pagecolor="#505050"
     bordercolor="#eeeeee"
     borderopacity="1"
     inkscape:showpageshadow="0"
     inkscape:pageopacity="0"
     inkscape:pagecheckerboard="0"
     inkscape:deskcolor="#505050">
    <inkscape:page
       x="0"
       y="0"
       inkscape:label="1"
       id="page1"
       width="351.22592"
       height="180.60228"
       margin="0"
       bleed="0" />
  </sodipodi:namedview>
  <g
     id="g1"
     inkscape:groupmode="layer"
     inkscape:label="1"
     transform="translate(-263.41406,-215.54439)">
    <g
       id="g2" />
    <g
       id="g3">
      <path
         id="path3"
         d="m 235.33,242.89 v 107.76 h -2.25 V 242.89 Z m 2.25,106.64 -3.37,6.75 -3.38,-6.75 z"
         style="fill:#7f7f7f;fill-opacity:1;fill-rule:nonzero;stroke:none"
         transform="matrix(1.3333333,0,0,-1.3333333,0,720)" />
    </g>
    <g
       id="g4">
      <path
         id="path4"
         d="m 234.21,297.59 h 221.14 v -2.25 H 234.21 Z m 220.02,2.25 6.75,-3.38 -6.75,-3.37 z"
         style="fill:#7f7f7f;fill-opacity:1;fill-rule:nonzero;stroke:none"
         transform="matrix(1.3333333,0,0,-1.3333333,0,720)" />
    </g>
    <g
       id="g5">
      <path
         id="path5"
         d="m 234.21,320.57 198.42,56.69"
         style="fill:none;stroke:#00b050;stroke-width:2.25;stroke-linecap:butt;stroke-linejoin:miter;stroke-miterlimit:10;stroke-dasharray:none;stroke-opacity:1"
         transform="matrix(1.3333333,0,0,-1.3333333,0,720)" />
    </g>
    <g
       id="g6">
      <path
         id="path6"
         d="m 234.21,296.46 198.42,56.69"
         style="fill:none;stroke:#ff0000;stroke-width:2.25;stroke-linecap:butt;stroke-linejoin:miter;stroke-miterlimit:10;stroke-dasharray:none;stroke-opacity:1"
         transform="matrix(1.3333333,0,0,-1.3333333,0,720)" />
    </g>
    <g
       id="g7">
      <path
         id="path7"
         d="M 234.21,320.57 H 432.63"
         style="fill:none;stroke:#00b0f0;stroke-width:2.25;stroke-linecap:butt;stroke-linejoin:miter;stroke-miterlimit:10;stroke-dasharray:none;stroke-opacity:1"
         transform="matrix(1.3333333,0,0,-1.3333333,0,720)" />
    </g>
    <g
       id="g8">
      <path
         id="path8"
         d="M 0.69054687,2.734375e-4 V -5.2848828 H 4.0655469 v 0.5859375 h -2.671875 v 1.6875 h 2.4609375 v 0.5859375 H 1.3936719 v 1.83984374 h 2.671875 V 2.734375e-4 Z m 4.37988283,0 V -3.8200391 h 0.6328125 l 0.023437,0.5859375 c 0.1171875,-0.1552734 0.2841797,-0.2988281 0.5039062,-0.4335937 0.2167969,-0.140625 0.4980469,-0.2109375 0.84375,-0.2109375 0.413086,0 0.7148438,0.1259765 0.9023438,0.375 0.1933594,0.243164 0.2929687,0.5917969 0.2929687,1.0429687 V 2.734375e-4 h -0.65625 V -2.3669141 c 0,-0.1875 -0.020508,-0.3515625 -0.058594,-0.4921875 -0.041016,-0.1464843 -0.1113281,-0.2607422 -0.2109375,-0.3398437 -0.1025391,-0.084961 -0.2460938,-0.1289063 -0.4335938,-0.1289063 -0.28125,0 -0.5214843,0.067383 -0.7148437,0.1992188 -0.1962891,0.1259765 -0.3515625,0.2666015 -0.46875,0.421875 V 2.734375e-4 Z M 11.093867,0.07058594 c -0.421875,0 -0.767578,-0.08496094 -1.03125,-0.2578125 -0.2666014,-0.17871094 -0.4628904,-0.41601563 -0.5859373,-0.71484375 -0.1259766,-0.29589849 -0.1875,-0.63281249 -0.1875,-1.00781249 0,-0.3896485 0.058594,-0.7324219 0.1757812,-1.03125 0.1230469,-0.2958985 0.3164063,-0.5273438 0.5742191,-0.6914063 0.257812,-0.1699218 0.580078,-0.2578125 0.972656,-0.2578125 0.521484,0 0.928711,0.1582032 1.21875,0.46875 0.295898,0.3134766 0.445312,0.7675782 0.445312,1.359375 0,0.041016 0,0.087891 0,0.140625 0,0.055664 -0.0059,0.09375 -0.01172,0.1171875 H 9.9337109 c 0.00586,0.2431641 0.049805,0.46875 0.1289061,0.6796875 0.07617,0.21093754 0.199219,0.38085941 0.363281,0.50390629 0.164063,0.12597656 0.386719,0.1875 0.667969,0.1875 0.28711,0 0.515625,-0.0644531 0.679688,-0.19921875 0.164062,-0.140625 0.249023,-0.34277344 0.257812,-0.60937504 h 0.65625 c -0.0088,0.27539066 -0.0791,0.50976566 -0.210937,0.70312504 -0.134766,0.19628906 -0.316407,0.34863281 -0.550782,0.45703125 -0.234375,0.09960937 -0.512695,0.15234375 -0.832031,0.15234375 z M 9.9454297,-2.2848828 h 2.0859373 c -0.0088,-0.3574219 -0.102539,-0.6328125 -0.28125,-0.8203125 -0.18164,-0.1875 -0.427734,-0.28125 -0.738281,-0.28125 -0.322266,0 -0.574219,0.09375 -0.761719,0.28125 -0.18164,0.1875 -0.2812498,0.4628906 -0.3046873,0.8203125 z M 13.713008,2.734375e-4 V -3.8200391 h 0.621094 l 0.02344,0.6445313 c 0.09961,-0.1933594 0.246094,-0.3574219 0.433594,-0.4921875 0.193359,-0.131836 0.445312,-0.1992188 0.75,-0.1992188 h 0.08203 v 0.5976563 h -0.09375 c -0.1875,0 -0.357422,0.029297 -0.503906,0.082031 -0.140625,0.046875 -0.266602,0.1142578 -0.375,0.1992188 -0.102539,0.087891 -0.196289,0.1875 -0.28125,0.3046875 V 2.734375e-4 Z M 17.673945,1.4768359 c -0.407226,0 -0.735351,-0.046875 -0.984375,-0.140625 C 16.437617,1.2424609 16.258906,1.1164844 16.150508,0.96121094 16.03918,0.80300781 15.986445,0.63601562 15.986445,0.45730469 c 0,-0.22851563 0.09375,-0.42773438 0.28125,-0.59765625 0.19336,-0.16992188 0.486328,-0.29296875 0.878907,-0.36328125 l 0.128906,-0.22265625 h 0.480469 c 0.632812,0 1.081054,0.0878906 1.347656,0.2578125 0.272461,0.1640625 0.410156,0.41894531 0.410156,0.76171875 0,0.3515625 -0.158203,0.63574218 -0.46875,0.85546871 -0.304687,0.2167969 -0.761719,0.328125 -1.371094,0.328125 z m -0.01172,-0.46875 c 0.445312,0 0.755859,-0.0644531 0.9375,-0.18749996 0.1875,-0.12597657 0.28125,-0.28125 0.28125,-0.46875 0,-0.11132813 -0.03223,-0.20800782 -0.09375,-0.29296875 -0.06445,-0.07617188 -0.181641,-0.13476563 -0.351563,-0.17578125 -0.164062,-0.046875 -0.398437,-0.0703125 -0.703125,-0.0703125 H 17.15832 c -0.18164,0.046875 -0.322265,0.12304687 -0.421875,0.22265625 -0.09375,0.10839843 -0.140625,0.234375 -0.140625,0.375 0,0.15527343 0.08203,0.29296875 0.246094,0.41015625 0.164063,0.12304687 0.436523,0.18749996 0.820313,0.18749996 z M 17.1466,-0.22238281 c -0.251954,-0.0234375 -0.451172,-0.0732422 -0.597657,-0.15234375 -0.140625,-0.0761719 -0.243164,-0.1640625 -0.304687,-0.2578125 -0.05566,-0.0996094 -0.08203,-0.19335938 -0.08203,-0.28125 0,-0.12304684 0.0498,-0.24609374 0.152343,-0.36328124 0.09961,-0.1171875 0.269532,-0.2109375 0.503907,-0.28125 l 0.328125,0.1992187 c -0.134766,0.041016 -0.243165,0.09082 -0.328125,0.1523438 -0.0791,0.064453 -0.117188,0.1347656 -0.117188,0.21093749 0,0.0556641 0.02344,0.10253906 0.07031,0.140625 0.04687,0.0410156 0.128906,0.0703125 0.246093,0.09375 0.117188,0.0234375 0.275391,0.0351563 0.480469,0.0351563 z m 0.48047,-1.01953129 c -0.313476,0 -0.580078,-0.058594 -0.796875,-0.1757812 -0.219726,-0.1230469 -0.383789,-0.2841797 -0.492187,-0.4804688 -0.111328,-0.1933593 -0.164063,-0.4101562 -0.164063,-0.6445312 0,-0.2402344 0.05274,-0.459961 0.164063,-0.65625 0.117187,-0.2021485 0.284179,-0.3632813 0.503906,-0.4804688 0.216797,-0.1171875 0.486328,-0.1757812 0.808594,-0.1757812 0.328125,0 0.600586,0.058594 0.820312,0.1757812 0.216797,0.1171875 0.37793,0.2783203 0.480469,0.4804688 0.108398,0.196289 0.164063,0.4160156 0.164063,0.65625 0,0.234375 -0.05567,0.4541015 -0.164063,0.65625 -0.111328,0.196289 -0.275391,0.3515625 -0.492187,0.46875 -0.219727,0.1171875 -0.498047,0.1757812 -0.832032,0.1757812 z m 0,-0.4453125 c 0.249024,0 0.457032,-0.070312 0.621094,-0.2109375 0.164063,-0.1464843 0.246094,-0.3632812 0.246094,-0.6445312 0,-0.2958985 -0.0791,-0.515625 -0.234375,-0.65625 -0.149414,-0.140625 -0.351563,-0.2109375 -0.609375,-0.2109375 -0.251953,0 -0.457031,0.076172 -0.621094,0.2226562 -0.164062,0.140625 -0.246094,0.3574219 -0.246094,0.6445313 0,0.290039 0.08496,0.5039062 0.257813,0.6445312 0.169922,0.140625 0.366211,0.2109375 0.585937,0.2109375 z m 1.007813,-1.7460937 -0.269531,-0.2460938 c 0.108398,-0.2490234 0.251953,-0.4160156 0.433593,-0.5039062 0.1875,-0.084961 0.424805,-0.131836 0.714844,-0.140625 v 0.5507812 c -0.1875,0 -0.360352,0.020508 -0.515625,0.058594 -0.149414,0.032227 -0.269531,0.1259765 -0.363281,0.2812498 z M 20.193477,2.734375e-4 V -3.8200391 h 0.65625 V 2.734375e-4 Z M 20.521602,-4.5466016 c -0.125977,0 -0.228516,-0.035156 -0.304688,-0.1054687 -0.07031,-0.070312 -0.105469,-0.1582031 -0.105469,-0.2695313 0,-0.1083984 0.03516,-0.1992187 0.105469,-0.2695312 0.07617,-0.076172 0.178711,-0.1171875 0.304688,-0.1171875 0.117187,0 0.213867,0.041016 0.292968,0.1171875 0.07617,0.070312 0.117188,0.1611328 0.117188,0.2695312 0,0.1113282 -0.04102,0.1992188 -0.117188,0.2695313 -0.0791,0.070312 -0.175781,0.1054687 -0.292968,0.1054687 z m 3.1875,4.61718754 c -0.421875,0 -0.767579,-0.08496094 -1.03125,-0.2578125 -0.266602,-0.17871094 -0.462891,-0.41601563 -0.585938,-0.71484375 -0.125977,-0.29589849 -0.1875,-0.63281249 -0.1875,-1.00781249 0,-0.3896485 0.05859,-0.7324219 0.175781,-1.03125 0.123047,-0.2958985 0.316407,-0.5273438 0.574219,-0.6914063 0.257813,-0.1699218 0.580078,-0.2578125 0.972656,-0.2578125 0.521485,0 0.928711,0.1582032 1.21875,0.46875 0.295899,0.3134766 0.445313,0.7675782 0.445313,1.359375 0,0.041016 0,0.087891 0,0.140625 0,0.055664 -0.0059,0.09375 -0.01172,0.1171875 h -2.730469 c 0.0059,0.2431641 0.0498,0.46875 0.128907,0.6796875 0.07617,0.21093754 0.199218,0.38085941 0.363281,0.50390629 0.164062,0.12597656 0.386719,0.1875 0.667969,0.1875 0.287109,0 0.515625,-0.0644531 0.679687,-0.19921875 0.164063,-0.140625 0.249023,-0.34277344 0.257813,-0.60937504 h 0.65625 c -0.0088,0.27539066 -0.0791,0.50976566 -0.210938,0.70312504 -0.134766,0.19628906 -0.316406,0.34863281 -0.550781,0.45703125 -0.234375,0.09960937 -0.512696,0.15234375 -0.83203,0.15234375 z M 22.560664,-2.2848828 h 2.085938 c -0.0088,-0.3574219 -0.10254,-0.6328125 -0.28125,-0.8203125 -0.181641,-0.1875 -0.427735,-0.28125 -0.738282,-0.28125 -0.322265,0 -0.574218,0.09375 -0.761718,0.28125 -0.181641,0.1875 -0.28125,0.4628906 -0.304688,0.8203125 z m 0,0"
         style="fill:#7f7f7f;fill-opacity:1;fill-rule:nonzero;stroke:none"
         aria-label="Energie"
         transform="matrix(1.3333333,0,0,1.3333333,262.49333,252.70667)"
         clip-path="url(#clipPath9)" />
    </g>
    <g
       id="g9">
      <path
         id="path10"
         d="M 1.5699219,-3.90625e-5 V -4.6875391 H 0.06992187 V -5.2851953 H 3.7730469 v 0.5976562 h -1.5 V -3.90625e-5 Z m 0,0"
         style="fill:#7f7f7f;fill-opacity:1;fill-rule:nonzero;stroke:none"
         aria-label="T"
         transform="matrix(1.3333333,0,0,1.3333333,607.13333,339.61333)"
         clip-path="url(#clipPath11)" />
    </g>
  </g>
</svg>
