<?xml version="1.0" encoding="UTF-8" standalone="no"?>
<!-- Created with Inkscape (http://www.inkscape.org/) -->

<svg
   version="1.1"
   id="svg1"
   width="522.82666"
   height="477.98917"
   viewBox="0 0 522.82666 477.98917"
   sodipodi:docname="page14.pdf"
   xmlns:inkscape="http://www.inkscape.org/namespaces/inkscape"
   xmlns:sodipodi="http://sodipodi.sourceforge.net/DTD/sodipodi-0.dtd"
   xmlns="http://www.w3.org/2000/svg"
   xmlns:svg="http://www.w3.org/2000/svg">
  <defs
     id="defs1">
    <clipPath
       clipPathUnits="userSpaceOnUse"
       id="clipPath3">
      <path
         d="M 1.4305e-5,0 H 960.00001 V 540 H 1.4305e-5 Z"
         transform="matrix(1,0,0,-1,-436.39001,114.58)"
         clip-rule="evenodd"
         id="path3" />
    </clipPath>
    <clipPath
       clipPathUnits="userSpaceOnUse"
       id="clipPath5">
      <path
         d="M 0,540 H 960 V 2.4414e-4 L 6.1035e-5,1.8311e-4"
         clip-rule="evenodd"
         id="path5" />
    </clipPath>
    <clipPath
       clipPathUnits="userSpaceOnUse"
       id="clipPath6">
      <path
         d="M 1.4305e-5,0 H 960.00001 V 540 H 1.4305e-5 Z"
         transform="matrix(1,0,0,-1,-227.23,114.58)"
         clip-rule="evenodd"
         id="path6" />
    </clipPath>
    <clipPath
       clipPathUnits="userSpaceOnUse"
       id="clipPath7">
      <path
         d="M 0,0 H 11.658 V 11.657 H 0 Z"
         id="path7" />
    </clipPath>
    <clipPath
       clipPathUnits="userSpaceOnUse"
       id="clipPath9">
      <path
         d="m 242.25,428.82 h 43.872 v 43.872 H 242.25 Z"
         transform="matrix(1.3333333,0,0,-1.3333333,0,720)"
         clip-rule="evenodd"
         id="path9" />
    </clipPath>
    <clipPath
       clipPathUnits="userSpaceOnUse"
       id="clipPath17">
      <path
         d="M 1.4305e-5,0 H 960.00001 V 540 H 1.4305e-5 Z"
         transform="matrix(1,0,0,-1,-395.59001,402.84001)"
         clip-rule="evenodd"
         id="path17" />
    </clipPath>
    <clipPath
       clipPathUnits="userSpaceOnUse"
       id="clipPath18">
      <path
         d="M 1.4305e-5,0 H 960.00001 V 540 H 1.4305e-5 Z"
         transform="matrix(1,0,0,-1,-428.66001,373.78001)"
         clip-rule="evenodd"
         id="path18" />
    </clipPath>
    <clipPath
       clipPathUnits="userSpaceOnUse"
       id="clipPath19">
      <path
         d="M 0,0 H 11.658 V 11.657 H 0 Z"
         id="path19" />
    </clipPath>
    <clipPath
       clipPathUnits="userSpaceOnUse"
       id="clipPath21">
      <path
         d="m 530.47,428.82 h 43.802 v 43.802 H 530.47 Z"
         transform="matrix(1.3333333,0,0,-1.3333333,0,720)"
         clip-rule="evenodd"
         id="path21" />
    </clipPath>
    <clipPath
       clipPathUnits="userSpaceOnUse"
       id="clipPath22">
      <path
         d="M 1.4305e-5,0 H 960.00001 V 540 H 1.4305e-5 Z"
         transform="matrix(1,0,0,-1,-301.32001,236.81001)"
         clip-rule="evenodd"
         id="path22" />
    </clipPath>
  </defs>
  <sodipodi:namedview
     id="namedview1"
     pagecolor="#505050"
     bordercolor="#eeeeee"
     borderopacity="1"
     inkscape:showpageshadow="0"
     inkscape:pageopacity="0"
     inkscape:pagecheckerboard="0"
     inkscape:deskcolor="#505050">
    <inkscape:page
       x="0"
       y="0"
       inkscape:label="1"
       id="page1"
       width="522.82666"
       height="477.98917"
       margin="0"
       bleed="0" />
  </sodipodi:namedview>
  <g
     id="g1"
     inkscape:groupmode="layer"
     inkscape:label="1"
     transform="translate(-281.32001,-96.194641)">
    <g
       id="g2" />
    <g
       id="g3">
      <text
         id="text3"
         xml:space="preserve"
         transform="matrix(1.3333333,0,0,1.3333333,581.85333,567.22667)"
         clip-path="url(#clipPath3)"><tspan
           style="font-variant:normal;font-weight:normal;font-size:24px;font-family:Roboto;writing-mode:lr-tb;fill:#cc0066;fill-opacity:1;fill-rule:nonzero;stroke:#cc0066;stroke-width:0.68571;stroke-linecap:butt;stroke-linejoin:miter;stroke-miterlimit:10;stroke-dasharray:none;stroke-opacity:1"
           x="0 15.048 28.08 41.400002 49.439999 61.919998 70.031998 83.040001 95.760002 101.52 114.72 126.36 138.84 144.60001 150.36"
           y="0"
           sodipodi:role="line"
           id="tspan3">Kupferhalbzelle</tspan></text>
    </g>
    <g
       id="g4">
      <path
         id="path4"
         d="m 264.75,340.86 c 0,39.76 0,72 0,72 h 287.62 c 0,0 0.01,-32.24 0.01,-72"
         style="fill:none;stroke:#bfbfbf;stroke-width:6;stroke-linecap:butt;stroke-linejoin:miter;stroke-miterlimit:10;stroke-dasharray:none;stroke-opacity:1"
         transform="matrix(1.3333333,0,0,-1.3333333,0,720)"
         clip-path="url(#clipPath5)" />
    </g>
    <g
       id="g5">
      <text
         id="text5"
         xml:space="preserve"
         transform="matrix(1.3333333,0,0,1.3333333,302.97333,567.22667)"
         clip-path="url(#clipPath6)"><tspan
           style="font-variant:normal;font-weight:normal;font-size:24px;font-family:Roboto;writing-mode:lr-tb;fill:#00b0f0;fill-opacity:1;fill-rule:nonzero;stroke:#00b0f0;stroke-width:0.68571;stroke-linecap:butt;stroke-linejoin:miter;stroke-miterlimit:10;stroke-dasharray:none;stroke-opacity:1"
           x="0 14.28 20.112 33.240002 45.240002 58.200001 71.040001 76.68 90 101.64 114.12 119.88 125.64"
           y="0"
           sodipodi:role="line"
           id="tspan5">Zinkhalbzelle</tspan></text>
    </g>
    <g
       id="g6">
      <g
         id="g8"
         clip-path="url(#clipPath9)">
        <path
           d="m 5.8434,10.372 c -2.5171,0 -4.5575,-2.0401 -4.5575,-4.5571 0,-2.517 2.0404,-4.5575 4.5575,-4.5575 2.517,0 4.5576,2.0405 4.5576,4.5575 0,1e-4 0,2e-4 0,4e-4 10e-4,2.5159 -2.0382,4.5567 -4.5542,4.5567 -0.0011,0 -0.0023,0 -0.0034,0 z M 7.9576,5.4092 H 3.7291 v 0.8112 h 4.2285 z"
           style="fill:#0070c0;fill-opacity:1;fill-rule:nonzero;stroke:none"
           transform="matrix(5.0177107,3.1045196e-6,-3.1046201e-6,-5.0178732,323,148.24)"
           clip-path="url(#clipPath7)"
           id="path8" />
      </g>
    </g>
    <g
       id="g9">
      <path
         id="path10"
         d="m 241.41,144.4 h 109.72 c 15.15,0 27.43,12.28 27.43,27.43 V 340.86 H 213.99 V 171.83 c 0,-15.15 12.28,-27.43 27.42,-27.43 z"
         style="fill:#bfbfbf;fill-opacity:0.4902;fill-rule:evenodd;stroke:#bfbfbf;stroke-width:6;stroke-linecap:butt;stroke-linejoin:miter;stroke-miterlimit:10;stroke-dasharray:none;stroke-opacity:1"
         transform="matrix(1.3333333,0,0,-1.3333333,0,720)" />
    </g>
    <g
       id="g10">
      <path
         id="path11"
         d="m 239.31,204.79 h 50.625 V 362.25 H 239.31 Z"
         style="fill:#498ea7;fill-opacity:1;fill-rule:evenodd;stroke:#595959;stroke-width:4.5;stroke-linecap:butt;stroke-linejoin:miter;stroke-miterlimit:10;stroke-dasharray:none;stroke-opacity:1"
         transform="matrix(1.3333333,0,0,-1.3333333,0,720)" />
    </g>
    <g
       id="g11">
      <path
         id="path12"
         d="m 241.41,147.4 h 109.72 c 13.4,0 24.27,10.86 24.27,24.27 V 287.25 H 217.15 V 171.67 c 0,-13.41 10.86,-24.27 24.26,-24.27 z"
         style="fill:#498ea7;fill-opacity:0.49804;fill-rule:evenodd;stroke:none"
         transform="matrix(1.3333333,0,0,-1.3333333,0,720)" />
    </g>
    <g
       id="g12">
      <path
         id="path13"
         d="m 462.97,144.4 h 109.72 c 15.14,0 27.42,12.28 27.42,27.43 V 340.86 H 435.54 V 171.83 c 0,-15.15 12.28,-27.43 27.43,-27.43 z"
         style="fill:#bfbfbf;fill-opacity:0.4902;fill-rule:evenodd;stroke:#bfbfbf;stroke-width:6;stroke-linecap:butt;stroke-linejoin:miter;stroke-miterlimit:10;stroke-dasharray:none;stroke-opacity:1"
         transform="matrix(1.3333333,0,0,-1.3333333,0,720)" />
    </g>
    <g
       id="g13">
      <path
         id="path14"
         d="m 527.49,204.79 h 50.625 V 362.25 H 527.49 Z"
         style="fill:#8e3e66;fill-opacity:1;fill-rule:evenodd;stroke:#595959;stroke-width:4.5;stroke-linecap:butt;stroke-linejoin:miter;stroke-miterlimit:10;stroke-dasharray:none;stroke-opacity:1"
         transform="matrix(1.3333333,0,0,-1.3333333,0,720)" />
    </g>
    <g
       id="g14">
      <path
         id="path15"
         d="m 462.97,147.4 h 109.72 c 13.4,0 24.26,10.86 24.26,24.27 V 287.25 H 438.7 V 171.67 c 0,-13.41 10.87,-24.27 24.27,-24.27 z"
         style="fill:#8e3e66;fill-opacity:0.49804;fill-rule:evenodd;stroke:none"
         transform="matrix(1.3333333,0,0,-1.3333333,0,720)" />
    </g>
    <g
       id="g15">
      <path
         id="path16"
         d="m 378.56,414.76 c 0,15.66 12.69,28.35 28.34,28.35 15.66,0 28.35,-12.69 28.35,-28.35 0,-15.66 -12.69,-28.35 -28.35,-28.35 -15.65,0 -28.34,12.69 -28.34,28.35 z"
         style="fill:#bfbfbf;fill-opacity:1;fill-rule:evenodd;stroke:#595959;stroke-width:4.5;stroke-linecap:butt;stroke-linejoin:miter;stroke-miterlimit:10;stroke-dasharray:none;stroke-opacity:1"
         transform="matrix(1.3333333,0,0,-1.3333333,0,720)" />
    </g>
    <g
       id="g16">
      <text
         id="text16"
         xml:space="preserve"
         transform="matrix(1.3333333,0,0,1.3333333,527.45333,182.88)"
         clip-path="url(#clipPath17)"><tspan
           style="font-variant:normal;font-weight:normal;font-size:36px;font-family:Roboto;writing-mode:lr-tb;fill:#ffffff;fill-opacity:1;fill-rule:nonzero;stroke:#ffffff;stroke-width:1.0286;stroke-linecap:butt;stroke-linejoin:miter;stroke-miterlimit:10;stroke-dasharray:none;stroke-opacity:1"
           x="0"
           y="0"
           id="tspan16">V</tspan></text>
    </g>
    <g
       id="g17">
      <text
         id="text17"
         xml:space="preserve"
         transform="matrix(1.3333333,0,0,1.3333333,571.54667,221.62667)"
         clip-path="url(#clipPath18)"><tspan
           style="font-variant:normal;font-weight:normal;font-size:18px;font-family:Roboto;writing-mode:lr-tb;fill:#00b0f0;fill-opacity:1;fill-rule:nonzero;stroke:#00b0f0;stroke-width:0.51429;stroke-linecap:butt;stroke-linejoin:miter;stroke-miterlimit:10;stroke-dasharray:none;stroke-opacity:1"
           x="0 11.664 15.84 20.268 30.204 34.181999"
           y="0"
           sodipodi:role="line"
           id="tspan17">U in V</tspan></text>
    </g>
    <g
       id="g18">
      <g
         id="g20"
         clip-path="url(#clipPath21)">
        <path
           d="m 5.8434,10.372 c -2.5171,0 -4.5575,-2.0401 -4.5575,-4.5571 0,-2.517 2.0404,-4.5575 4.5575,-4.5575 2.517,0 4.5576,2.0405 4.5576,4.5575 0,2e-4 0,3e-4 0,5e-4 10e-4,2.5159 -2.0381,4.5566 -4.554,4.5566 -0.0012,0 -0.0024,0 -0.0036,0 z M 8.0776,5.4092 H 6.2491 V 3.5811 H 5.4376 V 5.4097 H 3.6091 V 6.2211 H 5.4376 V 8.0497 H 6.2491 V 6.2211 h 1.8285 z"
           style="fill:#c00000;fill-opacity:1;fill-rule:nonzero;stroke:none"
           transform="matrix(5.0097229,3.1045196e-6,-6.2092403e-6,-5.0098852,707.29333,148.24)"
           clip-path="url(#clipPath19)"
           id="path20" />
      </g>
    </g>
    <g
       id="g21">
      <text
         id="text21"
         xml:space="preserve"
         transform="matrix(1.3333333,0,0,1.3333333,401.76,404.25333)"
         clip-path="url(#clipPath22)"><tspan
           style="font-variant:normal;font-weight:normal;font-size:18px;font-family:Roboto;writing-mode:lr-tb;fill:#00b0f0;fill-opacity:1;fill-rule:nonzero;stroke:#00b0f0;stroke-width:0.51429;stroke-linecap:butt;stroke-linejoin:miter;stroke-miterlimit:10;stroke-dasharray:none;stroke-opacity:1"
           x="0 10.824"
           y="0"
           sodipodi:role="line"
           id="tspan21">Zn</tspan></text>
    </g>
  </g>
</svg>
