<?xml version="1.0" encoding="UTF-8" standalone="no"?>
<!-- Created with Inkscape (http://www.inkscape.org/) -->

<svg
   version="1.1"
   id="svg1"
   width="522.54688"
   height="361.22656"
   viewBox="0 0 522.54688 361.22658"
   sodipodi:docname="page1.pdf"
   xmlns:inkscape="http://www.inkscape.org/namespaces/inkscape"
   xmlns:sodipodi="http://sodipodi.sourceforge.net/DTD/sodipodi-0.dtd"
   xmlns="http://www.w3.org/2000/svg"
   xmlns:svg="http://www.w3.org/2000/svg">
  <defs
     id="defs1">
    <clipPath
       clipPathUnits="userSpaceOnUse"
       id="clipPath37">
      <path
         d="M 7.629e-6,841.92 H 595.32 V 1.2207e-4 L 7.629e-6,6.1035e-5"
         clip-rule="evenodd"
         id="path37" />
    </clipPath>
    <clipPath
       clipPathUnits="userSpaceOnUse"
       id="clipPath39">
      <path
         d="m 84.984,733.78 h 79.8 v 26.544 h -79.8 z"
         transform="matrix(1,0,0,-1,-92.184002,747.10002)"
         clip-rule="evenodd"
         id="path39" />
    </clipPath>
    <clipPath
       clipPathUnits="userSpaceOnUse"
       id="clipPath41">
      <path
         d="m 84.984,733.78 h 79.8 v 26.544 h -79.8 z"
         transform="matrix(1,0,0,-1,-129.13728,747.10002)"
         clip-rule="evenodd"
         id="path41" />
    </clipPath>
    <clipPath
       clipPathUnits="userSpaceOnUse"
       id="clipPath44">
      <path
         d="m 388.87,474.91 h 105.38 v 26.4 H 388.87 Z"
         transform="matrix(1,0,0,-1,-396.07001,488.11001)"
         clip-rule="evenodd"
         id="path44" />
    </clipPath>
    <clipPath
       clipPathUnits="userSpaceOnUse"
       id="clipPath49">
      <path
         d="m 127.58,642.1 h 80.664 v 44.88 H 127.58 Z"
         transform="matrix(1,0,0,-1,-134.66001,673.78001)"
         clip-rule="evenodd"
         id="path49" />
    </clipPath>
    <clipPath
       clipPathUnits="userSpaceOnUse"
       id="clipPath51">
      <path
         d="m 127.58,642.1 h 80.664 v 44.88 H 127.58 Z"
         transform="matrix(1,0,0,-1,-171.14001,673.78001)"
         clip-rule="evenodd"
         id="path51" />
    </clipPath>
    <clipPath
       clipPathUnits="userSpaceOnUse"
       id="clipPath53">
      <path
         d="m 127.58,642.1 h 80.664 v 44.88 H 127.58 Z"
         transform="matrix(1,0,0,-1,-134.66001,655.30001)"
         clip-rule="evenodd"
         id="path53" />
    </clipPath>
    <clipPath
       clipPathUnits="userSpaceOnUse"
       id="clipPath56">
      <path
         d="m 382.87,577.54 h 102.62 v 44.88 H 382.87 Z"
         transform="matrix(1,0,0,-1,-390.07001,609.22001)"
         clip-rule="evenodd"
         id="path56" />
    </clipPath>
    <clipPath
       clipPathUnits="userSpaceOnUse"
       id="clipPath58">
      <path
         d="m 382.87,577.54 h 102.62 v 44.88 H 382.87 Z"
         transform="matrix(1,0,0,-1,-472.54001,609.22001)"
         clip-rule="evenodd"
         id="path58" />
    </clipPath>
    <clipPath
       clipPathUnits="userSpaceOnUse"
       id="clipPath60">
      <path
         d="m 382.87,577.54 h 102.62 v 44.88 H 382.87 Z"
         transform="matrix(1,0,0,-1,-390.07001,590.86001)"
         clip-rule="evenodd"
         id="path60" />
    </clipPath>
    <clipPath
       clipPathUnits="userSpaceOnUse"
       id="clipPath62">
      <path
         d="m 222.89,569.62 h 89.52 v 44.88 h -89.52 z"
         transform="matrix(1,0,0,-1,-230.09001,601.30001)"
         clip-rule="evenodd"
         id="path62" />
    </clipPath>
    <clipPath
       clipPathUnits="userSpaceOnUse"
       id="clipPath64">
      <path
         d="m 222.89,569.62 h 89.52 v 44.88 h -89.52 z"
         transform="matrix(1,0,0,-1,-282.77001,601.30001)"
         clip-rule="evenodd"
         id="path64" />
    </clipPath>
    <clipPath
       clipPathUnits="userSpaceOnUse"
       id="clipPath66">
      <path
         d="m 222.89,569.62 h 89.52 v 44.88 h -89.52 z"
         transform="matrix(1,0,0,-1,-230.09001,582.82001)"
         clip-rule="evenodd"
         id="path66" />
    </clipPath>
  </defs>
  <sodipodi:namedview
     id="namedview1"
     pagecolor="#505050"
     bordercolor="#eeeeee"
     borderopacity="1"
     inkscape:showpageshadow="0"
     inkscape:pageopacity="0"
     inkscape:pagecheckerboard="0"
     inkscape:deskcolor="#505050">
    <inkscape:page
       x="0"
       y="0"
       inkscape:label="1"
       id="page1"
       width="522.54688"
       height="361.22659"
       margin="0"
       bleed="0" />
  </sodipodi:namedview>
  <g
     id="g1"
     inkscape:groupmode="layer"
     inkscape:label="1"
     transform="translate(-124.37891,-113.97265)">
    <g
       id="g2" />
    <g
       id="g3" />
    <g
       id="g4" />
    <g
       id="g5" />
    <g
       id="g6" />
    <g
       id="g7" />
    <g
       id="g8" />
    <g
       id="g9" />
    <g
       id="g10" />
    <g
       id="g11" />
    <g
       id="g12" />
    <g
       id="g13" />
    <g
       id="g14" />
    <g
       id="g15" />
    <g
       id="g16" />
    <g
       id="g17" />
    <g
       id="g18" />
    <g
       id="g19" />
    <g
       id="g20" />
    <g
       id="g21" />
    <g
       id="g22" />
    <g
       id="g23" />
    <g
       id="g24" />
    <g
       id="g25" />
    <g
       id="g26" />
    <g
       id="g27" />
    <g
       id="g28" />
    <g
       id="g29" />
    <g
       id="g30">
      <path
         id="path30"
         d="m 108.5,554.42 345,-0.5"
         style="fill:none;stroke:#ffc000;stroke-width:3;stroke-linecap:butt;stroke-linejoin:miter;stroke-miterlimit:10;stroke-dasharray:12, 9;stroke-dashoffset:0;stroke-opacity:1"
         transform="matrix(1.3333333,0,0,-1.3333333,0,1122.56)" />
    </g>
    <g
       id="g31">
      <path
         id="path31"
         d="m 107,709.92 345,-0.5"
         style="fill:none;stroke:#ffc000;stroke-width:3;stroke-linecap:butt;stroke-linejoin:miter;stroke-miterlimit:10;stroke-dasharray:12, 9;stroke-dashoffset:0;stroke-opacity:1"
         transform="matrix(1.3333333,0,0,-1.3333333,0,1122.56)" />
    </g>
    <g
       id="g32">
      <path
         id="path32"
         d="m 106.5,630.92 345,-0.5"
         style="fill:none;stroke:#ffc000;stroke-width:3;stroke-linecap:butt;stroke-linejoin:miter;stroke-miterlimit:10;stroke-dasharray:12, 9;stroke-dashoffset:0;stroke-opacity:1"
         transform="matrix(1.3333333,0,0,-1.3333333,0,1122.56)" />
    </g>
    <g
       id="g33" />
    <g
       id="g34">
      <path
         id="path34"
         d="m 205.15,630.57 v 65.5 h -4.5 v -65.5 z m 4.5,63.25 -6.75,13.5 -6.75,-13.5 z"
         style="fill:#e97132;fill-opacity:1;fill-rule:nonzero;stroke:none"
         transform="matrix(1.3333333,0,0,-1.3333333,0,1122.56)" />
      <path
         id="path35"
         d="m 108.5,517.42 v 206 h -6 v -206 z m 6,203 -9,18 -9,-18 z"
         style="fill:#a02b93;fill-opacity:1;fill-rule:nonzero;stroke:none"
         transform="matrix(1.3333333,0,0,-1.3333333,0,1122.56)" />
      <path
         id="path36"
         d="m 103.6,516.37 h 339.3 v 6 H 103.6 Z m 336.3,-6 18,9 -18,9 z"
         style="fill:#a02b93;fill-opacity:1;fill-rule:nonzero;stroke:none"
         transform="matrix(1.3333333,0,0,-1.3333333,0,1122.56)"
         clip-path="url(#clipPath37)" />
    </g>
    <g
       id="g37">
      <path
         id="path38"
         d="M 1.1001797,-6.640625e-4 V -9.2233203 h 6.1875 v 1.59375 H 3.0337734 v 2.1445312 h 3.8554688 v 1.546875 H 3.0337734 v 2.34375 h 4.2539063 v 1.5937500375 z m 7.9160156,0 V -6.6920703 h 1.7460937 l 0.03516,0.9960937 c 0.225586,-0.28125 0.518555,-0.5302734 0.878907,-0.75 0.366211,-0.2255859 0.84375,-0.3398437 1.429687,-0.3398437 0.679688,0 1.207031,0.2080078 1.582031,0.6210937 0.375,0.4160157 0.5625,1.0195313 0.5625,1.8164063 V -6.640625e-4 H 13.457602 V -4.1256641 c 0,-0.2402343 -0.03516,-0.4511718 -0.105469,-0.6328125 -0.07031,-0.1787109 -0.181641,-0.3193359 -0.328125,-0.421875 -0.149414,-0.099609 -0.345703,-0.1523437 -0.585938,-0.1523437 -0.360351,0 -0.667968,0.087891 -0.925781,0.2578125 -0.257812,0.1640625 -0.486328,0.3691406 -0.679687,0.609375 v 4.4648437375 z m 10.9892577,0 c -0.679687,0 -1.207031,-0.0820312475 -1.582031,-0.2460937475 -0.369141,-0.1640625 -0.626953,-0.41308594 -0.773438,-0.75 C 17.509359,-1.3395312 17.439047,-1.7848437 17.439047,-2.3326953 v -2.9648438 h -1.113281 v -1.3945312 h 1.113281 v -1.5703125 h 1.816406 v 1.5703125 h 1.453125 v 1.3945312 h -1.453125 v 2.859375 c 0,0.3515625 0.04687,0.6152344 0.140625,0.7851563 0.09961,0.1640625 0.322266,0.2460937 0.667969,0.2460937 h 0.644531 v 1.4062500375 z m 2.124024,0 V -9.2233203 h 1.78125 v 3.5273437 c 0.225586,-0.28125 0.518554,-0.5302734 0.878906,-0.75 0.366211,-0.2255859 0.83789,-0.3398437 1.417969,-0.3398437 0.694336,0 1.224609,0.2080078 1.59375,0.6210937 0.375,0.4072266 0.5625,1.0136719 0.5625,1.8164063 V -6.640625e-4 H 26.547445 V -4.1256641 c 0,-0.2402343 -0.03516,-0.4511718 -0.105468,-0.6328125 -0.06445,-0.1787109 -0.169922,-0.3193359 -0.316407,-0.421875 -0.140625,-0.099609 -0.333984,-0.1523437 -0.574218,-0.1523437 -0.360352,0 -0.667969,0.087891 -0.925782,0.2578125 -0.257812,0.1640625 -0.486328,0.3691406 -0.679687,0.609375 V -6.640625e-4 Z M 32.087484,0.11652344 c -0.383789,0 -0.738281,-0.0703125 -1.066406,-0.2109375 -0.328125,-0.14648438 -0.594726,-0.36914063 -0.796875,-0.66796875 -0.205078,-0.29589839 -0.304687,-0.66796879 -0.304687,-1.11328129 0,-0.6152343 0.18164,-1.0810546 0.550781,-1.3945312 0.375,-0.3105469 0.893555,-0.5214844 1.558594,-0.6328125 0.662109,-0.1083984 1.435547,-0.1757813 2.320312,-0.1992188 v -0.3515625 c 0,-0.4365234 -0.105469,-0.7324218 -0.316406,-0.890625 -0.210938,-0.1640625 -0.480469,-0.2460937 -0.808594,-0.2460937 -0.360351,0 -0.65625,0.087891 -0.890625,0.2578125 -0.234375,0.1728516 -0.351562,0.4511719 -0.351562,0.8320312 h -1.699219 c 0,-0.5683593 0.123047,-1.0195312 0.375,-1.3476562 0.249023,-0.3339844 0.591797,-0.5771484 1.03125,-0.7265625 0.445312,-0.1464844 0.955078,-0.2226563 1.535156,-0.2226563 0.427735,0 0.820313,0.035156 1.171875,0.1054688 0.351563,0.070312 0.65625,0.1962891 0.914063,0.375 0.257812,0.1728516 0.457031,0.4101562 0.597656,0.7148437 0.140625,0.2988282 0.210937,0.6679688 0.210937,1.1132813 V -6.640625e-4 H 34.419516 L 34.360922,-0.86785156 c -0.28125,0.32226562 -0.609375,0.56835937 -0.984375,0.73828125 -0.375,0.1640625 -0.805664,0.24609375 -1.289063,0.24609375 z m 0.597657,-1.25390624 c 0.333984,0 0.647461,-0.084961 0.9375,-0.2578125 0.295898,-0.1787109 0.530273,-0.3808594 0.703125,-0.609375 v -1.0898438 c -0.960938,0.00879 -1.634766,0.1025391 -2.015625,0.28125 -0.383789,0.1728516 -0.574219,0.4541016 -0.574219,0.84375 0,0.28125 0.08496,0.4921875 0.257812,0.6328125 0.178711,0.1347657 0.410157,0.1992188 0.691407,0.1992188 z m 0,0"
         style="fill:#a02b93;fill-opacity:1;fill-rule:nonzero;stroke:none"
         aria-label="                             Entha"
         transform="matrix(1.3333333,0,0,1.3333333,122.912,126.42667)"
         clip-path="url(#clipPath39)" />
      <path
         id="path40"
         d="m 3.4808841,-6.640625e-4 c -0.6796875,0 -1.2070313,-0.0820312475 -1.5820313,-0.2460937475 -0.3691406,-0.1640625 -0.6269531,-0.41308594 -0.7734375,-0.75 C 0.98479031,-1.3395312 0.91447781,-1.7848437 0.91447781,-2.3326953 v -6.890625 H 2.7191653 v 6.7851562 c 0,0.3515625 0.046875,0.609375 0.140625,0.7734375 0.099609,0.1640625 0.328125,0.2460938 0.6796875,0.2460938 h 0.421875 V -6.640625e-4 Z M 5.1566653,2.4485547 v -9.140625 h 1.7109375 l 0.1054688,1.0195312 c 0.2490234,-0.3574218 0.5449218,-0.6357421 0.890625,-0.8320312 0.3515625,-0.1933594 0.7617187,-0.2929688 1.2304687,-0.2929688 0.5214844,0 0.9873047,0.1289063 1.3945317,0.3867188 0.404296,0.2519531 0.720703,0.6328125 0.949218,1.1484375 0.234375,0.5097656 0.351563,1.1601562 0.351563,1.9570312 0,0.7734375 -0.125977,1.4150391 -0.375,1.921875 C 11.162525,-0.8825 10.822681,-0.5075 10.394947,-0.25847656 9.9730716,-0.00652344 9.4955325,0.11945313 8.9652591,0.12824219 c -0.4306641,0 -0.8173829,-0.09082031 -1.1601563,-0.26953125 -0.3369141,-0.1875 -0.6152344,-0.4453125 -0.8320312,-0.7734375 V 2.4485547 Z m 3.3632813,-3.7148438 c 0.4511718,0 0.7998046,-0.1757812 1.0429687,-0.5273437 0.2402344,-0.3515625 0.3632813,-0.8613281 0.3632813,-1.5351563 0,-0.703125 -0.1142579,-1.2246093 -0.3398438,-1.5703125 -0.2285156,-0.3427734 -0.5361328,-0.515625 -0.9257812,-0.515625 -0.4160157,0 -0.7705079,0.1171875 -1.0664063,0.3515625 -0.2900391,0.2285157 -0.4980469,0.4775391 -0.6210937,0.75 v 1.9804688 c 0.1464843,0.2900391 0.3515625,0.5390625 0.609375,0.75 0.2636718,0.2109375 0.5771484,0.3164062 0.9375,0.3164062 z M 13.427173,-6.640625e-4 V -6.6920703 h 1.816406 V -6.640625e-4 Z M 14.341236,-7.5709766 c -0.336914,0 -0.594727,-0.082031 -0.773438,-0.2460937 -0.172851,-0.1699219 -0.257812,-0.3808594 -0.257812,-0.6328125 0,-0.2578125 0.08496,-0.46875 0.257812,-0.6328125 0.178711,-0.1699219 0.436524,-0.2578125 0.773438,-0.2578125 0.333984,0 0.588867,0.087891 0.761718,0.2578125 0.178711,0.1640625 0.269532,0.375 0.269532,0.6328125 0,0.2519531 -0.09082,0.4628906 -0.269532,0.6328125 -0.172851,0.1640625 -0.427734,0.2460937 -0.761718,0.2460937 z m 5.888671,7.69921879 c -0.75,0 -1.379882,-0.13476563 -1.886718,-0.41015625 -0.500977,-0.28125 -0.884766,-0.68261719 -1.148438,-1.20703124 -0.257812,-0.5214844 -0.386719,-1.1484375 -0.386719,-1.875 0,-0.7089844 0.123047,-1.3183594 0.375,-1.828125 0.257813,-0.515625 0.632813,-0.9082031 1.125,-1.1835938 0.492188,-0.28125 1.092774,-0.421875 1.804688,-0.421875 0.999023,0 1.787109,0.2929688 2.367187,0.8789063 0.577149,0.5800781 0.867188,1.4121094 0.867188,2.4960937 0,0.055664 -0.0059,0.1289063 -0.01172,0.2226563 0,0.09375 -0.0059,0.1640625 -0.01172,0.2109375 h -4.699218 c 0.0059,0.3134766 0.06152,0.609375 0.164062,0.890625 0.108399,0.2753906 0.28125,0.4921875 0.515625,0.65625 0.234375,0.1640625 0.541992,0.2460937 0.925781,0.2460937 0.389649,0 0.703125,-0.084961 0.9375,-0.2578125 0.240235,-0.1699218 0.363282,-0.4248046 0.363282,-0.7617187 h 1.792968 c -0.02344,0.5244141 -0.169921,0.9609375 -0.433593,1.31249999 -0.257813,0.34570312 -0.615235,0.60351562 -1.066407,0.7734375 -0.454101,0.16992187 -0.984375,0.2578125 -1.59375,0.2578125 z M 18.647876,-4.1373828 h 2.894531 c -0.01758,-0.46875 -0.158203,-0.8144531 -0.421875,-1.0429688 -0.257812,-0.234375 -0.594726,-0.3515625 -1.007812,-0.3515625 -0.416016,0 -0.758789,0.1230469 -1.03125,0.3632813 -0.266602,0.234375 -0.410156,0.5800781 -0.433594,1.03125 z m 0,0"
         style="fill:#a02b93;fill-opacity:1;fill-rule:nonzero;stroke:none"
         aria-label="lpie"
         transform="matrix(1.3333333,0,0,1.3333333,172.18304,126.42667)"
         clip-path="url(#clipPath41)" />
    </g>
    <g
       id="g41" />
    <g
       id="g42">
      <path
         id="path42"
         d="m 314.4,630.72 v -62.45 h -4.5 v 62.45 z m 4.5,-60.2 -6.75,-13.5 -6.75,13.5 z"
         style="fill:#92d050;fill-opacity:1;fill-rule:nonzero;stroke:none"
         transform="matrix(1.3333333,0,0,-1.3333333,0,1122.56)" />
    </g>
    <g
       id="g43">
      <path
         id="path43"
         d="M 1.101875,-4.296875e-4 V -9.2230859 H 4.89875 c 0.5917969,0 1.125,0.082031 1.59375,0.2460937 0.46875,0.1640625 0.8349609,0.4335938 1.1015625,0.8085938 0.2724609,0.375 0.4101563,0.8730468 0.4101563,1.4882812 0,0.5859375 -0.1582032,1.0839844 -0.46875,1.4882813 -0.3134766,0.4072265 -0.7851563,0.6972656 -1.4179688,0.8671875 0.3896484,0.055664 0.6972656,0.1728515 0.9257813,0.3515625 0.234375,0.1816406 0.421875,0.4189453 0.5625,0.7148437 0.1464843,0.2988281 0.28125,0.6621094 0.3984375,1.0898438 l 0.609375,2.1679687125 H 6.5979688 L 6.164375,-1.7816797 C 6.0764844,-2.1859766 5.9710156,-2.5141016 5.8479688,-2.7660547 5.7307813,-3.0238672 5.5696484,-3.2142969 5.3675,-3.3402734 c -0.2050781,-0.1230469 -0.4804687,-0.1875 -0.8320312,-0.1875 h -1.5 V -4.296875e-4 Z M 3.0354688,-5.1215234 h 1.546875 c 0.2958984,0 0.5537109,-0.046875 0.7734375,-0.140625 0.2167968,-0.099609 0.3867187,-0.2460938 0.5039062,-0.4335938 0.1171875,-0.1933594 0.1757813,-0.4277344 0.1757813,-0.703125 0,-0.4042969 -0.1259766,-0.7089844 -0.375,-0.9140625 C 5.4173047,-7.5238672 5.0921094,-7.6293359 4.6878125,-7.6293359 H 3.0354688 Z m 9.9199222,5.24999996 c -0.75,0 -1.379883,-0.13476562 -1.886719,-0.41015625 -0.500977,-0.28125 -0.884766,-0.68261719 -1.1484376,-1.20703121 -0.2578125,-0.5214844 -0.3867188,-1.1484375 -0.3867188,-1.875 0,-0.7089844 0.1230469,-1.3183594 0.375,-1.828125 0.2578124,-0.515625 0.6328124,-0.9082032 1.1250004,-1.1835938 0.492187,-0.28125 1.092773,-0.421875 1.804687,-0.421875 0.999024,0 1.78711,0.2929688 2.367188,0.8789063 0.577148,0.5800781 0.867187,1.4121093 0.867187,2.4960937 0,0.055664 -0.0059,0.1289063 -0.01172,0.2226563 0,0.09375 -0.0059,0.1640625 -0.01172,0.2109375 h -4.699219 c 0.0059,0.3134765 0.06152,0.609375 0.164062,0.890625 0.108399,0.2753906 0.28125,0.4921875 0.515625,0.65625 0.234375,0.1640625 0.541993,0.2460937 0.925782,0.2460937 0.389648,0 0.703125,-0.084961 0.9375,-0.2578125 0.240234,-0.1699219 0.363281,-0.4248047 0.363281,-0.7617187 h 1.792969 c -0.02344,0.524414 -0.169922,0.9609375 -0.433594,1.31249996 -0.257813,0.34570313 -0.615234,0.60351563 -1.066406,0.7734375 -0.454102,0.16992188 -0.984375,0.2578125 -1.59375,0.2578125 z M 11.373359,-4.1371484 h 2.894532 c -0.01758,-0.46875 -0.158203,-0.8144532 -0.421875,-1.0429688 -0.257813,-0.234375 -0.594727,-0.3515625 -1.007813,-0.3515625 -0.416015,0 -0.758789,0.1230469 -1.03125,0.3632813 -0.266601,0.234375 -0.410156,0.5800781 -0.433594,1.03125 z m 8.135743,4.25390621 c -0.383789,0 -0.738282,-0.0703125 -1.066407,-0.2109375 C 18.11457,-0.24066406 17.847969,-0.46332031 17.64582,-0.76214844 17.440742,-1.0580469 17.341133,-1.4301172 17.341133,-1.8754297 c 0,-0.6152344 0.18164,-1.0810547 0.550781,-1.3945312 0.375,-0.3105469 0.893555,-0.5214844 1.558594,-0.6328125 0.662109,-0.1083985 1.435547,-0.1757813 2.320312,-0.1992188 v -0.3515625 c 0,-0.4365234 -0.105468,-0.7324219 -0.316406,-0.890625 -0.210937,-0.1640625 -0.480469,-0.2460937 -0.808594,-0.2460937 -0.360351,0 -0.65625,0.087891 -0.890625,0.2578125 -0.234375,0.1728515 -0.351562,0.4511718 -0.351562,0.8320312 h -1.699219 c 0,-0.5683594 0.123047,-1.0195312 0.375,-1.3476562 0.249024,-0.3339844 0.591797,-0.5771485 1.03125,-0.7265625 0.445313,-0.1464844 0.955078,-0.2226563 1.535156,-0.2226563 0.427735,0 0.820313,0.035156 1.171875,0.1054688 0.351563,0.070312 0.65625,0.196289 0.914063,0.375 0.257812,0.1728515 0.457031,0.4101562 0.597656,0.7148437 0.140625,0.2988281 0.210938,0.6679688 0.210938,1.1132813 V -4.296875e-4 H 21.841133 L 21.782539,-0.86761719 c -0.28125,0.32226563 -0.609375,0.56835938 -0.984375,0.73828125 -0.375,0.1640625 -0.805664,0.24609375 -1.289062,0.24609375 z m 0.597656,-1.25390621 c 0.333984,0 0.647461,-0.084961 0.9375,-0.2578125 0.295898,-0.178711 0.530273,-0.3808594 0.703125,-0.609375 v -1.0898438 c -0.960938,0.00879 -1.634766,0.1025391 -2.015625,0.28125 -0.383789,0.1728516 -0.574219,0.4541016 -0.574219,0.84375 0,0.28125 0.08496,0.4921875 0.257813,0.6328125 0.178711,0.1347656 0.410156,0.1992188 0.691406,0.1992188 z M 25.43,-4.296875e-4 V -9.2230859 h 1.816406 v 5.6132812 l 2.613282,-3.0820312 h 1.96875 l -2.636719,3.0820312 2.835937,3.6093750125 H 29.953438 L 27.246406,-3.5277734 v 3.5273437125 z m 10.356445,0 c -0.679687,0 -1.207031,-0.0820312525 -1.582031,-0.2460937525 -0.369141,-0.1640625 -0.626953,-0.41308594 -0.773437,-0.75 C 33.290352,-1.3392969 33.220039,-1.7846094 33.220039,-2.3324609 v -2.9648438 h -1.113281 v -1.3945312 h 1.113281 v -1.5703125 h 1.816406 v 1.5703125 h 1.453125 v 1.3945312 h -1.453125 v 2.859375 c 0,0.3515625 0.04687,0.6152344 0.140625,0.7851563 0.09961,0.1640625 0.322266,0.2460937 0.667969,0.2460937 h 0.644531 v 1.4062500125 z m 2.124024,0 V -6.6918359 h 1.816406 V -4.296875e-4 Z M 38.824531,-7.5707422 c -0.336914,0 -0.594726,-0.082031 -0.773437,-0.2460937 -0.172852,-0.1699219 -0.257813,-0.3808594 -0.257813,-0.6328125 0,-0.2578125 0.08496,-0.46875 0.257813,-0.6328125 0.178711,-0.1699219 0.436523,-0.2578125 0.773437,-0.2578125 0.333985,0 0.588867,0.087891 0.761719,0.2578125 0.178711,0.1640625 0.269531,0.375 0.269531,0.6328125 0,0.2519531 -0.09082,0.4628906 -0.269531,0.6328125 -0.172852,0.1640625 -0.427734,0.2460937 -0.761719,0.2460937 z m 5.885742,7.67578126 c -0.673828,0 -1.265625,-0.13183594 -1.78125,-0.3984375 -0.509765,-0.27246094 -0.902343,-0.66210937 -1.183593,-1.17187496 -0.275391,-0.515625 -0.410157,-1.1367188 -0.410157,-1.8632813 0,-0.7324219 0.134766,-1.359375 0.410157,-1.875 0.28125,-0.5214844 0.673828,-0.9199219 1.183593,-1.1953125 0.515625,-0.2724609 1.107422,-0.4101562 1.78125,-0.4101562 0.685547,0 1.283204,0.1376953 1.792969,0.4101562 0.506836,0.2753906 0.902344,0.6738281 1.183594,1.1953125 0.287109,0.515625 0.433594,1.1425781 0.433594,1.875 0,0.7265625 -0.146485,1.3476563 -0.433594,1.8632813 -0.28125,0.50976559 -0.676758,0.89941402 -1.183594,1.17187496 -0.509765,0.26660156 -1.107422,0.3984375 -1.792969,0.3984375 z m 0,-1.38281246 c 0.398438,0 0.708985,-0.087891 0.9375,-0.2695313 0.225586,-0.1875 0.386719,-0.4365234 0.480469,-0.75 0.09375,-0.3105469 0.140625,-0.65625 0.140625,-1.03125 0,-0.3808594 -0.04687,-0.7294922 -0.140625,-1.0429687 -0.09375,-0.319336 -0.254883,-0.5742188 -0.480469,-0.7617188 -0.228515,-0.1875 -0.539062,-0.28125 -0.9375,-0.28125 -0.392578,0 -0.697265,0.09375 -0.914062,0.28125 -0.219727,0.1875 -0.375,0.4423828 -0.46875,0.7617188 -0.09375,0.3134765 -0.140625,0.6621093 -0.140625,1.0429687 0,0.375 0.04687,0.7207031 0.140625,1.03125 0.09375,0.3134766 0.249023,0.5625 0.46875,0.75 0.216797,0.1816406 0.521484,0.2695313 0.914062,0.2695313 z m 5.009766,1.2773437125 V -6.6918359 h 1.746094 l 0.03516,0.9960937 c 0.225586,-0.28125 0.518555,-0.5302734 0.878906,-0.75 0.366211,-0.2255859 0.84375,-0.3398437 1.429688,-0.3398437 0.679687,0 1.207031,0.2080078 1.582031,0.6210937 0.375,0.4160156 0.5625,1.0195313 0.5625,1.8164063 V -4.296875e-4 H 54.161445 V -4.1254297 c 0,-0.2402344 -0.03516,-0.4511719 -0.105468,-0.6328125 -0.07031,-0.1787109 -0.181641,-0.3193359 -0.328125,-0.421875 -0.149414,-0.099609 -0.345704,-0.1523437 -0.585938,-0.1523437 -0.360351,0 -0.667969,0.087891 -0.925781,0.2578125 -0.257813,0.1640625 -0.486328,0.3691406 -0.679688,0.609375 V -4.296875e-4 Z M 60.533516,0.12847656 c -0.369141,0 -0.732422,-0.03515625 -1.089844,-0.10546875 -0.351563,-0.0703125 -0.673828,-0.1875 -0.960938,-0.3515625 -0.290039,-0.16992187 -0.521484,-0.3984375 -0.691406,-0.67968751 -0.164062,-0.2871094 -0.246094,-0.6474609 -0.246094,-1.078125 h 1.6875 c 0,0.375 0.128907,0.6386719 0.386719,0.7851563 0.263672,0.140625 0.574219,0.2109375 0.925781,0.2109375 0.342774,0 0.612305,-0.052734 0.808594,-0.1640625 0.19336,-0.1171875 0.292969,-0.3076172 0.292969,-0.5742188 0,-0.2490234 -0.114258,-0.4335937 -0.339844,-0.5507812 -0.228515,-0.1230469 -0.626953,-0.2519532 -1.195312,-0.3867188 -0.477539,-0.1083984 -0.902344,-0.2460937 -1.277344,-0.4101562 -0.369141,-0.1640625 -0.65625,-0.3808594 -0.867188,-0.65625 -0.210937,-0.272461 -0.316406,-0.6269532 -0.316406,-1.0664063 0,-0.3515625 0.07617,-0.6474609 0.234375,-0.890625 0.164063,-0.2402344 0.37793,-0.4365234 0.644531,-0.5859375 0.263672,-0.1464844 0.56543,-0.2519531 0.902344,-0.3164062 0.333985,-0.070312 0.682617,-0.1054688 1.042969,-0.1054688 0.333984,0 0.667969,0.035156 0.996094,0.1054688 0.333984,0.064453 0.632812,0.1757812 0.890625,0.3398437 0.263672,0.1640625 0.474609,0.3837891 0.632812,0.65625 0.164063,0.2753906 0.246094,0.6181641 0.246094,1.03125 h -1.675781 c 0,-0.3427734 -0.111328,-0.5800781 -0.328125,-0.7148437 -0.219727,-0.131836 -0.47461,-0.1992188 -0.761719,-0.1992188 -0.322266,0 -0.571289,0.046875 -0.75,0.140625 -0.181641,0.087891 -0.269531,0.234375 -0.269531,0.4453125 0,0.1259766 0.05273,0.234375 0.164062,0.328125 0.117188,0.09375 0.298828,0.1816406 0.550781,0.2578125 0.257813,0.079102 0.588868,0.1640625 0.996094,0.2578125 0.436524,0.1025391 0.826172,0.234375 1.171875,0.3984375 0.342774,0.1582031 0.612305,0.3720703 0.808594,0.6445313 0.202148,0.2666015 0.304687,0.6152343 0.304687,1.0429687 0,0.3984375 -0.08203,0.7382813 -0.246093,1.0195313 -0.164063,0.28124996 -0.383789,0.50976559 -0.65625,0.67968746 -0.266602,0.17285156 -0.574219,0.29882813 -0.925782,0.375 -0.351562,0.07617188 -0.714843,0.1171875 -1.089843,0.1171875 z M 65.973945,-4.296875e-4 63.86457,-6.6918359 h 1.851563 l 1.289062,4.7226562 1.289063,-4.7226562 h 1.898437 l 1.324219,4.7226562 1.265625,-4.7226562 h 1.722656 L 72.39582,-4.296875e-4 H 70.544258 L 69.184883,-4.8168359 67.825508,-4.296875e-4 Z M 78.340156,0.12847656 c -0.75,0 -1.379883,-0.13476562 -1.886718,-0.41015625 -0.500977,-0.28125 -0.884766,-0.68261719 -1.148438,-1.20703121 -0.257812,-0.5214844 -0.386719,-1.1484375 -0.386719,-1.875 0,-0.7089844 0.123047,-1.3183594 0.375,-1.828125 0.257813,-0.515625 0.632813,-0.9082032 1.125,-1.1835938 0.492188,-0.28125 1.092774,-0.421875 1.804688,-0.421875 0.999023,0 1.787109,0.2929688 2.367187,0.8789063 0.577149,0.5800781 0.867188,1.4121093 0.867188,2.4960937 0,0.055664 -0.0059,0.1289063 -0.01172,0.2226563 0,0.09375 -0.0059,0.1640625 -0.01172,0.2109375 h -4.699218 c 0.0059,0.3134765 0.06152,0.609375 0.164062,0.890625 0.108398,0.2753906 0.28125,0.4921875 0.515625,0.65625 0.234375,0.1640625 0.541992,0.2460937 0.925781,0.2460937 0.389649,0 0.703125,-0.084961 0.9375,-0.2578125 0.240235,-0.1699219 0.363282,-0.4248047 0.363282,-0.7617187 h 1.792968 c -0.02344,0.524414 -0.169922,0.9609375 -0.433593,1.31249996 -0.257813,0.34570313 -0.615235,0.60351563 -1.066407,0.7734375 -0.454101,0.16992188 -0.984375,0.2578125 -1.59375,0.2578125 z M 76.758125,-4.1371484 h 2.894531 c -0.01758,-0.46875 -0.158203,-0.8144532 -0.421875,-1.0429688 -0.257812,-0.234375 -0.594726,-0.3515625 -1.007812,-0.3515625 -0.416016,0 -0.758789,0.1230469 -1.03125,0.3632813 -0.266602,0.234375 -0.410156,0.5800781 -0.433594,1.03125 z m 8.944336,6.7265625 c -0.805664,0 -1.441406,-0.087891 -1.910156,-0.2578125 C 83.323555,2.1675391 82.983711,1.9507422 82.772773,1.6870703 82.567695,1.4204687 82.468086,1.1304297 82.468086,0.81988281 c 0,-0.375 0.178711,-0.703125 0.539062,-0.984375 0.366211,-0.28710937 0.94043,-0.4921875 1.722657,-0.609375 l 0.292968,-0.64453121 h 0.914063 c 1.107422,0 1.916016,0.1523437 2.425781,0.45703121 0.506836,0.3046875 0.761719,0.7734375 0.761719,1.40625 0,0.63867189 -0.292969,1.15429689 -0.878906,1.54687499 -0.585938,0.3984375 -1.435547,0.5976563 -2.542969,0.5976563 z m -0.03516,-1.1484375 c 0.615234,0 1.048828,-0.082031 1.300781,-0.2460938 0.249023,-0.1582031 0.375,-0.3486328 0.375,-0.57421874 0,-0.140625 -0.04394,-0.26367187 -0.128906,-0.36328125 -0.08789,-0.10253906 -0.231446,-0.18164062 -0.433594,-0.234375 -0.205078,-0.05273437 -0.46875,-0.08203125 -0.796875,-0.08203125 h -1.21875 c -0.181641,0.0703125 -0.328125,0.16699219 -0.445313,0.29296875 -0.111328,0.12304688 -0.164062,0.26953125 -0.164062,0.43359375 0,0.1875 0.117187,0.36328124 0.351562,0.52734374 0.240235,0.1640625 0.626954,0.2460938 1.160157,0.2460938 z m -0.914063,-1.59375004 c -0.477539,-0.0527344 -0.867187,-0.15234375 -1.171875,-0.29296875 -0.298828,-0.140625 -0.515625,-0.29882812 -0.65625,-0.48046875 -0.134765,-0.17871096 -0.199219,-0.35742186 -0.199219,-0.53906246 0,-0.28125 0.105469,-0.5185547 0.316407,-0.7148438 0.216797,-0.1933594 0.541992,-0.3632812 0.972656,-0.5039062 l 0.949219,0.3398437 c -0.251953,0.064453 -0.457032,0.1376953 -0.621094,0.2226563 -0.164063,0.079102 -0.246094,0.1816406 -0.246094,0.3046875 0,0.087891 0.04687,0.1611328 0.140625,0.2226562 0.09961,0.055664 0.272461,0.099609 0.515625,0.1289063 0.249024,0.032227 0.588867,0.046875 1.019531,0.046875 z m 0.820313,-1.98046876 c -0.603516,0 -1.119141,-0.1054687 -1.546875,-0.3164062 -0.421875,-0.2167969 -0.744141,-0.5039063 -0.960938,-0.8554688 -0.219726,-0.3515625 -0.328125,-0.7294922 -0.328125,-1.1367187 0,-0.4365235 0.108399,-0.8261719 0.328125,-1.171875 0.225586,-0.3515625 0.553711,-0.6328125 0.984375,-0.84375 0.427735,-0.2109375 0.952149,-0.3164063 1.570313,-0.3164063 0.632812,0 1.154297,0.1054688 1.570312,0.3164063 0.421875,0.2109375 0.732422,0.4921875 0.9375,0.84375 0.210938,0.3457031 0.316406,0.7353515 0.316406,1.171875 0,0.4160156 -0.105468,0.796875 -0.316406,1.1484375 -0.210937,0.3515625 -0.527344,0.6328125 -0.949219,0.84375 -0.421875,0.2109375 -0.958007,0.3164062 -1.605468,0.3164062 z m 0,-1.0898437 c 0.333984,0 0.615234,-0.099609 0.84375,-0.3046875 0.225586,-0.2109375 0.339843,-0.515625 0.339843,-0.9140625 0,-0.421875 -0.105468,-0.7324219 -0.316406,-0.9375 -0.205078,-0.2109375 -0.477539,-0.3164063 -0.820312,-0.3164063 -0.345703,0 -0.629883,0.1113281 -0.855469,0.328125 -0.219727,0.2109375 -0.328125,0.5214844 -0.328125,0.9257813 0,0.3984375 0.111328,0.703125 0.339844,0.9140625 0.234375,0.2050781 0.498047,0.3046875 0.796875,0.3046875 z m 1.910156,-2.53125 -0.527344,-0.6796875 c 0.178711,-0.4746094 0.451172,-0.7998047 0.820313,-0.9726563 0.375,-0.1787109 0.823242,-0.2695312 1.347656,-0.2695312 v 1.3242187 c -0.351563,0 -0.676758,0.035156 -0.972656,0.1054688 -0.298828,0.064453 -0.521485,0.2285156 -0.667969,0.4921875 z m 0,0"
         style="fill:#a02b93;fill-opacity:1;fill-rule:nonzero;stroke:none"
         aria-label=" Reaktionsweg"
         transform="matrix(1.3333333,0,0,1.3333333,528.09333,471.74667)"
         clip-path="url(#clipPath44)" />
    </g>
    <g
       id="g44">
      <path
         id="path45"
         d="m 108.55,631.82 221.95,-1.3"
         style="fill:none;stroke:#ffc000;stroke-width:6;stroke-linecap:butt;stroke-linejoin:miter;stroke-miterlimit:10;stroke-dasharray:none;stroke-opacity:1"
         transform="matrix(1.3333333,0,0,-1.3333333,0,1122.56)" />
    </g>
    <g
       id="g45">
      <path
         id="path46"
         d="m 191.3,709.92 142.5,-0.25"
         style="fill:none;stroke:#ffc000;stroke-width:6;stroke-linecap:butt;stroke-linejoin:miter;stroke-miterlimit:10;stroke-dasharray:none;stroke-opacity:1"
         transform="matrix(1.3333333,0,0,-1.3333333,0,1122.56)" />
    </g>
    <g
       id="g46">
      <path
         id="path47"
         d="m 294.15,554.22 161.2,-1.2"
         style="fill:none;stroke:#ffc000;stroke-width:6;stroke-linecap:butt;stroke-linejoin:miter;stroke-miterlimit:10;stroke-dasharray:none;stroke-opacity:1"
         transform="matrix(1.3333333,0,0,-1.3333333,0,1122.56)" />
    </g>
    <g
       id="g47" />
    <g
       id="g48">
      <path
         id="path48"
         d="m 5.215,0.12953125 c -0.9462891,0 -1.7578125,-0.19335937 -2.4375,-0.5859375 C 2.1036719,-0.84605469 1.5851172,-1.3968359 1.2189063,-2.10875 0.85855469,-2.8177344 0.67984375,-3.6497656 0.67984375,-4.6048437 c 0,-0.9609375 0.17871094,-1.7958985 0.53906255,-2.5078125 C 1.5851172,-7.8216406 2.1036719,-8.3724219 2.7775,-8.765 3.4571875,-9.1546484 4.2687109,-9.3509375 5.215,-9.3509375 c 0.4746094,0 0.9404297,0.064453 1.3945313,0.1875 0.4599609,0.1259766 0.8789062,0.3164063 1.2539062,0.5742188 0.3808594,0.2578125 0.6943359,0.5859375 0.9375,0.984375 0.2490234,0.3984375 0.4013672,0.8671875 0.4570313,1.40625 h -1.96875 C 7.2482031,-6.4944922 7.1427344,-6.7610937 6.9728125,-6.9954687 6.7999609,-7.2298437 6.5626563,-7.4114844 6.2579688,-7.54625 5.9532813,-7.6780859 5.5929297,-7.7454687 5.1798438,-7.7454687 c -0.609375,0 -1.0986329,0.1464843 -1.4648438,0.4335937 -0.3691406,0.2900391 -0.6386719,0.6738281 -0.8085937,1.1484375 -0.1728516,0.46875 -0.2578125,0.9902344 -0.2578125,1.5585938 0,0.5625 0.084961,1.0839843 0.2578125,1.5585937 0.1699218,0.4775391 0.4453125,0.8613281 0.8203125,1.1484375 0.375,0.28125 0.8701171,0.421875 1.4882812,0.421875 0.4599609,0 0.8496094,-0.076172 1.171875,-0.234375 0.3193359,-0.1552734 0.5683594,-0.3691406 0.75,-0.6445312 0.1787109,-0.28125 0.2841797,-0.6035157 0.3164063,-0.9726563 H 5.261875 v -1.5351562 h 4.125 v 0.9375 c 0,0.796875 -0.1640625,1.5 -0.4921875,2.109375 -0.3222656,0.609375 -0.7910156,1.08691401 -1.40625,1.42968745 C 6.8702734,-0.04039062 6.1114844,0.12953125 5.215,0.12953125 Z M 11.053867,6.25e-4 v -6.6914062 h 1.816406 V 6.25e-4 Z m 0.914063,-7.5703125 c -0.336914,0 -0.594727,-0.082031 -0.773438,-0.2460937 -0.172851,-0.1699219 -0.257812,-0.3808594 -0.257812,-0.6328125 0,-0.2578125 0.08496,-0.46875 0.257812,-0.6328125 0.178711,-0.1699219 0.436524,-0.2578125 0.773438,-0.2578125 0.333984,0 0.588867,0.087891 0.761718,0.2578125 0.178711,0.1640625 0.269532,0.375 0.269532,0.6328125 0,0.2519531 -0.09082,0.4628906 -0.269532,0.6328125 -0.172851,0.1640625 -0.427734,0.2460937 -0.761718,0.2460937 z M 17.730625,6.25e-4 c -0.679687,0 -1.207031,-0.08203125 -1.582031,-0.24609375 -0.369141,-0.1640625 -0.626953,-0.41308594 -0.773438,-0.75 C 15.234531,-1.3382422 15.164219,-1.7835547 15.164219,-2.3314062 V -5.29625 h -1.113281 v -1.3945312 h 1.113281 v -1.5703125 h 1.816406 v 1.5703125 H 18.43375 V -5.29625 h -1.453125 v 2.859375 c 0,0.3515625 0.04687,0.6152344 0.140625,0.7851563 0.09961,0.1640625 0.322266,0.2460937 0.667969,0.2460937 h 0.644531 v 1.40625 z m 5.027344,0 c -0.679688,0 -1.207031,-0.08203125 -1.582031,-0.24609375 -0.369141,-0.1640625 -0.626954,-0.41308594 -0.773438,-0.75 C 20.261875,-1.3382422 20.191563,-1.7835547 20.191563,-2.3314062 V -5.29625 h -1.113282 v -1.3945312 h 1.113282 v -1.5703125 h 1.816406 v 1.5703125 h 1.453125 V -5.29625 h -1.453125 v 2.859375 c 0,0.3515625 0.04687,0.6152344 0.140625,0.7851563 0.09961,0.1640625 0.322265,0.2460937 0.667969,0.2460937 h 0.644531 v 1.40625 z m 5.135742,0.12890625 c -0.75,0 -1.379883,-0.13476562 -1.886719,-0.41015625 -0.500976,-0.28125 -0.884765,-0.68261719 -1.148437,-1.2070312 -0.257813,-0.5214844 -0.386719,-1.1484375 -0.386719,-1.875 0,-0.7089844 0.123047,-1.3183594 0.375,-1.828125 0.257812,-0.515625 0.632812,-0.9082032 1.125,-1.1835938 0.492187,-0.28125 1.092773,-0.421875 1.804687,-0.421875 0.999024,0 1.78711,0.2929688 2.367188,0.8789063 0.577148,0.5800781 0.867187,1.4121093 0.867187,2.4960937 0,0.055664 -0.0059,0.1289063 -0.01172,0.2226563 0,0.09375 -0.0059,0.1640625 -0.01172,0.2109375 h -4.699219 c 0.0059,0.3134765 0.06152,0.609375 0.164063,0.890625 0.108398,0.2753906 0.28125,0.4921875 0.515625,0.65625 0.234375,0.1640625 0.541992,0.2460937 0.925781,0.2460937 0.389648,0 0.703125,-0.084961 0.9375,-0.2578125 0.240234,-0.1699219 0.363281,-0.4248047 0.363281,-0.7617187 h 1.792969 c -0.02344,0.524414 -0.169922,0.9609375 -0.433594,1.31249995 -0.257812,0.34570313 -0.615234,0.60351563 -1.066406,0.7734375 -0.454102,0.16992188 -0.984375,0.2578125 -1.59375,0.2578125 z M 26.31168,-4.1360937 h 2.894531 c -0.01758,-0.46875 -0.158203,-0.8144532 -0.421875,-1.0429688 -0.257813,-0.234375 -0.594727,-0.3515625 -1.007813,-0.3515625 -0.416015,0 -0.758789,0.1230469 -1.03125,0.3632813 -0.266601,0.234375 -0.410156,0.5800781 -0.433593,1.03125 z M 32.619297,6.25e-4 v -6.6914062 h 1.746094 l 0.03516,1.1601562 c 0.169922,-0.4042969 0.427734,-0.7148437 0.773437,-0.9257812 0.351563,-0.2167969 0.773438,-0.328125 1.265625,-0.328125 h 0.140625 v 1.5351562 h -0.175781 c -0.27539,0 -0.536133,0.023437 -0.785156,0.070312 -0.243164,0.046875 -0.46582,0.1289063 -0.667969,0.2460938 -0.196289,0.1171875 -0.36914,0.2783203 -0.515625,0.4804687 V 6.25e-4 Z m 0,0"
         style="fill:#e97132;fill-opacity:1;fill-rule:nonzero;stroke:none"
         aria-label=" Gitter"
         transform="matrix(1.3333333,0,0,1.3333333,179.54667,224.18667)"
         clip-path="url(#clipPath49)" />
      <path
         id="path50"
         d="m 0.4928125,-2.6126562 v -1.5351563 h 3.796875 v 1.5351563 z m 0,0"
         style="fill:#e97132;fill-opacity:1;fill-rule:nonzero;stroke:none"
         aria-label="-"
         transform="matrix(1.3333333,0,0,1.3333333,228.18667,224.18667)"
         clip-path="url(#clipPath51)" />
      <path
         id="path52"
         d="m 4.0548438,0.13 c -0.75,0 -1.3798829,-0.13476563 -1.8867188,-0.41015625 -0.5009766,-0.28125 -0.8847656,-0.68261719 -1.1484375,-1.20703125 -0.2578125,-0.5214844 -0.38671875,-1.1484375 -0.38671875,-1.875 0,-0.7089844 0.12304688,-1.3183594 0.37500005,-1.828125 0.2578125,-0.515625 0.6328125,-0.9082031 1.125,-1.1835938 0.4921875,-0.28125 1.0927734,-0.421875 1.8046875,-0.421875 0.9990234,0 1.7871093,0.2929688 2.3671875,0.8789063 0.5771484,0.5800781 0.8671875,1.4121094 0.8671875,2.4960937 0,0.055664 -0.00586,0.1289063 -0.011719,0.2226563 0,0.09375 -0.00586,0.1640625 -0.011719,0.2109375 H 2.449375 c 0.00586,0.3134766 0.061523,0.609375 0.1640625,0.890625 0.1083984,0.2753906 0.28125,0.4921875 0.515625,0.65625 0.234375,0.1640625 0.5419922,0.2460937 0.9257813,0.2460937 0.3896484,0 0.703125,-0.084961 0.9375,-0.2578125 C 5.2325781,-1.6219531 5.355625,-1.8768359 5.355625,-2.21375 H 7.1485938 C 7.1251563,-1.6893359 6.9786719,-1.2528125 6.715,-0.90125 6.4571875,-0.55554688 6.0997656,-0.29773438 5.6485938,-0.1278125 5.1944922,0.04210937 4.6642188,0.13 4.0548438,0.13 Z M 2.4728125,-4.135625 h 2.8945313 c -0.017578,-0.46875 -0.1582032,-0.8144531 -0.421875,-1.0429688 -0.2578125,-0.234375 -0.5947266,-0.3515625 -1.0078125,-0.3515625 -0.4160157,0 -0.7587891,0.1230469 -1.03125,0.3632813 C 2.6398047,-4.9325 2.49625,-4.5867969 2.4728125,-4.135625 Z M 8.7775,0.00109375 V -6.6903125 h 1.746094 l 0.03516,0.9960937 c 0.225586,-0.28125 0.518555,-0.5302734 0.878906,-0.75 0.366211,-0.2255859 0.84375,-0.3398437 1.429688,-0.3398437 0.679687,0 1.207031,0.2080078 1.582031,0.6210937 0.375,0.4160157 0.5625,1.0195313 0.5625,1.8164063 V 0.00109375 H 13.218906 V -4.1239063 c 0,-0.2402343 -0.03516,-0.4511718 -0.105468,-0.6328125 -0.07031,-0.1787109 -0.181641,-0.3193359 -0.328125,-0.421875 -0.149415,-0.099609 -0.345704,-0.1523437 -0.585938,-0.1523437 -0.360352,0 -0.667969,0.087891 -0.925781,0.2578125 -0.257813,0.1640625 -0.486328,0.3691406 -0.679688,0.609375 v 4.46484375 z m 10.989258,0 c -0.679688,0 -1.207031,-0.08203125 -1.582031,-0.24609375 -0.369141,-0.1640625 -0.626954,-0.41308594 -0.773438,-0.75 -0.140625,-0.3427734 -0.210937,-0.7880859 -0.210937,-1.3359375 V -5.2957813 H 16.08707 v -1.3945312 h 1.113282 V -8.260625 h 1.816406 v 1.5703125 h 1.453125 v 1.3945312 h -1.453125 v 2.859375 c 0,0.3515625 0.04687,0.6152344 0.140625,0.7851563 0.09961,0.1640625 0.322265,0.2460937 0.667969,0.2460937 h 0.644531 v 1.40625005 z m 2.126953,0 V -9.2215625 h 1.78125 v 3.5273437 c 0.225586,-0.28125 0.518555,-0.5302734 0.878906,-0.75 0.366211,-0.2255859 0.837891,-0.3398437 1.417969,-0.3398437 0.694336,0 1.224609,0.2080078 1.59375,0.6210937 0.375,0.4072266 0.5625,1.0136719 0.5625,1.8164063 V 0.00109375 H 26.31168 V -4.1239063 c 0,-0.2402343 -0.03516,-0.4511718 -0.105469,-0.6328125 -0.06445,-0.1787109 -0.169922,-0.3193359 -0.316406,-0.421875 -0.140625,-0.099609 -0.333985,-0.1523437 -0.574219,-0.1523437 -0.360352,0 -0.667969,0.087891 -0.925781,0.2578125 -0.257813,0.1640625 -0.486328,0.3691406 -0.679688,0.609375 v 4.46484375 z m 9.955078,0.1171875 c -0.383789,0 -0.738281,-0.0703125 -1.066406,-0.2109375 C 30.454258,-0.23914063 30.187656,-0.46179688 29.985508,-0.760625 29.78043,-1.0565234 29.68082,-1.4285938 29.68082,-1.8739063 c 0,-0.6152343 0.181641,-1.0810546 0.550782,-1.3945312 0.375,-0.3105469 0.893554,-0.5214844 1.558593,-0.6328125 0.66211,-0.1083984 1.435547,-0.1757813 2.320313,-0.1992188 v -0.3515625 c 0,-0.4365234 -0.105469,-0.7324218 -0.316406,-0.890625 -0.210938,-0.1640625 -0.480469,-0.2460937 -0.808594,-0.2460937 -0.360352,0 -0.65625,0.087891 -0.890625,0.2578125 -0.234375,0.1728516 -0.351563,0.4511719 -0.351563,0.8320312 h -1.699218 c 0,-0.5683593 0.123046,-1.0195312 0.375,-1.3476562 0.249023,-0.3339844 0.591796,-0.5771484 1.03125,-0.7265625 0.445312,-0.1464844 0.955078,-0.2226563 1.535156,-0.2226563 0.427734,0 0.820312,0.035156 1.171875,0.1054688 0.351562,0.070312 0.65625,0.1962891 0.914062,0.375 0.257813,0.1728516 0.457032,0.4101562 0.597657,0.7148437 0.140625,0.2988282 0.210937,0.6679688 0.210937,1.1132813 V 0.00109375 H 34.18082 l -0.05859,-0.8671875 c -0.28125,0.32226562 -0.609375,0.56835937 -0.984375,0.73828125 -0.375,0.1640625 -0.805664,0.24609375 -1.289063,0.24609375 z M 32.446445,-1.135625 c 0.333985,0 0.647461,-0.084961 0.9375,-0.2578125 0.295899,-0.1787109 0.530274,-0.3808594 0.703125,-0.609375 v -1.0898438 c -0.960937,0.00879 -1.634765,0.1025391 -2.015625,0.28125 -0.383789,0.1728516 -0.574218,0.4541016 -0.574218,0.84375 0,0.28125 0.08496,0.4921875 0.257812,0.6328125 0.178711,0.1347657 0.410156,0.1992188 0.691406,0.1992188 z m 7.749024,1.13671875 c -0.679688,0 -1.207031,-0.08203125 -1.582031,-0.24609375 C 38.244297,-0.4090625 37.986484,-0.65808594 37.84,-0.995 37.699375,-1.3377734 37.629063,-1.7830859 37.629063,-2.3309375 v -6.890625 h 1.804687 v 6.7851562 c 0,0.3515625 0.04687,0.609375 0.140625,0.7734375 0.09961,0.1640625 0.328125,0.2460938 0.679688,0.2460938 h 0.421875 V 0.00109375 Z M 41.87125,2.4503125 v -9.140625 h 1.710938 l 0.105468,1.0195312 c 0.249024,-0.3574218 0.544922,-0.6357421 0.890625,-0.8320312 0.351563,-0.1933594 0.761719,-0.2929688 1.230469,-0.2929688 0.521484,0 0.987305,0.1289063 1.394531,0.3867188 0.404297,0.2519531 0.720703,0.6328125 0.949219,1.1484375 0.234375,0.5097656 0.351563,1.1601562 0.351563,1.9570312 0,0.7734375 -0.125977,1.4150391 -0.375,1.921875 -0.251954,0.50097661 -0.591797,0.87597661 -1.019532,1.12500005 C 46.687656,-0.00476563 46.210117,0.12121094 45.679844,0.13 c -0.430664,0 -0.817383,-0.09082031 -1.160156,-0.26953125 -0.336915,-0.1875 -0.615235,-0.4453125 -0.832032,-0.7734375 V 2.4503125 Z m 3.363281,-3.7148438 c 0.451172,0 0.799805,-0.1757812 1.042969,-0.5273437 0.240234,-0.3515625 0.363281,-0.8613281 0.363281,-1.5351563 0,-0.703125 -0.114258,-1.2246093 -0.339843,-1.5703125 -0.228516,-0.3427734 -0.536133,-0.515625 -0.925782,-0.515625 -0.416015,0 -0.770508,0.1171875 -1.066406,0.3515625 -0.290039,0.2285157 -0.498047,0.4775391 -0.621094,0.75 v 1.9804688 c 0.146485,0.2900391 0.351563,0.5390625 0.609375,0.75 0.263672,0.2109375 0.577149,0.3164062 0.9375,0.3164062 z m 4.907227,1.26562505 V -6.6903125 h 1.816406 V 0.00109375 Z M 51.05582,-7.5692188 c -0.336914,0 -0.594726,-0.082031 -0.773437,-0.2460937 -0.172852,-0.1699219 -0.257813,-0.3808594 -0.257813,-0.6328125 0,-0.2578125 0.08496,-0.46875 0.257813,-0.6328125 0.178711,-0.1699219 0.436523,-0.2578125 0.773437,-0.2578125 0.333985,0 0.588868,0.087891 0.761719,0.2578125 0.178711,0.1640625 0.269531,0.375 0.269531,0.6328125 0,0.2519531 -0.09082,0.4628906 -0.269531,0.6328125 -0.172851,0.1640625 -0.427734,0.2460937 -0.761719,0.2460937 z M 56.944492,0.13 c -0.75,0 -1.379883,-0.13476563 -1.886719,-0.41015625 -0.500976,-0.28125 -0.884765,-0.68261719 -1.148437,-1.20703125 -0.257813,-0.5214844 -0.386719,-1.1484375 -0.386719,-1.875 0,-0.7089844 0.123047,-1.3183594 0.375,-1.828125 0.257813,-0.515625 0.632813,-0.9082031 1.125,-1.1835938 0.492188,-0.28125 1.092774,-0.421875 1.804688,-0.421875 0.999023,0 1.787109,0.2929688 2.367187,0.8789063 0.577149,0.5800781 0.867188,1.4121094 0.867188,2.4960937 0,0.055664 -0.0059,0.1289063 -0.01172,0.2226563 0,0.09375 -0.0059,0.1640625 -0.01172,0.2109375 h -4.699219 c 0.0059,0.3134766 0.06152,0.609375 0.164063,0.890625 0.108398,0.2753906 0.28125,0.4921875 0.515625,0.65625 0.234375,0.1640625 0.541992,0.2460937 0.925781,0.2460937 0.389649,0 0.703125,-0.084961 0.9375,-0.2578125 0.240235,-0.1699218 0.363281,-0.4248046 0.363281,-0.7617187 h 1.792969 c -0.02344,0.5244141 -0.169922,0.9609375 -0.433594,1.3125 -0.257812,0.34570312 -0.615234,0.60351562 -1.066406,0.7734375 C 58.084141,0.04210937 57.553867,0.13 56.944492,0.13 Z m -1.582031,-4.265625 h 2.894531 c -0.01758,-0.46875 -0.158203,-0.8144531 -0.421875,-1.0429688 -0.257812,-0.234375 -0.594726,-0.3515625 -1.007812,-0.3515625 -0.416016,0 -0.758789,0.1230469 -1.03125,0.3632813 -0.266602,0.234375 -0.410157,0.5800781 -0.433594,1.03125 z m 0,0"
         style="fill:#e97132;fill-opacity:1;fill-rule:nonzero;stroke:none"
         aria-label="enthalpie"
         transform="matrix(1.3333333,0,0,1.3333333,179.54667,248.82667)"
         clip-path="url(#clipPath53)" />
    </g>
    <g
       id="g53" />
    <g
       id="g54">
      <path
         id="path54"
         d="m 383.65,708.62 v -141.8 h -4.5 v 141.8 z m 4.5,-139.55 -6.75,-13.5 -6.75,13.5 z"
         style="fill:#83cbeb;fill-opacity:1;fill-rule:nonzero;stroke:none"
         transform="matrix(1.3333333,0,0,-1.3333333,0,1122.56)" />
    </g>
    <g
       id="g55">
      <path
         id="path55"
         d="M 1.101875,-7.8125e-4 V -9.2234375 h 1.9335938 v 3.5976563 h 4.171875 V -9.2234375 H 9.1409375 V -7.8125e-4 H 7.2073438 V -3.9265625 H 3.0354688 V -7.8125e-4 Z M 11.08918,2.4484375 V 0.98359375 h 0.597656 c 0.272461,0 0.498047,-0.0527344 0.679687,-0.15234375 C 12.545234,0.7375 12.674141,0.57929688 12.753242,0.3625 L 12.905586,-7.8125e-4 10.304023,-6.6921875 h 1.886719 l 1.699219,4.9453125 1.511719,-4.9453125 h 1.828125 L 14.827461,-7.8125e-4 14.581367,0.6671875 c -0.172851,0.46875 -0.375,0.8320313 -0.609375,1.0898438 -0.228515,0.2636718 -0.509765,0.4453125 -0.84375,0.5390625 -0.328125,0.099609 -0.738281,0.1523437 -1.230469,0.1523437 z m 9.333984,-2.33203125 c -0.509766,0 -0.960937,-0.12304687 -1.359375,-0.375 -0.398437,-0.24902344 -0.714844,-0.6328125 -0.949219,-1.14843745 -0.228515,-0.5214844 -0.339843,-1.1865235 -0.339843,-1.9921875 0,-0.7646485 0.123046,-1.397461 0.375,-1.8984375 0.249023,-0.506836 0.585937,-0.881836 1.007812,-1.125 0.421875,-0.2490235 0.896484,-0.375 1.429688,-0.375 0.46875,0 0.867187,0.099609 1.195312,0.2929687 0.333984,0.1875 0.600586,0.4394531 0.796875,0.75 v -3.46875 H 24.39582 V -7.8125e-4 H 22.661445 L 22.579414,-0.95 c -0.234375,0.328125 -0.527344,0.59179688 -0.878906,0.78515625 -0.351563,0.1875 -0.779297,0.28125 -1.277344,0.28125 z m 0.527344,-1.38281245 c 0.380859,0 0.714844,-0.1054688 0.996094,-0.3164063 0.28125,-0.2167969 0.492187,-0.4716797 0.632812,-0.7617187 v -1.9570313 c -0.140625,-0.2958984 -0.339844,-0.5566406 -0.597656,-0.7851562 -0.251953,-0.225586 -0.5625,-0.3398438 -0.9375,-0.3398438 -0.445313,0 -0.793945,0.1757813 -1.042969,0.5273438 -0.251953,0.3457031 -0.375,0.84375 -0.375,1.5 0,0.7265625 0.117188,1.265625 0.351563,1.6171875 0.240234,0.3457031 0.565429,0.515625 0.972656,0.515625 z M 26.27375,-7.8125e-4 V -6.6921875 h 1.746094 l 0.03516,1.1601563 c 0.169922,-0.4042969 0.427734,-0.7148438 0.773438,-0.9257813 0.351562,-0.2167969 0.773437,-0.328125 1.265625,-0.328125 h 0.140625 v 1.5351563 H 30.05891 c -0.27539,0 -0.536133,0.023437 -0.785156,0.070312 -0.243164,0.046875 -0.46582,0.1289062 -0.667969,0.2460937 -0.196289,0.1171875 -0.36914,0.2783203 -0.515625,0.4804688 v 4.45312495 z m 6.629883,0.1171875 c -0.383789,0 -0.738281,-0.0703125 -1.066406,-0.2109375 C 31.509102,-0.24101562 31.2425,-0.46367187 31.040352,-0.7625 c -0.205079,-0.2958984 -0.304688,-0.6679687 -0.304688,-1.1132812 0,-0.6152344 0.181641,-1.0810547 0.550781,-1.3945313 0.375,-0.3105469 0.893555,-0.5214844 1.558594,-0.6328125 0.662109,-0.1083984 1.435547,-0.1757812 2.320313,-0.1992187 v -0.3515625 c 0,-0.4365235 -0.105469,-0.7324219 -0.316407,-0.890625 -0.210937,-0.1640625 -0.480468,-0.2460938 -0.808593,-0.2460938 -0.360352,0 -0.65625,0.087891 -0.890625,0.2578125 -0.234375,0.1728516 -0.351563,0.4511719 -0.351563,0.8320313 h -1.699219 c 0,-0.5683594 0.123047,-1.0195313 0.375,-1.3476563 0.249024,-0.3339844 0.591797,-0.5771484 1.03125,-0.7265625 0.445313,-0.1464844 0.955078,-0.2226562 1.535157,-0.2226562 0.427734,0 0.820312,0.035156 1.171875,0.1054687 0.351562,0.070312 0.65625,0.1962891 0.914062,0.375 0.257813,0.1728516 0.457031,0.4101563 0.597656,0.7148438 0.140625,0.2988281 0.210938,0.6679687 0.210938,1.1132812 v 4.48828125 h -1.699219 l -0.05859,-0.8671875 c -0.28125,0.32226563 -0.609375,0.56835938 -0.984375,0.73828125 -0.375,0.1640625 -0.805664,0.24609375 -1.289062,0.24609375 z M 33.501289,-1.1375 c 0.333984,0 0.647461,-0.084961 0.9375,-0.2578125 0.295899,-0.1787109 0.530274,-0.3808594 0.703125,-0.609375 v -1.0898437 c -0.960937,0.00879 -1.634766,0.102539 -2.015625,0.28125 -0.383789,0.1728515 -0.574219,0.4541015 -0.574219,0.84375 0,0.28125 0.08496,0.4921875 0.257813,0.6328125 0.178711,0.1347656 0.410156,0.1992187 0.691406,0.1992187 z m 8.112305,1.13671875 c -0.679688,0 -1.207031,-0.08203125 -1.582031,-0.24609375 -0.369141,-0.1640625 -0.626954,-0.41308594 -0.773438,-0.75 -0.140625,-0.3427734 -0.210937,-0.7880859 -0.210937,-1.3359375 v -2.9648437 h -1.113282 v -1.3945313 h 1.113282 V -8.2625 h 1.816406 v 1.5703125 h 1.453125 v 1.3945313 h -1.453125 v 2.859375 c 0,0.3515625 0.04687,0.6152343 0.140625,0.7851562 0.09961,0.1640625 0.322265,0.2460938 0.667969,0.2460938 h 0.644531 v 1.40624995 z m 3.881836,0.1171875 c -0.383789,0 -0.738282,-0.0703125 -1.066407,-0.2109375 C 44.100898,-0.24101562 43.834297,-0.46367187 43.632148,-0.7625 43.42707,-1.0583984 43.327461,-1.4304687 43.327461,-1.8757812 c 0,-0.6152344 0.181641,-1.0810547 0.550781,-1.3945313 0.375,-0.3105469 0.893555,-0.5214844 1.558594,-0.6328125 0.662109,-0.1083984 1.435547,-0.1757812 2.320312,-0.1992187 v -0.3515625 c 0,-0.4365235 -0.105468,-0.7324219 -0.316406,-0.890625 -0.210937,-0.1640625 -0.480469,-0.2460938 -0.808594,-0.2460938 -0.360351,0 -0.65625,0.087891 -0.890625,0.2578125 -0.234375,0.1728516 -0.351562,0.4511719 -0.351562,0.8320313 h -1.699219 c 0,-0.5683594 0.123047,-1.0195313 0.375,-1.3476563 0.249024,-0.3339844 0.591797,-0.5771484 1.03125,-0.7265625 0.445313,-0.1464844 0.955078,-0.2226562 1.535156,-0.2226562 0.427735,0 0.820313,0.035156 1.171875,0.1054687 0.351563,0.070312 0.65625,0.1962891 0.914063,0.375 0.257812,0.1728516 0.457031,0.4101563 0.597656,0.7148438 0.140625,0.2988281 0.210938,0.6679687 0.210938,1.1132812 v 4.48828125 h -1.699219 l -0.05859,-0.8671875 c -0.28125,0.32226563 -0.609375,0.56835938 -0.984375,0.73828125 -0.375,0.1640625 -0.805664,0.24609375 -1.289062,0.24609375 z M 46.093086,-1.1375 c 0.333984,0 0.647461,-0.084961 0.9375,-0.2578125 0.295898,-0.1787109 0.530273,-0.3808594 0.703125,-0.609375 v -1.0898437 c -0.960938,0.00879 -1.634766,0.102539 -2.015625,0.28125 -0.383789,0.1728515 -0.574219,0.4541015 -0.574219,0.84375 0,0.28125 0.08496,0.4921875 0.257813,0.6328125 0.178711,0.1347656 0.410156,0.1992187 0.691406,0.1992187 z m 7.989258,1.13671875 c -0.679688,0 -1.207031,-0.08203125 -1.582031,-0.24609375 -0.369141,-0.1640625 -0.626954,-0.41308594 -0.773438,-0.75 -0.140625,-0.3427734 -0.210937,-0.7880859 -0.210937,-1.3359375 v -2.9648437 h -1.113282 v -1.3945313 h 1.113282 V -8.2625 h 1.816406 v 1.5703125 h 1.453125 v 1.3945313 h -1.453125 v 2.859375 c 0,0.3515625 0.04687,0.6152343 0.140625,0.7851562 0.09961,0.1640625 0.322265,0.2460938 0.667969,0.2460938 h 0.644531 v 1.40624995 z m 2.165039,0 V -6.6921875 h 1.816406 v 6.69140625 z m 0.914062,-7.57031245 c -0.336914,0 -0.594726,-0.082031 -0.773437,-0.2460938 C 56.215156,-7.9871094 56.130195,-8.1980469 56.130195,-8.45 c 0,-0.2578125 0.08496,-0.46875 0.257813,-0.6328125 0.178711,-0.1699219 0.436523,-0.2578125 0.773437,-0.2578125 0.333985,0 0.588868,0.087891 0.761719,0.2578125 0.178711,0.1640625 0.269531,0.375 0.269531,0.6328125 0,0.2519531 -0.09082,0.4628906 -0.269531,0.6328125 -0.172851,0.1640625 -0.427734,0.2460938 -0.761719,0.2460938 z m 5.841797,7.6757812 c -0.673828,0 -1.265625,-0.13183594 -1.78125,-0.3984375 -0.509765,-0.27246094 -0.902344,-0.66210937 -1.183594,-1.171875 -0.27539,-0.515625 -0.410156,-1.1367187 -0.410156,-1.8632812 0,-0.7324219 0.134766,-1.359375 0.410156,-1.875 0.28125,-0.5214844 0.673829,-0.9199219 1.183594,-1.1953125 0.515625,-0.272461 1.107422,-0.4101563 1.78125,-0.4101563 0.685547,0 1.283203,0.1376953 1.792969,0.4101563 0.506836,0.2753906 0.902344,0.6738281 1.183594,1.1953125 0.287109,0.515625 0.433593,1.1425781 0.433593,1.875 0,0.7265625 -0.146484,1.3476562 -0.433593,1.8632812 -0.28125,0.50976563 -0.676758,0.89941406 -1.183594,1.171875 -0.509766,0.26660156 -1.107422,0.3984375 -1.792969,0.3984375 z m 0,-1.3828125 c 0.398438,0 0.708985,-0.087891 0.9375,-0.2695312 0.225586,-0.1875 0.386719,-0.4365235 0.480469,-0.75 0.09375,-0.3105469 0.140625,-0.65625 0.140625,-1.03125 0,-0.3808594 -0.04687,-0.7294922 -0.140625,-1.0429688 -0.09375,-0.3193359 -0.254883,-0.5742187 -0.480469,-0.7617187 -0.228515,-0.1875 -0.539062,-0.28125 -0.9375,-0.28125 -0.392578,0 -0.697265,0.09375 -0.914062,0.28125 -0.219727,0.1875 -0.375,0.4423828 -0.46875,0.7617187 -0.09375,0.3134766 -0.140625,0.6621094 -0.140625,1.0429688 0,0.375 0.04687,0.7207031 0.140625,1.03125 0.09375,0.3134765 0.249023,0.5625 0.46875,0.75 0.216797,0.1816406 0.521484,0.2695312 0.914062,0.2695312 z m 5.009766,1.27734375 V -6.6921875 h 1.746094 l 0.03516,0.9960938 c 0.225586,-0.28125 0.518555,-0.5302735 0.878906,-0.75 0.366211,-0.225586 0.84375,-0.3398438 1.429688,-0.3398438 0.679687,0 1.207031,0.2080078 1.582031,0.6210938 0.375,0.4160156 0.5625,1.0195312 0.5625,1.8164062 V -7.8125e-4 H 72.454414 V -4.1257812 c 0,-0.2402344 -0.03516,-0.4511719 -0.105469,-0.6328125 -0.07031,-0.178711 -0.18164,-0.319336 -0.328125,-0.421875 -0.149414,-0.099609 -0.345703,-0.1523438 -0.585937,-0.1523438 -0.360352,0 -0.667969,0.087891 -0.925781,0.2578125 -0.257813,0.1640625 -0.486329,0.3691406 -0.679688,0.609375 V -7.8125e-4 Z M 78.826484,0.128125 c -0.36914,0 -0.732421,-0.03515625 -1.089843,-0.10546875 -0.351563,-0.0703125 -0.673828,-0.1875 -0.960938,-0.3515625 -0.290039,-0.16992187 -0.521484,-0.3984375 -0.691406,-0.67968745 -0.164063,-0.2871094 -0.246094,-0.647461 -0.246094,-1.078125 h 1.6875 c 0,0.375 0.128906,0.6386718 0.386719,0.7851562 0.263672,0.140625 0.574219,0.2109375 0.925781,0.2109375 0.342774,0 0.612305,-0.052734 0.808594,-0.1640625 0.193359,-0.1171875 0.292969,-0.3076172 0.292969,-0.5742187 0,-0.2490235 -0.114258,-0.4335938 -0.339844,-0.5507813 -0.228516,-0.1230469 -0.626953,-0.2519531 -1.195313,-0.3867187 -0.477539,-0.1083985 -0.902343,-0.2460938 -1.277343,-0.4101563 -0.369141,-0.1640625 -0.65625,-0.3808594 -0.867188,-0.65625 -0.210937,-0.2724609 -0.316406,-0.6269531 -0.316406,-1.0664062 0,-0.3515625 0.07617,-0.647461 0.234375,-0.890625 0.164062,-0.2402344 0.37793,-0.4365235 0.644531,-0.5859375 0.263672,-0.1464844 0.56543,-0.2519532 0.902344,-0.3164063 0.333984,-0.070312 0.682617,-0.1054687 1.042969,-0.1054687 0.333984,0 0.667968,0.035156 0.996093,0.1054687 0.333985,0.064453 0.632813,0.1757813 0.890625,0.3398438 0.263672,0.1640625 0.47461,0.383789 0.632813,0.65625 0.164062,0.2753906 0.246094,0.618164 0.246094,1.03125 h -1.675782 c 0,-0.3427735 -0.111328,-0.5800782 -0.328125,-0.7148438 -0.219726,-0.1318359 -0.474609,-0.1992187 -0.761718,-0.1992187 -0.322266,0 -0.571289,0.046875 -0.75,0.140625 -0.181641,0.087891 -0.269532,0.234375 -0.269532,0.4453125 0,0.1259765 0.05274,0.234375 0.164063,0.328125 0.117187,0.09375 0.298828,0.1816406 0.550781,0.2578125 0.257813,0.079101 0.588867,0.1640625 0.996094,0.2578125 0.436523,0.102539 0.826172,0.234375 1.171875,0.3984375 0.342773,0.1582031 0.612305,0.3720703 0.808594,0.6445312 0.202148,0.2666016 0.304687,0.6152344 0.304687,1.0429688 0,0.3984375 -0.08203,0.7382812 -0.246094,1.0195312 -0.164062,0.28125 -0.383789,0.50976563 -0.65625,0.6796875 -0.266601,0.17285156 -0.574218,0.29882813 -0.925781,0.375 -0.351562,0.07617188 -0.714844,0.1171875 -1.089844,0.1171875 z m 0,0"
         style="fill:#83caeb;fill-opacity:1;fill-rule:nonzero;stroke:none"
         aria-label=" Hydratations"
         transform="matrix(1.3333333,0,0,1.3333333,520.09333,310.26667)"
         clip-path="url(#clipPath56)" />
      <path
         id="path57"
         d="M 0.49320313,-2.6140625 V -4.1492187 H 4.2900781 v 1.5351562 z m 0,0"
         style="fill:#83caeb;fill-opacity:1;fill-rule:nonzero;stroke:none"
         aria-label="-"
         transform="matrix(1.3333333,0,0,1.3333333,630.05333,310.26667)"
         clip-path="url(#clipPath58)" />
      <path
         id="path59"
         d="m 4.055,0.12847656 c -0.75,0 -1.3798828,-0.13476562 -1.8867187,-0.41015625 -0.5009766,-0.28125 -0.8847657,-0.68261719 -1.1484375,-1.20703121 -0.25781255,-0.5214844 -0.3867188,-1.1484375 -0.3867188,-1.875 0,-0.7089844 0.12304688,-1.3183594 0.375,-1.828125 0.2578125,-0.515625 0.6328125,-0.9082032 1.125,-1.1835938 0.4921875,-0.28125 1.0927734,-0.421875 1.8046875,-0.421875 0.9990234,0 1.7871094,0.2929688 2.3671875,0.8789063 0.5771484,0.5800781 0.8671875,1.4121093 0.8671875,2.4960937 0,0.055664 -0.00586,0.1289063 -0.011719,0.2226563 0,0.09375 -0.00586,0.1640625 -0.011719,0.2109375 H 2.4495313 c 0.00586,0.3134765 0.061523,0.609375 0.1640625,0.890625 0.1083984,0.2753906 0.28125,0.4921875 0.515625,0.65625 0.234375,0.1640625 0.5419921,0.2460937 0.9257812,0.2460937 0.3896484,0 0.703125,-0.084961 0.9375,-0.2578125 0.2402344,-0.1699219 0.3632813,-0.4248047 0.3632813,-0.7617187 H 7.14875 C 7.1253125,-1.6908594 6.9788281,-1.2543359 6.7151563,-0.90277344 6.4573438,-0.55707031 6.0999219,-0.29925781 5.64875,-0.12933594 5.1946484,0.04058594 4.664375,0.12847656 4.055,0.12847656 Z M 2.4729688,-4.1371484 H 5.3675 C 5.349922,-4.6058984 5.2092969,-4.9516016 4.945625,-5.1801172 4.6878125,-5.4144922 4.3508984,-5.5316797 3.9378125,-5.5316797 c -0.4160156,0 -0.7587891,0.1230469 -1.03125,0.3632813 -0.2666016,0.234375 -0.4101562,0.5800781 -0.4335937,1.03125 z M 8.7776563,-4.296875e-4 V -6.6918359 H 10.52375 l 0.03516,0.9960937 c 0.225586,-0.28125 0.518555,-0.5302734 0.878907,-0.75 0.36621,-0.2255859 0.84375,-0.3398437 1.429687,-0.3398437 0.679688,0 1.207031,0.2080078 1.582031,0.6210937 0.375,0.4160156 0.5625,1.0195313 0.5625,1.8164063 V -4.296875e-4 H 13.219063 V -4.1254297 c 0,-0.2402344 -0.03516,-0.4511719 -0.105469,-0.6328125 -0.07031,-0.1787109 -0.181641,-0.3193359 -0.328125,-0.421875 -0.149414,-0.099609 -0.345703,-0.1523437 -0.585938,-0.1523437 -0.360351,0 -0.667968,0.087891 -0.925781,0.2578125 -0.257812,0.1640625 -0.486328,0.3691406 -0.679687,0.609375 v 4.4648437125 z m 10.9892577,0 c -0.679687,0 -1.207031,-0.0820312525 -1.582031,-0.2460937525 -0.369141,-0.1640625 -0.626953,-0.41308594 -0.773438,-0.75 C 17.27082,-1.3392969 17.200508,-1.7846094 17.200508,-2.3324609 v -2.9648438 h -1.113281 v -1.3945312 h 1.113281 v -1.5703125 h 1.816406 v 1.5703125 h 1.453125 v 1.3945312 h -1.453125 v 2.859375 c 0,0.3515625 0.04687,0.6152344 0.140625,0.7851563 0.09961,0.1640625 0.322266,0.2460937 0.667969,0.2460937 h 0.644531 v 1.4062500125 z m 2.124024,0 V -9.2230859 h 1.78125 v 3.5273437 c 0.225585,-0.28125 0.518554,-0.5302734 0.878906,-0.75 0.366211,-0.2255859 0.83789,-0.3398437 1.417969,-0.3398437 0.694335,0 1.224609,0.2080078 1.59375,0.6210937 0.375,0.4072266 0.5625,1.0136719 0.5625,1.8164063 V -4.296875e-4 H 26.308906 V -4.1254297 c 0,-0.2402344 -0.03516,-0.4511719 -0.105468,-0.6328125 -0.06445,-0.1787109 -0.169922,-0.3193359 -0.316407,-0.421875 -0.140625,-0.099609 -0.333984,-0.1523437 -0.574218,-0.1523437 -0.360352,0 -0.667969,0.087891 -0.925782,0.2578125 -0.257812,0.1640625 -0.486328,0.3691406 -0.679687,0.609375 V -4.296875e-4 Z M 31.848945,0.11675781 c -0.383789,0 -0.738281,-0.0703125 -1.066406,-0.2109375 -0.328125,-0.14648437 -0.594726,-0.36914062 -0.796875,-0.66796875 -0.205078,-0.29589846 -0.304687,-0.66796876 -0.304687,-1.11328126 0,-0.6152344 0.18164,-1.0810547 0.550781,-1.3945312 0.375,-0.3105469 0.893555,-0.5214844 1.558594,-0.6328125 0.662109,-0.1083985 1.435546,-0.1757813 2.320312,-0.1992188 v -0.3515625 c 0,-0.4365234 -0.105469,-0.7324219 -0.316406,-0.890625 -0.210938,-0.1640625 -0.480469,-0.2460937 -0.808594,-0.2460937 -0.360351,0 -0.65625,0.087891 -0.890625,0.2578125 -0.234375,0.1728515 -0.351562,0.4511718 -0.351562,0.8320312 h -1.699219 c 0,-0.5683594 0.123047,-1.0195312 0.375,-1.3476562 0.249023,-0.3339844 0.591797,-0.5771485 1.03125,-0.7265625 0.445312,-0.1464844 0.955078,-0.2226563 1.535156,-0.2226563 0.427734,0 0.820313,0.035156 1.171875,0.1054688 0.351563,0.070312 0.65625,0.196289 0.914063,0.375 0.257812,0.1728515 0.457031,0.4101562 0.597656,0.7148437 0.140625,0.2988281 0.210937,0.6679688 0.210937,1.1132813 V -4.296875e-4 H 34.180977 L 34.122383,-0.86761719 c -0.28125,0.32226563 -0.609375,0.56835938 -0.984375,0.73828125 -0.375,0.1640625 -0.805664,0.24609375 -1.289063,0.24609375 z m 0.597657,-1.25390621 c 0.333984,0 0.647461,-0.084961 0.9375,-0.2578125 0.295898,-0.178711 0.530273,-0.3808594 0.703125,-0.609375 v -1.0898438 c -0.960938,0.00879 -1.634766,0.1025391 -2.015625,0.28125 -0.383789,0.1728516 -0.574219,0.4541016 -0.574219,0.84375 0,0.28125 0.08496,0.4921875 0.257812,0.6328125 0.178711,0.1347656 0.410157,0.1992188 0.691407,0.1992188 z m 7.749023,1.1367187125 c -0.679687,0 -1.207031,-0.0820312525 -1.582031,-0.2460937525 -0.369141,-0.1640625 -0.626953,-0.41308594 -0.773438,-0.75 C 37.699531,-1.3392969 37.629219,-1.7846094 37.629219,-2.3324609 v -6.890625 h 1.804687 v 6.7851562 c 0,0.3515625 0.04687,0.609375 0.140625,0.7734375 0.09961,0.1640625 0.328125,0.2460938 0.679688,0.2460938 h 0.421875 V -4.296875e-4 Z M 41.871406,2.4487891 v -9.140625 h 1.710938 l 0.105469,1.0195312 c 0.249023,-0.3574219 0.544921,-0.6357422 0.890625,-0.8320312 0.351562,-0.1933594 0.761718,-0.2929688 1.230468,-0.2929688 0.521485,0 0.987305,0.1289063 1.394532,0.3867188 0.404296,0.2519531 0.720703,0.6328125 0.949218,1.1484375 0.234375,0.5097656 0.351563,1.1601562 0.351563,1.9570312 0,0.7734375 -0.125977,1.4150391 -0.375,1.921875 -0.251953,0.50097657 -0.591797,0.87597657 -1.019531,1.12500001 -0.421875,0.25195313 -0.899415,0.37792969 -1.429688,0.38671875 -0.430664,0 -0.817383,-0.09082031 -1.160156,-0.26953125 -0.336914,-0.1875 -0.615235,-0.4453125 -0.832031,-0.7734375 V 2.4487891 Z m 3.363282,-3.7148438 c 0.451171,0 0.799804,-0.1757812 1.042968,-0.5273437 0.240235,-0.3515625 0.363282,-0.8613282 0.363282,-1.5351563 0,-0.703125 -0.114258,-1.2246094 -0.339844,-1.5703125 -0.228516,-0.3427734 -0.536133,-0.515625 -0.925781,-0.515625 -0.416016,0 -0.770508,0.1171875 -1.066407,0.3515625 -0.290039,0.2285156 -0.498047,0.4775391 -0.621093,0.75 v 1.9804688 c 0.146484,0.290039 0.351562,0.5390625 0.609375,0.75 0.263671,0.2109375 0.577148,0.3164062 0.9375,0.3164062 z m 4.907226,1.2656250125 V -6.6918359 H 51.95832 V -4.296875e-4 Z M 51.055977,-7.5707422 c -0.336914,0 -0.594727,-0.082031 -0.773438,-0.2460937 -0.172851,-0.1699219 -0.257812,-0.3808594 -0.257812,-0.6328125 0,-0.2578125 0.08496,-0.46875 0.257812,-0.6328125 0.178711,-0.1699219 0.436524,-0.2578125 0.773438,-0.2578125 0.333984,0 0.588867,0.087891 0.761718,0.2578125 0.178711,0.1640625 0.269532,0.375 0.269532,0.6328125 0,0.2519531 -0.09082,0.4628906 -0.269532,0.6328125 -0.172851,0.1640625 -0.427734,0.2460937 -0.761718,0.2460937 z m 5.888671,7.69921876 c -0.75,0 -1.379882,-0.13476562 -1.886718,-0.41015625 -0.500977,-0.28125 -0.884766,-0.68261719 -1.148438,-1.20703121 -0.257812,-0.5214844 -0.386719,-1.1484375 -0.386719,-1.875 0,-0.7089844 0.123047,-1.3183594 0.375,-1.828125 0.257813,-0.515625 0.632813,-0.9082032 1.125,-1.1835938 0.492188,-0.28125 1.092774,-0.421875 1.804688,-0.421875 0.999023,0 1.787109,0.2929688 2.367187,0.8789063 0.577149,0.5800781 0.867188,1.4121093 0.867188,2.4960937 0,0.055664 -0.0059,0.1289063 -0.01172,0.2226563 0,0.09375 -0.0059,0.1640625 -0.01172,0.2109375 H 55.33918 c 0.0059,0.3134765 0.06152,0.609375 0.164062,0.890625 0.108399,0.2753906 0.28125,0.4921875 0.515625,0.65625 0.234375,0.1640625 0.541992,0.2460937 0.925781,0.2460937 0.389649,0 0.703125,-0.084961 0.9375,-0.2578125 0.240235,-0.1699219 0.363282,-0.4248047 0.363282,-0.7617187 h 1.792968 c -0.02344,0.524414 -0.169921,0.9609375 -0.433593,1.31249996 -0.257813,0.34570313 -0.615235,0.60351563 -1.066407,0.7734375 -0.454101,0.16992188 -0.984375,0.2578125 -1.59375,0.2578125 z M 55.362617,-4.1371484 h 2.894531 c -0.01758,-0.46875 -0.158203,-0.8144532 -0.421875,-1.0429688 -0.257812,-0.234375 -0.594726,-0.3515625 -1.007812,-0.3515625 -0.416016,0 -0.758789,0.1230469 -1.03125,0.3632813 -0.266602,0.234375 -0.410156,0.5800781 -0.433594,1.03125 z m 0,0"
         style="fill:#83caeb;fill-opacity:1;fill-rule:nonzero;stroke:none"
         aria-label="enthalpie"
         transform="matrix(1.3333333,0,0,1.3333333,520.09333,334.74667)"
         clip-path="url(#clipPath60)" />
    </g>
    <g
       id="g60" />
    <g
       id="g61">
      <path
         id="path61"
         d="M 1.1004297,0.00109375 V -9.2215625 h 1.9335937 v 7.5351562 h 3.890625 V 0.00109375 Z M 11.307461,0.1065625 c -0.673828,0 -1.265625,-0.13183594 -1.7812501,-0.3984375 C 9.0164453,-0.56433594 8.6238672,-0.95398438 8.3426172,-1.46375 8.0672266,-1.979375 7.9324609,-2.6004688 7.9324609,-3.3270313 c 0,-0.7324218 0.1347657,-1.359375 0.4101563,-1.875 0.28125,-0.5214843 0.6738281,-0.9199218 1.1835937,-1.1953125 C 10.041836,-6.6698047 10.633633,-6.8075 11.307461,-6.8075 c 0.685547,0 1.283203,0.1376953 1.792969,0.4101562 0.506836,0.2753907 0.902343,0.6738282 1.183593,1.1953125 0.28711,0.515625 0.433594,1.1425782 0.433594,1.875 0,0.7265625 -0.146484,1.3476563 -0.433594,1.8632813 -0.28125,0.50976562 -0.676757,0.89941406 -1.183593,1.171875 -0.509766,0.26660156 -1.107422,0.3984375 -1.792969,0.3984375 z m 0,-1.3828125 c 0.398437,0 0.708984,-0.087891 0.9375,-0.2695313 0.225586,-0.1875 0.386719,-0.4365234 0.480469,-0.75 0.09375,-0.3105468 0.140625,-0.65625 0.140625,-1.03125 0,-0.3808593 -0.04687,-0.7294921 -0.140625,-1.0429687 -0.09375,-0.3193359 -0.254883,-0.5742188 -0.480469,-0.7617188 -0.228516,-0.1875 -0.539063,-0.28125 -0.9375,-0.28125 -0.392578,0 -0.697266,0.09375 -0.914063,0.28125 -0.219726,0.1875 -0.375,0.4423829 -0.4687496,0.7617188 -0.09375,0.3134766 -0.140625,0.6621094 -0.140625,1.0429687 0,0.375 0.046875,0.7207032 0.140625,1.03125 0.09375,0.3134766 0.2490236,0.5625 0.4687496,0.75 0.216797,0.1816407 0.521485,0.2695313 0.914063,0.2695313 z m 1.335937,-6.3632813 c -0.234375,0 -0.430664,-0.073242 -0.585937,-0.2226562 -0.158203,-0.1552734 -0.234375,-0.3515625 -0.234375,-0.5859375 0,-0.234375 0.07617,-0.4248047 0.234375,-0.5742188 0.155273,-0.1552734 0.351562,-0.234375 0.585937,-0.234375 0.234375,0 0.427735,0.079102 0.585938,0.234375 0.164062,0.1494141 0.246094,0.3398438 0.246094,0.5742188 0,0.234375 -0.08203,0.4306641 -0.246094,0.5859375 -0.158203,0.1494141 -0.351563,0.2226562 -0.585938,0.2226562 z m -2.625,0 c -0.2343746,0 -0.4335933,-0.073242 -0.5976558,-0.2226562 C 9.2566797,-8.0174609 9.1746484,-8.21375 9.1746484,-8.448125 c 0,-0.234375 0.082031,-0.4248047 0.2460938,-0.5742188 0.1640625,-0.1552734 0.3632812,-0.234375 0.5976558,-0.234375 0.225586,0 0.416016,0.079102 0.574219,0.234375 0.164063,0.1494141 0.246094,0.3398438 0.246094,0.5742188 0,0.234375 -0.08203,0.4306641 -0.246094,0.5859375 -0.158203,0.1494141 -0.348633,0.2226562 -0.574219,0.2226562 z M 18.874844,0.13 c -0.369141,0 -0.732422,-0.03515625 -1.089844,-0.10546875 -0.351562,-0.0703125 -0.673828,-0.1875 -0.960937,-0.3515625 -0.29004,-0.16992188 -0.521485,-0.3984375 -0.691407,-0.67968755 -0.164062,-0.2871093 -0.246093,-0.6474609 -0.246093,-1.078125 h 1.6875 c 0,0.375 0.128906,0.6386719 0.386718,0.7851563 0.263672,0.140625 0.574219,0.2109375 0.925782,0.2109375 0.342773,0 0.612304,-0.052734 0.808593,-0.1640625 0.19336,-0.1171875 0.292969,-0.3076172 0.292969,-0.5742188 0,-0.2490234 -0.114258,-0.4335937 -0.339844,-0.5507812 -0.228515,-0.1230469 -0.626953,-0.2519531 -1.195312,-0.3867188 -0.477539,-0.1083984 -0.902344,-0.2460937 -1.277344,-0.4101562 -0.369141,-0.1640625 -0.65625,-0.3808594 -0.867187,-0.65625 -0.210938,-0.2724609 -0.316407,-0.6269531 -0.316407,-1.0664063 0,-0.3515625 0.07617,-0.6474609 0.234375,-0.890625 0.164063,-0.2402343 0.37793,-0.4365234 0.644532,-0.5859375 0.263671,-0.1464843 0.565429,-0.2519531 0.902343,-0.3164062 0.333985,-0.070312 0.682617,-0.1054688 1.042969,-0.1054688 0.333984,0 0.667969,0.035156 0.996094,0.1054688 0.333984,0.064453 0.632812,0.1757812 0.890625,0.3398437 0.263672,0.1640625 0.474609,0.3837891 0.632812,0.65625 0.164063,0.2753907 0.246094,0.6181641 0.246094,1.03125 h -1.675781 c 0,-0.3427734 -0.111328,-0.5800781 -0.328125,-0.7148437 -0.219727,-0.1318359 -0.47461,-0.1992188 -0.761719,-0.1992188 -0.322266,0 -0.571289,0.046875 -0.75,0.140625 -0.181641,0.087891 -0.269531,0.234375 -0.269531,0.4453125 0,0.1259766 0.05273,0.234375 0.164062,0.328125 0.117188,0.09375 0.298828,0.1816407 0.550782,0.2578125 0.257812,0.079102 0.588867,0.1640625 0.996093,0.2578125 0.436524,0.1025391 0.826172,0.234375 1.171875,0.3984375 0.342774,0.1582032 0.612305,0.3720704 0.808594,0.6445313 0.202148,0.2666016 0.304688,0.6152344 0.304688,1.0429687 0,0.3984375 -0.08203,0.7382813 -0.246094,1.0195313 -0.164063,0.28125 -0.383789,0.50976562 -0.65625,0.6796875 -0.266602,0.17285156 -0.574219,0.29882812 -0.925781,0.375 C 19.613125,0.08898437 19.249844,0.13 18.874844,0.13 Z m 6.457031,-0.03515625 c -0.673828,0 -1.195312,-0.20507813 -1.570312,-0.62109375 -0.369141,-0.421875 -0.550782,-1.0195313 -0.550782,-1.7929688 v -4.3710937 h 1.816407 v 4.1484375 c 0,0.2285156 0.0293,0.4306641 0.09375,0.609375 0.07031,0.1728516 0.17871,0.3105469 0.328125,0.4101562 0.155273,0.09375 0.357421,0.140625 0.609375,0.140625 0.36621,0 0.679687,-0.082031 0.9375,-0.2460937 0.257812,-0.1640625 0.483398,-0.3632813 0.679687,-0.5976563 v -4.4648437 h 1.816406 V 0.00109375 H 27.734219 L 27.710781,-1.0067188 C 27.482266,-0.72546875 27.174648,-0.47058594 26.785,-0.245 26.392422,-0.01648438 25.909023,0.09484375 25.331875,0.09484375 Z m 6.108398,-0.09375 V -6.6903125 h 1.746094 l 0.03516,0.9960937 c 0.225586,-0.28125 0.518555,-0.5302734 0.878907,-0.75 0.366211,-0.2255859 0.84375,-0.3398437 1.429687,-0.3398437 0.679688,0 1.207031,0.2080078 1.582031,0.6210937 0.375,0.4160157 0.5625,1.0195313 0.5625,1.8164063 V 0.00109375 H 35.88168 V -4.1239063 c 0,-0.2402343 -0.03516,-0.4511718 -0.105469,-0.6328125 -0.07031,-0.1787109 -0.181641,-0.3193359 -0.328125,-0.421875 -0.149414,-0.099609 -0.345703,-0.1523437 -0.585938,-0.1523437 -0.360351,0 -0.667968,0.087891 -0.925781,0.2578125 -0.257812,0.1640625 -0.486328,0.3691406 -0.679687,0.609375 V 0.00109375 Z M 42.203945,2.5909375 c -0.805664,0 -1.441406,-0.087891 -1.910156,-0.2578125 C 39.825039,2.1690625 39.485195,1.9522656 39.274258,1.6885937 39.06918,1.4219922 38.96957,1.1319531 38.96957,0.82140625 c 0,-0.375 0.178711,-0.703125 0.539063,-0.984375 0.366211,-0.28710938 0.94043,-0.4921875 1.722656,-0.609375 L 41.524258,-1.416875 h 0.914062 c 1.107422,0 1.916016,0.1523437 2.425782,0.45703125 0.506836,0.3046875 0.761718,0.7734375 0.761718,1.40625 0,0.63867185 -0.292968,1.15429685 -0.878906,1.54687495 -0.585937,0.3984375 -1.435547,0.5976563 -2.542969,0.5976563 z M 42.168789,1.4425 c 0.615234,0 1.048828,-0.082031 1.300781,-0.2460938 0.249024,-0.1582031 0.375,-0.34863276 0.375,-0.5742187 0,-0.140625 -0.04395,-0.26367188 -0.128906,-0.36328125 C 43.627773,0.15636719 43.484219,0.07726562 43.28207,0.02453125 43.076992,-0.02820313 42.81332,-0.0575 42.485195,-0.0575 h -1.21875 C 41.084805,0.0128125 40.93832,0.10949219 40.821133,0.23546875 40.709805,0.35851562 40.65707,0.505 40.65707,0.6690625 c 0,0.1875 0.117188,0.3632812 0.351563,0.5273437 C 41.248867,1.3604687 41.635586,1.4425 42.168789,1.4425 Z m -0.914062,-1.59375 c -0.477539,-0.0527344 -0.867188,-0.15234375 -1.171875,-0.29296875 -0.298829,-0.140625 -0.515625,-0.29882813 -0.65625,-0.48046875 -0.134766,-0.1787109 -0.199219,-0.3574219 -0.199219,-0.5390625 0,-0.28125 0.105469,-0.5185547 0.316406,-0.7148438 0.216797,-0.1933593 0.541992,-0.3632812 0.972656,-0.5039062 l 0.949219,0.3398437 c -0.251953,0.064453 -0.457031,0.1376954 -0.621094,0.2226563 -0.164062,0.079102 -0.246093,0.1816406 -0.246093,0.3046875 0,0.087891 0.04687,0.1611328 0.140625,0.2226562 0.09961,0.055664 0.272461,0.099609 0.515625,0.1289063 0.249023,0.032227 0.588867,0.046875 1.019531,0.046875 z m 0.820312,-1.9804688 c -0.603516,0 -1.119141,-0.1054687 -1.546875,-0.3164062 -0.421875,-0.2167969 -0.744141,-0.5039063 -0.960937,-0.8554688 -0.219727,-0.3515625 -0.328125,-0.7294921 -0.328125,-1.1367187 0,-0.4365234 0.108398,-0.8261719 0.328125,-1.171875 0.225586,-0.3515625 0.553711,-0.6328125 0.984375,-0.84375 0.427734,-0.2109375 0.952148,-0.3164063 1.570312,-0.3164063 0.632813,0 1.154297,0.1054688 1.570313,0.3164063 0.421875,0.2109375 0.732421,0.4921875 0.9375,0.84375 0.210937,0.3457031 0.316406,0.7353516 0.316406,1.171875 0,0.4160156 -0.105469,0.796875 -0.316406,1.1484375 -0.210938,0.3515625 -0.527344,0.6328125 -0.949219,0.84375 -0.421875,0.2109375 -0.958008,0.3164062 -1.605469,0.3164062 z m 0,-1.0898437 c 0.333984,0 0.615234,-0.099609 0.84375,-0.3046875 0.225586,-0.2109375 0.339844,-0.515625 0.339844,-0.9140625 0,-0.421875 -0.105469,-0.7324219 -0.316406,-0.9375 -0.205079,-0.2109375 -0.477539,-0.3164063 -0.820313,-0.3164063 -0.345703,0 -0.629883,0.1113282 -0.855469,0.328125 -0.219726,0.2109375 -0.328125,0.5214844 -0.328125,0.9257813 0,0.3984375 0.111328,0.703125 0.339844,0.9140625 0.234375,0.2050781 0.498047,0.3046875 0.796875,0.3046875 z m 1.910156,-2.53125 L 43.457852,-6.4325 c 0.178711,-0.4746094 0.451171,-0.7998047 0.820312,-0.9726563 0.375,-0.1787109 0.823242,-0.2695312 1.347656,-0.2695312 v 1.3242187 c -0.351562,0 -0.676757,0.035156 -0.972656,0.1054688 -0.298828,0.064453 -0.521484,0.2285156 -0.667969,0.4921875 z M 49.229336,0.13 c -0.369141,0 -0.732422,-0.03515625 -1.089844,-0.10546875 -0.351562,-0.0703125 -0.673828,-0.1875 -0.960937,-0.3515625 -0.290039,-0.16992188 -0.521485,-0.3984375 -0.691407,-0.67968755 -0.164062,-0.2871093 -0.246093,-0.6474609 -0.246093,-1.078125 h 1.6875 c 0,0.375 0.128906,0.6386719 0.386718,0.7851563 0.263672,0.140625 0.574219,0.2109375 0.925782,0.2109375 0.342773,0 0.612304,-0.052734 0.808593,-0.1640625 0.19336,-0.1171875 0.292969,-0.3076172 0.292969,-0.5742188 0,-0.2490234 -0.114258,-0.4335937 -0.339844,-0.5507812 -0.228515,-0.1230469 -0.626953,-0.2519531 -1.195312,-0.3867188 -0.477539,-0.1083984 -0.902344,-0.2460937 -1.277344,-0.4101562 -0.36914,-0.1640625 -0.65625,-0.3808594 -0.867187,-0.65625 -0.210938,-0.2724609 -0.316407,-0.6269531 -0.316407,-1.0664063 0,-0.3515625 0.07617,-0.6474609 0.234375,-0.890625 0.164063,-0.2402343 0.37793,-0.4365234 0.644532,-0.5859375 0.263672,-0.1464843 0.565429,-0.2519531 0.902343,-0.3164062 0.333985,-0.070312 0.682618,-0.1054688 1.042969,-0.1054688 0.333985,0 0.667969,0.035156 0.996094,0.1054688 0.333984,0.064453 0.632812,0.1757812 0.890625,0.3398437 0.263672,0.1640625 0.474609,0.3837891 0.632812,0.65625 0.164063,0.2753907 0.246094,0.6181641 0.246094,1.03125 h -1.675781 c 0,-0.3427734 -0.111328,-0.5800781 -0.328125,-0.7148437 -0.219727,-0.1318359 -0.474609,-0.1992188 -0.761719,-0.1992188 -0.322265,0 -0.571289,0.046875 -0.75,0.140625 -0.18164,0.087891 -0.269531,0.234375 -0.269531,0.4453125 0,0.1259766 0.05273,0.234375 0.164062,0.328125 0.117188,0.09375 0.298829,0.1816407 0.550782,0.2578125 0.257812,0.079102 0.588867,0.1640625 0.996093,0.2578125 0.436524,0.1025391 0.826172,0.234375 1.171875,0.3984375 0.342774,0.1582032 0.612305,0.3720704 0.808594,0.6445313 0.202149,0.2666016 0.304688,0.6152344 0.304688,1.0429687 0,0.3984375 -0.08203,0.7382813 -0.246094,1.0195313 -0.164063,0.28125 -0.383789,0.50976562 -0.65625,0.6796875 -0.266602,0.17285156 -0.574219,0.29882812 -0.925781,0.375 C 49.967617,0.08898437 49.604336,0.13 49.229336,0.13 Z m 0,0"
         style="fill:#92d050;fill-opacity:1;fill-rule:nonzero;stroke:none"
         aria-label=" Lsungs"
         transform="matrix(1.3333333,0,0,1.3333333,306.78667,320.82667)"
         clip-path="url(#clipPath62)" />
      <path
         id="path63"
         d="M 0.49269531,-2.6121875 V -4.1473438 H 4.2895703 v 1.5351563 z m 0,0"
         style="fill:#92d050;fill-opacity:1;fill-rule:nonzero;stroke:none"
         aria-label="-"
         transform="matrix(1.3333333,0,0,1.3333333,377.02667,320.82667)"
         clip-path="url(#clipPath64)" />
      <path
         id="path65"
         d="m 4.0535547,0.12753906 c -0.75,0 -1.3798828,-0.13476562 -1.8867188,-0.41015625 -0.5009765,-0.28125 -0.8847656,-0.68261719 -1.1484375,-1.20703121 -0.25781246,-0.5214844 -0.38671871,-1.1484375 -0.38671871,-1.875 0,-0.7089844 0.12304687,-1.3183594 0.37500001,-1.828125 0.2578125,-0.515625 0.6328125,-0.9082032 1.125,-1.1835938 0.4921875,-0.28125 1.0927734,-0.421875 1.8046875,-0.421875 0.9990234,0 1.7871094,0.2929688 2.3671875,0.8789063 0.5771484,0.5800781 0.8671875,1.4121093 0.8671875,2.4960937 0,0.055664 -0.00586,0.1289063 -0.011719,0.2226563 0,0.09375 -0.00586,0.1640625 -0.011719,0.2109375 H 2.4480859 c 0.00586,0.3134765 0.061523,0.609375 0.1640625,0.890625 0.1083985,0.2753906 0.28125,0.4921875 0.515625,0.65625 0.234375,0.1640625 0.5419922,0.2460937 0.9257813,0.2460937 0.3896484,0 0.703125,-0.084961 0.9375,-0.2578125 0.2402344,-0.1699219 0.3632812,-0.4248047 0.3632812,-0.7617187 h 1.7929688 c -0.023437,0.524414 -0.1699219,0.9609375 -0.4335938,1.31249996 -0.2578125,0.34570313 -0.6152343,0.60351563 -1.0664062,0.7734375 -0.4541016,0.16992188 -0.984375,0.2578125 -1.59375,0.2578125 z M 2.4715234,-4.1380859 h 2.8945313 c -0.017578,-0.46875 -0.1582031,-0.8144532 -0.421875,-1.0429688 -0.2578125,-0.234375 -0.5947266,-0.3515625 -1.0078125,-0.3515625 -0.4160156,0 -0.7587891,0.1230469 -1.03125,0.3632813 -0.2666016,0.234375 -0.4101563,0.5800781 -0.4335938,1.03125 z m 6.3076172,4.13671871 V -6.6927734 h 1.7460934 l 0.03516,0.9960937 c 0.225586,-0.28125 0.518554,-0.5302734 0.878906,-0.75 0.366211,-0.2255859 0.84375,-0.3398437 1.429687,-0.3398437 0.679688,0 1.207032,0.2080078 1.582032,0.6210937 0.375,0.4160156 0.5625,1.0195313 0.5625,1.8164063 v 4.34765621 H 13.220547 V -4.1263672 c 0,-0.2402344 -0.03516,-0.4511719 -0.105469,-0.6328125 -0.07031,-0.1787109 -0.18164,-0.3193359 -0.328125,-0.421875 -0.149414,-0.099609 -0.345703,-0.1523437 -0.585937,-0.1523437 -0.360352,0 -0.667969,0.087891 -0.925782,0.2578125 -0.257812,0.1640625 -0.486328,0.3691406 -0.679687,0.609375 v 4.46484371 z m 10.9892574,0 c -0.679687,0 -1.207031,-0.08203125 -1.582031,-0.24609375 -0.36914,-0.1640625 -0.626953,-0.41308594 -0.773437,-0.75 C 17.272305,-1.3402344 17.201992,-1.7855469 17.201992,-2.3333984 v -2.9648438 h -1.113281 v -1.3945312 h 1.113281 v -1.5703125 h 1.816406 v 1.5703125 h 1.453125 v 1.3945312 h -1.453125 v 2.859375 c 0,0.3515625 0.04687,0.6152344 0.140625,0.7851563 0.09961,0.1640625 0.322266,0.2460937 0.667969,0.2460937 h 0.644531 v 1.40625001 z m 2.124024,0 V -9.2240234 h 1.78125 v 3.5273437 c 0.225586,-0.28125 0.518555,-0.5302734 0.878906,-0.75 0.366211,-0.2255859 0.837891,-0.3398437 1.417969,-0.3398437 0.694336,0 1.224609,0.2080078 1.59375,0.6210937 0.375,0.4072266 0.5625,1.0136719 0.5625,1.8164063 v 4.34765621 H 26.310391 V -4.1263672 c 0,-0.2402344 -0.03516,-0.4511719 -0.105469,-0.6328125 -0.06445,-0.1787109 -0.169922,-0.3193359 -0.316406,-0.421875 -0.140625,-0.099609 -0.333985,-0.1523437 -0.574219,-0.1523437 -0.360352,0 -0.667969,0.087891 -0.925781,0.2578125 -0.257813,0.1640625 -0.486328,0.3691406 -0.679688,0.609375 v 4.46484371 z m 9.958008,0.1171875 c -0.383789,0 -0.738282,-0.0703125 -1.066407,-0.2109375 -0.328125,-0.14648437 -0.594726,-0.36914062 -0.796875,-0.66796875 -0.205078,-0.29589846 -0.304687,-0.66796876 -0.304687,-1.11328126 0,-0.6152344 0.181641,-1.0810547 0.550781,-1.3945312 0.375,-0.3105469 0.893555,-0.5214844 1.558594,-0.6328125 0.662109,-0.1083985 1.435547,-0.1757813 2.320312,-0.1992188 v -0.3515625 c 0,-0.4365234 -0.105468,-0.7324219 -0.316406,-0.890625 -0.210937,-0.1640625 -0.480469,-0.2460937 -0.808594,-0.2460937 -0.360351,0 -0.65625,0.087891 -0.890625,0.2578125 -0.234375,0.1728515 -0.351562,0.4511718 -0.351562,0.8320312 h -1.699219 c 0,-0.5683594 0.123047,-1.0195312 0.375,-1.3476562 0.249024,-0.3339844 0.591797,-0.5771485 1.03125,-0.7265625 0.445313,-0.1464844 0.955078,-0.2226563 1.535156,-0.2226563 0.427735,0 0.820313,0.035156 1.171875,0.1054688 0.351563,0.070312 0.65625,0.196289 0.914063,0.375 0.257812,0.1728515 0.457031,0.4101562 0.597656,0.7148437 0.140625,0.2988281 0.210938,0.6679688 0.210938,1.1132813 v 4.48828121 h -1.699219 l -0.05859,-0.8671875 c -0.28125,0.32226563 -0.609375,0.56835938 -0.984375,0.73828125 -0.375,0.1640625 -0.805664,0.24609375 -1.289062,0.24609375 z m 0.597656,-1.25390621 c 0.333984,0 0.647461,-0.084961 0.9375,-0.2578125 0.295898,-0.178711 0.530273,-0.3808594 0.703125,-0.609375 v -1.0898438 c -0.960938,0.00879 -1.634766,0.1025391 -2.015625,0.28125 -0.383789,0.1728516 -0.574219,0.4541016 -0.574219,0.84375 0,0.28125 0.08496,0.4921875 0.257813,0.6328125 0.178711,0.1347656 0.410156,0.1992188 0.691406,0.1992188 z m 7.746094,1.13671871 c -0.679688,0 -1.207032,-0.08203125 -1.582032,-0.24609375 -0.36914,-0.1640625 -0.626953,-0.41308594 -0.773437,-0.75 C 37.698086,-1.3402344 37.627773,-1.7855469 37.627773,-2.3333984 v -6.890625 h 1.804688 v 6.7851562 c 0,0.3515625 0.04687,0.609375 0.140625,0.7734375 0.09961,0.1640625 0.328125,0.2460938 0.679687,0.2460938 h 0.421875 v 1.41796871 z m 1.675781,2.44921879 v -9.140625 h 1.710937 l 0.105469,1.0195312 c 0.249024,-0.3574219 0.544922,-0.6357422 0.890625,-0.8320312 0.351563,-0.1933594 0.761719,-0.2929688 1.230469,-0.2929688 0.521484,0 0.987305,0.1289063 1.394531,0.3867188 0.404297,0.2519531 0.720703,0.6328125 0.949219,1.1484375 0.234375,0.5097656 0.351562,1.1601562 0.351562,1.9570312 0,0.7734375 -0.125976,1.4150391 -0.375,1.921875 -0.251953,0.50097657 -0.591796,0.87597657 -1.019531,1.12500001 -0.421875,0.25195313 -0.899414,0.37792969 -1.429687,0.38671875 -0.430664,0 -0.817383,-0.09082031 -1.160157,-0.26953125 -0.336914,-0.1875 -0.615234,-0.4453125 -0.832031,-0.7734375 V 2.4478516 Z m 3.363281,-3.7148438 c 0.451172,0 0.799805,-0.1757812 1.042969,-0.5273437 0.240234,-0.3515625 0.363281,-0.8613282 0.363281,-1.5351563 0,-0.703125 -0.114258,-1.2246094 -0.339844,-1.5703125 -0.228515,-0.3427734 -0.536132,-0.515625 -0.925781,-0.515625 -0.416015,0 -0.770508,0.1171875 -1.066406,0.3515625 -0.290039,0.2285156 -0.498047,0.4775391 -0.621094,0.75 v 1.9804688 c 0.146485,0.290039 0.351563,0.5390625 0.609375,0.75 0.263672,0.2109375 0.577149,0.3164062 0.9375,0.3164062 z m 4.907227,1.26562501 V -6.6927734 h 1.816406 v 6.69140621 z m 0.914062,-7.57031251 c -0.336914,0 -0.594726,-0.082031 -0.773437,-0.2460937 -0.172852,-0.1699219 -0.257813,-0.3808594 -0.257813,-0.6328125 0,-0.2578125 0.08496,-0.46875 0.257813,-0.6328125 0.178711,-0.1699219 0.436523,-0.2578125 0.773437,-0.2578125 0.333985,0 0.588867,0.087891 0.761719,0.2578125 0.178711,0.1640625 0.269531,0.375 0.269531,0.6328125 0,0.2519531 -0.09082,0.4628906 -0.269531,0.6328125 -0.172852,0.1640625 -0.427734,0.2460937 -0.761719,0.2460937 z m 5.888672,7.69921876 c -0.75,0 -1.379883,-0.13476562 -1.886719,-0.41015625 -0.500976,-0.28125 -0.884765,-0.68261719 -1.148437,-1.20703121 -0.257813,-0.5214844 -0.386719,-1.1484375 -0.386719,-1.875 0,-0.7089844 0.123047,-1.3183594 0.375,-1.828125 0.257813,-0.515625 0.632813,-0.9082032 1.125,-1.1835938 0.492188,-0.28125 1.092774,-0.421875 1.804688,-0.421875 0.999023,0 1.787109,0.2929688 2.367187,0.8789063 0.577149,0.5800781 0.867188,1.4121093 0.867188,2.4960937 0,0.055664 -0.0059,0.1289063 -0.01172,0.2226563 0,0.09375 -0.0059,0.1640625 -0.01172,0.2109375 h -4.699219 c 0.0059,0.3134765 0.06152,0.609375 0.164063,0.890625 0.108398,0.2753906 0.28125,0.4921875 0.515625,0.65625 0.234375,0.1640625 0.541992,0.2460937 0.925781,0.2460937 0.389649,0 0.703125,-0.084961 0.9375,-0.2578125 0.240235,-0.1699219 0.363281,-0.4248047 0.363281,-0.7617187 h 1.792969 c -0.02344,0.524414 -0.169922,0.9609375 -0.433594,1.31249996 -0.257812,0.34570313 -0.615234,0.60351563 -1.066406,0.7734375 -0.454101,0.16992188 -0.984375,0.2578125 -1.59375,0.2578125 z M 55.361172,-4.1380859 h 2.894531 c -0.01758,-0.46875 -0.158203,-0.8144532 -0.421875,-1.0429688 -0.257812,-0.234375 -0.594726,-0.3515625 -1.007812,-0.3515625 -0.416016,0 -0.758789,0.1230469 -1.03125,0.3632813 -0.266602,0.234375 -0.410157,0.5800781 -0.433594,1.03125 z m 0,0"
         style="fill:#92d050;fill-opacity:1;fill-rule:nonzero;stroke:none"
         aria-label="enthalpie"
         transform="matrix(1.3333333,0,0,1.3333333,306.78667,345.46667)"
         clip-path="url(#clipPath66)" />
    </g>
  </g>
</svg>
