<?xml version="1.0" encoding="UTF-8" standalone="no"?>
<!-- Created with Inkscape (http://www.inkscape.org/) -->

<svg
   version="1.1"
   id="svg1"
   width="570.25018"
   height="380.87906"
   viewBox="0 0 570.25018 380.87906"
   sodipodi:docname="page1.pdf"
   xmlns:inkscape="http://www.inkscape.org/namespaces/inkscape"
   xmlns:sodipodi="http://sodipodi.sourceforge.net/DTD/sodipodi-0.dtd"
   xmlns="http://www.w3.org/2000/svg"
   xmlns:svg="http://www.w3.org/2000/svg">
  <defs
     id="defs1">
    <clipPath
       clipPathUnits="userSpaceOnUse"
       id="clipPath9">
      <path
         d="M 7.629e-6,540 H 960 V 6.1035e-5 H 7.629e-6"
         clip-rule="evenodd"
         id="path9" />
    </clipPath>
    <clipPath
       clipPathUnits="userSpaceOnUse"
       id="clipPath11">
      <path
         d="M 1.4305e-5,0 H 960.00001 V 540 H 1.4305e-5 Z"
         transform="matrix(1,0,0,-1,-75.456002,443.09001)"
         clip-rule="evenodd"
         id="path11" />
    </clipPath>
    <clipPath
       clipPathUnits="userSpaceOnUse"
       id="clipPath14">
      <path
         d="M 1.4305e-5,0 H 960.00001 V 540 H 1.4305e-5 Z"
         transform="matrix(1,0,0,-1,-414.26001,169.68)"
         clip-rule="evenodd"
         id="path14" />
    </clipPath>
    <clipPath
       clipPathUnits="userSpaceOnUse"
       id="clipPath19">
      <path
         d="M 1.4305e-5,0 H 960.00001 V 540 H 1.4305e-5 Z"
         transform="matrix(1,0,0,-1,-132.82,361.13001)"
         clip-rule="evenodd"
         id="path19" />
    </clipPath>
    <clipPath
       clipPathUnits="userSpaceOnUse"
       id="clipPath21">
      <path
         d="M 1.4305e-5,0 H 960.00001 V 540 H 1.4305e-5 Z"
         transform="matrix(1,0,0,-1,-169.3,361.13001)"
         clip-rule="evenodd"
         id="path21" />
    </clipPath>
    <clipPath
       clipPathUnits="userSpaceOnUse"
       id="clipPath23">
      <path
         d="M 1.4305e-5,0 H 960.00001 V 540 H 1.4305e-5 Z"
         transform="matrix(1,0,0,-1,-132.82,344.21001)"
         clip-rule="evenodd"
         id="path23" />
    </clipPath>
    <clipPath
       clipPathUnits="userSpaceOnUse"
       id="clipPath26">
      <path
         d="M 1.4305e-5,0 H 960.00001 V 540 H 1.4305e-5 Z"
         transform="matrix(1,0,0,-1,-417.17001,286.46001)"
         clip-rule="evenodd"
         id="path26" />
    </clipPath>
    <clipPath
       clipPathUnits="userSpaceOnUse"
       id="clipPath28">
      <path
         d="M 1.4305e-5,0 H 960.00001 V 540 H 1.4305e-5 Z"
         transform="matrix(1,0,0,-1,-499.85001,286.46001)"
         clip-rule="evenodd"
         id="path28" />
    </clipPath>
    <clipPath
       clipPathUnits="userSpaceOnUse"
       id="clipPath30">
      <path
         d="M 1.4305e-5,0 H 960.00001 V 540 H 1.4305e-5 Z"
         transform="matrix(1,0,0,-1,-417.17001,269.52001)"
         clip-rule="evenodd"
         id="path30" />
    </clipPath>
    <clipPath
       clipPathUnits="userSpaceOnUse"
       id="clipPath32">
      <path
         d="M 1.4305e-5,0 H 960.00001 V 540 H 1.4305e-5 Z"
         transform="matrix(1,0,0,-1,-243.36001,286.46001)"
         clip-rule="evenodd"
         id="path32" />
    </clipPath>
    <clipPath
       clipPathUnits="userSpaceOnUse"
       id="clipPath34">
      <path
         d="M 1.4305e-5,0 H 960.00001 V 540 H 1.4305e-5 Z"
         transform="matrix(1,0,0,-1,-296.64001,286.46001)"
         clip-rule="evenodd"
         id="path34" />
    </clipPath>
    <clipPath
       clipPathUnits="userSpaceOnUse"
       id="clipPath36">
      <path
         d="M 1.4305e-5,0 H 960.00001 V 540 H 1.4305e-5 Z"
         transform="matrix(1,0,0,-1,-243.36001,269.52001)"
         clip-rule="evenodd"
         id="path36" />
    </clipPath>
  </defs>
  <sodipodi:namedview
     id="namedview1"
     pagecolor="#505050"
     bordercolor="#eeeeee"
     borderopacity="1"
     inkscape:showpageshadow="0"
     inkscape:pageopacity="0"
     inkscape:pagecheckerboard="0"
     inkscape:deskcolor="#505050">
    <inkscape:page
       x="0"
       y="0"
       inkscape:label="1"
       id="page1"
       width="570.25018"
       height="380.87906"
       margin="0"
       bleed="0" />
  </sodipodi:namedview>
  <g
     id="g1"
     inkscape:groupmode="layer"
     inkscape:label="1"
     transform="translate(-101.95132,-116.60366)">
    <g
       id="g2" />
    <g
       id="g3">
      <path
         id="path3"
         d="m 110.77,240.79 364.49,-0.53"
         style="fill:none;stroke:#ffc000;stroke-width:3;stroke-linecap:butt;stroke-linejoin:miter;stroke-miterlimit:10;stroke-dasharray:12, 9;stroke-dashoffset:0;stroke-opacity:1"
         transform="matrix(1.3333333,0,0,-1.3333333,0,720)" />
    </g>
    <g
       id="g4">
      <path
         id="path4"
         d="m 109.19,405.07 364.49,-0.52"
         style="fill:none;stroke:#ffc000;stroke-width:3;stroke-linecap:butt;stroke-linejoin:miter;stroke-miterlimit:10;stroke-dasharray:12, 9;stroke-dashoffset:0;stroke-opacity:1"
         transform="matrix(1.3333333,0,0,-1.3333333,0,720)" />
    </g>
    <g
       id="g5">
      <path
         id="path5"
         d="m 108.66,321.61 364.49,-0.53"
         style="fill:none;stroke:#ffc000;stroke-width:3;stroke-linecap:butt;stroke-linejoin:miter;stroke-miterlimit:10;stroke-dasharray:12, 9;stroke-dashoffset:0;stroke-opacity:1"
         transform="matrix(1.3333333,0,0,-1.3333333,0,720)" />
    </g>
    <g
       id="g6">
      <path
         id="path6"
         d="m 212.76,321.24 v 69.84 h -4.5 v -69.84 z m 4.5,67.59 -6.75,13.5 -6.75,-13.5 z"
         style="fill:#e97132;fill-opacity:1;fill-rule:nonzero;stroke:none"
         transform="matrix(1.3333333,0,0,-1.3333333,0,720)" />
    </g>
    <g
       id="g7">
      <path
         id="path7"
         d="m 110.6,201.7 v 218.48 h -6 V 201.7 Z m 6,215.48 -9,18 -8.996,-18 z"
         style="fill:#a02b93;fill-opacity:1;fill-rule:nonzero;stroke:none"
         transform="matrix(1.3333333,0,0,-1.3333333,0,720)" />
    </g>
    <g
       id="g8">
      <path
         id="path8"
         d="m 105.6,200.76 h 359.31 v 6 H 105.6 Z m 356.31,-6 18,9 -18,9 z"
         style="fill:#a02b93;fill-opacity:1;fill-rule:nonzero;stroke:none"
         transform="matrix(1.3333333,0,0,-1.3333333,0,720)"
         clip-path="url(#clipPath9)" />
    </g>
    <g
       id="g9">
      <path
         id="path10"
         d="M 1.2080625,0.00113281 V -9.2215234 H 7.090875 v 1.0195312 H 2.4385312 v 2.9414063 h 4.2890625 v 1.0195312 H 2.4385312 v 3.2109375 H 7.090875 v 1.03125001 z m 7.9248047,0 V -6.6785547 H 10.23443 l 0.03516,1.03125 c 0.210937,-0.2724609 0.506836,-0.5273437 0.890625,-0.7617187 0.380859,-0.2402344 0.873047,-0.3632813 1.476562,-0.3632813 0.726563,0 1.256836,0.2197266 1.59375,0.65625 0.333985,0.4306641 0.503907,1.0371094 0.503907,1.8164063 V 0.00113281 H 13.585992 V -4.1355859 c 0,-0.328125 -0.03516,-0.6152344 -0.105469,-0.8671875 -0.07031,-0.2490235 -0.196289,-0.4453125 -0.375,-0.5859375 -0.172851,-0.1464844 -0.421875,-0.2226563 -0.75,-0.2226563 -0.500976,0 -0.922851,0.1142578 -1.265625,0.3398438 -0.336914,0.2285156 -0.606445,0.4746093 -0.808593,0.7382812 v 4.73437501 z m 10.3681638,0 c -0.539062,0 -0.955078,-0.08496094 -1.242187,-0.2578125 -0.28125,-0.16992187 -0.477539,-0.41601562 -0.585938,-0.73828125 C 17.561578,-1.3142969 17.508844,-1.7010156 17.508844,-2.1551172 v -3.5976562 h -1.113282 v -0.9257813 h 1.113282 v -1.5234375 h 1.136718 v 1.5234375 h 1.652344 v 0.9257813 h -1.652344 v 3.5390625 c 0,0.4160156 0.05273,0.7353515 0.164063,0.9609375 0.108398,0.2197265 0.366211,0.32812496 0.773437,0.32812496 h 0.726563 v 0.92578125 z m 2.800781,0 V -9.2215234 h 1.136719 v 3.5742187 c 0.210938,-0.2724609 0.506836,-0.5273437 0.890625,-0.7617187 0.38086,-0.2402344 0.870117,-0.3632813 1.464844,-0.3632813 0.75,0 1.289062,0.2167969 1.617187,0.6445313 0.328125,0.430664 0.492188,1.040039 0.492188,1.828125 V 0.00113281 H 26.754937 V -4.1473047 c 0,-0.3193359 -0.03516,-0.6035156 -0.105468,-0.8554687 -0.06445,-0.2490235 -0.184571,-0.4453125 -0.363282,-0.5859375 -0.18164,-0.1464844 -0.433593,-0.2226563 -0.761718,-0.2226563 -0.500977,0 -0.922852,0.1142578 -1.265625,0.3398438 -0.336914,0.2285156 -0.606446,0.4746093 -0.808594,0.7382812 V 0.00113281 Z M 32.169,0.13003906 c -0.383789,0 -0.735352,-0.07617187 -1.054688,-0.22265625 -0.313476,-0.14648437 -0.568359,-0.36328125 -0.761718,-0.64453125 -0.1875,-0.28710936 -0.28125,-0.64453126 -0.28125,-1.06640626 0,-0.5917969 0.1875,-1.0458984 0.5625,-1.359375 0.375,-0.3105469 0.902343,-0.5214844 1.582031,-0.6328125 0.685547,-0.1171875 1.491211,-0.1787109 2.414062,-0.1875 v -0.46875 c 0,-0.5683594 -0.146484,-0.9609375 -0.433593,-1.171875 -0.28125,-0.2109375 -0.638672,-0.3164062 -1.066407,-0.3164062 -0.46289,0 -0.852539,0.1171875 -1.171875,0.3515625 -0.313476,0.234375 -0.46875,0.6035156 -0.46875,1.1015625 h -1.113281 c 0,-0.5449219 0.117188,-0.9873047 0.351563,-1.3242188 0.240234,-0.3427734 0.565429,-0.5917969 0.972656,-0.75 0.413086,-0.1552734 0.890625,-0.234375 1.429687,-0.234375 0.342774,0 0.670899,0.035156 0.984375,0.1054688 0.310547,0.064453 0.591797,0.1816406 0.84375,0.3515625 0.249024,0.1640625 0.445313,0.3984375 0.585938,0.703125 0.146484,0.3046875 0.222656,0.6972656 0.222656,1.171875 V 0.00113281 H 34.70025 L 34.65338,-1.0183984 c -0.304688,0.34570309 -0.662109,0.62109371 -1.066406,0.83203121 -0.407227,0.2109375 -0.878907,0.31640625 -1.417969,0.31640625 z m 0.304687,-0.87890625 c 0.451172,0 0.861329,-0.10546875 1.230469,-0.31640621 0.366211,-0.2167969 0.670899,-0.4921875 0.914063,-0.8203125 v -1.359375 c -1.212891,0.00879 -2.083008,0.1230468 -2.613282,0.3398437 -0.524414,0.2109375 -0.785156,0.5625 -0.785156,1.0546875 0,0.3369141 0.105469,0.6064453 0.316406,0.8085938 0.210938,0.19628902 0.521485,0.29296871 0.9375,0.29296871 z m 7.684571,0.75 c -0.547852,0 -0.966797,-0.08496094 -1.253906,-0.2578125 -0.28125,-0.16992187 -0.47754,-0.41601562 -0.585938,-0.73828125 C 38.215875,-1.3142969 38.16607,-1.7010156 38.16607,-2.1551172 v -7.0664062 h 1.136719 v 7.0078125 c 0,0.4160156 0.04981,0.7324218 0.152344,0.9492187 0.108398,0.2197266 0.366211,0.32812501 0.773437,0.32812501 h 0.316407 v 0.9375 z m 2.261719,2.44921879 v -9.1289063 h 1.113281 l 0.03516,1.0898438 c 0.234375,-0.3515625 0.539063,-0.6386719 0.914063,-0.8671875 0.380859,-0.225586 0.823242,-0.3398438 1.324218,-0.3398438 0.544922,0 1.019532,0.1289063 1.417969,0.3867188 0.398438,0.2578125 0.703125,0.6445312 0.914063,1.1601562 0.216796,0.5097656 0.328125,1.1455078 0.328125,1.9101563 0,0.758789 -0.117188,1.3945312 -0.351563,1.9101562 -0.228516,0.50976564 -0.550781,0.89648439 -0.972656,1.16015626 -0.421875,0.26660156 -0.914063,0.3984375 -1.476563,0.3984375 -0.477539,0 -0.896484,-0.09375 -1.253906,-0.28125 -0.351562,-0.19335937 -0.638672,-0.45703125 -0.855469,-0.78515625 V 2.4503516 Z m 3.035156,-3.26953129 c 0.609375,0 1.066406,-0.21386721 1.371094,-0.64453121 0.310546,-0.4365235 0.46875,-1.0605469 0.46875,-1.875 0,-0.8203125 -0.146485,-1.444336 -0.433594,-1.875 -0.290039,-0.4365235 -0.714844,-0.65625 -1.277344,-0.65625 -0.486328,0 -0.896484,0.1347656 -1.230469,0.3984375 -0.336914,0.2578125 -0.597656,0.5595703 -0.785156,0.9023437 v 2.578125 c 0.178711,0.3515625 0.424805,0.6386719 0.738281,0.8554688 0.310547,0.21093746 0.694336,0.31640621 1.148438,0.31640621 z m 5.235351,0.8203125 V -6.6785547 h 1.148438 v 6.67968751 z m 0.574219,-7.93359371 c -0.219726,0 -0.395508,-0.061524 -0.527344,-0.1875 -0.125976,-0.1230469 -0.1875,-0.2841797 -0.1875,-0.4804688 0,-0.1875 0.06152,-0.3427734 0.1875,-0.46875 0.131836,-0.1230469 0.307618,-0.1875 0.527344,-0.1875 0.210938,0 0.380859,0.064453 0.515625,0.1875 0.131836,0.1259766 0.199219,0.28125 0.199219,0.46875 0,0.1962891 -0.06738,0.3574219 -0.199219,0.4804688 -0.134766,0.1259765 -0.304687,0.1875 -0.515625,0.1875 z m 5.90918,8.06249996 c -0.726563,0 -1.324219,-0.15234375 -1.792969,-0.45703125 -0.462891,-0.3046875 -0.805664,-0.71777341 -1.03125,-1.24218751 -0.219727,-0.5214844 -0.328125,-1.1132812 -0.328125,-1.7695312 0,-0.6796875 0.108398,-1.2773438 0.328125,-1.7929688 0.216797,-0.5214844 0.550781,-0.9287109 0.996094,-1.21875 0.445312,-0.2958984 1.007812,-0.4453125 1.6875,-0.4453125 0.914062,0 1.628906,0.2783203 2.144531,0.8320313 0.515625,0.5478515 0.773438,1.3330078 0.773438,2.3554687 0,0.070312 -0.0059,0.1523438 -0.01172,0.2460938 0,0.09375 -0.0059,0.1611328 -0.01172,0.1992187 h -4.757812 c 0,0.4394531 0.06445,0.8408203 0.199218,1.2070313 0.140625,0.3603515 0.354492,0.6503906 0.644532,0.8671875 0.295898,0.21972652 0.682617,0.32812496 1.160156,0.32812496 0.515625,0 0.914062,-0.1171875 1.195312,-0.35156246 0.28711,-0.2402344 0.439453,-0.5888672 0.457032,-1.0429688 h 1.136718 c -0.01758,0.46875 -0.140625,0.8759766 -0.375,1.21875001 -0.228515,0.33691406 -0.547851,0.59765625 -0.960937,0.78515625 -0.407227,0.1875 -0.890625,0.28125 -1.453125,0.28125 z M 55.169977,-3.9949609 h 3.644531 c -0.0088,-0.6240235 -0.169922,-1.1015625 -0.480469,-1.4296875 -0.313477,-0.328125 -0.74707,-0.4921875 -1.300781,-0.4921875 -0.556641,0 -0.993164,0.1640625 -1.3125,0.4921875 -0.313477,0.328125 -0.498047,0.805664 -0.550781,1.4296875 z m 0,0"
         style="fill:#a02b93;fill-opacity:1;fill-rule:nonzero;stroke:#a02b93;stroke-width:0.40114;stroke-linecap:butt;stroke-linejoin:miter;stroke-miterlimit:10;stroke-dasharray:none;stroke-opacity:1"
         aria-label="Enthalpie"
         transform="matrix(1.3333333,0,0,1.3333333,100.608,129.21333)"
         clip-path="url(#clipPath11)" />
    </g>
    <g
       id="g11">
      <path
         id="path12"
         d="m 328.18,321.4 v -66.61 h -4.5 v 66.61 z m 4.5,-64.36 -6.75,-13.5 -6.75,13.5 z"
         style="fill:#92d050;fill-opacity:1;fill-rule:nonzero;stroke:none"
         transform="matrix(1.3333333,0,0,-1.3333333,0,720)" />
    </g>
    <g
       id="g12">
      <path
         id="path13"
         d="M 1.2077734,0.00128906 V -9.2448047 h 3.4921875 c 0.5390625,0 1.0253907,0.087891 1.4648438,0.2578125 0.4365234,0.1728516 0.7851562,0.4394531 1.0429687,0.796875 0.2636719,0.3603516 0.3984375,0.8291016 0.3984375,1.40625 0,0.5859375 -0.1640625,1.0869141 -0.4921875,1.5 -0.328125,0.4160156 -0.8085937,0.6914063 -1.4414062,0.8320313 0.3515625,0.055664 0.6357422,0.1699218 0.8554687,0.3398437 0.225586,0.1728516 0.413086,0.4072266 0.5625,0.703125 0.1464844,0.2988281 0.2753907,0.6650391 0.3867188,1.1015625 l 0.609375,2.30859376 H 6.8210547 L 6.2937109,-2.1198047 C 6.1999609,-2.5006641 6.0886328,-2.8258594 5.9655859,-3.0924609 5.8396094,-3.3561328 5.6726172,-3.5612109 5.4616797,-3.7018359 5.2507422,-3.8424609 4.9694922,-3.9127734 4.6179297,-3.9127734 H 2.4499609 V 0.00128906 Z M 2.4499609,-4.9440234 h 2.0976563 c 0.3339844,0 0.6386719,-0.061523 0.9140625,-0.1875 0.28125,-0.131836 0.4980469,-0.319336 0.65625,-0.5625 0.1640625,-0.2402344 0.2460937,-0.5332032 0.2460937,-0.8789063 0,-0.515625 -0.1523437,-0.9169922 -0.4570312,-1.2070312 C 5.6023047,-8.0670703 5.1599219,-8.2135547 4.5827734,-8.2135547 H 2.4499609 Z M 12.750742,0.13019531 c -0.735351,0 -1.333008,-0.15234375 -1.792969,-0.45703125 -0.46289,-0.3046875 -0.805664,-0.71777346 -1.0312496,-1.24218746 -0.2285156,-0.5302735 -0.3398437,-1.1191407 -0.3398437,-1.7695313 0,-0.6855469 0.1083984,-1.2890625 0.328125,-1.8046875 0.2167973,-0.5214844 0.5507813,-0.9287109 0.9960933,-1.21875 0.445313,-0.2958984 1.010743,-0.4453125 1.699219,-0.4453125 0.914063,0 1.628906,0.2783203 2.144531,0.8320313 0.515625,0.5478515 0.773438,1.3359375 0.773438,2.3671875 0,0.070312 -0.0059,0.1523437 -0.01172,0.2460937 0,0.09375 -0.0059,0.1611328 -0.01172,0.1992188 h -4.769531 c 0.0059,0.4394531 0.07617,0.8408203 0.210938,1.2070312 0.131836,0.3603516 0.342773,0.6503906 0.632812,0.8671875 0.295899,0.21972658 0.685547,0.32812501 1.171875,0.32812501 0.506836,0 0.905274,-0.12011718 1.195313,-0.36328121 0.287109,-0.2402344 0.439453,-0.5888672 0.457031,-1.0429688 h 1.136719 c -0.01758,0.4775391 -0.140625,0.8876953 -0.375,1.23046876 -0.228516,0.33691407 -0.547852,0.59765625 -0.960938,0.78515625 -0.407226,0.1875 -0.890625,0.28125 -1.453125,0.28125 z M 10.746836,-4.0065234 h 3.644531 c -0.0088,-0.6152344 -0.169922,-1.0898438 -0.480469,-1.4179688 -0.313476,-0.3339844 -0.74707,-0.5039062 -1.300781,-0.5039062 -0.5625,0 -1.004883,0.1640625 -1.324219,0.4921875 -0.313476,0.328125 -0.492187,0.805664 -0.539062,1.4296875 z m 8.730469,4.13671871 c -0.383789,0 -0.735352,-0.07617187 -1.054688,-0.22265625 -0.313476,-0.14648437 -0.568359,-0.36328125 -0.761719,-0.64453125 -0.1875,-0.28710941 -0.28125,-0.64453121 -0.28125,-1.06640621 0,-0.600586 0.1875,-1.0576172 0.5625,-1.3710938 0.375,-0.3105469 0.905274,-0.5214844 1.59375,-0.6328125 0.685547,-0.1083984 1.491211,-0.1669922 2.414063,-0.1757812 v -0.46875 c 0,-0.5771485 -0.146484,-0.9726563 -0.433594,-1.1835938 -0.28125,-0.2109375 -0.641601,-0.3164062 -1.078125,-0.3164062 -0.46289,0 -0.852539,0.1171875 -1.171875,0.3515625 -0.313476,0.234375 -0.46875,0.6035156 -0.46875,1.1015625 h -1.113281 c 0,-0.5449219 0.117187,-0.9873047 0.351562,-1.3242188 0.240235,-0.3427734 0.56836,-0.5917969 0.984375,-0.75 0.413086,-0.1552734 0.884766,-0.234375 1.417969,-0.234375 0.342774,0 0.670899,0.035156 0.984375,0.1054688 0.319336,0.064453 0.603516,0.1816406 0.855469,0.3515625 0.249023,0.1640625 0.445312,0.3984375 0.585937,0.703125 0.146485,0.3046875 0.222657,0.7001953 0.222657,1.1835937 v 4.46484376 h -1.066407 l -0.04687,-1.01953126 c -0.313476,0.34570314 -0.673828,0.62109376 -1.078125,0.83203126 -0.398437,0.2109375 -0.873046,0.31640625 -1.417968,0.31640625 z m 0.304687,-0.87890625 c 0.459961,0 0.873047,-0.10839843 1.242188,-0.32812496 0.366211,-0.2167969 0.670898,-0.4921875 0.914062,-0.8203125 v -1.359375 c -1.21875,0.017578 -2.094726,0.1347656 -2.625,0.3515625 -0.524414,0.2109375 -0.785156,0.5625 -0.785156,1.0546875 0,0.336914 0.105469,0.6064453 0.316406,0.8085937 0.210938,0.19628908 0.521485,0.29296876 0.9375,0.29296876 z m 5.762696,0.75 V -9.2448047 h 1.148437 v 5.7070313 l 3.023438,-3.1523438 h 1.347656 L 28.0525,-3.5612109 31.345469,0.00128906 H 29.915781 L 26.693125,-3.4674609 v 3.46874996 z m 9.665039,0 c -0.539063,0 -0.955079,-0.08496093 -1.242188,-0.2578125 C 33.6775,-0.42644531 33.478281,-0.67253906 33.369883,-0.99480469 33.258555,-1.3229297 33.20582,-1.7125781 33.20582,-2.1666797 v -3.5976562 h -1.113281 v -0.9257813 h 1.113281 v -1.5234375 h 1.148438 v 1.5234375 h 1.640625 v 0.9257813 h -1.640625 v 3.5507812 c 0,0.4160156 0.0498,0.7353516 0.152344,0.9609375 0.108398,0.2197266 0.366211,0.32812501 0.773437,0.32812501 h 0.726563 v 0.92578125 z m 2.780273,0 V -6.6901172 h 1.148438 v 6.69140626 z m 0.574219,-7.94531246 c -0.219727,0 -0.395508,-0.061524 -0.527344,-0.1875 -0.125977,-0.1230469 -0.1875,-0.2841797 -0.1875,-0.4804688 0,-0.1875 0.06152,-0.3427734 0.1875,-0.46875 0.131836,-0.1318359 0.307617,-0.1992187 0.527344,-0.1992187 0.216797,0 0.389648,0.067383 0.515625,0.1992187 0.131836,0.1259766 0.199219,0.28125 0.199219,0.46875 0,0.1962891 -0.06738,0.3574219 -0.199219,0.4804688 -0.125977,0.1259765 -0.298828,0.1875 -0.515625,0.1875 z m 5.882812,8.05078121 c -0.65625,0 -1.21875,-0.13476562 -1.6875,-0.41015625 -0.46289,-0.28125 -0.817383,-0.67382812 -1.066406,-1.18359376 -0.243164,-0.515625 -0.363281,-1.1279297 -0.363281,-1.8398437 0,-0.7265625 0.120117,-1.3476563 0.363281,-1.8632813 0.249023,-0.5214844 0.603516,-0.9257812 1.066406,-1.2070312 0.46875,-0.28125 1.03125,-0.421875 1.6875,-0.421875 0.670899,0 1.242188,0.140625 1.710938,0.421875 0.474609,0.28125 0.83789,0.6855468 1.089844,1.2070312 0.257812,0.515625 0.386718,1.1367188 0.386718,1.8632813 0,0.711914 -0.128906,1.3242187 -0.386718,1.8398437 -0.251954,0.50976564 -0.615235,0.90234376 -1.089844,1.18359376 -0.46875,0.27539063 -1.040039,0.41015625 -1.710938,0.41015625 z m 0,-0.9140625 c 0.492188,0 0.881836,-0.10546875 1.171875,-0.31640621 0.295899,-0.2167969 0.506836,-0.5185547 0.632813,-0.9023438 0.131836,-0.3808594 0.199219,-0.8144531 0.199219,-1.3007812 0,-0.4921875 -0.06738,-0.9316407 -0.199219,-1.3242188 -0.125977,-0.3896484 -0.336914,-0.6943359 -0.632813,-0.9140625 -0.290039,-0.2255859 -0.679687,-0.3398437 -1.171875,-0.3398437 -0.477539,0 -0.855468,0.1142578 -1.136718,0.3398437 -0.28125,0.2197266 -0.486329,0.5244141 -0.609375,0.9140625 -0.125977,0.3925781 -0.1875,0.8320313 -0.1875,1.3242188 0,0.4863281 0.06152,0.9199218 0.1875,1.3007812 0.123046,0.3837891 0.328125,0.6855469 0.609375,0.9023438 0.28125,0.21093746 0.659179,0.31640621 1.136718,0.31640621 z m 5.288086,0.80859375 V -6.6901172 h 1.101563 l 0.04687,1.03125 c 0.202148,-0.2636719 0.495117,-0.5185547 0.878906,-0.7617187 0.380859,-0.2402344 0.873047,-0.3632813 1.476562,-0.3632813 0.732422,0 1.265625,0.2197266 1.59375,0.65625 0.333985,0.4306641 0.503907,1.0371094 0.503907,1.8164063 V 0.00128906 H 54.199961 V -4.1471484 c 0,-0.328125 -0.03516,-0.6152344 -0.105469,-0.8671875 -0.07031,-0.2490235 -0.196289,-0.4453125 -0.375,-0.5859375 -0.172851,-0.1464844 -0.427734,-0.2226563 -0.761719,-0.2226563 -0.500976,0 -0.919921,0.1142578 -1.253906,0.3398438 -0.336914,0.2285156 -0.609375,0.477539 -0.820312,0.75 v 4.73437496 z m 10.508789,0.12890625 c -0.375,0 -0.732422,-0.04394531 -1.066406,-0.12890625 -0.336914,-0.08496093 -0.632812,-0.21386718 -0.890625,-0.38671875 -0.251953,-0.17871093 -0.451172,-0.41308593 -0.597656,-0.70312501 -0.140625,-0.2958984 -0.210938,-0.6474609 -0.210938,-1.0546875 h 1.101563 c 0,0.515625 0.158203,0.8847656 0.480469,1.1015625 0.328125,0.21093751 0.732421,0.31640626 1.21875,0.31640626 0.427734,0 0.785156,-0.0820313 1.066406,-0.24609375 0.287109,-0.16992191 0.433594,-0.44824221 0.433594,-0.83203121 0,-0.328125 -0.128907,-0.5683594 -0.386719,-0.7265625 -0.251953,-0.1640625 -0.700196,-0.3222657 -1.347656,-0.4804688 -0.515625,-0.1171875 -0.955079,-0.2578125 -1.3125,-0.421875 -0.360352,-0.1640625 -0.629883,-0.3691406 -0.808594,-0.6210937 -0.172852,-0.2490235 -0.257813,-0.5654297 -0.257813,-0.9492188 0,-0.2958984 0.06152,-0.5566406 0.1875,-0.7851562 0.123047,-0.225586 0.298828,-0.413086 0.527344,-0.5625 0.225586,-0.1464844 0.492188,-0.2607422 0.796875,-0.3398438 0.304688,-0.076172 0.635742,-0.1171875 0.996094,-0.1171875 0.351562,0 0.679687,0.043945 0.984375,0.1289063 0.310547,0.079102 0.585937,0.2080078 0.820312,0.3867187 0.240235,0.1728516 0.427735,0.3955078 0.5625,0.6679688 0.140625,0.2753906 0.210938,0.6035156 0.210938,0.984375 h -1.113281 c 0,-0.46875 -0.146485,-0.7998047 -0.433594,-0.9960938 -0.28125,-0.2021484 -0.626953,-0.3046875 -1.03125,-0.3046875 -0.416016,0 -0.75,0.076172 -1.007813,0.2226563 -0.251953,0.149414 -0.375,0.3808593 -0.375,0.6914062 0,0.1728516 0.05273,0.3222656 0.164063,0.4453125 0.117187,0.1259766 0.307617,0.2402344 0.574219,0.3398438 0.27246,0.09375 0.638671,0.196289 1.101562,0.3046875 0.498047,0.1171875 0.916992,0.2636718 1.253906,0.4335937 0.333985,0.1640625 0.588867,0.375 0.761719,0.6328125 0.169922,0.2578125 0.257813,0.5859375 0.257813,0.984375 0,0.3515625 -0.06738,0.65625 -0.199219,0.91406251 -0.134766,0.25195313 -0.322266,0.45703125 -0.5625,0.62109375 -0.243164,0.1640625 -0.524414,0.28710938 -0.84375,0.36328125 -0.322266,0.07617188 -0.673828,0.1171875 -1.054688,0.1171875 z M 65.939219,0.00128906 63.794688,-6.6901172 H 64.99 l 1.59375,5.4023438 1.59375,-5.4023438 h 1.277344 l 1.628906,5.390625 1.570313,-5.390625 h 1.125 L 71.64625,0.00128906 H 70.4275 L 68.786875,-5.4479297 67.157969,0.00128906 Z m 12.222656,0.12890625 c -0.735352,0 -1.333008,-0.15234375 -1.792969,-0.45703125 -0.46289,-0.3046875 -0.805664,-0.71777346 -1.03125,-1.24218746 -0.228515,-0.5302735 -0.339843,-1.1191407 -0.339843,-1.7695313 0,-0.6855469 0.108398,-1.2890625 0.328125,-1.8046875 0.216796,-0.5214844 0.550781,-0.9287109 0.996093,-1.21875 0.445313,-0.2958984 1.010742,-0.4453125 1.699219,-0.4453125 0.914063,0 1.628906,0.2783203 2.144531,0.8320313 0.515625,0.5478515 0.773438,1.3359375 0.773438,2.3671875 0,0.070312 -0.0059,0.1523437 -0.01172,0.2460937 0,0.09375 -0.0059,0.1611328 -0.01172,0.1992188 H 76.14625 c 0.0059,0.4394531 0.07617,0.8408203 0.210938,1.2070312 0.131835,0.3603516 0.342773,0.6503906 0.632812,0.8671875 0.295898,0.21972658 0.685547,0.32812501 1.171875,0.32812501 0.506836,0 0.905273,-0.12011718 1.195313,-0.36328121 0.287109,-0.2402344 0.439453,-0.5888672 0.457031,-1.0429688 h 1.136719 c -0.01758,0.4775391 -0.140625,0.8876953 -0.375,1.23046876 -0.228516,0.33691407 -0.547852,0.59765625 -0.960938,0.78515625 -0.407227,0.1875 -0.890625,0.28125 -1.453125,0.28125 z M 76.157969,-4.0065234 H 79.8025 c -0.0088,-0.6152344 -0.169922,-1.0898438 -0.480469,-1.4179688 -0.313476,-0.3339844 -0.74707,-0.5039062 -1.300781,-0.5039062 -0.5625,0 -1.004883,0.1640625 -1.324219,0.4921875 -0.313476,0.328125 -0.492187,0.805664 -0.539062,1.4296875 z m 9.339844,6.5976562 c -0.726563,0 -1.306641,-0.082031 -1.734375,-0.2460937 -0.430665,-0.1640625 -0.744141,-0.3867188 -0.9375,-0.6679688 -0.19629,-0.2753906 -0.292969,-0.571289 -0.292969,-0.89062499 0,-0.38378906 0.164062,-0.7265625 0.492187,-1.03125 0.333985,-0.3046875 0.84961,-0.51855468 1.546875,-0.64453125 l 0.222657,-0.37499996 h 0.84375 c 1.092773,0 1.875,0.149414 2.34375,0.44531246 0.474609,0.29003907 0.714843,0.73828125 0.714843,1.34765625 0,0.60058599 -0.269531,1.09277349 -0.808593,1.47656249 -0.539063,0.3896485 -1.335938,0.5859375 -2.390625,0.5859375 z m -0.02344,-0.8320312 c 0.773438,0 1.318359,-0.1113282 1.640625,-0.328125 0.319336,-0.2197266 0.480469,-0.49218754 0.480469,-0.82031254 0,-0.1875 -0.05566,-0.3515625 -0.164063,-0.4921875 -0.111328,-0.140625 -0.310547,-0.24902343 -0.597656,-0.328125 -0.290039,-0.0761719 -0.703125,-0.1171875 -1.242187,-0.1171875 h -1.019532 c -0.304687,0.0791016 -0.544922,0.2109375 -0.714843,0.3984375 -0.172852,0.1875 -0.257813,0.40429688 -0.257813,0.65625 0,0.27246094 0.143555,0.50976564 0.433594,0.71484374 0.287109,0.2109375 0.767578,0.3164063 1.441406,0.3164063 z m -0.914062,-2.14453129 c -0.439454,-0.046875 -0.782227,-0.13476562 -1.03125,-0.26953125 -0.251954,-0.140625 -0.430665,-0.29296875 -0.539063,-0.45703126 -0.102539,-0.1699219 -0.152344,-0.3339844 -0.152344,-0.4921875 0,-0.2167969 0.08789,-0.4248047 0.269532,-0.6210937 0.1875,-0.2021485 0.483398,-0.3691407 0.890625,-0.5039063 l 0.574218,0.3632813 c -0.243164,0.070312 -0.439453,0.1611328 -0.585937,0.2695312 -0.140625,0.1025391 -0.210938,0.2197266 -0.210938,0.3515625 0,0.09375 0.04102,0.1757813 0.128907,0.2460938 0.08496,0.070312 0.228515,0.1289062 0.433593,0.1757812 0.202149,0.041016 0.486328,0.058594 0.855469,0.058594 z m 0.855468,-1.78125001 c -0.547851,0 -1.013672,-0.1054687 -1.394531,-0.3164062 -0.383789,-0.2109375 -0.676758,-0.4863282 -0.878906,-0.8320313 -0.196289,-0.3515625 -0.292969,-0.7265625 -0.292969,-1.125 0,-0.4277344 0.09668,-0.8144531 0.292969,-1.1601562 0.202148,-0.3515625 0.495117,-0.6269532 0.878906,-0.8320313 0.389648,-0.2021484 0.867188,-0.3046875 1.429688,-0.3046875 0.568359,0 1.042968,0.1025391 1.417968,0.3046875 0.38086,0.2050781 0.667969,0.4804688 0.855469,0.8320313 0.1875,0.3457031 0.28125,0.7324218 0.28125,1.1601562 0,0.4160156 -0.09375,0.7939453 -0.28125,1.1367188 -0.1875,0.3457031 -0.477539,0.6210937 -0.867187,0.8320312 -0.38379,0.2050781 -0.864258,0.3046875 -1.441407,0.3046875 z m -0.01172,-0.7734375 c 0.445312,0 0.808593,-0.1230469 1.089843,-0.375 0.28711,-0.2578125 0.433594,-0.6328125 0.433594,-1.125 0,-0.515625 -0.137695,-0.8964844 -0.410156,-1.1484375 -0.266602,-0.2490234 -0.621094,-0.375 -1.066406,-0.375 -0.439454,0 -0.802735,0.1289063 -1.089844,0.3867188 -0.28125,0.2519531 -0.421875,0.6269531 -0.421875,1.125 0,0.5097656 0.146484,0.8876953 0.445312,1.1367187 0.295899,0.2519531 0.635742,0.375 1.019532,0.375 z m 1.757812,-3.0703125 -0.46875,-0.4335937 c 0.193359,-0.4277344 0.451172,-0.7207032 0.773438,-0.8789063 0.319335,-0.1552734 0.729492,-0.2373047 1.230468,-0.2460937 v 0.9609375 c -0.322265,0 -0.618164,0.035156 -0.890625,0.1054687 -0.266601,0.064453 -0.480468,0.2285156 -0.644531,0.4921875 z m 0,0"
         style="fill:#a02b93;fill-opacity:1;fill-rule:nonzero;stroke:#a02b93;stroke-width:0.40183;stroke-linecap:butt;stroke-linejoin:miter;stroke-miterlimit:10;stroke-dasharray:none;stroke-opacity:1"
         aria-label="Reaktionsweg"
         transform="matrix(1.3333333,0,0,1.3333333,552.34667,493.76)"
         clip-path="url(#clipPath14)" />
    </g>
    <g
       id="g14">
      <path
         id="path15"
         d="m 110.83,322.56 234.48,-1.37"
         style="fill:none;stroke:#ffc000;stroke-width:6;stroke-linecap:butt;stroke-linejoin:miter;stroke-miterlimit:10;stroke-dasharray:none;stroke-opacity:1"
         transform="matrix(1.3333333,0,0,-1.3333333,0,720)" />
    </g>
    <g
       id="g15">
      <path
         id="path16"
         d="M 198.25,405.07 348.8,404.81"
         style="fill:none;stroke:#ffc000;stroke-width:6;stroke-linecap:butt;stroke-linejoin:miter;stroke-miterlimit:10;stroke-dasharray:none;stroke-opacity:1"
         transform="matrix(1.3333333,0,0,-1.3333333,0,720)" />
    </g>
    <g
       id="g16">
      <path
         id="path17"
         d="m 306.91,240.58 170.31,-1.27"
         style="fill:none;stroke:#ffc000;stroke-width:6;stroke-linecap:butt;stroke-linejoin:miter;stroke-miterlimit:10;stroke-dasharray:none;stroke-opacity:1"
         transform="matrix(1.3333333,0,0,-1.3333333,0,720)" />
    </g>
    <g
       id="g17">
      <path
         id="path18"
         d="m 5.1565625,0.12804687 c -0.9609375,0 -1.7695313,-0.19921875 -2.4257813,-0.59765625 C 2.0745312,-0.86804688 1.5764844,-1.4217578 1.2425,-2.1336719 0.90558594,-2.8426563 0.73859375,-3.6688281 0.73859375,-4.6063281 c 0,-0.9433594 0.16699219,-1.772461 0.50390625,-2.484375 0.3339844,-0.7089844 0.8320312,-1.265625 1.4882812,-1.6640625 0.65625,-0.3984375 1.4648438,-0.5976563 2.4257813,-0.5976563 0.4746094,0 0.9287109,0.064453 1.359375,0.1875 0.4365234,0.1171875 0.8320312,0.3017578 1.1835937,0.5507813 0.3515625,0.243164 0.6386719,0.5478515 0.8671875,0.9140625 0.225586,0.3691406 0.3632813,0.805664 0.4101563,1.3125 H 7.7464062 C 7.6995312,-6.7391406 7.5647656,-7.0614063 7.3479687,-7.3602344 7.1370312,-7.6561328 6.8440625,-7.8934375 6.4690625,-8.0750781 c -0.375,-0.178711 -0.8173828,-0.2695313 -1.3242188,-0.2695313 -0.7441406,0 -1.3476562,0.1699219 -1.8164062,0.5039063 -0.4628906,0.336914 -0.8027344,0.7851562 -1.0195313,1.3476562 -0.2109375,0.5625 -0.3164062,1.1923828 -0.3164062,1.8867188 0,0.6884765 0.1054687,1.3125 0.3164062,1.875 0.2167969,0.5625 0.5625,1.0078125 1.03125,1.3359375 0.46875,0.328125 1.0722657,0.49218747 1.8164063,0.49218747 0.6386719,0 1.1660156,-0.11132817 1.5820312,-0.33984377 0.413086,-0.234375 0.7207032,-0.5566406 0.9257813,-0.9726562 0.2021484,-0.413086 0.3076172,-0.890625 0.3164062,-1.4296875 H 5.2971875 v -1.0195313 h 3.890625 v 0.7148438 c 0,0.796875 -0.1494141,1.5058593 -0.4453125,2.1210937 -0.2988281,0.609375 -0.7470703,1.08984377 -1.3476563,1.44140627 -0.5947265,0.34570313 -1.3417968,0.515625 -2.2382812,0.515625 z M 11.168281,-8.59375e-4 V -6.6805469 h 1.148438 V -8.59375e-4 Z M 11.7425,-7.9344531 c -0.219727,0 -0.395508,-0.061523 -0.527344,-0.1875 -0.125976,-0.1230469 -0.1875,-0.2841797 -0.1875,-0.4804688 0,-0.1875 0.06152,-0.3427734 0.1875,-0.46875 0.131836,-0.1230469 0.307617,-0.1875 0.527344,-0.1875 0.210937,0 0.380859,0.064453 0.515625,0.1875 0.131836,0.1259766 0.199219,0.28125 0.199219,0.46875 0,0.1962891 -0.06738,0.3574219 -0.199219,0.4804688 -0.134766,0.1259765 -0.304688,0.1875 -0.515625,0.1875 z m 5.358398,7.933593725 c -0.539062,0 -0.955078,-0.084960935 -1.242187,-0.257812505 C 15.577461,-0.42859375 15.381172,-0.6746875 15.272773,-0.99695313 15.161445,-1.3162891 15.108711,-1.7030078 15.108711,-2.1571094 V -5.7547656 H 13.99543 v -0.9257813 h 1.113281 v -1.5234375 h 1.136719 v 1.5234375 h 1.652343 v 0.9257813 H 16.24543 v 3.5390625 c 0,0.4160156 0.05273,0.7353515 0.164062,0.9609375 0.108399,0.2197265 0.366211,0.32812497 0.773438,0.32812497 h 0.726562 v 0.925781255 z m 5.027344,0 c -0.539062,0 -0.955078,-0.084960935 -1.242187,-0.257812505 C 20.604805,-0.42859375 20.408516,-0.6746875 20.300117,-0.99695313 20.188789,-1.3162891 20.136055,-1.7030078 20.136055,-2.1571094 v -3.5976562 h -1.113282 v -0.9257813 h 1.113282 v -1.5234375 h 1.136718 v 1.5234375 h 1.652344 v 0.9257813 h -1.652344 v 3.5390625 c 0,0.4160156 0.05273,0.7353515 0.164063,0.9609375 0.108398,0.2197265 0.366211,0.32812497 0.773437,0.32812497 h 0.726563 v 0.925781255 z m 5.449219,0.128906245 c -0.726563,0 -1.324219,-0.15234375 -1.792969,-0.45703125 -0.46289,-0.3046875 -0.805664,-0.71777342 -1.03125,-1.24218752 -0.219726,-0.5214844 -0.328125,-1.1132812 -0.328125,-1.7695312 0,-0.6796875 0.108399,-1.2773438 0.328125,-1.7929688 0.216797,-0.5214844 0.550781,-0.9287109 0.996094,-1.21875 0.445312,-0.2958984 1.007812,-0.4453125 1.6875,-0.4453125 0.914062,0 1.628906,0.2783203 2.144531,0.8320313 0.515625,0.5478515 0.773438,1.3330078 0.773438,2.3554687 0,0.070312 -0.0059,0.1523438 -0.01172,0.2460938 0,0.09375 -0.0059,0.1611328 -0.01172,0.1992187 h -4.757812 c 0,0.4394531 0.06445,0.8408203 0.199218,1.2070313 0.140625,0.3603515 0.354493,0.6503906 0.644532,0.8671875 0.295898,0.21972654 0.682617,0.32812497 1.160156,0.32812497 0.515625,0 0.914062,-0.1171875 1.195312,-0.35156247 0.28711,-0.2402344 0.439454,-0.5888672 0.457032,-1.0429688 h 1.136718 c -0.01758,0.46875 -0.140625,0.8759766 -0.375,1.21875002 -0.228515,0.33691407 -0.547851,0.59765625 -0.960937,0.78515625 -0.407227,0.1875 -0.890625,0.28125 -1.453125,0.28125 z M 25.573555,-3.9969531 h 3.644531 c -0.0088,-0.6240235 -0.169922,-1.1015625 -0.480469,-1.4296875 -0.313476,-0.328125 -0.74707,-0.4921875 -1.300781,-0.4921875 -0.556641,0 -0.993164,0.1640625 -1.3125,0.4921875 -0.313477,0.328125 -0.498047,0.805664 -0.550781,1.4296875 z m 7.019531,3.996093725 V -6.6805469 h 1.078125 l 0.04687,1.1367188 c 0.1875,-0.3427735 0.445312,-0.6328125 0.773437,-0.8671875 0.333985,-0.234375 0.767579,-0.3515625 1.300782,-0.3515625 h 0.140625 v 1.0546875 h -0.152344 c -0.336914,0 -0.629883,0.043945 -0.878906,0.1289062 -0.251953,0.087891 -0.46875,0.2080078 -0.65625,0.3632813 -0.1875,0.149414 -0.357422,0.3251953 -0.503907,0.5273437 v 4.687500025 z m 0,0"
         style="fill:#e97132;fill-opacity:1;fill-rule:nonzero;stroke:#e97132;stroke-width:0.40114;stroke-linecap:butt;stroke-linejoin:miter;stroke-miterlimit:10;stroke-dasharray:none;stroke-opacity:1"
         aria-label="Gitter"
         transform="matrix(1.3333333,0,0,1.3333333,177.09333,238.49333)"
         clip-path="url(#clipPath19)" />
      <path
         id="path20"
         d="M 0.68046875,-2.8953906 V -3.9149219 H 4.1023437 v 1.0195313 z m 0,0"
         style="fill:#e97132;fill-opacity:1;fill-rule:nonzero;stroke:#e97132;stroke-width:0.40114;stroke-linecap:butt;stroke-linejoin:miter;stroke-miterlimit:10;stroke-dasharray:none;stroke-opacity:1"
         aria-label="-"
         transform="matrix(1.3333333,0,0,1.3333333,225.73333,238.49333)"
         clip-path="url(#clipPath21)" />
      <path
         id="path22"
         d="M 3.8792187,0.12992187 C 3.1526562,0.12992187 2.555,-0.02242188 2.08625,-0.32710938 1.6233594,-0.63179688 1.2805859,-1.0448828 1.055,-1.5692969 0.83527344,-2.0907813 0.726875,-2.6825781 0.726875,-3.3388281 c 0,-0.6796875 0.10839844,-1.2773438 0.328125,-1.7929688 0.2167969,-0.5214844 0.5507812,-0.9287109 0.9960937,-1.21875 0.4453125,-0.2958984 1.0078125,-0.4453125 1.6875,-0.4453125 0.9140625,0 1.6289063,0.2783203 2.1445313,0.8320313 0.515625,0.5478515 0.7734375,1.3330078 0.7734375,2.3554687 0,0.070312 -0.00586,0.1523438 -0.011719,0.2460938 0,0.09375 -0.00586,0.1611328 -0.011719,0.1992187 h -4.757812 c 0,0.4394531 0.064453,0.8408203 0.1992187,1.2070313 0.140625,0.3603515 0.3544922,0.6503906 0.6445313,0.8671875 0.2958984,0.21972654 0.6826172,0.32812497 1.1601562,0.32812497 0.515625,0 0.9140625,-0.1171875 1.1953125,-0.35156247 C 5.3616406,-1.3525 5.5139844,-1.7011328 5.5315625,-2.1552344 h 1.1367187 c -0.017578,0.46875 -0.140625,0.8759766 -0.375,1.21875002 -0.2285156,0.33691407 -0.5478515,0.59765625 -0.9609375,0.78515625 -0.4072265,0.1875 -0.890625,0.28125 -1.453125,0.28125 z M 1.8753125,-3.9950781 H 5.5198437 C 5.5110547,-4.6191016 5.3499219,-5.0966406 5.039375,-5.4247656 4.7258984,-5.7528906 4.2923047,-5.9169531 3.7385937,-5.9169531 c -0.5566406,0 -0.993164,0.1640625 -1.3125,0.4921875 -0.3134765,0.328125 -0.4980468,0.805664 -0.5507812,1.4296875 z M 8.8948437,0.00101562 V -6.6786719 h 1.1015625 l 0.035156,1.03125 c 0.210938,-0.2724609 0.506836,-0.5273437 0.890625,-0.7617187 0.38086,-0.2402344 0.873047,-0.3632813 1.476563,-0.3632813 0.726562,0 1.256836,0.2197266 1.59375,0.65625 0.333984,0.4306641 0.503906,1.0371094 0.503906,1.8164063 V 0.00101562 H 13.347969 V -4.1357031 c 0,-0.328125 -0.03516,-0.6152344 -0.105469,-0.8671875 -0.07031,-0.2490235 -0.196289,-0.4453125 -0.375,-0.5859375 -0.172852,-0.1464844 -0.421875,-0.2226563 -0.75,-0.2226563 -0.500977,0 -0.922852,0.1142578 -1.265625,0.3398438 -0.336914,0.2285156 -0.606445,0.4746093 -0.808594,0.7382812 v 4.73437502 z m 10.3681643,0 c -0.539063,0 -0.955078,-0.08496093 -1.242188,-0.2578125 C 17.73957,-0.42671875 17.543281,-0.6728125 17.434883,-0.99507813 17.323555,-1.3144141 17.27082,-1.7011328 17.27082,-2.1552344 v -3.5976562 h -1.113281 v -0.9257813 h 1.113281 v -1.5234375 h 1.136719 v 1.5234375 h 1.652344 v 0.9257813 h -1.652344 v 3.5390625 c 0,0.4160156 0.05273,0.7353515 0.164063,0.9609375 0.108398,0.2197265 0.36621,0.32812497 0.773437,0.32812497 h 0.726563 v 0.92578125 z m 2.800781,0 V -9.2216406 h 1.136719 v 3.5742187 c 0.210937,-0.2724609 0.506836,-0.5273437 0.890625,-0.7617187 0.380859,-0.2402344 0.870117,-0.3632813 1.464844,-0.3632813 0.75,0 1.289062,0.2167969 1.617187,0.6445313 0.328125,0.430664 0.492188,1.040039 0.492188,1.828125 V 0.00101562 H 26.516914 V -4.1474219 c 0,-0.3193359 -0.03516,-0.6035156 -0.105469,-0.8554687 -0.06445,-0.2490235 -0.18457,-0.4453125 -0.363281,-0.5859375 -0.181641,-0.1464844 -0.433594,-0.2226563 -0.761719,-0.2226563 -0.500976,0 -0.922851,0.1142578 -1.265625,0.3398438 -0.336914,0.2285156 -0.606445,0.4746093 -0.808593,0.7382812 v 4.73437502 z m 9.864258,0.12890625 c -0.383789,0 -0.735352,-0.07617187 -1.054688,-0.22265625 -0.313476,-0.14648437 -0.568359,-0.36328125 -0.761718,-0.64453125 -0.1875,-0.28710937 -0.28125,-0.64453127 -0.28125,-1.06640627 0,-0.5917969 0.1875,-1.0458984 0.5625,-1.359375 0.375,-0.3105469 0.902343,-0.5214844 1.582031,-0.6328125 0.685547,-0.1171875 1.491211,-0.1787109 2.414062,-0.1875 v -0.46875 c 0,-0.5683594 -0.146484,-0.9609375 -0.433593,-1.171875 -0.28125,-0.2109375 -0.638672,-0.3164062 -1.066407,-0.3164062 -0.46289,0 -0.852539,0.1171875 -1.171875,0.3515625 -0.313476,0.234375 -0.46875,0.6035156 -0.46875,1.1015625 h -1.113281 c 0,-0.5449219 0.117188,-0.9873047 0.351563,-1.3242188 0.240234,-0.3427734 0.565429,-0.5917969 0.972656,-0.75 0.413086,-0.1552734 0.890625,-0.234375 1.429687,-0.234375 0.342774,0 0.670899,0.035156 0.984375,0.1054688 0.310547,0.064453 0.591797,0.1816406 0.84375,0.3515625 0.249024,0.1640625 0.445313,0.3984375 0.585938,0.703125 0.146484,0.3046875 0.222656,0.6972656 0.222656,1.171875 v 4.46484372 h -1.066406 l -0.04687,-1.01953122 c -0.304688,0.3457031 -0.66211,0.62109372 -1.066406,0.83203122 -0.407227,0.2109375 -0.878907,0.31640625 -1.417969,0.31640625 z m 0.304687,-0.87890625 c 0.451172,0 0.861328,-0.10546875 1.230469,-0.31640622 0.366211,-0.2167969 0.670899,-0.4921875 0.914063,-0.8203125 v -1.359375 c -1.212891,0.00879 -2.083008,0.1230468 -2.613282,0.3398437 -0.524414,0.2109375 -0.785156,0.5625 -0.785156,1.0546875 0,0.3369141 0.105469,0.6064453 0.316406,0.8085938 0.210938,0.19628904 0.521485,0.29296872 0.9375,0.29296872 z m 7.6875,0.75 c -0.547851,0 -0.966797,-0.08496093 -1.253906,-0.2578125 C 38.385078,-0.42671875 38.188789,-0.6728125 38.080391,-0.99507813 37.977852,-1.3144141 37.928047,-1.7011328 37.928047,-2.1552344 v -7.0664062 h 1.136719 v 7.0078125 c 0,0.4160156 0.0498,0.7324218 0.152343,0.9492187 0.108399,0.2197266 0.366211,0.32812502 0.773438,0.32812502 h 0.316406 v 0.9375 z m 2.261719,2.44921878 v -9.1289063 h 1.113281 l 0.03516,1.0898438 c 0.234375,-0.3515625 0.539062,-0.6386719 0.914062,-0.8671875 0.380859,-0.225586 0.823242,-0.3398438 1.324219,-0.3398438 0.544922,0 1.019531,0.1289063 1.417969,0.3867188 0.398437,0.2578125 0.703125,0.6445312 0.914062,1.1601562 0.216797,0.5097656 0.328125,1.1455078 0.328125,1.9101563 0,0.758789 -0.117187,1.3945312 -0.351562,1.9101562 -0.228516,0.50976565 -0.550782,0.8964844 -0.972657,1.16015627 -0.421875,0.26660157 -0.914062,0.3984375 -1.476562,0.3984375 -0.477539,0 -0.896485,-0.09375 -1.253906,-0.28125 -0.351563,-0.19335937 -0.638672,-0.45703125 -0.855469,-0.78515625 V 2.4502344 Z m 3.035156,-3.26953128 c 0.609375,0 1.066407,-0.21386722 1.371094,-0.64453122 0.310547,-0.4365235 0.46875,-1.0605469 0.46875,-1.875 0,-0.8203125 -0.146484,-1.444336 -0.433594,-1.875 -0.290039,-0.4365235 -0.714843,-0.65625 -1.277343,-0.65625 -0.486329,0 -0.896485,0.1347656 -1.230469,0.3984375 -0.336914,0.2578125 -0.597656,0.5595703 -0.785156,0.9023437 v 2.578125 c 0.178711,0.3515625 0.424804,0.6386719 0.738281,0.8554688 0.310547,0.21093747 0.694336,0.31640622 1.148437,0.31640622 z m 5.235352,0.8203125 V -6.6786719 h 1.148437 V 0.00101562 Z M 51.02668,-7.9325781 c -0.219727,0 -0.395508,-0.061523 -0.527344,-0.1875 -0.125977,-0.1230469 -0.1875,-0.2841797 -0.1875,-0.4804688 0,-0.1875 0.06152,-0.3427734 0.1875,-0.46875 0.131836,-0.1230469 0.307617,-0.1875 0.527344,-0.1875 0.210937,0 0.380859,0.064453 0.515625,0.1875 0.131836,0.1259766 0.199218,0.28125 0.199218,0.46875 0,0.1962891 -0.06738,0.3574219 -0.199218,0.4804688 -0.134766,0.1259765 -0.304688,0.1875 -0.515625,0.1875 z m 5.909179,8.06249997 c -0.726562,0 -1.324218,-0.15234375 -1.792968,-0.45703125 -0.462891,-0.3046875 -0.805664,-0.71777342 -1.03125,-1.24218752 -0.219727,-0.5214844 -0.328125,-1.1132812 -0.328125,-1.7695312 0,-0.6796875 0.108398,-1.2773438 0.328125,-1.7929688 0.216796,-0.5214844 0.550781,-0.9287109 0.996093,-1.21875 0.445313,-0.2958984 1.007813,-0.4453125 1.6875,-0.4453125 0.914063,0 1.628907,0.2783203 2.144532,0.8320313 0.515625,0.5478515 0.773437,1.3330078 0.773437,2.3554687 0,0.070312 -0.0059,0.1523438 -0.01172,0.2460938 0,0.09375 -0.0059,0.1611328 -0.01172,0.1992187 H 54.93195 c 0,0.4394531 0.06445,0.8408203 0.199219,1.2070313 0.140625,0.3603515 0.354492,0.6503906 0.644531,0.8671875 0.295899,0.21972654 0.682617,0.32812497 1.160156,0.32812497 0.515625,0 0.914063,-0.1171875 1.195313,-0.35156247 0.287109,-0.2402344 0.439453,-0.5888672 0.457031,-1.0429688 h 1.136719 c -0.01758,0.46875 -0.140625,0.8759766 -0.375,1.21875002 -0.228516,0.33691407 -0.547852,0.59765625 -0.960938,0.78515625 -0.407226,0.1875 -0.890625,0.28125 -1.453125,0.28125 z M 54.931953,-3.9950781 h 3.644531 c -0.0088,-0.6240235 -0.169922,-1.1015625 -0.480468,-1.4296875 -0.313477,-0.328125 -0.747071,-0.4921875 -1.300782,-0.4921875 -0.55664,0 -0.993164,0.1640625 -1.3125,0.4921875 -0.313476,0.328125 -0.498047,0.805664 -0.550781,1.4296875 z m 0,0"
         style="fill:#e97132;fill-opacity:1;fill-rule:nonzero;stroke:#e97132;stroke-width:0.40114;stroke-linecap:butt;stroke-linejoin:miter;stroke-miterlimit:10;stroke-dasharray:none;stroke-opacity:1"
         aria-label="enthalpie"
         transform="matrix(1.3333333,0,0,1.3333333,177.09333,261.05333)"
         clip-path="url(#clipPath23)" />
    </g>
    <g
       id="g23">
      <path
         id="path24"
         d="M 401.34,403.7 V 253.26 h -4.5 V 403.7 Z m 4.5,-148.19 -6.75,-13.5 -6.75,13.5 z"
         style="fill:#83cbeb;fill-opacity:1;fill-rule:nonzero;stroke:none"
         transform="matrix(1.3333333,0,0,-1.3333333,0,720)" />
    </g>
    <g
       id="g24">
      <path
         id="path25"
         d="M 1.2069531,0.00101562 V -9.2450781 h 1.2421875 v 3.8789062 h 5.0507813 v -3.8789062 h 1.21875 v 9.24609372 h -1.21875 V -4.2880469 H 2.4491406 V 0.00101562 Z M 10.910078,2.4619531 V 1.5127344 h 0.5625 c 0.257813,0 0.474609,-0.070312 0.65625,-0.2109375 0.178711,-0.140625 0.333984,-0.37207034 0.46875,-0.69140628 l 0.257813,-0.609375 -2.671875,-6.69140622 h 1.21875 l 2.0625,5.4726562 1.910156,-5.4726562 h 1.171875 L 14.027266,0.00101562 13.710859,0.80960937 C 13.552656,1.2080469 13.385664,1.5273828 13.206953,1.7705469 13.034102,2.0107812 12.820234,2.1865625 12.562422,2.2978906 12.310469,2.4062891 11.988203,2.4619531 11.589766,2.4619531 Z m 9.480469,-2.33203123 c -0.539063,0 -1.007813,-0.12890625 -1.40625,-0.38671875 -0.398438,-0.26367187 -0.708985,-0.65625 -0.925781,-1.17187502 -0.219727,-0.5214844 -0.328125,-1.1660156 -0.328125,-1.9335937 0,-0.7558594 0.111328,-1.3886719 0.339843,-1.8984375 0.234375,-0.506836 0.5625,-0.890625 0.984375,-1.1484375 0.421875,-0.2636719 0.916993,-0.3984375 1.488282,-0.3984375 0.474609,0 0.890625,0.1054687 1.242187,0.3164062 0.357422,0.2109375 0.644531,0.4921875 0.855469,0.84375 v -3.5976562 h 1.148437 v 9.24609372 h -1.089843 l -0.05859,-0.97265625 c -0.234375,0.32226563 -0.544922,0.5859375 -0.925781,0.796875 -0.375,0.20214844 -0.817383,0.3046875 -1.324219,0.3046875 z m 0.234375,-0.94921875 c 0.492187,0 0.896484,-0.11132812 1.21875,-0.33984372 0.328125,-0.234375 0.591797,-0.515625 0.796875,-0.84375 v -2.5664063 c -0.1875,-0.375 -0.433594,-0.6826172 -0.738281,-0.9257812 -0.304688,-0.2490235 -0.688477,-0.375 -1.148438,-0.375 -0.609375,0 -1.072266,0.2197265 -1.382812,0.65625 -0.304688,0.430664 -0.457032,1.0488281 -0.457032,1.8515625 0,0.8291015 0.143555,1.461914 0.433594,1.8984375 0.287109,0.430664 0.714844,0.64453122 1.277344,0.64453122 z m 5.750976,0.8203125 V -6.6903906 h 1.078125 l 0.04687,1.1484375 c 0.1875,-0.3515625 0.445313,-0.6445313 0.773438,-0.8789063 0.333984,-0.234375 0.773437,-0.3515625 1.3125,-0.3515625 h 0.140625 v 1.0546875 h -0.164063 c -0.336914,0 -0.629882,0.043945 -0.878906,0.1289063 -0.251953,0.087891 -0.46875,0.2080078 -0.65625,0.3632812 -0.1875,0.1494141 -0.357422,0.3251953 -0.503906,0.5273438 v 4.69921872 z m 6.503907,0.12890625 c -0.383789,0 -0.735352,-0.07617187 -1.054688,-0.22265625 -0.313476,-0.14648437 -0.568359,-0.36328125 -0.761719,-0.64453125 -0.1875,-0.28710937 -0.28125,-0.64453127 -0.28125,-1.06640627 0,-0.6005859 0.1875,-1.0576172 0.5625,-1.3710937 0.375,-0.3105469 0.905274,-0.5214844 1.59375,-0.6328125 0.685547,-0.1083985 1.491211,-0.1669922 2.414063,-0.1757813 v -0.46875 c 0,-0.5771484 -0.146484,-0.9726562 -0.433594,-1.1835937 -0.28125,-0.2109375 -0.641601,-0.3164063 -1.078125,-0.3164063 -0.46289,0 -0.852539,0.1171875 -1.171875,0.3515625 -0.313476,0.234375 -0.46875,0.6035156 -0.46875,1.1015625 h -1.113281 c 0,-0.5449219 0.117187,-0.9873047 0.351562,-1.3242187 0.240235,-0.3427735 0.56836,-0.5917969 0.984375,-0.75 0.413086,-0.1552735 0.884766,-0.234375 1.417969,-0.234375 0.342774,0 0.670899,0.035156 0.984375,0.1054687 0.319336,0.064453 0.603516,0.1816406 0.855469,0.3515625 0.249023,0.1640625 0.445312,0.3984375 0.585937,0.703125 0.146485,0.3046875 0.222657,0.7001953 0.222657,1.1835938 v 4.46484372 h -1.066407 l -0.04687,-1.01953122 c -0.313476,0.3457031 -0.673828,0.62109372 -1.078125,0.83203122 -0.398437,0.2109375 -0.873046,0.31640625 -1.417968,0.31640625 z m 0.304687,-0.87890625 c 0.459961,0 0.873047,-0.10839843 1.242188,-0.32812502 0.366211,-0.2167969 0.670898,-0.4921875 0.914062,-0.8203125 v -1.359375 c -1.21875,0.017578 -2.094726,0.1347656 -2.625,0.3515625 -0.524414,0.2109375 -0.785156,0.5625 -0.785156,1.0546875 0,0.3369141 0.105469,0.6064453 0.316406,0.8085938 0.210938,0.19628904 0.521485,0.29296872 0.9375,0.29296872 z m 7.875,0.75 c -0.539062,0 -0.955078,-0.08496093 -1.242187,-0.2578125 C 39.527266,-0.42671875 39.328047,-0.6728125 39.219648,-0.99507813 39.10832,-1.3232031 39.055586,-1.7128516 39.055586,-2.1669531 v -3.5976563 h -1.113281 v -0.9257812 h 1.113281 v -1.5234375 h 1.148437 v 1.5234375 h 1.640625 v 0.9257812 h -1.640625 v 3.5507813 c 0,0.4160156 0.0498,0.7353515 0.152344,0.9609375 0.108399,0.2197265 0.366211,0.32812497 0.773438,0.32812497 h 0.726562 v 0.92578125 z m 4.50586,0.12890625 c -0.38379,0 -0.735352,-0.07617187 -1.054688,-0.22265625 -0.313477,-0.14648437 -0.568359,-0.36328125 -0.761719,-0.64453125 -0.1875,-0.28710937 -0.28125,-0.64453127 -0.28125,-1.06640627 0,-0.6005859 0.1875,-1.0576172 0.5625,-1.3710937 0.375,-0.3105469 0.905274,-0.5214844 1.59375,-0.6328125 0.685547,-0.1083985 1.491211,-0.1669922 2.414063,-0.1757813 v -0.46875 c 0,-0.5771484 -0.146485,-0.9726562 -0.433594,-1.1835937 -0.28125,-0.2109375 -0.641602,-0.3164063 -1.078125,-0.3164063 -0.462891,0 -0.852539,0.1171875 -1.171875,0.3515625 -0.313477,0.234375 -0.46875,0.6035156 -0.46875,1.1015625 h -1.113281 c 0,-0.5449219 0.117187,-0.9873047 0.351562,-1.3242187 0.240235,-0.3427735 0.56836,-0.5917969 0.984375,-0.75 0.413086,-0.1552735 0.884766,-0.234375 1.417969,-0.234375 0.342773,0 0.670898,0.035156 0.984375,0.1054687 0.319336,0.064453 0.603516,0.1816406 0.855469,0.3515625 0.249023,0.1640625 0.445312,0.3984375 0.585937,0.703125 0.146485,0.3046875 0.222657,0.7001953 0.222657,1.1835938 V 0.00101562 H 48.10832 L 48.06145,-1.0185156 c -0.313476,0.3457031 -0.673828,0.62109372 -1.078125,0.83203122 -0.398437,0.2109375 -0.873047,0.31640625 -1.417968,0.31640625 z m 0.304687,-0.87890625 c 0.459961,0 0.873047,-0.10839843 1.242188,-0.32812502 0.36621,-0.2167969 0.670898,-0.4921875 0.914062,-0.8203125 v -1.359375 c -1.21875,0.017578 -2.094727,0.1347656 -2.625,0.3515625 -0.524414,0.2109375 -0.785156,0.5625 -0.785156,1.0546875 0,0.3369141 0.105469,0.6064453 0.316406,0.8085938 0.210938,0.19628904 0.521484,0.29296872 0.9375,0.29296872 z m 7.875,0.75 c -0.539062,0 -0.955078,-0.08496093 -1.242187,-0.2578125 C 52.212812,-0.42671875 52.013594,-0.6728125 51.905195,-0.99507813 51.793867,-1.3232031 51.741133,-1.7128516 51.741133,-2.1669531 v -3.5976563 h -1.113281 v -0.9257812 h 1.113281 v -1.5234375 h 1.148437 v 1.5234375 h 1.640625 v 0.9257812 H 52.88957 v 3.5507813 c 0,0.4160156 0.0498,0.7353515 0.152344,0.9609375 0.108398,0.2197265 0.366211,0.32812497 0.773438,0.32812497 h 0.726562 v 0.92578125 z m 2.783203,0 V -6.6903906 h 1.148438 v 6.69140622 z m 0.574219,-7.94531252 c -0.219727,0 -0.395508,-0.061523 -0.527344,-0.1875 -0.125976,-0.1230469 -0.1875,-0.2841797 -0.1875,-0.4804687 0,-0.1875 0.06152,-0.3427735 0.1875,-0.46875 0.131836,-0.131836 0.307617,-0.1992188 0.527344,-0.1992188 0.216797,0 0.389648,0.067383 0.515625,0.1992188 0.131836,0.1259765 0.199219,0.28125 0.199219,0.46875 0,0.196289 -0.06738,0.3574218 -0.199219,0.4804687 -0.125977,0.1259766 -0.298828,0.1875 -0.515625,0.1875 z m 5.879883,8.05078127 c -0.65625,0 -1.21875,-0.13476562 -1.6875,-0.41015625 -0.462891,-0.28125 -0.817383,-0.67382812 -1.066407,-1.18359372 -0.243164,-0.515625 -0.363281,-1.1279297 -0.363281,-1.8398438 0,-0.7265625 0.120117,-1.3476562 0.363281,-1.8632812 0.249024,-0.5214844 0.603516,-0.9257813 1.066407,-1.2070313 0.46875,-0.28125 1.03125,-0.421875 1.6875,-0.421875 0.670898,0 1.242187,0.140625 1.710937,0.421875 0.47461,0.28125 0.837891,0.6855469 1.089844,1.2070313 0.257812,0.515625 0.386719,1.1367187 0.386719,1.8632812 0,0.7119141 -0.128907,1.3242188 -0.386719,1.8398438 -0.251953,0.5097656 -0.615234,0.90234372 -1.089844,1.18359372 -0.46875,0.27539063 -1.040039,0.41015625 -1.710937,0.41015625 z m 0,-0.9140625 c 0.492187,0 0.881836,-0.10546875 1.171875,-0.31640627 0.295898,-0.2167969 0.506836,-0.5185547 0.632812,-0.9023437 0.131836,-0.3808594 0.199219,-0.8144532 0.199219,-1.3007813 0,-0.4921875 -0.06738,-0.9316406 -0.199219,-1.3242187 -0.125976,-0.3896485 -0.336914,-0.694336 -0.632812,-0.9140625 -0.290039,-0.225586 -0.679688,-0.3398438 -1.171875,-0.3398438 -0.477539,0 -0.855469,0.1142578 -1.136719,0.3398438 -0.28125,0.2197265 -0.486328,0.524414 -0.609375,0.9140625 -0.125977,0.3925781 -0.1875,0.8320312 -0.1875,1.3242187 0,0.4863281 0.06152,0.9199219 0.1875,1.3007813 0.123047,0.383789 0.328125,0.6855468 0.609375,0.9023437 0.28125,0.21093752 0.65918,0.31640627 1.136719,0.31640627 z M 68.27043,0.00101562 V -6.6903906 h 1.101562 l 0.04687,1.03125 c 0.202149,-0.2636719 0.495117,-0.5185547 0.878906,-0.7617188 0.38086,-0.2402344 0.873047,-0.3632812 1.476563,-0.3632812 0.732422,0 1.265625,0.2197265 1.59375,0.65625 0.333984,0.430664 0.503906,1.0371093 0.503906,1.8164062 V 0.00101562 H 72.735273 V -4.1474219 c 0,-0.328125 -0.03516,-0.6152344 -0.105468,-0.8671875 -0.07031,-0.2490234 -0.196289,-0.4453125 -0.375,-0.5859375 -0.172852,-0.1464844 -0.427735,-0.2226562 -0.761719,-0.2226562 -0.500977,0 -0.919922,0.1142578 -1.253906,0.3398437 -0.336914,0.2285156 -0.609375,0.4775391 -0.820313,0.75 v 4.73437502 z m 10.511718,0.12890625 c -0.375,0 -0.732421,-0.04394531 -1.066406,-0.12890625 -0.336914,-0.08496093 -0.632812,-0.21386718 -0.890625,-0.38671875 -0.251953,-0.17871093 -0.451172,-0.41308593 -0.597656,-0.70312497 -0.140625,-0.2958985 -0.210938,-0.647461 -0.210938,-1.0546875 h 1.101563 c 0,0.515625 0.158203,0.8847656 0.480469,1.1015625 0.328125,0.21093747 0.732422,0.31640622 1.21875,0.31640622 0.427734,0 0.785156,-0.0820313 1.066406,-0.24609375 0.287109,-0.16992187 0.433594,-0.44824217 0.433594,-0.83203127 0,-0.328125 -0.128907,-0.5683594 -0.386719,-0.7265625 -0.251953,-0.1640625 -0.700195,-0.3222656 -1.347656,-0.4804687 -0.515625,-0.1171875 -0.955078,-0.2578125 -1.3125,-0.421875 -0.360352,-0.1640625 -0.629883,-0.3691407 -0.808594,-0.6210938 -0.172852,-0.2490234 -0.257813,-0.5654297 -0.257813,-0.9492187 0,-0.2958985 0.06152,-0.5566407 0.1875,-0.7851563 0.123047,-0.2255859 0.298829,-0.4130859 0.527344,-0.5625 0.225586,-0.1464844 0.492188,-0.2607422 0.796875,-0.3398437 0.304688,-0.076172 0.635742,-0.1171875 0.996094,-0.1171875 0.351562,0 0.679687,0.043945 0.984375,0.1289062 0.310547,0.079102 0.585937,0.2080078 0.820312,0.3867188 0.240235,0.1728515 0.427735,0.3955078 0.5625,0.6679687 0.140625,0.2753906 0.210938,0.6035156 0.210938,0.984375 H 80.17668 c 0,-0.46875 -0.146485,-0.7998047 -0.433594,-0.9960937 -0.28125,-0.2021485 -0.626953,-0.3046875 -1.03125,-0.3046875 -0.416016,0 -0.75,0.076172 -1.007813,0.2226562 -0.251953,0.1494141 -0.375,0.3808594 -0.375,0.6914063 0,0.1728515 0.05273,0.3222656 0.164063,0.4453125 0.117187,0.1259765 0.307617,0.2402343 0.574219,0.3398437 0.272461,0.09375 0.638672,0.1962891 1.101562,0.3046875 0.498047,0.1171875 0.916992,0.2636719 1.253906,0.4335938 0.333985,0.1640625 0.588868,0.375 0.761719,0.6328125 0.169922,0.2578125 0.257813,0.5859375 0.257813,0.984375 0,0.3515625 -0.06738,0.65625 -0.199219,0.91406247 -0.134766,0.25195313 -0.322266,0.45703125 -0.5625,0.62109375 -0.243164,0.1640625 -0.524414,0.28710938 -0.84375,0.36328125 -0.322266,0.07617188 -0.673828,0.1171875 -1.054688,0.1171875 z m 0,0"
         style="fill:#83caeb;fill-opacity:1;fill-rule:nonzero;stroke:#83caeb;stroke-width:0.40183;stroke-linecap:butt;stroke-linejoin:miter;stroke-miterlimit:10;stroke-dasharray:none;stroke-opacity:1"
         aria-label="Hydratations"
         transform="matrix(1.3333333,0,0,1.3333333,556.22667,338.05333)"
         clip-path="url(#clipPath26)" />
      <path
         id="path27"
         d="M 0.67832031,-2.9052344 V -3.9247656 H 4.1001953 v 1.0195312 z m 0,0"
         style="fill:#83caeb;fill-opacity:1;fill-rule:nonzero;stroke:#83caeb;stroke-width:0.40183;stroke-linecap:butt;stroke-linejoin:miter;stroke-miterlimit:10;stroke-dasharray:none;stroke-opacity:1"
         aria-label="-"
         transform="matrix(1.3333333,0,0,1.3333333,666.46667,338.05333)"
         clip-path="url(#clipPath28)" />
      <path
         id="path29"
         d="m 3.8788281,0.129375 c -0.7265625,0 -1.3242187,-0.15234375 -1.7929687,-0.45703125 C 1.6229687,-0.63234375 1.2801953,-1.0454297 1.0546094,-1.5698438 0.83488281,-2.0913281 0.72648437,-2.683125 0.72648437,-3.339375 c 0,-0.6796875 0.10839844,-1.2773438 0.32812503,-1.7929688 0.2167968,-0.5214843 0.5507812,-0.9287109 0.9960937,-1.21875 0.4453125,-0.2958984 1.0078125,-0.4453125 1.6875,-0.4453125 0.9140625,0 1.6289063,0.2783204 2.1445313,0.8320313 0.515625,0.5478516 0.7734375,1.3330078 0.7734375,2.3554687 0,0.070312 -0.00586,0.1523438 -0.011719,0.2460938 0,0.09375 -0.00586,0.1611328 -0.011719,0.1992187 h -4.757812 c 0,0.4394532 0.064453,0.8408204 0.1992187,1.2070313 0.140625,0.3603516 0.3544922,0.6503906 0.6445313,0.8671875 0.2958984,0.21972656 0.6826172,0.328125 1.1601562,0.328125 0.515625,0 0.9140625,-0.1171875 1.1953125,-0.3515625 0.2871094,-0.2402344 0.4394531,-0.5888672 0.4570313,-1.0429688 h 1.1367187 c -0.017578,0.46875 -0.140625,0.8759766 -0.375,1.21875005 C 6.064375,-0.60011719 5.7450391,-0.339375 5.3319531,-0.151875 c -0.4072265,0.1875 -0.890625,0.28125 -1.453125,0.28125 z m -2.0039062,-4.125 H 5.5194531 C 5.5106641,-4.6196484 5.3495312,-5.0971875 5.0389844,-5.4253125 4.7255078,-5.7534375 4.2919141,-5.9175 3.7382031,-5.9175 c -0.5566406,0 -0.993164,0.1640625 -1.3125,0.4921875 -0.3134765,0.328125 -0.4980469,0.8056641 -0.5507812,1.4296875 z M 8.8944531,4.6875e-4 V -6.6792188 h 1.1015625 l 0.035156,1.03125 c 0.210937,-0.2724609 0.506836,-0.5273437 0.890625,-0.7617187 0.380859,-0.2402344 0.873047,-0.3632813 1.476562,-0.3632813 0.726563,0 1.256836,0.2197266 1.59375,0.65625 0.333985,0.4306641 0.503907,1.0371094 0.503907,1.8164063 V 4.6875e-4 H 13.347578 V -4.13625 c 0,-0.328125 -0.03516,-0.6152344 -0.105469,-0.8671875 -0.07031,-0.2490234 -0.196289,-0.4453125 -0.375,-0.5859375 -0.172851,-0.1464844 -0.421875,-0.2226563 -0.75,-0.2226563 -0.500976,0 -0.922851,0.1142579 -1.265625,0.3398438 -0.336914,0.2285156 -0.606445,0.4746094 -0.808593,0.7382812 V 4.6875e-4 Z m 10.3681639,0 c -0.539062,0 -0.955078,-0.08496094 -1.242187,-0.2578125 C 17.73918,-0.42726563 17.542891,-0.67335938 17.434492,-0.995625 17.323164,-1.3149609 17.27043,-1.7016797 17.27043,-2.1557813 v -3.5976562 h -1.113282 v -0.9257813 h 1.113282 v -1.5234375 h 1.136718 v 1.5234375 h 1.652344 v 0.9257813 h -1.652344 v 3.5390625 c 0,0.4160156 0.05274,0.7353516 0.164063,0.9609375 0.108398,0.2197266 0.366211,0.328125 0.773437,0.328125 h 0.726563 V 4.6875e-4 Z m 2.800781,0 V -9.2221875 h 1.136719 v 3.5742187 c 0.210938,-0.2724609 0.506836,-0.5273437 0.890625,-0.7617187 0.38086,-0.2402344 0.870117,-0.3632813 1.464844,-0.3632813 0.75,0 1.289062,0.2167969 1.617187,0.6445313 0.328125,0.4306641 0.492188,1.0400391 0.492188,1.828125 V 4.6875e-4 H 26.516523 V -4.1479688 c 0,-0.3193359 -0.03516,-0.6035156 -0.105468,-0.8554687 -0.06445,-0.2490234 -0.184571,-0.4453125 -0.363282,-0.5859375 -0.18164,-0.1464844 -0.433593,-0.2226563 -0.761718,-0.2226563 -0.500977,0 -0.922852,0.1142579 -1.265625,0.3398438 -0.336914,0.2285156 -0.606446,0.4746094 -0.808594,0.7382812 V 4.6875e-4 Z M 31.930586,0.129375 c -0.383789,0 -0.735352,-0.07617188 -1.054688,-0.22265625 -0.313476,-0.14648438 -0.568359,-0.36328125 -0.761718,-0.64453125 -0.1875,-0.2871094 -0.28125,-0.6445313 -0.28125,-1.0664063 0,-0.5917968 0.1875,-1.0458984 0.5625,-1.359375 0.375,-0.3105468 0.902343,-0.5214843 1.582031,-0.6328125 0.685547,-0.1171875 1.491211,-0.1787109 2.414062,-0.1875 v -0.46875 c 0,-0.5683593 -0.146484,-0.9609375 -0.433593,-1.171875 -0.28125,-0.2109375 -0.638672,-0.3164062 -1.066407,-0.3164062 -0.46289,0 -0.852539,0.1171875 -1.171875,0.3515625 -0.313476,0.234375 -0.46875,0.6035156 -0.46875,1.1015625 h -1.113281 c 0,-0.5449219 0.117188,-0.9873047 0.351563,-1.3242188 0.240234,-0.3427734 0.565429,-0.5917968 0.972656,-0.75 0.413086,-0.1552734 0.890625,-0.234375 1.429687,-0.234375 0.342774,0 0.670899,0.035156 0.984375,0.1054688 0.310547,0.064453 0.591797,0.1816406 0.84375,0.3515625 0.249024,0.1640625 0.445313,0.3984375 0.585938,0.703125 0.146484,0.3046875 0.222656,0.6972656 0.222656,1.171875 V 4.6875e-4 H 34.461836 L 34.414966,-1.0190625 C 34.110278,-0.67335938 33.752857,-0.39796875 33.34856,-0.18703125 32.941328,0.02390625 32.469648,0.129375 31.930586,0.129375 Z m 0.304687,-0.87890625 c 0.451172,0 0.861329,-0.10546875 1.230469,-0.31640625 0.366211,-0.2167969 0.670899,-0.4921875 0.914063,-0.8203125 v -1.359375 c -1.212891,0.00879 -2.083008,0.1230469 -2.613282,0.3398437 -0.524414,0.2109375 -0.785156,0.5625 -0.785156,1.0546875 0,0.3369141 0.105469,0.6064454 0.316406,0.8085938 0.210938,0.19628906 0.521485,0.29296875 0.9375,0.29296875 z m 7.684571,0.75 c -0.547852,0 -0.966797,-0.08496094 -1.253907,-0.2578125 C 38.384687,-0.42726563 38.188398,-0.67335938 38.08,-0.995625 37.977461,-1.3149609 37.927656,-1.7016797 37.927656,-2.1557813 v -7.0664062 h 1.136719 v 7.0078125 c 0,0.4160156 0.0498,0.7324219 0.152344,0.9492187 0.108398,0.2197266 0.366211,0.32812505 0.773437,0.32812505 h 0.316406 v 0.9375 z m 2.261718,2.44921875 v -9.1289063 h 1.113282 L 43.33,-5.589375 c 0.234375,-0.3515625 0.539062,-0.6386719 0.914062,-0.8671875 0.38086,-0.2255859 0.823243,-0.3398438 1.324219,-0.3398438 0.544922,0 1.019531,0.1289063 1.417969,0.3867188 0.398437,0.2578125 0.703125,0.6445312 0.914062,1.1601562 0.216797,0.5097657 0.328125,1.1455079 0.328125,1.9101563 0,0.7587891 -0.117187,1.3945312 -0.351562,1.9101562 -0.228516,0.50976567 -0.550781,0.89648442 -0.972656,1.1601563 -0.421875,0.26660156 -0.914063,0.3984375 -1.476563,0.3984375 -0.477539,0 -0.896484,-0.09375 -1.253906,-0.28125 -0.351563,-0.19335938 -0.638672,-0.45703125 -0.855469,-0.78515625 V 2.4496875 Z m 3.035157,-3.26953125 c 0.609375,0 1.066406,-0.21386715 1.371093,-0.64453125 0.310547,-0.4365234 0.46875,-1.0605469 0.46875,-1.875 0,-0.8203125 -0.146484,-1.4443359 -0.433593,-1.875 -0.290039,-0.4365234 -0.714844,-0.65625 -1.277344,-0.65625 -0.486328,0 -0.896484,0.1347656 -1.230469,0.3984375 C 43.778242,-5.214375 43.5175,-4.9126172 43.33,-4.5698438 v 2.578125 c 0.178711,0.3515625 0.424805,0.6386719 0.738281,0.8554688 0.310547,0.2109375 0.694336,0.31640625 1.148438,0.31640625 z M 50.45207,4.6875e-4 V -6.6792188 h 1.148438 V 4.6875e-4 Z M 51.026289,-7.933125 c -0.219727,0 -0.395508,-0.061523 -0.527344,-0.1875 -0.125976,-0.1230469 -0.1875,-0.2841797 -0.1875,-0.4804688 0,-0.1875 0.06152,-0.3427734 0.1875,-0.46875 0.131836,-0.1230468 0.307617,-0.1875 0.527344,-0.1875 0.210938,0 0.380859,0.064453 0.515625,0.1875 0.131836,0.1259766 0.199219,0.28125 0.199219,0.46875 0,0.1962891 -0.06738,0.3574219 -0.199219,0.4804688 -0.134766,0.1259766 -0.304687,0.1875 -0.515625,0.1875 z m 5.90918,8.0625 c -0.726563,0 -1.324219,-0.15234375 -1.792969,-0.45703125 -0.462891,-0.3046875 -0.805664,-0.71777345 -1.03125,-1.24218755 -0.219727,-0.5214843 -0.328125,-1.1132812 -0.328125,-1.7695312 0,-0.6796875 0.108398,-1.2773438 0.328125,-1.7929688 0.216797,-0.5214843 0.550781,-0.9287109 0.996094,-1.21875 0.445312,-0.2958984 1.007812,-0.4453125 1.6875,-0.4453125 0.914062,0 1.628906,0.2783204 2.144531,0.8320313 0.515625,0.5478516 0.773437,1.3330078 0.773437,2.3554687 0,0.070312 -0.0059,0.1523438 -0.01172,0.2460938 0,0.09375 -0.0059,0.1611328 -0.01172,0.1992187 h -4.757813 c 0,0.4394532 0.06445,0.8408204 0.199219,1.2070313 0.140625,0.3603516 0.354492,0.6503906 0.644531,0.8671875 0.295899,0.21972656 0.682618,0.328125 1.160157,0.328125 0.515625,0 0.914062,-0.1171875 1.195312,-0.3515625 0.28711,-0.2402344 0.439453,-0.5888672 0.457031,-1.0429688 h 1.136719 c -0.01758,0.46875 -0.140625,0.8759766 -0.375,1.21875005 -0.228515,0.33691406 -0.547851,0.59765625 -0.960937,0.78515625 -0.407227,0.1875 -0.890625,0.28125 -1.453125,0.28125 z m -2.003907,-4.125 h 3.644532 c -0.0088,-0.6240234 -0.169922,-1.1015625 -0.480469,-1.4296875 -0.313477,-0.328125 -0.74707,-0.4921875 -1.300781,-0.4921875 -0.556641,0 -0.993164,0.1640625 -1.3125,0.4921875 -0.313477,0.328125 -0.498047,0.8056641 -0.550782,1.4296875 z m 0,0"
         style="fill:#83caeb;fill-opacity:1;fill-rule:nonzero;stroke:#83caeb;stroke-width:0.40114;stroke-linecap:butt;stroke-linejoin:miter;stroke-miterlimit:10;stroke-dasharray:none;stroke-opacity:1"
         aria-label="enthalpie"
         transform="matrix(1.3333333,0,0,1.3333333,556.22667,360.64)"
         clip-path="url(#clipPath30)" />
    </g>
    <g
       id="g30">
      <path
         id="path31"
         d="M 1.2073828,0.00101562 V -9.2450781 h 1.2421875 v 8.1796875 h 4.3125 v 1.06640622 z m 9.9345702,0.10546875 c -0.65625,0 -1.2187499,-0.13476562 -1.6874999,-0.41015625 C 8.9915625,-0.58492188 8.6370703,-0.9775 8.3880469,-1.4872656 8.1448828,-2.0028906 8.0247656,-2.6151953 8.0247656,-3.3271094 c 0,-0.7265625 0.1201172,-1.3476562 0.3632813,-1.8632812 0.2490234,-0.5214844 0.6035156,-0.9257813 1.0664062,-1.2070313 0.46875,-0.28125 1.0312499,-0.421875 1.6874999,-0.421875 0.670899,0 1.242188,0.140625 1.710938,0.421875 0.474609,0.28125 0.83789,0.6855469 1.089843,1.2070313 0.257813,0.515625 0.386719,1.1367187 0.386719,1.8632812 0,0.7119141 -0.128906,1.3242188 -0.386719,1.8398438 -0.251953,0.5097656 -0.615234,0.90234372 -1.089843,1.18359372 -0.46875,0.27539063 -1.040039,0.41015625 -1.710938,0.41015625 z m 0,-0.9140625 c 0.492188,0 0.881836,-0.10546875 1.171875,-0.31640627 0.295899,-0.2167969 0.506836,-0.5185547 0.632813,-0.9023437 0.131836,-0.3808594 0.199218,-0.8144532 0.199218,-1.3007813 0,-0.4921875 -0.06738,-0.9316406 -0.199218,-1.3242187 -0.125977,-0.3896485 -0.336914,-0.694336 -0.632813,-0.9140625 -0.290039,-0.225586 -0.679687,-0.3398438 -1.171875,-0.3398438 -0.477539,0 -0.855469,0.1142578 -1.136719,0.3398438 -0.2812496,0.2197265 -0.4863278,0.524414 -0.6093746,0.9140625 -0.1259766,0.3925781 -0.1875,0.8320312 -0.1875,1.3242187 0,0.4863281 0.061523,0.9199219 0.1875,1.3007813 0.1230468,0.383789 0.328125,0.6855468 0.6093746,0.9023437 0.28125,0.21093752 0.65918,0.31640627 1.136719,0.31640627 z m 1.230469,-7.18359377 c -0.181641,0 -0.333985,-0.052734 -0.457031,-0.1640625 -0.117188,-0.1171875 -0.175782,-0.2695312 -0.175782,-0.4570312 0,-0.178711 0.05859,-0.328125 0.175782,-0.4453125 0.123046,-0.1171875 0.27539,-0.1757813 0.457031,-0.1757813 0.1875,0 0.339844,0.058594 0.457031,0.1757813 0.123047,0.1171875 0.1875,0.2666015 0.1875,0.4453125 0,0.1875 -0.06445,0.3398437 -0.1875,0.4570312 -0.117187,0.1113281 -0.269531,0.1640625 -0.457031,0.1640625 z m -2.4140626,0 c -0.1816407,0 -0.3339844,-0.052734 -0.4570313,-0.1640625 -0.1259765,-0.1171875 -0.1875,-0.2695312 -0.1875,-0.4570312 0,-0.178711 0.061523,-0.328125 0.1875,-0.4453125 0.1230469,-0.1171875 0.2753906,-0.1757813 0.4570313,-0.1757813 0.1787106,0 0.3310546,0.058594 0.4570316,0.1757813 0.123046,0.1171875 0.1875,0.2666015 0.1875,0.4453125 0,0.1875 -0.06445,0.3398437 -0.1875,0.4570312 -0.125977,0.1113281 -0.278321,0.1640625 -0.4570316,0.1640625 z m 8.8388676,8.12109377 c -0.375,0 -0.732422,-0.04394531 -1.066407,-0.12890625 -0.336914,-0.08496093 -0.632812,-0.21386718 -0.890625,-0.38671875 -0.251953,-0.17871093 -0.451172,-0.41308593 -0.597656,-0.70312497 -0.140625,-0.2958985 -0.210937,-0.647461 -0.210937,-1.0546875 h 1.101562 c 0,0.515625 0.158203,0.8847656 0.480469,1.1015625 0.328125,0.21093747 0.732422,0.31640622 1.21875,0.31640622 0.427734,0 0.785156,-0.0820313 1.066406,-0.24609375 0.287109,-0.16992187 0.433594,-0.44824217 0.433594,-0.83203127 0,-0.328125 -0.128906,-0.5683594 -0.386719,-0.7265625 -0.251953,-0.1640625 -0.700195,-0.3222656 -1.347656,-0.4804687 -0.515625,-0.1171875 -0.955078,-0.2578125 -1.3125,-0.421875 -0.360352,-0.1640625 -0.629883,-0.3691407 -0.808594,-0.6210938 -0.172852,-0.2490234 -0.257812,-0.5654297 -0.257812,-0.9492187 0,-0.2958985 0.06152,-0.5566407 0.1875,-0.7851563 0.123046,-0.2255859 0.298828,-0.4130859 0.527343,-0.5625 0.225586,-0.1464844 0.492188,-0.2607422 0.796875,-0.3398437 0.304688,-0.076172 0.635742,-0.1171875 0.996094,-0.1171875 0.351563,0 0.679688,0.043945 0.984375,0.1289062 0.310547,0.079102 0.585938,0.2080078 0.820313,0.3867188 0.240234,0.1728515 0.427734,0.3955078 0.5625,0.6679687 0.140625,0.2753906 0.210937,0.6035156 0.210937,0.984375 h -1.113281 c 0,-0.46875 -0.146485,-0.7998047 -0.433594,-0.9960937 -0.28125,-0.2021485 -0.626953,-0.3046875 -1.03125,-0.3046875 -0.416016,0 -0.75,0.076172 -1.007812,0.2226562 -0.251954,0.1494141 -0.375,0.3808594 -0.375,0.6914063 0,0.1728515 0.05273,0.3222656 0.164062,0.4453125 0.117188,0.1259765 0.307617,0.2402343 0.574219,0.3398437 0.272461,0.09375 0.638672,0.1962891 1.101562,0.3046875 0.498047,0.1171875 0.916992,0.2636719 1.253907,0.4335938 0.333984,0.1640625 0.588867,0.375 0.761718,0.6328125 0.169922,0.2578125 0.257813,0.5859375 0.257813,0.984375 0,0.3515625 -0.06738,0.65625 -0.199219,0.91406247 -0.134766,0.25195313 -0.322266,0.45703125 -0.5625,0.62109375 -0.243164,0.1640625 -0.524414,0.28710938 -0.84375,0.36328125 -0.322266,0.07617188 -0.673828,0.1171875 -1.054687,0.1171875 z m 6.940429,-0.0234375 c -0.773437,0 -1.333008,-0.21386718 -1.675781,-0.64453125 C 23.716172,-0.96578125 23.54625,-1.5605078 23.54625,-2.3192969 v -4.3710937 h 1.160156 v 4.2070312 c 0,0.3046875 0.0293,0.5800781 0.09375,0.8203125 0.07031,0.234375 0.202149,0.4189453 0.398438,0.5507813 0.193359,0.1347656 0.471679,0.19921872 0.832031,0.19921872 0.498047,0 0.916992,-0.0996094 1.253906,-0.30468752 0.342774,-0.2109375 0.621094,-0.4511719 0.832031,-0.7265625 V -6.6903906 H 29.265 v 6.69140622 h -1.101563 l -0.03516,-1.03125002 c -0.219726,0.26660159 -0.524414,0.52441409 -0.914062,0.77343752 -0.392578,0.24316407 -0.884766,0.36328125 -1.476563,0.36328125 z M 31.761094,0.00101562 V -6.6903906 h 1.101562 l 0.04687,1.03125 c 0.202149,-0.2636719 0.495117,-0.5185547 0.878906,-0.7617188 0.38086,-0.2402344 0.873047,-0.3632812 1.476563,-0.3632812 0.732422,0 1.265625,0.2197265 1.59375,0.65625 0.333984,0.430664 0.503906,1.0371093 0.503906,1.8164062 V 0.00101562 H 36.225937 V -4.1474219 c 0,-0.328125 -0.03516,-0.6152344 -0.105468,-0.8671875 -0.07031,-0.2490234 -0.196289,-0.4453125 -0.375,-0.5859375 -0.172852,-0.1464844 -0.427735,-0.2226562 -0.761719,-0.2226562 -0.500977,0 -0.919922,0.1142578 -1.253906,0.3398437 -0.336914,0.2285156 -0.609375,0.4775391 -0.820313,0.75 V 0.00101562 Z M 42.234727,2.5908594 c -0.726563,0 -1.306641,-0.082031 -1.734375,-0.2460938 -0.430665,-0.1640625 -0.744141,-0.3867187 -0.9375,-0.6679687 -0.19629,-0.2753907 -0.292969,-0.5712891 -0.292969,-0.89062503 0,-0.38378906 0.164062,-0.7265625 0.492187,-1.03125 0.333985,-0.3046875 0.84961,-0.51855468 1.546875,-0.64453125 l 0.222657,-0.37500002 h 0.84375 c 1.092773,0 1.875,0.1494141 2.34375,0.44531252 0.474609,0.29003907 0.714843,0.73828125 0.714843,1.34765625 0,0.60058593 -0.269531,1.09277343 -0.808593,1.47656253 -0.539063,0.3896484 -1.335938,0.5859375 -2.390625,0.5859375 z m -0.02344,-0.8320313 c 0.773438,0 1.318359,-0.1113281 1.640625,-0.328125 0.319336,-0.2197265 0.480469,-0.49218748 0.480469,-0.82031248 0,-0.1875 -0.05566,-0.3515625 -0.164063,-0.4921875 -0.111328,-0.140625 -0.310547,-0.24902343 -0.597656,-0.328125 -0.290039,-0.0761719 -0.703125,-0.1171875 -1.242187,-0.1171875 h -1.019532 c -0.304687,0.0791016 -0.544922,0.2109375 -0.714843,0.3984375 -0.172852,0.1875 -0.257813,0.40429688 -0.257813,0.65625 0,0.27246098 0.143555,0.50976558 0.433594,0.71484378 0.287109,0.2109375 0.767578,0.3164062 1.441406,0.3164062 z m -0.91406,-2.14453123 C 40.857773,-0.43257813 40.515,-0.52046875 40.265977,-0.65523438 40.014023,-0.79585938 39.835312,-0.94820313 39.726914,-1.1122656 39.624375,-1.2821875 39.57457,-1.44625 39.57457,-1.6044531 c 0,-0.2167969 0.08789,-0.4248047 0.269532,-0.6210938 0.1875,-0.2021484 0.483398,-0.3691406 0.890625,-0.5039062 l 0.574218,0.3632812 c -0.243164,0.070312 -0.439453,0.1611328 -0.585937,0.2695313 -0.140625,0.102539 -0.210938,0.2197265 -0.210938,0.3515625 0,0.09375 0.04102,0.1757812 0.128907,0.2460937 0.08496,0.070312 0.228515,0.1289063 0.433593,0.1757813 0.202149,0.041016 0.486328,0.058594 0.855469,0.058594 z m 0.855468,-1.78124997 c -0.547851,0 -1.013672,-0.1054688 -1.394531,-0.3164063 -0.383789,-0.2109375 -0.676758,-0.4863281 -0.878906,-0.8320312 -0.196289,-0.3515625 -0.292969,-0.7265625 -0.292969,-1.125 0,-0.4277344 0.09668,-0.8144532 0.292969,-1.1601563 0.202148,-0.3515625 0.495117,-0.6269531 0.878906,-0.8320312 0.389648,-0.2021485 0.867188,-0.3046875 1.429688,-0.3046875 0.568359,0 1.042968,0.102539 1.417968,0.3046875 0.38086,0.2050781 0.667969,0.4804687 0.855469,0.8320312 0.1875,0.3457031 0.28125,0.7324219 0.28125,1.1601563 0,0.4160156 -0.09375,0.7939453 -0.28125,1.1367187 -0.1875,0.3457031 -0.477539,0.6210938 -0.867187,0.8320313 -0.38379,0.2050781 -0.864258,0.3046875 -1.441407,0.3046875 z m -0.01172,-0.7734375 c 0.445312,0 0.808593,-0.1230469 1.089843,-0.375 0.28711,-0.2578125 0.433594,-0.6328125 0.433594,-1.125 0,-0.515625 -0.137695,-0.8964844 -0.410156,-1.1484375 -0.266602,-0.2490235 -0.621094,-0.375 -1.066406,-0.375 -0.439454,0 -0.802735,0.1289062 -1.089844,0.3867187 -0.28125,0.2519531 -0.421875,0.6269531 -0.421875,1.125 0,0.5097656 0.146484,0.8876953 0.445312,1.1367188 0.295899,0.2519531 0.635742,0.375 1.019532,0.375 z m 1.757812,-3.0703125 -0.46875,-0.4335938 c 0.193359,-0.4277344 0.451172,-0.7207031 0.773438,-0.8789062 0.319335,-0.1552735 0.729492,-0.2373047 1.230468,-0.2460938 v 0.9609375 c -0.322265,0 -0.618164,0.035156 -0.890625,0.1054688 -0.266601,0.064453 -0.480468,0.2285156 -0.644531,0.4921875 z m 5.560547,6.14062497 c -0.375,0 -0.732422,-0.04394531 -1.066406,-0.12890625 -0.336914,-0.08496093 -0.632813,-0.21386718 -0.890625,-0.38671875 -0.251953,-0.17871093 -0.451172,-0.41308593 -0.597657,-0.70312497 -0.140625,-0.2958985 -0.210937,-0.647461 -0.210937,-1.0546875 h 1.101562 c 0,0.515625 0.158204,0.8847656 0.480469,1.1015625 0.328125,0.21093747 0.732422,0.31640622 1.21875,0.31640622 0.427735,0 0.785156,-0.0820313 1.066406,-0.24609375 0.28711,-0.16992187 0.433594,-0.44824217 0.433594,-0.83203127 0,-0.328125 -0.128906,-0.5683594 -0.386719,-0.7265625 -0.251953,-0.1640625 -0.700195,-0.3222656 -1.347656,-0.4804687 -0.515625,-0.1171875 -0.955078,-0.2578125 -1.3125,-0.421875 -0.360351,-0.1640625 -0.629883,-0.3691407 -0.808594,-0.6210938 -0.172851,-0.2490234 -0.257812,-0.5654297 -0.257812,-0.9492187 0,-0.2958985 0.06152,-0.5566407 0.1875,-0.7851563 0.123047,-0.2255859 0.298828,-0.4130859 0.527344,-0.5625 0.225586,-0.1464844 0.492187,-0.2607422 0.796875,-0.3398437 0.304687,-0.076172 0.635742,-0.1171875 0.996093,-0.1171875 0.351563,0 0.679688,0.043945 0.984375,0.1289062 0.310547,0.079102 0.585938,0.2080078 0.820313,0.3867188 0.240234,0.1728515 0.427734,0.3955078 0.5625,0.6679687 0.140625,0.2753906 0.210937,0.6035156 0.210937,0.984375 h -1.113281 c 0,-0.46875 -0.146484,-0.7998047 -0.433594,-0.9960937 -0.28125,-0.2021485 -0.626953,-0.3046875 -1.03125,-0.3046875 -0.416015,0 -0.75,0.076172 -1.007812,0.2226562 -0.251953,0.1494141 -0.375,0.3808594 -0.375,0.6914063 0,0.1728515 0.05273,0.3222656 0.164062,0.4453125 0.117188,0.1259765 0.307618,0.2402343 0.574219,0.3398437 0.272461,0.09375 0.638672,0.1962891 1.101563,0.3046875 0.498047,0.1171875 0.916992,0.2636719 1.253906,0.4335938 0.333984,0.1640625 0.588867,0.375 0.761719,0.6328125 0.169922,0.2578125 0.257812,0.5859375 0.257812,0.984375 0,0.3515625 -0.06738,0.65625 -0.199219,0.91406247 -0.134765,0.25195313 -0.322265,0.45703125 -0.5625,0.62109375 -0.243164,0.1640625 -0.524414,0.28710938 -0.84375,0.36328125 -0.322265,0.07617188 -0.673828,0.1171875 -1.054687,0.1171875 z m 0,0"
         style="fill:#92d050;fill-opacity:1;fill-rule:nonzero;stroke:#92d050;stroke-width:0.40183;stroke-linecap:butt;stroke-linejoin:miter;stroke-miterlimit:10;stroke-dasharray:none;stroke-opacity:1"
         aria-label="Lsungs"
         transform="matrix(1.3333333,0,0,1.3333333,324.48,338.05333)"
         clip-path="url(#clipPath32)" />
      <path
         id="path33"
         d="M 0.67933594,-2.9052344 V -3.9247656 H 4.1012109 v 1.0195312 z m 0,0"
         style="fill:#92d050;fill-opacity:1;fill-rule:nonzero;stroke:#92d050;stroke-width:0.40183;stroke-linecap:butt;stroke-linejoin:miter;stroke-miterlimit:10;stroke-dasharray:none;stroke-opacity:1"
         aria-label="-"
         transform="matrix(1.3333333,0,0,1.3333333,395.52,338.05333)"
         clip-path="url(#clipPath34)" />
      <path
         id="path35"
         d="m 3.8792578,0.129375 c -0.7265625,0 -1.3242187,-0.15234375 -1.7929687,-0.45703125 C 1.6233984,-0.63234375 1.280625,-1.0454297 1.0550391,-1.5698438 0.8353125,-2.0913281 0.72691406,-2.683125 0.72691406,-3.339375 c 0,-0.6796875 0.10839844,-1.2773438 0.32812504,-1.7929688 0.2167968,-0.5214843 0.5507812,-0.9287109 0.9960937,-1.21875 0.4453125,-0.2958984 1.0078125,-0.4453125 1.6875,-0.4453125 0.9140625,0 1.6289063,0.2783204 2.1445313,0.8320313 0.515625,0.5478516 0.7734375,1.3330078 0.7734375,2.3554687 0,0.070312 -0.00586,0.1523438 -0.011719,0.2460938 0,0.09375 -0.00586,0.1611328 -0.011719,0.1992187 h -4.757812 c 0,0.4394532 0.064453,0.8408204 0.1992187,1.2070313 0.140625,0.3603516 0.3544922,0.6503906 0.6445313,0.8671875 0.2958984,0.21972656 0.6826171,0.328125 1.1601562,0.328125 0.515625,0 0.9140625,-0.1171875 1.1953125,-0.3515625 0.2871094,-0.2402344 0.4394531,-0.5888672 0.4570313,-1.0429688 h 1.1367187 c -0.017578,0.46875 -0.140625,0.8759766 -0.375,1.21875005 -0.2285156,0.33691406 -0.5478516,0.59765625 -0.9609375,0.78515625 -0.4072266,0.1875 -0.890625,0.28125 -1.453125,0.28125 z m -2.0039062,-4.125 H 5.5198828 C 5.5110937,-4.6196484 5.3499609,-5.0971875 5.0394141,-5.4253125 4.7259375,-5.7534375 4.2923437,-5.9175 3.7386328,-5.9175 c -0.5566406,0 -0.9931641,0.1640625 -1.3125,0.4921875 -0.3134766,0.328125 -0.4980469,0.8056641 -0.5507812,1.4296875 z M 8.8948828,4.6875e-4 V -6.6792188 h 1.1015625 l 0.035157,1.03125 c 0.210937,-0.2724609 0.506835,-0.5273437 0.890625,-0.7617187 0.380859,-0.2402344 0.873046,-0.3632813 1.476562,-0.3632813 0.726563,0 1.256836,0.2197266 1.59375,0.65625 0.333984,0.4306641 0.503906,1.0371094 0.503906,1.8164063 V 4.6875e-4 H 13.348008 V -4.13625 c 0,-0.328125 -0.03516,-0.6152344 -0.105469,-0.8671875 -0.07031,-0.2490234 -0.196289,-0.4453125 -0.375,-0.5859375 -0.172852,-0.1464844 -0.421875,-0.2226563 -0.75,-0.2226563 -0.500977,0 -0.922852,0.1142579 -1.265625,0.3398438 -0.336914,0.2285156 -0.606445,0.4746094 -0.808594,0.7382812 V 4.6875e-4 Z m 10.3681642,0 c -0.539063,0 -0.955078,-0.08496094 -1.242188,-0.2578125 -0.28125,-0.16992188 -0.477539,-0.41601563 -0.585937,-0.73828125 -0.111328,-0.3193359 -0.164063,-0.7060547 -0.164063,-1.1601563 v -3.5976562 h -1.113281 v -0.9257813 h 1.113281 v -1.5234375 h 1.136719 v 1.5234375 h 1.652344 v 0.9257813 h -1.652344 v 3.5390625 c 0,0.4160156 0.05273,0.7353516 0.164063,0.9609375 0.108398,0.2197266 0.366211,0.328125 0.773437,0.328125 h 0.726563 V 4.6875e-4 Z m 2.800781,0 V -9.2221875 h 1.136719 v 3.5742187 c 0.210937,-0.2724609 0.506836,-0.5273437 0.890625,-0.7617187 0.380859,-0.2402344 0.870117,-0.3632813 1.464844,-0.3632813 0.75,0 1.289062,0.2167969 1.617187,0.6445313 0.328125,0.4306641 0.492188,1.0400391 0.492188,1.828125 V 4.6875e-4 H 26.516953 V -4.1479688 c 0,-0.3193359 -0.03516,-0.6035156 -0.105469,-0.8554687 -0.06445,-0.2490234 -0.18457,-0.4453125 -0.363281,-0.5859375 -0.181641,-0.1464844 -0.433594,-0.2226563 -0.761719,-0.2226563 -0.500976,0 -0.922851,0.1142579 -1.265625,0.3398438 -0.336914,0.2285156 -0.606445,0.4746094 -0.808593,0.7382812 V 4.6875e-4 Z M 31.928086,0.129375 c -0.383789,0 -0.735352,-0.07617188 -1.054688,-0.22265625 -0.313476,-0.14648438 -0.568359,-0.36328125 -0.761718,-0.64453125 -0.1875,-0.2871094 -0.28125,-0.6445313 -0.28125,-1.0664063 0,-0.5917968 0.1875,-1.0458984 0.5625,-1.359375 0.375,-0.3105468 0.902343,-0.5214843 1.582031,-0.6328125 0.685547,-0.1171875 1.491211,-0.1787109 2.414062,-0.1875 v -0.46875 c 0,-0.5683593 -0.146484,-0.9609375 -0.433593,-1.171875 -0.28125,-0.2109375 -0.638672,-0.3164062 -1.066407,-0.3164062 -0.46289,0 -0.852539,0.1171875 -1.171875,0.3515625 -0.313476,0.234375 -0.46875,0.6035156 -0.46875,1.1015625 h -1.113281 c 0,-0.5449219 0.117188,-0.9873047 0.351563,-1.3242188 0.240234,-0.3427734 0.565429,-0.5917968 0.972656,-0.75 0.413086,-0.1552734 0.890625,-0.234375 1.429687,-0.234375 0.342774,0 0.670899,0.035156 0.984375,0.1054688 0.310547,0.064453 0.591797,0.1816406 0.84375,0.3515625 0.249024,0.1640625 0.445313,0.3984375 0.585938,0.703125 0.146484,0.3046875 0.222656,0.6972656 0.222656,1.171875 V 4.6875e-4 H 34.459336 L 34.412466,-1.0190625 C 34.107778,-0.67335938 33.750357,-0.39796875 33.34606,-0.18703125 32.938828,0.02390625 32.467148,0.129375 31.928086,0.129375 Z m 0.304687,-0.87890625 c 0.451172,0 0.861329,-0.10546875 1.230469,-0.31640625 0.366211,-0.2167969 0.670899,-0.4921875 0.914063,-0.8203125 v -1.359375 c -1.212891,0.00879 -2.083008,0.1230469 -2.613282,0.3398437 -0.524414,0.2109375 -0.785156,0.5625 -0.785156,1.0546875 0,0.3369141 0.105469,0.6064454 0.316406,0.8085938 0.210938,0.19628906 0.521485,0.29296875 0.9375,0.29296875 z m 7.6875,0.75 c -0.547851,0 -0.966796,-0.08496094 -1.253906,-0.2578125 -0.28125,-0.16992188 -0.477539,-0.41601563 -0.585937,-0.73828125 -0.102539,-0.3193359 -0.152344,-0.7060547 -0.152344,-1.1601563 v -7.0664062 h 1.136719 v 7.0078125 c 0,0.4160156 0.0498,0.7324219 0.152343,0.9492187 0.108399,0.2197266 0.366211,0.32812505 0.773438,0.32812505 h 0.316406 v 0.9375 z m 2.261719,2.44921875 v -9.1289063 h 1.113281 l 0.03516,1.0898438 c 0.234375,-0.3515625 0.539062,-0.6386719 0.914062,-0.8671875 0.38086,-0.2255859 0.823242,-0.3398438 1.324219,-0.3398438 0.544922,0 1.019531,0.1289063 1.417969,0.3867188 0.398437,0.2578125 0.703125,0.6445312 0.914062,1.1601562 0.216797,0.5097657 0.328125,1.1455079 0.328125,1.9101563 0,0.7587891 -0.117187,1.3945312 -0.351562,1.9101562 -0.228516,0.50976567 -0.550782,0.89648442 -0.972657,1.1601563 -0.421875,0.26660156 -0.914062,0.3984375 -1.476562,0.3984375 -0.477539,0 -0.896484,-0.09375 -1.253906,-0.28125 -0.351563,-0.19335938 -0.638672,-0.45703125 -0.855469,-0.78515625 V 2.4496875 Z m 3.035156,-3.26953125 c 0.609375,0 1.066407,-0.21386715 1.371094,-0.64453125 0.310547,-0.4365234 0.46875,-1.0605469 0.46875,-1.875 0,-0.8203125 -0.146484,-1.4443359 -0.433594,-1.875 -0.290039,-0.4365234 -0.714843,-0.65625 -1.277343,-0.65625 -0.486328,0 -0.896485,0.1347656 -1.230469,0.3984375 -0.336914,0.2578125 -0.597656,0.5595703 -0.785156,0.9023437 v 2.578125 c 0.178711,0.3515625 0.424804,0.6386719 0.738281,0.8554688 0.310547,0.2109375 0.694336,0.31640625 1.148437,0.31640625 z M 50.4525,4.6875e-4 V -6.6792188 h 1.148437 V 4.6875e-4 Z M 51.026719,-7.933125 c -0.219727,0 -0.395508,-0.061523 -0.527344,-0.1875 -0.125977,-0.1230469 -0.1875,-0.2841797 -0.1875,-0.4804688 0,-0.1875 0.06152,-0.3427734 0.1875,-0.46875 0.131836,-0.1230468 0.307617,-0.1875 0.527344,-0.1875 0.210937,0 0.380859,0.064453 0.515625,0.1875 0.131836,0.1259766 0.199218,0.28125 0.199218,0.46875 0,0.1962891 -0.06738,0.3574219 -0.199218,0.4804688 -0.134766,0.1259766 -0.304688,0.1875 -0.515625,0.1875 z m 5.909179,8.0625 c -0.726562,0 -1.324218,-0.15234375 -1.792968,-0.45703125 -0.462891,-0.3046875 -0.805664,-0.71777345 -1.03125,-1.24218755 -0.219727,-0.5214843 -0.328125,-1.1132812 -0.328125,-1.7695312 0,-0.6796875 0.108398,-1.2773438 0.328125,-1.7929688 0.216797,-0.5214843 0.550781,-0.9287109 0.996093,-1.21875 0.445313,-0.2958984 1.007813,-0.4453125 1.6875,-0.4453125 0.914063,0 1.628907,0.2783204 2.144532,0.8320313 0.515625,0.5478516 0.773437,1.3330078 0.773437,2.3554687 0,0.070312 -0.0059,0.1523438 -0.01172,0.2460938 0,0.09375 -0.0059,0.1611328 -0.01172,0.1992187 h -4.757813 c 0,0.4394532 0.06445,0.8408204 0.199219,1.2070313 0.140625,0.3603516 0.354492,0.6503906 0.644531,0.8671875 0.295899,0.21972656 0.682617,0.328125 1.160156,0.328125 0.515625,0 0.914063,-0.1171875 1.195313,-0.3515625 0.287109,-0.2402344 0.439453,-0.5888672 0.457031,-1.0429688 h 1.136719 c -0.01758,0.46875 -0.140625,0.8759766 -0.375,1.21875005 -0.228516,0.33691406 -0.547852,0.59765625 -0.960938,0.78515625 -0.407226,0.1875 -0.890625,0.28125 -1.453125,0.28125 z m -2.003906,-4.125 h 3.644531 C 58.567734,-4.6196484 58.406602,-5.0971875 58.096055,-5.4253125 57.782578,-5.7534375 57.348984,-5.9175 56.795273,-5.9175 c -0.55664,0 -0.993164,0.1640625 -1.3125,0.4921875 -0.313476,0.328125 -0.498046,0.8056641 -0.550781,1.4296875 z m 0,0"
         style="fill:#92d050;fill-opacity:1;fill-rule:nonzero;stroke:#92d050;stroke-width:0.40114;stroke-linecap:butt;stroke-linejoin:miter;stroke-miterlimit:10;stroke-dasharray:none;stroke-opacity:1"
         aria-label="enthalpie"
         transform="matrix(1.3333333,0,0,1.3333333,324.48,360.64)"
         clip-path="url(#clipPath36)" />
    </g>
  </g>
</svg>
