<?xml version="1.0" encoding="UTF-8" standalone="no"?>
<!-- Created with Inkscape (http://www.inkscape.org/) -->

<svg
   version="1.1"
   id="svg1"
   width="405.91998"
   height="497.39999"
   viewBox="0 0 405.91998 497.39999"
   sodipodi:docname="page0.pdf"
   xmlns:inkscape="http://www.inkscape.org/namespaces/inkscape"
   xmlns:sodipodi="http://sodipodi.sourceforge.net/DTD/sodipodi-0.dtd"
   xmlns="http://www.w3.org/2000/svg"
   xmlns:svg="http://www.w3.org/2000/svg">
  <defs
     id="defs1" />
  <sodipodi:namedview
     id="namedview1"
     pagecolor="#505050"
     bordercolor="#eeeeee"
     borderopacity="1"
     inkscape:showpageshadow="0"
     inkscape:pageopacity="0"
     inkscape:pagecheckerboard="0"
     inkscape:deskcolor="#505050">
    <inkscape:page
       x="0"
       y="0"
       inkscape:label="1"
       id="page1"
       width="405.91998"
       height="497.39999"
       margin="0"
       bleed="0" />
  </sodipodi:namedview>
  <g
     id="g1"
     inkscape:groupmode="layer"
     inkscape:label="1"
     transform="translate(-151.84,-77.640015)">
    <g
       id="g2" />
    <g
       id="g3">
      <path
         id="path3"
         d="M 126.48,111.72 H 404.76 V 390 H 126.48 Z"
         style="fill:#d1d1d1;fill-opacity:1;fill-rule:evenodd;stroke:#000000;stroke-width:6;stroke-linecap:butt;stroke-linejoin:miter;stroke-miterlimit:10;stroke-dasharray:none;stroke-opacity:1"
         transform="matrix(1.3333333,0,0,-1.3333333,0,720)" />
    </g>
    <g
       id="g4">
      <path
         id="path4"
         d="m 116.88,376.32 h 298.44 v 29.4 H 116.88 Z"
         style="fill:#d1d1d1;fill-opacity:1;fill-rule:evenodd;stroke:#000000;stroke-width:6;stroke-linecap:butt;stroke-linejoin:miter;stroke-miterlimit:10;stroke-dasharray:none;stroke-opacity:1"
         transform="matrix(1.3333333,0,0,-1.3333333,0,720)" />
    </g>
    <g
       id="g5">
      <path
         id="path5"
         d="m 153.84,139.08 h 224.28 v 224.4 H 153.84 Z"
         style="fill:#96dcf8;fill-opacity:1;fill-rule:evenodd;stroke:#000000;stroke-width:6;stroke-linecap:butt;stroke-linejoin:miter;stroke-miterlimit:10;stroke-dasharray:none;stroke-opacity:1"
         transform="matrix(1.3333333,0,0,-1.3333333,0,720)" />
    </g>
    <g
       id="g6">
      <path
         id="path6"
         d="m 163.5,237.06 h 14.88 V 481.02 H 163.5 Z"
         style="fill:#ffffff;fill-opacity:1;fill-rule:evenodd;stroke:#000000;stroke-width:1.5;stroke-linecap:butt;stroke-linejoin:miter;stroke-miterlimit:10;stroke-dasharray:none;stroke-opacity:1"
         transform="matrix(1.3333333,0,0,-1.3333333,0,720)" />
    </g>
    <g
       id="g7">
      <path
         id="path7"
         d="m 166.98,219.66 h 7.92 v 129.12 h -7.92 z"
         style="fill:#c00000;fill-opacity:1;fill-rule:evenodd;stroke:#000000;stroke-width:1.5;stroke-linecap:butt;stroke-linejoin:miter;stroke-miterlimit:10;stroke-dasharray:none;stroke-opacity:1"
         transform="matrix(1.3333333,0,0,-1.3333333,0,720)" />
    </g>
    <g
       id="g8">
      <path
         id="path8"
         d="m 190.08,302.52 c 0,14.18 11.5,25.68 25.68,25.68 h 102.72 c 14.18,0 25.68,-11.5 25.68,-25.68 V 199.68 C 344.16,185.5 332.66,174 318.48,174 H 215.76 c -14.18,0 -25.68,11.5 -25.68,25.68 z"
         style="fill:#d1d1d1;fill-opacity:1;fill-rule:evenodd;stroke:#000000;stroke-width:6;stroke-linecap:butt;stroke-linejoin:miter;stroke-miterlimit:10;stroke-dasharray:none;stroke-opacity:1"
         transform="matrix(1.3333333,0,0,-1.3333333,0,720)" />
    </g>
  </g>
</svg>
