<?xml version="1.0" encoding="UTF-8" standalone="no"?>
<!-- Created with Inkscape (http://www.inkscape.org/) -->

<svg
   version="1.1"
   id="svg1"
   width="570.10547"
   height="380.45312"
   viewBox="0 0 570.10547 380.45312"
   sodipodi:docname="page1.pdf"
   xmlns:inkscape="http://www.inkscape.org/namespaces/inkscape"
   xmlns:sodipodi="http://sodipodi.sourceforge.net/DTD/sodipodi-0.dtd"
   xmlns="http://www.w3.org/2000/svg"
   xmlns:svg="http://www.w3.org/2000/svg">
  <defs
     id="defs1">
    <clipPath
       clipPathUnits="userSpaceOnUse"
       id="clipPath9">
      <path
         d="M 0,540 H 960 V 6.1035e-5 H -7.629e-6"
         clip-rule="evenodd"
         id="path9" />
    </clipPath>
    <clipPath
       clipPathUnits="userSpaceOnUse"
       id="clipPath11">
      <path
         d="M 1.4305e-5,0 H 960.00001 V 540 H 1.4305e-5 Z"
         transform="matrix(1,0,0,-1,-75.456002,443.09001)"
         clip-rule="evenodd"
         id="path11" />
    </clipPath>
    <clipPath
       clipPathUnits="userSpaceOnUse"
       id="clipPath14">
      <path
         d="M 1.4305e-5,0 H 960.00001 V 540 H 1.4305e-5 Z"
         transform="matrix(1,0,0,-1,-414.26001,169.68)"
         clip-rule="evenodd"
         id="path14" />
    </clipPath>
    <clipPath
       clipPathUnits="userSpaceOnUse"
       id="clipPath19">
      <path
         d="M 1.4305e-5,0 H 960.00001 V 540 H 1.4305e-5 Z"
         transform="matrix(1,0,0,-1,-132.82,361.13001)"
         clip-rule="evenodd"
         id="path19" />
    </clipPath>
    <clipPath
       clipPathUnits="userSpaceOnUse"
       id="clipPath21">
      <path
         d="M 1.4305e-5,0 H 960.00001 V 540 H 1.4305e-5 Z"
         transform="matrix(1,0,0,-1,-169.3,361.13001)"
         clip-rule="evenodd"
         id="path21" />
    </clipPath>
    <clipPath
       clipPathUnits="userSpaceOnUse"
       id="clipPath23">
      <path
         d="M 1.4305e-5,0 H 960.00001 V 540 H 1.4305e-5 Z"
         transform="matrix(1,0,0,-1,-132.82,344.21001)"
         clip-rule="evenodd"
         id="path23" />
    </clipPath>
    <clipPath
       clipPathUnits="userSpaceOnUse"
       id="clipPath26">
      <path
         d="M 1.4305e-5,0 H 960.00001 V 540 H 1.4305e-5 Z"
         transform="matrix(1,0,0,-1,-417.17001,286.46001)"
         clip-rule="evenodd"
         id="path26" />
    </clipPath>
    <clipPath
       clipPathUnits="userSpaceOnUse"
       id="clipPath28">
      <path
         d="M 1.4305e-5,0 H 960.00001 V 540 H 1.4305e-5 Z"
         transform="matrix(1,0,0,-1,-499.85001,286.46001)"
         clip-rule="evenodd"
         id="path28" />
    </clipPath>
    <clipPath
       clipPathUnits="userSpaceOnUse"
       id="clipPath30">
      <path
         d="M 1.4305e-5,0 H 960.00001 V 540 H 1.4305e-5 Z"
         transform="matrix(1,0,0,-1,-417.17001,269.52001)"
         clip-rule="evenodd"
         id="path30" />
    </clipPath>
    <clipPath
       clipPathUnits="userSpaceOnUse"
       id="clipPath32">
      <path
         d="M 1.4305e-5,0 H 960.00001 V 540 H 1.4305e-5 Z"
         transform="matrix(1,0,0,-1,-243.36001,286.46001)"
         clip-rule="evenodd"
         id="path32" />
    </clipPath>
    <clipPath
       clipPathUnits="userSpaceOnUse"
       id="clipPath34">
      <path
         d="M 1.4305e-5,0 H 960.00001 V 540 H 1.4305e-5 Z"
         transform="matrix(1,0,0,-1,-296.64001,286.46001)"
         clip-rule="evenodd"
         id="path34" />
    </clipPath>
    <clipPath
       clipPathUnits="userSpaceOnUse"
       id="clipPath36">
      <path
         d="M 1.4305e-5,0 H 960.00001 V 540 H 1.4305e-5 Z"
         transform="matrix(1,0,0,-1,-243.36001,269.52001)"
         clip-rule="evenodd"
         id="path36" />
    </clipPath>
  </defs>
  <sodipodi:namedview
     id="namedview1"
     pagecolor="#505050"
     bordercolor="#eeeeee"
     borderopacity="1"
     inkscape:showpageshadow="0"
     inkscape:pageopacity="0"
     inkscape:pagecheckerboard="0"
     inkscape:deskcolor="#505050">
    <inkscape:page
       x="0"
       y="0"
       inkscape:label="1"
       id="page1"
       width="570.10547"
       height="380.45312"
       margin="0"
       bleed="0" />
  </sodipodi:namedview>
  <g
     id="g1"
     inkscape:groupmode="layer"
     inkscape:label="1"
     transform="translate(-102.07812,-116.76172)">
    <g
       id="g2" />
    <g
       id="g3">
      <path
         id="path3"
         d="m 110.82,240.78 364.49,-0.53"
         style="fill:none;stroke:#ffc000;stroke-width:3;stroke-linecap:butt;stroke-linejoin:miter;stroke-miterlimit:10;stroke-dasharray:12, 9;stroke-dashoffset:0;stroke-opacity:1"
         transform="matrix(1.3333333,0,0,-1.3333333,0,720)" />
    </g>
    <g
       id="g4">
      <path
         id="path4"
         d="m 109.26,405.06 364.49,-0.53"
         style="fill:none;stroke:#ffc000;stroke-width:3;stroke-linecap:butt;stroke-linejoin:miter;stroke-miterlimit:10;stroke-dasharray:12, 9;stroke-dashoffset:0;stroke-opacity:1"
         transform="matrix(1.3333333,0,0,-1.3333333,0,720)" />
    </g>
    <g
       id="g5">
      <path
         id="path5"
         d="m 108.78,321.54 364.49,-0.53"
         style="fill:none;stroke:#ffc000;stroke-width:3;stroke-linecap:butt;stroke-linejoin:miter;stroke-miterlimit:10;stroke-dasharray:12, 9;stroke-dashoffset:0;stroke-opacity:1"
         transform="matrix(1.3333333,0,0,-1.3333333,0,720)" />
    </g>
    <g
       id="g6">
      <path
         id="path6"
         d="m 212.73,321.27 v 69.84 h -4.5 v -69.84 z m 4.5,67.59 -6.75,13.5 -6.75,-13.5 z"
         style="fill:#e97132;fill-opacity:1;fill-rule:nonzero;stroke:none"
         transform="matrix(1.3333333,0,0,-1.3333333,0,720)" />
    </g>
    <g
       id="g7">
      <path
         id="path7"
         d="m 110.64,201.76 v 218.48 h -6 V 201.76 Z m 6,215.48 -9,18 -9,-18 z"
         style="fill:#a02b93;fill-opacity:1;fill-rule:nonzero;stroke:none"
         transform="matrix(1.3333333,0,0,-1.3333333,0,720)" />
    </g>
    <g
       id="g8">
      <path
         id="path8"
         d="m 105.6,200.76 h 359.31 v 6 H 105.6 Z m 356.31,-6 18,9 -18,9 z"
         style="fill:#a02b93;fill-opacity:1;fill-rule:nonzero;stroke:none"
         transform="matrix(1.3333333,0,0,-1.3333333,0,720)"
         clip-path="url(#clipPath9)" />
    </g>
    <g
       id="g9">
      <path
         id="path10"
         d="M 1.1025937,0.00113281 V -9.2215234 h 6.1875 v 1.59375 H 3.0361875 v 2.1445312 h 3.8554687 v 1.546875 H 3.0361875 v 2.34375 h 4.2539062 v 1.59375001 z m 7.9160157,0 V -6.6902734 h 1.7460936 l 0.03516,0.9960937 c 0.225586,-0.28125 0.518555,-0.5302734 0.878907,-0.75 0.366211,-0.2255859 0.84375,-0.3398437 1.429687,-0.3398437 0.679688,0 1.207031,0.2080078 1.582031,0.6210937 0.375,0.4160156 0.5625,1.0195313 0.5625,1.8164063 V 0.00113281 H 13.460016 V -4.1238672 c 0,-0.2402344 -0.03516,-0.4511719 -0.105469,-0.6328125 -0.07031,-0.1787109 -0.181641,-0.3193359 -0.328125,-0.421875 -0.149414,-0.099609 -0.345703,-0.1523437 -0.585938,-0.1523437 -0.360351,0 -0.667968,0.087891 -0.925781,0.2578125 -0.257812,0.1640625 -0.486328,0.3691406 -0.679687,0.609375 v 4.46484371 z m 10.9863276,0 c -0.679687,0 -1.207031,-0.08203125 -1.582031,-0.24609375 -0.36914,-0.1640625 -0.626953,-0.41308594 -0.773437,-0.75 C 17.508844,-1.3377344 17.438531,-1.7830469 17.438531,-2.3308984 V -5.2957422 H 16.32525 v -1.3945312 h 1.113281 v -1.5703125 h 1.816406 v 1.5703125 h 1.453125 v 1.3945312 h -1.453125 v 2.859375 c 0,0.3515625 0.04687,0.6152344 0.140625,0.7851563 0.09961,0.1640625 0.322266,0.2460937 0.667969,0.2460937 h 0.644531 v 1.40625001 z m 2.197266,0 V -9.2215234 h 1.78125 v 3.5273437 c 0.225586,-0.28125 0.518555,-0.5302734 0.878906,-0.75 0.366211,-0.2255859 0.837891,-0.3398437 1.417969,-0.3398437 0.694336,0 1.224609,0.2080078 1.59375,0.6210937 0.375,0.4072266 0.5625,1.0136719 0.5625,1.8164063 V 0.00113281 H 26.620172 V -4.1238672 c 0,-0.2402344 -0.03516,-0.4511719 -0.105469,-0.6328125 -0.06445,-0.1787109 -0.169922,-0.3193359 -0.316406,-0.421875 -0.140625,-0.099609 -0.333985,-0.1523437 -0.574219,-0.1523437 -0.360351,0 -0.667969,0.087891 -0.925781,0.2578125 -0.257813,0.1640625 -0.486328,0.3691406 -0.679688,0.609375 v 4.46484371 z m 9.955078,0.1171875 c -0.383789,0 -0.738281,-0.0703125 -1.066406,-0.2109375 C 30.76275,-0.23910156 30.496148,-0.46175781 30.294,-0.76058594 30.088922,-1.0564844 29.989312,-1.4285547 29.989312,-1.8738672 c 0,-0.6152344 0.181641,-1.0810547 0.550782,-1.3945312 0.375,-0.3105469 0.893554,-0.5214844 1.558593,-0.6328125 0.66211,-0.1083985 1.435547,-0.1757813 2.320313,-0.1992188 v -0.3515625 c 0,-0.4365234 -0.105469,-0.7324219 -0.316406,-0.890625 -0.210938,-0.1640625 -0.480469,-0.2460937 -0.808594,-0.2460937 -0.360352,0 -0.65625,0.087891 -0.890625,0.2578125 -0.234375,0.1728515 -0.351563,0.4511718 -0.351563,0.8320312 h -1.699218 c 0,-0.5683594 0.123047,-1.0195312 0.375,-1.3476562 0.249023,-0.3339844 0.591797,-0.5771485 1.03125,-0.7265625 0.445312,-0.1464844 0.955078,-0.2226563 1.535156,-0.2226563 0.427734,0 0.820312,0.035156 1.171875,0.1054688 0.351562,0.070312 0.65625,0.196289 0.914062,0.375 0.257813,0.1728515 0.457032,0.4101562 0.597657,0.7148437 0.140625,0.2988281 0.210937,0.6679688 0.210937,1.1132813 v 4.48828121 h -1.699219 l -0.05859,-0.8671875 c -0.28125,0.32226563 -0.609375,0.56835938 -0.984375,0.73828125 -0.375,0.1640625 -0.805664,0.24609375 -1.289063,0.24609375 z m 0.597656,-1.25390621 c 0.333985,0 0.647461,-0.084961 0.9375,-0.2578125 0.295899,-0.178711 0.530274,-0.3808594 0.703125,-0.609375 v -1.0898438 c -0.960937,0.00879 -1.634765,0.1025391 -2.015625,0.28125 -0.383789,0.1728516 -0.574218,0.4541016 -0.574218,0.84375 0,0.28125 0.08496,0.4921875 0.257812,0.6328125 0.178711,0.1347656 0.410156,0.1992188 0.691406,0.1992188 z m 7.904297,1.13671871 c -0.679687,0 -1.207031,-0.08203125 -1.582031,-0.24609375 -0.369141,-0.1640625 -0.626953,-0.41308594 -0.773437,-0.75 C 38.163141,-1.3377344 38.092828,-1.7830469 38.092828,-2.3308984 v -6.890625 h 1.804688 v 6.7851562 c 0,0.3515625 0.04687,0.609375 0.140625,0.7734375 0.09961,0.1640625 0.328125,0.2460938 0.679687,0.2460938 h 0.421875 v 1.41796871 z m 1.675782,2.44921879 v -9.140625 h 1.710937 l 0.105469,1.0195312 c 0.249023,-0.3574219 0.544922,-0.6357422 0.890625,-0.8320312 0.351562,-0.1933594 0.761719,-0.2929688 1.230469,-0.2929688 0.521484,0 0.987304,0.1289063 1.394531,0.3867188 0.404297,0.2519531 0.720703,0.6328125 0.949219,1.1484375 0.234375,0.5097656 0.351562,1.1601562 0.351562,1.9570312 0,0.7734375 -0.125976,1.4150391 -0.375,1.921875 -0.251953,0.50097657 -0.591797,0.87597657 -1.019531,1.12500001 -0.421875,0.25195313 -0.899414,0.37792969 -1.429688,0.38671875 -0.430664,0 -0.817382,-0.09082031 -1.160156,-0.26953125 -0.336914,-0.1875 -0.615234,-0.4453125 -0.832031,-0.7734375 V 2.4503516 Z m 3.363281,-3.7148438 c 0.451172,0 0.799805,-0.1757812 1.042969,-0.5273437 0.240234,-0.3515625 0.363281,-0.8613282 0.363281,-1.5351563 0,-0.703125 -0.114258,-1.2246094 -0.339844,-1.5703125 -0.228516,-0.3427734 -0.536133,-0.515625 -0.925781,-0.515625 -0.416016,0 -0.770508,0.1171875 -1.066406,0.3515625 -0.290039,0.2285156 -0.498047,0.4775391 -0.621094,0.75 v 1.9804688 c 0.146484,0.290039 0.351562,0.5390625 0.609375,0.75 0.263672,0.2109375 0.577148,0.3164062 0.9375,0.3164062 z m 4.904297,1.26562501 V -6.6902734 H 52.419 v 6.69140621 z m 0.914062,-7.57031251 c -0.336914,0 -0.594726,-0.082031 -0.773437,-0.2460937 -0.172852,-0.1699219 -0.257813,-0.3808594 -0.257813,-0.6328125 0,-0.2578125 0.08496,-0.46875 0.257813,-0.6328125 0.178711,-0.1699219 0.436523,-0.2578125 0.773437,-0.2578125 0.333985,0 0.588867,0.087891 0.761719,0.2578125 0.178711,0.1640625 0.269531,0.375 0.269531,0.6328125 0,0.2519531 -0.09082,0.4628906 -0.269531,0.6328125 -0.172852,0.1640625 -0.427734,0.2460937 -0.761719,0.2460937 z m 5.888672,7.69921876 c -0.75,0 -1.379883,-0.13476562 -1.886719,-0.41015625 -0.500976,-0.28125 -0.884765,-0.68261719 -1.148437,-1.20703121 -0.257813,-0.5214844 -0.386719,-1.1484375 -0.386719,-1.875 0,-0.7089844 0.123047,-1.3183594 0.375,-1.828125 0.257813,-0.515625 0.632813,-0.9082032 1.125,-1.1835938 0.492188,-0.28125 1.092774,-0.421875 1.804688,-0.421875 0.999023,0 1.787109,0.2929688 2.367187,0.8789063 0.577149,0.5800781 0.867188,1.4121093 0.867188,2.4960937 0,0.055664 -0.0059,0.1289063 -0.01172,0.2226563 0,0.09375 -0.0059,0.1640625 -0.01172,0.2109375 h -4.699219 c 0.0059,0.3134765 0.06152,0.609375 0.164063,0.890625 0.108398,0.2753906 0.28125,0.4921875 0.515625,0.65625 0.234375,0.1640625 0.541992,0.2460937 0.925781,0.2460937 0.389649,0 0.703125,-0.084961 0.9375,-0.2578125 0.240234,-0.1699219 0.363281,-0.4248047 0.363281,-0.7617187 h 1.792969 c -0.02344,0.524414 -0.169922,0.9609375 -0.433594,1.31249996 -0.257812,0.34570313 -0.615234,0.60351563 -1.066406,0.7734375 -0.454101,0.16992188 -0.984375,0.2578125 -1.59375,0.2578125 z M 55.823297,-4.1355859 h 2.894531 c -0.01758,-0.46875 -0.158203,-0.8144532 -0.421875,-1.0429688 -0.257812,-0.234375 -0.594726,-0.3515625 -1.007812,-0.3515625 -0.416016,0 -0.758789,0.1230469 -1.03125,0.3632813 -0.266602,0.234375 -0.410157,0.5800781 -0.433594,1.03125 z m 0,0"
         style="fill:#a02b93;fill-opacity:1;fill-rule:nonzero;stroke:none"
         aria-label="Enthalpie"
         transform="matrix(1.3333333,0,0,1.3333333,100.608,129.21333)"
         clip-path="url(#clipPath11)" />
    </g>
    <g
       id="g11">
      <path
         id="path12"
         d="m 328.17,321.36 v -66.61 h -4.5 v 66.61 z m 4.5,-64.36 -6.75,-13.5 -6.75,13.5 z"
         style="fill:#92d050;fill-opacity:1;fill-rule:nonzero;stroke:none"
         transform="matrix(1.3333333,0,0,-1.3333333,0,720)" />
    </g>
    <g
       id="g12">
      <path
         id="path13"
         d="M 1.1023047,0.00128906 V -9.2448047 h 3.8085937 c 0.5917969,0 1.125,0.087891 1.59375,0.2578125 0.46875,0.1640625 0.834961,0.4335938 1.1015625,0.8085938 0.272461,0.375 0.4101563,0.8730468 0.4101563,1.4882812 0,0.5859375 -0.1582031,1.0839844 -0.46875,1.4882813 -0.3134766,0.4072265 -0.7851563,0.6972656 -1.4179688,0.8671875 0.3808594,0.064453 0.6914063,0.1845703 0.9257813,0.3632812 0.234375,0.1728516 0.421875,0.4072266 0.5625,0.703125 0.1464844,0.2988281 0.28125,0.6650391 0.3984375,1.1015625 L 8.6374609,0.00128906 H 6.6101172 L 6.1765234,-1.7799609 C 6.0886328,-2.1842578 5.9831641,-2.5182422 5.8601172,-2.7760547 5.7429297,-3.0338672 5.5817969,-3.2242969 5.3796484,-3.3502734 c -0.2050781,-0.1230469 -0.4863281,-0.1875 -0.84375,-0.1875 h -1.5 V 0.00128906 Z M 3.0358984,-5.1315234 h 1.546875 c 0.3046875,0 0.5654297,-0.046875 0.7851563,-0.140625 0.2167969,-0.09375 0.3867187,-0.2373047 0.5039062,-0.4335938 0.1171875,-0.1933594 0.1757813,-0.4277344 0.1757813,-0.703125 0,-0.4042969 -0.1259766,-0.7089844 -0.375,-0.9140625 C 5.4294531,-7.5338672 5.1042578,-7.6393359 4.6999609,-7.6393359 H 3.0358984 Z m 9.9345706,5.26171871 c -0.744141,0 -1.368164,-0.13476562 -1.875,-0.41015625 -0.509766,-0.28125 -0.896485,-0.68261718 -1.1601565,-1.20703126 C 9.6775,-2.0084766 9.5485938,-2.6383594 9.5485938,-3.3737109 c 0,-0.7089844 0.1230468,-1.3183594 0.375,-1.828125 0.2578122,-0.515625 0.6328122,-0.9082032 1.1250002,-1.1835938 0.492187,-0.28125 1.095703,-0.421875 1.816406,-0.421875 0.999023,0 1.787109,0.2929688 2.367188,0.8789063 0.577148,0.5859375 0.867187,1.4179687 0.867187,2.4960937 0,0.055664 -0.0059,0.1289063 -0.01172,0.2226563 0,0.09375 -0.0059,0.1699218 -0.01172,0.2226562 H 11.365 c 0.0059,0.3134766 0.06445,0.6064453 0.175781,0.8789063 0.108399,0.2753906 0.28125,0.4980468 0.515625,0.6679687 0.234375,0.1640625 0.539063,0.2460938 0.914063,0.2460938 0.398437,0 0.714844,-0.084961 0.949219,-0.2578125 0.240234,-0.1699219 0.363281,-0.4248047 0.363281,-0.7617188 h 1.792969 c -0.02344,0.5244141 -0.169922,0.9609375 -0.433594,1.31250001 -0.257813,0.34570313 -0.618164,0.60351563 -1.078125,0.7734375 -0.454102,0.16992188 -0.984375,0.2578125 -1.59375,0.2578125 z M 11.388438,-4.1471484 h 2.90625 c -0.01758,-0.46875 -0.158204,-0.8144532 -0.421875,-1.0429688 C 13.615,-5.4244922 13.278086,-5.5416797 12.865,-5.5416797 c -0.421875,0 -0.770508,0.1230469 -1.042969,0.3632813 -0.266601,0.234375 -0.410156,0.5800781 -0.433593,1.03125 z m 8.091796,4.26562496 c -0.383789,0 -0.738281,-0.07617187 -1.066406,-0.22265625 -0.328125,-0.14648437 -0.594726,-0.36621093 -0.796875,-0.65625 -0.205078,-0.29589841 -0.304687,-0.66796871 -0.304687,-1.11328121 0,-0.6152344 0.18164,-1.0810547 0.550781,-1.3945313 0.375,-0.3105469 0.893555,-0.5214844 1.558594,-0.6328125 0.662109,-0.1171875 1.435547,-0.1816406 2.320312,-0.1992187 v -0.3632813 c 0,-0.4365234 -0.105469,-0.7324219 -0.316406,-0.890625 -0.205078,-0.1640625 -0.46875,-0.2460937 -0.796875,-0.2460937 -0.360352,0 -0.65625,0.087891 -0.890625,0.2578125 -0.234375,0.1728515 -0.351563,0.4541015 -0.351563,0.84375 h -1.699218 c 0,-0.5771485 0.120117,-1.03125 0.363281,-1.359375 0.249023,-0.3339844 0.597656,-0.5771485 1.042969,-0.7265625 0.445312,-0.1464844 0.955078,-0.2226563 1.535156,-0.2226563 0.421875,0 0.808594,0.035156 1.160156,0.1054688 0.357422,0.070312 0.667969,0.196289 0.925781,0.375 0.257813,0.1728515 0.457032,0.4101562 0.597657,0.7148437 0.140625,0.2988281 0.210937,0.6679688 0.210937,1.1132813 v 4.49999996 h -1.699219 l -0.05859,-0.8671875 c -0.28125,0.32226563 -0.609375,0.56835938 -0.984375,0.73828125 -0.375,0.1640625 -0.808594,0.24609375 -1.300782,0.24609375 z m 0.597657,-1.25390626 c 0.342773,0 0.659179,-0.084961 0.949218,-0.2578125 0.28711,-0.1787109 0.521485,-0.3867187 0.703125,-0.6210937 v -1.078125 c -0.960937,0 -1.637695,0.09082 -2.027343,0.2695312 -0.383789,0.1728516 -0.574219,0.4570313 -0.574219,0.8554688 0,0.28125 0.08496,0.4921875 0.257812,0.6328125 0.178711,0.1347656 0.410157,0.1992187 0.691407,0.1992187 z m 5.33789,1.13671876 V -9.2448047 h 1.816407 v 5.6367188 l 2.625,-3.09375 h 1.96875 l -2.648438,3.0820312 2.847656,3.62109376 h -2.074218 l -2.71875,-3.53906246 v 3.53906246 z m 10.382813,0 c -0.679688,0 -1.207031,-0.08203125 -1.582031,-0.24609375 -0.375,-0.1640625 -0.638672,-0.41308593 -0.785157,-0.75 C 33.290781,-1.3375781 33.220469,-1.7828906 33.220469,-2.3307422 v -2.9648437 h -1.113281 v -1.40625 h 1.113281 v -1.5820313 h 1.816406 v 1.5820313 h 1.464844 v 1.40625 h -1.464844 v 2.8476562 c 0,0.3603516 0.04687,0.6269531 0.140625,0.796875 0.09961,0.1640625 0.328125,0.2460938 0.679688,0.2460938 h 0.644531 v 1.40624996 z m 2.121094,0 V -6.7018359 h 1.816406 V 0.00128906 Z M 38.83375,-7.5807422 c -0.336914,0 -0.594727,-0.082031 -0.773437,-0.2460937 -0.172852,-0.1699219 -0.257813,-0.3808594 -0.257813,-0.6328125 0,-0.2578125 0.08496,-0.46875 0.257813,-0.6328125 0.17871,-0.1699219 0.436523,-0.2578125 0.773437,-0.2578125 0.333984,0 0.588867,0.087891 0.761719,0.2578125 0.178711,0.1640625 0.269531,0.375 0.269531,0.6328125 0,0.2519531 -0.09082,0.4628906 -0.269531,0.6328125 -0.172852,0.1640625 -0.427735,0.2460937 -0.761719,0.2460937 z m 5.900391,7.68750001 c -0.679688,0 -1.277344,-0.13183593 -1.792969,-0.3984375 -0.509766,-0.27246093 -0.902344,-0.66210937 -1.183594,-1.17187501 -0.27539,-0.515625 -0.410156,-1.1367187 -0.410156,-1.8632812 0,-0.741211 0.134766,-1.3710938 0.410156,-1.8867188 0.28125,-0.5214844 0.673828,-0.9199219 1.183594,-1.1953125 0.515625,-0.2724609 1.113281,-0.4101562 1.792969,-0.4101562 0.685547,0 1.283203,0.1376953 1.792968,0.4101562 0.506836,0.2753906 0.902344,0.6738281 1.183594,1.1953125 0.28711,0.515625 0.433594,1.1455078 0.433594,1.8867188 0,0.7265625 -0.146484,1.3476562 -0.433594,1.8632812 -0.28125,0.50976564 -0.676758,0.89941408 -1.183594,1.17187501 -0.509765,0.26660157 -1.107421,0.3984375 -1.792968,0.3984375 z m 0,-1.38281251 c 0.398437,0 0.708984,-0.087891 0.9375,-0.2695312 0.225586,-0.1875 0.386718,-0.4365235 0.480468,-0.75 0.09375,-0.3105469 0.140625,-0.65625 0.140625,-1.03125 0,-0.3808594 -0.04687,-0.7294922 -0.140625,-1.0429688 -0.09375,-0.3193359 -0.254882,-0.5742187 -0.480468,-0.7617187 -0.228516,-0.1875 -0.539063,-0.28125 -0.9375,-0.28125 -0.392578,0 -0.700196,0.09375 -0.925782,0.28125 -0.219726,0.1875 -0.375,0.4423828 -0.46875,0.7617187 -0.08789,0.3134766 -0.128906,0.6621094 -0.128906,1.0429688 0,0.375 0.04102,0.7207031 0.128906,1.03125 0.09375,0.3134765 0.249024,0.5625 0.46875,0.75 0.225586,0.1816406 0.533204,0.2695312 0.925782,0.2695312 z m 4.957031,1.27734376 V -6.7018359 h 1.757812 l 0.03516,1.0078125 c 0.216797,-0.2871094 0.509765,-0.5419922 0.878906,-0.7617188 0.366211,-0.2255859 0.84375,-0.3398437 1.429687,-0.3398437 0.679688,0 1.207032,0.2080078 1.582032,0.6210937 0.375,0.4160156 0.5625,1.0195313 0.5625,1.8164063 V 0.00128906 H 54.132578 V -4.1237109 c 0,-0.2402344 -0.03516,-0.4511719 -0.105469,-0.6328125 -0.06445,-0.1875 -0.169921,-0.3310547 -0.316406,-0.4335938 -0.149414,-0.099609 -0.345703,-0.1523437 -0.585937,-0.1523437 -0.369141,0 -0.679688,0.087891 -0.9375,0.2578125 -0.257813,0.1640625 -0.486328,0.3720703 -0.679688,0.6210937 v 4.46484376 z m 10.836914,0.12890625 c -0.375,0 -0.744141,-0.03515625 -1.101563,-0.10546875 -0.351562,-0.0703125 -0.673828,-0.1875 -0.960937,-0.3515625 -0.290039,-0.16992187 -0.521484,-0.40136718 -0.691406,-0.69140626 -0.164063,-0.2871094 -0.246094,-0.6474609 -0.246094,-1.078125 h 1.6875 c 0,0.375 0.128906,0.6386719 0.386719,0.7851563 0.263672,0.149414 0.574218,0.2226562 0.925781,0.2226562 0.351562,0 0.621094,-0.052734 0.808594,-0.1640625 0.193359,-0.1171875 0.292968,-0.3076172 0.292968,-0.5742187 0,-0.2490235 -0.114257,-0.4365235 -0.339843,-0.5625 -0.228516,-0.1230469 -0.621094,-0.2490235 -1.183594,-0.375 -0.477539,-0.1171875 -0.902344,-0.2519532 -1.277344,-0.4101563 -0.375,-0.1640625 -0.667969,-0.3808594 -0.878906,-0.65625 -0.210938,-0.2724609 -0.316406,-0.6328125 -0.316406,-1.078125 0,-0.3427734 0.07617,-0.6357422 0.234375,-0.8789062 0.164062,-0.2490235 0.377929,-0.4482422 0.644531,-0.5976563 0.272461,-0.1464844 0.577148,-0.2519531 0.914062,-0.3164062 0.333985,-0.070312 0.679688,-0.1054688 1.03125,-0.1054688 0.342774,0 0.679688,0.035156 1.007813,0.1054688 0.328125,0.064453 0.624023,0.1757812 0.890625,0.3398437 0.263672,0.1640625 0.474609,0.3837891 0.632812,0.65625 0.164063,0.2753906 0.246094,0.6181641 0.246094,1.03125 h -1.6875 c 0,-0.3427734 -0.111328,-0.5800781 -0.328125,-0.7148437 -0.210937,-0.131836 -0.46582,-0.1992188 -0.761719,-0.1992188 -0.313476,0 -0.5625,0.046875 -0.75,0.140625 -0.18164,0.087891 -0.269531,0.234375 -0.269531,0.4453125 0,0.1259766 0.05859,0.234375 0.175781,0.328125 0.117188,0.09375 0.298829,0.1845703 0.550782,0.2695313 0.249023,0.079102 0.580078,0.1640625 0.996093,0.2578125 0.427735,0.09375 0.814454,0.2226562 1.160157,0.3867187 0.342773,0.1582031 0.615234,0.3720703 0.820312,0.6445313 0.202149,0.2753906 0.304688,0.6269531 0.304688,1.0546875 0,0.3984375 -0.08203,0.7382812 -0.246094,1.0195312 -0.164063,0.28125001 -0.383789,0.50976564 -0.65625,0.67968751 -0.266602,0.17285157 -0.574219,0.29882813 -0.925781,0.375 -0.351563,0.07617188 -0.714844,0.1171875 -1.089844,0.1171875 z m 5.44043,-0.12890625 -2.109375,-6.70312496 h 1.851562 l 1.289063,4.734375 1.289062,-4.734375 h 1.910156 l 1.324219,4.7226562 1.265625,-4.7226562 h 1.722656 L 72.402109,0.00128906 H 70.538828 L 69.191172,-4.8151172 67.820078,0.00128906 Z m 12.483398,0.12890625 c -0.744141,0 -1.368164,-0.13476562 -1.875,-0.41015625 -0.509766,-0.28125 -0.896484,-0.68261718 -1.160156,-1.20703126 -0.257813,-0.5214844 -0.386719,-1.1513672 -0.386719,-1.8867187 0,-0.7089844 0.123047,-1.3183594 0.375,-1.828125 0.257813,-0.515625 0.632813,-0.9082032 1.125,-1.1835938 0.492188,-0.28125 1.095703,-0.421875 1.816406,-0.421875 0.999024,0 1.78711,0.2929688 2.367188,0.8789063 0.577148,0.5859375 0.867187,1.4179687 0.867187,2.4960937 0,0.055664 -0.0059,0.1289063 -0.01172,0.2226563 0,0.09375 -0.0059,0.1699218 -0.01172,0.2226562 h -4.710938 c 0.0059,0.3134766 0.06445,0.6064453 0.175782,0.8789063 0.108398,0.2753906 0.28125,0.4980468 0.515625,0.6679687 0.234375,0.1640625 0.539062,0.2460938 0.914062,0.2460938 0.398438,0 0.714844,-0.084961 0.949219,-0.2578125 0.240234,-0.1699219 0.363281,-0.4248047 0.363281,-0.7617188 h 1.792969 c -0.02344,0.5244141 -0.169922,0.9609375 -0.433594,1.31250001 -0.257812,0.34570313 -0.618164,0.60351563 -1.078125,0.7734375 -0.454101,0.16992188 -0.984375,0.2578125 -1.59375,0.2578125 z M 76.869883,-4.1471484 h 2.90625 c -0.01758,-0.46875 -0.158203,-0.8144532 -0.421875,-1.0429688 -0.257813,-0.234375 -0.594727,-0.3515625 -1.007813,-0.3515625 -0.421875,0 -0.770507,0.1230469 -1.042968,0.3632813 -0.266602,0.234375 -0.410157,0.5800781 -0.433594,1.03125 z m 8.958984,6.7382812 c -0.796875,0 -1.435547,-0.082031 -1.910156,-0.2460937 C 83.449961,2.1809766 83.110117,1.96125 82.89918,1.6887891 82.694102,1.4221875 82.594492,1.1321484 82.594492,0.82160156 c 0,-0.375 0.178711,-0.70898437 0.539063,-0.99609375 0.366211,-0.28710937 0.940429,-0.48632812 1.722656,-0.59765625 l 0.304687,-0.64453126 h 0.902344 c 1.116211,0 1.927735,0.1523438 2.4375,0.45703126 0.506836,0.3046875 0.761719,0.7734375 0.761719,1.40625 0,0.63867184 -0.292969,1.15429684 -0.878906,1.54687504 -0.585938,0.3984375 -1.438477,0.5976562 -2.554688,0.5976562 z M 85.80543,1.4544141 c 0.609375,0 1.037109,-0.082031 1.289062,-0.2460938 0.257813,-0.1582031 0.386719,-0.35156249 0.386719,-0.58593749 0,-0.140625 -0.04395,-0.26367187 -0.128906,-0.36328125 -0.08789,-0.10253906 -0.231446,-0.18164062 -0.433594,-0.234375 -0.205078,-0.05273437 -0.474609,-0.08203125 -0.808594,-0.08203125 h -1.21875 c -0.18164,0.0703125 -0.328125,0.16699219 -0.445312,0.29296875 -0.111328,0.12304688 -0.164063,0.26953125 -0.164063,0.43359375 0,0.1875 0.117188,0.36328129 0.351563,0.52734379 0.240234,0.1699218 0.632812,0.2578125 1.171875,0.2578125 z m -0.925782,-1.60546879 c -0.477539,-0.0527344 -0.864257,-0.15234375 -1.160156,-0.29296875 -0.298828,-0.140625 -0.515625,-0.29882812 -0.65625,-0.48046875 -0.140625,-0.18750001 -0.210937,-0.36621091 -0.210937,-0.53906251 0,-0.28125 0.105468,-0.5185547 0.316406,-0.7148437 0.216797,-0.1933594 0.541992,-0.366211 0.972656,-0.515625 l 0.949219,0.3515625 c -0.251953,0.055664 -0.457031,0.1259765 -0.621094,0.2109375 -0.164062,0.087891 -0.246094,0.1933593 -0.246094,0.3164062 0,0.087891 0.04687,0.1611328 0.140625,0.2226563 0.09961,0.055664 0.272461,0.099609 0.515625,0.1289062 0.249024,0.032227 0.588868,0.046875 1.019532,0.046875 z M 85.71168,-2.1315234 c -0.609375,0 -1.13086,-0.1054688 -1.558594,-0.3164063 -0.421875,-0.2167969 -0.744141,-0.5039062 -0.960938,-0.8554687 -0.219726,-0.3574219 -0.328125,-0.741211 -0.328125,-1.1484375 0,-0.4277344 0.108399,-0.8203125 0.328125,-1.171875 0.225586,-0.3515625 0.553711,-0.6328125 0.984375,-0.84375 0.427735,-0.2109375 0.952149,-0.3164063 1.570313,-0.3164063 0.638672,0 1.166016,0.1054688 1.582031,0.3164063 0.421875,0.2109375 0.732422,0.4921875 0.9375,0.84375 0.210938,0.3515625 0.316406,0.7441406 0.316406,1.171875 0,0.421875 -0.105468,0.8085937 -0.316406,1.1601562 -0.210937,0.3515625 -0.533203,0.6328125 -0.960937,0.84375 -0.421875,0.2109375 -0.955078,0.3164063 -1.59375,0.3164063 z m 0,-1.0898438 c 0.333984,0 0.615234,-0.1054687 0.84375,-0.3164062 0.225586,-0.2109375 0.339843,-0.515625 0.339843,-0.9140625 0,-0.421875 -0.105468,-0.7324219 -0.316406,-0.9375 -0.210937,-0.2021485 -0.486328,-0.3046875 -0.820312,-0.3046875 -0.345703,0 -0.629883,0.1054687 -0.855469,0.3164062 -0.228516,0.2109375 -0.339844,0.5214844 -0.339844,0.9257813 0,0.4072265 0.117188,0.7148437 0.351563,0.9257812 0.234375,0.2050781 0.498047,0.3046875 0.796875,0.3046875 z m 1.910156,-2.5429687 -0.539063,-0.6796875 c 0.178711,-0.4746094 0.457032,-0.7998047 0.832032,-0.9726563 0.375,-0.1787109 0.823242,-0.2695312 1.347656,-0.2695312 v 1.3242187 c -0.360352,0 -0.688477,0.035156 -0.984375,0.1054688 -0.290039,0.064453 -0.509766,0.2285156 -0.65625,0.4921875 z m 0,0"
         style="fill:#a02b93;fill-opacity:1;fill-rule:nonzero;stroke:none"
         aria-label="Reaktionsweg"
         transform="matrix(1.3333333,0,0,1.3333333,552.34667,493.76)"
         clip-path="url(#clipPath14)" />
    </g>
    <g
       id="g14">
      <path
         id="path15"
         d="m 110.88,322.56 234.49,-1.37"
         style="fill:none;stroke:#ffc000;stroke-width:6;stroke-linecap:butt;stroke-linejoin:miter;stroke-miterlimit:10;stroke-dasharray:none;stroke-opacity:1"
         transform="matrix(1.3333333,0,0,-1.3333333,0,720)" />
    </g>
    <g
       id="g15">
      <path
         id="path16"
         d="m 198.24,405.12 150.55,-0.26"
         style="fill:none;stroke:#ffc000;stroke-width:6;stroke-linecap:butt;stroke-linejoin:miter;stroke-miterlimit:10;stroke-dasharray:none;stroke-opacity:1"
         transform="matrix(1.3333333,0,0,-1.3333333,0,720)" />
    </g>
    <g
       id="g16">
      <path
         id="path17"
         d="m 306.96,240.6 170.31,-1.27"
         style="fill:none;stroke:#ffc000;stroke-width:6;stroke-linecap:butt;stroke-linejoin:miter;stroke-miterlimit:10;stroke-dasharray:none;stroke-opacity:1"
         transform="matrix(1.3333333,0,0,-1.3333333,0,720)" />
    </g>
    <g
       id="g17">
      <path
         id="path18"
         d="m 5.2151562,0.12804687 c -0.946289,0 -1.7578125,-0.19335937 -2.4375,-0.5859375 C 2.1038281,-0.84753906 1.5852734,-1.3983203 1.2190625,-2.1102344 0.85871094,-2.8192188 0.68,-3.65125 0.68,-4.6063281 c 0,-0.9609375 0.17871094,-1.7958985 0.5390625,-2.5078125 0.3662109,-0.7089844 0.8847656,-1.2597657 1.5585937,-1.6523438 0.6796875,-0.3896484 1.491211,-0.5859375 2.4375,-0.5859375 0.4746094,0 0.9404297,0.064453 1.3945313,0.1875 0.4599609,0.1259766 0.8789062,0.3164063 1.2539062,0.5742188 0.3808594,0.2578125 0.694336,0.5859375 0.9375,0.984375 0.2490235,0.3984375 0.4013672,0.8671875 0.4570313,1.40625 H 7.289375 C 7.2483594,-6.4959766 7.1428906,-6.7625781 6.9729687,-6.9969531 6.8001172,-7.2313281 6.5628125,-7.4129688 6.258125,-7.5477344 5.9534375,-7.6795703 5.5930859,-7.7469531 5.18,-7.7469531 c -0.609375,0 -1.0986328,0.1464843 -1.4648438,0.4335937 -0.3691406,0.2900391 -0.6386718,0.6738281 -0.8085937,1.1484375 -0.1728516,0.46875 -0.2578125,0.9902344 -0.2578125,1.5585938 0,0.5625 0.084961,1.0839843 0.2578125,1.5585937 0.1699219,0.4775391 0.4453125,0.8613281 0.8203125,1.1484375 0.375,0.28125 0.8701172,0.421875 1.4882812,0.421875 0.459961,0 0.8496094,-0.076172 1.171875,-0.234375 0.319336,-0.1552734 0.5683594,-0.3691406 0.75,-0.6445312 0.178711,-0.28125 0.2841797,-0.6035157 0.3164063,-0.9726563 H 5.2620312 v -1.5351562 h 4.125 v 0.9375 c 0,0.796875 -0.1640625,1.5 -0.4921875,2.109375 -0.3222656,0.609375 -0.7910156,1.08691404 -1.40625,1.42968747 -0.618164,0.34570313 -1.3769531,0.515625 -2.2734375,0.515625 z M 11.054023,-8.59375e-4 V -6.6922656 H 12.87043 V -8.59375e-4 Z M 11.968086,-7.5711719 c -0.336914,0 -0.594727,-0.082031 -0.773438,-0.2460937 -0.172851,-0.1699219 -0.257812,-0.3808594 -0.257812,-0.6328125 0,-0.2578125 0.08496,-0.46875 0.257812,-0.6328125 0.178711,-0.1699219 0.436524,-0.2578125 0.773438,-0.2578125 0.333984,0 0.588867,0.087891 0.761719,0.2578125 0.178711,0.1640625 0.269531,0.375 0.269531,0.6328125 0,0.2519531 -0.09082,0.4628906 -0.269531,0.6328125 -0.172852,0.1640625 -0.427735,0.2460937 -0.761719,0.2460937 z m 5.666016,7.570312525 c -0.679688,0 -1.207032,-0.082031255 -1.582032,-0.246093755 -0.36914,-0.1640625 -0.626953,-0.41308593 -0.773437,-0.75 C 15.138008,-1.3397266 15.067695,-1.7850391 15.067695,-2.3328906 v -2.9648438 h -1.113281 v -1.3945312 h 1.113281 v -1.5703125 h 1.816407 v 1.5703125 h 1.453125 v 1.3945312 h -1.453125 v 2.859375 c 0,0.3515625 0.04687,0.6152344 0.140625,0.7851563 0.09961,0.1640625 0.322265,0.2460937 0.667968,0.2460937 h 0.644532 v 1.406250025 z m 5.024414,0 c -0.679688,0 -1.207032,-0.082031255 -1.582032,-0.246093755 -0.36914,-0.1640625 -0.626953,-0.41308593 -0.773437,-0.75 C 20.162422,-1.3397266 20.092109,-1.7850391 20.092109,-2.3328906 v -2.9648438 h -1.113281 v -1.3945312 h 1.113281 v -1.5703125 h 1.816407 v 1.5703125 h 1.453125 v 1.3945312 h -1.453125 v 2.859375 c 0,0.3515625 0.04687,0.6152344 0.140625,0.7851563 0.09961,0.1640625 0.322265,0.2460937 0.667968,0.2460937 h 0.644532 v 1.406250025 z m 5.138671,0.128906245 c -0.75,0 -1.379882,-0.13476562 -1.886718,-0.41015625 -0.500977,-0.28125 -0.884766,-0.68261718 -1.148438,-1.20703122 -0.257812,-0.5214844 -0.386719,-1.1484375 -0.386719,-1.875 0,-0.7089844 0.123047,-1.3183594 0.375,-1.828125 0.257813,-0.515625 0.632813,-0.9082032 1.125,-1.1835938 0.492188,-0.28125 1.092774,-0.421875 1.804688,-0.421875 0.999023,0 1.787109,0.2929688 2.367187,0.8789063 0.577149,0.5800781 0.867188,1.4121093 0.867188,2.4960937 0,0.055664 -0.0059,0.1289063 -0.01172,0.2226563 0,0.09375 -0.0059,0.1640625 -0.01172,0.2109375 h -4.699218 c 0.0059,0.3134765 0.06152,0.609375 0.164062,0.890625 0.108399,0.2753906 0.28125,0.4921875 0.515625,0.65625 0.234375,0.1640625 0.541992,0.2460937 0.925781,0.2460937 0.389649,0 0.703125,-0.084961 0.9375,-0.2578125 0.240235,-0.1699219 0.363282,-0.4248047 0.363282,-0.7617187 h 1.792968 c -0.02344,0.524414 -0.169921,0.9609375 -0.433593,1.31249997 -0.257813,0.34570313 -0.615235,0.60351563 -1.066407,0.7734375 -0.454101,0.16992188 -0.984375,0.2578125 -1.59375,0.2578125 z M 26.215156,-4.1375781 h 2.894531 c -0.01758,-0.46875 -0.158203,-0.8144532 -0.421875,-1.0429688 C 28.43,-5.4149219 28.093086,-5.5321094 27.68,-5.5321094 c -0.416016,0 -0.758789,0.1230469 -1.03125,0.3632813 -0.266602,0.234375 -0.410156,0.5800781 -0.433594,1.03125 z m 6.304688,4.136718725 V -6.6922656 h 1.746093 l 0.03516,1.1601562 c 0.169922,-0.4042969 0.427734,-0.7148437 0.773437,-0.9257812 0.351563,-0.2167969 0.773438,-0.328125 1.265625,-0.328125 h 0.140625 v 1.5351562 H 36.305 c -0.275391,0 -0.536133,0.023437 -0.785156,0.070312 -0.243164,0.046875 -0.465821,0.1289063 -0.667969,0.2460938 -0.196289,0.1171875 -0.369141,0.2783203 -0.515625,0.4804687 v 4.453125025 z m 0,0"
         style="fill:#e97132;fill-opacity:1;fill-rule:nonzero;stroke:none"
         aria-label="Gitter"
         transform="matrix(1.3333333,0,0,1.3333333,177.09333,238.49333)"
         clip-path="url(#clipPath19)" />
      <path
         id="path20"
         d="M 0.49296875,-2.6141406 V -4.1492969 H 4.2898437 v 1.5351563 z m 0,0"
         style="fill:#e97132;fill-opacity:1;fill-rule:nonzero;stroke:none"
         aria-label="-"
         transform="matrix(1.3333333,0,0,1.3333333,225.73333,238.49333)"
         clip-path="url(#clipPath21)" />
      <path
         id="path22"
         d="m 4.055,0.12992187 c -0.75,0 -1.3798828,-0.13476562 -1.8867188,-0.41015625 -0.5009765,-0.28125 -0.8847656,-0.68261718 -1.1484375,-1.20703122 -0.25781245,-0.5214844 -0.3867187,-1.1484375 -0.3867187,-1.875 0,-0.7089844 0.12304687,-1.3183594 0.375,-1.828125 0.2578125,-0.515625 0.6328125,-0.9082032 1.125,-1.1835938 0.4921875,-0.28125 1.0927734,-0.421875 1.8046875,-0.421875 0.9990234,0 1.7871094,0.2929688 2.3671875,0.8789063 0.5771484,0.5800781 0.8671875,1.4121093 0.8671875,2.4960937 0,0.055664 -0.00586,0.1289063 -0.011719,0.2226563 0,0.09375 -0.00586,0.1640625 -0.011719,0.2109375 H 2.4495312 c 0.00586,0.3134765 0.061523,0.609375 0.1640625,0.890625 0.1083985,0.2753906 0.28125,0.4921875 0.515625,0.65625 0.234375,0.1640625 0.5419922,0.2460937 0.9257813,0.2460937 0.3896484,0 0.703125,-0.084961 0.9375,-0.2578125 0.2402344,-0.1699219 0.3632812,-0.4248047 0.3632812,-0.7617187 H 7.14875 C 7.1253125,-1.6894141 6.9788281,-1.2528906 6.7151562,-0.90132813 6.4573437,-0.555625 6.0999219,-0.2978125 5.64875,-0.12789063 5.1946484,0.04203125 4.664375,0.12992187 4.055,0.12992187 Z M 2.4729687,-4.1357031 H 5.3675 C 5.349922,-4.6044531 5.2092969,-4.9501563 4.945625,-5.1786719 4.6878125,-5.4130469 4.3508984,-5.5302344 3.9378125,-5.5302344 c -0.4160156,0 -0.7587891,0.1230469 -1.03125,0.3632813 -0.2666016,0.234375 -0.4101563,0.5800781 -0.4335938,1.03125 z M 8.7776562,0.00101562 V -6.6903906 H 10.52375 l 0.03516,0.9960937 c 0.225586,-0.28125 0.518555,-0.5302734 0.878906,-0.75 0.366211,-0.2255859 0.84375,-0.3398437 1.429688,-0.3398437 0.679687,0 1.207031,0.2080078 1.582031,0.6210937 0.375,0.4160156 0.5625,1.0195313 0.5625,1.8164063 V 0.00101562 H 13.219062 V -4.1239844 c 0,-0.2402344 -0.03516,-0.4511719 -0.105468,-0.6328125 -0.07031,-0.1787109 -0.181641,-0.3193359 -0.328125,-0.421875 -0.149414,-0.099609 -0.345703,-0.1523437 -0.585938,-0.1523437 -0.360351,0 -0.667969,0.087891 -0.925781,0.2578125 -0.257813,0.1640625 -0.486328,0.3691406 -0.679688,0.609375 v 4.46484372 z m 10.9892578,0 c -0.679687,0 -1.207031,-0.08203125 -1.582031,-0.24609375 -0.369141,-0.1640625 -0.626953,-0.41308593 -0.773438,-0.75 C 17.27082,-1.3378516 17.200508,-1.7831641 17.200508,-2.3310156 v -2.9648438 h -1.113281 v -1.3945312 h 1.113281 v -1.5703125 h 1.816406 v 1.5703125 h 1.453125 v 1.3945312 h -1.453125 v 2.859375 c 0,0.3515625 0.04687,0.6152344 0.140625,0.7851563 0.09961,0.1640625 0.322266,0.2460937 0.667969,0.2460937 h 0.644531 v 1.40625002 z m 2.194336,0 V -9.2216406 h 1.78125 v 3.5273437 c 0.225586,-0.28125 0.518555,-0.5302734 0.878906,-0.75 0.366211,-0.2255859 0.837891,-0.3398437 1.417969,-0.3398437 0.694336,0 1.224609,0.2080078 1.59375,0.6210937 0.375,0.4072266 0.5625,1.0136719 0.5625,1.8164063 V 0.00101562 H 26.379219 V -4.1239844 c 0,-0.2402344 -0.03516,-0.4511719 -0.105469,-0.6328125 -0.06445,-0.1787109 -0.169922,-0.3193359 -0.316406,-0.421875 -0.140625,-0.099609 -0.333985,-0.1523437 -0.574219,-0.1523437 -0.360352,0 -0.667969,0.087891 -0.925781,0.2578125 -0.257813,0.1640625 -0.486328,0.3691406 -0.679688,0.609375 v 4.46484372 z m 9.958008,0.1171875 c -0.383789,0 -0.738281,-0.0703125 -1.066406,-0.2109375 C 30.524727,-0.23921875 30.258125,-0.461875 30.055977,-0.76070313 29.850898,-1.0566016 29.751289,-1.4286719 29.751289,-1.8739844 c 0,-0.6152344 0.181641,-1.0810547 0.550781,-1.3945312 0.375,-0.3105469 0.893555,-0.5214844 1.558594,-0.6328125 0.662109,-0.1083985 1.435547,-0.1757813 2.320313,-0.1992188 v -0.3515625 c 0,-0.4365234 -0.105469,-0.7324219 -0.316407,-0.890625 -0.210937,-0.1640625 -0.480468,-0.2460937 -0.808593,-0.2460937 -0.360352,0 -0.65625,0.087891 -0.890625,0.2578125 -0.234375,0.1728515 -0.351563,0.4511718 -0.351563,0.8320312 H 30.11457 c 0,-0.5683594 0.123047,-1.0195312 0.375,-1.3476562 0.249024,-0.3339844 0.591797,-0.5771485 1.03125,-0.7265625 0.445313,-0.1464844 0.955078,-0.2226563 1.535157,-0.2226563 0.427734,0 0.820312,0.035156 1.171875,0.1054688 0.351562,0.070312 0.65625,0.196289 0.914062,0.375 0.257813,0.1728515 0.457031,0.4101562 0.597656,0.7148437 0.140625,0.2988281 0.210938,0.6679688 0.210938,1.1132813 v 4.48828122 h -1.699219 l -0.05859,-0.8671875 c -0.28125,0.32226563 -0.609375,0.56835938 -0.984375,0.73828125 -0.375,0.1640625 -0.805664,0.24609375 -1.289062,0.24609375 z m 0.597656,-1.25390622 c 0.333984,0 0.647461,-0.084961 0.9375,-0.2578125 0.295898,-0.178711 0.530273,-0.3808594 0.703125,-0.609375 v -1.0898438 c -0.960937,0.00879 -1.634766,0.1025391 -2.015625,0.28125 -0.383789,0.1728516 -0.574219,0.4541016 -0.574219,0.84375 0,0.28125 0.08496,0.4921875 0.257813,0.6328125 0.178711,0.1347656 0.410156,0.1992188 0.691406,0.1992188 z m 7.901367,1.13671872 c -0.679687,0 -1.207031,-0.08203125 -1.582031,-0.24609375 -0.369141,-0.1640625 -0.626953,-0.41308593 -0.773438,-0.75 C 37.922187,-1.3378516 37.851875,-1.7831641 37.851875,-2.3310156 v -6.890625 h 1.804687 v 6.7851562 c 0,0.3515625 0.04687,0.609375 0.140625,0.7734375 0.09961,0.1640625 0.328125,0.2460938 0.679688,0.2460938 h 0.421875 v 1.41796872 z m 1.678711,2.44921878 v -9.140625 h 1.710938 l 0.105468,1.0195312 c 0.249024,-0.3574219 0.544922,-0.6357422 0.890625,-0.8320312 0.351563,-0.1933594 0.761719,-0.2929688 1.230469,-0.2929688 0.521485,0 0.987305,0.1289063 1.394531,0.3867188 0.404297,0.2519531 0.720704,0.6328125 0.949219,1.1484375 0.234375,0.5097656 0.351563,1.1601562 0.351563,1.9570312 0,0.7734375 -0.125977,1.4150391 -0.375,1.921875 -0.251953,0.50097659 -0.591797,0.87597659 -1.019532,1.12500002 -0.421875,0.25195313 -0.899414,0.37792969 -1.429687,0.38671875 -0.430664,0 -0.817383,-0.09082031 -1.160156,-0.26953125 -0.336914,-0.1875 -0.615235,-0.4453125 -0.832032,-0.7734375 V 2.4502344 Z m 3.363281,-3.7148438 c 0.451172,0 0.799805,-0.1757812 1.042969,-0.5273437 0.240235,-0.3515625 0.363281,-0.8613282 0.363281,-1.5351563 0,-0.703125 -0.114257,-1.2246094 -0.339843,-1.5703125 -0.228516,-0.3427734 -0.536133,-0.515625 -0.925782,-0.515625 -0.416015,0 -0.770507,0.1171875 -1.066406,0.3515625 -0.290039,0.2285156 -0.498047,0.4775391 -0.621094,0.75 v 1.9804688 c 0.146485,0.290039 0.351563,0.5390625 0.609375,0.75 0.263672,0.2109375 0.577149,0.3164062 0.9375,0.3164062 z M 50.36457,0.00101562 V -6.6903906 h 1.816407 v 6.69140622 z m 0.914063,-7.57031252 c -0.336914,0 -0.594727,-0.082031 -0.773438,-0.2460937 -0.172851,-0.1699219 -0.257812,-0.3808594 -0.257812,-0.6328125 0,-0.2578125 0.08496,-0.46875 0.257812,-0.6328125 0.178711,-0.1699219 0.436524,-0.2578125 0.773438,-0.2578125 0.333984,0 0.588867,0.087891 0.761719,0.2578125 0.17871,0.1640625 0.269531,0.375 0.269531,0.6328125 0,0.2519531 -0.09082,0.4628906 -0.269531,0.6328125 -0.172852,0.1640625 -0.427735,0.2460937 -0.761719,0.2460937 z m 5.888672,7.69921877 c -0.75,0 -1.379883,-0.13476562 -1.886719,-0.41015625 -0.500977,-0.28125 -0.884766,-0.68261718 -1.148438,-1.20703122 -0.257812,-0.5214844 -0.386718,-1.1484375 -0.386718,-1.875 0,-0.7089844 0.123047,-1.3183594 0.375,-1.828125 0.257812,-0.515625 0.632812,-0.9082032 1.125,-1.1835938 0.492187,-0.28125 1.092773,-0.421875 1.804687,-0.421875 0.999024,0 1.78711,0.2929688 2.367188,0.8789063 0.577148,0.5800781 0.867187,1.4121093 0.867187,2.4960937 0,0.055664 -0.0059,0.1289063 -0.01172,0.2226563 0,0.09375 -0.0059,0.1640625 -0.01172,0.2109375 h -4.699219 c 0.0059,0.3134765 0.06152,0.609375 0.164062,0.890625 0.108399,0.2753906 0.28125,0.4921875 0.515625,0.65625 0.234375,0.1640625 0.541993,0.2460937 0.925782,0.2460937 0.389648,0 0.703125,-0.084961 0.9375,-0.2578125 0.240234,-0.1699219 0.363281,-0.4248047 0.363281,-0.7617187 h 1.792969 c -0.02344,0.524414 -0.169922,0.9609375 -0.433594,1.31249997 -0.257813,0.34570313 -0.615234,0.60351563 -1.066406,0.7734375 -0.454102,0.16992188 -0.984375,0.2578125 -1.59375,0.2578125 z M 55.585273,-4.1357031 h 2.894532 c -0.01758,-0.46875 -0.158203,-0.8144532 -0.421875,-1.0429688 -0.257813,-0.234375 -0.594727,-0.3515625 -1.007813,-0.3515625 -0.416015,0 -0.758789,0.1230469 -1.03125,0.3632813 -0.266601,0.234375 -0.410156,0.5800781 -0.433594,1.03125 z m 0,0"
         style="fill:#e97132;fill-opacity:1;fill-rule:nonzero;stroke:none"
         aria-label="enthalpie"
         transform="matrix(1.3333333,0,0,1.3333333,177.09333,261.05333)"
         clip-path="url(#clipPath23)" />
    </g>
    <g
       id="g23">
      <path
         id="path24"
         d="M 401.37,403.68 V 253.23 h -4.5 v 150.45 z m 4.5,-148.2 -6.75,-13.5 -6.75,13.5 z"
         style="fill:#83cbeb;fill-opacity:1;fill-rule:nonzero;stroke:none"
         transform="matrix(1.3333333,0,0,-1.3333333,0,720)" />
    </g>
    <g
       id="g24">
      <path
         id="path25"
         d="M 1.1014844,0.00101562 V -9.2450781 h 1.9335937 v 3.6210937 H 7.2186719 V -9.2450781 H 9.1522656 V 0.00101562 H 7.2186719 V -3.9247656 H 3.0350781 V 0.00101562 Z M 10.980391,2.4619531 V 0.98539062 h 0.597656 c 0.272461,0 0.498047,-0.0527344 0.679687,-0.15234375 0.178711,-0.09375 0.310547,-0.25195312 0.398438,-0.46875 L 12.808516,0.00101562 10.195234,-6.7021094 h 1.898438 l 1.6875,4.9570313 1.511719,-4.9570313 h 1.839843 L 14.730391,0.00101562 14.484297,0.66898437 C 14.302656,1.1377344 14.100508,1.5010156 13.874922,1.7588281 13.646406,2.0225 13.365156,2.2070703 13.031172,2.3096094 12.703047,2.4092187 12.292891,2.4619531 11.800703,2.4619531 Z m 9.331054,-2.34374998 c -0.500976,0 -0.955078,-0.12304687 -1.359375,-0.375 -0.398437,-0.24902343 -0.714843,-0.63574218 -0.949218,-1.16015622 -0.228516,-0.5214844 -0.339844,-1.1835938 -0.339844,-1.9804688 0,-0.7734375 0.123047,-1.4091797 0.375,-1.9101562 0.249023,-0.506836 0.585937,-0.881836 1.007812,-1.125 0.427735,-0.2490235 0.908203,-0.375 1.441407,-0.375 0.45996,0 0.858398,0.099609 1.195312,0.2929687 0.333984,0.1875 0.600586,0.4394531 0.796875,0.75 v -3.4804687 h 1.828125 v 9.24609372 h -1.746094 l -0.08203,-0.94921875 c -0.234375,0.328125 -0.527344,0.59179688 -0.878906,0.78515625 -0.351563,0.1875 -0.782227,0.28125 -1.289063,0.28125 z m 0.539063,-1.38281252 c 0.380859,0 0.708984,-0.1054687 0.984375,-0.3164062 0.28125,-0.2167969 0.495117,-0.4716797 0.644531,-0.7617188 v -1.9570312 c -0.140625,-0.3046875 -0.339844,-0.5654297 -0.597656,-0.7851563 -0.257813,-0.2255859 -0.574219,-0.3398437 -0.949219,-0.3398437 -0.445312,0 -0.793945,0.1757812 -1.042969,0.5273437 -0.243164,0.3457031 -0.363281,0.84375 -0.363281,1.5 0,0.7265625 0.117188,1.265625 0.351563,1.6171875 0.234375,0.3457031 0.55664,0.515625 0.972656,0.515625 z m 5.396484,1.26562502 V -6.7021094 h 1.746094 l 0.03516,1.1601563 c 0.169922,-0.3984375 0.427735,-0.703125 0.773438,-0.9140625 0.351562,-0.2167969 0.776367,-0.328125 1.277343,-0.328125 h 0.128907 v 1.5234375 h -0.164063 c -0.27539,0 -0.536133,0.023437 -0.785156,0.070312 -0.243164,0.046875 -0.46582,0.1289062 -0.667969,0.2460937 -0.205078,0.1171875 -0.380859,0.28125 -0.527344,0.4921875 v 4.45312502 z m 6.665039,0.1171875 c -0.383789,0 -0.738281,-0.07617187 -1.066406,-0.22265625 -0.328125,-0.14648437 -0.594727,-0.36621093 -0.796875,-0.65625 -0.205078,-0.29589847 -0.304688,-0.66796877 -0.304688,-1.11328127 0,-0.6152344 0.181641,-1.0810547 0.550782,-1.3945312 0.375,-0.3105469 0.893554,-0.5214844 1.558593,-0.6328125 0.66211,-0.1171875 1.435547,-0.1816407 2.320313,-0.1992188 v -0.3632812 c 0,-0.4365235 -0.105469,-0.7324219 -0.316406,-0.890625 -0.205078,-0.1640625 -0.46875,-0.2460938 -0.796875,-0.2460938 -0.360352,0 -0.65625,0.087891 -0.890625,0.2578125 -0.234375,0.1728516 -0.351563,0.4541016 -0.351563,0.84375 h -1.699219 c 0,-0.5771484 0.120118,-1.03125 0.363282,-1.359375 0.249023,-0.3339844 0.597656,-0.5771484 1.042968,-0.7265625 0.445313,-0.1464844 0.955079,-0.2226562 1.535157,-0.2226562 0.421875,0 0.808593,0.035156 1.160156,0.1054687 0.357422,0.070312 0.667969,0.1962891 0.925781,0.375 0.257813,0.1728516 0.457031,0.4101563 0.597656,0.7148438 0.140625,0.2988281 0.210938,0.6679687 0.210938,1.1132812 v 4.50000002 h -1.699219 l -0.05859,-0.8671875 c -0.28125,0.32226563 -0.609375,0.56835938 -0.984375,0.73828125 -0.375,0.1640625 -0.808593,0.24609375 -1.300781,0.24609375 z m 0.597656,-1.25390622 c 0.342774,0 0.65918,-0.084961 0.949219,-0.2578125 0.28711,-0.178711 0.521485,-0.3867188 0.703125,-0.6210938 v -1.078125 c -0.960937,0 -1.637695,0.09082 -2.027344,0.2695313 -0.383789,0.1728515 -0.574218,0.4570312 -0.574218,0.8554687 0,0.28125 0.08496,0.4921875 0.257812,0.6328125 0.178711,0.1347656 0.410156,0.1992188 0.691406,0.1992188 z m 8.124024,1.13671872 c -0.679688,0 -1.207031,-0.08203125 -1.582031,-0.24609375 -0.375,-0.1640625 -0.638672,-0.41308593 -0.785157,-0.75 C 39.125898,-1.3378516 39.055586,-1.7831641 39.055586,-2.3310156 v -2.9648438 h -1.113281 v -1.40625 h 1.113281 v -1.5820312 h 1.816406 v 1.5820312 h 1.464844 v 1.40625 h -1.464844 v 2.8476563 c 0,0.3603515 0.04687,0.6269531 0.140625,0.796875 0.09961,0.1640625 0.328125,0.2460937 0.679688,0.2460937 h 0.644531 v 1.40625002 z m 3.978516,0.1171875 c -0.38379,0 -0.738282,-0.07617187 -1.066407,-0.22265625 -0.328125,-0.14648437 -0.594726,-0.36621093 -0.796875,-0.65625 -0.205078,-0.29589847 -0.304687,-0.66796877 -0.304687,-1.11328127 0,-0.6152344 0.18164,-1.0810547 0.550781,-1.3945312 0.375,-0.3105469 0.893555,-0.5214844 1.558594,-0.6328125 0.662109,-0.1171875 1.435547,-0.1816407 2.320312,-0.1992188 v -0.3632812 c 0,-0.4365235 -0.105468,-0.7324219 -0.316406,-0.890625 -0.205078,-0.1640625 -0.46875,-0.2460938 -0.796875,-0.2460938 -0.360352,0 -0.65625,0.087891 -0.890625,0.2578125 -0.234375,0.1728516 -0.351562,0.4541016 -0.351562,0.84375 h -1.699219 c 0,-0.5771484 0.120117,-1.03125 0.363281,-1.359375 0.249023,-0.3339844 0.597656,-0.5771484 1.042969,-0.7265625 0.445312,-0.1464844 0.955078,-0.2226562 1.535156,-0.2226562 0.421875,0 0.808594,0.035156 1.160156,0.1054687 0.357422,0.070312 0.667969,0.1962891 0.925782,0.375 0.257812,0.1728516 0.457031,0.4101563 0.597656,0.7148438 0.140625,0.2988281 0.210937,0.6679687 0.210937,1.1132812 v 4.50000002 h -1.699218 l -0.05859,-0.8671875 c -0.28125,0.32226563 -0.609375,0.56835938 -0.984375,0.73828125 -0.375,0.1640625 -0.808594,0.24609375 -1.300781,0.24609375 z m 0.597656,-1.25390622 c 0.342773,0 0.659179,-0.084961 0.949219,-0.2578125 0.287109,-0.178711 0.521484,-0.3867188 0.703125,-0.6210938 v -1.078125 c -0.960938,0 -1.637696,0.09082 -2.027344,0.2695313 -0.383789,0.1728515 -0.574219,0.4570312 -0.574219,0.8554687 0,0.28125 0.08496,0.4921875 0.257813,0.6328125 0.17871,0.1347656 0.410156,0.1992188 0.691406,0.1992188 z m 8.124023,1.13671872 c -0.679687,0 -1.207031,-0.08203125 -1.582031,-0.24609375 -0.375,-0.1640625 -0.638672,-0.41308593 -0.785156,-0.75 C 51.826094,-1.3378516 51.755781,-1.7831641 51.755781,-2.3310156 V -5.2958594 H 50.6425 v -1.40625 h 1.113281 v -1.5820312 h 1.816406 v 1.5820312 h 1.464844 v 1.40625 h -1.464844 v 2.8476563 c 0,0.3603515 0.04687,0.6269531 0.140625,0.796875 0.09961,0.1640625 0.328125,0.2460937 0.679688,0.2460937 h 0.644531 v 1.40625002 z m 2.150391,0 V -6.7021094 h 1.816406 v 6.70312502 z m 0.914062,-7.58203122 c -0.336914,0 -0.594726,-0.082031 -0.773437,-0.2460938 -0.172852,-0.1699219 -0.257813,-0.3808594 -0.257813,-0.6328125 0,-0.2578125 0.08496,-0.46875 0.257813,-0.6328125 0.178711,-0.1699219 0.436523,-0.2578125 0.773437,-0.2578125 0.333985,0 0.588868,0.087891 0.761719,0.2578125 0.178711,0.1640625 0.269531,0.375 0.269531,0.6328125 0,0.2519531 -0.09082,0.4628906 -0.269531,0.6328125 -0.172851,0.1640625 -0.427734,0.2460938 -0.761719,0.2460938 z m 5.859375,7.68749997 c -0.679687,0 -1.277343,-0.13183593 -1.792968,-0.3984375 C 60.955,-0.56441406 60.562422,-0.9540625 60.281172,-1.4638281 c -0.275391,-0.515625 -0.410156,-1.1367188 -0.410156,-1.8632813 0,-0.7412109 0.134765,-1.3710937 0.410156,-1.8867187 0.28125,-0.5214844 0.673828,-0.9199219 1.183594,-1.1953125 0.515625,-0.272461 1.113281,-0.4101563 1.792968,-0.4101563 0.685547,0 1.283203,0.1376953 1.792969,0.4101563 0.506836,0.2753906 0.902344,0.6738281 1.183594,1.1953125 0.287109,0.515625 0.433594,1.1455078 0.433594,1.8867187 0,0.7265625 -0.146485,1.3476563 -0.433594,1.8632813 -0.28125,0.5097656 -0.676758,0.89941404 -1.183594,1.17187497 -0.509766,0.26660157 -1.107422,0.3984375 -1.792969,0.3984375 z m 0,-1.38281247 c 0.398438,0 0.708985,-0.087891 0.9375,-0.2695313 0.225586,-0.1875 0.386719,-0.4365234 0.480469,-0.75 0.09375,-0.3105469 0.140625,-0.65625 0.140625,-1.03125 0,-0.3808594 -0.04687,-0.7294922 -0.140625,-1.0429687 -0.09375,-0.319336 -0.254883,-0.5742188 -0.480469,-0.7617188 -0.228515,-0.1875 -0.539062,-0.28125 -0.9375,-0.28125 -0.392578,0 -0.700195,0.09375 -0.925781,0.28125 -0.219726,0.1875 -0.375,0.4423828 -0.46875,0.7617188 -0.08789,0.3134765 -0.128906,0.6621093 -0.128906,1.0429687 0,0.375 0.04102,0.7207031 0.128906,1.03125 0.09375,0.3134766 0.249024,0.5625 0.46875,0.75 0.225586,0.1816406 0.533203,0.2695313 0.925781,0.2695313 z M 68.2675,0.00101562 V -6.7021094 h 1.757812 l 0.03516,1.0078125 c 0.216797,-0.2871094 0.509765,-0.5419922 0.878906,-0.7617187 0.366211,-0.225586 0.84375,-0.3398438 1.429687,-0.3398438 0.679688,0 1.207032,0.2080078 1.582032,0.6210938 0.375,0.4160156 0.5625,1.0195312 0.5625,1.8164062 V 0.00101562 H 72.708906 V -4.1239844 c 0,-0.2402344 -0.03516,-0.4511719 -0.105469,-0.6328125 -0.06445,-0.1875 -0.169921,-0.3310547 -0.316406,-0.4335937 -0.149414,-0.099609 -0.345703,-0.1523438 -0.585937,-0.1523438 -0.369141,0 -0.679688,0.087891 -0.9375,0.2578125 -0.257813,0.1640625 -0.486328,0.3720703 -0.679688,0.6210938 v 4.46484372 z m 10.839844,0.12890625 c -0.375,0 -0.744141,-0.03515625 -1.101563,-0.10546875 -0.351562,-0.0703125 -0.673828,-0.1875 -0.960937,-0.3515625 -0.290039,-0.16992187 -0.521485,-0.40136718 -0.691407,-0.69140622 -0.164062,-0.2871094 -0.246093,-0.647461 -0.246093,-1.078125 h 1.6875 c 0,0.375 0.128906,0.6386718 0.386718,0.7851562 0.263672,0.1494141 0.574219,0.2226563 0.925782,0.2226563 0.351562,0 0.621093,-0.052734 0.808593,-0.1640625 0.19336,-0.1171875 0.292969,-0.3076172 0.292969,-0.5742188 0,-0.2490234 -0.114258,-0.4365234 -0.339844,-0.5625 -0.228515,-0.1230469 -0.621093,-0.2490234 -1.183593,-0.375 -0.477539,-0.1171875 -0.902344,-0.2519531 -1.277344,-0.4101562 -0.375,-0.1640625 -0.667969,-0.3808594 -0.878906,-0.65625 -0.210938,-0.272461 -0.316407,-0.6328125 -0.316407,-1.078125 0,-0.3427735 0.07617,-0.6357422 0.234375,-0.8789063 0.164063,-0.2490234 0.37793,-0.4482422 0.644532,-0.5976562 0.272461,-0.1464844 0.577148,-0.2519532 0.914062,-0.3164063 0.333985,-0.070312 0.679688,-0.1054687 1.03125,-0.1054687 0.342774,0 0.679688,0.035156 1.007813,0.1054687 0.328125,0.064453 0.624023,0.1757813 0.890625,0.3398438 0.263672,0.1640625 0.474609,0.383789 0.632812,0.65625 0.164063,0.2753906 0.246094,0.618164 0.246094,1.03125 h -1.6875 c 0,-0.3427735 -0.111328,-0.5800782 -0.328125,-0.7148438 -0.210938,-0.1318359 -0.46582,-0.1992187 -0.761719,-0.1992187 -0.313476,0 -0.5625,0.046875 -0.75,0.140625 -0.18164,0.087891 -0.269531,0.234375 -0.269531,0.4453125 0,0.1259765 0.05859,0.234375 0.175781,0.328125 0.117188,0.09375 0.298828,0.1845703 0.550781,0.2695312 0.249024,0.079102 0.580079,0.1640625 0.996094,0.2578125 0.427735,0.09375 0.814453,0.2226563 1.160156,0.3867188 0.342774,0.1582031 0.615235,0.3720703 0.820313,0.6445312 0.202148,0.2753906 0.304687,0.6269531 0.304687,1.0546875 0,0.3984375 -0.08203,0.7382813 -0.246093,1.0195313 -0.164063,0.28124997 -0.383789,0.5097656 -0.65625,0.67968747 -0.266602,0.17285157 -0.574219,0.29882813 -0.925782,0.375 -0.351562,0.07617188 -0.714843,0.1171875 -1.089843,0.1171875 z m 0,0"
         style="fill:#83caeb;fill-opacity:1;fill-rule:nonzero;stroke:none"
         aria-label="Hydratations"
         transform="matrix(1.3333333,0,0,1.3333333,556.22667,338.05333)"
         clip-path="url(#clipPath26)" />
      <path
         id="path27"
         d="m 0.49082031,-2.6122656 v -1.546875 H 4.2876953 v 1.546875 z m 0,0"
         style="fill:#83caeb;fill-opacity:1;fill-rule:nonzero;stroke:none"
         aria-label="-"
         transform="matrix(1.3333333,0,0,1.3333333,666.46667,338.05333)"
         clip-path="url(#clipPath28)" />
      <path
         id="path29"
         d="m 4.0546094,0.129375 c -0.75,0 -1.3798828,-0.13476563 -1.8867188,-0.41015625 -0.5009765,-0.28125 -0.8847656,-0.68261719 -1.1484375,-1.20703125 -0.25781248,-0.5214844 -0.38671873,-1.1484375 -0.38671873,-1.875 0,-0.7089844 0.12304688,-1.3183594 0.37500003,-1.828125 0.2578125,-0.515625 0.6328125,-0.9082031 1.125,-1.1835938 0.4921875,-0.28125 1.0927734,-0.421875 1.8046875,-0.421875 0.9990234,0 1.7871093,0.2929688 2.3671875,0.8789063 0.5771484,0.5800781 0.8671875,1.4121094 0.8671875,2.4960937 0,0.055664 -0.00586,0.1289063 -0.011719,0.2226563 0,0.09375 -0.00586,0.1640625 -0.011719,0.2109375 H 2.4491406 c 0.00586,0.3134766 0.061524,0.609375 0.1640625,0.890625 0.1083985,0.2753906 0.28125,0.4921875 0.515625,0.65625 0.234375,0.1640625 0.5419922,0.2460937 0.9257813,0.2460937 0.3896484,0 0.703125,-0.084961 0.9375,-0.2578125 0.2402343,-0.1699218 0.3632812,-0.4248046 0.3632812,-0.7617187 h 1.7929688 c -0.023437,0.5244141 -0.1699219,0.9609375 -0.4335938,1.3125 C 6.4569531,-0.55617188 6.0995312,-0.29835938 5.6483594,-0.1284375 5.1942578,0.04148437 4.6639844,0.129375 4.0546094,0.129375 Z M 2.4725781,-4.13625 H 5.3671094 C 5.3495312,-4.605 5.2089062,-4.9507031 4.9452344,-5.1792188 4.6874219,-5.4135938 4.3505078,-5.5307813 3.9374219,-5.5307813 c -0.4160157,0 -0.7587891,0.1230469 -1.03125,0.3632813 -0.2666016,0.234375 -0.4101563,0.5800781 -0.4335938,1.03125 z M 8.7801953,4.6875e-4 V -6.6909375 h 1.7460937 l 0.03516,0.9960937 c 0.225586,-0.28125 0.518555,-0.5302734 0.878907,-0.75 0.36621,-0.2255859 0.84375,-0.3398437 1.429687,-0.3398437 0.679688,0 1.207031,0.2080078 1.582031,0.6210937 0.375,0.4160157 0.5625,1.0195313 0.5625,1.8164063 V 4.6875e-4 H 13.221602 V -4.1245313 c 0,-0.2402343 -0.03516,-0.4511718 -0.105469,-0.6328125 -0.07031,-0.1787109 -0.181641,-0.3193359 -0.328125,-0.421875 -0.149414,-0.099609 -0.345703,-0.1523437 -0.585938,-0.1523437 -0.360351,0 -0.667968,0.087891 -0.925781,0.2578125 -0.257812,0.1640625 -0.486328,0.3691406 -0.679687,0.609375 V 4.6875e-4 Z m 10.9863277,0 c -0.679687,0 -1.207031,-0.08203125 -1.582031,-0.24609375 -0.36914,-0.1640625 -0.626953,-0.41308594 -0.773437,-0.75 -0.140625,-0.3427734 -0.210938,-0.7880859 -0.210938,-1.3359375 v -2.9648438 h -1.113281 v -1.3945312 h 1.113281 V -8.26125 h 1.816406 v 1.5703125 h 1.453125 v 1.3945312 h -1.453125 v 2.859375 c 0,0.3515625 0.04687,0.6152344 0.140625,0.7851563 0.09961,0.1640625 0.322266,0.2460937 0.667969,0.2460937 h 0.644531 V 4.6875e-4 Z m 2.197266,0 V -9.2221875 h 1.78125 v 3.5273437 c 0.225586,-0.28125 0.518555,-0.5302734 0.878906,-0.75 0.366211,-0.2255859 0.837891,-0.3398437 1.417969,-0.3398437 0.694336,0 1.224609,0.2080078 1.59375,0.6210937 0.375,0.4072266 0.5625,1.0136719 0.5625,1.8164063 V 4.6875e-4 H 26.381758 V -4.1245313 c 0,-0.2402343 -0.03516,-0.4511718 -0.105469,-0.6328125 -0.06445,-0.1787109 -0.169922,-0.3193359 -0.316406,-0.421875 -0.140625,-0.099609 -0.333985,-0.1523437 -0.574219,-0.1523437 -0.360352,0 -0.667969,0.087891 -0.925781,0.2578125 -0.257813,0.1640625 -0.486328,0.3691406 -0.679688,0.609375 V 4.6875e-4 Z m 9.955078,0.1171875 c -0.383789,0 -0.738281,-0.0703125 -1.066406,-0.2109375 -0.328125,-0.14648438 -0.594727,-0.36914063 -0.796875,-0.66796875 -0.205078,-0.2958984 -0.304688,-0.6679688 -0.304688,-1.1132813 0,-0.6152343 0.181641,-1.0810546 0.550782,-1.3945312 0.375,-0.3105469 0.893554,-0.5214844 1.558593,-0.6328125 0.66211,-0.1083984 1.435547,-0.1757813 2.320313,-0.1992188 v -0.3515625 c 0,-0.4365234 -0.105469,-0.7324218 -0.316406,-0.890625 -0.210938,-0.1640625 -0.480469,-0.2460937 -0.808594,-0.2460937 -0.360352,0 -0.65625,0.087891 -0.890625,0.2578125 -0.234375,0.1728516 -0.351563,0.4511719 -0.351563,0.8320312 H 30.11418 c 0,-0.5683593 0.123047,-1.0195312 0.375,-1.3476562 0.249023,-0.3339844 0.591797,-0.5771484 1.03125,-0.7265625 0.445312,-0.1464844 0.955078,-0.2226563 1.535156,-0.2226563 0.427734,0 0.820312,0.035156 1.171875,0.1054688 0.351562,0.070312 0.65625,0.1962891 0.914062,0.375 0.257813,0.1728516 0.457032,0.4101562 0.597657,0.7148437 0.140625,0.2988282 0.210937,0.6679688 0.210937,1.1132813 V 4.6875e-4 h -1.699219 l -0.05859,-0.8671875 c -0.28125,0.32226562 -0.609375,0.56835937 -0.984375,0.73828125 -0.375,0.1640625 -0.805664,0.24609375 -1.289063,0.24609375 z M 32.516523,-1.13625 c 0.333985,0 0.647461,-0.084961 0.9375,-0.2578125 0.295899,-0.1787109 0.530274,-0.3808594 0.703125,-0.609375 v -1.0898438 c -0.960937,0.00879 -1.634765,0.1025391 -2.015625,0.28125 -0.383789,0.1728516 -0.574218,0.4541016 -0.574218,0.84375 0,0.28125 0.08496,0.4921875 0.257812,0.6328125 0.178711,0.1347657 0.410156,0.1992188 0.691406,0.1992188 z M 40.42082,4.6875e-4 c -0.679687,0 -1.207031,-0.08203125 -1.582031,-0.24609375 -0.369141,-0.1640625 -0.626953,-0.41308594 -0.773437,-0.75 -0.140625,-0.3427734 -0.210938,-0.7880859 -0.210938,-1.3359375 v -6.890625 h 1.804688 v 6.7851562 c 0,0.3515625 0.04687,0.609375 0.140625,0.7734375 0.09961,0.1640625 0.328125,0.2460938 0.679687,0.2460938 h 0.421875 V 4.6875e-4 Z m 1.675782,2.44921875 v -9.140625 h 1.710937 l 0.105469,1.0195312 c 0.249023,-0.3574218 0.544922,-0.6357421 0.890625,-0.8320312 0.351562,-0.1933594 0.761719,-0.2929688 1.230469,-0.2929688 0.521484,0 0.987304,0.1289063 1.394531,0.3867188 0.404297,0.2519531 0.720703,0.6328125 0.949219,1.1484375 0.234375,0.5097656 0.351562,1.1601562 0.351562,1.9570312 0,0.7734375 -0.125977,1.4150391 -0.375,1.921875 -0.251953,0.50097661 -0.591797,0.87597661 -1.019531,1.12500005 -0.421875,0.25195312 -0.899414,0.37792969 -1.429688,0.38671875 -0.430664,0 -0.817383,-0.09082031 -1.160156,-0.26953125 -0.336914,-0.1875 -0.615234,-0.4453125 -0.832031,-0.7734375 V 2.4496875 Z m 3.363281,-3.7148438 c 0.451172,0 0.799804,-0.1757812 1.042969,-0.5273437 0.240234,-0.3515625 0.363281,-0.8613281 0.363281,-1.5351563 0,-0.703125 -0.114258,-1.2246093 -0.339844,-1.5703125 -0.228516,-0.3427734 -0.536133,-0.515625 -0.925781,-0.515625 -0.416016,0 -0.770508,0.1171875 -1.066406,0.3515625 -0.29004,0.2285157 -0.498047,0.4775391 -0.621094,0.75 v 1.9804688 c 0.146484,0.2900391 0.351562,0.5390625 0.609375,0.75 0.263672,0.2109375 0.577148,0.3164062 0.9375,0.3164062 z M 50.36418,4.6875e-4 V -6.6909375 h 1.816406 V 4.6875e-4 Z m 0.914062,-7.57031255 c -0.336914,0 -0.594726,-0.082031 -0.773437,-0.2460937 -0.172852,-0.1699219 -0.257813,-0.3808594 -0.257813,-0.6328125 0,-0.2578125 0.08496,-0.46875 0.257813,-0.6328125 0.178711,-0.1699219 0.436523,-0.2578125 0.773437,-0.2578125 0.333985,0 0.588867,0.087891 0.761719,0.2578125 0.178711,0.1640625 0.269531,0.375 0.269531,0.6328125 0,0.2519531 -0.09082,0.4628906 -0.269531,0.6328125 -0.172852,0.1640625 -0.427734,0.2460937 -0.761719,0.2460937 z m 5.888672,7.6992188 c -0.75,0 -1.379883,-0.13476563 -1.886719,-0.41015625 -0.500976,-0.28125 -0.884765,-0.68261719 -1.148437,-1.20703125 -0.257813,-0.5214844 -0.386719,-1.1484375 -0.386719,-1.875 0,-0.7089844 0.123047,-1.3183594 0.375,-1.828125 0.257813,-0.515625 0.632813,-0.9082031 1.125,-1.1835938 0.492188,-0.28125 1.092773,-0.421875 1.804688,-0.421875 0.999023,0 1.787109,0.2929688 2.367187,0.8789063 0.577148,0.5800781 0.867188,1.4121094 0.867188,2.4960937 0,0.055664 -0.0059,0.1289063 -0.01172,0.2226563 0,0.09375 -0.0059,0.1640625 -0.01172,0.2109375 h -4.699219 c 0.0059,0.3134766 0.06152,0.609375 0.164063,0.890625 0.108398,0.2753906 0.28125,0.4921875 0.515625,0.65625 0.234375,0.1640625 0.541992,0.2460937 0.925781,0.2460937 0.389648,0 0.703125,-0.084961 0.9375,-0.2578125 0.240234,-0.1699218 0.363281,-0.4248046 0.363281,-0.7617187 h 1.792969 c -0.02344,0.5244141 -0.169922,0.9609375 -0.433594,1.3125 -0.257812,0.34570312 -0.615234,0.60351562 -1.066406,0.7734375 C 58.30656,0.04148437 57.776287,0.129375 57.166912,0.129375 Z M 55.584883,-4.13625 h 2.894531 c -0.01758,-0.46875 -0.158203,-0.8144531 -0.421875,-1.0429688 -0.257812,-0.234375 -0.594727,-0.3515625 -1.007812,-0.3515625 -0.416016,0 -0.75879,0.1230469 -1.03125,0.3632813 -0.266602,0.234375 -0.410157,0.5800781 -0.433594,1.03125 z m 0,0"
         style="fill:#83caeb;fill-opacity:1;fill-rule:nonzero;stroke:none"
         aria-label="enthalpie"
         transform="matrix(1.3333333,0,0,1.3333333,556.22667,360.64)"
         clip-path="url(#clipPath30)" />
    </g>
    <g
       id="g30">
      <path
         id="path31"
         d="M 1.1019141,0.00101562 V -9.2450781 h 1.9335937 v 7.546875 H 6.9378516 V 0.00101562 Z M 11.317734,0.10648437 c -0.679687,0 -1.277343,-0.13183593 -1.7929684,-0.3984375 C 9.015,-0.56441406 8.6224219,-0.9540625 8.3411719,-1.4638281 8.0657812,-1.9794531 7.9310156,-2.6005469 7.9310156,-3.3271094 c 0,-0.7412109 0.1347656,-1.3710937 0.4101563,-1.8867187 0.28125,-0.5214844 0.6738281,-0.9199219 1.1835937,-1.1953125 0.5156254,-0.272461 1.1132814,-0.4101563 1.7929684,-0.4101563 0.685547,0 1.283203,0.1376953 1.792969,0.4101563 0.506836,0.2753906 0.902344,0.6738281 1.183594,1.1953125 0.287109,0.515625 0.433594,1.1455078 0.433594,1.8867187 0,0.7265625 -0.146485,1.3476563 -0.433594,1.8632813 -0.28125,0.5097656 -0.676758,0.89941404 -1.183594,1.17187497 -0.509766,0.26660157 -1.107422,0.3984375 -1.792969,0.3984375 z m 0,-1.38281247 c 0.398438,0 0.708985,-0.087891 0.9375,-0.2695313 0.225586,-0.1875 0.386719,-0.4365234 0.480469,-0.75 0.09375,-0.3105469 0.140625,-0.65625 0.140625,-1.03125 0,-0.3808594 -0.04687,-0.7294922 -0.140625,-1.0429687 -0.09375,-0.319336 -0.254883,-0.5742188 -0.480469,-0.7617188 -0.228515,-0.1875 -0.539062,-0.28125 -0.9375,-0.28125 -0.392578,0 -0.700195,0.09375 -0.925781,0.28125 -0.219726,0.1875 -0.375,0.4423828 -0.4687499,0.7617188 -0.087891,0.3134765 -0.1289062,0.6621093 -0.1289062,1.0429687 0,0.375 0.041016,0.7207031 0.1289062,1.03125 0.09375,0.3134766 0.2490239,0.5625 0.4687499,0.75 0.225586,0.1816406 0.533203,0.2695313 0.925781,0.2695313 z m 1.335938,-6.375 c -0.234375,0 -0.433594,-0.076172 -0.597656,-0.234375 -0.158204,-0.1552735 -0.234375,-0.3457032 -0.234375,-0.5742188 0,-0.234375 0.07617,-0.4248047 0.234375,-0.5742187 0.164062,-0.1552735 0.363281,-0.234375 0.597656,-0.234375 0.234375,0 0.427734,0.079102 0.585937,0.234375 0.155274,0.149414 0.234375,0.3398437 0.234375,0.5742187 0,0.2285156 -0.0791,0.4189453 -0.234375,0.5742188 -0.158203,0.1582031 -0.351562,0.234375 -0.585937,0.234375 z m -2.636719,0 c -0.2343749,0 -0.4335936,-0.076172 -0.5976561,-0.234375 -0.1582032,-0.1552735 -0.234375,-0.3457032 -0.234375,-0.5742188 0,-0.234375 0.076172,-0.4248047 0.234375,-0.5742187 0.1640625,-0.1552735 0.3632812,-0.234375 0.5976561,-0.234375 0.225586,0 0.416016,0.079102 0.574219,0.234375 0.164062,0.149414 0.246094,0.3398437 0.246094,0.5742187 0,0.2285156 -0.08203,0.4189453 -0.246094,0.5742188 -0.158203,0.1582031 -0.348633,0.234375 -0.574219,0.234375 z m 9.008789,7.78124997 c -0.375,0 -0.74414,-0.03515625 -1.101562,-0.10546875 -0.351563,-0.0703125 -0.673828,-0.1875 -0.960938,-0.3515625 -0.290039,-0.16992187 -0.521484,-0.40136718 -0.691406,-0.69140622 -0.164063,-0.2871094 -0.246094,-0.647461 -0.246094,-1.078125 h 1.6875 c 0,0.375 0.128906,0.6386718 0.386719,0.7851562 0.263672,0.1494141 0.574219,0.2226563 0.925781,0.2226563 0.351563,0 0.621094,-0.052734 0.808594,-0.1640625 0.193359,-0.1171875 0.292969,-0.3076172 0.292969,-0.5742188 0,-0.2490234 -0.114258,-0.4365234 -0.339844,-0.5625 -0.228516,-0.1230469 -0.621094,-0.2490234 -1.183594,-0.375 -0.477539,-0.1171875 -0.902344,-0.2519531 -1.277344,-0.4101562 -0.375,-0.1640625 -0.667968,-0.3808594 -0.878906,-0.65625 -0.210937,-0.272461 -0.316406,-0.6328125 -0.316406,-1.078125 0,-0.3427735 0.07617,-0.6357422 0.234375,-0.8789063 0.164062,-0.2490234 0.37793,-0.4482422 0.644531,-0.5976562 0.272461,-0.1464844 0.577149,-0.2519532 0.914063,-0.3164063 0.333984,-0.070312 0.679687,-0.1054687 1.03125,-0.1054687 0.342773,0 0.679687,0.035156 1.007812,0.1054687 0.328125,0.064453 0.624024,0.1757813 0.890625,0.3398438 0.263672,0.1640625 0.47461,0.383789 0.632813,0.65625 0.164062,0.2753906 0.246093,0.618164 0.246093,1.03125 h -1.6875 c 0,-0.3427735 -0.111328,-0.5800782 -0.328125,-0.7148438 -0.210937,-0.1318359 -0.46582,-0.1992187 -0.761718,-0.1992187 -0.313477,0 -0.5625,0.046875 -0.75,0.140625 -0.181641,0.087891 -0.269532,0.234375 -0.269532,0.4453125 0,0.1259765 0.05859,0.234375 0.175782,0.328125 0.117187,0.09375 0.298828,0.1845703 0.550781,0.2695312 0.249023,0.079102 0.580078,0.1640625 0.996094,0.2578125 0.427734,0.09375 0.814453,0.2226563 1.160156,0.3867188 0.342773,0.1582031 0.615234,0.3720703 0.820312,0.6445312 0.202149,0.2753906 0.304688,0.6269531 0.304688,1.0546875 0,0.3984375 -0.08203,0.7382813 -0.246094,1.0195313 -0.164062,0.28124997 -0.383789,0.5097656 -0.65625,0.67968747 -0.266601,0.17285157 -0.574219,0.29882813 -0.925781,0.375 -0.351563,0.07617188 -0.714844,0.1171875 -1.089844,0.1171875 z m 6.56543,-0.03515625 c -0.679688,0 -1.207031,-0.2109375 -1.582031,-0.6328125 C 23.64,-0.95992188 23.458359,-1.5575781 23.458359,-2.3310156 v -4.3710938 h 1.816407 v 4.1601563 c 0,0.2285156 0.0293,0.430664 0.09375,0.609375 0.07031,0.1728515 0.178711,0.3105468 0.328125,0.4101562 0.155273,0.09375 0.363281,0.140625 0.621093,0.140625 0.366211,0 0.679688,-0.082031 0.9375,-0.2460937 0.257813,-0.1640625 0.480469,-0.3632813 0.667969,-0.5976563 v -4.4765625 h 1.828125 v 6.70312502 h -1.757812 l -0.03516,-1.00781252 c -0.219726,0.28125002 -0.524414,0.53613284 -0.914062,0.76171877 -0.392578,0.22851563 -0.875977,0.33984375 -1.453125,0.33984375 z m 6.111328,-0.09375 V -6.7021094 h 1.757812 l 0.03516,1.0078125 c 0.216797,-0.2871094 0.509765,-0.5419922 0.878906,-0.7617187 0.366211,-0.225586 0.84375,-0.3398438 1.429687,-0.3398438 0.679688,0 1.207032,0.2080078 1.582032,0.6210938 0.375,0.4160156 0.5625,1.0195312 0.5625,1.8164062 V 0.00101562 H 36.143906 V -4.1239844 c 0,-0.2402344 -0.03516,-0.4511719 -0.105469,-0.6328125 -0.06445,-0.1875 -0.169921,-0.3310547 -0.316406,-0.4335937 -0.149414,-0.099609 -0.345703,-0.1523438 -0.585937,-0.1523438 -0.369141,0 -0.679688,0.087891 -0.9375,0.2578125 -0.257813,0.1640625 -0.486328,0.3720703 -0.679688,0.6210938 V 0.00101562 Z M 42.48082,2.5908594 c -0.796875,0 -1.435547,-0.082031 -1.910156,-0.2460938 -0.46875,-0.1640625 -0.808594,-0.383789 -1.019531,-0.65625 -0.205078,-0.2666015 -0.304688,-0.5566406 -0.304688,-0.86718748 0,-0.375 0.178711,-0.70898437 0.539063,-0.99609375 0.366211,-0.28710937 0.940429,-0.48632812 1.722656,-0.59765625 l 0.304688,-0.64453122 h 0.902343 c 1.116211,0 1.927735,0.1523437 2.4375,0.45703122 0.506836,0.3046875 0.761719,0.7734375 0.761719,1.40625 C 45.914414,1.085 45.621445,1.600625 45.035508,1.9932031 44.44957,2.3916406 43.597031,2.5908594 42.48082,2.5908594 Z M 42.45738,1.4541406 c 0.609375,0 1.037109,-0.082031 1.289062,-0.2460937 0.257813,-0.1582032 0.386719,-0.35156253 0.386719,-0.58593753 0,-0.140625 -0.04395,-0.26367187 -0.128906,-0.36328125 -0.08789,-0.10253906 -0.231446,-0.18164062 -0.433594,-0.234375 -0.205078,-0.05273437 -0.474609,-0.08203125 -0.808594,-0.08203125 h -1.21875 c -0.18164,0.0703125 -0.328125,0.16699219 -0.445312,0.29296875 -0.111328,0.12304688 -0.164063,0.26953125 -0.164063,0.43359375 0,0.1875 0.117188,0.36328123 0.351563,0.52734373 0.240234,0.1699219 0.632812,0.2578125 1.171875,0.2578125 z M 41.531602,-0.15132813 C 41.054062,-0.2040625 40.667344,-0.30367188 40.371445,-0.44429688 40.072617,-0.58492188 39.85582,-0.743125 39.715195,-0.92476563 39.57457,-1.1122656 39.504258,-1.2909766 39.504258,-1.4638281 c 0,-0.28125 0.105469,-0.5185547 0.316406,-0.7148438 0.216797,-0.1933594 0.541992,-0.3662109 0.972656,-0.515625 l 0.949219,0.3515625 c -0.251953,0.055664 -0.457031,0.1259766 -0.621094,0.2109375 -0.164062,0.087891 -0.246093,0.1933594 -0.246093,0.3164063 0,0.087891 0.04687,0.1611328 0.140625,0.2226562 0.09961,0.055664 0.27246,0.099609 0.515625,0.1289063 0.249023,0.032226 0.588867,0.046875 1.019531,0.046875 z m 0.832031,-1.98046877 c -0.609375,0 -1.13086,-0.1054687 -1.558594,-0.3164062 -0.421875,-0.2167969 -0.744141,-0.5039063 -0.960937,-0.8554688 -0.219727,-0.3574219 -0.328125,-0.7412109 -0.328125,-1.1484375 0,-0.4277344 0.108398,-0.8203125 0.328125,-1.171875 0.225585,-0.3515625 0.55371,-0.6328125 0.984375,-0.84375 0.427734,-0.2109375 0.952148,-0.3164062 1.570312,-0.3164062 0.638672,0 1.166016,0.1054687 1.582031,0.3164062 0.421875,0.2109375 0.732422,0.4921875 0.9375,0.84375 0.210938,0.3515625 0.316407,0.7441406 0.316407,1.171875 0,0.421875 -0.105469,0.8085938 -0.316407,1.1601563 -0.210937,0.3515625 -0.533203,0.6328125 -0.960937,0.84375 -0.421875,0.2109375 -0.955078,0.3164062 -1.59375,0.3164062 z m 0,-1.0898437 c 0.333984,0 0.615234,-0.1054688 0.84375,-0.3164063 0.225586,-0.2109375 0.339844,-0.515625 0.339844,-0.9140625 0,-0.421875 -0.105469,-0.7324219 -0.316407,-0.9375 -0.210937,-0.2021484 -0.486328,-0.3046875 -0.820312,-0.3046875 -0.345703,0 -0.629883,0.1054688 -0.855469,0.3164063 -0.228516,0.2109375 -0.339844,0.5214843 -0.339844,0.9257812 0,0.4072266 0.117188,0.7148438 0.351563,0.9257813 0.234375,0.2050781 0.498047,0.3046875 0.796875,0.3046875 z m 1.910156,-2.5429688 -0.539062,-0.6796875 c 0.17871,-0.4746094 0.457031,-0.7998047 0.832031,-0.9726562 0.375,-0.178711 0.823242,-0.2695313 1.347656,-0.2695313 v 1.3242188 c -0.360352,0 -0.688477,0.035156 -0.984375,0.1054687 -0.290039,0.064453 -0.509766,0.2285156 -0.65625,0.4921875 z m 5.455078,5.89453127 c -0.375,0 -0.74414,-0.03515625 -1.101562,-0.10546875 -0.351563,-0.0703125 -0.673828,-0.1875 -0.960938,-0.3515625 -0.290039,-0.16992187 -0.521484,-0.40136718 -0.691406,-0.69140622 -0.164063,-0.2871094 -0.246094,-0.647461 -0.246094,-1.078125 h 1.6875 c 0,0.375 0.128906,0.6386718 0.386719,0.7851562 0.263672,0.1494141 0.574219,0.2226563 0.925781,0.2226563 0.351563,0 0.621094,-0.052734 0.808594,-0.1640625 0.193359,-0.1171875 0.292969,-0.3076172 0.292969,-0.5742188 0,-0.2490234 -0.114258,-0.4365234 -0.339844,-0.5625 -0.228516,-0.1230469 -0.621094,-0.2490234 -1.183594,-0.375 -0.477539,-0.1171875 -0.902344,-0.2519531 -1.277344,-0.4101562 -0.375,-0.1640625 -0.667968,-0.3808594 -0.878906,-0.65625 -0.210937,-0.272461 -0.316406,-0.6328125 -0.316406,-1.078125 0,-0.3427735 0.07617,-0.6357422 0.234375,-0.8789063 0.164062,-0.2490234 0.37793,-0.4482422 0.644531,-0.5976562 0.272461,-0.1464844 0.577149,-0.2519532 0.914063,-0.3164063 0.333984,-0.070312 0.679687,-0.1054687 1.03125,-0.1054687 0.342773,0 0.679687,0.035156 1.007812,0.1054687 0.328125,0.064453 0.624024,0.1757813 0.890625,0.3398438 0.263672,0.1640625 0.47461,0.383789 0.632813,0.65625 0.164062,0.2753906 0.246093,0.618164 0.246093,1.03125 h -1.6875 c 0,-0.3427735 -0.111328,-0.5800782 -0.328125,-0.7148438 -0.210937,-0.1318359 -0.46582,-0.1992187 -0.761718,-0.1992187 -0.313477,0 -0.5625,0.046875 -0.75,0.140625 -0.181641,0.087891 -0.269532,0.234375 -0.269532,0.4453125 0,0.1259765 0.05859,0.234375 0.175782,0.328125 0.117187,0.09375 0.298828,0.1845703 0.550781,0.2695312 0.249023,0.079102 0.580078,0.1640625 0.996094,0.2578125 0.427734,0.09375 0.814453,0.2226563 1.160156,0.3867188 0.342773,0.1582031 0.615234,0.3720703 0.820312,0.6445312 0.202149,0.2753906 0.304688,0.6269531 0.304688,1.0546875 0,0.3984375 -0.08203,0.7382813 -0.246094,1.0195313 -0.164062,0.28124997 -0.383789,0.5097656 -0.65625,0.67968747 -0.266601,0.17285157 -0.574219,0.29882813 -0.925781,0.375 -0.351563,0.07617188 -0.714844,0.1171875 -1.089844,0.1171875 z m 0,0"
         style="fill:#92d050;fill-opacity:1;fill-rule:nonzero;stroke:none"
         aria-label="Lsungs"
         transform="matrix(1.3333333,0,0,1.3333333,324.48,338.05333)"
         clip-path="url(#clipPath32)" />
      <path
         id="path33"
         d="m 0.49183594,-2.6122656 v -1.546875 H 4.2887109 v 1.546875 z m 0,0"
         style="fill:#92d050;fill-opacity:1;fill-rule:nonzero;stroke:none"
         aria-label="-"
         transform="matrix(1.3333333,0,0,1.3333333,395.52,338.05333)"
         clip-path="url(#clipPath34)" />
      <path
         id="path35"
         d="m 4.0550391,0.129375 c -0.75,0 -1.3798829,-0.13476563 -1.8867188,-0.41015625 -0.5009766,-0.28125 -0.8847656,-0.68261719 -1.1484375,-1.20703125 -0.25781249,-0.5214844 -0.38671874,-1.1484375 -0.38671874,-1.875 0,-0.7089844 0.12304688,-1.3183594 0.37500004,-1.828125 0.2578125,-0.515625 0.6328125,-0.9082031 1.125,-1.1835938 0.4921875,-0.28125 1.0927734,-0.421875 1.8046875,-0.421875 0.9990234,0 1.7871093,0.2929688 2.3671875,0.8789063 0.5771484,0.5800781 0.8671875,1.4121094 0.8671875,2.4960937 0,0.055664 -0.00586,0.1289063 -0.011719,0.2226563 0,0.09375 -0.00586,0.1640625 -0.011719,0.2109375 H 2.4495703 c 0.00586,0.3134766 0.061523,0.609375 0.1640625,0.890625 0.1083984,0.2753906 0.28125,0.4921875 0.515625,0.65625 0.234375,0.1640625 0.5419922,0.2460937 0.9257813,0.2460937 0.3896484,0 0.703125,-0.084961 0.9375,-0.2578125 0.2402343,-0.1699218 0.3632812,-0.4248046 0.3632812,-0.7617187 h 1.7929688 c -0.023437,0.5244141 -0.1699219,0.9609375 -0.4335938,1.3125 C 6.4573828,-0.55617188 6.0999609,-0.29835938 5.6487891,-0.1284375 5.1946875,0.04148437 4.6644141,0.129375 4.0550391,0.129375 Z M 2.4730078,-4.13625 H 5.3675391 C 5.3499609,-4.605 5.2093359,-4.9507031 4.9456641,-5.1792188 4.6878516,-5.4135938 4.3509375,-5.5307813 3.9378516,-5.5307813 c -0.4160157,0 -0.7587891,0.1230469 -1.03125,0.3632813 C 2.64,-4.933125 2.4964453,-4.5874219 2.4730078,-4.13625 Z M 8.7776953,4.6875e-4 V -6.6909375 h 1.7460937 l 0.03516,0.9960937 c 0.225586,-0.28125 0.518555,-0.5302734 0.878907,-0.75 0.36621,-0.2255859 0.84375,-0.3398437 1.429687,-0.3398437 0.679688,0 1.207031,0.2080078 1.582031,0.6210937 0.375,0.4160157 0.5625,1.0195313 0.5625,1.8164063 V 4.6875e-4 H 13.219102 V -4.1245313 c 0,-0.2402343 -0.03516,-0.4511718 -0.105469,-0.6328125 -0.07031,-0.1787109 -0.181641,-0.3193359 -0.328125,-0.421875 -0.149414,-0.099609 -0.345703,-0.1523437 -0.585938,-0.1523437 -0.360351,0 -0.667968,0.087891 -0.925781,0.2578125 -0.257812,0.1640625 -0.486328,0.3691406 -0.679687,0.609375 V 4.6875e-4 Z m 10.9892577,0 c -0.679687,0 -1.207031,-0.08203125 -1.582031,-0.24609375 -0.369141,-0.1640625 -0.626953,-0.41308594 -0.773438,-0.75 -0.140625,-0.3427734 -0.210937,-0.7880859 -0.210937,-1.3359375 v -2.9648438 h -1.113281 v -1.3945312 h 1.113281 V -8.26125 h 1.816406 v 1.5703125 h 1.453125 v 1.3945312 h -1.453125 v 2.859375 c 0,0.3515625 0.04687,0.6152344 0.140625,0.7851563 0.09961,0.1640625 0.322266,0.2460937 0.667969,0.2460937 h 0.644531 V 4.6875e-4 Z m 2.194336,0 V -9.2221875 h 1.78125 v 3.5273437 c 0.225586,-0.28125 0.518555,-0.5302734 0.878906,-0.75 0.366211,-0.2255859 0.837891,-0.3398437 1.417969,-0.3398437 0.694336,0 1.224609,0.2080078 1.59375,0.6210937 0.375,0.4072266 0.5625,1.0136719 0.5625,1.8164063 V 4.6875e-4 H 26.379258 V -4.1245313 c 0,-0.2402343 -0.03516,-0.4511718 -0.105469,-0.6328125 -0.06445,-0.1787109 -0.169922,-0.3193359 -0.316406,-0.421875 -0.140625,-0.099609 -0.333985,-0.1523437 -0.574219,-0.1523437 -0.360352,0 -0.667969,0.087891 -0.925781,0.2578125 -0.257813,0.1640625 -0.486328,0.3691406 -0.679688,0.609375 V 4.6875e-4 Z m 9.958008,0.1171875 c -0.383789,0 -0.738281,-0.0703125 -1.066406,-0.2109375 -0.328125,-0.14648438 -0.594727,-0.36914063 -0.796875,-0.66796875 -0.205079,-0.2958984 -0.304688,-0.6679688 -0.304688,-1.1132813 0,-0.6152343 0.181641,-1.0810546 0.550781,-1.3945312 0.375,-0.3105469 0.893555,-0.5214844 1.558594,-0.6328125 0.662109,-0.1083984 1.435547,-0.1757813 2.320313,-0.1992188 v -0.3515625 c 0,-0.4365234 -0.105469,-0.7324218 -0.316407,-0.890625 -0.210937,-0.1640625 -0.480468,-0.2460937 -0.808593,-0.2460937 -0.360352,0 -0.65625,0.087891 -0.890625,0.2578125 -0.234375,0.1728516 -0.351563,0.4511719 -0.351563,0.8320312 h -1.699219 c 0,-0.5683593 0.123047,-1.0195312 0.375,-1.3476562 0.249024,-0.3339844 0.591797,-0.5771484 1.03125,-0.7265625 0.445313,-0.1464844 0.955078,-0.2226563 1.535157,-0.2226563 0.427734,0 0.820312,0.035156 1.171875,0.1054688 0.351562,0.070312 0.65625,0.1962891 0.914062,0.375 0.257813,0.1728516 0.457031,0.4101562 0.597656,0.7148437 0.140625,0.2988282 0.210938,0.6679688 0.210938,1.1132813 V 4.6875e-4 h -1.699219 l -0.05859,-0.8671875 c -0.28125,0.32226562 -0.609375,0.56835937 -0.984375,0.73828125 -0.375,0.1640625 -0.805664,0.24609375 -1.289062,0.24609375 z M 32.516953,-1.13625 c 0.333984,0 0.647461,-0.084961 0.9375,-0.2578125 0.295899,-0.1787109 0.530274,-0.3808594 0.703125,-0.609375 v -1.0898438 c -0.960937,0.00879 -1.634766,0.1025391 -2.015625,0.28125 -0.383789,0.1728516 -0.574219,0.4541016 -0.574219,0.84375 0,0.28125 0.08496,0.4921875 0.257813,0.6328125 0.178711,0.1347657 0.410156,0.1992188 0.691406,0.1992188 z M 40.41832,4.6875e-4 c -0.679687,0 -1.207031,-0.08203125 -1.582031,-0.24609375 -0.369141,-0.1640625 -0.626953,-0.41308594 -0.773437,-0.75 -0.140625,-0.3427734 -0.210938,-0.7880859 -0.210938,-1.3359375 v -6.890625 h 1.804688 v 6.7851562 c 0,0.3515625 0.04687,0.609375 0.140625,0.7734375 0.09961,0.1640625 0.328125,0.2460938 0.679687,0.2460938 h 0.421875 V 4.6875e-4 Z m 1.678711,2.44921875 v -9.140625 h 1.710938 l 0.105468,1.0195312 c 0.249024,-0.3574218 0.544922,-0.6357421 0.890625,-0.8320312 0.351563,-0.1933594 0.761719,-0.2929688 1.230469,-0.2929688 0.521485,0 0.987305,0.1289063 1.394531,0.3867188 0.404297,0.2519531 0.720704,0.6328125 0.949219,1.1484375 0.234375,0.5097656 0.351563,1.1601562 0.351563,1.9570312 0,0.7734375 -0.125977,1.4150391 -0.375,1.921875 -0.251953,0.50097661 -0.591797,0.87597661 -1.019532,1.12500005 -0.421875,0.25195312 -0.899414,0.37792969 -1.429687,0.38671875 -0.430664,0 -0.817383,-0.09082031 -1.160156,-0.26953125 -0.336914,-0.1875 -0.615235,-0.4453125 -0.832032,-0.7734375 V 2.4496875 Z m 3.363281,-3.7148438 c 0.451172,0 0.799805,-0.1757812 1.042969,-0.5273437 0.240235,-0.3515625 0.363281,-0.8613281 0.363281,-1.5351563 0,-0.703125 -0.114257,-1.2246093 -0.339843,-1.5703125 -0.228516,-0.3427734 -0.536133,-0.515625 -0.925782,-0.515625 -0.416015,0 -0.770507,0.1171875 -1.066406,0.3515625 -0.290039,0.2285157 -0.498047,0.4775391 -0.621094,0.75 v 1.9804688 c 0.146485,0.2900391 0.351563,0.5390625 0.609375,0.75 0.263672,0.2109375 0.577149,0.3164062 0.9375,0.3164062 z M 50.364609,4.6875e-4 V -6.6909375 h 1.816407 V 4.6875e-4 Z m 0.914063,-7.57031255 c -0.336914,0 -0.594727,-0.082031 -0.773438,-0.2460937 -0.172851,-0.1699219 -0.257812,-0.3808594 -0.257812,-0.6328125 0,-0.2578125 0.08496,-0.46875 0.257812,-0.6328125 0.178711,-0.1699219 0.436524,-0.2578125 0.773438,-0.2578125 0.333984,0 0.588867,0.087891 0.761719,0.2578125 0.178711,0.1640625 0.269531,0.375 0.269531,0.6328125 0,0.2519531 -0.09082,0.4628906 -0.269531,0.6328125 -0.172852,0.1640625 -0.427735,0.2460937 -0.761719,0.2460937 z m 5.888672,7.6992188 c -0.75,0 -1.379883,-0.13476563 -1.886719,-0.41015625 -0.500977,-0.28125 -0.884766,-0.68261719 -1.148438,-1.20703125 -0.257812,-0.5214844 -0.386718,-1.1484375 -0.386718,-1.875 0,-0.7089844 0.123047,-1.3183594 0.375,-1.828125 0.257812,-0.515625 0.632812,-0.9082031 1.125,-1.1835938 0.492187,-0.28125 1.092773,-0.421875 1.804687,-0.421875 0.999024,0 1.78711,0.2929688 2.367188,0.8789063 0.577148,0.5800781 0.867187,1.4121094 0.867187,2.4960937 0,0.055664 -0.0059,0.1289063 -0.01172,0.2226563 0,0.09375 -0.0059,0.1640625 -0.01172,0.2109375 h -4.699219 c 0.0059,0.3134766 0.06152,0.609375 0.164062,0.890625 0.108399,0.2753906 0.28125,0.4921875 0.515625,0.65625 0.234375,0.1640625 0.541993,0.2460937 0.925782,0.2460937 0.389648,0 0.703125,-0.084961 0.9375,-0.2578125 0.240234,-0.1699218 0.363281,-0.4248046 0.363281,-0.7617187 h 1.792969 c -0.02344,0.5244141 -0.169922,0.9609375 -0.433594,1.3125 -0.257813,0.34570312 -0.615234,0.60351562 -1.066406,0.7734375 -0.454102,0.16992187 -0.984375,0.2578125 -1.59375,0.2578125 z M 55.585312,-4.13625 h 2.894532 c -0.01758,-0.46875 -0.158203,-0.8144531 -0.421875,-1.0429688 -0.257813,-0.234375 -0.594727,-0.3515625 -1.007813,-0.3515625 -0.416015,0 -0.758789,0.1230469 -1.03125,0.3632813 -0.266601,0.234375 -0.410156,0.5800781 -0.433594,1.03125 z m 0,0"
         style="fill:#92d050;fill-opacity:1;fill-rule:nonzero;stroke:none"
         aria-label="enthalpie"
         transform="matrix(1.3333333,0,0,1.3333333,324.48,360.64)"
         clip-path="url(#clipPath36)" />
    </g>
  </g>
</svg>
