<?xml version="1.0" encoding="UTF-8" standalone="no"?>
<!-- Created with Inkscape (http://www.inkscape.org/) -->

<svg
   version="1.1"
   id="svg1"
   width="972.02667"
   height="186.36"
   viewBox="0 0 972.02667 186.36"
   sodipodi:docname="page13.pdf"
   xmlns:inkscape="http://www.inkscape.org/namespaces/inkscape"
   xmlns:sodipodi="http://sodipodi.sourceforge.net/DTD/sodipodi-0.dtd"
   xmlns="http://www.w3.org/2000/svg"
   xmlns:svg="http://www.w3.org/2000/svg">
  <defs
     id="defs1">
    <clipPath
       clipPathUnits="userSpaceOnUse"
       id="clipPath4">
      <path
         d="M 0,1.2207e-4 H 960 V 540.00012 H 0 Z"
         clip-rule="evenodd"
         id="path4" />
    </clipPath>
    <clipPath
       clipPathUnits="userSpaceOnUse"
       id="clipPath5">
      <path
         d="M 1.4305e-5,0 H 960.00001 V 540 H 1.4305e-5 Z"
         transform="matrix(1,0,0,-1,-111.46,339.84001)"
         clip-rule="evenodd"
         id="path5" />
    </clipPath>
    <clipPath
       clipPathUnits="userSpaceOnUse"
       id="clipPath6">
      <path
         d="M 1.4305e-5,0 H 960.00001 V 540 H 1.4305e-5 Z"
         transform="matrix(1,0,0,-1,-161.86,332.52001)"
         clip-rule="evenodd"
         id="path6" />
    </clipPath>
    <clipPath
       clipPathUnits="userSpaceOnUse"
       id="clipPath8">
      <path
         d="M 1.4305e-5,0 H 960.00001 V 540 H 1.4305e-5 Z"
         transform="matrix(1,0,0,-1,-193.8,339.84001)"
         clip-rule="evenodd"
         id="path8" />
    </clipPath>
    <clipPath
       clipPathUnits="userSpaceOnUse"
       id="clipPath9">
      <path
         d="M 1.4305e-5,0 H 960.00001 V 540 H 1.4305e-5 Z"
         transform="matrix(1,0,0,-1,-257.04001,339.84001)"
         clip-rule="evenodd"
         id="path9" />
    </clipPath>
    <clipPath
       clipPathUnits="userSpaceOnUse"
       id="clipPath10">
      <path
         d="M 1.4305e-5,0 H 960.00001 V 540 H 1.4305e-5 Z"
         transform="matrix(1,0,0,-1,-291.96001,339.84001)"
         clip-rule="evenodd"
         id="path10" />
    </clipPath>
    <clipPath
       clipPathUnits="userSpaceOnUse"
       id="clipPath11">
      <path
         d="M 1.4305e-5,0 H 960.00001 V 540 H 1.4305e-5 Z"
         transform="matrix(1,0,0,-1,-315.96001,332.52001)"
         clip-rule="evenodd"
         id="path11" />
    </clipPath>
    <clipPath
       clipPathUnits="userSpaceOnUse"
       id="clipPath12">
      <path
         d="M 1.4305e-5,0 H 960.00001 V 540 H 1.4305e-5 Z"
         transform="matrix(1,0,0,-1,-332.88001,339.84001)"
         clip-rule="evenodd"
         id="path12" />
    </clipPath>
    <clipPath
       clipPathUnits="userSpaceOnUse"
       id="clipPath14">
      <path
         d="M 1.4305e-5,0 H 960.00001 V 540 H 1.4305e-5 Z"
         transform="matrix(1,0,0,-1,-373.10001,339.84001)"
         clip-rule="evenodd"
         id="path14" />
    </clipPath>
    <clipPath
       clipPathUnits="userSpaceOnUse"
       id="clipPath15">
      <path
         d="M 1.4305e-5,0 H 960.00001 V 540 H 1.4305e-5 Z"
         transform="matrix(1,0,0,-1,-410.54001,339.84001)"
         clip-rule="evenodd"
         id="path15" />
    </clipPath>
    <clipPath
       clipPathUnits="userSpaceOnUse"
       id="clipPath16">
      <path
         d="M 1.4305e-5,0 H 960.00001 V 540 H 1.4305e-5 Z"
         transform="matrix(1,0,0,-1,-450.62001,339.84001)"
         clip-rule="evenodd"
         id="path16" />
    </clipPath>
    <clipPath
       clipPathUnits="userSpaceOnUse"
       id="clipPath17">
      <path
         d="M 1.4305e-5,0 H 960.00001 V 540 H 1.4305e-5 Z"
         transform="matrix(1,0,0,-1,-502.34002,353.04001)"
         clip-rule="evenodd"
         id="path17" />
    </clipPath>
    <clipPath
       clipPathUnits="userSpaceOnUse"
       id="clipPath19">
      <path
         d="M 1.4305e-5,0 H 960.00001 V 540 H 1.4305e-5 Z"
         transform="matrix(1,0,0,-1,-537.98002,339.84001)"
         clip-rule="evenodd"
         id="path19" />
    </clipPath>
    <clipPath
       clipPathUnits="userSpaceOnUse"
       id="clipPath20">
      <path
         d="M 1.4305e-5,0 H 960.00001 V 540 H 1.4305e-5 Z"
         transform="matrix(1,0,0,-1,-601.37002,339.84001)"
         clip-rule="evenodd"
         id="path20" />
    </clipPath>
    <clipPath
       clipPathUnits="userSpaceOnUse"
       id="clipPath21">
      <path
         d="M 1.4305e-5,0 H 960.00001 V 540 H 1.4305e-5 Z"
         transform="matrix(1,0,0,-1,-636.17002,339.84001)"
         clip-rule="evenodd"
         id="path21" />
    </clipPath>
    <clipPath
       clipPathUnits="userSpaceOnUse"
       id="clipPath22">
      <path
         d="M 1.4305e-5,0 H 960.00001 V 540 H 1.4305e-5 Z"
         transform="matrix(1,0,0,-1,-663.41002,339.84001)"
         clip-rule="evenodd"
         id="path22" />
    </clipPath>
    <clipPath
       clipPathUnits="userSpaceOnUse"
       id="clipPath23">
      <path
         d="M 1.4305e-5,0 H 960.00001 V 540 H 1.4305e-5 Z"
         transform="matrix(1,0,0,-1,-687.53002,331.80001)"
         clip-rule="evenodd"
         id="path23" />
    </clipPath>
    <clipPath
       clipPathUnits="userSpaceOnUse"
       id="clipPath24">
      <path
         d="M 1.4305e-5,0 H 960.00001 V 540 H 1.4305e-5 Z"
         transform="matrix(1,0,0,-1,-690.77002,353.76001)"
         clip-rule="evenodd"
         id="path24" />
    </clipPath>
    <clipPath
       clipPathUnits="userSpaceOnUse"
       id="clipPath25">
      <path
         d="M 1.4305e-5,0 H 960.00001 V 540 H 1.4305e-5 Z"
         transform="matrix(1,0,0,-1,-711.41002,339.84001)"
         clip-rule="evenodd"
         id="path25" />
    </clipPath>
    <clipPath
       clipPathUnits="userSpaceOnUse"
       id="clipPath26">
      <path
         d="M 1.4305e-5,0 H 960.00001 V 540 H 1.4305e-5 Z"
         transform="matrix(1,0,0,-1,-726.41002,339.84001)"
         clip-rule="evenodd"
         id="path26" />
    </clipPath>
    <clipPath
       clipPathUnits="userSpaceOnUse"
       id="clipPath27">
      <path
         d="M 1.4305e-5,0 H 960.00001 V 540 H 1.4305e-5 Z"
         transform="matrix(1,0,0,-1,-766.86999,339.84001)"
         clip-rule="evenodd"
         id="path27" />
    </clipPath>
    <clipPath
       clipPathUnits="userSpaceOnUse"
       id="clipPath28">
      <path
         d="M 1.4305e-5,0 H 960.00001 V 540 H 1.4305e-5 Z"
         transform="matrix(1,0,0,-1,-294.22,300.10001)"
         clip-rule="evenodd"
         id="path28" />
    </clipPath>
    <clipPath
       clipPathUnits="userSpaceOnUse"
       id="clipPath29">
      <path
         d="M 1.4305e-5,0 H 960.00001 V 540 H 1.4305e-5 Z"
         transform="matrix(1,0,0,-1,-117.96,300.10001)"
         clip-rule="evenodd"
         id="path29" />
    </clipPath>
    <clipPath
       clipPathUnits="userSpaceOnUse"
       id="clipPath30">
      <path
         d="M 1.4305e-5,0 H 960.00001 V 540 H 1.4305e-5 Z"
         transform="matrix(1,0,0,-1,-649.44002,300.10001)"
         clip-rule="evenodd"
         id="path30" />
    </clipPath>
    <clipPath
       clipPathUnits="userSpaceOnUse"
       id="clipPath31">
      <path
         d="M 1.4305e-5,0 H 960.00001 V 540 H 1.4305e-5 Z"
         transform="matrix(1,0,0,-1,-468.41001,300.10001)"
         clip-rule="evenodd"
         id="path31" />
    </clipPath>
    <clipPath
       clipPathUnits="userSpaceOnUse"
       id="clipPath33">
      <path
         d="M 6.1035e-5,540 H 960 V 2.4414e-4 L 1.2207e-4,1.8311e-4"
         clip-rule="evenodd"
         id="path33" />
    </clipPath>
    <clipPath
       clipPathUnits="userSpaceOnUse"
       id="clipPath35">
      <path
         d="M 6.1035e-5,540 H 960 V 1.8311e-4 H 9.1553e-5"
         clip-rule="evenodd"
         id="path35" />
    </clipPath>
  </defs>
  <sodipodi:namedview
     id="namedview1"
     pagecolor="#505050"
     bordercolor="#eeeeee"
     borderopacity="1"
     inkscape:showpageshadow="0"
     inkscape:pageopacity="0"
     inkscape:pagecheckerboard="0"
     inkscape:deskcolor="#505050">
    <inkscape:page
       x="0"
       y="0"
       inkscape:label="1"
       id="page1"
       width="972.02667"
       height="186.36"
       margin="0"
       bleed="0" />
  </sodipodi:namedview>
  <g
     id="g1"
     inkscape:groupmode="layer"
     inkscape:label="1"
     transform="translate(-109.50666,-217.18668)">
    <g
       id="g2" />
    <g
       id="g3">
      <path
         id="path3"
         d="m 82.2,315.24 h 728.88 v 61.8 H 82.2 Z"
         style="fill:none;stroke:#000000;stroke-width:0.14;stroke-linecap:butt;stroke-linejoin:miter;stroke-miterlimit:10;stroke-dasharray:none;stroke-opacity:0"
         transform="matrix(1.3333333,0,0,-1.3333333,0,720)"
         clip-path="url(#clipPath4)" />
    </g>
    <g
       id="g4">
      <text
         id="text4"
         xml:space="preserve"
         transform="matrix(1.3333333,0,0,1.3333333,148.61333,266.88)"
         clip-path="url(#clipPath5)"><tspan
           style="font-variant:normal;font-weight:normal;font-size:36px;font-family:'Cambria Math';writing-mode:lr-tb;fill:#00b0f0;fill-opacity:1;fill-rule:nonzero;stroke:none"
           x="0 26.4"
           y="0"
           sodipodi:role="line"
           id="tspan4">푁퐻</tspan></text>
      <text
         id="text5"
         xml:space="preserve"
         transform="matrix(1.3333333,0,0,1.3333333,215.81333,276.64)"
         clip-path="url(#clipPath6)"><tspan
           style="font-variant:normal;font-weight:normal;font-size:26.28px;font-family:'Cambria Math';writing-mode:lr-tb;fill:#00b0f0;fill-opacity:1;fill-rule:nonzero;stroke:none"
           x="0"
           y="0"
           id="tspan5">3</tspan></text>
      <path
         id="path7"
         d="m 235.35,366.85 c 3.42,-0.9 6.05,-2.85 7.88,-5.84 1.84,-3 2.75,-6.61 2.75,-10.84 0,-4.24 -0.91,-7.85 -2.74,-10.84 -1.83,-2.98 -4.46,-4.92 -7.89,-5.82 l -0.42,1.35 c 2.7,0.9 4.72,2.68 6.03,5.34 1.32,2.66 1.98,6.04 1.98,10.15 0,3.96 -0.65,7.25 -1.97,9.87 -1.31,2.62 -3.34,4.38 -6.1,5.28 z m -42.79,0 0.48,-1.35 c -2.74,-0.9 -4.77,-2.66 -6.09,-5.28 -1.32,-2.62 -1.98,-5.91 -1.98,-9.87 0,-4.11 0.66,-7.49 1.98,-10.15 1.32,-2.66 3.33,-4.44 6.04,-5.34 l -0.43,-1.35 c -3.43,0.9 -6.06,2.84 -7.89,5.82 -1.83,2.99 -2.74,6.6 -2.74,10.84 0,4.23 0.92,7.84 2.75,10.84 1.83,2.99 4.46,4.94 7.88,5.84 z"
         style="fill:#00b0f0;fill-opacity:1;fill-rule:evenodd;stroke:none"
         transform="matrix(1.3333333,0,0,-1.3333333,0,720)" />
      <text
         id="text7"
         xml:space="preserve"
         transform="matrix(1.3333333,0,0,1.3333333,258.4,266.88)"
         clip-path="url(#clipPath8)"><tspan
           style="font-variant:normal;font-weight:normal;font-size:36px;font-family:'Cambria Math';writing-mode:lr-tb;fill:#00b0f0;fill-opacity:1;fill-rule:nonzero;stroke:none"
           x="0 20.040001"
           y="0"
           sodipodi:role="line"
           id="tspan7">푎푞</tspan></text>
      <text
         id="text8"
         xml:space="preserve"
         transform="matrix(1.3333333,0,0,1.3333333,342.72,266.88)"
         clip-path="url(#clipPath9)"><tspan
           style="font-variant:normal;font-weight:normal;font-size:36px;font-family:'Cambria Math';writing-mode:lr-tb;fill:#00b0f0;fill-opacity:1;fill-rule:nonzero;stroke:none"
           x="0"
           y="0"
           id="tspan8">+</tspan></text>
      <text
         id="text9"
         xml:space="preserve"
         transform="matrix(1.3333333,0,0,1.3333333,389.28,266.88)"
         clip-path="url(#clipPath10)"><tspan
           style="font-variant:normal;font-weight:normal;font-size:36px;font-family:'Cambria Math';writing-mode:lr-tb;fill:#00b0f0;fill-opacity:1;fill-rule:nonzero;stroke:none"
           x="0"
           y="0"
           id="tspan9">퐻</tspan></text>
      <text
         id="text10"
         xml:space="preserve"
         transform="matrix(1.3333333,0,0,1.3333333,421.28,276.64)"
         clip-path="url(#clipPath11)"><tspan
           style="font-variant:normal;font-weight:normal;font-size:26.28px;font-family:'Cambria Math';writing-mode:lr-tb;fill:#00b0f0;fill-opacity:1;fill-rule:nonzero;stroke:none"
           x="0"
           y="0"
           id="tspan10">2</tspan></text>
      <text
         id="text11"
         xml:space="preserve"
         transform="matrix(1.3333333,0,0,1.3333333,443.84,266.88)"
         clip-path="url(#clipPath12)"><tspan
           style="font-variant:normal;font-weight:normal;font-size:36px;font-family:'Cambria Math';writing-mode:lr-tb;fill:#00b0f0;fill-opacity:1;fill-rule:nonzero;stroke:none"
           x="0"
           y="0"
           id="tspan11">푂</tspan></text>
      <path
         id="path13"
         d="m 386.79,366.85 c 3.42,-0.9 6.05,-2.85 7.88,-5.84 1.84,-3 2.75,-6.61 2.75,-10.84 0,-4.24 -0.91,-7.85 -2.74,-10.84 -1.83,-2.98 -4.46,-4.92 -7.89,-5.82 l -0.42,1.35 c 2.7,0.9 4.72,2.68 6.03,5.34 1.32,2.66 1.98,6.04 1.98,10.15 0,3.96 -0.65,7.25 -1.97,9.87 -1.31,2.62 -3.34,4.38 -6.1,5.28 z m -14.95,0 0.48,-1.35 c -2.74,-0.9 -4.77,-2.66 -6.09,-5.28 -1.32,-2.62 -1.98,-5.91 -1.98,-9.87 0,-4.11 0.66,-7.49 1.98,-10.15 1.32,-2.66 3.33,-4.44 6.04,-5.34 l -0.43,-1.35 c -3.43,0.9 -6.06,2.84 -7.89,5.82 -1.83,2.99 -2.74,6.6 -2.74,10.84 0,4.23 0.92,7.84 2.75,10.84 1.83,2.99 4.46,4.94 7.88,5.84 z"
         style="fill:#00b0f0;fill-opacity:1;fill-rule:evenodd;stroke:none"
         transform="matrix(1.3333333,0,0,-1.3333333,0,720)" />
      <text
         id="text13"
         xml:space="preserve"
         transform="matrix(1.3333333,0,0,1.3333333,497.46667,266.88)"
         clip-path="url(#clipPath14)"><tspan
           style="font-variant:normal;font-weight:normal;font-size:36px;font-family:'Cambria Math';writing-mode:lr-tb;fill:#00b0f0;fill-opacity:1;fill-rule:nonzero;stroke:none"
           x="0"
           y="0"
           id="tspan13">푙</tspan></text>
      <text
         id="text14"
         xml:space="preserve"
         transform="matrix(1.3333333,0,0,1.3333333,547.38667,266.88)"
         clip-path="url(#clipPath15)"><tspan
           style="font-variant:normal;font-weight:normal;font-size:36px;font-family:'Cambria Math';writing-mode:lr-tb;fill:#00b0f0;fill-opacity:1;fill-rule:nonzero;stroke:none"
           x="0"
           y="0"
           id="tspan14">⇄</tspan></text>
      <text
         id="text15"
         xml:space="preserve"
         transform="matrix(1.3333333,0,0,1.3333333,600.82667,266.88)"
         clip-path="url(#clipPath16)"><tspan
           style="font-variant:normal;font-weight:normal;font-size:36px;font-family:'Cambria Math';writing-mode:lr-tb;fill:#00b0f0;fill-opacity:1;fill-rule:nonzero;stroke:none"
           x="0 24.360001"
           y="0"
           sodipodi:role="line"
           id="tspan15">푂퐻</tspan></text>
      <text
         id="text16"
         xml:space="preserve"
         transform="matrix(1.3333333,0,0,1.3333333,669.78667,249.28)"
         clip-path="url(#clipPath17)"><tspan
           style="font-variant:normal;font-weight:normal;font-size:26.28px;font-family:'Cambria Math';writing-mode:lr-tb;fill:#00b0f0;fill-opacity:1;fill-rule:nonzero;stroke:none"
           x="0"
           y="0"
           id="tspan16">−</tspan></text>
      <path
         id="path18"
         d="m 579.51,366.85 c 3.42,-0.9 6.05,-2.85 7.88,-5.84 1.84,-3 2.75,-6.61 2.75,-10.84 0,-4.24 -0.91,-7.85 -2.74,-10.84 -1.83,-2.98 -4.46,-4.92 -7.89,-5.82 l -0.42,1.35 c 2.7,0.9 4.72,2.68 6.03,5.34 1.32,2.66 1.98,6.04 1.98,10.15 0,3.96 -0.65,7.25 -1.97,9.87 -1.31,2.62 -3.34,4.38 -6.1,5.28 z m -42.79,0 0.48,-1.35 c -2.74,-0.9 -4.77,-2.66 -6.09,-5.28 -1.32,-2.62 -1.98,-5.91 -1.98,-9.87 0,-4.11 0.66,-7.49 1.98,-10.15 1.32,-2.66 3.33,-4.44 6.04,-5.34 l -0.43,-1.35 c -3.43,0.9 -6.06,2.84 -7.89,5.82 -1.83,2.99 -2.74,6.6 -2.74,10.84 0,4.23 0.92,7.84 2.75,10.84 1.83,2.99 4.46,4.94 7.88,5.84 z"
         style="fill:#00b0f0;fill-opacity:1;fill-rule:evenodd;stroke:none"
         transform="matrix(1.3333333,0,0,-1.3333333,0,720)" />
      <text
         id="text18"
         xml:space="preserve"
         transform="matrix(1.3333333,0,0,1.3333333,717.30667,266.88)"
         clip-path="url(#clipPath19)"><tspan
           style="font-variant:normal;font-weight:normal;font-size:36px;font-family:'Cambria Math';writing-mode:lr-tb;fill:#00b0f0;fill-opacity:1;fill-rule:nonzero;stroke:none"
           x="0 20.040001"
           y="0"
           sodipodi:role="line"
           id="tspan18">푎푞</tspan></text>
      <text
         id="text19"
         xml:space="preserve"
         transform="matrix(1.3333333,0,0,1.3333333,801.82667,266.88)"
         clip-path="url(#clipPath20)"><tspan
           style="font-variant:normal;font-weight:normal;font-size:36px;font-family:'Cambria Math';writing-mode:lr-tb;fill:#00b0f0;fill-opacity:1;fill-rule:nonzero;stroke:none"
           x="0"
           y="0"
           id="tspan19">+</tspan></text>
      <text
         id="text20"
         xml:space="preserve"
         transform="matrix(1.3333333,0,0,1.3333333,848.22667,266.88)"
         clip-path="url(#clipPath21)"><tspan
           style="font-variant:normal;font-weight:normal;font-size:36px;font-family:'Cambria Math';writing-mode:lr-tb;fill:#00b0f0;fill-opacity:1;fill-rule:nonzero;stroke:none"
           x="0"
           y="0"
           id="tspan20">푁</tspan></text>
      <text
         id="text21"
         xml:space="preserve"
         transform="matrix(1.3333333,0,0,1.3333333,884.54667,266.88)"
         clip-path="url(#clipPath22)"><tspan
           style="font-variant:normal;font-weight:normal;font-size:36px;font-family:'Cambria Math';writing-mode:lr-tb;fill:#00b0f0;fill-opacity:1;fill-rule:nonzero;stroke:none"
           x="0"
           y="0"
           id="tspan21">퐻</tspan></text>
      <text
         id="text22"
         xml:space="preserve"
         transform="matrix(1.3333333,0,0,1.3333333,916.70667,277.6)"
         clip-path="url(#clipPath23)"><tspan
           style="font-variant:normal;font-weight:normal;font-size:26.28px;font-family:'Cambria Math';writing-mode:lr-tb;fill:#00b0f0;fill-opacity:1;fill-rule:nonzero;stroke:none"
           x="0"
           y="0"
           id="tspan22">4</tspan></text>
      <text
         id="text23"
         xml:space="preserve"
         transform="matrix(1.3333333,0,0,1.3333333,921.02667,248.32)"
         clip-path="url(#clipPath24)"><tspan
           style="font-variant:normal;font-weight:normal;font-size:26.28px;font-family:'Cambria Math';writing-mode:lr-tb;fill:#00b0f0;fill-opacity:1;fill-rule:nonzero;stroke:none"
           x="0"
           y="0"
           id="tspan23">+</tspan></text>
      <text
         id="text24"
         xml:space="preserve"
         transform="matrix(1.3333333,0,0,1.3333333,948.54667,266.88)"
         clip-path="url(#clipPath25)"><tspan
           style="font-variant:normal;font-weight:normal;font-size:36px;font-family:'Cambria Math';writing-mode:lr-tb;fill:#00b0f0;fill-opacity:1;fill-rule:nonzero;stroke:none"
           x="0"
           y="0"
           id="tspan24">(</tspan></text>
      <text
         id="text25"
         xml:space="preserve"
         transform="matrix(1.3333333,0,0,1.3333333,968.54667,266.88)"
         clip-path="url(#clipPath26)"><tspan
           style="font-variant:normal;font-weight:normal;font-size:36px;font-family:'Cambria Math';writing-mode:lr-tb;fill:#00b0f0;fill-opacity:1;fill-rule:nonzero;stroke:none"
           x="0 20.040001"
           y="0"
           sodipodi:role="line"
           id="tspan25">푎푞</tspan></text>
      <text
         id="text26"
         xml:space="preserve"
         transform="matrix(1.3333333,0,0,1.3333333,1022.4933,266.88)"
         clip-path="url(#clipPath27)"><tspan
           style="font-variant:normal;font-weight:normal;font-size:36px;font-family:'Cambria Math';writing-mode:lr-tb;fill:#00b0f0;fill-opacity:1;fill-rule:nonzero;stroke:none"
           x="0"
           y="0"
           id="tspan26">)</tspan></text>
    </g>
    <g
       id="g27">
      <text
         id="text27"
         xml:space="preserve"
         transform="matrix(1.3333333,0,0,1.3333333,392.29333,319.86667)"
         clip-path="url(#clipPath28)"><tspan
           style="font-variant:normal;font-weight:700;font-size:24px;font-family:Roboto;writing-mode:lr-tb;fill:#cc0066;fill-opacity:1;fill-rule:nonzero;stroke:none"
           x="0 14.76 27.624001 41.063999 49.824001 62.807999 68.783997"
           y="0"
           sodipodi:role="line"
           id="tspan27">Säure 2</tspan></text>
    </g>
    <g
       id="g28">
      <text
         id="text28"
         xml:space="preserve"
         transform="matrix(1.3333333,0,0,1.3333333,157.28,319.86667)"
         clip-path="url(#clipPath29)"><tspan
           style="font-variant:normal;font-weight:700;font-size:24px;font-family:Roboto;writing-mode:lr-tb;fill:#cc0066;fill-opacity:1;fill-rule:nonzero;stroke:none"
           x="0 15.312 28.176001 40.512001 53.495998 59.616001"
           y="0"
           sodipodi:role="line"
           id="tspan28">Base 1</tspan></text>
    </g>
    <g
       id="g29">
      <text
         id="text29"
         xml:space="preserve"
         transform="matrix(1.3333333,0,0,1.3333333,865.92,319.86667)"
         clip-path="url(#clipPath30)"><tspan
           style="font-variant:normal;font-weight:700;font-size:24px;font-family:Roboto;writing-mode:lr-tb;fill:#cc0066;fill-opacity:1;fill-rule:nonzero;stroke:none"
           x="0 14.76 27.624001 41.063999 49.872002 62.855999 68.832001"
           y="0"
           sodipodi:role="line"
           id="tspan29">Säure 1</tspan></text>
    </g>
    <g
       id="g30">
      <text
         id="text30"
         xml:space="preserve"
         transform="matrix(1.3333333,0,0,1.3333333,624.54667,319.86667)"
         clip-path="url(#clipPath31)"><tspan
           style="font-variant:normal;font-weight:700;font-size:24px;font-family:Roboto;writing-mode:lr-tb;fill:#cc0066;fill-opacity:1;fill-rule:nonzero;stroke:none"
           x="0 15.312 28.176001 40.512001 53.495998 59.616001"
           y="0"
           sodipodi:role="line"
           id="tspan30">Base 2</tspan></text>
    </g>
    <g
       id="g31">
      <path
         id="path32"
         d="m 686.06,289.73 c 0,-28.11 -1.9,-50.89 -4.24,-50.89 H 154.33 c -2.35,0 -4.24,22.78 -4.24,50.89"
         style="fill:none;stroke:#cc0066;stroke-width:3;stroke-linecap:butt;stroke-linejoin:miter;stroke-miterlimit:10;stroke-dasharray:none;stroke-opacity:1"
         transform="matrix(1.3333333,0,0,-1.3333333,0,720)"
         clip-path="url(#clipPath33)" />
    </g>
    <g
       id="g33">
      <path
         id="path34"
         d="m 500.4,289.73 c 0,-12.89 -0.87,-23.33 -1.94,-23.33 H 332.12 c -1.08,0 -1.95,10.44 -1.95,23.33"
         style="fill:none;stroke:#cc0066;stroke-width:3;stroke-linecap:butt;stroke-linejoin:miter;stroke-miterlimit:10;stroke-dasharray:none;stroke-opacity:1"
         transform="matrix(1.3333333,0,0,-1.3333333,0,720)"
         clip-path="url(#clipPath35)" />
    </g>
  </g>
</svg>
