<?xml version="1.0" encoding="UTF-8" standalone="no"?>
<!-- Created with Inkscape (http://www.inkscape.org/) -->

<svg
   version="1.1"
   id="svg1"
   width="717.55469"
   height="413.86093"
   viewBox="0 0 717.55469 413.86093"
   sodipodi:docname="page0.pdf"
   xmlns:inkscape="http://www.inkscape.org/namespaces/inkscape"
   xmlns:sodipodi="http://sodipodi.sourceforge.net/DTD/sodipodi-0.dtd"
   xmlns="http://www.w3.org/2000/svg"
   xmlns:svg="http://www.w3.org/2000/svg">
  <defs
     id="defs1">
    <clipPath
       clipPathUnits="userSpaceOnUse"
       id="clipPath10">
      <path
         d="M 1.4305e-5,0 H 960.00001 V 540 H 1.4305e-5 Z"
         transform="matrix(1,0,0,-1,-211.51,437.76001)"
         clip-rule="evenodd"
         id="path10" />
    </clipPath>
    <clipPath
       clipPathUnits="userSpaceOnUse"
       id="clipPath12">
      <path
         d="M 1.4305e-5,0 H 960.00001 V 540 H 1.4305e-5 Z"
         transform="matrix(1,0,0,-1,-656.95001,395.06001)"
         clip-rule="evenodd"
         id="path12" />
    </clipPath>
    <clipPath
       clipPathUnits="userSpaceOnUse"
       id="clipPath14">
      <path
         d="M 1.4305e-5,0 H 960.00001 V 540 H 1.4305e-5 Z"
         transform="matrix(1,0,0,-1,-632.66002,181.54)"
         clip-rule="evenodd"
         id="path14" />
    </clipPath>
    <clipPath
       clipPathUnits="userSpaceOnUse"
       id="clipPath16">
      <path
         d="M 1.4305e-5,0 H 960.00001 V 540 H 1.4305e-5 Z"
         transform="matrix(1,0,0,-1,-174.86001,181.54)"
         clip-rule="evenodd"
         id="path16" />
    </clipPath>
  </defs>
  <sodipodi:namedview
     id="namedview1"
     pagecolor="#505050"
     bordercolor="#eeeeee"
     borderopacity="1"
     inkscape:showpageshadow="0"
     inkscape:pageopacity="0"
     inkscape:pagecheckerboard="0"
     inkscape:deskcolor="#505050">
    <inkscape:page
       x="0"
       y="0"
       inkscape:label="1"
       id="page1"
       width="717.55469"
       height="413.86093"
       margin="0"
       bleed="0" />
  </sodipodi:namedview>
  <g
     id="g1"
     inkscape:groupmode="layer"
     inkscape:label="1"
     transform="translate(-235.21094,-120.53906)">
    <g
       id="g2" />
    <g
       id="g3">
      <path
         id="path3"
         d="M 383.4,142.2 H 576 V 334.8 H 383.4 Z"
         style="fill:#d1d1d1;fill-opacity:1;fill-rule:evenodd;stroke:#000000;stroke-width:6;stroke-linecap:butt;stroke-linejoin:miter;stroke-miterlimit:10;stroke-dasharray:none;stroke-opacity:1"
         transform="matrix(1.3333333,0,0,-1.3333333,0,720)" />
    </g>
    <g
       id="g4">
      <path
         id="path4"
         d="M 376.68,325.32 H 583.32 V 345.6 H 376.68 Z"
         style="fill:#d1d1d1;fill-opacity:1;fill-rule:evenodd;stroke:#000000;stroke-width:6;stroke-linecap:butt;stroke-linejoin:miter;stroke-miterlimit:10;stroke-dasharray:none;stroke-opacity:1"
         transform="matrix(1.3333333,0,0,-1.3333333,0,720)" />
    </g>
    <g
       id="g5">
      <path
         id="path5"
         d="M 402.24,161.16 H 557.52 V 316.44 H 402.24 Z"
         style="fill:#96dcf8;fill-opacity:1;fill-rule:evenodd;stroke:#000000;stroke-width:6;stroke-linecap:butt;stroke-linejoin:miter;stroke-miterlimit:10;stroke-dasharray:none;stroke-opacity:1"
         transform="matrix(1.3333333,0,0,-1.3333333,0,720)" />
    </g>
    <g
       id="g6">
      <path
         id="path6"
         d="m 409.02,228.9 h 10.32 v 168.84 h -10.32 z"
         style="fill:#ffffff;fill-opacity:1;fill-rule:evenodd;stroke:#000000;stroke-width:1.5;stroke-linecap:butt;stroke-linejoin:miter;stroke-miterlimit:10;stroke-dasharray:none;stroke-opacity:1"
         transform="matrix(1.3333333,0,0,-1.3333333,0,720)" />
    </g>
    <g
       id="g7">
      <path
         id="path7"
         d="m 411.42,216.9 h 5.52 v 89.28 h -5.52 z"
         style="fill:#c00000;fill-opacity:1;fill-rule:evenodd;stroke:#000000;stroke-width:1.5;stroke-linecap:butt;stroke-linejoin:miter;stroke-miterlimit:10;stroke-dasharray:none;stroke-opacity:1"
         transform="matrix(1.3333333,0,0,-1.3333333,0,720)" />
    </g>
    <g
       id="g8">
      <path
         id="path8"
         d="m 427.44,274.2 c 0,9.81 7.95,17.76 17.76,17.76 h 71.04 c 9.81,0 17.76,-7.95 17.76,-17.76 v -71.16 c 0,-9.81 -7.95,-17.76 -17.76,-17.76 H 445.2 c -9.81,0 -17.76,7.95 -17.76,17.76 z"
         style="fill:#d1d1d1;fill-opacity:1;fill-rule:evenodd;stroke:#000000;stroke-width:6;stroke-linecap:butt;stroke-linejoin:miter;stroke-miterlimit:10;stroke-dasharray:none;stroke-opacity:1"
         transform="matrix(1.3333333,0,0,-1.3333333,0,720)" />
    </g>
    <g
       id="g9">
      <path
         id="path9"
         d="M 3.5261328,2.34375e-4 V -10.499766 H 0.16285156 v -1.335937 H 8.4597266 v 1.335937 H 5.0964453 V 2.34375e-4 Z m 6.5126952,0 V -11.835703 h 1.453125 v 4.5937499 c 0.263672,-0.3427735 0.644531,-0.6679688 1.136719,-0.9726563 0.492187,-0.3105469 1.119141,-0.46875 1.886719,-0.46875 0.960937,0 1.646484,0.2783203 2.0625,0.8320313 0.421875,0.5478515 0.632812,1.3242187 0.632812,2.3320312 V 2.34375e-4 H 15.745859 V -5.3200781 c 0,-0.4042969 -0.04394,-0.7675782 -0.128906,-1.0898438 -0.08789,-0.328125 -0.246094,-0.5800781 -0.480469,-0.7617187 -0.228515,-0.1875 -0.550781,-0.28125 -0.972656,-0.28125 -0.641601,0 -1.180664,0.1464843 -1.617187,0.4335937 -0.430664,0.2900391 -0.779297,0.6064453 -1.042969,0.9492188 V 2.34375e-4 Z M 23.556406,0.16429687 c -0.9375,0 -1.705078,-0.19335937 -2.296875,-0.5859375 -0.594726,-0.38964843 -1.037109,-0.91992187 -1.324218,-1.59374997 -0.28125,-0.6708985 -0.421875,-1.4238282 -0.421875,-2.2617188 0,-0.8730469 0.134765,-1.6435547 0.410156,-2.3085937 0.28125,-0.6621094 0.706054,-1.1835938 1.277344,-1.5585938 0.568359,-0.375 1.294921,-0.5625 2.179687,-0.5625 1.163086,0 2.074219,0.3515625 2.730469,1.0546875 0.662109,0.703125 0.996094,1.7109375 0.996094,3.0234375 0,0.09375 -0.0059,0.1992188 -0.01172,0.3164063 0,0.1171875 -0.0088,0.2050781 -0.02344,0.2578125 h -6.09375 c 0.0059,0.5566406 0.09668,1.0664062 0.269532,1.5351562 0.169921,0.46875 0.445312,0.84375 0.820312,1.125 0.375,0.28125 0.870117,0.42187502 1.488281,0.42187502 0.65625,0 1.166016,-0.15234372 1.535157,-0.45703122 C 25.45777,-1.74 25.6482,-2.1853125 25.665778,-2.7653906 h 1.453125 c -0.01758,0.6035156 -0.172851,1.1220703 -0.46875,1.5585937 -0.290039,0.43945315 -0.700195,0.7792969 -1.230468,1.01953127 -0.524415,0.234375 -1.145508,0.3515625 -1.863282,0.3515625 z M 20.99,-5.1208594 h 4.675781 c -0.02344,-0.796875 -0.234375,-1.40625 -0.632812,-1.828125 -0.398438,-0.421875 -0.949219,-0.6328125 -1.652344,-0.6328125 -0.720703,0 -1.283203,0.2109375 -1.6875,0.6328125 -0.407227,0.4160156 -0.641602,1.0253906 -0.703125,1.828125 z M 29.480234,2.34375e-4 V -8.5661719 h 1.382813 l 0.04687,1.4648438 c 0.240234,-0.4453125 0.574219,-0.8144532 0.996094,-1.1132813 0.427734,-0.3046875 0.987304,-0.4570312 1.675781,-0.4570312 h 0.175781 v 1.3476562 h -0.199219 c -0.430664,0 -0.805664,0.058594 -1.125,0.1757813 -0.322265,0.1113281 -0.603515,0.2636718 -0.84375,0.4570312 -0.243164,0.1962891 -0.457031,0.421875 -0.644531,0.6796875 V 2.34375e-4 Z m 6.011719,0 V -8.5661719 h 1.40625 l 0.04687,1.3242188 c 0.257813,-0.3427735 0.626953,-0.6679688 1.113281,-0.9726563 0.483399,-0.3105469 1.089844,-0.46875 1.816407,-0.46875 0.952148,0 1.634765,0.2783203 2.050781,0.8320313 0.413086,0.5566406 0.621094,1.3330078 0.621094,2.3320312 V 2.34375e-4 H 41.070078 V -5.3083594 c 0,-0.4130859 -0.04395,-0.7792969 -0.128906,-1.1015625 -0.08789,-0.328125 -0.243164,-0.5800781 -0.46875,-0.7617187 -0.228516,-0.1875 -0.556641,-0.28125 -0.984375,-0.28125 -0.603516,0 -1.113281,0.1464843 -1.535156,0.4335937 -0.416016,0.2900391 -0.747071,0.6064453 -0.996094,0.9492188 V 2.34375e-4 Z m 11.144531,0 V -5.3083594 c 0,-0.4130859 -0.04395,-0.7792969 -0.128906,-1.1015625 -0.08789,-0.328125 -0.243164,-0.5800781 -0.46875,-0.7617187 -0.228515,-0.1875 -0.550781,-0.28125 -0.972656,-0.28125 -0.609375,0 -1.125,0.1464843 -1.546875,0.4335937 -0.416016,0.28125 -0.755859,0.5947266 -1.019531,0.9375 l -0.222657,-1.078125 c 0.333985,-0.375 0.761719,-0.7207031 1.277344,-1.0429687 0.521485,-0.319336 1.148438,-0.4804688 1.875,-0.4804688 0.952149,0 1.634766,0.2783203 2.050781,0.8320313 0.413086,0.5566406 0.621094,1.3330078 0.621094,2.3320312 V 2.34375e-4 Z m 7.713868,0.140624995 c -0.837891,0 -1.555664,-0.17578125 -2.15625,-0.52734375 -0.594727,-0.35742187 -1.048829,-0.86718752 -1.359375,-1.52343752 -0.313477,-0.6621094 -0.46875,-1.4472656 -0.46875,-2.3554687 0,-0.928711 0.155273,-1.725586 0.46875,-2.390625 0.310546,-0.6621094 0.764648,-1.1748047 1.359375,-1.5351563 0.600586,-0.3574219 1.318359,-0.5390625 2.15625,-0.5390625 0.858398,0 1.58789,0.1816406 2.191406,0.5390625 0.609375,0.3603516 1.072265,0.8730469 1.394531,1.5351563 0.328125,0.665039 0.492188,1.461914 0.492188,2.390625 0,0.9082031 -0.164063,1.6933593 -0.492188,2.3554687 -0.322266,0.65625 -0.785156,1.16601565 -1.394531,1.52343752 -0.603516,0.3515625 -1.333008,0.52734375 -2.191406,0.52734375 z m 0,-1.17187497 c 0.632812,0 1.136718,-0.1347657 1.511718,-0.4101563 0.375,-0.28125 0.644532,-0.6621094 0.808594,-1.1484375 0.164063,-0.4921875 0.246094,-1.0488281 0.246094,-1.6757812 0,-0.6328125 -0.08203,-1.1953125 -0.246094,-1.6875 -0.164062,-0.4980469 -0.433594,-0.890625 -0.808594,-1.171875 -0.375,-0.2871094 -0.878906,-0.4335938 -1.511718,-0.4335938 -0.618164,0 -1.107422,0.1464844 -1.464844,0.4335938 -0.360352,0.28125 -0.618164,0.6738281 -0.773438,1.171875 -0.158203,0.4921875 -0.234375,1.0546875 -0.234375,1.6875 0,0.6269531 0.07617,1.1835937 0.234375,1.6757812 0.155274,0.4863281 0.413086,0.8671875 0.773438,1.1484375 0.357422,0.2753906 0.84668,0.4101563 1.464844,0.4101563 z M 60.781016,2.34375e-4 V -8.5661719 h 1.40625 l 0.04687,1.3242188 c 0.257812,-0.3427735 0.626953,-0.6679688 1.113281,-0.9726563 0.483398,-0.3105469 1.089844,-0.46875 1.816406,-0.46875 0.952149,0 1.634766,0.2783203 2.050781,0.8320313 0.413086,0.5566406 0.621094,1.3330078 0.621094,2.3320312 V 2.34375e-4 H 66.359141 V -5.3083594 c 0,-0.4130859 -0.04395,-0.7792969 -0.128907,-1.1015625 -0.08789,-0.328125 -0.243164,-0.5800781 -0.46875,-0.7617187 -0.228515,-0.1875 -0.55664,-0.28125 -0.984375,-0.28125 -0.603515,0 -1.113281,0.1464843 -1.535156,0.4335937 -0.416015,0.2900391 -0.74707,0.6064453 -0.996094,0.9492188 V 2.34375e-4 Z m 11.144531,0 V -5.3083594 c 0,-0.4130859 -0.04394,-0.7792969 -0.128906,-1.1015625 -0.08789,-0.328125 -0.243164,-0.5800781 -0.46875,-0.7617187 -0.228516,-0.1875 -0.550782,-0.28125 -0.972657,-0.28125 -0.609375,0 -1.125,0.1464843 -1.546875,0.4335937 -0.416015,0.28125 -0.755859,0.5947266 -1.019531,0.9375 l -0.222656,-1.078125 c 0.333984,-0.375 0.761719,-0.7207031 1.277344,-1.0429687 0.521484,-0.319336 1.148437,-0.4804688 1.875,-0.4804688 0.952148,0 1.634765,0.2783203 2.050781,0.8320313 0.413086,0.5566406 0.621094,1.3330078 0.621094,2.3320312 V 2.34375e-4 Z m 7.772461,0.164062495 c -0.9375,0 -1.705078,-0.19335937 -2.296875,-0.5859375 -0.594727,-0.38964843 -1.03711,-0.91992187 -1.324219,-1.59374997 -0.28125,-0.6708985 -0.421875,-1.4238282 -0.421875,-2.2617188 0,-0.8730469 0.134766,-1.6435547 0.410156,-2.3085937 0.28125,-0.6621094 0.706055,-1.1835938 1.277344,-1.5585938 0.568359,-0.375 1.294922,-0.5625 2.179688,-0.5625 1.163086,0 2.074218,0.3515625 2.730468,1.0546875 0.66211,0.703125 0.996094,1.7109375 0.996094,3.0234375 0,0.09375 -0.0059,0.1992188 -0.01172,0.3164063 0,0.1171875 -0.0088,0.2050781 -0.02344,0.2578125 h -6.09375 c 0.0059,0.5566406 0.09668,1.0664062 0.269531,1.5351562 0.169922,0.46875 0.445313,0.84375 0.820313,1.125 0.375,0.28125 0.870117,0.42187502 1.488281,0.42187502 0.65625,0 1.166015,-0.15234372 1.535156,-0.45703122 0.366211,-0.3105469 0.556641,-0.7558594 0.574219,-1.3359375 h 1.453125 c -0.01758,0.6035156 -0.172852,1.1220703 -0.46875,1.5585937 -0.290039,0.43945315 -0.700195,0.7792969 -1.230469,1.01953127 -0.524414,0.234375 -1.145508,0.3515625 -1.863281,0.3515625 z M 77.131602,-5.1208594 h 4.675781 c -0.02344,-0.796875 -0.234375,-1.40625 -0.632813,-1.828125 -0.398437,-0.421875 -0.949218,-0.6328125 -1.652343,-0.6328125 -0.720704,0 -1.283204,0.2109375 -1.6875,0.6328125 -0.407227,0.4160156 -0.641602,1.0253906 -0.703125,1.828125 z M 88.481211,2.34375e-4 c -0.697266,0 -1.227539,-0.108398435 -1.59375,-0.328125005 C 86.51832,-0.5446875 86.266367,-0.86109375 86.125742,-1.2771094 85.985117,-1.6901953 85.914805,-2.1853125 85.914805,-2.7653906 v -4.6054688 h -1.429688 v -1.1953125 h 1.429688 v -1.9570311 h 1.464843 v 1.9570311 h 2.109375 v 1.1953125 h -2.109375 v 4.5351563 c 0,0.5332031 0.06445,0.9433593 0.199219,1.2304687 0.140625,0.28125 0.47168,0.421875 0.996094,0.421875 h 0.925781 V 2.34375e-4 Z m 6.354492,0.164062495 c -0.9375,0 -1.705078,-0.19335937 -2.296875,-0.5859375 -0.594726,-0.38964843 -1.037109,-0.91992187 -1.324219,-1.59374997 -0.28125,-0.6708985 -0.421875,-1.4238282 -0.421875,-2.2617188 0,-0.8730469 0.134766,-1.6435547 0.410157,-2.3085937 0.28125,-0.6621094 0.706054,-1.1835938 1.277343,-1.5585938 0.56836,-0.375 1.294922,-0.5625 2.179688,-0.5625 1.163086,0 2.074219,0.3515625 2.730469,1.0546875 0.662109,0.703125 0.996093,1.7109375 0.996093,3.0234375 0,0.09375 -0.0059,0.1992188 -0.01172,0.3164063 0,0.1171875 -0.0088,0.2050781 -0.02344,0.2578125 h -6.09375 c 0.0059,0.5566406 0.09668,1.0664062 0.269531,1.5351562 0.169922,0.46875 0.445313,0.84375 0.820313,1.125 0.375,0.28125 0.870117,0.42187502 1.488281,0.42187502 0.65625,0 1.166016,-0.15234372 1.535156,-0.45703122 C 96.73707,-1.74 96.9275,-2.1853125 96.945078,-2.7653906 h 1.453125 c -0.01758,0.6035156 -0.172851,1.1220703 -0.46875,1.5585937 -0.290039,0.43945315 -0.700195,0.7792969 -1.230469,1.01953127 -0.524414,0.234375 -1.145507,0.3515625 -1.863281,0.3515625 z M 92.269297,-5.1208594 h 4.675781 c -0.02344,-0.796875 -0.234375,-1.40625 -0.632812,-1.828125 -0.398438,-0.421875 -0.949219,-0.6328125 -1.652344,-0.6328125 -0.720703,0 -1.283203,0.2109375 -1.6875,0.6328125 -0.407227,0.4160156 -0.641602,1.0253906 -0.703125,1.828125 z M 100.75953,2.34375e-4 V -8.5661719 h 1.38281 l 0.0469,1.4648438 c 0.24023,-0.4453125 0.57422,-0.8144532 0.99609,-1.1132813 0.42774,-0.3046875 0.98731,-0.4570312 1.67578,-0.4570312 h 0.17579 v 1.3476562 h -0.19922 c -0.43067,0 -0.80567,0.058594 -1.125,0.1757813 -0.32227,0.1113281 -0.60352,0.2636718 -0.84375,0.4570312 -0.24317,0.1962891 -0.45703,0.421875 -0.64453,0.6796875 V 2.34375e-4 Z m 0,0"
         style="fill:#7f7f7f;fill-opacity:1;fill-rule:nonzero;stroke:none"
         aria-label="Thermometer"
         transform="matrix(1.3333333,0,0,1.3333333,282.01333,136.32)"
         clip-path="url(#clipPath10)" />
    </g>
    <g
       id="g10">
      <path
         id="path11"
         d="M 3.4806641,4.296875e-4 0.02363281,-11.835508 H 1.6759766 l 2.671875,9.8789064 2.8242187,-9.8789064 h 1.7695313 l 2.8242184,9.8789064 2.695313,-9.8789064 h 1.582031 L 12.586133,4.296875e-4 H 10.933789 L 8.0275391,-10.007383 5.1564453,4.296875e-4 Z M 18.975781,0.16449219 c -0.492187,0 -0.943359,-0.09375 -1.347656,-0.28125 C 17.220898,-0.31011719 16.895703,-0.5884375 16.655469,-0.94878906 16.412305,-1.315 16.292188,-1.7691016 16.292188,-2.3081641 c 0,-0.7734375 0.237304,-1.359375 0.714843,-1.7578125 0.483399,-0.3984375 1.163086,-0.6679687 2.039063,-0.8085937 0.881836,-0.140625 1.910156,-0.2167969 3.082031,-0.234375 v -0.5976563 c 0,-0.7324218 -0.18457,-1.2333984 -0.550781,-1.5 -0.360352,-0.2724609 -0.817383,-0.4101562 -1.371094,-0.4101562 -0.594727,0 -1.095703,0.1494141 -1.5,0.4453125 -0.398437,0.2988281 -0.597656,0.7705078 -0.597656,1.4179687 h -1.429688 c 0,-0.703125 0.152344,-1.2685546 0.457032,-1.6992187 0.304687,-0.4365234 0.717773,-0.7529297 1.242187,-0.9492188 0.530273,-0.2021484 1.139648,-0.3046875 1.828125,-0.3046875 0.436523,0 0.855469,0.043945 1.253906,0.1289063 0.404297,0.079102 0.767578,0.2285156 1.089844,0.4453125 0.319336,0.2109375 0.574219,0.5126953 0.761719,0.9023437 0.1875,0.3925782 0.28125,0.8964844 0.28125,1.5117188 V 4.296875e-4 H 22.221875 L 22.163281,-1.3003516 c -0.398437,0.43945316 -0.855468,0.79394535 -1.371093,1.06640629 -0.515625,0.26367187 -1.122071,0.3984375 -1.816407,0.3984375 z M 19.3625,-0.97222656 c 0.585938,0 1.113281,-0.13476564 1.582031,-0.41015624 0.46875,-0.2724609 0.861328,-0.6210938 1.183594,-1.0429688 v -1.7460937 c -1.564453,0.023437 -2.683594,0.1728516 -3.363281,0.4453125 -0.673828,0.2753906 -1.007813,0.7236328 -1.007813,1.3476562 0,0.4306641 0.134766,0.7734375 0.410157,1.03125 0.27246,0.2519532 0.670898,0.37500004 1.195312,0.37500004 z m 10.001953,1.13671875 c -0.486328,0 -0.943359,-0.0556641 -1.371094,-0.1640625025 C 27.562695,-0.10796875 27.184766,-0.27496094 26.856641,-0.50347656 26.528516,-0.7290625 26.270703,-1.0249609 26.083203,-1.3941016 c -0.18164,-0.375 -0.269531,-0.8261718 -0.269531,-1.359375 h 1.40625 c 0,0.6738282 0.205078,1.1455079 0.621094,1.4179688 0.413086,0.2666016 0.93164,0.39843749 1.558593,0.39843749 0.553711,0 1.010743,-0.10546879 1.371094,-0.31640629 0.357422,-0.2109375 0.539063,-0.5625 0.539063,-1.0546875 0,-0.421875 -0.164063,-0.7324218 -0.492188,-0.9375 -0.322265,-0.2109375 -0.890625,-0.4130859 -1.710937,-0.609375 -0.673828,-0.1552734 -1.239258,-0.3339843 -1.699219,-0.5390625 -0.454102,-0.2109375 -0.793945,-0.4746093 -1.019531,-0.796875 -0.228516,-0.3193359 -0.339844,-0.7207031 -0.339844,-1.2070312 0,-0.3808594 0.07617,-0.7177734 0.234375,-1.0078125 0.164062,-0.2871094 0.389648,-0.5302734 0.679687,-0.7265625 0.28711,-0.1933594 0.626954,-0.3398438 1.019532,-0.4335938 0.398437,-0.09375 0.823242,-0.140625 1.277343,-0.140625 0.451172,0 0.873047,0.055664 1.265625,0.1640625 0.398438,0.1025391 0.75,0.2666016 1.054688,0.4921875 0.304687,0.2197266 0.541992,0.5039063 0.714844,0.8554688 0.178711,0.3515625 0.269531,0.7734375 0.269531,1.265625 h -1.429688 c 0,-0.609375 -0.18457,-1.0371094 -0.550781,-1.2890625 -0.360351,-0.2578125 -0.802734,-0.3867188 -1.324219,-0.3867188 -0.524414,0 -0.949218,0.09375 -1.277343,0.28125 -0.328125,0.1875 -0.492188,0.4804688 -0.492188,0.8789063 0,0.2285156 0.07031,0.421875 0.210938,0.5859375 0.146484,0.1582031 0.392578,0.2988281 0.738281,0.421875 0.351562,0.1259766 0.820312,0.2578125 1.40625,0.3984375 0.638672,0.1582031 1.174805,0.3398437 1.605469,0.5507812 0.436523,0.2109375 0.764648,0.4804688 0.984375,0.8085938 0.216797,0.328125 0.328125,0.75 0.328125,1.265625 0,0.4453125 -0.08789,0.8320312 -0.257813,1.1601562 -0.172851,0.32812504 -0.416015,0.59765629 -0.726562,0.80859379 -0.304688,0.20507812 -0.665039,0.35742187 -1.078125,0.45703125 -0.416016,0.09960937 -0.861328,0.15234375 -1.335938,0.15234375 z m 8.786133,0 c -0.486328,0 -0.943359,-0.0556641 -1.371094,-0.1640625025 C 36.348828,-0.10796875 35.970898,-0.27496094 35.642773,-0.50347656 35.314648,-0.7290625 35.056836,-1.0249609 34.869336,-1.3941016 c -0.181641,-0.375 -0.269531,-0.8261718 -0.269531,-1.359375 h 1.40625 c 0,0.6738282 0.205078,1.1455079 0.621093,1.4179688 0.413086,0.2666016 0.931641,0.39843749 1.558594,0.39843749 0.553711,0 1.010742,-0.10546879 1.371094,-0.31640629 0.357422,-0.2109375 0.539062,-0.5625 0.539062,-1.0546875 0,-0.421875 -0.164062,-0.7324218 -0.492187,-0.9375 -0.322266,-0.2109375 -0.890625,-0.4130859 -1.710938,-0.609375 -0.673828,-0.1552734 -1.239257,-0.3339843 -1.699218,-0.5390625 -0.454102,-0.2109375 -0.793946,-0.4746093 -1.019532,-0.796875 -0.228515,-0.3193359 -0.339843,-0.7207031 -0.339843,-1.2070312 0,-0.3808594 0.07617,-0.7177734 0.234375,-1.0078125 0.164062,-0.2871094 0.389648,-0.5302734 0.679687,-0.7265625 0.28711,-0.1933594 0.626953,-0.3398438 1.019531,-0.4335938 0.398438,-0.09375 0.823243,-0.140625 1.277344,-0.140625 0.451172,0 0.873047,0.055664 1.265625,0.1640625 0.398438,0.1025391 0.75,0.2666016 1.054688,0.4921875 0.304687,0.2197266 0.541992,0.5039063 0.714843,0.8554688 0.178711,0.3515625 0.269532,0.7734375 0.269532,1.265625 h -1.429688 c 0,-0.609375 -0.18457,-1.0371094 -0.550781,-1.2890625 -0.360352,-0.2578125 -0.802734,-0.3867188 -1.324219,-0.3867188 -0.524414,0 -0.949219,0.09375 -1.277344,0.28125 -0.328125,0.1875 -0.492187,0.4804688 -0.492187,0.8789063 0,0.2285156 0.07031,0.421875 0.210937,0.5859375 0.146485,0.1582031 0.392579,0.2988281 0.738282,0.421875 0.351562,0.1259766 0.820312,0.2578125 1.40625,0.3984375 0.638672,0.1582031 1.174804,0.3398437 1.605468,0.5507812 0.436524,0.2109375 0.764649,0.4804688 0.984375,0.8085938 0.216797,0.328125 0.328125,0.75 0.328125,1.265625 0,0.4453125 -0.08789,0.8320312 -0.257812,1.1601562 -0.172852,0.32812504 -0.416016,0.59765629 -0.726563,0.80859379 -0.304687,0.20507812 -0.665039,0.35742187 -1.078125,0.45703125 -0.416015,0.09960937 -0.861328,0.15234375 -1.335937,0.15234375 z m 9.272461,0 c -0.9375,0 -1.705078,-0.19335938 -2.296875,-0.5859375 -0.594727,-0.38964844 -1.037109,-0.91992189 -1.324219,-1.59374999 -0.28125,-0.6708984 -0.421875,-1.4238281 -0.421875,-2.2617188 0,-0.8730468 0.134766,-1.6435546 0.410156,-2.3085937 0.28125,-0.6621094 0.706055,-1.1835938 1.277344,-1.5585938 0.56836,-0.375 1.294922,-0.5625 2.179688,-0.5625 1.163086,0 2.074218,0.3515625 2.730468,1.0546875 0.66211,0.703125 0.996094,1.7109375 0.996094,3.0234375 0,0.09375 -0.0059,0.1992188 -0.01172,0.3164063 0,0.1171875 -0.0088,0.2050781 -0.02344,0.2578125 h -6.09375 c 0.0059,0.5566406 0.09668,1.0664062 0.269531,1.5351562 0.169922,0.46875 0.445313,0.84375 0.820313,1.125 0.375,0.28125 0.870117,0.42187504 1.488281,0.42187504 0.65625,0 1.166016,-0.15234374 1.535156,-0.45703124 0.366211,-0.3105469 0.556641,-0.7558594 0.574219,-1.3359375 h 1.453125 c -0.01758,0.6035156 -0.172852,1.1220703 -0.46875,1.5585937 -0.290039,0.43945316 -0.700195,0.77929691 -1.230469,1.01953129 -0.524414,0.234375 -1.145508,0.3515625 -1.863281,0.3515625 z M 44.856641,-5.1206641 h 4.675781 c -0.02344,-0.796875 -0.234375,-1.40625 -0.632813,-1.828125 -0.398437,-0.421875 -0.949218,-0.6328125 -1.652343,-0.6328125 -0.720703,0 -1.283203,0.2109375 -1.6875,0.6328125 -0.407227,0.4160157 -0.641602,1.0253907 -0.703125,1.828125 z M 53.346875,4.296875e-4 V -8.5659766 h 1.382813 l 0.04687,1.4648438 c 0.240234,-0.4453125 0.574218,-0.8144531 0.996093,-1.1132813 0.427735,-0.3046875 0.987305,-0.4570312 1.675782,-0.4570312 h 0.175781 v 1.3476562 H 57.425 c -0.430664,0 -0.805664,0.058594 -1.125,0.1757813 -0.322266,0.1113281 -0.603516,0.2636719 -0.84375,0.4570312 -0.243164,0.1962891 -0.457031,0.421875 -0.644531,0.6796875 V 4.296875e-4 Z m 0,0"
         style="fill:#7f7f7f;fill-opacity:1;fill-rule:nonzero;stroke:none"
         aria-label="Wasser"
         transform="matrix(1.3333333,0,0,1.3333333,875.93333,193.25333)"
         clip-path="url(#clipPath12)" />
    </g>
    <g
       id="g12">
      <path
         id="path13"
         d="M 1.5470313,-0.00101563 V -11.848672 h 1.5820312 v 11.84765637 z m 7.59375,0.1640625 c -0.4863282,0 -0.9433594,-0.0556641 -1.3710938,-0.1640625 C 7.3390234,-0.10941406 6.9610938,-0.27640625 6.6329688,-0.50492188 6.3048438,-0.73050781 6.0470313,-1.0264063 5.8595313,-1.3955469 5.6778906,-1.7705469 5.59,-2.2217188 5.59,-2.7549219 h 1.4179688 c 0,0.6738281 0.2021484,1.1455078 0.609375,1.4179688 0.4130859,0.2666015 0.9316406,0.39843747 1.5585937,0.39843747 0.5537109,0 1.0107425,-0.10546877 1.3710935,-0.31640627 0.366211,-0.2109375 0.550782,-0.5654297 0.550782,-1.0664062 0,-0.421875 -0.164063,-0.7324219 -0.492188,-0.9375 C 10.2775,-3.4609766 9.7032813,-3.6601953 8.8829688,-3.8564844 8.2179297,-4.0117578 7.6554297,-4.1963281 7.1954688,-4.4072656 6.7325781,-4.6182031 6.3898047,-4.8789453 6.1642188,-5.1924219 5.9357031,-5.5117578 5.824375,-5.9189844 5.824375,-6.4111719 c 0,-0.3808594 0.076172,-0.7177734 0.234375,-1.0078125 0.1640625,-0.2871094 0.3896484,-0.5273437 0.6796875,-0.7148437 0.2958984,-0.1933594 0.6386719,-0.3398438 1.03125,-0.4335938 0.3896484,-0.099609 0.8144531,-0.1523437 1.2773438,-0.1523437 0.4511718,0 0.8730468,0.055664 1.2656247,0.1640625 0.398438,0.102539 0.744141,0.2666015 1.042969,0.4921875 0.304688,0.2197265 0.541992,0.5039062 0.714844,0.8554687 0.178711,0.3515625 0.269531,0.7734375 0.269531,1.265625 h -1.417969 c 0,-0.609375 -0.18457,-1.0371094 -0.550781,-1.2890625 -0.360352,-0.2578125 -0.8027344,-0.3867187 -1.3242187,-0.3867187 -0.5332032,0 -0.9609375,0.09375 -1.2890625,0.28125 -0.328125,0.1875 -0.4921875,0.4863281 -0.4921875,0.890625 0,0.2285156 0.073242,0.4189453 0.2226562,0.5742187 0.1464844,0.1582031 0.3925781,0.3017578 0.7382813,0.4335938 0.3427734,0.1259765 0.8085937,0.2578125 1.3945312,0.3984375 0.638672,0.149414 1.174805,0.328125 1.605469,0.5390625 0.436523,0.2109375 0.764648,0.4863281 0.984375,0.8203125 0.225586,0.328125 0.339844,0.75 0.339844,1.265625 0,0.4453125 -0.09082,0.8320312 -0.269532,1.1601562 -0.172851,0.32812502 -0.416015,0.59765627 -0.726562,0.80859377 C 11.250156,-0.24125 10.889805,-0.08890625 10.476719,0.01070312 10.069492,0.1103125 9.6241797,0.16304687 9.1407813,0.16304687 Z m 9.2373047,-0.0234375 c -0.84375,0 -1.567383,-0.17578125 -2.167969,-0.52734375 -0.594726,-0.35742187 -1.048828,-0.86718752 -1.359375,-1.52343752 -0.313476,-0.6621094 -0.46875,-1.4472656 -0.46875,-2.3554687 0,-0.9375 0.155274,-1.7373047 0.46875,-2.4023438 0.310547,-0.6621094 0.764649,-1.1748047 1.359375,-1.5351562 0.600586,-0.3574219 1.324219,-0.5390625 2.167969,-0.5390625 0.849609,0 1.582031,0.1816406 2.191406,0.5390625 0.609375,0.3603515 1.072266,0.8730468 1.394531,1.5351562 0.328125,0.6650391 0.492188,1.4648438 0.492188,2.4023438 0,0.9082031 -0.164063,1.6933593 -0.492188,2.3554687 -0.322265,0.65625 -0.785156,1.16601565 -1.394531,1.52343752 -0.609375,0.3515625 -1.341797,0.52734375 -2.191406,0.52734375 z m 0,-1.17187497 c 0.632812,0 1.136719,-0.1347657 1.511719,-0.4101563 0.375,-0.28125 0.644531,-0.6679687 0.808593,-1.1601562 0.164063,-0.4921875 0.246094,-1.0458985 0.246094,-1.6640625 0,-0.6328125 -0.08203,-1.1982422 -0.246094,-1.6992188 -0.164062,-0.4980469 -0.433593,-0.890625 -0.808593,-1.171875 -0.375,-0.2871094 -0.878907,-0.4335937 -1.511719,-0.4335937 -0.618164,0 -1.110352,0.1464843 -1.476563,0.4335937 -0.360351,0.28125 -0.618164,0.6738281 -0.773437,1.171875 -0.158203,0.5009766 -0.234375,1.0664063 -0.234375,1.6992188 0,0.618164 0.07617,1.171875 0.234375,1.6640625 0.155273,0.4921875 0.413086,0.8789062 0.773437,1.1601562 0.366211,0.2753906 0.858399,0.4101563 1.476563,0.4101563 z m 8.894531,1.03124997 c -0.697265,0 -1.230469,-0.10839843 -1.605469,-0.328125 -0.36914,-0.21679687 -0.618164,-0.53320312 -0.75,-0.94921877 -0.134765,-0.4130859 -0.199218,-0.9140625 -0.199218,-1.5 v -9.0703126 h 1.453125 v 9.0000001 c 0,0.5390625 0.07031,0.9492188 0.210937,1.2304688 0.140625,0.28125 0.46875,0.421875 0.984375,0.421875 h 0.398438 v 1.19531247 z m 2.226563,0 V -8.5674219 h 1.464843 v 8.56640627 z M 30.225742,-10.184609 c -0.27539,0 -0.498047,-0.07617 -0.667969,-0.234375 -0.164062,-0.164063 -0.246093,-0.369141 -0.246093,-0.621094 0,-0.240235 0.08203,-0.445313 0.246093,-0.609375 0.169922,-0.164063 0.392579,-0.246094 0.667969,-0.246094 0.28125,0 0.503906,0.08203 0.667969,0.246094 0.169922,0.164062 0.257812,0.36914 0.257812,0.609375 0,0.251953 -0.08789,0.457031 -0.257812,0.621094 -0.164063,0.158203 -0.386719,0.234375 -0.667969,0.234375 z M 37.36832,0.16304687 c -0.93164,0 -1.696289,-0.19335937 -2.296875,-0.5859375 -0.594726,-0.38964843 -1.037109,-0.91992187 -1.324218,-1.59374997 -0.28125,-0.6708985 -0.421875,-1.4296875 -0.421875,-2.2734375 0,-0.8730469 0.134765,-1.6435547 0.410156,-2.3085938 0.28125,-0.6621094 0.706055,-1.1835937 1.277344,-1.5585937 0.568359,-0.375 1.294921,-0.5625 2.179687,-0.5625 1.163086,0 2.077149,0.3515625 2.742188,1.0546875 0.662109,0.703125 0.996093,1.7167968 0.996093,3.0351562 0,0.087891 -0.0059,0.1933594 -0.01172,0.3164063 0,0.1171875 -0.0088,0.2050781 -0.02344,0.2578125 h -6.105469 c 0.0059,0.5566406 0.09668,1.0664062 0.269532,1.5351562 0.169921,0.46875 0.445312,0.84375 0.820312,1.125 0.375,0.28125 0.870117,0.42187502 1.488281,0.42187502 0.65625,0 1.166016,-0.15234372 1.535157,-0.45703122 0.375,-0.3105469 0.568359,-0.7617188 0.585937,-1.3476563 h 1.453125 c -0.01758,0.609375 -0.172851,1.1337891 -0.46875,1.5703125 -0.290039,0.43945315 -0.700195,0.7792969 -1.230469,1.01953127 -0.533203,0.234375 -1.157226,0.3515625 -1.875,0.3515625 z M 34.801914,-5.1338281 h 4.675781 c -0.01758,-0.796875 -0.222656,-1.40625 -0.621093,-1.828125 -0.398438,-0.421875 -0.955079,-0.6328125 -1.664063,-0.6328125 -0.720703,0 -1.283203,0.2109375 -1.6875,0.6328125 -0.407226,0.4160156 -0.641601,1.0253906 -0.703125,1.828125 z m 8.504883,5.13281247 V -8.5674219 h 1.382812 l 0.04687,1.453125 c 0.240235,-0.4453125 0.577149,-0.8144531 1.007813,-1.1132812 0.427734,-0.2958985 0.987305,-0.4453125 1.675781,-0.4453125 h 0.175781 v 1.3359375 h -0.210937 c -0.421875,0 -0.796875,0.058594 -1.125,0.1757812 -0.322266,0.1113281 -0.603516,0.2636719 -0.84375,0.4570313 -0.243164,0.196289 -0.457031,0.421875 -0.644531,0.6796875 v 6.02343747 z m 8.736328,0.12890625 c -0.993164,0 -1.710937,-0.27246093 -2.15625,-0.8203125 -0.439453,-0.55371092 -0.65625,-1.31542972 -0.65625,-2.28515622 v -5.5898438 h 1.488281 v 5.390625 c 0,0.3837891 0.04102,0.7324219 0.128907,1.0429688 0.08496,0.3046875 0.249023,0.5449218 0.492187,0.7148437 0.249023,0.1640625 0.609375,0.2460938 1.078125,0.2460938 0.638672,0 1.174805,-0.131836 1.605469,-0.3984375 0.436523,-0.2636719 0.788086,-0.5742188 1.054687,-0.9257813 v -6.0703125 h 1.476563 v 8.56640627 h -1.417969 l -0.03516,-1.32421877 c -0.28125,0.34570315 -0.673828,0.67382815 -1.171875,0.98437502 -0.500977,0.31347657 -1.13086,0.46875 -1.886719,0.46875 z M 59.4025,-0.00101563 V -8.5674219 h 1.40625 l 0.05859,1.3125 c 0.257812,-0.3427734 0.632812,-0.6679687 1.125,-0.9726562 0.498047,-0.3105469 1.130859,-0.46875 1.898437,-0.46875 0.9375,0 1.620117,0.2783203 2.050782,0.8320312 0.427734,0.5566406 0.644531,1.3330078 0.644531,2.3320313 v 5.53124997 H 65.109531 V -5.3213281 c 0,-0.413086 -0.04395,-0.7792969 -0.128906,-1.1015625 -0.08789,-0.328125 -0.243164,-0.5800782 -0.46875,-0.7617188 -0.228516,-0.1875 -0.556641,-0.28125 -0.984375,-0.28125 -0.641602,0 -1.180664,0.1494141 -1.617187,0.4453125 -0.430665,0.2900391 -0.779297,0.6064453 -1.042969,0.9492188 v 6.07031247 z M 72.199375,3.3153906 c -0.922852,0 -1.661133,-0.1054687 -2.214844,-0.3164062 C 69.427891,2.7880469 69.026523,2.5067969 68.7775,2.1552344 68.534336,1.8036719 68.414219,1.4198828 68.414219,1.0067969 c 0,-0.49218753 0.210937,-0.93457034 0.632812,-1.32421878 0.427735,-0.38964843 1.083985,-0.66210937 1.96875,-0.82031252 l 0.28125,-0.4804687 h 1.089844 c 1.40625,0 2.408203,0.1875 3.011719,0.5625 0.600586,0.3691406 0.902344,0.94335935 0.902344,1.72265622 0,0.77343748 -0.345704,1.40624998 -1.03125,1.89843748 -0.688477,0.4980469 -1.710938,0.75 -3.070313,0.75 z m -0.03516,-1.0664062 c 0.999023,0 1.702148,-0.140625 2.109375,-0.421875 0.413086,-0.28125 0.621094,-0.6298828 0.621094,-1.04296878 0,-0.25195312 -0.07031,-0.46582031 -0.210938,-0.64453125 -0.140625,-0.17871093 -0.398437,-0.31640625 -0.773437,-0.41015625 -0.369141,-0.0996094 -0.896485,-0.15234375 -1.582032,-0.15234375 H 71.0275 c -0.398437,0.10253907 -0.708984,0.26953125 -0.925781,0.50390625 -0.219727,0.24023438 -0.328125,0.52148438 -0.328125,0.84375 0,0.35156248 0.18164,0.65917968 0.550781,0.92578128 0.375,0.2636718 0.987305,0.3984375 1.839844,0.3984375 z m -1.160156,-2.75390628 c -0.5625,-0.0527344 -1.004883,-0.16699218 -1.324219,-0.33984375 -0.322266,-0.17871097 -0.547852,-0.37499997 -0.679688,-0.58593747 -0.134765,-0.2109375 -0.199218,-0.4160157 -0.199218,-0.6210938 0,-0.2871094 0.111328,-0.5566406 0.339843,-0.8085937 0.234375,-0.2578125 0.615235,-0.46875 1.148438,-0.6328125 l 0.726562,0.4570312 c -0.313476,0.087891 -0.55957,0.1992188 -0.738281,0.3398438 -0.181641,0.1347656 -0.269531,0.2871093 -0.269531,0.4570312 0,0.1171875 0.05273,0.2226563 0.164062,0.3164063 0.108399,0.09375 0.292969,0.1699218 0.550782,0.2226562 0.257812,0.055664 0.621093,0.082031 1.089843,0.082031 z m 1.089843,-2.27343752 c -0.703125,0 -1.300781,-0.1318359 -1.792968,-0.3984375 -0.486329,-0.2724609 -0.855469,-0.6328125 -1.113282,-1.078125 -0.251953,-0.4453125 -0.375,-0.9257812 -0.375,-1.4414062 0,-0.5449219 0.128907,-1.0429688 0.386719,-1.4882813 0.257813,-0.4453125 0.632813,-0.796875 1.125,-1.0546875 0.498047,-0.2636719 1.104492,-0.3984375 1.816406,-0.3984375 0.732422,0 1.341797,0.1347656 1.828125,0.3984375 0.492188,0.2578125 0.855469,0.609375 1.089844,1.0546875 0.240234,0.4453125 0.363281,0.9433594 0.363281,1.4882813 0,0.5332031 -0.123047,1.0195312 -0.363281,1.4648437 -0.243164,0.4394531 -0.609375,0.7910156 -1.101562,1.0546875 -0.492188,0.2666016 -1.113282,0.3984375 -1.863282,0.3984375 z m 0,-0.9960937 c 0.5625,0 1.025391,-0.1582032 1.394532,-0.4804688 0.36621,-0.328125 0.550781,-0.8085937 0.550781,-1.4414062 0,-0.6621094 -0.175781,-1.1542969 -0.527344,-1.4765625 -0.345703,-0.319336 -0.802734,-0.4804688 -1.371094,-0.4804688 -0.55664,0 -1.016601,0.1699219 -1.382812,0.5039063 -0.369141,0.328125 -0.550781,0.8085937 -0.550781,1.4414062 0,0.6503906 0.1875,1.1337891 0.5625,1.453125 0.380859,0.3222656 0.823242,0.4804688 1.324218,0.4804688 z m 2.238282,-3.9257813 -0.597657,-0.5507812 c 0.249024,-0.553711 0.577149,-0.928711 0.984375,-1.125 0.413086,-0.2021485 0.94043,-0.3105469 1.582032,-0.328125 v 1.2421875 c -0.407227,0 -0.782227,0.043945 -1.125,0.1289062 -0.345704,0.079102 -0.626954,0.2900391 -0.84375,0.6328125 z m 0,0"
         style="fill:#7f7f7f;fill-opacity:1;fill-rule:nonzero;stroke:none"
         aria-label="Isolierung"
         transform="matrix(1.3333333,0,0,1.3333333,843.54667,477.94667)"
         clip-path="url(#clipPath14)" />
    </g>
    <g
       id="g14">
      <path
         id="path15"
         d="M 1.5482031,-0.00101563 V -11.848672 h 4.4765625 c 0.6855469,0 1.3125,0.111328 1.875,0.328125 0.5625,0.219727 1.0078125,0.55957 1.3359375,1.019531 0.3339844,0.462891 0.5039063,1.0634769 0.5039063,1.8046879 0,0.75 -0.2109375,1.3916015 -0.6328125,1.921875 -0.4160157,0.524414 -1.0283203,0.8789062 -1.8398438,1.0664062 0.4453125,0.070312 0.8115235,0.2197266 1.1015625,0.4453125 0.2871094,0.2197266 0.5273438,0.5214844 0.7148438,0.9023438 0.1933593,0.375 0.3632812,0.8408203 0.5039062,1.3945312 l 0.7734374,2.96484377 H 8.7435156 L 8.0638281,-2.7197656 C 7.9466406,-3.2031641 7.8060156,-3.61625 7.6419531,-3.9619531 7.48375,-4.3047266 7.2698828,-4.5654688 6.9974219,-4.7471094 6.7220312,-4.9258203 6.3646094,-5.0166406 5.9192969,-5.0166406 H 3.1302344 v 5.01562497 z M 3.1302344,-6.3408594 h 2.6953125 c 0.4365234,0 0.8320312,-0.082031 1.1835937,-0.2460937 0.3515625,-0.1640625 0.6269531,-0.3984375 0.8320313,-0.703125 0.2109375,-0.3105469 0.3164062,-0.6914063 0.3164062,-1.1367188 0,-0.6621094 -0.196289,-1.1777344 -0.5859375,-1.546875 C 7.1790625,-10.339883 6.6136328,-10.524453 5.8724219,-10.524453 H 3.1302344 Z M 15.903672,0.16304687 c -0.931641,0 -1.696289,-0.19335937 -2.296875,-0.5859375 -0.594727,-0.38964843 -1.03711,-0.91992187 -1.324219,-1.59374997 -0.28125,-0.6708985 -0.421875,-1.4296875 -0.421875,-2.2734375 0,-0.8730469 0.134766,-1.6435547 0.410156,-2.3085938 0.28125,-0.6621094 0.706055,-1.1835937 1.277344,-1.5585937 0.568359,-0.375 1.294922,-0.5625 2.179688,-0.5625 1.163086,0 2.077148,0.3515625 2.742187,1.0546875 0.662109,0.703125 0.996094,1.7167968 0.996094,3.0351562 0,0.087891 -0.0059,0.1933594 -0.01172,0.3164063 0,0.1171875 -0.0088,0.2050781 -0.02344,0.2578125 h -6.105469 c 0.0059,0.5566406 0.09668,1.0664062 0.269531,1.5351562 0.169922,0.46875 0.445313,0.84375 0.820313,1.125 0.375,0.28125 0.870117,0.42187502 1.488281,0.42187502 0.65625,0 1.166015,-0.15234372 1.535156,-0.45703122 0.375,-0.3105469 0.568359,-0.7617188 0.585938,-1.3476563 h 1.453125 c -0.01758,0.609375 -0.172852,1.1337891 -0.46875,1.5703125 -0.290039,0.43945315 -0.700196,0.7792969 -1.230469,1.01953127 -0.533203,0.234375 -1.157227,0.3515625 -1.875,0.3515625 z M 13.337266,-5.1338281 h 4.675781 c -0.01758,-0.796875 -0.222656,-1.40625 -0.621094,-1.828125 -0.398437,-0.421875 -0.955078,-0.6328125 -1.664062,-0.6328125 -0.720704,0 -1.283204,0.2109375 -1.6875,0.6328125 -0.407227,0.4160156 -0.641602,1.0253906 -0.703125,1.828125 z m 10.705078,5.29687497 c -0.492188,0 -0.94336,-0.09375 -1.347657,-0.28125 C 22.287461,-0.3115625 21.962266,-0.58988281 21.722031,-0.95023438 21.478867,-1.3164453 21.35875,-1.7734766 21.35875,-2.3213281 c 0,-0.7646485 0.237305,-1.3476563 0.714844,-1.7460938 0.483398,-0.3984375 1.163086,-0.6679687 2.039062,-0.8085937 0.881836,-0.1464844 1.913086,-0.225586 3.09375,-0.234375 v -0.5976563 c 0,-0.7324219 -0.18457,-1.2363281 -0.550781,-1.5117187 -0.360352,-0.272461 -0.817383,-0.4101563 -1.371094,-0.4101563 -0.594726,0 -1.095703,0.1523438 -1.5,0.4570313 -0.407226,0.2988281 -0.609375,0.7675781 -0.609375,1.40625 h -1.429687 c 0,-0.703125 0.152343,-1.2685547 0.457031,-1.6992188 0.304687,-0.4365234 0.720703,-0.7529297 1.253906,-0.9492187 0.530274,-0.2021485 1.139649,-0.3046875 1.828125,-0.3046875 0.436524,0 0.855469,0.043945 1.253906,0.1289062 0.404297,0.079102 0.767579,0.2285156 1.089844,0.4453125 0.319336,0.2109375 0.574219,0.5126953 0.761719,0.9023438 0.1875,0.3925781 0.28125,0.8964843 0.28125,1.5117187 v 5.73046877 h -1.371094 l -0.07031,-1.30078127 c -0.392578,0.43945315 -0.84961,0.79394534 -1.371094,1.06640627 -0.515625,0.26367188 -1.12207,0.3984375 -1.816406,0.3984375 z m 0.386718,-1.13671875 c 0.591797,0 1.125,-0.13476562 1.59375,-0.41015622 0.46875,-0.272461 0.858399,-0.6210938 1.171875,-1.0429688 v -1.7460937 c -1.564453,0.017578 -2.683593,0.1640625 -3.363281,0.4453125 -0.673828,0.2753906 -1.007812,0.7236328 -1.007812,1.3476562 0,0.4306641 0.134765,0.7734375 0.410156,1.03125 0.272461,0.2519531 0.670898,0.37500002 1.195312,0.37500002 z m 6.981446,0.97265625 V -11.848672 h 1.464844 v 7.3125001 l 3.878906,-4.03125 h 1.734375 l -3.878906,4.0078125 4.230468,4.55859377 H 37.01207 L 32.875352,-4.4541406 v 4.45312497 z m 11.510742,0 c -0.697266,0 -1.227539,-0.10839843 -1.59375,-0.328125 -0.369141,-0.21679687 -0.621094,-0.53320312 -0.761719,-0.94921877 -0.140625,-0.4130859 -0.210937,-0.9140625 -0.210937,-1.5 v -4.6054687 h -1.429688 v -1.1835938 h 1.429688 v -1.9687501 h 1.464843 v 1.9687501 h 2.109375 v 1.1835938 h -2.109375 v 4.5351562 c 0,0.5390625 0.06445,0.9550781 0.199219,1.2421875 0.140625,0.28125 0.47168,0.421875 0.996094,0.421875 h 0.9375 v 1.18359377 z m 2.90918,0 V -8.5674219 h 1.464843 v 8.56640627 z M 46.556992,-10.184609 c -0.27539,0 -0.498047,-0.07617 -0.667969,-0.234375 -0.164062,-0.164063 -0.246093,-0.369141 -0.246093,-0.621094 0,-0.240235 0.08203,-0.445313 0.246093,-0.609375 0.169922,-0.164063 0.392579,-0.246094 0.667969,-0.246094 0.28125,0 0.503906,0.08203 0.667969,0.246094 0.169922,0.164062 0.257812,0.36914 0.257812,0.609375 0,0.251953 -0.08789,0.457031 -0.257812,0.621094 -0.164063,0.158203 -0.386719,0.234375 -0.667969,0.234375 z m 7.095703,10.32421837 c -0.84375,0 -1.567383,-0.17578125 -2.167968,-0.52734375 C 50.89,-0.74515625 50.435898,-1.2549219 50.125352,-1.9111719 c -0.313477,-0.6621094 -0.46875,-1.4472656 -0.46875,-2.3554687 0,-0.9375 0.155273,-1.7373047 0.46875,-2.4023438 0.310546,-0.6621094 0.764648,-1.1748047 1.359375,-1.5351562 0.600585,-0.3574219 1.324218,-0.5390625 2.167968,-0.5390625 0.84961,0 1.582032,0.1816406 2.191407,0.5390625 0.609375,0.3603515 1.072265,0.8730468 1.394531,1.5351562 0.328125,0.6650391 0.492187,1.4648438 0.492187,2.4023438 0,0.9082031 -0.164062,1.6933593 -0.492187,2.3554687 -0.322266,0.65625 -0.785156,1.16601565 -1.394531,1.52343752 -0.609375,0.3515625 -1.341797,0.52734375 -2.191407,0.52734375 z m 0,-1.17187497 c 0.632813,0 1.136719,-0.1347657 1.511719,-0.4101563 0.375,-0.28125 0.644531,-0.6679687 0.808594,-1.1601562 0.164062,-0.4921875 0.246094,-1.0458985 0.246094,-1.6640625 0,-0.6328125 -0.08203,-1.1982422 -0.246094,-1.6992188 -0.164063,-0.4980469 -0.433594,-0.890625 -0.808594,-1.171875 -0.375,-0.2871094 -0.878906,-0.4335937 -1.511719,-0.4335937 -0.618164,0 -1.110351,0.1464843 -1.476562,0.4335937 -0.360352,0.28125 -0.618164,0.6738281 -0.773438,1.171875 -0.158203,0.5009766 -0.234375,1.0664063 -0.234375,1.6992188 0,0.618164 0.07617,1.171875 0.234375,1.6640625 0.155274,0.4921875 0.413086,0.8789062 0.773438,1.1601562 0.366211,0.2753906 0.858398,0.4101563 1.476562,0.4101563 z m 6.433594,1.03124997 V -8.5674219 h 1.40625 l 0.05859,1.3125 c 0.257812,-0.3427734 0.632812,-0.6679687 1.125,-0.9726562 0.498047,-0.3105469 1.130859,-0.46875 1.898437,-0.46875 0.9375,0 1.620117,0.2783203 2.050782,0.8320312 0.427734,0.5566406 0.644531,1.3330078 0.644531,2.3320313 v 5.53124997 H 65.79332 V -5.3213281 c 0,-0.413086 -0.04394,-0.7792969 -0.128906,-1.1015625 -0.08789,-0.328125 -0.243164,-0.5800782 -0.46875,-0.7617188 -0.228516,-0.1875 -0.556641,-0.28125 -0.984375,-0.28125 -0.641602,0 -1.180664,0.1494141 -1.617187,0.4453125 -0.430665,0.2900391 -0.779297,0.6064453 -1.042969,0.9492188 v 6.07031247 z m 12.966797,0.1640625 c -0.486328,0 -0.943359,-0.0556641 -1.371094,-0.1640625 -0.430664,-0.10839843 -0.808594,-0.27539062 -1.136719,-0.50390625 -0.328125,-0.22558593 -0.585937,-0.52148442 -0.773437,-0.89062502 -0.181641,-0.375 -0.269531,-0.8261719 -0.269531,-1.359375 h 1.417968 c 0,0.6738281 0.202149,1.1455078 0.609375,1.4179688 0.413086,0.2666015 0.931641,0.39843747 1.558594,0.39843747 0.553711,0 1.010742,-0.10546877 1.371094,-0.31640627 0.366211,-0.2109375 0.550781,-0.5654297 0.550781,-1.0664062 0,-0.421875 -0.164062,-0.7324219 -0.492187,-0.9375 -0.328125,-0.2021485 -0.902344,-0.4013672 -1.722657,-0.5976563 -0.665039,-0.1552734 -1.227539,-0.3398437 -1.6875,-0.5507812 -0.46289,-0.2109375 -0.805664,-0.4716797 -1.03125,-0.7851563 -0.228515,-0.3193359 -0.339843,-0.7265625 -0.339843,-1.21875 0,-0.3808594 0.07617,-0.7177734 0.234375,-1.0078125 0.164062,-0.2871094 0.389648,-0.5273437 0.679687,-0.7148437 0.295899,-0.1933594 0.638672,-0.3398438 1.03125,-0.4335938 0.389649,-0.099609 0.814453,-0.1523437 1.277344,-0.1523437 0.451172,0 0.873047,0.055664 1.265625,0.1640625 0.398437,0.102539 0.744141,0.2666015 1.042969,0.4921875 0.304687,0.2197265 0.541992,0.5039062 0.714843,0.8554687 0.178711,0.3515625 0.269532,0.7734375 0.269532,1.265625 h -1.417969 c 0,-0.609375 -0.18457,-1.0371094 -0.550781,-1.2890625 -0.360352,-0.2578125 -0.802735,-0.3867187 -1.324219,-0.3867187 -0.533203,0 -0.960938,0.09375 -1.289063,0.28125 -0.328125,0.1875 -0.492187,0.4863281 -0.492187,0.890625 0,0.2285156 0.07324,0.4189453 0.222656,0.5742187 0.146485,0.1582031 0.392578,0.3017578 0.738281,0.4335938 0.342774,0.1259765 0.808594,0.2578125 1.394532,0.3984375 0.638672,0.149414 1.174804,0.328125 1.605468,0.5390625 0.436524,0.2109375 0.764649,0.4863281 0.984375,0.8203125 0.225586,0.328125 0.339844,0.75 0.339844,1.265625 0,0.4453125 -0.09082,0.8320312 -0.269531,1.1601562 -0.172852,0.32812502 -0.416016,0.59765627 -0.726563,0.80859377 -0.304687,0.20507813 -0.665039,0.35742188 -1.078125,0.45703125 -0.407226,0.09960938 -0.852539,0.15234375 -1.335937,0.15234375 z m 5.724609,-0.1640625 V -11.848672 h 1.464844 v 7.3125001 l 3.878906,-4.03125 h 1.734375 l -3.878906,4.0078125 4.230469,4.55859377 H 84.379258 L 80.242539,-4.4541406 v 4.45312497 z m 10.78125,0.1640625 c -0.492187,0 -0.943359,-0.09375 -1.347656,-0.28125 -0.407227,-0.19335937 -0.732422,-0.47167968 -0.972656,-0.83203125 -0.243164,-0.36621092 -0.363281,-0.82324222 -0.363281,-1.37109372 0,-0.7646485 0.237304,-1.3476563 0.714843,-1.7460938 0.483399,-0.3984375 1.163086,-0.6679687 2.039063,-0.8085937 0.881836,-0.1464844 1.913086,-0.225586 3.09375,-0.234375 v -0.5976563 c 0,-0.7324219 -0.184571,-1.2363281 -0.550781,-1.5117187 -0.360352,-0.272461 -0.817383,-0.4101563 -1.371094,-0.4101563 -0.594727,0 -1.095703,0.1523438 -1.5,0.4570313 -0.407227,0.2988281 -0.609375,0.7675781 -0.609375,1.40625 H 87.26207 c 0,-0.703125 0.152344,-1.2685547 0.457032,-1.6992188 0.304687,-0.4365234 0.720703,-0.7529297 1.253906,-0.9492187 0.530273,-0.2021485 1.139648,-0.3046875 1.828125,-0.3046875 0.436523,0 0.855469,0.043945 1.253906,0.1289062 0.404297,0.079102 0.767578,0.2285156 1.089844,0.4453125 0.319336,0.2109375 0.574219,0.5126953 0.761719,0.9023438 0.1875,0.3925781 0.28125,0.8964843 0.28125,1.5117187 v 5.73046877 h -1.371094 l -0.07031,-1.30078127 c -0.392578,0.43945315 -0.849609,0.79394534 -1.371093,1.06640627 -0.515625,0.26367188 -1.122071,0.3984375 -1.816407,0.3984375 z m 0.386719,-1.13671875 c 0.591797,0 1.125,-0.13476562 1.59375,-0.41015622 0.46875,-0.272461 0.858398,-0.6210938 1.171875,-1.0429688 v -1.7460937 c -1.564453,0.017578 -2.683594,0.1640625 -3.363281,0.4453125 -0.673828,0.2753906 -1.007813,0.7236328 -1.007813,1.3476562 0,0.4306641 0.134766,0.7734375 0.410157,1.03125 0.27246,0.2519531 0.670898,0.37500002 1.195312,0.37500002 z m 6.981445,0.97265625 V -8.5674219 h 1.40625 l 0.05859,1.3125 c 0.249024,-0.3427734 0.615234,-0.6679687 1.101563,-0.9726562 0.492187,-0.3105469 1.101568,-0.46875 1.828128,-0.46875 0.94336,0 1.62305,0.28125 2.03906,0.84375 0.42188,0.5566406 0.63282,1.3300781 0.63282,2.3203125 v 5.53124997 h -1.47657 V -5.3213281 c 0,-0.413086 -0.0439,-0.7792969 -0.1289,-1.1015625 -0.0879,-0.328125 -0.2461,-0.5800782 -0.48047,-0.7617188 -0.22852,-0.1875 -0.55078,-0.28125 -0.97266,-0.28125 -0.60937,0 -1.122072,0.1494141 -1.535158,0.4453125 -0.416016,0.2900391 -0.75,0.6064453 -1.007813,0.9492188 v 6.07031247 z m 11.156251,0 V -5.3213281 c 0,-0.413086 -0.0439,-0.7792969 -0.12891,-1.1015625 -0.0879,-0.328125 -0.24316,-0.5800782 -0.46875,-0.7617188 -0.22851,-0.1875 -0.55078,-0.28125 -0.97265,-0.28125 -0.60938,0 -1.125,0.1464844 -1.54688,0.4335938 -0.41601,0.28125 -0.75879,0.5947265 -1.03125,0.9375 l -0.21094,-1.0664063 c 0.33399,-0.375 0.76172,-0.7207031 1.27735,-1.0429687 0.52148,-0.328125 1.14844,-0.4921875 1.875,-0.4921875 0.95215,0 1.63476,0.28125 2.05078,0.84375 0.42187,0.5566406 0.63281,1.3300781 0.63281,2.3203125 v 5.53124997 z m 4.21875,0 V -8.5674219 h 1.40625 l 0.0586,1.3125 c 0.24903,-0.3427734 0.61524,-0.6679687 1.10157,-0.9726562 0.49218,-0.3105469 1.10156,-0.46875 1.82812,-0.46875 0.94336,0 1.62305,0.28125 2.03906,0.84375 0.42188,0.5566406 0.63282,1.3300781 0.63282,2.3203125 v 5.53124997 h -1.47657 V -5.3213281 c 0,-0.413086 -0.0439,-0.7792969 -0.1289,-1.1015625 -0.0879,-0.328125 -0.2461,-0.5800782 -0.48047,-0.7617188 -0.22852,-0.1875 -0.55078,-0.28125 -0.97266,-0.28125 -0.60937,0 -1.12207,0.1494141 -1.53515,0.4453125 -0.41602,0.2900391 -0.75,0.6064453 -1.00782,0.9492188 v 6.07031247 z m 11.15625,0 V -5.3213281 c 0,-0.413086 -0.0439,-0.7792969 -0.12891,-1.1015625 -0.0879,-0.328125 -0.24316,-0.5800782 -0.46875,-0.7617188 -0.22851,-0.1875 -0.55078,-0.28125 -0.97265,-0.28125 -0.60938,0 -1.125,0.1464844 -1.54688,0.4335938 -0.41601,0.28125 -0.75879,0.5947265 -1.03125,0.9375 l -0.21094,-1.0664063 c 0.33399,-0.375 0.76172,-0.7207031 1.27735,-1.0429687 0.52148,-0.328125 1.14844,-0.4921875 1.875,-0.4921875 0.95215,0 1.63476,0.28125 2.05078,0.84375 0.42187,0.5566406 0.63281,1.3300781 0.63281,2.3203125 v 5.53124997 z m 7.78125,0.1640625 c -0.93164,0 -1.69629,-0.19335937 -2.29688,-0.5859375 -0.59472,-0.38964843 -1.03711,-0.91992187 -1.32421,-1.59374997 -0.28125,-0.6708985 -0.42188,-1.4296875 -0.42188,-2.2734375 0,-0.8730469 0.13477,-1.6435547 0.41016,-2.3085938 0.28125,-0.6621094 0.70605,-1.1835937 1.27734,-1.5585937 0.56836,-0.375 1.29492,-0.5625 2.17969,-0.5625 1.16308,0 2.07715,0.3515625 2.74219,1.0546875 0.6621,0.703125 0.99609,1.7167968 0.99609,3.0351562 0,0.087891 -0.006,0.1933594 -0.0117,0.3164063 0,0.1171875 -0.009,0.2050781 -0.0234,0.2578125 h -6.10547 c 0.006,0.5566406 0.0967,1.0664062 0.26954,1.5351562 0.16992,0.46875 0.44531,0.84375 0.82031,1.125 0.375,0.28125 0.87012,0.42187502 1.48828,0.42187502 0.65625,0 1.16601,-0.15234372 1.53516,-0.45703122 0.375,-0.3105469 0.56835,-0.7617188 0.58593,-1.3476563 h 1.45313 c -0.0176,0.609375 -0.17285,1.1337891 -0.46875,1.5703125 -0.29004,0.43945315 -0.7002,0.7792969 -1.23047,1.01953127 -0.5332,0.234375 -1.15723,0.3515625 -1.875,0.3515625 z M 128.6732,-5.1338281 h 4.67578 c -0.0176,-0.796875 -0.22265,-1.40625 -0.62109,-1.828125 -0.39844,-0.421875 -0.95508,-0.6328125 -1.66406,-0.6328125 -0.72071,0 -1.28321,0.2109375 -1.6875,0.6328125 -0.40723,0.4160156 -0.6416,1.0253906 -0.70313,1.828125 z m 8.50196,5.13281247 V -8.5674219 h 1.38281 l 0.0469,1.453125 c 0.24024,-0.4453125 0.57715,-0.8144531 1.00782,-1.1132812 0.42773,-0.2958985 0.9873,-0.4453125 1.67578,-0.4453125 h 0.17578 v 1.3359375 h -0.21094 c -0.42187,0 -0.79687,0.058594 -1.125,0.1757812 -0.32226,0.1113281 -0.60351,0.2636719 -0.84375,0.4570313 -0.24316,0.196289 -0.45703,0.421875 -0.64453,0.6796875 v 6.02343747 z m 0,0"
         style="fill:#7f7f7f;fill-opacity:1;fill-rule:nonzero;stroke:none"
         aria-label="Reaktionskammer"
         transform="matrix(1.3333333,0,0,1.3333333,233.14667,477.94667)"
         clip-path="url(#clipPath16)" />
    </g>
    <g
       id="g16">
      <path
         id="path17"
         d="m 326.24,444.48 83.15,-71.82 -1.96,-2.27 -83.15,71.81 z m 83.98,-68.57 3.87,-9.29 -9.76,2.48 z"
         style="fill:#7f7f7f;fill-opacity:1;fill-rule:nonzero;stroke:none"
         transform="matrix(1.3333333,0,0,-1.3333333,0,720)" />
    </g>
    <g
       id="g17">
      <path
         id="path18"
         d="m 625.24,185.7 -51.16,6.35 0.37,2.98 51.16,-6.35 z m -50.04,3.19 -8.38,5.57 9.49,3.36 z"
         style="fill:#7f7f7f;fill-opacity:1;fill-rule:nonzero;stroke:none"
         transform="matrix(1.3333333,0,0,-1.3333333,0,720)" />
    </g>
    <g
       id="g18">
      <path
         id="path19"
         d="m 325.43,185.63 119.38,13.69 -0.34,2.98 -119.38,-13.69 z m 118.23,10.53 8.43,5.5 -9.45,3.45 z"
         style="fill:#7f7f7f;fill-opacity:1;fill-rule:nonzero;stroke:none"
         transform="matrix(1.3333333,0,0,-1.3333333,0,720)" />
    </g>
    <g
       id="g19">
      <path
         id="path20"
         d="m 648.62,401.61 -99.71,-114.08 2.26,-1.97 99.71,114.07 z m -100.98,-110.97 -2.54,-9.74 9.31,3.81 z"
         style="fill:#7f7f7f;fill-opacity:1;fill-rule:nonzero;stroke:none"
         transform="matrix(1.3333333,0,0,-1.3333333,0,720)" />
    </g>
  </g>
</svg>
