<?xml version="1.0" encoding="UTF-8" standalone="no"?>
<!-- Created with Inkscape (http://www.inkscape.org/) -->

<svg
   version="1.1"
   id="svg1"
   width="595.01324"
   height="190.74403"
   viewBox="0 0 595.01324 190.74404"
   sodipodi:docname="page3.pdf"
   xmlns:inkscape="http://www.inkscape.org/namespaces/inkscape"
   xmlns:sodipodi="http://sodipodi.sourceforge.net/DTD/sodipodi-0.dtd"
   xmlns="http://www.w3.org/2000/svg"
   xmlns:svg="http://www.w3.org/2000/svg">
  <defs
     id="defs1">
    <clipPath
       clipPathUnits="userSpaceOnUse"
       id="clipPath10">
      <path
         d="m 41.64,717.34 h 53.544 v 22.08 H 41.64 Z"
         transform="matrix(1,0,0,-1,-48.840001,729.10002)"
         clip-rule="evenodd"
         id="path10" />
    </clipPath>
    <clipPath
       clipPathUnits="userSpaceOnUse"
       id="clipPath13">
      <path
         d="m 89.184,667.06 h 25.8 v 15.48 h -25.8 z"
         transform="matrix(1,0,0,-1,-96.384002,672.22001)"
         clip-rule="evenodd"
         id="path13" />
    </clipPath>
    <clipPath
       clipPathUnits="userSpaceOnUse"
       id="clipPath15">
      <path
         d="m 319.61,651.7 h 37.704 v 19.92 H 319.61 Z"
         transform="matrix(1,0,0,-1,-326.81001,661.30001)"
         clip-rule="evenodd"
         id="path15" />
    </clipPath>
    <clipPath
       clipPathUnits="userSpaceOnUse"
       id="clipPath18">
      <path
         d="M 368.59,597.1 H 495.93 V 719.98 H 368.59 Z"
         transform="matrix(1,0,0,-1,-375.79001,709.54002)"
         clip-rule="evenodd"
         id="path18" />
    </clipPath>
    <clipPath
       clipPathUnits="userSpaceOnUse"
       id="clipPath19">
      <path
         d="M 368.59,597.1 H 495.93 V 719.98 H 368.59 Z"
         transform="matrix(1,0,0,-1,-408.91001,709.54002)"
         clip-rule="evenodd"
         id="path19" />
    </clipPath>
    <clipPath
       clipPathUnits="userSpaceOnUse"
       id="clipPath20">
      <path
         d="M 368.59,597.1 H 495.93 V 719.98 H 368.59 Z"
         transform="matrix(1,0,0,-1,-415.51001,708.58002)"
         clip-rule="evenodd"
         id="path20" />
    </clipPath>
    <clipPath
       clipPathUnits="userSpaceOnUse"
       id="clipPath21">
      <path
         d="M 368.59,597.1 H 495.93 V 719.98 H 368.59 Z"
         transform="matrix(1,0,0,-1,-418.39001,709.54002)"
         clip-rule="evenodd"
         id="path21" />
    </clipPath>
    <clipPath
       clipPathUnits="userSpaceOnUse"
       id="clipPath22">
      <path
         d="M 368.59,597.1 H 495.93 V 719.98 H 368.59 Z"
         transform="matrix(1,0,0,-1,-461.26001,709.54002)"
         clip-rule="evenodd"
         id="path22" />
    </clipPath>
    <clipPath
       clipPathUnits="userSpaceOnUse"
       id="clipPath23">
      <path
         d="M 368.59,597.1 H 495.93 V 719.98 H 368.59 Z"
         transform="matrix(1,0,0,-1,-467.86001,708.58002)"
         clip-rule="evenodd"
         id="path23" />
    </clipPath>
    <clipPath
       clipPathUnits="userSpaceOnUse"
       id="clipPath24">
      <path
         d="M 368.59,597.1 H 495.93 V 719.98 H 368.59 Z"
         transform="matrix(1,0,0,-1,-470.74001,709.54002)"
         clip-rule="evenodd"
         id="path24" />
    </clipPath>
    <clipPath
       clipPathUnits="userSpaceOnUse"
       id="clipPath25">
      <path
         d="M 368.59,597.1 H 495.93 V 719.98 H 368.59 Z"
         transform="matrix(1,0,0,-1,-375.79001,686.86001)"
         clip-rule="evenodd"
         id="path25" />
    </clipPath>
    <clipPath
       clipPathUnits="userSpaceOnUse"
       id="clipPath26">
      <path
         d="M 368.59,597.1 H 495.93 V 719.98 H 368.59 Z"
         transform="matrix(1,0,0,-1,-375.79001,672.82001)"
         clip-rule="evenodd"
         id="path26" />
    </clipPath>
    <clipPath
       clipPathUnits="userSpaceOnUse"
       id="clipPath27">
      <path
         d="M 368.59,597.1 H 495.93 V 719.98 H 368.59 Z"
         transform="matrix(1,0,0,-1,-375.79001,651.10001)"
         clip-rule="evenodd"
         id="path27" />
    </clipPath>
    <clipPath
       clipPathUnits="userSpaceOnUse"
       id="clipPath28">
      <path
         d="M 368.59,597.1 H 495.93 V 719.98 H 368.59 Z"
         transform="matrix(1,0,0,-1,-375.79001,637.18001)"
         clip-rule="evenodd"
         id="path28" />
    </clipPath>
  </defs>
  <sodipodi:namedview
     id="namedview1"
     pagecolor="#505050"
     bordercolor="#eeeeee"
     borderopacity="1"
     inkscape:showpageshadow="0"
     inkscape:pageopacity="0"
     inkscape:pagecheckerboard="0"
     inkscape:deskcolor="#505050">
    <inkscape:page
       x="0"
       y="0"
       inkscape:label="1"
       id="page1"
       width="595.01324"
       height="190.74403"
       margin="0"
       bleed="0" />
  </sodipodi:namedview>
  <g
     id="g1"
     inkscape:groupmode="layer"
     inkscape:label="1"
     transform="translate(-66.386719,-140.72267)">
    <g
       id="g2" />
    <g
       id="g3">
      <path
         id="path3"
         d="m 108.68,619.52 v 107.73 h -2.25 V 619.52 Z m 2.25,106.6 -3.38,6.75 -3.37,-6.75 z"
         style="fill:#000000;fill-opacity:1;fill-rule:nonzero;stroke:none"
         transform="matrix(1.3333333,0,0,-1.3333333,0,1122.56)" />
    </g>
    <g
       id="g4">
      <path
         id="path4"
         d="m 107.55,674.34 h 221.13 v 2.25 H 107.55 Z m 220,-2.25 6.75,3.38 -6.75,3.37 z"
         style="fill:#000000;fill-opacity:1;fill-rule:nonzero;stroke:none"
         transform="matrix(1.3333333,0,0,-1.3333333,0,1122.56)" />
    </g>
    <g
       id="g5">
      <path
         id="path5"
         d="m 107.55,675.47 198.4,-56.65"
         style="fill:none;stroke:#e97132;stroke-width:2.25;stroke-linecap:butt;stroke-linejoin:miter;stroke-miterlimit:10;stroke-dasharray:none;stroke-opacity:1"
         transform="matrix(1.3333333,0,0,-1.3333333,0,1122.56)" />
    </g>
    <g
       id="g6">
      <path
         id="path6"
         d="m 107.45,652.42 198.4,-56.65"
         style="fill:none;stroke:#4ea72e;stroke-width:2.25;stroke-linecap:butt;stroke-linejoin:miter;stroke-miterlimit:10;stroke-dasharray:none;stroke-opacity:1"
         transform="matrix(1.3333333,0,0,-1.3333333,0,1122.56)" />
    </g>
    <g
       id="g7">
      <path
         id="path7"
         d="m 107.65,652.27 h 198.4"
         style="fill:none;stroke:#83cbeb;stroke-width:2.25;stroke-linecap:butt;stroke-linejoin:miter;stroke-miterlimit:10;stroke-dasharray:none;stroke-opacity:1"
         transform="matrix(1.3333333,0,0,-1.3333333,0,1122.56)" />
    </g>
    <g
       id="g8" />
    <g
       id="g9">
      <path
         id="path9"
         d="M 0.95003906,-6.640625e-4 V -7.2545703 H 5.5789453 v 0.8085937 h -3.65625 v 2.3085938 h 3.3632813 v 0.796875 H 1.9226953 v 2.53124999 h 3.65625 v 0.8085937475 z m 6.05566404,0 V -5.2506641 h 0.8671875 l 0.023437,0.8085938 c 0.1640625,-0.2109375 0.3925782,-0.4101563 0.6914063,-0.5976563 0.3046875,-0.1875 0.6943359,-0.28125 1.171875,-0.28125 0.5683601,0 0.9843751,0.1699219 1.2421871,0.5039063 0.263672,0.3369141 0.398437,0.8144531 0.398437,1.4296875 V -6.640625e-4 H 10.509609 V -3.2584766 c 0,-0.2490234 -0.0293,-0.4716796 -0.08203,-0.6679687 -0.05566,-0.2021484 -0.152344,-0.3574219 -0.292969,-0.46875 -0.1406246,-0.1171875 -0.3398434,-0.1757813 -0.5976559,-0.1757813 -0.3925781,0 -0.7207031,0.09082 -0.984375,0.2695313 -0.2666015,0.1728516 -0.4804687,0.3691406 -0.6445312,0.5859375 V -6.640625e-4 Z M 15.267422,0.09308594 c -0.571289,0 -1.040039,-0.1171875 -1.40625,-0.3515625 -0.360352,-0.24023438 -0.629883,-0.56542969 -0.808594,-0.97265624 -0.172851,-0.4130859 -0.257812,-0.8789063 -0.257812,-1.3945313 0,-0.5390625 0.08203,-1.0107421 0.246093,-1.4179687 0.169922,-0.4042969 0.433594,-0.7207031 0.785157,-0.9492188 0.351562,-0.234375 0.796875,-0.3515625 1.335937,-0.3515625 0.717774,0 1.280274,0.2197266 1.6875,0.65625 0.404297,0.4306641 0.609375,1.0488282 0.609375,1.8515625 0,0.055664 -0.0059,0.1230469 -0.01172,0.1992188 0,0.070312 -0.0059,0.1230469 -0.01172,0.1523437 h -3.738282 c 0,0.3457032 0.04981,0.6621094 0.152344,0.9492188 0.108399,0.28125 0.275391,0.5097656 0.503906,0.67968749 0.234375,0.17285156 0.539063,0.2578125 0.914063,0.2578125 0.404297,0 0.720703,-0.09375 0.949219,-0.28125 0.225586,-0.18749999 0.342773,-0.45996089 0.351562,-0.82031249 h 0.890625 c -0.0088,0.3691406 -0.102539,0.6884766 -0.28125,0.96093749 -0.18164,0.26660156 -0.433594,0.47460937 -0.761719,0.62109375 -0.322265,0.140625 -0.703125,0.2109375 -1.148437,0.2109375 z M 13.697109,-3.1412891 h 2.871094 c -0.01758,-0.4921875 -0.146484,-0.8671875 -0.386719,-1.125 -0.243164,-0.2578125 -0.583007,-0.3867187 -1.019531,-0.3867187 -0.439453,0 -0.782226,0.1289062 -1.03125,0.3867187 -0.251953,0.2578125 -0.395508,0.6328125 -0.433594,1.125 z m 5.165039,3.1406250375 V -5.2506641 h 0.84375 l 0.03516,0.890625 c 0.146484,-0.2724609 0.351562,-0.4980468 0.609375,-0.6796875 0.263672,-0.1875 0.609375,-0.28125 1.03125,-0.28125 h 0.105468 v 0.8320313 h -0.128906 c -0.257812,0 -0.489258,0.035156 -0.691406,0.1054687 -0.196289,0.064453 -0.369141,0.1582032 -0.515625,0.28125 -0.140625,0.1171875 -0.269531,0.2548829 -0.386719,0.4101563 V -6.640625e-4 Z M 24.167813,2.0266797 c -0.57129,0 -1.028321,-0.067383 -1.371094,-0.1992188 C 22.459805,1.7014844 22.216641,1.5286328 22.070156,1.3118359 21.920742,1.1008984 21.8475,0.86945313 21.8475,0.62042969 c 0,-0.3046875 0.128906,-0.57421875 0.386719,-0.80859375 0.257812,-0.24023438 0.659179,-0.41015625 1.207031,-0.50390625 l 0.175781,-0.3046875 h 0.65625 c 0.867188,0 1.482422,0.1171875 1.851563,0.3515625 0.366211,0.22851562 0.550781,0.58007812 0.550781,1.0546875 0,0.47460937 -0.210937,0.86132811 -0.632812,1.16015621 -0.421875,0.3046875 -1.048829,0.4570313 -1.875,0.4570313 z m -0.02344,-0.6445313 c 0.609375,0 1.037109,-0.087891 1.289063,-0.2578125 0.249023,-0.17285152 0.375,-0.38671871 0.375,-0.64453121 0,-0.14941406 -0.04395,-0.27832031 -0.128907,-0.38671875 -0.0791,-0.10839844 -0.234375,-0.19335938 -0.46875,-0.2578125 -0.228515,-0.0615234 -0.550781,-0.09375 -0.972656,-0.09375 H 23.44125 c -0.243164,0.0644531 -0.430664,0.1640625 -0.5625,0.3046875 -0.134766,0.14648437 -0.199219,0.31933594 -0.199219,0.515625 0,0.21679687 0.111328,0.41015625 0.339844,0.57421876 0.225586,0.1640625 0.600586,0.2460937 1.125,0.2460937 z M 23.429531,-0.30535156 C 23.083828,-0.3434375 22.814297,-0.41375 22.620938,-0.51628906 22.424648,-0.6246875 22.284023,-0.74480469 22.199063,-0.87957031 22.119961,-1.0114062 22.081875,-1.1373828 22.081875,-1.2545703 c 0,-0.1787109 0.07031,-0.3457031 0.210938,-0.5039063 0.140625,-0.1552734 0.375,-0.2841796 0.703125,-0.3867187 l 0.445312,0.28125 c -0.1875,0.055664 -0.339844,0.1259766 -0.457031,0.2109375 -0.111328,0.087891 -0.164063,0.1816406 -0.164063,0.28125 0,0.070312 0.0293,0.1376953 0.09375,0.1992187 0.07031,0.055664 0.181641,0.099609 0.339844,0.1289063 0.164063,0.032227 0.386719,0.046875 0.667969,0.046875 z M 24.0975,-1.6998828 c -0.430664,0 -0.796875,-0.082031 -1.101562,-0.2460938 -0.298829,-0.1699218 -0.524415,-0.3896484 -0.679688,-0.65625 -0.149414,-0.2724609 -0.222656,-0.5683593 -0.222656,-0.890625 0,-0.328125 0.07617,-0.6269531 0.234375,-0.9023437 0.155273,-0.2724609 0.386719,-0.4921875 0.691406,-0.65625 0.304688,-0.1640625 0.673828,-0.2460938 1.113281,-0.2460938 0.445313,0 0.814453,0.082031 1.113282,0.2460938 0.304687,0.1640625 0.527343,0.3837891 0.667968,0.65625 0.146485,0.2753906 0.222657,0.5742187 0.222657,0.9023437 0,0.328125 -0.07617,0.6298829 -0.222657,0.9023438 -0.149414,0.2666016 -0.375,0.4804687 -0.679687,0.6445312 -0.298828,0.1640625 -0.676758,0.2460938 -1.136719,0.2460938 z m 0,-0.609375 c 0.342773,0 0.626953,-0.09668 0.855469,-0.2929688 0.225586,-0.2021484 0.339844,-0.4980468 0.339844,-0.890625 0,-0.4042968 -0.111329,-0.7060546 -0.328125,-0.9023437 -0.210938,-0.1933594 -0.489258,-0.2929688 -0.832032,-0.2929688 -0.345703,0 -0.629883,0.1025391 -0.855468,0.3046875 -0.219727,0.2050782 -0.328125,0.5009766 -0.328125,0.890625 0,0.3984375 0.111328,0.6972657 0.339843,0.890625 0.234375,0.1962891 0.503907,0.2929688 0.808594,0.2929688 z m 1.371094,-2.4023438 -0.363281,-0.3398437 c 0.155273,-0.3427734 0.357421,-0.5742188 0.609375,-0.6914063 0.249023,-0.1230468 0.568359,-0.1904296 0.960937,-0.1992187 v 0.7617187 c -0.251953,0 -0.480469,0.029297 -0.691406,0.082031 -0.210938,0.046875 -0.383789,0.1757812 -0.515625,0.386719 z m 2.258789,4.7109375375 V -5.2506641 h 0.902344 V -6.640625e-4 Z M 28.172695,-6.2350391 c -0.164062,0 -0.301757,-0.046875 -0.410156,-0.140625 -0.102539,-0.099609 -0.152344,-0.2285156 -0.152344,-0.3867187 0,-0.1464844 0.0498,-0.2695313 0.152344,-0.3632813 0.108399,-0.099609 0.246094,-0.1523437 0.410156,-0.1523437 0.169922,0 0.307618,0.052734 0.410157,0.1523437 0.108398,0.09375 0.164062,0.2167969 0.164062,0.3632813 0,0.1582031 -0.05566,0.2871094 -0.164062,0.3867187 -0.102539,0.09375 -0.240235,0.140625 -0.410157,0.140625 z m 4.374024,6.32812504 c -0.571289,0 -1.040039,-0.1171875 -1.40625,-0.3515625 -0.360352,-0.24023438 -0.629883,-0.56542969 -0.808594,-0.97265624 -0.172852,-0.4130859 -0.257812,-0.8789063 -0.257812,-1.3945313 0,-0.5390625 0.08203,-1.0107421 0.246093,-1.4179687 0.169922,-0.4042969 0.433594,-0.7207031 0.785157,-0.9492188 0.351562,-0.234375 0.796875,-0.3515625 1.335937,-0.3515625 0.717773,0 1.280273,0.2197266 1.6875,0.65625 0.404297,0.4306641 0.609375,1.0488282 0.609375,1.8515625 0,0.055664 -0.0059,0.1230469 -0.01172,0.1992188 0,0.070312 -0.0059,0.1230469 -0.01172,0.1523437 h -3.738282 c 0,0.3457032 0.0498,0.6621094 0.152344,0.9492188 0.108398,0.28125 0.275391,0.5097656 0.503906,0.67968749 0.234375,0.17285156 0.539063,0.2578125 0.914063,0.2578125 0.404297,0 0.720703,-0.09375 0.949219,-0.28125 0.225585,-0.18749999 0.342773,-0.45996089 0.351562,-0.82031249 h 0.890625 c -0.0088,0.3691406 -0.102539,0.6884766 -0.28125,0.96093749 -0.181641,0.26660156 -0.433594,0.47460937 -0.761719,0.62109375 -0.322265,0.140625 -0.703125,0.2109375 -1.148437,0.2109375 z M 30.976406,-3.1412891 H 33.8475 c -0.01758,-0.4921875 -0.146484,-0.8671875 -0.386719,-1.125 -0.243164,-0.2578125 -0.583008,-0.3867187 -1.019531,-0.3867187 -0.439453,0 -0.782227,0.1289062 -1.03125,0.3867187 -0.251953,0.2578125 -0.395508,0.6328125 -0.433594,1.125 z m 0,0"
         style="fill:#000000;fill-opacity:1;fill-rule:nonzero;stroke:none"
         aria-label=" Energie"
         transform="matrix(1.3333333,0,0,1.3333333,65.12,150.42667)"
         clip-path="url(#clipPath10)" />
    </g>
    <g
       id="g10" />
    <g
       id="g11" />
    <g
       id="g12">
      <path
         id="path12"
         d="m 2.9529141,0.09296875 c -0.4541016,0 -0.8378907,-0.09082031 -1.1484375,-0.26953125 C 1.491,-0.3640625 1.2419766,-0.621875 1.0544766,-0.95 0.86697656,-1.278125 0.72928125,-1.6589844 0.64432031,-2.0984375 c -0.0878906,-0.4365234 -0.12890625,-0.9052734 -0.12890625,-1.40625 0,-0.5068359 0.0410156,-0.9785156 0.12890625,-1.4179687 0.0849609,-0.4453125 0.22265625,-0.8320313 0.41015629,-1.1601563 0.1875,-0.328125 0.4365234,-0.5859375 0.75,-0.7734375 0.3105468,-0.1875 0.6943359,-0.28125 1.1484375,-0.28125 0.4511718,0 0.8320312,0.09375 1.1367187,0.28125 0.3105469,0.1816406 0.5625,0.4394531 0.75,0.7734375 0.1875,0.328125 0.3222656,0.7119141 0.4101563,1.1484375 0.084961,0.4394531 0.1289062,0.9111328 0.1289062,1.4179688 0,0.5097656 -0.043945,0.9814453 -0.1289062,1.4179687 C 5.1618984,-1.6589844 5.0271328,-1.278125 4.8396328,-0.95 c -0.1875,0.328125 -0.4394531,0.5859375 -0.75,0.7734375 C 3.7849453,0.00214844 3.4040859,0.09296875 2.9529141,0.09296875 Z m 0,-0.78515625 c 0.2958984,0 0.5390625,-0.0761719 0.7265625,-0.234375 0.1933593,-0.1640625 0.3427734,-0.3808594 0.4453125,-0.65625 0.1083984,-0.2724609 0.1816406,-0.5771484 0.2226562,-0.9140625 0.038086,-0.3339844 0.058594,-0.6738281 0.058594,-1.0195312 0,-0.3515625 -0.020508,-0.694336 -0.058594,-1.03125 C 4.3064297,-4.8816406 4.2331875,-5.1833984 4.1247891,-5.45 4.02225,-5.7224609 3.8728359,-5.9363281 3.6794766,-6.0945312 3.4919766,-6.2585937 3.2488125,-6.340625 2.9529141,-6.340625 c -0.3046875,0 -0.5566407,0.082031 -0.75,0.2460938 C 2.0154141,-5.9363281 1.866,-5.7224609 1.7576016,-5.45 c -0.1025391,0.2666016 -0.1757813,0.5683594 -0.2226563,0.9023438 -0.041016,0.336914 -0.058594,0.6796875 -0.058594,1.03125 0,0.3457031 0.017578,0.6855468 0.058594,1.0195312 0.046875,0.3369141 0.1201172,0.6416016 0.2226563,0.9140625 0.1083984,0.2753906 0.2578125,0.4921875 0.4453125,0.65625 0.1933593,0.15820313 0.4453125,0.234375 0.75,0.234375 z m 0,0"
         style="fill:#000000;fill-opacity:1;fill-rule:nonzero;stroke:none"
         aria-label="  0"
         transform="matrix(1.3333333,0,0,1.3333333,128.512,226.26667)"
         clip-path="url(#clipPath13)" />
    </g>
    <g
       id="g13" />
    <g
       id="g14">
      <path
         id="path14"
         d="M 2.1558203,0.00109375 V -6.4442188 H 0.09332031 V -7.2528125 H 5.1792578 v 0.8085937 H 3.1284766 v 6.44531255 z m 0,0"
         style="fill:#000000;fill-opacity:1;fill-rule:nonzero;stroke:none"
         aria-label=" T"
         transform="matrix(1.3333333,0,0,1.3333333,435.74667,240.82667)"
         clip-path="url(#clipPath15)" />
    </g>
    <g
       id="g15">
      <path
         id="path16"
         d="m 368.3,593.32 h 127.75 v 130.5 H 368.3 Z"
         style="fill:#ffffff;fill-opacity:1;fill-rule:evenodd;stroke:none"
         transform="matrix(1.3333333,0,0,-1.3333333,0,1122.56)" />
    </g>
    <g
       id="g16">
      <path
         id="path17"
         d="M 0.95023438,8.59375e-4 V -7.2530469 H 5.4619531 v 0.8085938 H 1.9228906 v 2.3203125 h 3.2109375 v 0.7851562 H 1.9228906 V 8.59375e-4 Z M 7.8672266,0.09460938 c -0.3046875,0 -0.5830078,-0.05566407 -0.8320313,-0.1640625 C 6.7832422,-0.18664062 6.5840234,-0.3565625 6.4375391,-0.58507812 6.288125,-0.81066406 6.2148828,-1.0889844 6.2148828,-1.4171094 c 0,-0.46875 0.1435547,-0.8232422 0.4335938,-1.0664062 0.2958984,-0.2490235 0.7148437,-0.4160156 1.2539062,-0.5039063 0.5390625,-0.084961 1.171875,-0.1318359 1.8984375,-0.140625 v -0.375 c 0,-0.4453125 -0.1142578,-0.75 -0.3398437,-0.9140625 C 9.24125,-4.5870312 8.96,-4.6749219 8.6172266,-4.6749219 c -0.3691407,0 -0.6767578,0.09375 -0.9257813,0.28125 -0.243164,0.1816407 -0.3632812,0.46875 -0.3632812,0.8671875 H 6.4492578 c 0,-0.4277343 0.09375,-0.7763672 0.28125,-1.0429687 0.1875,-0.272461 0.4394531,-0.46875 0.7617188,-0.5859375 0.328125,-0.1230469 0.703125,-0.1875 1.125,-0.1875 0.2636718,0 0.5185547,0.029297 0.7617187,0.082031 0.2490235,0.046875 0.4716797,0.1376953 0.6679687,0.2695313 0.202149,0.1347656 0.357422,0.3222656 0.46875,0.5625 0.117188,0.234375 0.175781,0.5449219 0.175781,0.9257812 V 8.59375e-4 H 9.8476953 L 9.8125391,-0.79601562 C 9.569375,-0.52941406 9.288125,-0.31554687 8.9687891,-0.15148437 8.6553125,0.01257813 8.2891016,0.09460938 7.8672266,0.09460938 Z m 0.234375,-0.69140625 c 0.3574218,0 0.6796875,-0.0820313 0.9609375,-0.24609375 C 9.3496484,-1.0128125 9.5928125,-1.2296094 9.7891016,-1.4874219 v -1.0664062 c -0.9550782,0.00879 -1.6376953,0.099609 -2.0507813,0.2695312 -0.4160156,0.1728516 -0.6210937,0.4511719 -0.6210937,0.8320313 0,0.2578125 0.082031,0.46582029 0.2460937,0.62109373 0.1640625,0.15820312 0.4101563,0.234375 0.7382813,0.234375 z M 13.881875,8.59375e-4 c -0.430664,0 -0.758789,-0.064453125 -0.984375,-0.199218745 C 12.668984,-0.33019531 12.513711,-0.520625 12.42875,-0.77257812 12.349648,-1.0303906 12.311563,-1.3380078 12.311563,-1.6983594 v -5.5546875 h 0.890625 v 5.5078125 c 0,0.328125 0.04101,0.5800782 0.128906,0.75000003 0.08496,0.17285156 0.287109,0.2578125 0.609375,0.2578125 h 0.246094 V 8.59375e-4 Z m 2.783203,0 c -0.430664,0 -0.758789,-0.064453125 -0.984375,-0.199218745 -0.228515,-0.13183594 -0.383789,-0.32226563 -0.46875,-0.57421875 -0.0791,-0.25781248 -0.117187,-0.56542968 -0.117187,-0.92578128 v -5.5546875 h 0.890625 v 5.5078125 c 0,0.328125 0.04102,0.5800782 0.128906,0.75000003 0.08496,0.17285156 0.287109,0.2578125 0.609375,0.2578125 h 0.246094 V 8.59375e-4 Z m 5.660156,0 V -5.9053906 c -0.09375,0.1347656 -0.231445,0.2636719 -0.410156,0.3867187 -0.172851,0.1259766 -0.383789,0.234375 -0.632812,0.328125 -0.243164,0.09375 -0.515625,0.1640625 -0.820313,0.2109375 v -0.8554687 c 0.295899,-0.046875 0.574219,-0.1347656 0.832031,-0.2695313 0.257813,-0.1318359 0.483399,-0.2841797 0.679688,-0.4570312 0.193359,-0.1699219 0.351562,-0.3398438 0.46875,-0.5039063 h 0.832031 V 8.59375e-4 Z m 4.582032,0.058593755 c -0.205078,0 -0.372071,-0.06445313 -0.503907,-0.19921875 -0.134765,-0.13183594 -0.199218,-0.29296875 -0.199218,-0.48046875 0,-0.20214844 0.06445,-0.36621094 0.199218,-0.49218753 0.131836,-0.1230468 0.298829,-0.1875 0.503907,-0.1875 0.202148,0 0.366211,0.064453 0.492187,0.1875 0.131836,0.12597659 0.199219,0.29003909 0.199219,0.49218753 0,0.1875 -0.06738,0.34863281 -0.199219,0.48046875 C 27.273477,-0.005 27.109414,0.05945313 26.907266,0.05945313 Z m 0,-3.94921873 c -0.205078,0 -0.372071,-0.064453 -0.503907,-0.1992188 -0.134765,-0.1318359 -0.199218,-0.2929687 -0.199218,-0.4804687 0,-0.2021485 0.06445,-0.366211 0.199218,-0.4921875 0.131836,-0.1230469 0.298829,-0.1875 0.503907,-0.1875 0.202148,0 0.366211,0.064453 0.492187,0.1875 0.131836,0.1259765 0.199219,0.290039 0.199219,0.4921875 0,0.1875 -0.06738,0.3486328 -0.199219,0.4804687 -0.125976,0.1347657 -0.290039,0.1992188 -0.492187,0.1992188 z m 0,0"
         style="fill:#000000;fill-opacity:1;fill-rule:nonzero;stroke:none"
         aria-label=" Fall 1: "
         transform="matrix(1.3333333,0,0,1.3333333,501.05333,176.50667)"
         clip-path="url(#clipPath18)" />
      <text
         id="text18"
         xml:space="preserve"
         transform="matrix(1.3333333,0,0,1.3333333,545.21333,176.50667)"
         clip-path="url(#clipPath19)"><tspan
           style="font-variant:normal;font-weight:normal;font-size:11.04px;font-family:Cambria;writing-mode:lr-tb;fill:#000000;fill-opacity:1;fill-rule:nonzero;stroke:none"
           x="0"
           y="0"
           id="tspan18">Δ</tspan></text>
      <text
         id="text19"
         xml:space="preserve"
         transform="matrix(1.3333333,0,0,1.3333333,554.01333,177.78667)"
         clip-path="url(#clipPath20)"><tspan
           style="font-variant:normal;font-weight:normal;font-size:6.96px;font-family:Cambria;writing-mode:lr-tb;fill:#000000;fill-opacity:1;fill-rule:nonzero;stroke:none"
           x="0"
           y="0"
           id="tspan19">r</tspan></text>
      <text
         id="text20"
         xml:space="preserve"
         transform="matrix(1.3333333,0,0,1.3333333,557.85333,176.50667)"
         clip-path="url(#clipPath21)"><tspan
           style="font-variant:normal;font-weight:normal;font-size:11.04px;font-family:Cambria;writing-mode:lr-tb;fill:#000000;fill-opacity:1;fill-rule:nonzero;stroke:none"
           x="0 7.5844798 13.55712 19.673281 22.102079 28.196159 34.312321 40.439522"
           y="0"
           sodipodi:role="line"
           id="tspan20">H&lt;0 und </tspan></text>
      <text
         id="text21"
         xml:space="preserve"
         transform="matrix(1.3333333,0,0,1.3333333,615.01333,176.50667)"
         clip-path="url(#clipPath22)"><tspan
           style="font-variant:normal;font-weight:normal;font-size:11.04px;font-family:Cambria;writing-mode:lr-tb;fill:#000000;fill-opacity:1;fill-rule:nonzero;stroke:none"
           x="0"
           y="0"
           id="tspan21">Δ</tspan></text>
      <text
         id="text22"
         xml:space="preserve"
         transform="matrix(1.3333333,0,0,1.3333333,623.81333,177.78667)"
         clip-path="url(#clipPath23)"><tspan
           style="font-variant:normal;font-weight:normal;font-size:6.96px;font-family:Cambria;writing-mode:lr-tb;fill:#000000;fill-opacity:1;fill-rule:nonzero;stroke:none"
           x="0"
           y="0"
           id="tspan22">r</tspan></text>
      <text
         id="text23"
         xml:space="preserve"
         transform="matrix(1.3333333,0,0,1.3333333,627.65333,176.50667)"
         clip-path="url(#clipPath24)"><tspan
           style="font-variant:normal;font-weight:normal;font-size:11.04px;font-family:Cambria;writing-mode:lr-tb;fill:#000000;fill-opacity:1;fill-rule:nonzero;stroke:none"
           x="0 5.39856 11.51472"
           y="0"
           sodipodi:role="line"
           id="tspan23">S&gt;0</tspan></text>
    </g>
    <g
       id="g24">
      <text
         id="text24"
         xml:space="preserve"
         transform="matrix(1.3333333,0,0,1.3333333,501.05333,206.74667)"
         clip-path="url(#clipPath25)"><tspan
           style="font-variant:normal;font-weight:normal;font-size:11.04px;font-family:Cambria;writing-mode:lr-tb;fill:#000000;fill-opacity:1;fill-rule:nonzero;stroke:none"
           x="0 3.5769601 12.71808 21.947519 27.335039 31.9056 34.3344 39.589439 44.63472 50.02224 54.471359 59.869919 65.732162 71.892479 74.873283 79.554237 84.467041 90.561119"
           y="0"
           sodipodi:role="line"
           id="tspan24">Immer exergonisch </tspan></text>
      <text
         id="text25"
         xml:space="preserve"
         transform="matrix(1.3333333,0,0,1.3333333,501.05333,225.46667)"
         clip-path="url(#clipPath26)"><tspan
           style="font-variant:normal;font-weight:normal;font-size:11.04px;font-family:Cambria;writing-mode:lr-tb;fill:#000000;fill-opacity:1;fill-rule:nonzero;stroke:none"
           x="0 4.2172799 10.34448 12.60768 18.701759 20.98704 23.41584 29.631359 35.029919 40.417439 43.409279 45.838081 54.228481 59.616001 62.50848 67.42128 73.416 78.80352 83.605919 85.891197 92.482079"
           y="0"
           sodipodi:role="line"
           id="tspan25">(d.h. Egal welches T)</tspan></text>
    </g>
    <g
       id="g26">
      <text
         id="text26"
         xml:space="preserve"
         transform="matrix(1.3333333,0,0,1.3333333,501.05333,254.42667)"
         clip-path="url(#clipPath27)"><tspan
           style="font-variant:normal;font-weight:normal;font-size:11.04px;font-family:Cambria;writing-mode:lr-tb;fill:#000000;fill-opacity:1;fill-rule:nonzero;stroke:none"
           x="0 6.74544 11.49264 17.63088 19.894079 22.80864 25.204321 31.08864 36.476158 41.046719 47.052479 51.369122 56.756641 62.916962 69.01104 75.105118 81.265442 86.652962 89.081757 94.458237 100.32048 106.4808"
           y="0"
           sodipodi:role="line"
           id="tspan26">Bsp.: Verbrennung von </tspan></text>
      <text
         id="text27"
         xml:space="preserve"
         transform="matrix(1.3333333,0,0,1.3333333,501.05333,272.98667)"
         clip-path="url(#clipPath28)"><tspan
           style="font-variant:normal;font-weight:normal;font-size:11.04px;font-family:Cambria;writing-mode:lr-tb;fill:#000000;fill-opacity:1;fill-rule:nonzero;stroke:none"
           x="0 6.7233601 12.5856 18.712799 21.704639 26.9928 32.987518 41.388962 46.66608 51.347038 56.138401 61.525921 65.975037 70.766403 74.36544 80.227676 83.5728 86.73024 92.11776"
           y="0"
           sodipodi:role="line"
           id="tspan27">Kohlenwasserstoffen</tspan></text>
    </g>
  </g>
</svg>
