<svg width="2622" height="1573" xmlns="http://www.w3.org/2000/svg" xmlns:xlink="http://www.w3.org/1999/xlink" xml:space="preserve" overflow="hidden"><defs><clipPath id="clip0"><rect x="955" y="349" width="2622" height="1573"/></clipPath></defs><g clip-path="url(#clip0)" transform="translate(-955 -349)"><g><path d="M1162.5 1632.55 3493.5 1632.55M1162.5 1549.55 3493.5 1549.55M1162.5 1465.55 3493.5 1465.55M1162.5 1381.55 3493.5 1381.55M1162.5 1297.54 3493.5 1297.54M1162.5 1213.54 3493.5 1213.54M1162.5 1129.54 3493.5 1129.54M1162.5 1045.53 3493.5 1045.53M1162.5 961.532 3493.5 961.532M1162.5 877.529 3493.5 877.529M1162.5 793.526 3493.5 793.526M1162.5 709.523 3493.5 709.523M1162.5 625.521 3493.5 625.521M1162.5 542.5 3493.5 542.5" stroke="#D9D9D9" stroke-width="3.4375" stroke-linejoin="round" stroke-miterlimit="10" fill="none"/></g><g><path d="M1308.54 542.5 1308.54 1716.5M1453.55 542.5 1453.55 1716.5M1599.55 542.5 1599.55 1716.5M1745.56 542.5 1745.56 1716.5M1890.56 542.5 1890.56 1716.5M2036.57 542.5 2036.57 1716.5M2182.57 542.5 2182.57 1716.5M2327.58 542.5 2327.58 1716.5M2473.58 542.5 2473.58 1716.5M2619.59 542.5 2619.59 1716.5M2765.59 542.5 2765.59 1716.5M2910.6 542.5 2910.6 1716.5M3056.6 542.5 3056.6 1716.5M3202.61 542.5 3202.61 1716.5M3347.61 542.5 3347.61 1716.5M3493.5 542.5 3493.5 1716.5" stroke="#D9D9D9" stroke-width="3.4375" stroke-linejoin="round" stroke-miterlimit="10" fill="none"/></g><g><path d="M0 0 0.000360892 1174" stroke="#BFBFBF" stroke-width="3.4375" stroke-linejoin="round" stroke-miterlimit="10" fill="none" fill-rule="evenodd" transform="matrix(1 0 0 -1 1162.5 1716.5)"/></g><g><path d="M1162.5 1716.5 3493.5 1716.5" stroke="#BFBFBF" stroke-width="3.4375" stroke-linejoin="round" stroke-miterlimit="10" fill="none" fill-rule="evenodd"/></g><g><path d="M1168.51 1556.64C1168.51 1560.51 1165.38 1563.64 1161.51 1563.64 1157.65 1563.64 1154.51 1560.51 1154.51 1556.64 1154.51 1552.78 1157.65 1549.64 1161.51 1549.64 1165.38 1549.64 1168.51 1552.78 1168.51 1556.64Z" fill="#156082"/><path d="M1176.51 1556.64C1176.51 1560.51 1173.38 1563.64 1169.51 1563.64 1165.65 1563.64 1162.51 1560.51 1162.51 1556.64 1162.51 1552.78 1165.65 1549.64 1169.51 1549.64 1173.38 1549.64 1176.51 1552.78 1176.51 1556.64Z" fill="#156082"/><path d="M1183.51 1556.64C1183.51 1560.51 1180.38 1563.64 1176.51 1563.64 1172.65 1563.64 1169.51 1560.51 1169.51 1556.64 1169.51 1552.78 1172.65 1549.64 1176.51 1549.64 1180.38 1549.64 1183.51 1552.78 1183.51 1556.64Z" fill="#156082"/><path d="M1190.51 1556.64C1190.51 1560.51 1187.38 1563.64 1183.51 1563.64 1179.65 1563.64 1176.51 1560.51 1176.51 1556.64 1176.51 1552.78 1179.65 1549.64 1183.51 1549.64 1187.38 1549.64 1190.51 1552.78 1190.51 1556.64Z" fill="#156082"/><path d="M1198.51 1556.64C1198.51 1560.51 1195.38 1563.64 1191.51 1563.64 1187.65 1563.64 1184.51 1560.51 1184.51 1556.64 1184.51 1552.78 1187.65 1549.64 1191.51 1549.64 1195.38 1549.64 1198.51 1552.78 1198.51 1556.64Z" fill="#156082"/><path d="M1205.51 1548.64C1205.51 1552.51 1202.38 1555.64 1198.51 1555.64 1194.65 1555.64 1191.51 1552.51 1191.51 1548.64 1191.51 1544.78 1194.65 1541.64 1198.51 1541.64 1202.38 1541.64 1205.51 1544.78 1205.51 1548.64Z" fill="#156082"/><path d="M1212.51 1548.64C1212.51 1552.51 1209.38 1555.64 1205.51 1555.64 1201.65 1555.64 1198.51 1552.51 1198.51 1548.64 1198.51 1544.78 1201.65 1541.64 1205.51 1541.64 1209.38 1541.64 1212.51 1544.78 1212.51 1548.64Z" fill="#156082"/><path d="M1219.51 1548.64C1219.51 1552.51 1216.38 1555.64 1212.51 1555.64 1208.65 1555.64 1205.51 1552.51 1205.51 1548.64 1205.51 1544.78 1208.65 1541.64 1212.51 1541.64 1216.38 1541.64 1219.51 1544.78 1219.51 1548.64Z" fill="#156082"/><path d="M1227.51 1548.64C1227.51 1552.51 1224.38 1555.64 1220.51 1555.64 1216.65 1555.64 1213.51 1552.51 1213.51 1548.64 1213.51 1544.78 1216.65 1541.64 1220.51 1541.64 1224.38 1541.64 1227.51 1544.78 1227.51 1548.64Z" fill="#156082"/><path d="M1234.51 1548.64C1234.51 1552.51 1231.38 1555.64 1227.51 1555.64 1223.65 1555.64 1220.51 1552.51 1220.51 1548.64 1220.51 1544.78 1223.65 1541.64 1227.51 1541.64 1231.38 1541.64 1234.51 1544.78 1234.51 1548.64Z" fill="#156082"/><path d="M1241.51 1548.64C1241.51 1552.51 1238.38 1555.64 1234.51 1555.64 1230.65 1555.64 1227.51 1552.51 1227.51 1548.64 1227.51 1544.78 1230.65 1541.64 1234.51 1541.64 1238.38 1541.64 1241.51 1544.78 1241.51 1548.64Z" fill="#156082"/><path d="M1249.51 1548.64C1249.51 1552.51 1246.38 1555.64 1242.51 1555.64 1238.65 1555.64 1235.51 1552.51 1235.51 1548.64 1235.51 1544.78 1238.65 1541.64 1242.51 1541.64 1246.38 1541.64 1249.51 1544.78 1249.51 1548.64Z" fill="#156082"/><path d="M1256.51 1548.64C1256.51 1552.51 1253.38 1555.64 1249.51 1555.64 1245.65 1555.64 1242.51 1552.51 1242.51 1548.64 1242.51 1544.78 1245.65 1541.64 1249.51 1541.64 1253.38 1541.64 1256.51 1544.78 1256.51 1548.64Z" fill="#156082"/><path d="M1263.51 1548.64C1263.51 1552.51 1260.38 1555.64 1256.51 1555.64 1252.65 1555.64 1249.51 1552.51 1249.51 1548.64 1249.51 1544.78 1252.65 1541.64 1256.51 1541.64 1260.38 1541.64 1263.51 1544.78 1263.51 1548.64Z" fill="#156082"/><path d="M1270.51 1548.64C1270.51 1552.51 1267.38 1555.64 1263.51 1555.64 1259.65 1555.64 1256.51 1552.51 1256.51 1548.64 1256.51 1544.78 1259.65 1541.64 1263.51 1541.64 1267.38 1541.64 1270.51 1544.78 1270.51 1548.64Z" fill="#156082"/><path d="M1278.51 1548.64C1278.51 1552.51 1275.38 1555.64 1271.51 1555.64 1267.65 1555.64 1264.51 1552.51 1264.51 1548.64 1264.51 1544.78 1267.65 1541.64 1271.51 1541.64 1275.38 1541.64 1278.51 1544.78 1278.51 1548.64Z" fill="#156082"/><path d="M1285.51 1548.64C1285.51 1552.51 1282.38 1555.64 1278.51 1555.64 1274.65 1555.64 1271.51 1552.51 1271.51 1548.64 1271.51 1544.78 1274.65 1541.64 1278.51 1541.64 1282.38 1541.64 1285.51 1544.78 1285.51 1548.64Z" fill="#156082"/><path d="M1292.51 1548.64C1292.51 1552.51 1289.38 1555.64 1285.51 1555.64 1281.65 1555.64 1278.51 1552.51 1278.51 1548.64 1278.51 1544.78 1281.65 1541.64 1285.51 1541.64 1289.38 1541.64 1292.51 1544.78 1292.51 1548.64Z" fill="#156082"/><path d="M1300.51 1548.64C1300.51 1552.51 1297.38 1555.64 1293.51 1555.64 1289.65 1555.64 1286.51 1552.51 1286.51 1548.64 1286.51 1544.78 1289.65 1541.64 1293.51 1541.64 1297.38 1541.64 1300.51 1544.78 1300.51 1548.64Z" fill="#156082"/><path d="M1307.51 1548.64C1307.51 1552.51 1304.38 1555.64 1300.51 1555.64 1296.65 1555.64 1293.51 1552.51 1293.51 1548.64 1293.51 1544.78 1296.65 1541.64 1300.51 1541.64 1304.38 1541.64 1307.51 1544.78 1307.51 1548.64Z" fill="#156082"/><path d="M1314.51 1548.64C1314.51 1552.51 1311.38 1555.64 1307.51 1555.64 1303.65 1555.64 1300.51 1552.51 1300.51 1548.64 1300.51 1544.78 1303.65 1541.64 1307.51 1541.64 1311.38 1541.64 1314.51 1544.78 1314.51 1548.64Z" fill="#156082"/><path d="M1321.51 1548.64C1321.51 1552.51 1318.38 1555.64 1314.51 1555.64 1310.65 1555.64 1307.51 1552.51 1307.51 1548.64 1307.51 1544.78 1310.65 1541.64 1314.51 1541.64 1318.38 1541.64 1321.51 1544.78 1321.51 1548.64Z" fill="#156082"/><path d="M1329.51 1548.64C1329.51 1552.51 1326.38 1555.64 1322.51 1555.64 1318.65 1555.64 1315.51 1552.51 1315.51 1548.64 1315.51 1544.78 1318.65 1541.64 1322.51 1541.64 1326.38 1541.64 1329.51 1544.78 1329.51 1548.64Z" fill="#156082"/><path d="M1336.51 1548.64C1336.51 1552.51 1333.38 1555.64 1329.51 1555.64 1325.65 1555.64 1322.51 1552.51 1322.51 1548.64 1322.51 1544.78 1325.65 1541.64 1329.51 1541.64 1333.38 1541.64 1336.51 1544.78 1336.51 1548.64Z" fill="#156082"/><path d="M1343.51 1548.64C1343.51 1552.51 1340.38 1555.64 1336.51 1555.64 1332.65 1555.64 1329.51 1552.51 1329.51 1548.64 1329.51 1544.78 1332.65 1541.64 1336.51 1541.64 1340.38 1541.64 1343.51 1544.78 1343.51 1548.64Z" fill="#156082"/><path d="M1358.51 1548.64C1358.51 1552.51 1355.38 1555.64 1351.51 1555.64 1347.65 1555.64 1344.51 1552.51 1344.51 1548.64 1344.51 1544.78 1347.65 1541.64 1351.51 1541.64 1355.38 1541.64 1358.51 1544.78 1358.51 1548.64Z" fill="#156082"/><path d="M1372.51 1540.64C1372.51 1544.51 1369.38 1547.64 1365.51 1547.64 1361.65 1547.64 1358.51 1544.51 1358.51 1540.64 1358.51 1536.78 1361.65 1533.64 1365.51 1533.64 1369.38 1533.64 1372.51 1536.78 1372.51 1540.64Z" fill="#156082"/><path d="M1387.51 1540.64C1387.51 1544.51 1384.38 1547.64 1380.51 1547.64 1376.65 1547.64 1373.51 1544.51 1373.51 1540.64 1373.51 1536.78 1376.65 1533.64 1380.51 1533.64 1384.38 1533.64 1387.51 1536.78 1387.51 1540.64Z" fill="#156082"/><path d="M1401.51 1540.64C1401.51 1544.51 1398.38 1547.64 1394.51 1547.64 1390.65 1547.64 1387.51 1544.51 1387.51 1540.64 1387.51 1536.78 1390.65 1533.64 1394.51 1533.64 1398.38 1533.64 1401.51 1536.78 1401.51 1540.64Z" fill="#156082"/><path d="M1416.51 1540.64C1416.51 1544.51 1413.38 1547.64 1409.51 1547.64 1405.65 1547.64 1402.51 1544.51 1402.51 1540.64 1402.51 1536.78 1405.65 1533.64 1409.51 1533.64 1413.38 1533.64 1416.51 1536.78 1416.51 1540.64Z" fill="#156082"/><path d="M1431.51 1540.64C1431.51 1544.51 1428.38 1547.64 1424.51 1547.64 1420.65 1547.64 1417.51 1544.51 1417.51 1540.64 1417.51 1536.78 1420.65 1533.64 1424.51 1533.64 1428.38 1533.64 1431.51 1536.78 1431.51 1540.64Z" fill="#156082"/><path d="M1445.51 1540.64C1445.51 1544.51 1442.38 1547.64 1438.51 1547.64 1434.65 1547.64 1431.51 1544.51 1431.51 1540.64 1431.51 1536.78 1434.65 1533.64 1438.51 1533.64 1442.38 1533.64 1445.51 1536.78 1445.51 1540.64Z" fill="#156082"/><path d="M1460.51 1540.64C1460.51 1544.51 1457.38 1547.64 1453.51 1547.64 1449.65 1547.64 1446.51 1544.51 1446.51 1540.64 1446.51 1536.78 1449.65 1533.64 1453.51 1533.64 1457.38 1533.64 1460.51 1536.78 1460.51 1540.64Z" fill="#156082"/><path d="M1474.51 1531.64C1474.51 1535.51 1471.38 1538.64 1467.51 1538.64 1463.65 1538.64 1460.51 1535.51 1460.51 1531.64 1460.51 1527.78 1463.65 1524.64 1467.51 1524.64 1471.38 1524.64 1474.51 1527.78 1474.51 1531.64Z" fill="#156082"/><path d="M1489.51 1531.64C1489.51 1535.51 1486.38 1538.64 1482.51 1538.64 1478.65 1538.64 1475.51 1535.51 1475.51 1531.64 1475.51 1527.78 1478.65 1524.64 1482.51 1524.64 1486.38 1524.64 1489.51 1527.78 1489.51 1531.64Z" fill="#156082"/><path d="M1503.51 1531.64C1503.51 1535.51 1500.38 1538.64 1496.51 1538.64 1492.65 1538.64 1489.51 1535.51 1489.51 1531.64 1489.51 1527.78 1492.65 1524.64 1496.51 1524.64 1500.38 1524.64 1503.51 1527.78 1503.51 1531.64Z" fill="#156082"/><path d="M1518.51 1531.64C1518.51 1535.51 1515.38 1538.64 1511.51 1538.64 1507.65 1538.64 1504.51 1535.51 1504.51 1531.64 1504.51 1527.78 1507.65 1524.64 1511.51 1524.64 1515.38 1524.64 1518.51 1527.78 1518.51 1531.64Z" fill="#156082"/><path d="M1533.51 1531.64C1533.51 1535.51 1530.38 1538.64 1526.51 1538.64 1522.65 1538.64 1519.51 1535.51 1519.51 1531.64 1519.51 1527.78 1522.65 1524.64 1526.51 1524.64 1530.38 1524.64 1533.51 1527.78 1533.51 1531.64Z" fill="#156082"/><path d="M1547.51 1531.64C1547.51 1535.51 1544.38 1538.64 1540.51 1538.64 1536.65 1538.64 1533.51 1535.51 1533.51 1531.64 1533.51 1527.78 1536.65 1524.64 1540.51 1524.64 1544.38 1524.64 1547.51 1527.78 1547.51 1531.64Z" fill="#156082"/><path d="M1562.51 1531.64C1562.51 1535.51 1559.38 1538.64 1555.51 1538.64 1551.65 1538.64 1548.51 1535.51 1548.51 1531.64 1548.51 1527.78 1551.65 1524.64 1555.51 1524.64 1559.38 1524.64 1562.51 1527.78 1562.51 1531.64Z" fill="#156082"/><path d="M1576.51 1531.64C1576.51 1535.51 1573.38 1538.64 1569.51 1538.64 1565.65 1538.64 1562.51 1535.51 1562.51 1531.64 1562.51 1527.78 1565.65 1524.64 1569.51 1524.64 1573.38 1524.64 1576.51 1527.78 1576.51 1531.64Z" fill="#156082"/><path d="M1591.51 1523.64C1591.51 1527.51 1588.38 1530.64 1584.51 1530.64 1580.65 1530.64 1577.51 1527.51 1577.51 1523.64 1577.51 1519.78 1580.65 1516.64 1584.51 1516.64 1588.38 1516.64 1591.51 1519.78 1591.51 1523.64Z" fill="#156082"/><path d="M1605.51 1523.64C1605.51 1527.51 1602.38 1530.64 1598.51 1530.64 1594.65 1530.64 1591.51 1527.51 1591.51 1523.64 1591.51 1519.78 1594.65 1516.64 1598.51 1516.64 1602.38 1516.64 1605.51 1519.78 1605.51 1523.64Z" fill="#156082"/><path d="M1620.51 1523.64C1620.51 1527.51 1617.38 1530.64 1613.51 1530.64 1609.65 1530.64 1606.51 1527.51 1606.51 1523.64 1606.51 1519.78 1609.65 1516.64 1613.51 1516.64 1617.38 1516.64 1620.51 1519.78 1620.51 1523.64Z" fill="#156082"/><path d="M1635.51 1523.64C1635.51 1527.51 1632.38 1530.64 1628.51 1530.64 1624.65 1530.64 1621.51 1527.51 1621.51 1523.64 1621.51 1519.78 1624.65 1516.64 1628.51 1516.64 1632.38 1516.64 1635.51 1519.78 1635.51 1523.64Z" fill="#156082"/><path d="M1649.51 1523.64C1649.51 1527.51 1646.38 1530.64 1642.51 1530.64 1638.65 1530.64 1635.51 1527.51 1635.51 1523.64 1635.51 1519.78 1638.65 1516.64 1642.51 1516.64 1646.38 1516.64 1649.51 1519.78 1649.51 1523.64Z" fill="#156082"/><path d="M1664.51 1515.64C1664.51 1519.51 1661.38 1522.64 1657.51 1522.64 1653.65 1522.64 1650.51 1519.51 1650.51 1515.64 1650.51 1511.78 1653.65 1508.64 1657.51 1508.64 1661.38 1508.64 1664.51 1511.78 1664.51 1515.64Z" fill="#156082"/><path d="M1678.51 1515.64C1678.51 1519.51 1675.38 1522.64 1671.51 1522.64 1667.65 1522.64 1664.51 1519.51 1664.51 1515.64 1664.51 1511.78 1667.65 1508.64 1671.51 1508.64 1675.38 1508.64 1678.51 1511.78 1678.51 1515.64Z" fill="#156082"/><path d="M1693.51 1515.64C1693.51 1519.51 1690.38 1522.64 1686.51 1522.64 1682.65 1522.64 1679.51 1519.51 1679.51 1515.64 1679.51 1511.78 1682.65 1508.64 1686.51 1508.64 1690.38 1508.64 1693.51 1511.78 1693.51 1515.64Z" fill="#156082"/><path d="M1707.51 1515.64C1707.51 1519.51 1704.38 1522.64 1700.51 1522.64 1696.65 1522.64 1693.51 1519.51 1693.51 1515.64 1693.51 1511.78 1696.65 1508.64 1700.51 1508.64 1704.38 1508.64 1707.51 1511.78 1707.51 1515.64Z" fill="#156082"/><path d="M1722.51 1506.64C1722.51 1510.51 1719.38 1513.64 1715.51 1513.64 1711.65 1513.64 1708.51 1510.51 1708.51 1506.64 1708.51 1502.78 1711.65 1499.64 1715.51 1499.64 1719.38 1499.64 1722.51 1502.78 1722.51 1506.64Z" fill="#156082"/><path d="M1737.51 1506.64C1737.51 1510.51 1734.38 1513.64 1730.51 1513.64 1726.65 1513.64 1723.51 1510.51 1723.51 1506.64 1723.51 1502.78 1726.65 1499.64 1730.51 1499.64 1734.38 1499.64 1737.51 1502.78 1737.51 1506.64Z" fill="#156082"/><path d="M1751.51 1506.64C1751.51 1510.51 1748.38 1513.64 1744.51 1513.64 1740.65 1513.64 1737.51 1510.51 1737.51 1506.64 1737.51 1502.78 1740.65 1499.64 1744.51 1499.64 1748.38 1499.64 1751.51 1502.78 1751.51 1506.64Z" fill="#156082"/><path d="M1766.51 1498.64C1766.51 1502.51 1763.38 1505.64 1759.51 1505.64 1755.65 1505.64 1752.51 1502.51 1752.51 1498.64 1752.51 1494.78 1755.65 1491.64 1759.51 1491.64 1763.38 1491.64 1766.51 1494.78 1766.51 1498.64Z" fill="#156082"/><path d="M1780.51 1498.64C1780.51 1502.51 1777.38 1505.64 1773.51 1505.64 1769.65 1505.64 1766.51 1502.51 1766.51 1498.64 1766.51 1494.78 1769.65 1491.64 1773.51 1491.64 1777.38 1491.64 1780.51 1494.78 1780.51 1498.64Z" fill="#156082"/><path d="M1795.51 1498.64C1795.51 1502.51 1792.38 1505.64 1788.51 1505.64 1784.65 1505.64 1781.51 1502.51 1781.51 1498.64 1781.51 1494.78 1784.65 1491.64 1788.51 1491.64 1792.38 1491.64 1795.51 1494.78 1795.51 1498.64Z" fill="#156082"/><path d="M1809.51 1489.64C1809.51 1493.51 1806.38 1496.64 1802.51 1496.64 1798.65 1496.64 1795.51 1493.51 1795.51 1489.64 1795.51 1485.78 1798.65 1482.64 1802.51 1482.64 1806.38 1482.64 1809.51 1485.78 1809.51 1489.64Z" fill="#156082"/><path d="M1824.51 1489.64C1824.51 1493.51 1821.38 1496.64 1817.51 1496.64 1813.65 1496.64 1810.51 1493.51 1810.51 1489.64 1810.51 1485.78 1813.65 1482.64 1817.51 1482.64 1821.38 1482.64 1824.51 1485.78 1824.51 1489.64Z" fill="#156082"/><path d="M1839.51 1489.64C1839.51 1493.51 1836.38 1496.64 1832.51 1496.64 1828.65 1496.64 1825.51 1493.51 1825.51 1489.64 1825.51 1485.78 1828.65 1482.64 1832.51 1482.64 1836.38 1482.64 1839.51 1485.78 1839.51 1489.64Z" fill="#156082"/><path d="M1853.51 1481.64C1853.51 1485.51 1850.38 1488.64 1846.51 1488.64 1842.65 1488.64 1839.51 1485.51 1839.51 1481.64 1839.51 1477.78 1842.65 1474.64 1846.51 1474.64 1850.38 1474.64 1853.51 1477.78 1853.51 1481.64Z" fill="#156082"/><path d="M1868.51 1481.64C1868.51 1485.51 1865.38 1488.64 1861.51 1488.64 1857.65 1488.64 1854.51 1485.51 1854.51 1481.64 1854.51 1477.78 1857.65 1474.64 1861.51 1474.64 1865.38 1474.64 1868.51 1477.78 1868.51 1481.64Z" fill="#156082"/><path d="M1882.51 1473.64C1882.51 1477.51 1879.38 1480.64 1875.51 1480.64 1871.65 1480.64 1868.51 1477.51 1868.51 1473.64 1868.51 1469.78 1871.65 1466.64 1875.51 1466.64 1879.38 1466.64 1882.51 1469.78 1882.51 1473.64Z" fill="#156082"/><path d="M1897.51 1473.64C1897.51 1477.51 1894.38 1480.64 1890.51 1480.64 1886.65 1480.64 1883.51 1477.51 1883.51 1473.64 1883.51 1469.78 1886.65 1466.64 1890.51 1466.64 1894.38 1466.64 1897.51 1469.78 1897.51 1473.64Z" fill="#156082"/><path d="M1911.51 1464.64C1911.51 1468.51 1908.38 1471.64 1904.51 1471.64 1900.65 1471.64 1897.51 1468.51 1897.51 1464.64 1897.51 1460.78 1900.65 1457.64 1904.51 1457.64 1908.38 1457.64 1911.51 1460.78 1911.51 1464.64Z" fill="#156082"/><path d="M1926.51 1456.64C1926.51 1460.51 1923.38 1463.64 1919.51 1463.64 1915.65 1463.64 1912.51 1460.51 1912.51 1456.64 1912.51 1452.78 1915.65 1449.64 1919.51 1449.64 1923.38 1449.64 1926.51 1452.78 1926.51 1456.64Z" fill="#156082"/><path d="M1933.51 1456.64C1933.51 1460.51 1930.38 1463.64 1926.51 1463.64 1922.65 1463.64 1919.51 1460.51 1919.51 1456.64 1919.51 1452.78 1922.65 1449.64 1926.51 1449.64 1930.38 1449.64 1933.51 1452.78 1933.51 1456.64Z" fill="#156082"/><path d="M1941.51 1447.64C1941.51 1451.51 1938.38 1454.64 1934.51 1454.64 1930.65 1454.64 1927.51 1451.51 1927.51 1447.64 1927.51 1443.78 1930.65 1440.64 1934.51 1440.64 1938.38 1440.64 1941.51 1443.78 1941.51 1447.64Z" fill="#156082"/><path d="M1948.51 1447.64C1948.51 1451.51 1945.38 1454.64 1941.51 1454.64 1937.65 1454.64 1934.51 1451.51 1934.51 1447.64 1934.51 1443.78 1937.65 1440.64 1941.51 1440.64 1945.38 1440.64 1948.51 1443.78 1948.51 1447.64Z" fill="#156082"/><path d="M1955.51 1439.64C1955.51 1443.51 1952.38 1446.64 1948.51 1446.64 1944.65 1446.64 1941.51 1443.51 1941.51 1439.64 1941.51 1435.78 1944.65 1432.64 1948.51 1432.64 1952.38 1432.64 1955.51 1435.78 1955.51 1439.64Z" fill="#156082"/><path d="M1962.51 1439.64C1962.51 1443.51 1959.38 1446.64 1955.51 1446.64 1951.65 1446.64 1948.51 1443.51 1948.51 1439.64 1948.51 1435.78 1951.65 1432.64 1955.51 1432.64 1959.38 1432.64 1962.51 1435.78 1962.51 1439.64Z" fill="#156082"/><path d="M1970.51 1431.64C1970.51 1435.51 1967.38 1438.64 1963.51 1438.64 1959.65 1438.64 1956.51 1435.51 1956.51 1431.64 1956.51 1427.78 1959.65 1424.64 1963.51 1424.64 1967.38 1424.64 1970.51 1427.78 1970.51 1431.64Z" fill="#156082"/><path d="M1977.51 1422.64C1977.51 1426.51 1974.38 1429.64 1970.51 1429.64 1966.65 1429.64 1963.51 1426.51 1963.51 1422.64 1963.51 1418.78 1966.65 1415.64 1970.51 1415.64 1974.38 1415.64 1977.51 1418.78 1977.51 1422.64Z" fill="#156082"/><path d="M1984.51 1414.64C1984.51 1418.51 1981.38 1421.64 1977.51 1421.64 1973.65 1421.64 1970.51 1418.51 1970.51 1414.64 1970.51 1410.78 1973.65 1407.64 1977.51 1407.64 1981.38 1407.64 1984.51 1410.78 1984.51 1414.64Z" fill="#156082"/><path d="M1992.51 1397.64C1992.51 1401.51 1989.38 1404.64 1985.51 1404.64 1981.65 1404.64 1978.51 1401.51 1978.51 1397.64 1978.51 1393.78 1981.65 1390.64 1985.51 1390.64 1989.38 1390.64 1992.51 1393.78 1992.51 1397.64Z" fill="#156082"/><path d="M1999.51 1372.64C1999.51 1376.51 1996.38 1379.64 1992.51 1379.64 1988.65 1379.64 1985.51 1376.51 1985.51 1372.64 1985.51 1368.78 1988.65 1365.64 1992.51 1365.64 1996.38 1365.64 1999.51 1368.78 1999.51 1372.64Z" fill="#156082"/><path d="M2006.51 1347.64C2006.51 1351.51 2003.38 1354.64 1999.51 1354.64 1995.65 1354.64 1992.51 1351.51 1992.51 1347.64 1992.51 1343.78 1995.65 1340.64 1999.51 1340.64 2003.38 1340.64 2006.51 1343.78 2006.51 1347.64Z" fill="#156082"/><path d="M2013.51 1305.64C2013.51 1309.51 2010.38 1312.64 2006.51 1312.64 2002.65 1312.64 1999.51 1309.51 1999.51 1305.64 1999.51 1301.78 2002.65 1298.64 2006.51 1298.64 2010.38 1298.64 2013.51 1301.78 2013.51 1305.64Z" fill="#156082"/><path d="M2021.51 1288.64C2021.51 1292.51 2018.38 1295.64 2014.51 1295.64 2010.65 1295.64 2007.51 1292.51 2007.51 1288.64 2007.51 1284.78 2010.65 1281.64 2014.51 1281.64 2018.38 1281.64 2021.51 1284.78 2021.51 1288.64Z" fill="#156082"/><path d="M2028.51 1271.64C2028.51 1275.51 2025.38 1278.64 2021.51 1278.64 2017.65 1278.64 2014.51 1275.51 2014.51 1271.64 2014.51 1267.78 2017.65 1264.64 2021.51 1264.64 2025.38 1264.64 2028.51 1267.78 2028.51 1271.64Z" fill="#156082"/><path d="M2035.51 1263.64C2035.51 1267.51 2032.38 1270.64 2028.51 1270.64 2024.65 1270.64 2021.51 1267.51 2021.51 1263.64 2021.51 1259.78 2024.65 1256.64 2028.51 1256.64 2032.38 1256.64 2035.51 1259.78 2035.51 1263.64Z" fill="#156082"/><path d="M2043.51 1254.64C2043.51 1258.51 2040.38 1261.64 2036.51 1261.64 2032.65 1261.64 2029.51 1258.51 2029.51 1254.64 2029.51 1250.78 2032.65 1247.64 2036.51 1247.64 2040.38 1247.64 2043.51 1250.78 2043.51 1254.64Z" fill="#156082"/><path d="M2050.51 1246.64C2050.51 1250.51 2047.38 1253.64 2043.51 1253.64 2039.65 1253.64 2036.51 1250.51 2036.51 1246.64 2036.51 1242.78 2039.65 1239.64 2043.51 1239.64 2047.38 1239.64 2050.51 1242.78 2050.51 1246.64Z" fill="#156082"/><path d="M2057.51 1238.64C2057.51 1242.51 2054.38 1245.64 2050.51 1245.64 2046.65 1245.64 2043.51 1242.51 2043.51 1238.64 2043.51 1234.78 2046.65 1231.64 2050.51 1231.64 2054.38 1231.64 2057.51 1234.78 2057.51 1238.64Z" fill="#156082"/><path d="M2064.51 1238.64C2064.51 1242.51 2061.38 1245.64 2057.51 1245.64 2053.65 1245.64 2050.51 1242.51 2050.51 1238.64 2050.51 1234.78 2053.65 1231.64 2057.51 1231.64 2061.38 1231.64 2064.51 1234.78 2064.51 1238.64Z" fill="#156082"/><path d="M2072.51 1229.64C2072.51 1233.51 2069.38 1236.64 2065.51 1236.64 2061.65 1236.64 2058.51 1233.51 2058.51 1229.64 2058.51 1225.78 2061.65 1222.64 2065.51 1222.64 2069.38 1222.64 2072.51 1225.78 2072.51 1229.64Z" fill="#156082"/><path d="M2079.51 1221.64C2079.51 1225.51 2076.38 1228.64 2072.51 1228.64 2068.65 1228.64 2065.51 1225.51 2065.51 1221.64 2065.51 1217.78 2068.65 1214.64 2072.51 1214.64 2076.38 1214.64 2079.51 1217.78 2079.51 1221.64Z" fill="#156082"/><path d="M2086.51 1221.64C2086.51 1225.51 2083.38 1228.64 2079.51 1228.64 2075.65 1228.64 2072.51 1225.51 2072.51 1221.64 2072.51 1217.78 2075.65 1214.64 2079.51 1214.64 2083.38 1214.64 2086.51 1217.78 2086.51 1221.64Z" fill="#156082"/><path d="M2094.51 1221.64C2094.51 1225.51 2091.38 1228.64 2087.51 1228.64 2083.65 1228.64 2080.51 1225.51 2080.51 1221.64 2080.51 1217.78 2083.65 1214.64 2087.51 1214.64 2091.38 1214.64 2094.51 1217.78 2094.51 1221.64Z" fill="#156082"/><path d="M2101.51 1212.64C2101.51 1216.51 2098.38 1219.64 2094.51 1219.64 2090.65 1219.64 2087.51 1216.51 2087.51 1212.64 2087.51 1208.78 2090.65 1205.64 2094.51 1205.64 2098.38 1205.64 2101.51 1208.78 2101.51 1212.64Z" fill="#156082"/><path d="M2108.51 1212.64C2108.51 1216.51 2105.38 1219.64 2101.51 1219.64 2097.65 1219.64 2094.51 1216.51 2094.51 1212.64 2094.51 1208.78 2097.65 1205.64 2101.51 1205.64 2105.38 1205.64 2108.51 1208.78 2108.51 1212.64Z" fill="#156082"/><path d="M2115.51 1212.64C2115.51 1216.51 2112.38 1219.64 2108.51 1219.64 2104.65 1219.64 2101.51 1216.51 2101.51 1212.64 2101.51 1208.78 2104.65 1205.64 2108.51 1205.64 2112.38 1205.64 2115.51 1208.78 2115.51 1212.64Z" fill="#156082"/><path d="M2123.51 1204.64C2123.51 1208.51 2120.38 1211.64 2116.51 1211.64 2112.65 1211.64 2109.51 1208.51 2109.51 1204.64 2109.51 1200.78 2112.65 1197.64 2116.51 1197.64 2120.38 1197.64 2123.51 1200.78 2123.51 1204.64Z" fill="#156082"/><path d="M2130.51 1204.64C2130.51 1208.51 2127.38 1211.64 2123.51 1211.64 2119.65 1211.64 2116.51 1208.51 2116.51 1204.64 2116.51 1200.78 2119.65 1197.64 2123.51 1197.64 2127.38 1197.64 2130.51 1200.78 2130.51 1204.64Z" fill="#156082"/><path d="M2137.51 1196.64C2137.51 1200.51 2134.38 1203.64 2130.51 1203.64 2126.65 1203.64 2123.51 1200.51 2123.51 1196.64 2123.51 1192.78 2126.65 1189.64 2130.51 1189.64 2134.38 1189.64 2137.51 1192.78 2137.51 1196.64Z" fill="#156082"/><path d="M2145.51 1196.64C2145.51 1200.51 2142.38 1203.64 2138.51 1203.64 2134.65 1203.64 2131.51 1200.51 2131.51 1196.64 2131.51 1192.78 2134.65 1189.64 2138.51 1189.64 2142.38 1189.64 2145.51 1192.78 2145.51 1196.64Z" fill="#156082"/><path d="M2152.51 1196.64C2152.51 1200.51 2149.38 1203.64 2145.51 1203.64 2141.65 1203.64 2138.51 1200.51 2138.51 1196.64 2138.51 1192.78 2141.65 1189.64 2145.51 1189.64 2149.38 1189.64 2152.51 1192.78 2152.51 1196.64Z" fill="#156082"/><path d="M2159.51 1196.64C2159.51 1200.51 2156.38 1203.64 2152.51 1203.64 2148.65 1203.64 2145.51 1200.51 2145.51 1196.64 2145.51 1192.78 2148.65 1189.64 2152.51 1189.64 2156.38 1189.64 2159.51 1192.78 2159.51 1196.64Z" fill="#156082"/><path d="M2166.51 1196.64C2166.51 1200.51 2163.38 1203.64 2159.51 1203.64 2155.65 1203.64 2152.51 1200.51 2152.51 1196.64 2152.51 1192.78 2155.65 1189.64 2159.51 1189.64 2163.38 1189.64 2166.51 1192.78 2166.51 1196.64Z" fill="#156082"/><path d="M2174.51 1187.64C2174.51 1191.51 2171.38 1194.64 2167.51 1194.64 2163.65 1194.64 2160.51 1191.51 2160.51 1187.64 2160.51 1183.78 2163.65 1180.64 2167.51 1180.64 2171.38 1180.64 2174.51 1183.78 2174.51 1187.64Z" fill="#156082"/><path d="M2181.51 1187.64C2181.51 1191.51 2178.38 1194.64 2174.51 1194.64 2170.65 1194.64 2167.51 1191.51 2167.51 1187.64 2167.51 1183.78 2170.65 1180.64 2174.51 1180.64 2178.38 1180.64 2181.51 1183.78 2181.51 1187.64Z" fill="#156082"/><path d="M2188.51 1187.64C2188.51 1191.51 2185.38 1194.64 2181.51 1194.64 2177.65 1194.64 2174.51 1191.51 2174.51 1187.64 2174.51 1183.78 2177.65 1180.64 2181.51 1180.64 2185.38 1180.64 2188.51 1183.78 2188.51 1187.64Z" fill="#156082"/><path d="M2196.51 1187.64C2196.51 1191.51 2193.38 1194.64 2189.51 1194.64 2185.65 1194.64 2182.51 1191.51 2182.51 1187.64 2182.51 1183.78 2185.65 1180.64 2189.51 1180.64 2193.38 1180.64 2196.51 1183.78 2196.51 1187.64Z" fill="#156082"/><path d="M2203.51 1179.64C2203.51 1183.51 2200.38 1186.64 2196.51 1186.64 2192.65 1186.64 2189.51 1183.51 2189.51 1179.64 2189.51 1175.78 2192.65 1172.64 2196.51 1172.64 2200.38 1172.64 2203.51 1175.78 2203.51 1179.64Z" fill="#156082"/><path d="M2210.51 1179.64C2210.51 1183.51 2207.38 1186.64 2203.51 1186.64 2199.65 1186.64 2196.51 1183.51 2196.51 1179.64 2196.51 1175.78 2199.65 1172.64 2203.51 1172.64 2207.38 1172.64 2210.51 1175.78 2210.51 1179.64Z" fill="#156082"/><path d="M2217.51 1179.64C2217.51 1183.51 2214.38 1186.64 2210.51 1186.64 2206.65 1186.64 2203.51 1183.51 2203.51 1179.64 2203.51 1175.78 2206.65 1172.64 2210.51 1172.64 2214.38 1172.64 2217.51 1175.78 2217.51 1179.64Z" fill="#156082"/><path d="M2225.51 1179.64C2225.51 1183.51 2222.38 1186.64 2218.51 1186.64 2214.65 1186.64 2211.51 1183.51 2211.51 1179.64 2211.51 1175.78 2214.65 1172.64 2218.51 1172.64 2222.38 1172.64 2225.51 1175.78 2225.51 1179.64Z" fill="#156082"/><path d="M2232.51 1179.64C2232.51 1183.51 2229.38 1186.64 2225.51 1186.64 2221.65 1186.64 2218.51 1183.51 2218.51 1179.64 2218.51 1175.78 2221.65 1172.64 2225.51 1172.64 2229.38 1172.64 2232.51 1175.78 2232.51 1179.64Z" fill="#156082"/><path d="M2239.51 1179.64C2239.51 1183.51 2236.38 1186.64 2232.51 1186.64 2228.65 1186.64 2225.51 1183.51 2225.51 1179.64 2225.51 1175.78 2228.65 1172.64 2232.51 1172.64 2236.38 1172.64 2239.51 1175.78 2239.51 1179.64Z" fill="#156082"/><path d="M2247.51 1170.64C2247.51 1174.51 2244.38 1177.64 2240.51 1177.64 2236.65 1177.64 2233.51 1174.51 2233.51 1170.64 2233.51 1166.78 2236.65 1163.64 2240.51 1163.64 2244.38 1163.64 2247.51 1166.78 2247.51 1170.64Z" fill="#156082"/><path d="M2254.51 1170.64C2254.51 1174.51 2251.38 1177.64 2247.51 1177.64 2243.65 1177.64 2240.51 1174.51 2240.51 1170.64 2240.51 1166.78 2243.65 1163.64 2247.51 1163.64 2251.38 1163.64 2254.51 1166.78 2254.51 1170.64Z" fill="#156082"/><path d="M2261.51 1170.64C2261.51 1174.51 2258.38 1177.64 2254.51 1177.64 2250.65 1177.64 2247.51 1174.51 2247.51 1170.64 2247.51 1166.78 2250.65 1163.64 2254.51 1163.64 2258.38 1163.64 2261.51 1166.78 2261.51 1170.64Z" fill="#156082"/><path d="M2268.51 1170.64C2268.51 1174.51 2265.38 1177.64 2261.51 1177.64 2257.65 1177.64 2254.51 1174.51 2254.51 1170.64 2254.51 1166.78 2257.65 1163.64 2261.51 1163.64 2265.38 1163.64 2268.51 1166.78 2268.51 1170.64Z" fill="#156082"/><path d="M2276.51 1170.64C2276.51 1174.51 2273.38 1177.64 2269.51 1177.64 2265.65 1177.64 2262.51 1174.51 2262.51 1170.64 2262.51 1166.78 2265.65 1163.64 2269.51 1163.64 2273.38 1163.64 2276.51 1166.78 2276.51 1170.64Z" fill="#156082"/><path d="M2283.51 1162.64C2283.51 1166.51 2280.38 1169.64 2276.51 1169.64 2272.65 1169.64 2269.51 1166.51 2269.51 1162.64 2269.51 1158.78 2272.65 1155.64 2276.51 1155.64 2280.38 1155.64 2283.51 1158.78 2283.51 1162.64Z" fill="#156082"/><path d="M2290.51 1162.64C2290.51 1166.51 2287.38 1169.64 2283.51 1169.64 2279.65 1169.64 2276.51 1166.51 2276.51 1162.64 2276.51 1158.78 2279.65 1155.64 2283.51 1155.64 2287.38 1155.64 2290.51 1158.78 2290.51 1162.64Z" fill="#156082"/><path d="M2298.51 1162.64C2298.51 1166.51 2295.38 1169.64 2291.51 1169.64 2287.65 1169.64 2284.51 1166.51 2284.51 1162.64 2284.51 1158.78 2287.65 1155.64 2291.51 1155.64 2295.38 1155.64 2298.51 1158.78 2298.51 1162.64Z" fill="#156082"/><path d="M2305.51 1162.64C2305.51 1166.51 2302.38 1169.64 2298.51 1169.64 2294.65 1169.64 2291.51 1166.51 2291.51 1162.64 2291.51 1158.78 2294.65 1155.64 2298.51 1155.64 2302.38 1155.64 2305.51 1158.78 2305.51 1162.64Z" fill="#156082"/><path d="M2312.51 1162.64C2312.51 1166.51 2309.38 1169.64 2305.51 1169.64 2301.65 1169.64 2298.51 1166.51 2298.51 1162.64 2298.51 1158.78 2301.65 1155.64 2305.51 1155.64 2309.38 1155.64 2312.51 1158.78 2312.51 1162.64Z" fill="#156082"/><path d="M2319.51 1162.64C2319.51 1166.51 2316.38 1169.64 2312.51 1169.64 2308.65 1169.64 2305.51 1166.51 2305.51 1162.64 2305.51 1158.78 2308.65 1155.64 2312.51 1155.64 2316.38 1155.64 2319.51 1158.78 2319.51 1162.64Z" fill="#156082"/><path d="M2334.51 1162.64C2334.51 1166.51 2331.38 1169.64 2327.51 1169.64 2323.65 1169.64 2320.51 1166.51 2320.51 1162.64 2320.51 1158.78 2323.65 1155.64 2327.51 1155.64 2331.38 1155.64 2334.51 1158.78 2334.51 1162.64Z" fill="#156082"/><path d="M2349.51 1154.64C2349.51 1158.51 2346.38 1161.64 2342.51 1161.64 2338.65 1161.64 2335.51 1158.51 2335.51 1154.64 2335.51 1150.78 2338.65 1147.64 2342.51 1147.64 2346.38 1147.64 2349.51 1150.78 2349.51 1154.64Z" fill="#156082"/><path d="M2363.51 1154.64C2363.51 1158.51 2360.38 1161.64 2356.51 1161.64 2352.65 1161.64 2349.51 1158.51 2349.51 1154.64 2349.51 1150.78 2352.65 1147.64 2356.51 1147.64 2360.38 1147.64 2363.51 1150.78 2363.51 1154.64Z" fill="#156082"/><path d="M2378.51 1154.64C2378.51 1158.51 2375.38 1161.64 2371.51 1161.64 2367.65 1161.64 2364.51 1158.51 2364.51 1154.64 2364.51 1150.78 2367.65 1147.64 2371.51 1147.64 2375.38 1147.64 2378.51 1150.78 2378.51 1154.64Z" fill="#156082"/><path d="M2392.51 1145.64C2392.51 1149.51 2389.38 1152.64 2385.51 1152.64 2381.65 1152.64 2378.51 1149.51 2378.51 1145.64 2378.51 1141.78 2381.65 1138.64 2385.51 1138.64 2389.38 1138.64 2392.51 1141.78 2392.51 1145.64Z" fill="#156082"/><path d="M2407.51 1145.64C2407.51 1149.51 2404.38 1152.64 2400.51 1152.64 2396.65 1152.64 2393.51 1149.51 2393.51 1145.64 2393.51 1141.78 2396.65 1138.64 2400.51 1138.64 2404.38 1138.64 2407.51 1141.78 2407.51 1145.64Z" fill="#156082"/><path d="M2421.51 1145.64C2421.51 1149.51 2418.38 1152.64 2414.51 1152.64 2410.65 1152.64 2407.51 1149.51 2407.51 1145.64 2407.51 1141.78 2410.65 1138.64 2414.51 1138.64 2418.38 1138.64 2421.51 1141.78 2421.51 1145.64Z" fill="#156082"/><path d="M2436.51 1137.64C2436.51 1141.51 2433.38 1144.64 2429.51 1144.64 2425.65 1144.64 2422.51 1141.51 2422.51 1137.64 2422.51 1133.78 2425.65 1130.64 2429.51 1130.64 2433.38 1130.64 2436.51 1133.78 2436.51 1137.64Z" fill="#156082"/><path d="M2451.51 1137.64C2451.51 1141.51 2448.38 1144.64 2444.51 1144.64 2440.65 1144.64 2437.51 1141.51 2437.51 1137.64 2437.51 1133.78 2440.65 1130.64 2444.51 1130.64 2448.38 1130.64 2451.51 1133.78 2451.51 1137.64Z" fill="#156082"/><path d="M2465.51 1137.64C2465.51 1141.51 2462.38 1144.64 2458.51 1144.64 2454.65 1144.64 2451.51 1141.51 2451.51 1137.64 2451.51 1133.78 2454.65 1130.64 2458.51 1130.64 2462.38 1130.64 2465.51 1133.78 2465.51 1137.64Z" fill="#156082"/><path d="M2480.51 1128.64C2480.51 1132.51 2477.38 1135.64 2473.51 1135.64 2469.65 1135.64 2466.51 1132.51 2466.51 1128.64 2466.51 1124.78 2469.65 1121.64 2473.51 1121.64 2477.38 1121.64 2480.51 1124.78 2480.51 1128.64Z" fill="#156082"/><path d="M2494.51 1128.64C2494.51 1132.51 2491.38 1135.64 2487.51 1135.64 2483.65 1135.64 2480.51 1132.51 2480.51 1128.64 2480.51 1124.78 2483.65 1121.64 2487.51 1121.64 2491.38 1121.64 2494.51 1124.78 2494.51 1128.64Z" fill="#156082"/><path d="M2509.51 1128.64C2509.51 1132.51 2506.38 1135.64 2502.51 1135.64 2498.65 1135.64 2495.51 1132.51 2495.51 1128.64 2495.51 1124.78 2498.65 1121.64 2502.51 1121.64 2506.38 1121.64 2509.51 1124.78 2509.51 1128.64Z" fill="#156082"/><path d="M2523.51 1128.64C2523.51 1132.51 2520.38 1135.64 2516.51 1135.64 2512.65 1135.64 2509.51 1132.51 2509.51 1128.64 2509.51 1124.78 2512.65 1121.64 2516.51 1121.64 2520.38 1121.64 2523.51 1124.78 2523.51 1128.64Z" fill="#156082"/><path d="M2538.51 1120.64C2538.51 1124.51 2535.38 1127.64 2531.51 1127.64 2527.65 1127.64 2524.51 1124.51 2524.51 1120.64 2524.51 1116.78 2527.65 1113.64 2531.51 1113.64 2535.38 1113.64 2538.51 1116.78 2538.51 1120.64Z" fill="#156082"/><path d="M2553.51 1120.64C2553.51 1124.51 2550.38 1127.64 2546.51 1127.64 2542.65 1127.64 2539.51 1124.51 2539.51 1120.64 2539.51 1116.78 2542.65 1113.64 2546.51 1113.64 2550.38 1113.64 2553.51 1116.78 2553.51 1120.64Z" fill="#156082"/><path d="M2567.51 1112.64C2567.51 1116.51 2564.38 1119.64 2560.51 1119.64 2556.65 1119.64 2553.51 1116.51 2553.51 1112.64 2553.51 1108.78 2556.65 1105.64 2560.51 1105.64 2564.38 1105.64 2567.51 1108.78 2567.51 1112.64Z" fill="#156082"/><path d="M2582.51 1112.64C2582.51 1116.51 2579.38 1119.64 2575.51 1119.64 2571.65 1119.64 2568.51 1116.51 2568.51 1112.64 2568.51 1108.78 2571.65 1105.64 2575.51 1105.64 2579.38 1105.64 2582.51 1108.78 2582.51 1112.64Z" fill="#156082"/><path d="M2611.51 1112.64C2611.51 1116.51 2608.38 1119.64 2604.51 1119.64 2600.65 1119.64 2597.51 1116.51 2597.51 1112.64 2597.51 1108.78 2600.65 1105.64 2604.51 1105.64 2608.38 1105.64 2611.51 1108.78 2611.51 1112.64Z" fill="#156082"/><path d="M2625.51 1103.64C2625.51 1107.51 2622.38 1110.64 2618.51 1110.64 2614.65 1110.64 2611.51 1107.51 2611.51 1103.64 2611.51 1099.78 2614.65 1096.64 2618.51 1096.64 2622.38 1096.64 2625.51 1099.78 2625.51 1103.64Z" fill="#156082"/><path d="M2640.51 1103.64C2640.51 1107.51 2637.38 1110.64 2633.51 1110.64 2629.65 1110.64 2626.51 1107.51 2626.51 1103.64 2626.51 1099.78 2629.65 1096.64 2633.51 1096.64 2637.38 1096.64 2640.51 1099.78 2640.51 1103.64Z" fill="#156082"/><path d="M2655.51 1095.64C2655.51 1099.51 2652.38 1102.64 2648.51 1102.64 2644.65 1102.64 2641.51 1099.51 2641.51 1095.64 2641.51 1091.78 2644.65 1088.64 2648.51 1088.64 2652.38 1088.64 2655.51 1091.78 2655.51 1095.64Z" fill="#156082"/><path d="M2669.51 1095.64C2669.51 1099.51 2666.38 1102.64 2662.51 1102.64 2658.65 1102.64 2655.51 1099.51 2655.51 1095.64 2655.51 1091.78 2658.65 1088.64 2662.51 1088.64 2666.38 1088.64 2669.51 1091.78 2669.51 1095.64Z" fill="#156082"/><path d="M2684.51 1087.64C2684.51 1091.51 2681.38 1094.64 2677.51 1094.64 2673.65 1094.64 2670.51 1091.51 2670.51 1087.64 2670.51 1083.78 2673.65 1080.64 2677.51 1080.64 2681.38 1080.64 2684.51 1083.78 2684.51 1087.64Z" fill="#156082"/><path d="M2698.51 1078.64C2698.51 1082.51 2695.38 1085.64 2691.51 1085.64 2687.65 1085.64 2684.51 1082.51 2684.51 1078.64 2684.51 1074.78 2687.65 1071.64 2691.51 1071.64 2695.38 1071.64 2698.51 1074.78 2698.51 1078.64Z" fill="#156082"/><path d="M2713.51 1078.64C2713.51 1082.51 2710.38 1085.64 2706.51 1085.64 2702.65 1085.64 2699.51 1082.51 2699.51 1078.64 2699.51 1074.78 2702.65 1071.64 2706.51 1071.64 2710.38 1071.64 2713.51 1074.78 2713.51 1078.64Z" fill="#156082"/><path d="M2727.51 1078.64C2727.51 1082.51 2724.38 1085.64 2720.51 1085.64 2716.65 1085.64 2713.51 1082.51 2713.51 1078.64 2713.51 1074.78 2716.65 1071.64 2720.51 1071.64 2724.38 1071.64 2727.51 1074.78 2727.51 1078.64Z" fill="#156082"/><path d="M2742.51 1070.64C2742.51 1074.51 2739.38 1077.64 2735.51 1077.64 2731.65 1077.64 2728.51 1074.51 2728.51 1070.64 2728.51 1066.78 2731.65 1063.64 2735.51 1063.64 2739.38 1063.64 2742.51 1066.78 2742.51 1070.64Z" fill="#156082"/><path d="M2757.51 1061.64C2757.51 1065.51 2754.38 1068.64 2750.51 1068.64 2746.65 1068.64 2743.51 1065.51 2743.51 1061.64 2743.51 1057.78 2746.65 1054.64 2750.51 1054.64 2754.38 1054.64 2757.51 1057.78 2757.51 1061.64Z" fill="#156082"/><path d="M2771.51 1053.64C2771.51 1057.51 2768.38 1060.64 2764.51 1060.64 2760.65 1060.64 2757.51 1057.51 2757.51 1053.64 2757.51 1049.78 2760.65 1046.64 2764.51 1046.64 2768.38 1046.64 2771.51 1049.78 2771.51 1053.64Z" fill="#156082"/><path d="M2786.51 1053.64C2786.51 1057.51 2783.38 1060.64 2779.51 1060.64 2775.65 1060.64 2772.51 1057.51 2772.51 1053.64 2772.51 1049.78 2775.65 1046.64 2779.51 1046.64 2783.38 1046.64 2786.51 1049.78 2786.51 1053.64Z" fill="#156082"/><path d="M2800.51 1045.64C2800.51 1049.51 2797.38 1052.64 2793.51 1052.64 2789.65 1052.64 2786.51 1049.51 2786.51 1045.64 2786.51 1041.78 2789.65 1038.64 2793.51 1038.64 2797.38 1038.64 2800.51 1041.78 2800.51 1045.64Z" fill="#156082"/><path d="M2815.51 1028.64C2815.51 1032.51 2812.38 1035.64 2808.51 1035.64 2804.65 1035.64 2801.51 1032.51 2801.51 1028.64 2801.51 1024.78 2804.65 1021.64 2808.51 1021.64 2812.38 1021.64 2815.51 1024.78 2815.51 1028.64Z" fill="#156082"/><path d="M2829.51 1011.64C2829.51 1015.51 2826.38 1018.64 2822.51 1018.64 2818.65 1018.64 2815.51 1015.51 2815.51 1011.64 2815.51 1007.78 2818.65 1004.64 2822.51 1004.64 2826.38 1004.64 2829.51 1007.78 2829.51 1011.64Z" fill="#156082"/><path d="M2837.51 994.643C2837.51 998.509 2834.38 1001.64 2830.51 1001.64 2826.65 1001.64 2823.51 998.509 2823.51 994.643 2823.51 990.777 2826.65 987.643 2830.51 987.643 2834.38 987.643 2837.51 990.777 2837.51 994.643Z" fill="#156082"/><path d="M2844.51 977.643C2844.51 981.509 2841.38 984.643 2837.51 984.643 2833.65 984.643 2830.51 981.509 2830.51 977.643 2830.51 973.777 2833.65 970.643 2837.51 970.643 2841.38 970.643 2844.51 973.777 2844.51 977.643Z" fill="#156082"/><path d="M2851.51 952.643C2851.51 956.509 2848.38 959.643 2844.51 959.643 2840.65 959.643 2837.51 956.509 2837.51 952.643 2837.51 948.777 2840.65 945.643 2844.51 945.643 2848.38 945.643 2851.51 948.777 2851.51 952.643Z" fill="#156082"/><path d="M2859.51 919.643C2859.51 923.509 2856.38 926.643 2852.51 926.643 2848.65 926.643 2845.51 923.509 2845.51 919.643 2845.51 915.777 2848.65 912.643 2852.51 912.643 2856.38 912.643 2859.51 915.777 2859.51 919.643Z" fill="#156082"/><path d="M2866.51 893.643C2866.51 897.509 2863.38 900.643 2859.51 900.643 2855.65 900.643 2852.51 897.509 2852.51 893.643 2852.51 889.777 2855.65 886.643 2859.51 886.643 2863.38 886.643 2866.51 889.777 2866.51 893.643Z" fill="#156082"/><path d="M2873.51 877.643C2873.51 881.509 2870.38 884.643 2866.51 884.643 2862.65 884.643 2859.51 881.509 2859.51 877.643 2859.51 873.777 2862.65 870.643 2866.51 870.643 2870.38 870.643 2873.51 873.777 2873.51 877.643Z" fill="#156082"/><path d="M2880.51 868.643C2880.51 872.509 2877.38 875.643 2873.51 875.643 2869.65 875.643 2866.51 872.509 2866.51 868.643 2866.51 864.777 2869.65 861.643 2873.51 861.643 2877.38 861.643 2880.51 864.777 2880.51 868.643Z" fill="#156082"/><path d="M2888.51 860.643C2888.51 864.509 2885.38 867.643 2881.51 867.643 2877.65 867.643 2874.51 864.509 2874.51 860.643 2874.51 856.777 2877.65 853.643 2881.51 853.643 2885.38 853.643 2888.51 856.777 2888.51 860.643Z" fill="#156082"/><path d="M2895.51 843.643C2895.51 847.509 2892.38 850.643 2888.51 850.643 2884.65 850.643 2881.51 847.509 2881.51 843.643 2881.51 839.777 2884.65 836.643 2888.51 836.643 2892.38 836.643 2895.51 839.777 2895.51 843.643Z" fill="#156082"/><path d="M2902.51 843.643C2902.51 847.509 2899.38 850.643 2895.51 850.643 2891.65 850.643 2888.51 847.509 2888.51 843.643 2888.51 839.777 2891.65 836.643 2895.51 836.643 2899.38 836.643 2902.51 839.777 2902.51 843.643Z" fill="#156082"/><path d="M2910.51 835.643C2910.51 839.509 2907.38 842.643 2903.51 842.643 2899.65 842.643 2896.51 839.509 2896.51 835.643 2896.51 831.777 2899.65 828.643 2903.51 828.643 2907.38 828.643 2910.51 831.777 2910.51 835.643Z" fill="#156082"/><path d="M2917.51 835.643C2917.51 839.509 2914.38 842.643 2910.51 842.643 2906.65 842.643 2903.51 839.509 2903.51 835.643 2903.51 831.777 2906.65 828.643 2910.51 828.643 2914.38 828.643 2917.51 831.777 2917.51 835.643Z" fill="#156082"/><path d="M2924.51 826.643C2924.51 830.509 2921.38 833.643 2917.51 833.643 2913.65 833.643 2910.51 830.509 2910.51 826.643 2910.51 822.777 2913.65 819.643 2917.51 819.643 2921.38 819.643 2924.51 822.777 2924.51 826.643Z" fill="#156082"/><path d="M2931.51 818.643C2931.51 822.509 2928.38 825.643 2924.51 825.643 2920.65 825.643 2917.51 822.509 2917.51 818.643 2917.51 814.777 2920.65 811.643 2924.51 811.643 2928.38 811.643 2931.51 814.777 2931.51 818.643Z" fill="#156082"/><path d="M2946.51 818.643C2946.51 822.509 2943.38 825.643 2939.51 825.643 2935.65 825.643 2932.51 822.509 2932.51 818.643 2932.51 814.777 2935.65 811.643 2939.51 811.643 2943.38 811.643 2946.51 814.777 2946.51 818.643Z" fill="#156082"/><path d="M2961.51 818.643C2961.51 822.509 2958.38 825.643 2954.51 825.643 2950.65 825.643 2947.51 822.509 2947.51 818.643 2947.51 814.777 2950.65 811.643 2954.51 811.643 2958.38 811.643 2961.51 814.777 2961.51 818.643Z" fill="#156082"/><path d="M2975.51 818.643C2975.51 822.509 2972.38 825.643 2968.51 825.643 2964.65 825.643 2961.51 822.509 2961.51 818.643 2961.51 814.777 2964.65 811.643 2968.51 811.643 2972.38 811.643 2975.51 814.777 2975.51 818.643Z" fill="#156082"/><path d="M2990.51 810.643C2990.51 814.509 2987.38 817.643 2983.51 817.643 2979.65 817.643 2976.51 814.509 2976.51 810.643 2976.51 806.777 2979.65 803.643 2983.51 803.643 2987.38 803.643 2990.51 806.777 2990.51 810.643Z" fill="#156082"/><path d="M3004.51 810.643C3004.51 814.509 3001.38 817.643 2997.51 817.643 2993.65 817.643 2990.51 814.509 2990.51 810.643 2990.51 806.777 2993.65 803.643 2997.51 803.643 3001.38 803.643 3004.51 806.777 3004.51 810.643Z" fill="#156082"/><path d="M3019.51 801.643C3019.51 805.509 3016.38 808.643 3012.51 808.643 3008.65 808.643 3005.51 805.509 3005.51 801.643 3005.51 797.777 3008.65 794.643 3012.51 794.643 3016.38 794.643 3019.51 797.777 3019.51 801.643Z" fill="#156082"/><path d="M3033.51 784.643C3033.51 788.509 3030.38 791.643 3026.51 791.643 3022.65 791.643 3019.51 788.509 3019.51 784.643 3019.51 780.777 3022.65 777.643 3026.51 777.643 3030.38 777.643 3033.51 780.777 3033.51 784.643Z" fill="#156082"/><path d="M3048.51 784.643C3048.51 788.509 3045.38 791.643 3041.51 791.643 3037.65 791.643 3034.51 788.509 3034.51 784.643 3034.51 780.777 3037.65 777.643 3041.51 777.643 3045.38 777.643 3048.51 780.777 3048.51 784.643Z" fill="#156082"/><path d="M3063.51 784.643C3063.51 788.509 3060.38 791.643 3056.51 791.643 3052.65 791.643 3049.51 788.509 3049.51 784.643 3049.51 780.777 3052.65 777.643 3056.51 777.643 3060.38 777.643 3063.51 780.777 3063.51 784.643Z" fill="#156082"/><path d="M3077.51 784.643C3077.51 788.509 3074.38 791.643 3070.51 791.643 3066.65 791.643 3063.51 788.509 3063.51 784.643 3063.51 780.777 3066.65 777.643 3070.51 777.643 3074.38 777.643 3077.51 780.777 3077.51 784.643Z" fill="#156082"/><path d="M3092.51 784.643C3092.51 788.509 3089.38 791.643 3085.51 791.643 3081.65 791.643 3078.51 788.509 3078.51 784.643 3078.51 780.777 3081.65 777.643 3085.51 777.643 3089.38 777.643 3092.51 780.777 3092.51 784.643Z" fill="#156082"/><path d="M3106.51 776.643C3106.51 780.509 3103.38 783.643 3099.51 783.643 3095.65 783.643 3092.51 780.509 3092.51 776.643 3092.51 772.777 3095.65 769.643 3099.51 769.643 3103.38 769.643 3106.51 772.777 3106.51 776.643Z" fill="#156082"/><path d="M3121.51 776.643C3121.51 780.509 3118.38 783.643 3114.51 783.643 3110.65 783.643 3107.51 780.509 3107.51 776.643 3107.51 772.777 3110.65 769.643 3114.51 769.643 3118.38 769.643 3121.51 772.777 3121.51 776.643Z" fill="#156082"/><path d="M3135.51 776.643C3135.51 780.509 3132.38 783.643 3128.51 783.643 3124.65 783.643 3121.51 780.509 3121.51 776.643 3121.51 772.777 3124.65 769.643 3128.51 769.643 3132.38 769.643 3135.51 772.777 3135.51 776.643Z" fill="#156082"/><path d="M3150.51 768.643C3150.51 772.509 3147.38 775.643 3143.51 775.643 3139.65 775.643 3136.51 772.509 3136.51 768.643 3136.51 764.777 3139.65 761.643 3143.51 761.643 3147.38 761.643 3150.51 764.777 3150.51 768.643Z" fill="#156082"/><path d="M3164.51 768.643C3164.51 772.509 3161.38 775.643 3157.51 775.643 3153.65 775.643 3150.51 772.509 3150.51 768.643 3150.51 764.777 3153.65 761.643 3157.51 761.643 3161.38 761.643 3164.51 764.777 3164.51 768.643Z" fill="#156082"/><path d="M3179.51 768.643C3179.51 772.509 3176.38 775.643 3172.51 775.643 3168.65 775.643 3165.51 772.509 3165.51 768.643 3165.51 764.777 3168.65 761.643 3172.51 761.643 3176.38 761.643 3179.51 764.777 3179.51 768.643Z" fill="#156082"/><path d="M3194.51 768.643C3194.51 772.509 3191.38 775.643 3187.51 775.643 3183.65 775.643 3180.51 772.509 3180.51 768.643 3180.51 764.777 3183.65 761.643 3187.51 761.643 3191.38 761.643 3194.51 764.777 3194.51 768.643Z" fill="#156082"/><path d="M3208.51 768.643C3208.51 772.509 3205.38 775.643 3201.51 775.643 3197.65 775.643 3194.51 772.509 3194.51 768.643 3194.51 764.777 3197.65 761.643 3201.51 761.643 3205.38 761.643 3208.51 764.777 3208.51 768.643Z" fill="#156082"/><path d="M3223.51 759.643C3223.51 763.509 3220.38 766.643 3216.51 766.643 3212.65 766.643 3209.51 763.509 3209.51 759.643 3209.51 755.777 3212.65 752.643 3216.51 752.643 3220.38 752.643 3223.51 755.777 3223.51 759.643Z" fill="#156082"/><path d="M3237.51 759.643C3237.51 763.509 3234.38 766.643 3230.51 766.643 3226.65 766.643 3223.51 763.509 3223.51 759.643 3223.51 755.777 3226.65 752.643 3230.51 752.643 3234.38 752.643 3237.51 755.777 3237.51 759.643Z" fill="#156082"/><path d="M3252.51 759.643C3252.51 763.509 3249.38 766.643 3245.51 766.643 3241.65 766.643 3238.51 763.509 3238.51 759.643 3238.51 755.777 3241.65 752.643 3245.51 752.643 3249.38 752.643 3252.51 755.777 3252.51 759.643Z" fill="#156082"/><path d="M3281.51 759.643C3281.51 763.509 3278.38 766.643 3274.51 766.643 3270.65 766.643 3267.51 763.509 3267.51 759.643 3267.51 755.777 3270.65 752.643 3274.51 752.643 3278.38 752.643 3281.51 755.777 3281.51 759.643Z" fill="#156082"/><path d="M3296.51 759.643C3296.51 763.509 3293.38 766.643 3289.51 766.643 3285.65 766.643 3282.51 763.509 3282.51 759.643 3282.51 755.777 3285.65 752.643 3289.51 752.643 3293.38 752.643 3296.51 755.777 3296.51 759.643Z" fill="#156082"/><path d="M3368.51 751.643C3368.51 755.509 3365.38 758.643 3361.51 758.643 3357.65 758.643 3354.51 755.509 3354.51 751.643 3354.51 747.777 3357.65 744.643 3361.51 744.643 3365.38 744.643 3368.51 747.777 3368.51 751.643Z" fill="#156082"/></g><g><path d="M2597 1112C2597 1115.87 2593.87 1119 2590 1119 2586.13 1119 2583 1115.87 2583 1112 2583 1108.13 2586.13 1105 2590 1105 2593.87 1105 2597 1108.13 2597 1112Z" fill="#156082"/></g><g><path d="M3267 760C3267 763.866 3263.87 767 3260 767 3256.13 767 3253 763.866 3253 760 3253 756.134 3256.13 753 3260 753 3263.87 753 3267 756.134 3267 760Z" fill="#156082"/></g><g><text fill="#595959" font-family="Aptos Narrow,Aptos Narrow_MSFontService,sans-serif" font-weight="400" font-stretch="semi-condensed" font-size="41" transform="matrix(1 0 0 1 1103.39 1728)">0</text></g><g><text fill="#595959" font-family="Aptos Narrow,Aptos Narrow_MSFontService,sans-serif" font-weight="400" font-stretch="semi-condensed" font-size="41" transform="matrix(1 0 0 1 1103.39 1645)">1</text></g><g><text fill="#595959" font-family="Aptos Narrow,Aptos Narrow_MSFontService,sans-serif" font-weight="400" font-stretch="semi-condensed" font-size="41" transform="matrix(1 0 0 1 1103.39 1561)">2</text></g><g><text fill="#595959" font-family="Aptos Narrow,Aptos Narrow_MSFontService,sans-serif" font-weight="400" font-stretch="semi-condensed" font-size="41" transform="matrix(1 0 0 1 1103.39 1477)">3</text></g><g><text fill="#595959" font-family="Aptos Narrow,Aptos Narrow_MSFontService,sans-serif" font-weight="400" font-stretch="semi-condensed" font-size="41" transform="matrix(1 0 0 1 1103.39 1393)">4</text></g><g><text fill="#595959" font-family="Aptos Narrow,Aptos Narrow_MSFontService,sans-serif" font-weight="400" font-stretch="semi-condensed" font-size="41" transform="matrix(1 0 0 1 1103.39 1309)">5</text></g><g><text fill="#595959" font-family="Aptos Narrow,Aptos Narrow_MSFontService,sans-serif" font-weight="400" font-stretch="semi-condensed" font-size="41" transform="matrix(1 0 0 1 1103.39 1225)">6</text></g><g><text fill="#595959" font-family="Aptos Narrow,Aptos Narrow_MSFontService,sans-serif" font-weight="400" font-stretch="semi-condensed" font-size="41" transform="matrix(1 0 0 1 1103.39 1141)">7</text></g><g><text fill="#595959" font-family="Aptos Narrow,Aptos Narrow_MSFontService,sans-serif" font-weight="400" font-stretch="semi-condensed" font-size="41" transform="matrix(1 0 0 1 1103.39 1057)">8</text></g><g><text fill="#595959" font-family="Aptos Narrow,Aptos Narrow_MSFontService,sans-serif" font-weight="400" font-stretch="semi-condensed" font-size="41" transform="matrix(1 0 0 1 1103.39 973)">9</text></g><g><text fill="#595959" font-family="Aptos Narrow,Aptos Narrow_MSFontService,sans-serif" font-weight="400" font-stretch="semi-condensed" font-size="41" transform="matrix(1 0 0 1 1082.49 889)">10</text></g><g><text fill="#595959" font-family="Aptos Narrow,Aptos Narrow_MSFontService,sans-serif" font-weight="400" font-stretch="semi-condensed" font-size="41" transform="matrix(1 0 0 1 1082.49 805)">11</text></g><g><text fill="#595959" font-family="Aptos Narrow,Aptos Narrow_MSFontService,sans-serif" font-weight="400" font-stretch="semi-condensed" font-size="41" transform="matrix(1 0 0 1 1082.49 721)">12</text></g><g><text fill="#595959" font-family="Aptos Narrow,Aptos Narrow_MSFontService,sans-serif" font-weight="400" font-stretch="semi-condensed" font-size="41" transform="matrix(1 0 0 1 1082.49 637)">13</text></g><g><text fill="#595959" font-family="Aptos Narrow,Aptos Narrow_MSFontService,sans-serif" font-weight="400" font-stretch="semi-condensed" font-size="41" transform="matrix(1 0 0 1 1082.49 554)">14</text></g><g><text fill="#595959" font-family="Aptos Narrow,Aptos Narrow_MSFontService,sans-serif" font-weight="400" font-stretch="semi-condensed" font-size="41" transform="matrix(1 0 0 1 1151.93 1782)">0</text></g><g><text fill="#595959" font-family="Aptos Narrow,Aptos Narrow_MSFontService,sans-serif" font-weight="400" font-stretch="semi-condensed" font-size="41" transform="matrix(1 0 0 1 1287.18 1782)">10</text></g><g><text fill="#595959" font-family="Aptos Narrow,Aptos Narrow_MSFontService,sans-serif" font-weight="400" font-stretch="semi-condensed" font-size="41" transform="matrix(1 0 0 1 1432.88 1782)">20</text></g><g><text fill="#595959" font-family="Aptos Narrow,Aptos Narrow_MSFontService,sans-serif" font-weight="400" font-stretch="semi-condensed" font-size="41" transform="matrix(1 0 0 1 1578.58 1782)">30</text></g><g><text fill="#595959" font-family="Aptos Narrow,Aptos Narrow_MSFontService,sans-serif" font-weight="400" font-stretch="semi-condensed" font-size="41" transform="matrix(1 0 0 1 1724.28 1782)">40</text></g><g><text fill="#595959" font-family="Aptos Narrow,Aptos Narrow_MSFontService,sans-serif" font-weight="400" font-stretch="semi-condensed" font-size="41" transform="matrix(1 0 0 1 1869.99 1782)">50</text></g><g><text fill="#595959" font-family="Aptos Narrow,Aptos Narrow_MSFontService,sans-serif" font-weight="400" font-stretch="semi-condensed" font-size="41" transform="matrix(1 0 0 1 2015.69 1782)">60</text></g><g><text fill="#595959" font-family="Aptos Narrow,Aptos Narrow_MSFontService,sans-serif" font-weight="400" font-stretch="semi-condensed" font-size="41" transform="matrix(1 0 0 1 2161.39 1782)">70</text></g><g><text fill="#595959" font-family="Aptos Narrow,Aptos Narrow_MSFontService,sans-serif" font-weight="400" font-stretch="semi-condensed" font-size="41" transform="matrix(1 0 0 1 2307.09 1782)">80</text></g><g><text fill="#595959" font-family="Aptos Narrow,Aptos Narrow_MSFontService,sans-serif" font-weight="400" font-stretch="semi-condensed" font-size="41" transform="matrix(1 0 0 1 2452.8 1782)">90</text></g><g><text fill="#595959" font-family="Aptos Narrow,Aptos Narrow_MSFontService,sans-serif" font-weight="400" font-stretch="semi-condensed" font-size="41" transform="matrix(1 0 0 1 2588.05 1782)">100</text></g><g><text fill="#595959" font-family="Aptos Narrow,Aptos Narrow_MSFontService,sans-serif" font-weight="400" font-stretch="semi-condensed" font-size="41" transform="matrix(1 0 0 1 2733.75 1782)">110</text></g><g><text fill="#595959" font-family="Aptos Narrow,Aptos Narrow_MSFontService,sans-serif" font-weight="400" font-stretch="semi-condensed" font-size="41" transform="matrix(1 0 0 1 2879.45 1782)">120</text></g><g><text fill="#595959" font-family="Aptos Narrow,Aptos Narrow_MSFontService,sans-serif" font-weight="400" font-stretch="semi-condensed" font-size="41" transform="matrix(1 0 0 1 3025.15 1782)">130</text></g><g><text fill="#595959" font-family="Aptos Narrow,Aptos Narrow_MSFontService,sans-serif" font-weight="400" font-stretch="semi-condensed" font-size="41" transform="matrix(1 0 0 1 3170.86 1782)">140</text></g><g><text fill="#595959" font-family="Aptos Narrow,Aptos Narrow_MSFontService,sans-serif" font-weight="400" font-stretch="semi-condensed" font-size="41" transform="matrix(1 0 0 1 3316.56 1782)">150</text></g><g><text fill="#595959" font-family="Aptos Narrow,Aptos Narrow_MSFontService,sans-serif" font-weight="400" font-stretch="semi-condensed" font-size="41" transform="matrix(1 0 0 1 3462.26 1782)">160</text></g><g><text fill="#595959" font-family="Aptos Narrow,Aptos Narrow_MSFontService,sans-serif" font-weight="400" font-stretch="semi-condensed" font-size="46" transform="matrix(6.12323e-17 -1 1 6.12323e-17 1055.79 1156)">pH</text></g><g><text fill="#595959" font-family="Aptos Narrow,Aptos Narrow_MSFontService,sans-serif" font-weight="400" font-stretch="semi-condensed" font-size="46" transform="matrix(1 0 0 1 2058.88 1850)">Volumen der Malsung in ml</text></g><g><text fill="#595959" font-family="Aptos Narrow,Aptos Narrow_MSFontService,sans-serif" font-weight="400" font-stretch="semi-condensed" font-size="83" transform="matrix(1 0 0 1 1800.73 461)">Titration von Phosphorsure</text></g><rect x="956.5" y="350.5" width="2619" height="1570" stroke="#D9D9D9" stroke-width="3.4375" stroke-linejoin="round" stroke-miterlimit="10" fill="none"/></g></svg>